<svg xmlns="http://www.w3.org/2000/svg" width="900" height="852" viewBox="0 0 900 852" fill="none"><g opacity="0.2" filter="url(#filter0_f_9706_119)"><ellipse cx="450.066" cy="414.413" rx="329.256" ry="294.265" transform="rotate(-0.550154 450.066 414.413)" fill="url(#paint0_linear_9706_119)"></ellipse></g><g opacity="0.4" filter="url(#filter1_f_9706_119)"><path d="M365 237.999L578.908 361.499V608.499L365 731.999L151.092 608.499V361.499L365 237.999Z" fill="black"></path></g><path d="M364 169.999L577.908 293.499V540.499L364 663.999L150.092 540.499V293.499L364 169.999Z" fill="black"></path><path fill-rule="evenodd" clip-rule="evenodd" d="M238 308H480.016V396.928H474.456V313.56H243.56V489.279H416.956V494.839H238V308Z" fill="url(#paint1_linear_9706_119)"></path><path fill-rule="evenodd" clip-rule="evenodd" d="M404.154 526.446H310.483V520.886H404.154V526.446Z" fill="url(#paint2_linear_9706_119)"></path><path fill-rule="evenodd" clip-rule="evenodd" d="M384.624 503.863V523.667H379.064V503.863H384.624Z" fill="url(#paint3_linear_9706_119)"></path><path fill-rule="evenodd" clip-rule="evenodd" d="M339.242 492.67V523.666H333.682V492.67H339.242Z" fill="url(#paint4_linear_9706_119)"></path><path fill-rule="evenodd" clip-rule="evenodd" d="M389.672 468.508H240.78V462.948H389.672V468.508Z" fill="url(#paint5_linear_9706_119)"></path><path d="M472.626 510.777C472.628 506.831 471.614 502.952 469.681 499.512C467.748 496.072 464.961 493.188 461.589 491.139L461.583 434.149C464.956 432.099 467.745 429.215 469.679 425.774C471.614 422.333 472.63 418.452 472.629 414.504C472.629 406.182 468.203 398.902 461.589 394.866L461.587 417.066L449.645 423.959L437.7 417.064L437.702 394.864C434.329 396.914 431.542 399.798 429.608 403.239C427.674 406.68 426.66 410.561 426.663 414.508C426.661 418.454 427.675 422.334 429.608 425.773C431.541 429.213 434.328 432.097 437.7 434.147L437.705 491.137C434.331 493.187 431.543 496.072 429.608 499.513C427.673 502.954 426.658 506.835 426.659 510.783C426.659 519.105 431.085 526.385 437.698 530.421L437.701 508.218L449.642 501.325L461.589 508.221L461.584 530.418C464.958 528.37 467.747 525.487 469.681 522.046C471.616 518.606 472.63 514.724 472.626 510.777Z" stroke="url(#paint6_linear_9706_119)" stroke-width="5"></path><mask id="mask0_9706_119" style="mask-type:alpha" maskUnits="userSpaceOnUse" x="319" y="361" width="76" height="55"><path d="M322 391.222L343.538 413L392 364" stroke="black" stroke-width="6" stroke-linecap="round" stroke-linejoin="round"></path></mask><g mask="url(#mask0_9706_119)"><path d="M356.776 334C326.525 334 302 358.523 302 388.778C302 419.029 326.525 443.554 356.776 443.554C387.029 443.554 411.554 419.029 411.554 388.778C411.554 358.523 387.029 334 356.776 334Z" fill="url(#paint7_linear_9706_119)"></path></g><defs><filter id="filter0_f_9706_119" x="0.813477" y="0.144043" width="898.506" height="828.537" filterUnits="userSpaceOnUse" color-interpolation-filters="sRGB"><feGaussianBlur stdDeviation="60"></feGaussianBlur></filter><filter id="filter1_f_9706_119" x="31.0918" y="117.999" width="667.816" height="734" filterUnits="userSpaceOnUse" color-interpolation-filters="sRGB"><feGaussianBlur stdDeviation="60"></feGaussianBlur></filter><linearGradient id="paint0_linear_9706_119" x1="120.351" y1="120.148" x2="809.974" y2="669.534" gradientUnits="userSpaceOnUse"><stop stop-color="#FCCB7C"></stop><stop offset="1" stop-color="#FF6D64"></stop></linearGradient><linearGradient id="paint1_linear_9706_119" x1="551.105" y1="636.012" x2="303.371" y2="264.419" gradientUnits="userSpaceOnUse"><stop stop-color="#B273C9"></stop><stop offset="0.433498" stop-color="#CCBBFF"></stop><stop offset="0.753695" stop-color="#E987B3"></stop><stop offset="1" stop-color="#F87FA0"></stop></linearGradient><linearGradient id="paint2_linear_9706_119" x1="431.669" y1="530.647" x2="430.853" y2="514.716" gradientUnits="userSpaceOnUse"><stop stop-color="#B273C9"></stop><stop offset="0.433498" stop-color="#CCBBFF"></stop><stop offset="0.753695" stop-color="#E987B3"></stop><stop offset="1" stop-color="#F87FA0"></stop></linearGradient><linearGradient id="paint3_linear_9706_119" x1="386.258" y1="538.63" x2="369.529" y2="533.191" gradientUnits="userSpaceOnUse"><stop stop-color="#B273C9"></stop><stop offset="0.433498" stop-color="#CCBBFF"></stop><stop offset="0.753695" stop-color="#E987B3"></stop><stop offset="1" stop-color="#F87FA0"></stop></linearGradient><linearGradient id="paint4_linear_9706_119" x1="340.875" y1="547.087" x2="323.143" y2="543.404" gradientUnits="userSpaceOnUse"><stop stop-color="#B273C9"></stop><stop offset="0.433498" stop-color="#CCBBFF"></stop><stop offset="0.753695" stop-color="#E987B3"></stop><stop offset="1" stop-color="#F87FA0"></stop></linearGradient><linearGradient id="paint5_linear_9706_119" x1="433.407" y1="472.709" x2="432.892" y2="456.753" gradientUnits="userSpaceOnUse"><stop stop-color="#B273C9"></stop><stop offset="0.433498" stop-color="#CCBBFF"></stop><stop offset="0.753695" stop-color="#E987B3"></stop><stop offset="1" stop-color="#F87FA0"></stop></linearGradient><linearGradient id="paint6_linear_9706_119" x1="489.963" y1="422.323" x2="409.323" y2="502.963" gradientUnits="userSpaceOnUse"><stop stop-color="#F87FA0"></stop><stop offset="0.281663" stop-color="#E987B3"></stop><stop offset="0.620079" stop-color="#CCBBFF"></stop><stop offset="1" stop-color="#B273C9"></stop></linearGradient><linearGradient id="paint7_linear_9706_119" x1="284.234" y1="360.648" x2="414.233" y2="390.258" gradientUnits="userSpaceOnUse"><stop offset="0.101145" stop-color="#B273C9"></stop><stop offset="0.406212" stop-color="#CCBBFF"></stop><stop offset="0.603996" stop-color="#E987B3"></stop><stop offset="1" stop-color="#F87FA0"></stop></linearGradient></defs></svg>