<svg xmlns="http://www.w3.org/2000/svg" width="900" height="829" viewBox="0 0 900 829" fill="none"><g opacity="0.15" filter="url(#filter0_f_9706_120)"><ellipse cx="329.256" cy="294.265" rx="329.256" ry="294.265" transform="matrix(-0.999954 -0.00960185 -0.00960185 0.999954 782.133 123.321)" fill="url(#paint0_linear_9706_120)"></ellipse></g><g opacity="0.4" filter="url(#filter1_f_9706_120)"><path d="M514.133 194.998L300.225 318.498V565.498L514.133 688.998L728.041 565.498V318.498L514.133 194.998Z" fill="black"></path></g><path d="M525 135.998L738.908 259.498V506.498L525 629.998L311.092 506.498V259.498L525 135.998Z" fill="black"></path><path fill-rule="evenodd" clip-rule="evenodd" d="M514.173 379.874L538.319 393.815L544.871 397.597C542.315 401.123 540.575 405.888 543.914 413.222L544.017 413.447L544.142 413.661C545.307 415.632 555.817 433.13 566.178 440.287C567.568 441.249 568.878 442.082 570.182 442.834C572.172 443.983 573.767 444.724 575.186 445.382C576.255 445.878 577.178 446.306 578.065 446.818C579.526 447.662 581.277 448.918 584.176 452.366L584.786 453.131L583.864 453.773L598.581 474.59L605.962 469.448L594.466 453.773L645.999 416.93L657.693 433.405L665 428.314L650.283 407.496L649.295 408.185C649.251 406.388 649.279 403.719 649.31 400.721C649.401 392.27 649.524 380.695 648.364 370.94L648.337 370.747C646.858 361.612 642.974 355.343 636.464 351.585C635.16 350.832 633.745 350.184 632.234 349.646L633.195 347.982C633.657 347.182 633.782 346.231 633.543 345.338C633.304 344.445 632.72 343.684 631.919 343.221L610.791 331.023L612.534 328.005C614.845 324.003 615.471 319.246 614.275 314.782C613.079 310.318 610.158 306.511 606.156 304.201C602.153 301.89 597.397 301.264 592.933 302.46C588.468 303.656 584.662 306.577 582.351 310.579L580.609 313.597L559.481 301.399C558.68 300.937 557.729 300.812 556.836 301.051C555.943 301.29 555.182 301.874 554.72 302.675L542.522 323.803L539.504 322.06C535.501 319.749 530.745 319.123 526.28 320.319C521.816 321.515 518.01 324.436 515.699 328.438C514.555 330.42 513.812 332.608 513.514 334.877C513.215 337.146 513.366 339.451 513.958 341.662C514.551 343.872 515.572 345.944 516.966 347.76C518.359 349.575 520.096 351.099 522.078 352.243L525.096 353.985L512.898 375.113C512.435 375.914 512.31 376.865 512.549 377.758C512.789 378.651 513.373 379.412 514.173 379.874ZM623.609 364.587L628.304 356.454C632.568 357.674 637.622 362.695 639.15 372.055C640.227 381.19 640.108 392.355 640.022 400.524V400.524L640.021 400.551L640.021 400.56C639.993 403.2 639.968 405.485 639.99 407.314L588.434 443.331C586.515 441.408 584.687 439.988 582.678 438.828C581.429 438.107 580.225 437.548 579.054 437.005L579.046 437.002C577.756 436.403 576.423 435.783 574.795 434.844C573.713 434.219 572.614 433.519 571.434 432.704C564.428 427.864 555.919 415.373 552.271 409.24C550.78 405.872 551.18 404.453 552.998 402.289L562.466 407.756L569.796 411.988L586.612 421.697C587.412 422.159 588.364 422.284 589.256 422.045C590.149 421.805 590.91 421.221 591.373 420.421L615.146 379.245C619.44 380.23 624.538 380.542 626.508 377.932C628.31 375.545 628.402 372.303 626.682 369.823C625.279 367.805 624.29 366.067 623.609 364.587ZM614.034 367.23L587.079 413.917L573.281 405.951L568.969 403.462L562.933 399.977L544.823 389.521L538.786 386.036L520.677 375.58L532.875 354.452C533.337 353.652 533.462 352.7 533.223 351.808C532.984 350.915 532.4 350.154 531.599 349.691L525.563 346.206C523.161 344.82 521.409 342.536 520.691 339.858C519.973 337.179 520.349 334.325 521.736 331.924C523.122 329.522 525.406 327.77 528.084 327.052C530.763 326.334 533.617 326.71 536.018 328.097L542.055 331.582C542.855 332.044 543.807 332.169 544.7 331.93C545.592 331.691 546.354 331.107 546.816 330.306L559.014 309.178L580.142 321.376C580.942 321.839 581.894 321.964 582.786 321.725C583.679 321.485 584.441 320.901 584.903 320.101L588.388 314.064C589.774 311.663 592.058 309.91 594.737 309.193C597.415 308.475 600.269 308.851 602.671 310.237C605.072 311.624 606.824 313.907 607.542 316.586C608.26 319.264 607.884 322.118 606.498 324.52L603.012 330.556C602.55 331.357 602.425 332.308 602.664 333.201C602.903 334.094 603.488 334.855 604.288 335.317L625.416 347.515L625.051 348.147C618.97 347.922 616.062 351.026 614.996 352.58C613.112 355.318 611.983 361.039 614.034 367.23Z" fill="url(#paint1_linear_9706_120)"></path><path d="M403 289.779H469.704V296.193H403V289.779Z" fill="url(#paint2_linear_9706_120)"></path><path d="M462.008 469.367H531.277V475.781H462.008V469.367Z" fill="url(#paint3_linear_9706_120)"></path><path d="M403 433.449V289.779H410.697V433.449H403Z" fill="url(#paint4_linear_9706_120)"></path><path d="M474.835 469.367V433.449H482.532V469.367H474.835Z" fill="url(#paint5_linear_9706_120)"></path><path d="M510.753 469.367V433.449H518.45V469.367H510.753Z" fill="url(#paint6_linear_9706_120)"></path><path fill-rule="evenodd" clip-rule="evenodd" d="M518.45 425.753H403V433.449H535.802V425.753H518.45Z" fill="url(#paint7_linear_9706_120)"></path><path fill-rule="evenodd" clip-rule="evenodd" d="M469.704 296.193V289.779H538.627V296.193H469.704Z" fill="url(#paint8_linear_9706_120)"></path><path d="M601.946 270C599.751 270 597.428 271.768 598.074 277.267C598.589 281.656 599.949 286.012 601.946 286.012C603.941 286.012 605.3 281.656 605.816 277.267C606.465 271.768 604.143 270 601.946 270Z" fill="url(#paint9_linear_9706_120)"></path><path d="M641.132 301.992C646.219 299.804 646.588 296.908 645.49 295.007C644.392 293.104 641.7 291.976 637.263 295.285C633.719 297.927 630.627 301.283 631.627 303.012C632.624 304.739 637.076 303.74 641.132 301.992Z" fill="url(#paint10_linear_9706_120)"></path><path d="M627.174 276.699C625.274 275.599 622.379 275.969 620.187 281.055C618.439 285.113 617.442 289.567 619.171 290.564C620.897 291.561 624.254 288.47 626.894 284.928C630.203 280.49 629.079 277.797 627.174 276.699Z" fill="url(#paint11_linear_9706_120)"></path><defs><filter id="filter0_f_9706_120" x="0.813477" y="0.14209" width="898.506" height="828.537" filterUnits="userSpaceOnUse" color-interpolation-filters="sRGB"><feGaussianBlur stdDeviation="60"></feGaussianBlur></filter><filter id="filter1_f_9706_120" x="180.225" y="74.998" width="667.816" height="734" filterUnits="userSpaceOnUse" color-interpolation-filters="sRGB"><feGaussianBlur stdDeviation="60"></feGaussianBlur></filter><linearGradient id="paint0_linear_9706_120" x1="657.741" y1="589.118" x2="20.7449" y2="36.7502" gradientUnits="userSpaceOnUse"><stop stop-color="#4900A5"></stop><stop offset="0.463542" stop-color="#6000AB"></stop><stop offset="0.958333" stop-color="#BC4FFF"></stop></linearGradient><linearGradient id="paint1_linear_9706_120" x1="580.262" y1="266.246" x2="654.611" y2="530.758" gradientUnits="userSpaceOnUse"><stop stop-color="#B273C9"></stop><stop offset="0.357492" stop-color="#CCBBFF"></stop><stop offset="0.741567" stop-color="#E987B3"></stop><stop offset="1" stop-color="#F87FA0"></stop></linearGradient><linearGradient id="paint2_linear_9706_120" x1="349.124" y1="258.992" x2="612.092" y2="516.83" gradientUnits="userSpaceOnUse"><stop stop-color="#B273C9"></stop><stop offset="0.332413" stop-color="#CCBBFF"></stop><stop offset="0.652522" stop-color="#E987B3"></stop><stop offset="1" stop-color="#F87FA0"></stop></linearGradient><linearGradient id="paint3_linear_9706_120" x1="349.124" y1="258.992" x2="612.092" y2="516.83" gradientUnits="userSpaceOnUse"><stop stop-color="#B273C9"></stop><stop offset="0.332413" stop-color="#CCBBFF"></stop><stop offset="0.652522" stop-color="#E987B3"></stop><stop offset="1" stop-color="#F87FA0"></stop></linearGradient><linearGradient id="paint4_linear_9706_120" x1="349.124" y1="258.992" x2="612.092" y2="516.83" gradientUnits="userSpaceOnUse"><stop stop-color="#B273C9"></stop><stop offset="0.332413" stop-color="#CCBBFF"></stop><stop offset="0.652522" stop-color="#E987B3"></stop><stop offset="1" stop-color="#F87FA0"></stop></linearGradient><linearGradient id="paint5_linear_9706_120" x1="349.124" y1="258.992" x2="612.092" y2="516.83" gradientUnits="userSpaceOnUse"><stop stop-color="#B273C9"></stop><stop offset="0.332413" stop-color="#CCBBFF"></stop><stop offset="0.652522" stop-color="#E987B3"></stop><stop offset="1" stop-color="#F87FA0"></stop></linearGradient><linearGradient id="paint6_linear_9706_120" x1="349.124" y1="258.992" x2="612.092" y2="516.83" gradientUnits="userSpaceOnUse"><stop stop-color="#B273C9"></stop><stop offset="0.332413" stop-color="#CCBBFF"></stop><stop offset="0.652522" stop-color="#E987B3"></stop><stop offset="1" stop-color="#F87FA0"></stop></linearGradient><linearGradient id="paint7_linear_9706_120" x1="349.124" y1="258.992" x2="612.092" y2="516.83" gradientUnits="userSpaceOnUse"><stop stop-color="#B273C9"></stop><stop offset="0.332413" stop-color="#CCBBFF"></stop><stop offset="0.652522" stop-color="#E987B3"></stop><stop offset="1" stop-color="#F87FA0"></stop></linearGradient><linearGradient id="paint8_linear_9706_120" x1="349.124" y1="258.992" x2="612.092" y2="516.83" gradientUnits="userSpaceOnUse"><stop stop-color="#B273C9"></stop><stop offset="0.332413" stop-color="#CCBBFF"></stop><stop offset="0.652522" stop-color="#E987B3"></stop><stop offset="1" stop-color="#F87FA0"></stop></linearGradient><linearGradient id="paint9_linear_9706_120" x1="592.577" y1="266.665" x2="611.738" y2="270.966" gradientUnits="userSpaceOnUse"><stop stop-color="#EE84AB"></stop><stop offset="0.37" stop-color="#E193C5"></stop><stop offset="0.755" stop-color="#D0B2F2"></stop><stop offset="1" stop-color="#D8A4DD"></stop></linearGradient><linearGradient id="paint10_linear_9706_120" x1="621.587" y1="290.943" x2="648.35" y2="307.334" gradientUnits="userSpaceOnUse"><stop stop-color="#EE84AB"></stop><stop offset="0.37" stop-color="#E193C5"></stop><stop offset="0.755" stop-color="#D0B2F2"></stop><stop offset="1" stop-color="#D8A4DD"></stop></linearGradient><linearGradient id="paint11_linear_9706_120" x1="611.012" y1="273.159" x2="635.433" y2="281.282" gradientUnits="userSpaceOnUse"><stop stop-color="#EE84AB"></stop><stop offset="0.37" stop-color="#E193C5"></stop><stop offset="0.755" stop-color="#D0B2F2"></stop><stop offset="1" stop-color="#D8A4DD"></stop></linearGradient></defs></svg>