<svg width="628" height="129" viewBox="0 0 628 129" fill="none" xmlns="http://www.w3.org/2000/svg">
<path d="M615.036 77.0035C613.864 76.4954 612.81 75.7496 611.941 74.8134C611.076 73.896 610.431 72.7934 610.057 71.5898L614.006 70.7519C614.389 71.6559 615.047 72.4164 615.888 72.9251C616.718 73.4677 617.687 73.7595 618.679 73.7654C619.295 73.7201 619.899 73.5791 620.471 73.3477C621.042 73.1228 621.576 72.8135 622.055 72.4301C622.527 72.0484 622.912 71.572 623.187 71.032C623.472 70.4841 623.619 69.8748 623.615 69.2572C623.629 68.7448 623.516 68.2369 623.284 67.7795C623.066 67.3354 622.765 66.937 622.396 66.606C621.988 66.2526 621.539 65.9494 621.059 65.7029C620.568 65.4422 620.06 65.2155 619.538 65.0244C619.054 64.8505 618.523 64.6847 617.944 64.5269C616.734 64.2029 615.567 63.7352 614.468 63.1337C613.451 62.5592 612.549 61.8019 611.808 60.9001C611.283 60.2697 610.874 59.5521 610.599 58.7801C610.312 57.9905 610.167 57.1568 610.17 56.3171C610.165 55.1921 610.387 54.0776 610.823 53.0404C611.248 52.0262 611.868 51.1056 612.65 50.3312C613.433 49.5479 614.362 48.9253 615.385 48.4984C616.428 48.0621 617.548 47.8396 618.679 47.844C619.705 47.8393 620.724 48.0235 621.683 48.3874C622.622 48.7422 623.491 49.2606 624.249 49.9183C625.512 50.9935 626.419 52.4242 626.854 54.0232L622.924 54.8514C622.699 54.2236 622.336 53.6542 621.862 53.1853C621.456 52.7655 620.969 52.4319 620.431 52.2045C619.893 51.9771 619.314 51.8607 618.73 51.8621C618.138 51.86 617.552 51.9792 617.008 52.2122C616.466 52.4377 615.974 52.7657 615.557 53.178C615.14 53.5941 614.807 54.0859 614.575 54.6268C614.341 55.1657 614.221 55.7468 614.222 56.334C614.219 56.7446 614.285 57.1527 614.417 57.5413C614.534 57.8863 614.702 58.2118 614.916 58.5072C615.138 58.804 615.402 59.0675 615.699 59.2896C615.993 59.5204 616.305 59.7271 616.633 59.9077C616.982 60.0897 617.341 60.2509 617.709 60.3906C618.123 60.5572 618.485 60.6876 618.79 60.7842L619.869 61.1247C620.283 61.2535 620.599 61.3573 620.817 61.4362C621.521 61.6828 622.205 61.9831 622.863 62.3344C623.522 62.6865 624.144 63.1014 624.723 63.5732C625.294 64.0323 625.81 64.5566 626.259 65.1354C626.7 65.7128 627.048 66.3557 627.289 67.0406C627.545 67.7581 627.674 68.5149 627.669 69.2766C627.673 70.4268 627.417 71.5632 626.922 72.6016C626.443 73.6261 625.767 74.546 624.931 75.3084C624.086 76.0685 623.112 76.6727 622.055 77.0928C620.99 77.5305 619.848 77.756 618.696 77.7569C617.437 77.7633 616.19 77.5067 615.036 77.0035ZM291.648 76.9334C290.22 76.3433 288.931 75.4607 287.866 74.3425C286.767 73.2764 285.894 72.0003 285.299 70.5901C284.733 69.1703 284.451 67.6536 284.467 66.1254V48.0734H288.444V66.1085C288.439 67.1107 288.634 68.1039 289.017 69.0303C289.41 69.9547 289.981 70.7931 290.698 71.4981C291.401 72.2295 292.251 72.8054 293.191 73.1883C294.119 73.575 295.115 73.7697 296.12 73.7606C297.116 73.7605 298.102 73.5661 299.022 73.1883C299.953 72.7985 300.794 72.2234 301.494 71.4981C302.229 70.8007 302.813 69.9621 303.214 69.0327C303.597 68.104 303.791 67.1082 303.785 66.1037V48.0686H307.761V66.123C307.778 67.6512 307.495 69.1679 306.929 70.5877C306.325 71.9933 305.453 73.2678 304.36 74.3401V74.3594C303.282 75.4515 301.996 76.3176 300.578 76.9069C299.167 77.4855 297.655 77.7762 296.13 77.7617C294.6 77.7774 293.082 77.4961 291.66 76.9334H291.648ZM567.497 76.6123C565.679 75.8572 564.033 74.7416 562.66 73.3332C561.242 71.9677 560.124 70.3233 559.376 68.5039C558.633 66.6952 558.264 64.7551 558.292 62.8005C558.268 60.8441 558.638 58.9028 559.38 57.0922C560.143 55.2712 561.259 53.6192 562.665 52.2315C564.044 50.8245 565.688 49.7035 567.502 48.9331C569.321 48.1881 571.273 47.8185 573.239 47.8465C575.198 47.822 577.143 48.1915 578.956 48.9331C580.768 49.7172 582.41 50.8438 583.793 52.2508C585.203 53.6274 586.325 55.2687 587.097 57.0801C587.844 58.8968 588.222 60.8439 588.207 62.8077C588.224 64.7718 587.847 66.7193 587.097 68.5353C586.332 70.3504 585.209 71.993 583.793 73.3646C582.409 74.7667 580.76 75.8805 578.942 76.6413C577.125 77.3728 575.183 77.742 573.224 77.7279C571.264 77.7331 569.323 77.3541 567.509 76.6123H567.497ZM569.021 52.6154C567.702 53.1865 566.507 54.0064 565.499 55.0301C564.466 56.0366 563.644 57.2383 563.081 58.5651C562.546 59.8959 562.277 61.3183 562.29 62.7521C562.272 64.1865 562.541 65.61 563.081 66.9392C563.634 68.2715 564.458 69.4751 565.499 70.4743C566.49 71.5111 567.69 72.3259 569.021 72.8648C570.358 73.408 571.79 73.6829 573.234 73.6737C574.665 73.6828 576.084 73.4078 577.408 72.8648C578.736 72.3102 579.939 71.4976 580.949 70.4743C581.983 69.4684 582.805 68.2665 583.368 66.9392C583.931 65.6158 584.215 64.1902 584.2 62.7521C584.209 61.3146 583.926 59.8901 583.368 58.5651C582.793 57.2504 581.981 56.0521 580.973 55.0301C579.95 54.0081 578.742 53.1888 577.413 52.6154C576.09 52.071 574.67 51.7952 573.239 51.8041C571.795 51.7965 570.364 52.073 569.028 52.6179L569.021 52.6154ZM204.565 76.6123C202.747 75.8577 201.102 74.743 199.728 73.3356C198.31 71.97 197.192 70.3256 196.443 68.5063C195.699 66.6962 195.329 64.7546 195.355 62.7981C195.332 60.8426 195.702 58.9023 196.443 57.0922C197.206 55.2717 198.323 53.6198 199.728 52.2315C201.107 50.8248 202.751 49.7039 204.565 48.9331C205.878 48.3976 207.264 48.0583 208.676 47.9261H210.258C211.267 47.9248 212.273 48.017 213.265 48.2014C214.223 48.4016 215.158 48.6994 216.056 49.09C216.949 49.4887 217.81 49.9578 218.629 50.4929C219.103 50.8149 219.538 51.1369 219.933 51.4588L217.105 54.2815C216.307 53.6274 215.422 53.0886 214.474 52.6806C213.15 52.1374 211.731 51.8624 210.299 51.8717C208.862 51.8637 207.437 52.1386 206.105 52.6806C204.789 53.2555 203.594 54.0749 202.584 55.0953C201.56 56.1038 200.747 57.3054 200.192 58.6303H200.17C199.635 59.961 199.367 61.3835 199.379 62.8174C199.363 64.2578 199.632 65.6872 200.17 67.0237C200.736 68.3436 201.558 69.5385 202.589 70.5394C203.58 71.5772 204.78 72.3928 206.11 72.9324C207.442 73.4747 208.867 73.7503 210.304 73.7437C211.748 73.7487 213.179 73.4732 214.517 72.9324C215.471 72.5446 216.359 72.011 217.149 71.3508L219.957 74.1759C219.539 74.5206 219.103 74.843 218.651 75.1418C217.844 75.6954 216.982 76.1655 216.08 76.5447C215.185 76.9356 214.25 77.2272 213.291 77.414C212.302 77.6148 211.294 77.7143 210.285 77.711C208.328 77.7214 206.389 77.3481 204.577 76.6123H204.565ZM492.758 77.5202H487.594V48.0131H504.331V51.9224H491.532V60.818H501.129V64.7249H491.532V73.6133H504.331V77.5226L492.758 77.5202ZM443.678 77.4405L457.901 51.9586H444.232V48.0686H464.57L450.266 73.5722H464.192V77.4357L443.678 77.4405ZM416.713 77.4405V48.071H420.651V77.4429L416.713 77.4405ZM376.949 77.4405V48.071H380.884V73.5795H393.688V77.4429L376.949 77.4405ZM349.706 77.4405L341.321 57.5317V57.5582L341.309 57.5317C340.882 58.5233 340.451 59.5527 340.017 60.62L332.856 77.4405H328.643L341.294 47.7982L353.936 77.4429L349.706 77.4405ZM249.645 77.4405V51.9586H241.792V48.0686H261.438V51.9586H253.585V77.4429L249.645 77.4405ZM167.723 77.4405L159.342 57.5341L159.33 57.5606V57.5341C158.903 58.5241 158.472 59.5536 158.039 60.6224L150.882 77.4429H146.669L159.311 47.7982L171.953 77.4429L167.723 77.4405ZM105.97 59.8956C105.199 57.701 103.687 55.8425 101.694 54.6389C99.2204 53.1816 96.8943 51.4882 94.748 49.5826C93.3415 48.5131 91.6448 47.8913 89.8792 47.7982C87.6306 46.4921 85.474 45.0343 83.4242 43.4349C82.4178 42.5823 81.2287 41.9718 79.9487 41.6505C79.2545 41.3535 76.2724 38.6756 74.8842 37.9802C73.4959 37.2848 71.0144 37.8812 69.6189 37.7822C68.1918 37.3996 66.846 36.7615 65.6474 35.8988C65.586 34.875 65.586 33.8486 65.6474 32.8249C66.11 32.0314 66.4132 31.1554 66.5399 30.246C66.5399 30.246 66.939 31.1394 67.6332 29.652C68.3273 28.1646 67.6332 27.7686 66.9391 27.2712C66.54 22.7099 64.0103 21.8189 62.6632 21.8189C61.316 21.8189 58.7933 22.7123 58.3869 27.2712C57.6928 27.7686 56.9963 28.1646 57.6928 29.652C58.3894 31.1394 58.7861 30.246 58.7861 30.246C58.913 31.1553 59.2162 32.0313 59.6786 32.8249C59.74 33.8486 59.74 34.875 59.6786 35.8988C58.4799 36.7613 57.1341 37.3995 55.7071 37.7822C54.3164 37.8812 51.8373 37.2848 50.4418 37.9802C49.0463 38.6756 46.0714 41.3607 45.3773 41.6505C44.0973 41.9718 42.9082 42.5823 41.9018 43.4349C39.852 45.0343 37.6954 46.4921 35.4467 47.7982C33.6811 47.8907 31.9842 48.5126 30.578 49.5826C28.4317 51.4882 26.1055 53.1816 23.6319 54.6389C21.6405 55.8447 20.1295 57.7024 19.356 59.8956C19.3046 60.3568 19.3483 60.8236 19.4847 61.2672C19.6212 61.7107 19.8475 62.1216 20.1493 62.4745C20.3476 62.7715 21.3414 62.2765 21.9364 61.5811L22.534 60.8857L22.8313 61.8781C22.8313 61.8781 23.4287 61.9771 24.0237 60.8857C24.6187 59.7942 24.3213 58.3068 25.1146 57.5051C27.4405 56.1027 29.903 54.9401 32.4645 54.0353C35.5764 53.0588 38.5231 51.6196 41.2053 49.7661C43.4125 48.0688 45.8132 46.6382 48.3571 45.5043C49.1474 44.9851 50.1008 44.773 51.037 44.9079C51.3026 47.1779 51.8367 49.4085 52.6284 51.553C54.0641 53.4621 54.9566 55.723 55.2114 58.0967C55.0155 60.2699 52.4324 64.7419 52.5291 68.7091C52.3278 73.0349 52.6954 77.3683 53.6224 81.5986C54.6646 85.1095 55.4606 88.6887 56.0047 92.31C56.1043 94.1599 56.1043 96.0139 56.0047 97.8638C55.1258 99.979 55.0551 102.343 55.8063 104.506C57.0978 108.971 58.1912 110.555 58.092 115.018C58.2113 117.453 57.9764 119.893 57.3952 122.261C56.9986 123.353 56.4012 124.048 57.3952 125.335C58.3665 126.418 59.4308 127.413 60.5758 128.31C60.9725 128.706 61.7657 128.508 62.0632 126.526C62.3438 124.822 62.4763 123.097 62.4597 121.37C62.4597 119.388 61.4681 117.901 61.6664 115.817C61.8648 113.733 61.0692 107.885 61.1684 106.595C61.7894 104.436 62.0901 102.197 62.0609 99.95C61.5556 95.9687 61.2576 91.9638 61.1684 87.9516C61.4586 85.4452 62.2155 77.4116 62.2566 74.9631H63.0549C63.0985 77.4164 63.8553 85.4452 64.1455 87.9516C64.0552 91.9638 63.7565 95.9687 63.2507 99.95C63.2216 102.196 63.5231 104.434 64.1455 106.593C64.2447 107.882 63.4492 113.733 63.6475 115.814C63.8458 117.896 62.8518 119.386 62.8518 121.368C62.836 123.095 62.9685 124.819 63.2483 126.523C63.5458 128.506 64.3414 128.697 64.7381 128.308C65.8833 127.411 66.9477 126.415 67.9187 125.333C68.9127 124.043 68.3153 123.35 67.9187 122.259C67.3391 119.89 67.1054 117.451 67.2246 115.015C67.1254 110.55 68.2161 108.966 69.5076 104.504C70.2588 102.34 70.1881 99.9765 69.3092 97.8613C69.2093 96.0114 69.2093 94.1575 69.3092 92.3076C69.8529 88.6862 70.6489 85.107 71.6915 81.5962C72.618 77.3658 72.9856 73.0325 72.7848 68.7067C72.8839 64.7395 70.3009 60.2747 70.1025 58.0943C70.356 55.7202 71.2486 53.459 72.6856 51.5506C73.4762 49.4059 74.0095 47.1753 74.2745 44.9054C75.2116 44.7699 76.1659 44.9822 76.9567 45.5019C79.4995 46.6382 81.8999 48.0686 84.1086 49.7637C86.7927 51.6138 89.7389 53.0527 92.8493 54.0328C95.41 54.9399 97.8723 56.1024 100.199 57.5027C100.995 58.2971 100.695 59.7846 101.293 60.8832C101.89 61.9819 102.483 61.8756 102.483 61.8756L102.78 60.8832L103.377 61.5786C103.972 62.2717 104.967 62.7691 105.165 62.4721C105.472 62.1223 105.704 61.7128 105.845 61.2695C105.987 60.8262 106.035 60.3585 105.987 59.8956H105.97ZM38.2379 42.2421L62.6655 0L87.0931 42.2421C86.4522 41.7929 85.8839 41.3679 85.5139 41.0492C84.3444 40.0104 82.9555 39.2478 81.4505 38.8181L81.3127 38.777C81.0224 38.5694 80.4373 38.1082 79.9971 37.7604C78.9474 36.9274 78.0765 36.2585 77.3099 35.7514L62.6632 10.4217L48.0185 35.7514C47.2518 36.2585 46.3836 36.925 45.3339 37.7604C44.8913 38.1082 44.3107 38.5694 44.018 38.777L43.8778 38.8181C42.3733 39.2473 40.9854 40.01 39.8171 41.0492C39.464 41.3704 38.8909 41.7929 38.2524 42.2421H38.2379ZM56.5538 34.1022C56.312 34.2399 56.0701 34.3582 55.8621 34.4499L56.4304 33.4696C56.4691 33.5614 56.5005 33.6579 56.5464 33.7497C56.5634 33.8729 56.5659 33.9888 56.5683 34.1022H56.5538ZM69.4689 34.4524C69.2658 34.3606 69.0312 34.2399 68.7772 34.1022C68.7772 33.9888 68.7772 33.8608 68.7772 33.7497C68.7772 33.6386 68.8521 33.5614 68.8932 33.4696L69.4689 34.4524ZM6.86159 119.188L13.1209 108.365H0L25.7603 63.8243C26.1833 63.4072 26.5404 62.9285 26.8196 62.4045C27.0425 61.989 27.2162 61.549 27.3372 61.0933L28.4062 59.2364C29.7655 58.5893 31.8647 57.72 33.1731 57.1816L33.6859 56.9691C34.2567 56.7276 34.8614 56.4861 35.4854 56.2567L36.3537 55.9163L9.04074 103.154H16.1344L47.0076 49.7661C47.5349 49.4884 48.0547 49.2253 48.5263 48.9886C48.7837 50.4505 49.2523 51.8673 49.9172 53.1949L50.159 53.6006C50.2582 53.7648 50.4008 54.0087 50.5652 54.2816L22.3016 103.154H29.9686L49.3754 69.5905C49.3754 70.0734 49.3898 70.5419 49.3946 71.0393C49.3647 73.8352 49.5265 76.6298 49.8785 79.4037L36.2158 103.026H52.2584C52.3707 103.827 52.5396 104.618 52.7639 105.395C53.0976 106.549 53.4167 107.508 53.7021 108.363H19.2931L16.1199 113.849H54.9212C54.9332 114.196 54.9381 114.559 54.9212 114.957C54.88 116.79 54.8219 118.171 54.7372 119.185L6.86159 119.188ZM112.212 108.365L118.472 119.188H70.5838C70.4991 118.173 70.4413 116.795 70.3978 114.96C70.3978 114.561 70.3978 114.199 70.3978 113.851H109.201L106.028 108.365H71.6552C71.9406 107.51 72.2576 106.552 72.5914 105.397C72.8162 104.621 72.9851 103.829 73.0968 103.029H89.1391L75.4767 79.4085C75.8278 76.637 75.9893 73.8448 75.9603 71.0514C75.9603 70.5491 75.9605 70.0686 75.9774 69.6026L95.3839 103.166H103.051L74.7873 54.2936C74.947 54.0232 75.0921 53.7793 75.1912 53.6151L75.433 53.207C76.0982 51.8796 76.5668 50.4626 76.8239 49.0007C77.3076 49.2421 77.8129 49.5005 78.3426 49.7782L109.216 103.166H116.309L88.9965 55.9308L89.8648 56.2712C90.4864 56.5127 91.0935 56.7542 91.6643 56.9835L92.1795 57.1961C93.4855 57.7297 95.5848 58.6038 96.9416 59.2509L98.0107 61.103C98.133 61.5593 98.3074 62 98.5306 62.4165C98.8094 62.9408 99.1666 63.4196 99.5899 63.8364L125.35 108.377L112.212 108.365Z" fill="white"/>
</svg>
