<svg xmlns="http://www.w3.org/2000/svg" width="838" height="191" viewBox="0 0 838 191" fill="none"><g clip-path="url(#clip0_1603_85)"><path d="M299.441 121.788C287.421 121.788 278.197 112.084 278.197 100.304V72.7612H287.03V102.772C287.03 111.242 292.173 118.535 299.441 121.788ZM322.475 72.7612V99.0697C322.475 109.111 316.326 117.076 308.051 117.076C303.131 117.076 298.882 114.384 296.255 110.681C297.597 111.074 298.994 111.298 300.504 111.298C307.884 111.298 313.642 106.362 313.642 99.0697V72.7612H322.475Z" fill="url(#paint0_linear_1603_85)"></path><path d="M367.425 111.635V119.769H334.496V72.7612H343.161V111.635H367.425Z" fill="url(#paint1_linear_1603_85)"></path><path d="M408.461 72.7612V80.8389H392.025V119.769H383.415V80.8389H366.978V72.7612H408.406H408.461Z" fill="url(#paint2_linear_1603_85)"></path><path d="M438.316 121.788C426.296 121.788 417.071 112.084 417.071 100.304V72.7612H425.905V102.772C425.905 111.242 431.048 118.535 438.316 121.788ZM461.294 72.7612V99.0697C461.294 109.111 455.144 117.076 446.87 117.076C441.95 117.076 437.701 114.384 435.074 110.681C436.415 111.074 437.813 111.298 439.322 111.298C446.702 111.298 452.461 106.362 452.461 99.0697V72.7612H461.294Z" fill="url(#paint3_linear_1603_85)"></path><path d="M517.37 119.769H507.194L496.404 105.24H482.26V119.769H473.594V72.7612H498.193C507.25 72.7612 514.63 80.1097 514.63 89.0288C514.63 95.4797 510.828 100.977 505.293 103.613L517.37 119.769ZM505.964 89.0288C505.964 84.6534 502.33 81.0633 497.914 81.0633H482.204V96.882H497.914C502.33 96.882 505.964 93.4042 505.964 89.0288Z" fill="url(#paint4_linear_1603_85)"></path><path d="M563.773 80.8389H534.645V111.635H563.773V119.769H526.035V72.7612H563.773V80.8389ZM540.292 100.36L543.031 92.2262H558.741V100.36H540.292Z" fill="url(#paint5_linear_1603_85)"></path></g><path d="M308.129 189.57C305.891 190.311 303.446 190.788 300.948 190.788C287.887 190.788 278 179.558 278 166.315C278 153.071 287.939 141.788 300.948 141.788C303.446 141.788 305.891 142.212 308.129 143.006C295.536 143.907 286.43 152.912 286.43 166.315C286.43 179.717 295.536 188.669 308.129 189.57ZM324 166.315C324 174.313 318.744 183.902 308.909 183.902C304.955 183.902 301.052 182.312 298.502 180.405C299.335 180.511 300.115 180.617 301 180.617C309.222 180.617 315.726 174.472 315.726 166.315C315.726 158.157 309.222 151.959 301 151.959C300.115 151.959 299.335 152.012 298.502 152.171C301.052 150.264 305.007 148.675 308.909 148.675C318.744 148.675 324 158.316 324 166.315Z" fill="url(#paint6_linear_1603_85)"></path><path d="M373 167.237C373 179.09 363.188 188.788 351.148 188.788H332V145.788H351.148C363.241 145.788 373 155.384 373 167.288V167.237ZM364.832 167.237C364.832 159.591 358.52 153.382 350.829 153.382H340.168V181.091H350.829C358.52 181.091 364.832 174.882 364.832 167.237Z" fill="url(#paint7_linear_1603_85)"></path><path d="M418 153.177H390.985V181.348H418V188.788H383V145.788H418V153.177ZM396.222 171.034L398.763 163.594H413.333V171.034H396.222Z" fill="url(#paint8_linear_1603_85)"></path><path d="M463 177.056C463 186.644 453.737 189.788 444.156 189.788C437.592 189.788 431.823 188.293 426 185.046L430.129 178.654C434.628 181.077 439.71 182.623 444.474 182.623C450.561 182.623 454.478 181.077 454.478 177.468C454.478 173.499 449.079 172.005 443.203 170.252C435.528 167.984 426.9 165.355 426.9 156.644C426.9 153.19 428.435 150.252 431.346 148.19C434.522 145.974 439.233 144.788 445.003 144.788C450.773 144.788 456.278 146.283 462.153 149.53L458.13 155.716C453.578 153.242 449.29 151.901 444.632 151.901C438.439 151.901 435.422 153.757 435.422 156.334C435.422 160.407 440.927 161.85 447.014 163.706C454.531 165.974 463 168.86 463 177.056Z" fill="url(#paint9_linear_1603_85)"></path><path d="M306.819 49.6443C304.679 50.3405 302.339 50.7881 299.95 50.7881C287.457 50.7881 278 40.2454 278 27.813C278 15.3805 287.457 4.78809 299.95 4.78809C302.339 4.78809 304.679 5.18592 306.819 5.93187C294.774 6.77728 286.063 15.2313 286.063 27.813C286.063 40.3946 294.774 48.7989 306.819 49.6443ZM322 27.813C322 35.3221 316.973 44.3232 307.566 44.3232C303.783 44.3232 300.05 42.8313 297.611 41.0411C298.407 41.1405 299.154 41.24 300 41.24C307.864 41.24 314.086 35.4713 314.086 27.813C314.086 20.1546 307.864 14.3362 300 14.3362C299.154 14.3362 298.407 14.3859 297.611 14.5351C300.05 12.7448 303.833 11.253 307.566 11.253C317.023 11.253 322 20.3038 322 27.813Z" fill="url(#paint10_linear_1603_85)"></path><path d="M369 49.7881H359.702L349.843 36.4981H336.918V49.7881H329V6.78809H351.478C359.754 6.78809 366.497 13.51 366.497 21.6688C366.497 27.5697 363.023 32.5983 357.966 35.01L369 49.7881ZM358.579 21.6688C358.579 17.6664 355.258 14.3824 351.222 14.3824H336.867V28.8525H351.222C355.258 28.8525 358.579 25.6711 358.579 21.6688Z" fill="url(#paint11_linear_1603_85)"></path><path d="M411 14.1771H383.985V42.3478H411V49.7881H376V6.78809H411V14.1771ZM389.222 32.0339L391.763 24.5936H406.333V32.0339H389.222Z" fill="url(#paint12_linear_1603_85)"></path><g clip-path="url(#clip1_1603_85)"><path d="M299.441 122C287.421 122 278.197 112.296 278.197 100.516V72.9731H287.03V102.984C287.03 111.454 292.173 118.747 299.441 122ZM322.475 72.9731V99.2817C322.475 109.323 316.326 117.288 308.051 117.288C303.131 117.288 298.882 114.596 296.255 110.893C297.597 111.286 298.994 111.51 300.504 111.51C307.884 111.51 313.642 106.574 313.642 99.2817V72.9731H322.475Z" fill="url(#paint13_linear_1603_85)"></path><path d="M367.425 111.847V119.981H334.496V72.9731H343.161V111.847H367.425Z" fill="url(#paint14_linear_1603_85)"></path><path d="M408.461 72.9731V81.0508H392.025V119.981H383.415V81.0508H366.978V72.9731H408.406H408.461Z" fill="url(#paint15_linear_1603_85)"></path><path d="M438.316 122C426.296 122 417.071 112.296 417.071 100.516V72.9731H425.905V102.984C425.905 111.454 431.048 118.747 438.316 122ZM461.294 72.9731V99.2817C461.294 109.323 455.144 117.288 446.87 117.288C441.95 117.288 437.701 114.596 435.074 110.893C436.415 111.286 437.813 111.51 439.322 111.51C446.702 111.51 452.461 106.574 452.461 99.2817V72.9731H461.294Z" fill="url(#paint16_linear_1603_85)"></path><path d="M517.37 119.981H507.194L496.404 105.452H482.26V119.981H473.594V72.9731H498.193C507.25 72.9731 514.63 80.3216 514.63 89.2407C514.63 95.6916 510.828 101.189 505.293 103.825L517.37 119.981ZM505.964 89.2407C505.964 84.8653 502.33 81.2752 497.914 81.2752H482.204V97.094H497.914C502.33 97.094 505.964 93.6161 505.964 89.2407Z" fill="url(#paint17_linear_1603_85)"></path><path d="M563.773 81.0508H534.645V111.847H563.773V119.981H526.035V72.9731H563.773V81.0508ZM540.292 100.572L543.031 92.4381H558.741V100.572H540.292Z" fill="url(#paint18_linear_1603_85)"></path></g><path d="M308.129 189.782C305.891 190.523 303.446 191 300.948 191C287.887 191 278 179.77 278 166.526C278 153.283 287.939 142 300.948 142C303.446 142 305.891 142.424 308.129 143.218C295.536 144.119 286.43 153.124 286.43 166.526C286.43 179.929 295.536 188.881 308.129 189.782ZM324 166.526C324 174.525 318.744 184.114 308.909 184.114C304.955 184.114 301.052 182.524 298.502 180.617C299.335 180.723 300.115 180.829 301 180.829C309.222 180.829 315.726 174.684 315.726 166.526C315.726 158.369 309.222 152.171 301 152.171C300.115 152.171 299.335 152.224 298.502 152.383C301.052 150.476 305.007 148.886 308.909 148.886C318.744 148.886 324 158.528 324 166.526Z" fill="url(#paint19_linear_1603_85)"></path><path d="M373 167.449C373 179.302 363.188 189 351.148 189H332V146H351.148C363.241 146 373 155.595 373 167.5V167.449ZM364.832 167.449C364.832 159.803 358.52 153.594 350.829 153.594H340.168V181.303H350.829C358.52 181.303 364.832 175.094 364.832 167.449Z" fill="url(#paint20_linear_1603_85)"></path><path d="M418 153.389H390.985V181.56H418V189H383V146H418V153.389ZM396.222 171.246L398.763 163.805H413.333V171.246H396.222Z" fill="url(#paint21_linear_1603_85)"></path><path d="M463 177.268C463 186.856 453.737 190 444.156 190C437.592 190 431.823 188.505 426 185.258L430.129 178.866C434.628 181.289 439.71 182.835 444.474 182.835C450.561 182.835 454.478 181.289 454.478 177.68C454.478 173.711 449.079 172.216 443.203 170.464C435.528 168.196 426.9 165.567 426.9 156.856C426.9 153.402 428.435 150.464 431.346 148.402C434.522 146.186 439.233 145 445.003 145C450.773 145 456.278 146.495 462.153 149.742L458.13 155.928C453.578 153.454 449.29 152.113 444.632 152.113C438.439 152.113 435.422 153.969 435.422 156.546C435.422 160.619 440.927 162.062 447.014 163.918C454.531 166.186 463 169.072 463 177.268Z" fill="url(#paint22_linear_1603_85)"></path><path d="M306.819 49.8562C304.679 50.5524 302.339 51 299.95 51C287.457 51 278 40.4573 278 28.0249C278 15.5924 287.457 5 299.95 5C302.339 5 304.679 5.39784 306.819 6.14378C294.774 6.98919 286.063 15.4432 286.063 28.0249C286.063 40.6065 294.774 49.0108 306.819 49.8562ZM322 28.0249C322 35.5341 316.973 44.5351 307.566 44.5351C303.783 44.5351 300.05 43.0432 297.611 41.253C298.407 41.3524 299.154 41.4519 300 41.4519C307.864 41.4519 314.086 35.6832 314.086 28.0249C314.086 20.3665 307.864 14.5481 300 14.5481C299.154 14.5481 298.407 14.5978 297.611 14.747C300.05 12.9568 303.833 11.4649 307.566 11.4649C317.023 11.4649 322 20.5157 322 28.0249Z" fill="url(#paint23_linear_1603_85)"></path><path d="M369 50H359.702L349.843 36.71H336.918V50H329V7H351.478C359.754 7 366.497 13.722 366.497 21.8807C366.497 27.7816 363.023 32.8103 357.966 35.222L369 50ZM358.579 21.8807C358.579 17.8783 355.258 14.5943 351.222 14.5943H336.867V29.0644H351.222C355.258 29.0644 358.579 25.8831 358.579 21.8807Z" fill="url(#paint24_linear_1603_85)"></path><path d="M411 14.389H383.985V42.5597H411V50H376V7H411V14.389ZM389.222 32.2458L391.763 24.8055H406.333V32.2458H389.222Z" fill="url(#paint25_linear_1603_85)"></path><path d="M96.0341 123.791C92.9699 114.597 91 104.762 91 94.5C91 41.0498 137.62 0 192.338 0C216.852 0 240.052 9.19344 258 25.4423L236.113 49.388C222.543 40.1946 203.063 34.8495 185.772 34.8495C137.401 34.6357 99.7549 72.0509 96.0341 123.791ZM234.799 138.757L257.562 164.199C239.615 180.448 216.633 189 192.119 189C159.069 189 119.235 167.62 119.235 127.212C119.235 110.963 125.801 94.7138 133.68 84.2376C133.242 87.6584 132.805 91.0792 132.805 94.7138C132.805 128.494 158.632 155.219 192.119 155.219C207.878 155.219 223.199 149.233 234.581 138.757H234.799Z" fill="url(#paint26_linear_1603_85)"></path><defs><linearGradient id="paint0_linear_1603_85" x1="300.336" y1="72.7612" x2="300.336" y2="121.788" gradientUnits="userSpaceOnUse"><stop stop-color="#CB9846"></stop><stop offset="0.25" stop-color="#DFB464"></stop><stop offset="0.5" stop-color="#FFEDB7"></stop><stop offset="0.75" stop-color="#EFCF88"></stop><stop offset="1" stop-color="#C89646"></stop></linearGradient><linearGradient id="paint1_linear_1603_85" x1="350.96" y1="72.7612" x2="350.96" y2="119.769" gradientUnits="userSpaceOnUse"><stop stop-color="#CB9846"></stop><stop offset="0.25" stop-color="#DFB464"></stop><stop offset="0.5" stop-color="#FFEDB7"></stop><stop offset="0.75" stop-color="#EFCF88"></stop><stop offset="1" stop-color="#C89646"></stop></linearGradient><linearGradient id="paint2_linear_1603_85" x1="387.72" y1="72.7612" x2="387.72" y2="119.769" gradientUnits="userSpaceOnUse"><stop stop-color="#CB9846"></stop><stop offset="0.25" stop-color="#DFB464"></stop><stop offset="0.5" stop-color="#FFEDB7"></stop><stop offset="0.75" stop-color="#EFCF88"></stop><stop offset="1" stop-color="#C89646"></stop></linearGradient><linearGradient id="paint3_linear_1603_85" x1="439.183" y1="72.7612" x2="439.183" y2="121.788" gradientUnits="userSpaceOnUse"><stop stop-color="#CB9846"></stop><stop offset="0.25" stop-color="#DFB464"></stop><stop offset="0.5" stop-color="#FFEDB7"></stop><stop offset="0.75" stop-color="#EFCF88"></stop><stop offset="1" stop-color="#C89646"></stop></linearGradient><linearGradient id="paint4_linear_1603_85" x1="495.482" y1="72.7612" x2="495.482" y2="119.769" gradientUnits="userSpaceOnUse"><stop stop-color="#CB9846"></stop><stop offset="0.25" stop-color="#DFB464"></stop><stop offset="0.5" stop-color="#FFEDB7"></stop><stop offset="0.75" stop-color="#EFCF88"></stop><stop offset="1" stop-color="#C89646"></stop></linearGradient><linearGradient id="paint5_linear_1603_85" x1="544.904" y1="72.7612" x2="544.904" y2="119.769" gradientUnits="userSpaceOnUse"><stop stop-color="#CB9846"></stop><stop offset="0.25" stop-color="#DFB464"></stop><stop offset="0.5" stop-color="#FFEDB7"></stop><stop offset="0.75" stop-color="#EFCF88"></stop><stop offset="1" stop-color="#C89646"></stop></linearGradient><linearGradient id="paint6_linear_1603_85" x1="301" y1="141.788" x2="301" y2="190.788" gradientUnits="userSpaceOnUse"><stop stop-color="#CB9846"></stop><stop offset="0.25" stop-color="#DFB464"></stop><stop offset="0.5" stop-color="#FFEDB7"></stop><stop offset="0.75" stop-color="#EFCF88"></stop><stop offset="1" stop-color="#C89646"></stop></linearGradient><linearGradient id="paint7_linear_1603_85" x1="352.5" y1="145.788" x2="352.5" y2="188.788" gradientUnits="userSpaceOnUse"><stop stop-color="#CB9846"></stop><stop offset="0.25" stop-color="#DFB464"></stop><stop offset="0.5" stop-color="#FFEDB7"></stop><stop offset="0.75" stop-color="#EFCF88"></stop><stop offset="1" stop-color="#C89646"></stop></linearGradient><linearGradient id="paint8_linear_1603_85" x1="400.5" y1="145.788" x2="400.5" y2="188.788" gradientUnits="userSpaceOnUse"><stop stop-color="#CB9846"></stop><stop offset="0.25" stop-color="#DFB464"></stop><stop offset="0.5" stop-color="#FFEDB7"></stop><stop offset="0.75" stop-color="#EFCF88"></stop><stop offset="1" stop-color="#C89646"></stop></linearGradient><linearGradient id="paint9_linear_1603_85" x1="444.5" y1="144.788" x2="444.5" y2="189.788" gradientUnits="userSpaceOnUse"><stop stop-color="#CB9846"></stop><stop offset="0.25" stop-color="#DFB464"></stop><stop offset="0.5" stop-color="#FFEDB7"></stop><stop offset="0.75" stop-color="#EFCF88"></stop><stop offset="1" stop-color="#C89646"></stop></linearGradient><linearGradient id="paint10_linear_1603_85" x1="300" y1="4.78809" x2="300" y2="50.7881" gradientUnits="userSpaceOnUse"><stop stop-color="#CB9846"></stop><stop offset="0.25" stop-color="#DFB464"></stop><stop offset="0.5" stop-color="#FFEDB7"></stop><stop offset="0.75" stop-color="#EFCF88"></stop><stop offset="1" stop-color="#C89646"></stop></linearGradient><linearGradient id="paint11_linear_1603_85" x1="349" y1="6.78809" x2="349" y2="49.7881" gradientUnits="userSpaceOnUse"><stop stop-color="#CB9846"></stop><stop offset="0.25" stop-color="#DFB464"></stop><stop offset="0.5" stop-color="#FFEDB7"></stop><stop offset="0.75" stop-color="#EFCF88"></stop><stop offset="1" stop-color="#C89646"></stop></linearGradient><linearGradient id="paint12_linear_1603_85" x1="393.5" y1="6.78809" x2="393.5" y2="49.7881" gradientUnits="userSpaceOnUse"><stop stop-color="#CB9846"></stop><stop offset="0.25" stop-color="#DFB464"></stop><stop offset="0.5" stop-color="#FFEDB7"></stop><stop offset="0.75" stop-color="#EFCF88"></stop><stop offset="1" stop-color="#C89646"></stop></linearGradient><linearGradient id="paint13_linear_1603_85" x1="300.336" y1="72.9731" x2="300.336" y2="122" gradientUnits="userSpaceOnUse"><stop stop-color="#CB9846"></stop><stop offset="0.25" stop-color="#DFB464"></stop><stop offset="0.5" stop-color="#FFEDB7"></stop><stop offset="0.75" stop-color="#EFCF88"></stop><stop offset="1" stop-color="#C89646"></stop></linearGradient><linearGradient id="paint14_linear_1603_85" x1="350.96" y1="72.9731" x2="350.96" y2="119.981" gradientUnits="userSpaceOnUse"><stop stop-color="#CB9846"></stop><stop offset="0.25" stop-color="#DFB464"></stop><stop offset="0.5" stop-color="#FFEDB7"></stop><stop offset="0.75" stop-color="#EFCF88"></stop><stop offset="1" stop-color="#C89646"></stop></linearGradient><linearGradient id="paint15_linear_1603_85" x1="387.72" y1="72.9731" x2="387.72" y2="119.981" gradientUnits="userSpaceOnUse"><stop stop-color="#CB9846"></stop><stop offset="0.25" stop-color="#DFB464"></stop><stop offset="0.5" stop-color="#FFEDB7"></stop><stop offset="0.75" stop-color="#EFCF88"></stop><stop offset="1" stop-color="#C89646"></stop></linearGradient><linearGradient id="paint16_linear_1603_85" x1="439.183" y1="72.9731" x2="439.183" y2="122" gradientUnits="userSpaceOnUse"><stop stop-color="#CB9846"></stop><stop offset="0.25" stop-color="#DFB464"></stop><stop offset="0.5" stop-color="#FFEDB7"></stop><stop offset="0.75" stop-color="#EFCF88"></stop><stop offset="1" stop-color="#C89646"></stop></linearGradient><linearGradient id="paint17_linear_1603_85" x1="495.482" y1="72.9731" x2="495.482" y2="119.981" gradientUnits="userSpaceOnUse"><stop stop-color="#CB9846"></stop><stop offset="0.25" stop-color="#DFB464"></stop><stop offset="0.5" stop-color="#FFEDB7"></stop><stop offset="0.75" stop-color="#EFCF88"></stop><stop offset="1" stop-color="#C89646"></stop></linearGradient><linearGradient id="paint18_linear_1603_85" x1="544.904" y1="72.9731" x2="544.904" y2="119.981" gradientUnits="userSpaceOnUse"><stop stop-color="#CB9846"></stop><stop offset="0.25" stop-color="#DFB464"></stop><stop offset="0.5" stop-color="#FFEDB7"></stop><stop offset="0.75" stop-color="#EFCF88"></stop><stop offset="1" stop-color="#C89646"></stop></linearGradient><linearGradient id="paint19_linear_1603_85" x1="301" y1="142" x2="301" y2="191" gradientUnits="userSpaceOnUse"><stop stop-color="#CB9846"></stop><stop offset="0.25" stop-color="#DFB464"></stop><stop offset="0.5" stop-color="#FFEDB7"></stop><stop offset="0.75" stop-color="#EFCF88"></stop><stop offset="1" stop-color="#C89646"></stop></linearGradient><linearGradient id="paint20_linear_1603_85" x1="352.5" y1="146" x2="352.5" y2="189" gradientUnits="userSpaceOnUse"><stop stop-color="#CB9846"></stop><stop offset="0.25" stop-color="#DFB464"></stop><stop offset="0.5" stop-color="#FFEDB7"></stop><stop offset="0.75" stop-color="#EFCF88"></stop><stop offset="1" stop-color="#C89646"></stop></linearGradient><linearGradient id="paint21_linear_1603_85" x1="400.5" y1="146" x2="400.5" y2="189" gradientUnits="userSpaceOnUse"><stop stop-color="#CB9846"></stop><stop offset="0.25" stop-color="#DFB464"></stop><stop offset="0.5" stop-color="#FFEDB7"></stop><stop offset="0.75" stop-color="#EFCF88"></stop><stop offset="1" stop-color="#C89646"></stop></linearGradient><linearGradient id="paint22_linear_1603_85" x1="444.5" y1="145" x2="444.5" y2="190" gradientUnits="userSpaceOnUse"><stop stop-color="#CB9846"></stop><stop offset="0.25" stop-color="#DFB464"></stop><stop offset="0.5" stop-color="#FFEDB7"></stop><stop offset="0.75" stop-color="#EFCF88"></stop><stop offset="1" stop-color="#C89646"></stop></linearGradient><linearGradient id="paint23_linear_1603_85" x1="300" y1="5" x2="300" y2="51" gradientUnits="userSpaceOnUse"><stop stop-color="#CB9846"></stop><stop offset="0.25" stop-color="#DFB464"></stop><stop offset="0.5" stop-color="#FFEDB7"></stop><stop offset="0.75" stop-color="#EFCF88"></stop><stop offset="1" stop-color="#C89646"></stop></linearGradient><linearGradient id="paint24_linear_1603_85" x1="349" y1="7" x2="349" y2="50" gradientUnits="userSpaceOnUse"><stop stop-color="#CB9846"></stop><stop offset="0.25" stop-color="#DFB464"></stop><stop offset="0.5" stop-color="#FFEDB7"></stop><stop offset="0.75" stop-color="#EFCF88"></stop><stop offset="1" stop-color="#C89646"></stop></linearGradient><linearGradient id="paint25_linear_1603_85" x1="393.5" y1="7" x2="393.5" y2="50" gradientUnits="userSpaceOnUse"><stop stop-color="#CB9846"></stop><stop offset="0.25" stop-color="#DFB464"></stop><stop offset="0.5" stop-color="#FFEDB7"></stop><stop offset="0.75" stop-color="#EFCF88"></stop><stop offset="1" stop-color="#C89646"></stop></linearGradient><linearGradient id="paint26_linear_1603_85" x1="174.5" y1="0" x2="174.5" y2="189" gradientUnits="userSpaceOnUse"><stop stop-color="#CB9846"></stop><stop offset="0.25" stop-color="#DFB464"></stop><stop offset="0.5" stop-color="#FFEDB7"></stop><stop offset="0.75" stop-color="#EFCF88"></stop><stop offset="1" stop-color="#C89646"></stop></linearGradient><clipPath id="clip0_1603_85"><rect width="838" height="52" fill="white" transform="translate(0 69.7881)"></rect></clipPath><clipPath id="clip1_1603_85"><rect width="838" height="52" fill="white" transform="translate(0 70)"></rect></clipPath></defs></svg>