<svg xmlns="http://www.w3.org/2000/svg" width="245" height="48" viewBox="0 0 245 48" fill="none"><g opacity="0.7" clip-path="url(#clip0_1343_1017)"><path fill-rule="evenodd" clip-rule="evenodd" d="M22.6003 0.318359C22.4389 3.15926 22.2775 5.98402 22.116 8.92177L17.8547 8.76036L17.5641 3.46595H10.9623V16.137H13.8839C14.1099 15.217 14.3197 14.2969 14.5618 13.3445H17.435V22.0609H14.5457C14.3036 21.1247 14.0614 20.1724 13.8193 19.1878H10.9623V32.6013H17.6126C17.8224 30.6805 18.0323 28.792 18.2582 26.7743L22.7294 26.9357C22.8424 29.9219 22.9554 32.8596 23.0845 35.8458H1.32582V32.7466L4.37656 32.2301V3.7888L0.970703 3.4014V0.318376L22.6003 0.318359Z" fill="white"></path><path fill-rule="evenodd" clip-rule="evenodd" d="M99.5649 47.9359C99.5649 47.0643 99.6779 46.3218 99.7263 45.4824L102.035 44.982V14.636L99.3066 14.2325V11.6983L106.538 10.6814C106.796 11.6176 107.038 12.4892 107.297 13.3931C107.401 13.3158 107.498 13.2293 107.587 13.1349C109.229 11.2194 111.743 10.286 114.238 10.6652C117.18 10.9205 119.604 13.0816 120.194 15.9758C120.597 17.2944 120.857 18.6528 120.969 20.0273C121.251 22.8362 121.154 25.6704 120.678 28.4532C120.49 29.4881 120.193 30.4999 119.79 31.4716C118.7 34.2542 116.062 36.1245 113.075 36.2334C111.477 36.4146 109.86 36.1811 108.378 35.5554C108.265 35.5073 108.145 35.4748 108.023 35.4586V44.982L110.493 45.4824C110.493 46.2895 110.38 47.0966 110.315 47.9359H99.5649ZM107.99 32.0696C109.784 32.8818 111.827 32.9515 113.672 32.2633C114.012 32.1702 114.273 31.897 114.35 31.553C114.614 30.618 114.83 29.6697 114.996 28.7121C115.367 25.8102 115.415 22.8761 115.141 19.9634C115.071 18.9664 114.886 17.9808 114.592 17.0257C114.4 16.1216 113.84 15.3382 113.047 14.8635C112.254 14.3889 111.299 14.2658 110.411 14.5238L110.089 14.5238C108.844 14.7192 107.942 15.815 107.99 17.0741V31.2786V32.0696Z" fill="white"></path><path fill-rule="evenodd" clip-rule="evenodd" d="M180.141 32.7795L182.691 33.296L182.546 35.8787H174.266V35.3299V18.8171C174.236 18.0646 174.1 17.3201 173.862 16.6057C173.578 15.7909 172.861 15.2045 172.006 15.0884C171.182 14.8884 170.315 14.9621 169.536 15.2983C168.826 15.5255 168.332 16.1683 168.293 16.9124V32.5212C168.28 32.6014 168.28 32.6832 168.293 32.7634L170.714 33.2638C170.714 34.1031 170.618 34.9586 170.569 35.8464H159.835V33.2638L162.224 32.7634V14.8463L159.496 14.5235V11.9409L166.534 10.9401C166.76 11.7149 166.97 12.5542 167.163 13.2322C167.696 12.8286 168.245 12.3444 168.858 11.957C171.044 10.501 173.802 10.1999 176.251 11.1499C178.271 11.8947 179.691 13.7224 179.915 15.8632C180.005 16.4781 180.053 17.0982 180.06 17.7195V32.7795H180.141Z" fill="white"></path><path fill-rule="evenodd" clip-rule="evenodd" d="M33.5285 32.7951L35.982 33.2955C35.982 34.1672 35.8852 34.9904 35.8367 35.8782H25.0542C25.0542 35.0227 25.1349 34.264 25.1834 33.2955L27.4754 32.7951C27.6369 32.214 27.6853 15.7981 27.4754 14.8781L24.7637 14.5875V11.9565L31.8175 10.9396C32.0273 11.7144 32.221 12.4569 32.447 13.2801L33.1088 12.699C35.1992 10.8474 38.0845 10.1792 40.776 10.9234C43.0781 11.422 44.8247 13.3039 45.1504 15.6367C45.2744 16.2748 45.3339 16.9237 45.3279 17.5737V32.779L47.8621 33.2794V35.8782H39.5008V34.9419V19.3331C39.5012 18.7062 39.4527 18.0801 39.3556 17.4607C39.2568 16.1232 38.162 15.0772 36.8214 15.0395C35.7714 14.7826 34.6648 15.1165 33.932 15.9111C33.6326 16.2551 33.4715 16.698 33.4801 17.154L33.4801 31.9558L33.5285 32.7951V32.7951Z" fill="white"></path><path fill-rule="evenodd" clip-rule="evenodd" d="M218.155 14.2322L215.427 13.9578V11.6173L223.498 10.6973C223.895 11.6349 224.124 12.6345 224.176 13.6512V32.7627L226.678 33.2792C226.581 34.1509 226.5 34.9741 226.404 35.8457H219.479C219.269 35.2485 219.059 34.5867 218.817 33.8603L218.284 34.28C215.775 36.4549 212.206 36.9129 209.229 35.4422C207.465 34.5966 206.241 32.9243 205.968 30.9871C205.853 30.3206 205.794 29.6458 205.791 28.9694L205.791 14.2484L203.047 13.9579V11.6173L211.118 10.6973C211.434 11.5611 211.64 12.4614 211.731 13.3768L211.731 27.6781C211.733 28.3312 211.776 28.9835 211.86 29.6312C211.947 31.266 213.34 32.5222 214.975 32.4399C215.597 32.4344 216.216 32.3475 216.816 32.1816C217.607 31.8301 218.167 31.1006 218.301 30.2446L218.301 14.4744C218.261 14.3885 218.213 14.3073 218.155 14.2323V14.2322Z" fill="white"></path><path fill-rule="evenodd" clip-rule="evenodd" d="M86.1682 24.9981C86.0499 26.9018 86.5357 28.7942 87.5564 30.4055C88.4341 31.7829 89.9585 32.6122 91.5917 32.6007C93.1797 32.6047 94.7514 32.2805 96.2082 31.6484L96.87 31.3901C97.209 32.1488 97.5318 32.8751 97.8869 33.7145C97.4511 34.005 97.0314 34.344 96.5633 34.6023C93.7013 36.2783 90.2798 36.7155 87.0883 35.8129C84.4524 35.0046 82.3191 33.055 81.2773 30.5023C80.0361 27.7128 79.5624 24.6423 79.9053 21.6084C80.0402 19.7409 80.499 17.9112 81.2612 16.201C82.383 13.4452 84.8043 11.4295 87.7178 10.8259C90.5164 10.0316 93.5265 10.7673 95.6433 12.7628C96.912 14.0758 97.8089 15.7025 98.242 17.4762C98.7437 19.2779 98.9829 21.1426 98.9523 23.0127C98.8571 23.6489 98.6724 24.2684 98.4035 24.8528L86.1682 24.9981ZM93.561 21.7695C93.561 21.0109 93.448 20.3975 93.3834 19.7841C93.272 18.3242 92.8656 16.902 92.189 15.6035C91.5536 14.2615 89.9747 13.657 88.6056 14.2314C88.0315 14.3987 87.5668 14.8216 87.3465 15.3775C86.5592 17.3648 86.117 19.4719 86.0391 21.6081C86.0522 21.778 86.0847 21.9459 86.1359 22.1085L93.561 21.7695Z" fill="white"></path><path fill-rule="evenodd" clip-rule="evenodd" d="M202.014 24.8541L189.779 24.9994C189.72 25.8437 189.785 26.692 189.972 27.5174C190.212 28.7569 190.768 29.9134 191.586 30.8749C192.43 31.9277 193.692 32.5587 195.041 32.602C196.589 32.6529 198.13 32.3722 199.56 31.7788L200.529 31.4075C200.852 32.1823 201.174 32.9087 201.53 33.7642L201.142 34.0225C198.639 35.8065 195.556 36.5843 192.506 36.2016C188.917 35.8675 185.862 33.4509 184.71 30.0355C182.92 25.6617 182.967 20.7512 184.839 16.4121C185.871 13.5587 188.32 11.4527 191.296 10.8594C193.682 10.2038 196.236 10.6098 198.301 11.9732C199.75 13.0397 200.841 14.5197 201.433 16.2184C202.26 18.3793 202.639 20.6859 202.546 22.9978C202.44 23.6348 202.261 24.2576 202.014 24.8541L202.014 24.8541ZM197.171 21.8037C197.146 20.1632 196.896 18.5338 196.429 16.9612C196.182 16.1942 195.799 15.4778 195.299 14.8467C194.33 13.6038 191.344 13.8459 190.892 15.5569C190.448 16.91 190.093 18.2903 189.827 19.6891C189.672 20.4812 189.639 21.2923 189.73 22.0942L197.171 21.8037Z" fill="white"></path><path fill-rule="evenodd" clip-rule="evenodd" d="M158.462 24.8526L146.243 24.9978C146.113 27.1057 146.743 29.1902 148.018 30.8733C148.846 31.9282 150.1 32.5609 151.44 32.6005C153.013 32.6723 154.582 32.4024 156.041 31.8095L156.993 31.4221L157.994 33.7304C157.703 33.9402 157.445 34.1501 157.154 34.3276C154.465 36.0769 151.196 36.7027 148.051 36.0709C145.187 35.4887 142.782 33.5586 141.594 30.8895C140.274 28.1674 139.716 25.1384 139.98 22.1247C140.081 20.079 140.563 18.0701 141.4 16.2007C142.308 14.0079 144.05 12.2659 146.243 11.3583C148.826 10.1788 151.811 10.2743 154.313 11.6165C155.947 12.5631 157.201 14.0461 157.865 15.8133C158.774 18.0852 159.213 20.5177 159.156 22.964C159.018 23.624 158.784 24.2603 158.462 24.8526L158.462 24.8526ZM153.621 21.8008C153.621 20.9775 153.508 20.1866 153.411 19.5409C153.288 18.194 152.904 16.8838 152.281 15.6831C151.964 14.9784 151.371 14.4353 150.641 14.1818C149.911 13.9283 149.109 13.9868 148.423 14.3434C148.016 14.5 147.69 14.8144 147.519 15.215C146.834 16.8009 146.398 18.4835 146.228 20.2028C146.228 20.8161 146.131 21.4295 146.066 22.1559L153.621 21.8008Z" fill="white"></path><path fill-rule="evenodd" clip-rule="evenodd" d="M70.0397 10.9396L70.5886 13.2317L71.4602 12.6991C73.17 11.7735 75.0574 11.2232 76.9967 11.0849C77.8591 10.944 78.7208 11.3397 79.1758 12.0857C78.9337 14.2486 78.6754 16.4439 78.4333 18.7198L74.4464 18.5584C74.285 17.3317 74.1558 16.2018 74.0106 15.0073C73.0966 15.0711 72.2162 15.3775 71.4602 15.8951L71.4602 32.8113L73.9298 33.3763C73.9298 34.1995 73.833 34.9904 73.7846 35.8621H63.1312V33.3924L65.3587 32.8113V14.8459L62.8083 14.5553V11.9404L70.0397 10.9396Z" fill="white"></path><path fill-rule="evenodd" clip-rule="evenodd" d="M228.146 35.8295C228.146 34.9417 228.146 34.2153 228.259 33.3114L230.47 32.7626V14.8455L227.855 14.5227V11.9401L235.119 10.9393L235.652 13.0377C236.653 12.5083 237.682 12.0341 238.735 11.6173C239.797 11.3206 240.875 11.0835 241.963 10.907C242.861 10.6841 243.796 11.0954 244.239 11.9078C243.997 14.0223 243.755 16.2176 243.497 18.5097L239.526 18.3644C239.364 17.1538 239.219 15.9754 239.058 14.6841L236.636 15.588V32.811L239.106 33.376C239.106 34.2153 239.009 34.9901 238.945 35.894L228.146 35.8295Z" fill="white"></path><path fill-rule="evenodd" clip-rule="evenodd" d="M134.057 14.6845L131.523 15.6207V32.8114L134.041 33.3763L133.831 35.8299H123.21V33.3925L125.47 32.8114V14.8459L122.871 14.5554V11.9566L130.102 10.9397C130.312 11.666 130.522 12.3763 130.716 13.0865C131.41 12.7152 132.104 12.3278 132.798 11.9889C134.125 11.4306 135.529 11.0768 136.963 10.9397C137.859 10.7492 138.779 11.1353 139.271 11.9082C139.045 14.0227 138.803 16.2179 138.544 18.5423L134.558 18.397C134.364 17.1864 134.235 16.0404 134.057 14.6845L134.057 14.6845Z" fill="white"></path><path fill-rule="evenodd" clip-rule="evenodd" d="M56.416 6.19531V11.2315H60.8549C60.7581 12.3614 60.6612 13.3621 60.5805 14.4598L56.5936 14.8471C56.5518 15.0602 56.5248 15.276 56.5129 15.4928L56.5129 30.0202C56.4886 30.3425 56.4886 30.6663 56.5129 30.9886C56.6288 31.9283 57.4388 32.6265 58.3853 32.6028H60.9034L61.1616 35.2177C60.5525 35.5883 59.869 35.8198 59.1601 35.8957C57.6739 36.2129 56.1423 36.2566 54.6405 36.0248C52.4309 35.7422 50.7209 33.9514 50.5405 31.7312V15.7511C50.5559 15.4553 50.5559 15.159 50.5405 14.8633L47.748 14.3952C47.748 13.3783 47.8449 12.3937 47.8933 11.3122L51.0086 11.1508L52.4129 6.40516L56.416 6.19531Z" fill="white"></path><path fill-rule="evenodd" clip-rule="evenodd" d="M244.884 34.3443C245.04 35.2197 244.632 36.0993 243.862 36.5451C243.093 36.991 242.127 36.9077 241.445 36.3369C240.763 35.766 240.511 34.8295 240.815 33.9937C241.118 33.1578 241.912 32.6012 242.802 32.601C243.855 32.5168 244.782 33.2925 244.884 34.3443L244.884 34.3443ZM241.348 34.3443C241.426 35.0919 242.057 35.6593 242.808 35.6593C243.56 35.6593 244.191 35.0919 244.269 34.3443C244.191 33.5968 243.56 33.0293 242.808 33.0293C242.057 33.0293 241.426 33.5968 241.348 34.3443ZM242.543 35.1675H241.979V33.5534C242.253 33.5369 242.528 33.5369 242.802 33.5534C243.056 33.5288 243.313 33.5734 243.544 33.6825C243.668 33.7576 243.742 33.8931 243.738 34.0376C243.738 34.199 243.56 34.3443 243.318 34.4089C243.516 34.4599 243.663 34.626 243.69 34.8286C243.716 34.9626 243.759 35.0928 243.819 35.2159H243.189C243.116 35.1168 243.071 34.9996 243.06 34.877C243.035 34.7225 242.892 34.6155 242.737 34.6349H242.543V35.1675ZM242.543 34.2483H242.704C242.914 34.2483 243.06 34.1676 243.06 34.0546C243.06 33.9416 242.93 33.8447 242.721 33.8447H242.543V34.2483Z" fill="white"></path></g><defs><clipPath id="clip0_1343_1017"><rect width="243.947" height="47.6171" fill="white" transform="translate(0.970703 0.318359)"></rect></clipPath></defs></svg>