<svg xmlns="http://www.w3.org/2000/svg" width="285" height="48" viewBox="0 0 285 48" fill="none"><path d="M16.1957 37.3324L9.52071 28.2824L15.7207 19.8324H13.7207L8.47071 26.9824L3.19571 19.8324H1.07071L7.29571 28.3324L0.645706 37.3324H2.77071L8.39571 29.6324L14.0457 37.3324H16.1957Z" fill="black"></path><path d="M16.1957 37.3324L9.52071 28.2824L15.7207 19.8324H13.7207L8.47071 26.9824L3.19571 19.8324H1.07071L7.29571 28.3324L0.645706 37.3324H2.77071L8.39571 29.6324L14.0457 37.3324H16.1957Z" fill="url(#paint0_linear_1802_97)"></path><path d="M25.4166 19.8324H18.8666V37.3324H20.7166V31.8074H25.4166C29.8666 31.8074 32.5666 29.5574 32.5666 25.8324C32.5666 22.0824 29.8666 19.8324 25.4166 19.8324ZM25.3666 30.1824H20.7166V21.4324H25.3666C28.8666 21.4324 30.7166 23.0324 30.7166 25.8324C30.7166 28.5824 28.8666 30.1824 25.3666 30.1824Z" fill="black"></path><path d="M25.4166 19.8324H18.8666V37.3324H20.7166V31.8074H25.4166C29.8666 31.8074 32.5666 29.5574 32.5666 25.8324C32.5666 22.0824 29.8666 19.8324 25.4166 19.8324ZM25.3666 30.1824H20.7166V21.4324H25.3666C28.8666 21.4324 30.7166 23.0324 30.7166 25.8324C30.7166 28.5824 28.8666 30.1824 25.3666 30.1824Z" fill="url(#paint1_linear_1802_97)"></path><path d="M50.5418 37.3324L46.2668 31.3324C48.8168 30.5074 50.2668 28.5824 50.2668 25.8324C50.2668 22.0824 47.5668 19.8324 43.1168 19.8324H36.5668V37.3324H38.4168V31.7824H43.1168C43.6168 31.7824 44.0668 31.7574 44.5168 31.7074L48.5168 37.3324H50.5418ZM43.0668 30.2074H38.4168V21.4324H43.0668C46.5668 21.4324 48.4168 23.0324 48.4168 25.8324C48.4168 28.5824 46.5668 30.2074 43.0668 30.2074Z" fill="black"></path><path d="M50.5418 37.3324L46.2668 31.3324C48.8168 30.5074 50.2668 28.5824 50.2668 25.8324C50.2668 22.0824 47.5668 19.8324 43.1168 19.8324H36.5668V37.3324H38.4168V31.7824H43.1168C43.6168 31.7824 44.0668 31.7574 44.5168 31.7074L48.5168 37.3324H50.5418ZM43.0668 30.2074H38.4168V21.4324H43.0668C46.5668 21.4324 48.4168 23.0324 48.4168 25.8324C48.4168 28.5824 46.5668 30.2074 43.0668 30.2074Z" fill="url(#paint2_linear_1802_97)"></path><path d="M56.4832 35.7324V29.2324H65.5332V27.6574H56.4832V21.4324H66.6332V19.8324H54.6332V37.3324H67.0082V35.7324H56.4832Z" fill="black"></path><path d="M56.4832 35.7324V29.2324H65.5332V27.6574H56.4832V21.4324H66.6332V19.8324H54.6332V37.3324H67.0082V35.7324H56.4832Z" fill="url(#paint3_linear_1802_97)"></path><path d="M76.1818 37.4824C80.6568 37.4824 82.7068 35.2824 82.7068 32.7074C82.7068 26.3324 71.9318 29.2324 71.9318 24.4324C71.9318 22.6824 73.3568 21.2574 76.5568 21.2574C78.1068 21.2574 79.8568 21.7324 81.3568 22.7074L81.9818 21.2324C80.5818 20.2574 78.5318 19.6824 76.5568 19.6824C72.1068 19.6824 70.1068 21.9074 70.1068 24.4824C70.1068 30.9574 80.8818 28.0074 80.8818 32.8074C80.8818 34.5324 79.4568 35.9074 76.1818 35.9074C73.8818 35.9074 71.6568 35.0074 70.4068 33.7824L69.6818 35.2074C70.9818 36.5574 73.5568 37.4824 76.1818 37.4824Z" fill="black"></path><path d="M76.1818 37.4824C80.6568 37.4824 82.7068 35.2824 82.7068 32.7074C82.7068 26.3324 71.9318 29.2324 71.9318 24.4324C71.9318 22.6824 73.3568 21.2574 76.5568 21.2574C78.1068 21.2574 79.8568 21.7324 81.3568 22.7074L81.9818 21.2324C80.5818 20.2574 78.5318 19.6824 76.5568 19.6824C72.1068 19.6824 70.1068 21.9074 70.1068 24.4824C70.1068 30.9574 80.8818 28.0074 80.8818 32.8074C80.8818 34.5324 79.4568 35.9074 76.1818 35.9074C73.8818 35.9074 71.6568 35.0074 70.4068 33.7824L69.6818 35.2074C70.9818 36.5574 73.5568 37.4824 76.1818 37.4824Z" fill="url(#paint4_linear_1802_97)"></path><path d="M91.5627 37.4824C96.0377 37.4824 98.0877 35.2824 98.0877 32.7074C98.0877 26.3324 87.3127 29.2324 87.3127 24.4324C87.3127 22.6824 88.7377 21.2574 91.9377 21.2574C93.4877 21.2574 95.2377 21.7324 96.7377 22.7074L97.3627 21.2324C95.9627 20.2574 93.9127 19.6824 91.9377 19.6824C87.4877 19.6824 85.4877 21.9074 85.4877 24.4824C85.4877 30.9574 96.2627 28.0074 96.2627 32.8074C96.2627 34.5324 94.8377 35.9074 91.5627 35.9074C89.2627 35.9074 87.0377 35.0074 85.7877 33.7824L85.0627 35.2074C86.3627 36.5574 88.9377 37.4824 91.5627 37.4824Z" fill="black"></path><path d="M91.5627 37.4824C96.0377 37.4824 98.0877 35.2824 98.0877 32.7074C98.0877 26.3324 87.3127 29.2324 87.3127 24.4324C87.3127 22.6824 88.7377 21.2574 91.9377 21.2574C93.4877 21.2574 95.2377 21.7324 96.7377 22.7074L97.3627 21.2324C95.9627 20.2574 93.9127 19.6824 91.9377 19.6824C87.4877 19.6824 85.4877 21.9074 85.4877 24.4824C85.4877 30.9574 96.2627 28.0074 96.2627 32.8074C96.2627 34.5324 94.8377 35.9074 91.5627 35.9074C89.2627 35.9074 87.0377 35.0074 85.7877 33.7824L85.0627 35.2074C86.3627 36.5574 88.9377 37.4824 91.5627 37.4824Z" fill="url(#paint5_linear_1802_97)"></path><path d="M121.662 19.8324H119.812L113.812 29.6574L107.812 19.8324H105.837L112.837 31.2824V37.3324H114.662V31.2824L121.662 19.8324Z" fill="black"></path><path d="M121.662 19.8324H119.812L113.812 29.6574L107.812 19.8324H105.837L112.837 31.2824V37.3324H114.662V31.2824L121.662 19.8324Z" fill="url(#paint6_linear_1802_97)"></path><path d="M151.21 37.4824C155.685 37.4824 158.385 34.8824 158.385 29.8574V19.8324H156.585V29.7824C156.585 33.9324 154.635 35.8324 151.21 35.8324C147.81 35.8324 145.86 33.9324 145.86 29.7824V19.8324H144.01V29.8574C144.01 34.8824 146.735 37.4824 151.21 37.4824Z" fill="black"></path><path d="M151.21 37.4824C155.685 37.4824 158.385 34.8824 158.385 29.8574V19.8324H156.585V29.7824C156.585 33.9324 154.635 35.8324 151.21 35.8324C147.81 35.8324 145.86 33.9324 145.86 29.7824V19.8324H144.01V29.8574C144.01 34.8824 146.735 37.4824 151.21 37.4824Z" fill="url(#paint7_linear_1802_97)"></path><path d="M177.934 37.3324L173.659 31.3324C176.209 30.5074 177.659 28.5824 177.659 25.8324C177.659 22.0824 174.959 19.8324 170.509 19.8324H163.959V37.3324H165.809V31.7824H170.509C171.009 31.7824 171.459 31.7574 171.909 31.7074L175.909 37.3324H177.934ZM170.459 30.2074H165.809V21.4324H170.459C173.959 21.4324 175.809 23.0324 175.809 25.8324C175.809 28.5824 173.959 30.2074 170.459 30.2074Z" fill="black"></path><path d="M177.934 37.3324L173.659 31.3324C176.209 30.5074 177.659 28.5824 177.659 25.8324C177.659 22.0824 174.959 19.8324 170.509 19.8324H163.959V37.3324H165.809V31.7824H170.509C171.009 31.7824 171.459 31.7574 171.909 31.7074L175.909 37.3324H177.934ZM170.459 30.2074H165.809V21.4324H170.459C173.959 21.4324 175.809 23.0324 175.809 25.8324C175.809 28.5824 173.959 30.2074 170.459 30.2074Z" fill="url(#paint8_linear_1802_97)"></path><path d="M193.571 18.1835C193.805 18.5151 194.176 18.759 194.683 18.9151C195.21 19.0516 195.805 19.1296 196.468 19.1492C197.151 19.1687 197.873 19.1589 198.633 19.1199C199.394 19.0614 200.136 19.0126 200.857 18.9736C201.579 18.915 202.243 18.8858 202.847 18.8858C203.452 18.8858 203.93 18.9443 204.281 19.0614C204.359 19.1004 204.428 19.1687 204.486 19.2662C204.545 19.3638 204.574 19.4808 204.574 19.6174C204.593 19.7539 204.564 19.8807 204.486 19.9978C204.428 20.1149 204.33 20.2026 204.194 20.2612C203.394 20.6123 202.477 21.1683 201.443 21.9292C200.409 22.69 199.346 23.5875 198.253 24.6214C197.18 25.6554 196.107 26.7967 195.034 28.0453C193.961 29.2938 192.976 30.5912 192.078 31.9373C191.181 33.2834 190.41 34.6393 189.767 36.0049C189.142 37.3706 188.723 38.6874 188.508 39.9555C188.294 41.3211 188.372 42.5014 188.742 43.4964C189.133 44.5109 189.757 45.2912 190.615 45.8375C191.474 46.3837 192.527 46.6666 193.776 46.6861C195.044 46.7056 196.448 46.413 197.99 45.8082C199.882 45.0474 201.745 43.9841 203.579 42.6185C205.413 41.2529 207.169 39.7214 208.846 38.0241C210.544 36.3463 212.124 34.571 213.587 32.6982C215.05 30.8253 216.348 29.011 217.479 27.2552C217.577 27.1381 217.694 27.1283 217.83 27.2259C217.986 27.3234 218.025 27.4502 217.947 27.6063C217.362 28.7769 216.631 30.0157 215.753 31.3228C214.894 32.6104 213.929 33.9077 212.856 35.2148C211.783 36.5219 210.632 37.79 209.402 39.0191C208.193 40.2677 206.964 41.4187 205.715 42.4722C204.467 43.5257 203.208 44.4426 201.94 45.2229C200.692 46.0228 199.502 46.6276 198.37 47.0373C196.4 47.7396 194.605 48.0225 192.986 47.8859C191.386 47.7494 190.05 47.3007 188.977 46.5398C187.904 45.779 187.152 44.7645 186.723 43.4964C186.275 42.2283 186.226 40.8042 186.577 39.2239C186.889 37.9168 187.396 36.5707 188.099 35.1856C188.82 33.7809 189.65 32.4055 190.586 31.0594C191.542 29.7133 192.576 28.4354 193.688 27.2259C194.8 25.9968 195.902 24.8946 196.995 23.9191C198.087 22.9242 199.131 22.0853 200.126 21.4024C201.121 20.7196 201.989 20.2612 202.73 20.0271C202.321 20.1636 201.784 20.2904 201.121 20.4075C200.458 20.5245 199.745 20.6123 198.985 20.6709C198.224 20.7099 197.453 20.7099 196.673 20.6709C195.892 20.6318 195.18 20.5245 194.537 20.349C193.893 20.1539 193.347 19.871 192.898 19.5003C192.449 19.1296 192.176 18.6419 192.078 18.0371C191.981 17.2958 192.059 16.4959 192.313 15.6375C192.566 14.7596 192.966 13.8622 193.512 12.9453C194.059 12.0089 194.712 11.0724 195.473 10.136C196.253 9.18005 197.112 8.26313 198.048 7.38523C198.985 6.50732 199.97 5.68794 201.004 4.92709C202.038 4.14673 203.091 3.46391 204.164 2.87864C205.023 2.41043 205.969 2.01049 207.003 1.67884C208.037 1.32768 209.051 1.10332 210.046 1.00578C211.061 0.888725 212.017 0.917988 212.914 1.09357C213.831 1.26915 214.582 1.64957 215.167 2.23484C215.772 2.80061 216.182 3.59072 216.396 4.60519C216.611 5.61966 216.533 6.90725 216.162 8.46798C215.714 10.2823 215.099 12.0869 214.319 13.8817C213.538 15.657 212.592 17.4421 211.48 19.2369C211.363 19.4515 211.207 19.6076 211.012 19.7052C210.836 19.7832 210.671 19.8125 210.514 19.793C210.378 19.7539 210.28 19.6661 210.222 19.5296C210.163 19.393 210.202 19.2077 210.339 18.9736C211.295 17.4129 212.173 15.7156 212.973 13.8817C213.772 12.0479 214.397 10.1945 214.845 8.32166C215.138 7.03406 215.206 5.96107 215.05 5.10267C214.914 4.22476 214.621 3.54195 214.172 3.05422C213.724 2.54699 213.148 2.20558 212.446 2.03C211.763 1.85442 211.012 1.80565 210.193 1.88369C209.393 1.94221 208.554 2.12755 207.676 2.43969C206.818 2.73233 205.998 3.103 205.218 3.55171C204.047 4.1955 202.906 4.9466 201.794 5.805C200.682 6.64388 199.638 7.53154 198.663 8.46798C197.707 9.40441 196.839 10.3603 196.058 11.3358C195.297 12.2917 194.683 13.2087 194.215 14.0866C193.746 14.945 193.444 15.7351 193.308 16.4569C193.171 17.1592 193.259 17.7348 193.571 18.1835Z" fill="black"></path><path d="M193.571 18.1835C193.805 18.5151 194.176 18.759 194.683 18.9151C195.21 19.0516 195.805 19.1296 196.468 19.1492C197.151 19.1687 197.873 19.1589 198.633 19.1199C199.394 19.0614 200.136 19.0126 200.857 18.9736C201.579 18.915 202.243 18.8858 202.847 18.8858C203.452 18.8858 203.93 18.9443 204.281 19.0614C204.359 19.1004 204.428 19.1687 204.486 19.2662C204.545 19.3638 204.574 19.4808 204.574 19.6174C204.593 19.7539 204.564 19.8807 204.486 19.9978C204.428 20.1149 204.33 20.2026 204.194 20.2612C203.394 20.6123 202.477 21.1683 201.443 21.9292C200.409 22.69 199.346 23.5875 198.253 24.6214C197.18 25.6554 196.107 26.7967 195.034 28.0453C193.961 29.2938 192.976 30.5912 192.078 31.9373C191.181 33.2834 190.41 34.6393 189.767 36.0049C189.142 37.3706 188.723 38.6874 188.508 39.9555C188.294 41.3211 188.372 42.5014 188.742 43.4964C189.133 44.5109 189.757 45.2912 190.615 45.8375C191.474 46.3837 192.527 46.6666 193.776 46.6861C195.044 46.7056 196.448 46.413 197.99 45.8082C199.882 45.0474 201.745 43.9841 203.579 42.6185C205.413 41.2529 207.169 39.7214 208.846 38.0241C210.544 36.3463 212.124 34.571 213.587 32.6982C215.05 30.8253 216.348 29.011 217.479 27.2552C217.577 27.1381 217.694 27.1283 217.83 27.2259C217.986 27.3234 218.025 27.4502 217.947 27.6063C217.362 28.7769 216.631 30.0157 215.753 31.3228C214.894 32.6104 213.929 33.9077 212.856 35.2148C211.783 36.5219 210.632 37.79 209.402 39.0191C208.193 40.2677 206.964 41.4187 205.715 42.4722C204.467 43.5257 203.208 44.4426 201.94 45.2229C200.692 46.0228 199.502 46.6276 198.37 47.0373C196.4 47.7396 194.605 48.0225 192.986 47.8859C191.386 47.7494 190.05 47.3007 188.977 46.5398C187.904 45.779 187.152 44.7645 186.723 43.4964C186.275 42.2283 186.226 40.8042 186.577 39.2239C186.889 37.9168 187.396 36.5707 188.099 35.1856C188.82 33.7809 189.65 32.4055 190.586 31.0594C191.542 29.7133 192.576 28.4354 193.688 27.2259C194.8 25.9968 195.902 24.8946 196.995 23.9191C198.087 22.9242 199.131 22.0853 200.126 21.4024C201.121 20.7196 201.989 20.2612 202.73 20.0271C202.321 20.1636 201.784 20.2904 201.121 20.4075C200.458 20.5245 199.745 20.6123 198.985 20.6709C198.224 20.7099 197.453 20.7099 196.673 20.6709C195.892 20.6318 195.18 20.5245 194.537 20.349C193.893 20.1539 193.347 19.871 192.898 19.5003C192.449 19.1296 192.176 18.6419 192.078 18.0371C191.981 17.2958 192.059 16.4959 192.313 15.6375C192.566 14.7596 192.966 13.8622 193.512 12.9453C194.059 12.0089 194.712 11.0724 195.473 10.136C196.253 9.18005 197.112 8.26313 198.048 7.38523C198.985 6.50732 199.97 5.68794 201.004 4.92709C202.038 4.14673 203.091 3.46391 204.164 2.87864C205.023 2.41043 205.969 2.01049 207.003 1.67884C208.037 1.32768 209.051 1.10332 210.046 1.00578C211.061 0.888725 212.017 0.917988 212.914 1.09357C213.831 1.26915 214.582 1.64957 215.167 2.23484C215.772 2.80061 216.182 3.59072 216.396 4.60519C216.611 5.61966 216.533 6.90725 216.162 8.46798C215.714 10.2823 215.099 12.0869 214.319 13.8817C213.538 15.657 212.592 17.4421 211.48 19.2369C211.363 19.4515 211.207 19.6076 211.012 19.7052C210.836 19.7832 210.671 19.8125 210.514 19.793C210.378 19.7539 210.28 19.6661 210.222 19.5296C210.163 19.393 210.202 19.2077 210.339 18.9736C211.295 17.4129 212.173 15.7156 212.973 13.8817C213.772 12.0479 214.397 10.1945 214.845 8.32166C215.138 7.03406 215.206 5.96107 215.05 5.10267C214.914 4.22476 214.621 3.54195 214.172 3.05422C213.724 2.54699 213.148 2.20558 212.446 2.03C211.763 1.85442 211.012 1.80565 210.193 1.88369C209.393 1.94221 208.554 2.12755 207.676 2.43969C206.818 2.73233 205.998 3.103 205.218 3.55171C204.047 4.1955 202.906 4.9466 201.794 5.805C200.682 6.64388 199.638 7.53154 198.663 8.46798C197.707 9.40441 196.839 10.3603 196.058 11.3358C195.297 12.2917 194.683 13.2087 194.215 14.0866C193.746 14.945 193.444 15.7351 193.308 16.4569C193.171 17.1592 193.259 17.7348 193.571 18.1835Z" fill="url(#paint9_linear_1802_97)"></path><path d="M226.286 27.2552C226.423 27.2161 226.511 27.2747 226.55 27.4307C226.589 27.5868 226.55 27.6941 226.433 27.7526C225.399 28.0843 224.228 28.5037 222.921 29.011C221.633 29.4987 220.395 30.0937 219.205 30.796C219.361 31.1667 219.507 31.5471 219.643 31.9373C219.78 32.308 219.868 32.6884 219.907 33.0786C219.965 33.4688 219.956 33.8687 219.878 34.2784C219.819 34.6686 219.663 35.0783 219.409 35.5075C219.195 35.8586 218.941 36.1805 218.649 36.4732C218.375 36.7658 218.063 37.0194 217.712 37.234C217.38 37.4486 217.039 37.6144 216.688 37.7315C216.317 37.8485 215.947 37.8876 215.576 37.8485C215.127 37.8095 214.747 37.6339 214.435 37.3218C214.122 37.0097 213.986 36.5512 214.025 35.9464C214.142 34.8734 214.561 33.898 215.283 33.0201C215.986 32.1422 216.854 31.3618 217.888 30.679C217.615 30.2108 217.371 29.7328 217.156 29.2451C216.922 28.7378 216.824 28.2013 216.863 27.6356C216.902 26.6991 217.195 25.792 217.741 24.9141C218.307 24.0362 219.058 23.3826 219.995 22.9534C220.268 22.8364 220.502 22.8071 220.697 22.8656C220.912 22.9242 221.077 23.0315 221.194 23.1875C221.311 23.3241 221.39 23.4899 221.429 23.685C221.468 23.8606 221.458 24.0167 221.399 24.1532C221.38 24.2117 221.331 24.2703 221.253 24.3288C221.194 24.3678 221.126 24.3873 221.048 24.3873C220.97 24.3873 220.902 24.3678 220.843 24.3288C220.785 24.2703 220.775 24.1922 220.814 24.0947C220.853 23.9971 220.834 23.9094 220.755 23.8313C220.697 23.7533 220.619 23.7533 220.521 23.8313C219.975 24.28 219.497 24.836 219.087 25.4993C218.697 26.1431 218.473 26.8162 218.414 27.5185C218.375 27.9672 218.405 28.3964 218.502 28.8061C218.619 29.2158 218.756 29.6353 218.912 30.0644C220.102 29.3816 221.341 28.8159 222.628 28.3672C223.935 27.8989 225.155 27.5283 226.286 27.2552ZM218.619 34.9222C218.814 34.61 218.931 34.2979 218.97 33.9858C219.029 33.6736 219.029 33.3712 218.97 33.0786C218.931 32.786 218.844 32.5031 218.707 32.2299C218.59 31.9373 218.453 31.6544 218.297 31.3813C217.458 31.9471 216.727 32.5811 216.103 33.2834C215.478 33.9663 215.039 34.7271 214.786 35.566C214.63 36.0342 214.649 36.4146 214.844 36.7073C215.02 36.9999 215.303 37.1365 215.693 37.117C215.947 37.117 216.22 37.0584 216.512 36.9414C216.785 36.8048 217.049 36.639 217.302 36.4439C217.556 36.2293 217.79 35.9952 218.005 35.7416C218.239 35.488 218.444 35.2148 218.619 34.9222Z" fill="black"></path><path d="M226.286 27.2552C226.423 27.2161 226.511 27.2747 226.55 27.4307C226.589 27.5868 226.55 27.6941 226.433 27.7526C225.399 28.0843 224.228 28.5037 222.921 29.011C221.633 29.4987 220.395 30.0937 219.205 30.796C219.361 31.1667 219.507 31.5471 219.643 31.9373C219.78 32.308 219.868 32.6884 219.907 33.0786C219.965 33.4688 219.956 33.8687 219.878 34.2784C219.819 34.6686 219.663 35.0783 219.409 35.5075C219.195 35.8586 218.941 36.1805 218.649 36.4732C218.375 36.7658 218.063 37.0194 217.712 37.234C217.38 37.4486 217.039 37.6144 216.688 37.7315C216.317 37.8485 215.947 37.8876 215.576 37.8485C215.127 37.8095 214.747 37.6339 214.435 37.3218C214.122 37.0097 213.986 36.5512 214.025 35.9464C214.142 34.8734 214.561 33.898 215.283 33.0201C215.986 32.1422 216.854 31.3618 217.888 30.679C217.615 30.2108 217.371 29.7328 217.156 29.2451C216.922 28.7378 216.824 28.2013 216.863 27.6356C216.902 26.6991 217.195 25.792 217.741 24.9141C218.307 24.0362 219.058 23.3826 219.995 22.9534C220.268 22.8364 220.502 22.8071 220.697 22.8656C220.912 22.9242 221.077 23.0315 221.194 23.1875C221.311 23.3241 221.39 23.4899 221.429 23.685C221.468 23.8606 221.458 24.0167 221.399 24.1532C221.38 24.2117 221.331 24.2703 221.253 24.3288C221.194 24.3678 221.126 24.3873 221.048 24.3873C220.97 24.3873 220.902 24.3678 220.843 24.3288C220.785 24.2703 220.775 24.1922 220.814 24.0947C220.853 23.9971 220.834 23.9094 220.755 23.8313C220.697 23.7533 220.619 23.7533 220.521 23.8313C219.975 24.28 219.497 24.836 219.087 25.4993C218.697 26.1431 218.473 26.8162 218.414 27.5185C218.375 27.9672 218.405 28.3964 218.502 28.8061C218.619 29.2158 218.756 29.6353 218.912 30.0644C220.102 29.3816 221.341 28.8159 222.628 28.3672C223.935 27.8989 225.155 27.5283 226.286 27.2552ZM218.619 34.9222C218.814 34.61 218.931 34.2979 218.97 33.9858C219.029 33.6736 219.029 33.3712 218.97 33.0786C218.931 32.786 218.844 32.5031 218.707 32.2299C218.59 31.9373 218.453 31.6544 218.297 31.3813C217.458 31.9471 216.727 32.5811 216.103 33.2834C215.478 33.9663 215.039 34.7271 214.786 35.566C214.63 36.0342 214.649 36.4146 214.844 36.7073C215.02 36.9999 215.303 37.1365 215.693 37.117C215.947 37.117 216.22 37.0584 216.512 36.9414C216.785 36.8048 217.049 36.639 217.302 36.4439C217.556 36.2293 217.79 35.9952 218.005 35.7416C218.239 35.488 218.444 35.2148 218.619 34.9222Z" fill="url(#paint10_linear_1802_97)"></path><path d="M235.04 27.2552C235.176 27.2161 235.264 27.2747 235.303 27.4307C235.342 27.5868 235.303 27.6941 235.186 27.7526C234.152 28.0843 232.981 28.5037 231.674 29.011C230.387 29.4987 229.148 30.0937 227.958 30.796C228.114 31.1667 228.26 31.5471 228.397 31.9373C228.533 32.308 228.621 32.6884 228.66 33.0786C228.719 33.4688 228.709 33.8687 228.631 34.2784C228.572 34.6686 228.416 35.0783 228.163 35.5075C227.948 35.8586 227.694 36.1805 227.402 36.4732C227.129 36.7658 226.817 37.0194 226.465 37.234C226.134 37.4486 225.792 37.6144 225.441 37.7315C225.071 37.8485 224.7 37.8876 224.329 37.8485C223.88 37.8095 223.5 37.6339 223.188 37.3218C222.876 37.0097 222.739 36.5512 222.778 35.9464C222.895 34.8734 223.315 33.898 224.037 33.0201C224.739 32.1422 225.607 31.3618 226.641 30.679C226.368 30.2108 226.124 29.7328 225.909 29.2451C225.675 28.7378 225.578 28.2013 225.617 27.6356C225.656 26.6991 225.948 25.792 226.495 24.9141C227.06 24.0362 227.812 23.3826 228.748 22.9534C229.021 22.8364 229.255 22.8071 229.45 22.8656C229.665 22.9242 229.831 23.0315 229.948 23.1875C230.065 23.3241 230.143 23.4899 230.182 23.685C230.221 23.8606 230.211 24.0167 230.153 24.1532C230.133 24.2117 230.084 24.2703 230.006 24.3288C229.948 24.3678 229.88 24.3873 229.801 24.3873C229.723 24.3873 229.655 24.3678 229.597 24.3288C229.538 24.2703 229.528 24.1922 229.567 24.0947C229.606 23.9971 229.587 23.9094 229.509 23.8313C229.45 23.7533 229.372 23.7533 229.275 23.8313C228.728 24.28 228.25 24.836 227.841 25.4993C227.451 26.1431 227.226 26.8162 227.168 27.5185C227.129 27.9672 227.158 28.3964 227.256 28.8061C227.373 29.2158 227.509 29.6353 227.665 30.0644C228.855 29.3816 230.094 28.8159 231.382 28.3672C232.689 27.8989 233.908 27.5283 235.04 27.2552ZM227.373 34.9222C227.568 34.61 227.685 34.2979 227.724 33.9858C227.782 33.6736 227.782 33.3712 227.724 33.0786C227.685 32.786 227.597 32.5031 227.46 32.2299C227.343 31.9373 227.207 31.6544 227.051 31.3813C226.212 31.9471 225.48 32.5811 224.856 33.2834C224.232 33.9663 223.793 34.7271 223.539 35.566C223.383 36.0342 223.403 36.4146 223.598 36.7073C223.773 36.9999 224.056 37.1365 224.446 37.117C224.7 37.117 224.973 37.0584 225.266 36.9414C225.539 36.8048 225.802 36.639 226.056 36.4439C226.309 36.2293 226.543 35.9952 226.758 35.7416C226.992 35.488 227.197 35.2148 227.373 34.9222Z" fill="black"></path><path d="M235.04 27.2552C235.176 27.2161 235.264 27.2747 235.303 27.4307C235.342 27.5868 235.303 27.6941 235.186 27.7526C234.152 28.0843 232.981 28.5037 231.674 29.011C230.387 29.4987 229.148 30.0937 227.958 30.796C228.114 31.1667 228.26 31.5471 228.397 31.9373C228.533 32.308 228.621 32.6884 228.66 33.0786C228.719 33.4688 228.709 33.8687 228.631 34.2784C228.572 34.6686 228.416 35.0783 228.163 35.5075C227.948 35.8586 227.694 36.1805 227.402 36.4732C227.129 36.7658 226.817 37.0194 226.465 37.234C226.134 37.4486 225.792 37.6144 225.441 37.7315C225.071 37.8485 224.7 37.8876 224.329 37.8485C223.88 37.8095 223.5 37.6339 223.188 37.3218C222.876 37.0097 222.739 36.5512 222.778 35.9464C222.895 34.8734 223.315 33.898 224.037 33.0201C224.739 32.1422 225.607 31.3618 226.641 30.679C226.368 30.2108 226.124 29.7328 225.909 29.2451C225.675 28.7378 225.578 28.2013 225.617 27.6356C225.656 26.6991 225.948 25.792 226.495 24.9141C227.06 24.0362 227.812 23.3826 228.748 22.9534C229.021 22.8364 229.255 22.8071 229.45 22.8656C229.665 22.9242 229.831 23.0315 229.948 23.1875C230.065 23.3241 230.143 23.4899 230.182 23.685C230.221 23.8606 230.211 24.0167 230.153 24.1532C230.133 24.2117 230.084 24.2703 230.006 24.3288C229.948 24.3678 229.88 24.3873 229.801 24.3873C229.723 24.3873 229.655 24.3678 229.597 24.3288C229.538 24.2703 229.528 24.1922 229.567 24.0947C229.606 23.9971 229.587 23.9094 229.509 23.8313C229.45 23.7533 229.372 23.7533 229.275 23.8313C228.728 24.28 228.25 24.836 227.841 25.4993C227.451 26.1431 227.226 26.8162 227.168 27.5185C227.129 27.9672 227.158 28.3964 227.256 28.8061C227.373 29.2158 227.509 29.6353 227.665 30.0644C228.855 29.3816 230.094 28.8159 231.382 28.3672C232.689 27.8989 233.908 27.5283 235.04 27.2552ZM227.373 34.9222C227.568 34.61 227.685 34.2979 227.724 33.9858C227.782 33.6736 227.782 33.3712 227.724 33.0786C227.685 32.786 227.597 32.5031 227.46 32.2299C227.343 31.9373 227.207 31.6544 227.051 31.3813C226.212 31.9471 225.48 32.5811 224.856 33.2834C224.232 33.9663 223.793 34.7271 223.539 35.566C223.383 36.0342 223.403 36.4146 223.598 36.7073C223.773 36.9999 224.056 37.1365 224.446 37.117C224.7 37.117 224.973 37.0584 225.266 36.9414C225.539 36.8048 225.802 36.639 226.056 36.4439C226.309 36.2293 226.543 35.9952 226.758 35.7416C226.992 35.488 227.197 35.2148 227.373 34.9222Z" fill="url(#paint11_linear_1802_97)"></path><path d="M240.252 24.0362C240.486 24.3678 240.564 24.758 240.486 25.2067C240.408 25.6554 240.223 26.1236 239.93 26.6114C239.657 27.0796 239.296 27.538 238.847 27.9867C238.399 28.4354 237.921 28.8451 237.414 29.2158C236.926 29.567 236.438 29.8498 235.95 30.0644C235.463 30.279 235.033 30.3863 234.663 30.3863C234.624 30.6985 234.614 31.0009 234.633 31.2935C234.653 31.5862 234.712 31.8593 234.809 32.1129C235.004 32.6787 235.287 33.0786 235.658 33.3127C236.048 33.5273 236.467 33.6346 236.916 33.6346C237.384 33.6151 237.862 33.5175 238.35 33.342C238.857 33.1664 239.345 32.942 239.813 32.6689C240.398 32.3568 240.993 31.9861 241.598 31.5569C242.203 31.1082 242.788 30.6497 243.354 30.1815C243.92 29.7133 244.456 29.2353 244.964 28.7476C245.471 28.2599 245.929 27.7917 246.339 27.3429C246.456 27.2064 246.583 27.1966 246.719 27.3137C246.875 27.4307 246.895 27.5575 246.778 27.6941C246.388 28.2599 245.841 28.8842 245.139 29.567C244.456 30.2303 243.715 30.8838 242.915 31.5276C242.115 32.1519 241.306 32.7177 240.486 33.2249C239.667 33.7126 238.935 34.054 238.291 34.2491C237.862 34.3662 237.433 34.4442 237.004 34.4832C236.594 34.5223 236.194 34.5027 235.804 34.4247C235.433 34.3272 235.092 34.1613 234.78 33.9272C234.448 33.6736 234.185 33.3225 233.99 32.8737C233.736 32.347 233.609 31.7422 233.609 31.0594C233.59 30.3766 233.687 29.6743 233.902 28.9524C234.097 28.2306 234.39 27.5185 234.78 26.8162C235.17 26.1139 235.648 25.4701 236.214 24.8848C236.623 24.4751 237.033 24.163 237.443 23.9484C237.852 23.7143 238.243 23.5679 238.613 23.5094C238.984 23.4509 239.306 23.4704 239.579 23.5679C239.872 23.6655 240.096 23.8216 240.252 24.0362ZM237.15 25.3238C236.643 25.792 236.165 26.426 235.716 27.2259C235.287 28.0062 234.975 28.8159 234.78 29.6548C235.15 29.6743 235.56 29.5767 236.009 29.3621C236.458 29.128 236.897 28.8451 237.326 28.5135C237.774 28.1818 238.184 27.8112 238.555 27.4015C238.945 26.9723 239.247 26.5626 239.462 26.1724C239.696 25.7822 239.823 25.4311 239.842 25.1189C239.862 24.8068 239.735 24.5824 239.462 24.4459C239.208 24.3288 238.867 24.3483 238.438 24.5044C238.028 24.6409 237.599 24.9141 237.15 25.3238Z" fill="black"></path><path d="M240.252 24.0362C240.486 24.3678 240.564 24.758 240.486 25.2067C240.408 25.6554 240.223 26.1236 239.93 26.6114C239.657 27.0796 239.296 27.538 238.847 27.9867C238.399 28.4354 237.921 28.8451 237.414 29.2158C236.926 29.567 236.438 29.8498 235.95 30.0644C235.463 30.279 235.033 30.3863 234.663 30.3863C234.624 30.6985 234.614 31.0009 234.633 31.2935C234.653 31.5862 234.712 31.8593 234.809 32.1129C235.004 32.6787 235.287 33.0786 235.658 33.3127C236.048 33.5273 236.467 33.6346 236.916 33.6346C237.384 33.6151 237.862 33.5175 238.35 33.342C238.857 33.1664 239.345 32.942 239.813 32.6689C240.398 32.3568 240.993 31.9861 241.598 31.5569C242.203 31.1082 242.788 30.6497 243.354 30.1815C243.92 29.7133 244.456 29.2353 244.964 28.7476C245.471 28.2599 245.929 27.7917 246.339 27.3429C246.456 27.2064 246.583 27.1966 246.719 27.3137C246.875 27.4307 246.895 27.5575 246.778 27.6941C246.388 28.2599 245.841 28.8842 245.139 29.567C244.456 30.2303 243.715 30.8838 242.915 31.5276C242.115 32.1519 241.306 32.7177 240.486 33.2249C239.667 33.7126 238.935 34.054 238.291 34.2491C237.862 34.3662 237.433 34.4442 237.004 34.4832C236.594 34.5223 236.194 34.5027 235.804 34.4247C235.433 34.3272 235.092 34.1613 234.78 33.9272C234.448 33.6736 234.185 33.3225 233.99 32.8737C233.736 32.347 233.609 31.7422 233.609 31.0594C233.59 30.3766 233.687 29.6743 233.902 28.9524C234.097 28.2306 234.39 27.5185 234.78 26.8162C235.17 26.1139 235.648 25.4701 236.214 24.8848C236.623 24.4751 237.033 24.163 237.443 23.9484C237.852 23.7143 238.243 23.5679 238.613 23.5094C238.984 23.4509 239.306 23.4704 239.579 23.5679C239.872 23.6655 240.096 23.8216 240.252 24.0362ZM237.15 25.3238C236.643 25.792 236.165 26.426 235.716 27.2259C235.287 28.0062 234.975 28.8159 234.78 29.6548C235.15 29.6743 235.56 29.5767 236.009 29.3621C236.458 29.128 236.897 28.8451 237.326 28.5135C237.774 28.1818 238.184 27.8112 238.555 27.4015C238.945 26.9723 239.247 26.5626 239.462 26.1724C239.696 25.7822 239.823 25.4311 239.842 25.1189C239.862 24.8068 239.735 24.5824 239.462 24.4459C239.208 24.3288 238.867 24.3483 238.438 24.5044C238.028 24.6409 237.599 24.9141 237.15 25.3238Z" fill="url(#paint12_linear_1802_97)"></path><path d="M244.55 35.6245C244.511 35.7416 244.443 35.8294 244.345 35.8879C244.228 35.9269 244.111 35.9269 243.994 35.8879C243.857 35.8489 243.74 35.7708 243.643 35.6538C243.545 35.5172 243.496 35.3319 243.496 35.0978C243.613 34.3369 243.799 33.4883 244.052 32.5518C244.306 31.6154 244.599 30.6692 244.93 29.7133C245.262 28.7378 245.613 27.7819 245.984 26.8455C246.335 25.8895 246.676 25.0116 247.008 24.2117C247.105 23.9581 247.242 23.7923 247.418 23.7143C247.613 23.6362 247.788 23.6362 247.944 23.7143C248.1 23.7923 248.208 23.9289 248.266 24.124C248.344 24.2995 248.325 24.5141 248.208 24.7678C248.032 25.1579 247.827 25.6261 247.593 26.1724C247.379 26.7187 247.154 27.3137 246.92 27.9575C246.686 28.6013 246.452 29.2841 246.218 30.0059C245.984 30.7278 245.759 31.4496 245.545 32.1714C245.876 31.6447 246.247 31.1179 246.657 30.5912C247.066 30.0449 247.476 29.528 247.886 29.0402C248.315 28.5525 248.735 28.1038 249.144 27.6941C249.573 27.2844 249.964 26.9528 250.315 26.6991C250.549 26.5431 250.793 26.4358 251.046 26.3772C251.3 26.3187 251.544 26.3187 251.778 26.3772C252.012 26.4358 252.217 26.5528 252.392 26.7284C252.588 26.904 252.724 27.1479 252.802 27.46C252.9 27.8697 252.958 28.3379 252.978 28.8646C253.017 29.3719 253.056 29.8694 253.095 30.3571C253.134 30.8448 253.192 31.2935 253.27 31.7032C253.348 32.1129 253.475 32.425 253.651 32.6396C253.826 32.8347 254.07 32.9128 254.382 32.8737C254.714 32.8152 255.143 32.5714 255.67 32.1422C256.041 31.83 256.421 31.4691 256.811 31.0594C257.221 30.6302 257.601 30.1913 257.952 29.7425C258.323 29.2938 258.665 28.8549 258.977 28.4257C259.289 27.9965 259.562 27.6356 259.796 27.3429C259.855 27.2844 259.913 27.2552 259.972 27.2552C260.05 27.2552 260.118 27.2844 260.177 27.3429C260.235 27.382 260.274 27.4405 260.294 27.5185C260.313 27.5771 260.294 27.6356 260.235 27.6941C259.845 28.1818 259.464 28.6793 259.094 29.1865C258.723 29.6938 258.352 30.1815 257.982 30.6497C257.611 31.1179 257.231 31.5471 256.84 31.9373C256.47 32.3275 256.089 32.6591 255.699 32.9323C255.036 33.4005 254.48 33.6541 254.031 33.6931C253.602 33.7126 253.241 33.5956 252.948 33.342C252.656 33.0883 252.422 32.7274 252.246 32.2592C252.09 31.791 251.963 31.3033 251.866 30.796C251.788 30.2693 251.729 29.7621 251.69 29.2743C251.671 28.7671 251.641 28.3477 251.602 28.016C251.563 27.6843 251.466 27.4893 251.31 27.4307C251.173 27.3722 251.017 27.3917 250.841 27.4893C250.373 27.8014 249.837 28.2794 249.232 28.9232C248.647 29.5475 248.052 30.2498 247.447 31.0301C246.862 31.8105 246.306 32.6104 245.779 33.4298C245.252 34.2296 244.842 34.9612 244.55 35.6245Z" fill="black"></path><path d="M244.55 35.6245C244.511 35.7416 244.443 35.8294 244.345 35.8879C244.228 35.9269 244.111 35.9269 243.994 35.8879C243.857 35.8489 243.74 35.7708 243.643 35.6538C243.545 35.5172 243.496 35.3319 243.496 35.0978C243.613 34.3369 243.799 33.4883 244.052 32.5518C244.306 31.6154 244.599 30.6692 244.93 29.7133C245.262 28.7378 245.613 27.7819 245.984 26.8455C246.335 25.8895 246.676 25.0116 247.008 24.2117C247.105 23.9581 247.242 23.7923 247.418 23.7143C247.613 23.6362 247.788 23.6362 247.944 23.7143C248.1 23.7923 248.208 23.9289 248.266 24.124C248.344 24.2995 248.325 24.5141 248.208 24.7678C248.032 25.1579 247.827 25.6261 247.593 26.1724C247.379 26.7187 247.154 27.3137 246.92 27.9575C246.686 28.6013 246.452 29.2841 246.218 30.0059C245.984 30.7278 245.759 31.4496 245.545 32.1714C245.876 31.6447 246.247 31.1179 246.657 30.5912C247.066 30.0449 247.476 29.528 247.886 29.0402C248.315 28.5525 248.735 28.1038 249.144 27.6941C249.573 27.2844 249.964 26.9528 250.315 26.6991C250.549 26.5431 250.793 26.4358 251.046 26.3772C251.3 26.3187 251.544 26.3187 251.778 26.3772C252.012 26.4358 252.217 26.5528 252.392 26.7284C252.588 26.904 252.724 27.1479 252.802 27.46C252.9 27.8697 252.958 28.3379 252.978 28.8646C253.017 29.3719 253.056 29.8694 253.095 30.3571C253.134 30.8448 253.192 31.2935 253.27 31.7032C253.348 32.1129 253.475 32.425 253.651 32.6396C253.826 32.8347 254.07 32.9128 254.382 32.8737C254.714 32.8152 255.143 32.5714 255.67 32.1422C256.041 31.83 256.421 31.4691 256.811 31.0594C257.221 30.6302 257.601 30.1913 257.952 29.7425C258.323 29.2938 258.665 28.8549 258.977 28.4257C259.289 27.9965 259.562 27.6356 259.796 27.3429C259.855 27.2844 259.913 27.2552 259.972 27.2552C260.05 27.2552 260.118 27.2844 260.177 27.3429C260.235 27.382 260.274 27.4405 260.294 27.5185C260.313 27.5771 260.294 27.6356 260.235 27.6941C259.845 28.1818 259.464 28.6793 259.094 29.1865C258.723 29.6938 258.352 30.1815 257.982 30.6497C257.611 31.1179 257.231 31.5471 256.84 31.9373C256.47 32.3275 256.089 32.6591 255.699 32.9323C255.036 33.4005 254.48 33.6541 254.031 33.6931C253.602 33.7126 253.241 33.5956 252.948 33.342C252.656 33.0883 252.422 32.7274 252.246 32.2592C252.09 31.791 251.963 31.3033 251.866 30.796C251.788 30.2693 251.729 29.7621 251.69 29.2743C251.671 28.7671 251.641 28.3477 251.602 28.016C251.563 27.6843 251.466 27.4893 251.31 27.4307C251.173 27.3722 251.017 27.3917 250.841 27.4893C250.373 27.8014 249.837 28.2794 249.232 28.9232C248.647 29.5475 248.052 30.2498 247.447 31.0301C246.862 31.8105 246.306 32.6104 245.779 33.4298C245.252 34.2296 244.842 34.9612 244.55 35.6245Z" fill="url(#paint13_linear_1802_97)"></path><path d="M265.814 21.2854C265.014 21.8512 264.234 22.6023 263.473 23.5387C262.712 24.4751 262.02 25.4798 261.395 26.5528C260.79 27.6063 260.283 28.6891 259.874 29.8011C259.464 30.8936 259.21 31.8983 259.113 32.8152C259.035 33.5175 259.064 34.1126 259.2 34.6003C259.318 35.0685 259.522 35.4392 259.815 35.7123C260.088 35.9854 260.42 36.1708 260.81 36.2683C261.22 36.3464 261.649 36.3366 262.098 36.2391C262.761 36.1025 263.444 35.8196 264.146 35.3904C264.848 34.9417 265.531 34.4345 266.194 33.8687C266.877 33.2834 267.521 32.6787 268.126 32.0544C268.731 31.4301 269.267 30.8643 269.735 30.3571C270.34 29.7328 270.867 29.1573 271.316 28.6305C271.784 28.1038 272.145 27.6746 272.398 27.3429C272.457 27.2844 272.515 27.2552 272.574 27.2552C272.652 27.2552 272.72 27.2844 272.779 27.3429C272.837 27.382 272.876 27.4405 272.896 27.5185C272.915 27.5771 272.896 27.6356 272.837 27.6941C272.486 28.1818 272.076 28.7086 271.608 29.2743C271.16 29.8206 270.682 30.3863 270.174 30.9716C269.862 31.3228 269.491 31.7227 269.062 32.1714C268.653 32.6201 268.194 33.0786 267.687 33.5468C267.199 34.015 266.672 34.4735 266.107 34.9222C265.56 35.3514 265.004 35.7416 264.439 36.0927C263.873 36.4244 263.307 36.6878 262.741 36.8828C262.176 37.0584 261.629 37.117 261.103 37.0584C260.166 36.9609 259.415 36.5902 258.849 35.9464C258.264 35.2831 257.952 34.3954 257.913 33.2834C257.874 32.2104 258.049 31.0594 258.44 29.8303C258.81 28.6013 259.337 27.4015 260.02 26.2309C260.703 25.0604 261.493 23.9776 262.39 22.9827C263.307 21.9682 264.273 21.1488 265.287 20.5245C265.58 20.388 265.873 20.3295 266.165 20.349C266.458 20.3685 266.702 20.4563 266.897 20.6123C267.111 20.7684 267.258 20.983 267.336 21.2561C267.433 21.5097 267.424 21.8121 267.307 22.1633C267.189 22.4364 267.014 22.7388 266.78 23.0705C266.565 23.4021 266.321 23.7338 266.048 24.0654C265.795 24.3776 265.541 24.6702 265.287 24.9433C265.034 25.197 264.819 25.392 264.644 25.5286C264.409 25.7237 264.224 25.8017 264.088 25.7627C263.97 25.7042 263.873 25.6066 263.795 25.4701C263.717 25.3335 263.668 25.197 263.649 25.0604C263.649 24.9043 263.649 24.8263 263.649 24.8263C263.883 24.6507 264.146 24.4263 264.439 24.1532C264.751 23.8801 265.043 23.5972 265.317 23.3046C265.609 23.0119 265.863 22.7388 266.077 22.4852C266.292 22.2121 266.429 22.0072 266.487 21.8707C266.624 21.578 266.604 21.3732 266.429 21.2561C266.253 21.1196 266.048 21.1293 265.814 21.2854Z" fill="black"></path><path d="M265.814 21.2854C265.014 21.8512 264.234 22.6023 263.473 23.5387C262.712 24.4751 262.02 25.4798 261.395 26.5528C260.79 27.6063 260.283 28.6891 259.874 29.8011C259.464 30.8936 259.21 31.8983 259.113 32.8152C259.035 33.5175 259.064 34.1126 259.2 34.6003C259.318 35.0685 259.522 35.4392 259.815 35.7123C260.088 35.9854 260.42 36.1708 260.81 36.2683C261.22 36.3464 261.649 36.3366 262.098 36.2391C262.761 36.1025 263.444 35.8196 264.146 35.3904C264.848 34.9417 265.531 34.4345 266.194 33.8687C266.877 33.2834 267.521 32.6787 268.126 32.0544C268.731 31.4301 269.267 30.8643 269.735 30.3571C270.34 29.7328 270.867 29.1573 271.316 28.6305C271.784 28.1038 272.145 27.6746 272.398 27.3429C272.457 27.2844 272.515 27.2552 272.574 27.2552C272.652 27.2552 272.72 27.2844 272.779 27.3429C272.837 27.382 272.876 27.4405 272.896 27.5185C272.915 27.5771 272.896 27.6356 272.837 27.6941C272.486 28.1818 272.076 28.7086 271.608 29.2743C271.16 29.8206 270.682 30.3863 270.174 30.9716C269.862 31.3228 269.491 31.7227 269.062 32.1714C268.653 32.6201 268.194 33.0786 267.687 33.5468C267.199 34.015 266.672 34.4735 266.107 34.9222C265.56 35.3514 265.004 35.7416 264.439 36.0927C263.873 36.4244 263.307 36.6878 262.741 36.8828C262.176 37.0584 261.629 37.117 261.103 37.0584C260.166 36.9609 259.415 36.5902 258.849 35.9464C258.264 35.2831 257.952 34.3954 257.913 33.2834C257.874 32.2104 258.049 31.0594 258.44 29.8303C258.81 28.6013 259.337 27.4015 260.02 26.2309C260.703 25.0604 261.493 23.9776 262.39 22.9827C263.307 21.9682 264.273 21.1488 265.287 20.5245C265.58 20.388 265.873 20.3295 266.165 20.349C266.458 20.3685 266.702 20.4563 266.897 20.6123C267.111 20.7684 267.258 20.983 267.336 21.2561C267.433 21.5097 267.424 21.8121 267.307 22.1633C267.189 22.4364 267.014 22.7388 266.78 23.0705C266.565 23.4021 266.321 23.7338 266.048 24.0654C265.795 24.3776 265.541 24.6702 265.287 24.9433C265.034 25.197 264.819 25.392 264.644 25.5286C264.409 25.7237 264.224 25.8017 264.088 25.7627C263.97 25.7042 263.873 25.6066 263.795 25.4701C263.717 25.3335 263.668 25.197 263.649 25.0604C263.649 24.9043 263.649 24.8263 263.649 24.8263C263.883 24.6507 264.146 24.4263 264.439 24.1532C264.751 23.8801 265.043 23.5972 265.317 23.3046C265.609 23.0119 265.863 22.7388 266.077 22.4852C266.292 22.2121 266.429 22.0072 266.487 21.8707C266.624 21.578 266.604 21.3732 266.429 21.2561C266.253 21.1196 266.048 21.1293 265.814 21.2854Z" fill="url(#paint14_linear_1802_97)"></path><path d="M277.658 24.0362C277.892 24.3678 277.97 24.758 277.892 25.2067C277.814 25.6554 277.629 26.1236 277.336 26.6114C277.063 27.0796 276.702 27.538 276.253 27.9867C275.805 28.4354 275.327 28.8451 274.819 29.2158C274.332 29.567 273.844 29.8498 273.356 30.0644C272.869 30.279 272.439 30.3863 272.069 30.3863C272.03 30.6985 272.02 31.0009 272.039 31.2935C272.059 31.5862 272.117 31.8593 272.215 32.1129C272.41 32.6787 272.693 33.0786 273.064 33.3127C273.454 33.5273 273.873 33.6346 274.322 33.6346C274.79 33.6151 275.268 33.5175 275.756 33.342C276.263 33.1664 276.751 32.942 277.219 32.6689C277.804 32.3568 278.399 31.9861 279.004 31.5569C279.609 31.1082 280.194 30.6497 280.76 30.1815C281.326 29.7133 281.862 29.2353 282.369 28.7476C282.877 28.2599 283.335 27.7917 283.745 27.3429C283.862 27.2064 283.989 27.1966 284.125 27.3137C284.281 27.4307 284.301 27.5575 284.184 27.6941C283.794 28.2599 283.247 28.8842 282.545 29.567C281.862 30.2303 281.121 30.8838 280.321 31.5276C279.521 32.1519 278.711 32.7177 277.892 33.2249C277.073 33.7126 276.341 34.054 275.697 34.2491C275.268 34.3662 274.839 34.4442 274.41 34.4832C274 34.5223 273.6 34.5027 273.21 34.4247C272.839 34.3272 272.498 34.1613 272.186 33.9272C271.854 33.6736 271.591 33.3225 271.396 32.8737C271.142 32.347 271.015 31.7422 271.015 31.0594C270.996 30.3766 271.093 29.6743 271.308 28.9524C271.503 28.2306 271.796 27.5185 272.186 26.8162C272.576 26.1139 273.054 25.4701 273.62 24.8848C274.029 24.4751 274.439 24.163 274.849 23.9484C275.258 23.7143 275.649 23.5679 276.019 23.5094C276.39 23.4509 276.712 23.4704 276.985 23.5679C277.278 23.6655 277.502 23.8216 277.658 24.0362ZM274.556 25.3238C274.049 25.792 273.571 26.426 273.122 27.2259C272.693 28.0062 272.381 28.8159 272.186 29.6548C272.556 29.6743 272.966 29.5767 273.415 29.3621C273.863 29.128 274.302 28.8451 274.732 28.5135C275.18 28.1818 275.59 27.8112 275.961 27.4015C276.351 26.9723 276.653 26.5626 276.868 26.1724C277.102 25.7822 277.229 25.4311 277.248 25.1189C277.268 24.8068 277.141 24.5824 276.868 24.4459C276.614 24.3288 276.273 24.3483 275.844 24.5044C275.434 24.6409 275.005 24.9141 274.556 25.3238Z" fill="black"></path><path d="M277.658 24.0362C277.892 24.3678 277.97 24.758 277.892 25.2067C277.814 25.6554 277.629 26.1236 277.336 26.6114C277.063 27.0796 276.702 27.538 276.253 27.9867C275.805 28.4354 275.327 28.8451 274.819 29.2158C274.332 29.567 273.844 29.8498 273.356 30.0644C272.869 30.279 272.439 30.3863 272.069 30.3863C272.03 30.6985 272.02 31.0009 272.039 31.2935C272.059 31.5862 272.117 31.8593 272.215 32.1129C272.41 32.6787 272.693 33.0786 273.064 33.3127C273.454 33.5273 273.873 33.6346 274.322 33.6346C274.79 33.6151 275.268 33.5175 275.756 33.342C276.263 33.1664 276.751 32.942 277.219 32.6689C277.804 32.3568 278.399 31.9861 279.004 31.5569C279.609 31.1082 280.194 30.6497 280.76 30.1815C281.326 29.7133 281.862 29.2353 282.369 28.7476C282.877 28.2599 283.335 27.7917 283.745 27.3429C283.862 27.2064 283.989 27.1966 284.125 27.3137C284.281 27.4307 284.301 27.5575 284.184 27.6941C283.794 28.2599 283.247 28.8842 282.545 29.567C281.862 30.2303 281.121 30.8838 280.321 31.5276C279.521 32.1519 278.711 32.7177 277.892 33.2249C277.073 33.7126 276.341 34.054 275.697 34.2491C275.268 34.3662 274.839 34.4442 274.41 34.4832C274 34.5223 273.6 34.5027 273.21 34.4247C272.839 34.3272 272.498 34.1613 272.186 33.9272C271.854 33.6736 271.591 33.3225 271.396 32.8737C271.142 32.347 271.015 31.7422 271.015 31.0594C270.996 30.3766 271.093 29.6743 271.308 28.9524C271.503 28.2306 271.796 27.5185 272.186 26.8162C272.576 26.1139 273.054 25.4701 273.62 24.8848C274.029 24.4751 274.439 24.163 274.849 23.9484C275.258 23.7143 275.649 23.5679 276.019 23.5094C276.39 23.4509 276.712 23.4704 276.985 23.5679C277.278 23.6655 277.502 23.8216 277.658 24.0362ZM274.556 25.3238C274.049 25.792 273.571 26.426 273.122 27.2259C272.693 28.0062 272.381 28.8159 272.186 29.6548C272.556 29.6743 272.966 29.5767 273.415 29.3621C273.863 29.128 274.302 28.8451 274.732 28.5135C275.18 28.1818 275.59 27.8112 275.961 27.4015C276.351 26.9723 276.653 26.5626 276.868 26.1724C277.102 25.7822 277.229 25.4311 277.248 25.1189C277.268 24.8068 277.141 24.5824 276.868 24.4459C276.614 24.3288 276.273 24.3483 275.844 24.5044C275.434 24.6409 275.005 24.9141 274.556 25.3238Z" fill="url(#paint15_linear_1802_97)"></path><path fill-rule="evenodd" clip-rule="evenodd" d="M139.221 30.641C139.221 28.4191 138.146 26.3387 136.272 24.9338L135.703 24.5095C135.578 24.416 135.39 24.4619 135.331 24.6004L135.067 25.2283C135.065 25.2314 135.031 25.3109 134.968 25.425C134.903 25.5421 134.809 25.6926 134.691 25.834C134.444 26.1301 134.15 26.3213 133.826 26.2318C133.679 26.1913 133.588 26.119 133.524 25.9922C133.434 25.8152 133.401 25.5473 133.44 25.2176C133.479 24.8913 133.587 24.5197 133.762 24.1463C134.29 23.0154 134.051 21.8354 133.107 20.7495C132.447 19.9911 131.657 19.5332 131.619 19.511L130.787 19.0335C130.626 18.9415 130.419 19.0496 130.423 19.2234L130.441 20.1254C130.441 20.1293 130.442 20.2375 130.423 20.4076C130.403 20.5817 130.362 20.8185 130.278 21.0737C130.109 21.5867 129.774 22.1532 129.111 22.4555C128.185 22.8773 127.515 23.5787 127.234 24.4336C126.972 25.233 127.082 26.1063 127.537 26.8305C127.703 27.0957 127.729 27.2826 127.682 27.407C127.647 27.5002 127.569 27.5787 127.478 27.6414C127.387 27.7033 127.296 27.7411 127.254 27.7563C126.832 27.9125 126.475 27.74 126.194 27.4812C125.915 27.2245 125.749 26.9144 125.736 26.8892L125.316 26.0639C125.235 25.9057 124.995 25.8937 124.897 26.0429L124.381 26.8221C123.622 27.9698 123.221 29.2904 123.221 30.641C123.221 34.669 126.757 37.9506 131.124 37.9988C131.156 37.9995 131.188 37.9999 131.221 37.9999C135.632 37.9999 139.221 34.6988 139.221 30.641ZM128.946 34.4907L128.946 34.4826C128.941 34.109 129.01 33.7068 129.154 33.2818L130.384 33.6123C130.534 33.6528 130.685 33.5506 130.688 33.4063L130.701 32.7663C130.72 31.8675 131.2 31.2709 131.662 30.9017C131.804 31.3737 132.004 31.8038 132.268 32.1999C132.61 32.7132 132.934 33.1481 133.231 33.5392C133.395 33.7558 133.498 34.0998 133.496 34.4879V34.4913C133.496 35.0503 133.259 35.5752 132.829 35.9708C132.4 36.3659 131.829 36.5832 131.221 36.5832C129.967 36.5831 128.946 35.6447 128.946 34.4907ZM134.493 32.7283C134.164 32.2942 133.883 31.9135 133.581 31.4601C133.258 30.9737 133.06 30.3959 132.981 29.687L132.911 29.0533C132.895 28.9102 132.736 28.8198 132.59 28.8707L131.943 29.0963C131.863 29.124 131.226 29.356 130.573 29.9007C129.927 30.4401 129.491 31.1007 129.289 31.8421L128.454 31.6175C128.339 31.5866 128.217 31.6389 128.169 31.7397L127.981 32.1336C127.592 32.9498 127.397 33.7446 127.406 34.4952C127.406 34.8621 127.469 35.2162 127.583 35.5491C125.88 34.4776 124.761 32.677 124.761 30.6409C124.761 29.9192 124.902 29.2086 125.175 28.5423C125.948 29.2198 126.895 29.4157 127.828 29.071C128.455 28.8396 128.936 28.4051 129.138 27.8694C129.283 27.483 129.342 26.8733 128.87 26.1218C128.624 25.729 128.566 25.2759 128.708 24.8435C128.862 24.3752 129.243 23.9759 129.794 23.725C130.956 23.1956 131.5 22.254 131.754 21.472C131.811 21.53 131.867 21.5907 131.921 21.6538C132.506 22.3363 132.631 22.9798 132.347 23.5869C131.833 24.6874 131.734 25.813 132.129 26.5914C132.379 27.0856 132.815 27.4319 133.384 27.5888C134.282 27.8368 135.152 27.5399 135.822 26.797C135.877 26.737 135.927 26.6766 135.975 26.6167C137.068 27.7071 137.681 29.1334 137.681 30.6409C137.681 32.6763 136.562 34.4762 134.86 35.5479C134.976 35.2107 135.036 34.8558 135.036 34.4926C135.039 33.8267 134.85 33.1991 134.493 32.7283Z" fill="black"></path><path fill-rule="evenodd" clip-rule="evenodd" d="M139.221 30.641C139.221 28.4191 138.146 26.3387 136.272 24.9338L135.703 24.5095C135.578 24.416 135.39 24.4619 135.331 24.6004L135.067 25.2283C135.065 25.2314 135.031 25.3109 134.968 25.425C134.903 25.5421 134.809 25.6926 134.691 25.834C134.444 26.1301 134.15 26.3213 133.826 26.2318C133.679 26.1913 133.588 26.119 133.524 25.9922C133.434 25.8152 133.401 25.5473 133.44 25.2176C133.479 24.8913 133.587 24.5197 133.762 24.1463C134.29 23.0154 134.051 21.8354 133.107 20.7495C132.447 19.9911 131.657 19.5332 131.619 19.511L130.787 19.0335C130.626 18.9415 130.419 19.0496 130.423 19.2234L130.441 20.1254C130.441 20.1293 130.442 20.2375 130.423 20.4076C130.403 20.5817 130.362 20.8185 130.278 21.0737C130.109 21.5867 129.774 22.1532 129.111 22.4555C128.185 22.8773 127.515 23.5787 127.234 24.4336C126.972 25.233 127.082 26.1063 127.537 26.8305C127.703 27.0957 127.729 27.2826 127.682 27.407C127.647 27.5002 127.569 27.5787 127.478 27.6414C127.387 27.7033 127.296 27.7411 127.254 27.7563C126.832 27.9125 126.475 27.74 126.194 27.4812C125.915 27.2245 125.749 26.9144 125.736 26.8892L125.316 26.0639C125.235 25.9057 124.995 25.8937 124.897 26.0429L124.381 26.8221C123.622 27.9698 123.221 29.2904 123.221 30.641C123.221 34.669 126.757 37.9506 131.124 37.9988C131.156 37.9995 131.188 37.9999 131.221 37.9999C135.632 37.9999 139.221 34.6988 139.221 30.641ZM128.946 34.4907L128.946 34.4826C128.941 34.109 129.01 33.7068 129.154 33.2818L130.384 33.6123C130.534 33.6528 130.685 33.5506 130.688 33.4063L130.701 32.7663C130.72 31.8675 131.2 31.2709 131.662 30.9017C131.804 31.3737 132.004 31.8038 132.268 32.1999C132.61 32.7132 132.934 33.1481 133.231 33.5392C133.395 33.7558 133.498 34.0998 133.496 34.4879V34.4913C133.496 35.0503 133.259 35.5752 132.829 35.9708C132.4 36.3659 131.829 36.5832 131.221 36.5832C129.967 36.5831 128.946 35.6447 128.946 34.4907ZM134.493 32.7283C134.164 32.2942 133.883 31.9135 133.581 31.4601C133.258 30.9737 133.06 30.3959 132.981 29.687L132.911 29.0533C132.895 28.9102 132.736 28.8198 132.59 28.8707L131.943 29.0963C131.863 29.124 131.226 29.356 130.573 29.9007C129.927 30.4401 129.491 31.1007 129.289 31.8421L128.454 31.6175C128.339 31.5866 128.217 31.6389 128.169 31.7397L127.981 32.1336C127.592 32.9498 127.397 33.7446 127.406 34.4952C127.406 34.8621 127.469 35.2162 127.583 35.5491C125.88 34.4776 124.761 32.677 124.761 30.6409C124.761 29.9192 124.902 29.2086 125.175 28.5423C125.948 29.2198 126.895 29.4157 127.828 29.071C128.455 28.8396 128.936 28.4051 129.138 27.8694C129.283 27.483 129.342 26.8733 128.87 26.1218C128.624 25.729 128.566 25.2759 128.708 24.8435C128.862 24.3752 129.243 23.9759 129.794 23.725C130.956 23.1956 131.5 22.254 131.754 21.472C131.811 21.53 131.867 21.5907 131.921 21.6538C132.506 22.3363 132.631 22.9798 132.347 23.5869C131.833 24.6874 131.734 25.813 132.129 26.5914C132.379 27.0856 132.815 27.4319 133.384 27.5888C134.282 27.8368 135.152 27.5399 135.822 26.797C135.877 26.737 135.927 26.6766 135.975 26.6167C137.068 27.7071 137.681 29.1334 137.681 30.6409C137.681 32.6763 136.562 34.4762 134.86 35.5479C134.976 35.2107 135.036 34.8558 135.036 34.4926C135.039 33.8267 134.85 33.1991 134.493 32.7283Z" fill="url(#paint16_linear_1802_97)"></path><defs><linearGradient id="paint0_linear_1802_97" x1="131.221" y1="19" x2="131.221" y2="38" gradientUnits="userSpaceOnUse"><stop stop-color="#CB9846"></stop><stop offset="0.25" stop-color="#DFB464"></stop><stop offset="0.5" stop-color="#FFEDB7"></stop><stop offset="0.75" stop-color="#EFCF88"></stop><stop offset="1" stop-color="#C89646"></stop></linearGradient><linearGradient id="paint1_linear_1802_97" x1="131.221" y1="19" x2="131.221" y2="38" gradientUnits="userSpaceOnUse"><stop stop-color="#CB9846"></stop><stop offset="0.25" stop-color="#DFB464"></stop><stop offset="0.5" stop-color="#FFEDB7"></stop><stop offset="0.75" stop-color="#EFCF88"></stop><stop offset="1" stop-color="#C89646"></stop></linearGradient><linearGradient id="paint2_linear_1802_97" x1="131.221" y1="19" x2="131.221" y2="38" gradientUnits="userSpaceOnUse"><stop stop-color="#CB9846"></stop><stop offset="0.25" stop-color="#DFB464"></stop><stop offset="0.5" stop-color="#FFEDB7"></stop><stop offset="0.75" stop-color="#EFCF88"></stop><stop offset="1" stop-color="#C89646"></stop></linearGradient><linearGradient id="paint3_linear_1802_97" x1="131.221" y1="19" x2="131.221" y2="38" gradientUnits="userSpaceOnUse"><stop stop-color="#CB9846"></stop><stop offset="0.25" stop-color="#DFB464"></stop><stop offset="0.5" stop-color="#FFEDB7"></stop><stop offset="0.75" stop-color="#EFCF88"></stop><stop offset="1" stop-color="#C89646"></stop></linearGradient><linearGradient id="paint4_linear_1802_97" x1="131.221" y1="19" x2="131.221" y2="38" gradientUnits="userSpaceOnUse"><stop stop-color="#CB9846"></stop><stop offset="0.25" stop-color="#DFB464"></stop><stop offset="0.5" stop-color="#FFEDB7"></stop><stop offset="0.75" stop-color="#EFCF88"></stop><stop offset="1" stop-color="#C89646"></stop></linearGradient><linearGradient id="paint5_linear_1802_97" x1="131.221" y1="19" x2="131.221" y2="38" gradientUnits="userSpaceOnUse"><stop stop-color="#CB9846"></stop><stop offset="0.25" stop-color="#DFB464"></stop><stop offset="0.5" stop-color="#FFEDB7"></stop><stop offset="0.75" stop-color="#EFCF88"></stop><stop offset="1" stop-color="#C89646"></stop></linearGradient><linearGradient id="paint6_linear_1802_97" x1="131.221" y1="19" x2="131.221" y2="38" gradientUnits="userSpaceOnUse"><stop stop-color="#CB9846"></stop><stop offset="0.25" stop-color="#DFB464"></stop><stop offset="0.5" stop-color="#FFEDB7"></stop><stop offset="0.75" stop-color="#EFCF88"></stop><stop offset="1" stop-color="#C89646"></stop></linearGradient><linearGradient id="paint7_linear_1802_97" x1="131.221" y1="19" x2="131.221" y2="38" gradientUnits="userSpaceOnUse"><stop stop-color="#CB9846"></stop><stop offset="0.25" stop-color="#DFB464"></stop><stop offset="0.5" stop-color="#FFEDB7"></stop><stop offset="0.75" stop-color="#EFCF88"></stop><stop offset="1" stop-color="#C89646"></stop></linearGradient><linearGradient id="paint8_linear_1802_97" x1="131.221" y1="19" x2="131.221" y2="38" gradientUnits="userSpaceOnUse"><stop stop-color="#CB9846"></stop><stop offset="0.25" stop-color="#DFB464"></stop><stop offset="0.5" stop-color="#FFEDB7"></stop><stop offset="0.75" stop-color="#EFCF88"></stop><stop offset="1" stop-color="#C89646"></stop></linearGradient><linearGradient id="paint9_linear_1802_97" x1="131.221" y1="19" x2="131.221" y2="38" gradientUnits="userSpaceOnUse"><stop stop-color="#CB9846"></stop><stop offset="0.25" stop-color="#DFB464"></stop><stop offset="0.5" stop-color="#FFEDB7"></stop><stop offset="0.75" stop-color="#EFCF88"></stop><stop offset="1" stop-color="#C89646"></stop></linearGradient><linearGradient id="paint10_linear_1802_97" x1="131.221" y1="19" x2="131.221" y2="38" gradientUnits="userSpaceOnUse"><stop stop-color="#CB9846"></stop><stop offset="0.25" stop-color="#DFB464"></stop><stop offset="0.5" stop-color="#FFEDB7"></stop><stop offset="0.75" stop-color="#EFCF88"></stop><stop offset="1" stop-color="#C89646"></stop></linearGradient><linearGradient id="paint11_linear_1802_97" x1="131.221" y1="19" x2="131.221" y2="38" gradientUnits="userSpaceOnUse"><stop stop-color="#CB9846"></stop><stop offset="0.25" stop-color="#DFB464"></stop><stop offset="0.5" stop-color="#FFEDB7"></stop><stop offset="0.75" stop-color="#EFCF88"></stop><stop offset="1" stop-color="#C89646"></stop></linearGradient><linearGradient id="paint12_linear_1802_97" x1="131.221" y1="19" x2="131.221" y2="38" gradientUnits="userSpaceOnUse"><stop stop-color="#CB9846"></stop><stop offset="0.25" stop-color="#DFB464"></stop><stop offset="0.5" stop-color="#FFEDB7"></stop><stop offset="0.75" stop-color="#EFCF88"></stop><stop offset="1" stop-color="#C89646"></stop></linearGradient><linearGradient id="paint13_linear_1802_97" x1="131.221" y1="19" x2="131.221" y2="38" gradientUnits="userSpaceOnUse"><stop stop-color="#CB9846"></stop><stop offset="0.25" stop-color="#DFB464"></stop><stop offset="0.5" stop-color="#FFEDB7"></stop><stop offset="0.75" stop-color="#EFCF88"></stop><stop offset="1" stop-color="#C89646"></stop></linearGradient><linearGradient id="paint14_linear_1802_97" x1="131.221" y1="19" x2="131.221" y2="38" gradientUnits="userSpaceOnUse"><stop stop-color="#CB9846"></stop><stop offset="0.25" stop-color="#DFB464"></stop><stop offset="0.5" stop-color="#FFEDB7"></stop><stop offset="0.75" stop-color="#EFCF88"></stop><stop offset="1" stop-color="#C89646"></stop></linearGradient><linearGradient id="paint15_linear_1802_97" x1="131.221" y1="19" x2="131.221" y2="38" gradientUnits="userSpaceOnUse"><stop stop-color="#CB9846"></stop><stop offset="0.25" stop-color="#DFB464"></stop><stop offset="0.5" stop-color="#FFEDB7"></stop><stop offset="0.75" stop-color="#EFCF88"></stop><stop offset="1" stop-color="#C89646"></stop></linearGradient><linearGradient id="paint16_linear_1802_97" x1="131.221" y1="19" x2="131.221" y2="38" gradientUnits="userSpaceOnUse"><stop stop-color="#CB9846"></stop><stop offset="0.25" stop-color="#DFB464"></stop><stop offset="0.5" stop-color="#FFEDB7"></stop><stop offset="0.75" stop-color="#EFCF88"></stop><stop offset="1" stop-color="#C89646"></stop></linearGradient></defs></svg>