<svg xmlns="http://www.w3.org/2000/svg" width="59" height="55" viewBox="0 0 59 55" fill="none"><path d="M53.3689 48.2181L26.9507 5.05405C26.8198 4.85095 23.7117 0.0206008 18.2727 0.0206003L0.811917 0.0205988C0.357937 -0.00589309 0.0698437 0.0205987 0.0174613 0.0205987L0.148412 3.44688L0.803191 3.44688C1.9556 3.51752 4.70568 3.98554 6.47795 6.87315L33.2104 50.4876L33.2279 50.5229C33.3501 50.7083 36.1875 55 41.7837 55L58.8429 55L59 51.5737C59 51.5737 55.1237 51.1499 53.3602 48.2093L53.3689 48.2181ZM36.074 48.6596L9.35898 5.06288C8.98358 4.45357 8.58198 3.92373 8.16292 3.44688L9.58597 3.44688C9.72565 3.44688 13.1043 3.3674 15.0512 6.53759L41.3297 49.4102C41.4868 49.7105 41.9845 50.5935 42.8924 51.5649L41.7749 51.5649C38.1169 51.5649 36.2049 48.8539 36.0653 48.6508L36.074 48.6596ZM50.9855 51.5737C46.2536 51.5649 44.4202 47.9708 44.3504 47.8295L44.3155 47.7501L17.9497 4.74498C17.6616 4.26813 17.3473 3.84426 17.0243 3.46454L18.2814 3.46454C21.7561 3.46454 23.9824 6.72304 24.1046 6.90848L37.2962 28.464L50.4879 50.0195C50.8371 50.6023 51.2387 51.1234 51.6665 51.5825L51.003 51.5825L50.9855 51.5737Z" fill="black"></path><path d="M53.3689 48.2181L26.9507 5.05405C26.8198 4.85095 23.7117 0.0206008 18.2727 0.0206003L0.811917 0.0205988C0.357937 -0.00589309 0.0698437 0.0205987 0.0174613 0.0205987L0.148412 3.44688L0.803191 3.44688C1.9556 3.51752 4.70568 3.98554 6.47795 6.87315L33.2104 50.4876L33.2279 50.5229C33.3501 50.7083 36.1875 55 41.7837 55L58.8429 55L59 51.5737C59 51.5737 55.1237 51.1499 53.3602 48.2093L53.3689 48.2181ZM36.074 48.6596L9.35898 5.06288C8.98358 4.45357 8.58198 3.92373 8.16292 3.44688L9.58597 3.44688C9.72565 3.44688 13.1043 3.3674 15.0512 6.53759L41.3297 49.4102C41.4868 49.7105 41.9845 50.5935 42.8924 51.5649L41.7749 51.5649C38.1169 51.5649 36.2049 48.8539 36.0653 48.6508L36.074 48.6596ZM50.9855 51.5737C46.2536 51.5649 44.4202 47.9708 44.3504 47.8295L44.3155 47.7501L17.9497 4.74498C17.6616 4.26813 17.3473 3.84426 17.0243 3.46454L18.2814 3.46454C21.7561 3.46454 23.9824 6.72304 24.1046 6.90848L37.2962 28.464L50.4879 50.0195C50.8371 50.6023 51.2387 51.1234 51.6665 51.5825L51.003 51.5825L50.9855 51.5737Z" fill="url(#paint0_linear_1362_81)"></path><path d="M58.1968 0.00294863L40.736 0.0029471C35.297 0.00294663 32.189 4.83329 32.0406 5.06289L5.62237 48.2181C3.86756 51.141 0.0261867 51.5649 -4.50795e-06 51.5649L0.157136 54.9912L17.2163 54.9912C22.8213 54.9912 25.6586 50.6907 25.7721 50.514L52.5221 6.86433C54.2943 3.97672 57.0531 3.5087 58.1968 3.43806L58.8429 3.43806L58.9738 0.0117793C58.9214 0.0117793 58.6333 -0.0147126 58.1881 0.0117792L58.1968 0.00294863ZM8.52086 50.0107L34.9128 6.88199C35.0351 6.70538 37.2526 3.42922 40.736 3.42922L41.9932 3.42922C41.6702 3.81777 41.3559 4.24164 41.0591 4.71849L14.7369 47.6529L14.6671 47.7589L14.6147 47.8914C14.5536 48.0415 12.9646 51.5561 8.00577 51.5561L7.34226 51.5561C7.76132 51.1145 8.16292 50.6024 8.51213 50.0195L8.52086 50.0107ZM49.641 5.06289L22.926 48.6508C22.7514 48.898 20.8394 51.5737 17.2076 51.5737L16.1862 51.5737C17.0505 50.6112 17.5132 49.737 17.6703 49.3837L43.9314 6.54643C45.8782 3.36741 49.2569 3.44689 49.3966 3.45572L50.8284 3.45572C50.4093 3.91491 49.999 4.45358 49.6323 5.06289L49.641 5.06289Z" fill="black"></path><path d="M58.1968 0.00294863L40.736 0.0029471C35.297 0.00294663 32.189 4.83329 32.0406 5.06289L5.62237 48.2181C3.86756 51.141 0.0261867 51.5649 -4.50795e-06 51.5649L0.157136 54.9912L17.2163 54.9912C22.8213 54.9912 25.6586 50.6907 25.7721 50.514L52.5221 6.86433C54.2943 3.97672 57.0531 3.5087 58.1968 3.43806L58.8429 3.43806L58.9738 0.0117793C58.9214 0.0117793 58.6333 -0.0147126 58.1881 0.0117792L58.1968 0.00294863ZM8.52086 50.0107L34.9128 6.88199C35.0351 6.70538 37.2526 3.42922 40.736 3.42922L41.9932 3.42922C41.6702 3.81777 41.3559 4.24164 41.0591 4.71849L14.7369 47.6529L14.6671 47.7589L14.6147 47.8914C14.5536 48.0415 12.9646 51.5561 8.00577 51.5561L7.34226 51.5561C7.76132 51.1145 8.16292 50.6024 8.51213 50.0195L8.52086 50.0107ZM49.641 5.06289L22.926 48.6508C22.7514 48.898 20.8394 51.5737 17.2076 51.5737L16.1862 51.5737C17.0505 50.6112 17.5132 49.737 17.6703 49.3837L43.9314 6.54643C45.8782 3.36741 49.2569 3.44689 49.3966 3.45572L50.8284 3.45572C50.4093 3.91491 49.999 4.45358 49.6323 5.06289L49.641 5.06289Z" fill="url(#paint1_linear_1362_81)"></path><defs><linearGradient id="paint0_linear_1362_81" x1="29.5" y1="2.57897e-06" x2="29.5" y2="55" gradientUnits="userSpaceOnUse"><stop stop-color="#CB9846"></stop><stop offset="0.25" stop-color="#DFB464"></stop><stop offset="0.5" stop-color="#FFEDB7"></stop><stop offset="0.75" stop-color="#EFCF88"></stop><stop offset="1" stop-color="#C89646"></stop></linearGradient><linearGradient id="paint1_linear_1362_81" x1="29.5" y1="2.57897e-06" x2="29.5" y2="55" gradientUnits="userSpaceOnUse"><stop stop-color="#CB9846"></stop><stop offset="0.25" stop-color="#DFB464"></stop><stop offset="0.5" stop-color="#FFEDB7"></stop><stop offset="0.75" stop-color="#EFCF88"></stop><stop offset="1" stop-color="#C89646"></stop></linearGradient></defs></svg>