<svg xmlns="http://www.w3.org/2000/svg" width="155" height="39" viewBox="0 0 155 39" fill="none"><path opacity="0.7" fill-rule="evenodd" clip-rule="evenodd" d="M94.1498 11.2539C91.9227 11.2212 89.7257 11.7704 87.776 12.8474C87.776 7.20204 87.776 2.08024 87.9581 0.304688L76.1211 2.42169V3.49158L77.3503 3.67369C78.9438 4.01514 79.4673 4.90292 79.8316 7.01992C80.1958 11.2539 80.0137 33.9036 79.8316 37.6141C83.078 38.3813 86.3982 38.7935 89.7337 38.8433C99.0895 38.8433 104.758 33.0159 104.758 23.8194C104.758 16.5578 100.205 11.2539 94.1498 11.2539V11.2539ZM90.0755 36.9087C89.3648 36.9456 88.6524 36.8843 87.9585 36.7265C87.7764 34.2453 87.617 23.8196 87.7764 14.6232C88.629 14.3022 89.5291 14.1253 90.4397 14.0996C94.3323 14.0996 96.4493 18.6523 96.4493 24.3432C96.4493 31.4226 93.7859 36.9087 90.0755 36.9087ZM31.5728 1.00977L31.7549 11.4355L30.0477 11.9818C28.2721 6.67789 25.8136 3.6731 20.9422 3.6731H14.7733C14.5912 7.01934 14.4319 12.7785 14.4319 18.697L18.6659 18.5149C21.3065 18.5149 22.5585 16.3979 23.082 13.3931H24.6755V25.9358H23.082C22.5585 22.931 21.3065 20.7913 18.6659 20.7913L14.4319 20.6319C14.4319 25.1846 14.5912 28.9406 14.7733 31.2397C15.1375 34.6087 16.0026 36.2022 18.3017 36.3615L20.4414 36.7257V38.1371H0.455078V36.7257L2.23063 36.3615C4.50698 36.2022 5.39476 34.6087 5.75898 31.2397C6.20322 23.4685 6.2032 15.6783 5.75898 7.90712C5.39476 4.53811 4.52975 3.12678 2.23063 2.78532L0.455078 2.58045V1.00977L31.5728 1.00977ZM41.6352 10.9117C50.4902 10.9117 54.9063 16.9213 54.9063 24.8657C55.1226 28.6027 53.7453 32.2564 51.1158 34.9205C48.4864 37.5847 44.8511 39.0099 41.1116 38.8425C32.3249 38.8425 27.7722 32.833 27.7722 24.8657C27.5558 21.1348 28.9307 17.4869 31.5559 14.827C34.1811 12.1671 37.8106 10.7443 41.5441 10.9117L41.6352 10.9117ZM41.1116 12.6887C37.219 12.6887 36.1719 17.9926 36.1719 24.8671C36.1719 31.7417 37.9247 37.0684 41.4758 37.0684C45.5277 37.0684 46.5976 31.7645 46.5976 24.8671C46.5976 17.9698 44.822 12.6887 41.1116 12.6887ZM107.125 25.0484C107.125 17.8096 111.678 10.9122 120.783 10.9122C128.204 10.9122 131.732 16.3982 131.732 23.637H115.183C115.001 30.1702 118.188 35.0188 124.562 35.0188C126.732 35.1112 128.863 34.4249 130.572 33.0839L131.277 33.9717C128.693 37.1668 124.778 38.9897 120.669 38.9114C116.978 39.0634 113.394 37.6542 110.795 35.0292C108.196 32.4041 106.822 28.8059 107.011 25.1167L107.125 25.0484ZM115.184 21.7028L123.492 21.5207C123.492 17.9924 122.969 12.6885 119.964 12.6885C116.959 12.6885 115.411 17.6282 115.184 21.7939L115.184 21.7028ZM152.673 12.3232L152.833 19.1522L151.603 19.4937C150.01 14.7361 147.893 12.6646 144.774 12.6646C143.754 12.65 142.773 13.0616 142.069 13.8005C141.365 14.5393 141 15.5384 141.064 16.5572C141.064 18.8336 142.839 20.1083 147.779 22.0432C152.719 23.9781 154.312 25.9358 154.312 29.6462C154.312 35.1322 149.896 38.7516 142.93 38.7516C139.744 38.7612 136.579 38.2222 133.575 37.1582L133.393 29.3731L134.622 29.0316C136.579 34.3355 139.175 36.2704 142.407 36.2704C143.54 36.3588 144.659 35.9728 145.496 35.2045C146.333 34.4363 146.814 33.3548 146.823 32.2185C146.823 30.0787 145.594 28.8495 141.178 27.2561C136.762 25.6626 133.916 23.9098 133.916 19.3116C133.916 14.7134 137.991 10.8208 144.524 10.8208C147.306 10.7648 150.072 11.244 152.673 12.2321V12.3232ZM77.8513 11.687L75.0514 18.8575C71.5231 16.5812 67.6305 17.6283 66.7427 18.8575C66.5469 23.6377 66.6076 28.4249 66.9249 33.1986C67.107 35.3156 67.6305 36.3627 69.4061 36.5448L71.5231 36.7269V38.1382H55.0878V36.7269L56.3171 36.5448C57.9105 36.3627 58.5934 35.3156 58.7983 33.1986C59.0602 28.0725 59.0602 22.9365 58.7983 17.8104C58.6162 15.5341 57.9105 14.6235 56.3171 14.4414L55.0878 14.2821V13.2122L66.9249 10.9358L66.7427 17.1275C69.5882 10.731 74.8921 9.84319 77.8513 11.687Z" fill="white"></path></svg>