<svg xmlns="http://www.w3.org/2000/svg" width="77" height="9" viewBox="0 0 77 9" fill="none"><path d="M0.110741 0.82373H5.11562V1.8377H1.19044V4.33882H4.84569V5.35279H1.19044V8.80029H0.110741V0.82373Z" fill="black"></path><path d="M0.110741 0.82373H5.11562V1.8377H1.19044V4.33882H4.84569V5.35279H1.19044V8.80029H0.110741V0.82373Z" fill="url(#paint0_linear_3196_1589)"></path><path d="M22.4499 0.82373H25.2504C25.7603 0.82373 26.1801 0.895084 26.5101 1.03779C26.84 1.17299 27.0986 1.34949 27.2861 1.56731C27.481 1.77761 27.616 2.01796 27.691 2.28835C27.766 2.55123 27.8035 2.8066 27.8035 3.05446C27.8035 3.30983 27.7585 3.55769 27.6685 3.79804C27.5785 4.03088 27.4473 4.24494 27.2748 4.44022C27.1099 4.62799 26.9037 4.78948 26.6563 4.92467C26.4163 5.05236 26.1464 5.13122 25.8465 5.16127L28.1071 8.80029H26.7575L24.733 5.2852H23.5296V8.80029H22.4499V0.82373ZM23.5296 4.33882H24.9467C25.1567 4.33882 25.3629 4.3238 25.5653 4.29376C25.7753 4.25621 25.959 4.19236 26.1164 4.10223C26.2814 4.0121 26.4126 3.88442 26.5101 3.71918C26.6075 3.54643 26.6563 3.32485 26.6563 3.05446C26.6563 2.78407 26.6075 2.56626 26.5101 2.40102C26.4126 2.22827 26.2814 2.09683 26.1164 2.00669C25.959 1.91656 25.7753 1.85648 25.5653 1.82643C25.3629 1.78888 25.1567 1.7701 24.9467 1.7701H23.5296V4.33882Z" fill="black"></path><path d="M22.4499 0.82373H25.2504C25.7603 0.82373 26.1801 0.895084 26.5101 1.03779C26.84 1.17299 27.0986 1.34949 27.2861 1.56731C27.481 1.77761 27.616 2.01796 27.691 2.28835C27.766 2.55123 27.8035 2.8066 27.8035 3.05446C27.8035 3.30983 27.7585 3.55769 27.6685 3.79804C27.5785 4.03088 27.4473 4.24494 27.2748 4.44022C27.1099 4.62799 26.9037 4.78948 26.6563 4.92467C26.4163 5.05236 26.1464 5.13122 25.8465 5.16127L28.1071 8.80029H26.7575L24.733 5.2852H23.5296V8.80029H22.4499V0.82373ZM23.5296 4.33882H24.9467C25.1567 4.33882 25.3629 4.3238 25.5653 4.29376C25.7753 4.25621 25.959 4.19236 26.1164 4.10223C26.2814 4.0121 26.4126 3.88442 26.5101 3.71918C26.6075 3.54643 26.6563 3.32485 26.6563 3.05446C26.6563 2.78407 26.6075 2.56626 26.5101 2.40102C26.4126 2.22827 26.2814 2.09683 26.1164 2.00669C25.959 1.91656 25.7753 1.85648 25.5653 1.82643C25.3629 1.78888 25.1567 1.7701 24.9467 1.7701H23.5296V4.33882Z" fill="url(#paint1_linear_3196_1589)"></path><path d="M31.5749 0.82373H32.6995L34.4541 7.20047H34.4766L36.3548 0.82373H37.592L39.4702 7.20047H39.4927L41.2472 0.82373H42.3719L40.055 8.80029H38.9191L36.9846 2.28835H36.9621L35.0389 8.80029H33.903L31.5749 0.82373Z" fill="black"></path><path d="M31.5749 0.82373H32.6995L34.4541 7.20047H34.4766L36.3548 0.82373H37.592L39.4702 7.20047H39.4927L41.2472 0.82373H42.3719L40.055 8.80029H38.9191L36.9846 2.28835H36.9621L35.0389 8.80029H33.903L31.5749 0.82373Z" fill="url(#paint2_linear_3196_1589)"></path><path d="M59.2866 0.82373H62.0871C62.597 0.82373 63.0169 0.895084 63.3468 1.03779C63.6767 1.17299 63.9354 1.34949 64.1228 1.56731C64.3177 1.77761 64.4527 2.01796 64.5277 2.28835C64.6027 2.55123 64.6402 2.8066 64.6402 3.05446C64.6402 3.30983 64.5952 3.55769 64.5052 3.79804C64.4152 4.03088 64.284 4.24494 64.1116 4.44022C63.9466 4.62799 63.7404 4.78948 63.493 4.92467C63.253 5.05236 62.9831 5.13122 62.6832 5.16127L64.9438 8.80029H63.5942L61.5698 5.2852H60.3663V8.80029H59.2866V0.82373ZM60.3663 4.33882H61.7834C61.9934 4.33882 62.1996 4.3238 62.402 4.29376C62.612 4.25621 62.7957 4.19236 62.9531 4.10223C63.1181 4.0121 63.2493 3.88442 63.3468 3.71918C63.4442 3.54643 63.493 3.32485 63.493 3.05446C63.493 2.78407 63.4442 2.56626 63.3468 2.40102C63.2493 2.22827 63.1181 2.09683 62.9531 2.00669C62.7957 1.91656 62.612 1.85648 62.402 1.82643C62.1996 1.78888 61.9934 1.7701 61.7834 1.7701H60.3663V4.33882Z" fill="black"></path><path d="M59.2866 0.82373H62.0871C62.597 0.82373 63.0169 0.895084 63.3468 1.03779C63.6767 1.17299 63.9354 1.34949 64.1228 1.56731C64.3177 1.77761 64.4527 2.01796 64.5277 2.28835C64.6027 2.55123 64.6402 2.8066 64.6402 3.05446C64.6402 3.30983 64.5952 3.55769 64.5052 3.79804C64.4152 4.03088 64.284 4.24494 64.1116 4.44022C63.9466 4.62799 63.7404 4.78948 63.493 4.92467C63.253 5.05236 62.9831 5.13122 62.6832 5.16127L64.9438 8.80029H63.5942L61.5698 5.2852H60.3663V8.80029H59.2866V0.82373ZM60.3663 4.33882H61.7834C61.9934 4.33882 62.1996 4.3238 62.402 4.29376C62.612 4.25621 62.7957 4.19236 62.9531 4.10223C63.1181 4.0121 63.2493 3.88442 63.3468 3.71918C63.4442 3.54643 63.493 3.32485 63.493 3.05446C63.493 2.78407 63.4442 2.56626 63.3468 2.40102C63.2493 2.22827 63.1181 2.09683 62.9531 2.00669C62.7957 1.91656 62.612 1.85648 62.402 1.82643C62.1996 1.78888 61.9934 1.7701 61.7834 1.7701H60.3663V4.33882Z" fill="url(#paint3_linear_3196_1589)"></path><path d="M69.2438 0.82373H72.0218C72.5842 0.82373 73.0753 0.887573 73.4952 1.01526C73.9226 1.14294 74.29 1.31569 74.5974 1.53351C74.9123 1.74381 75.171 1.98792 75.3734 2.26582C75.5834 2.54372 75.7483 2.82914 75.8683 3.12206C75.9882 3.41499 76.0745 3.70791 76.127 4.00084C76.1794 4.29376 76.2057 4.56415 76.2057 4.81201C76.2057 5.32275 76.112 5.81847 75.9245 6.29917C75.7371 6.77235 75.4596 7.19672 75.0922 7.57226C74.7248 7.9403 74.2675 8.23698 73.7201 8.4623C73.1803 8.68763 72.5542 8.80029 71.8419 8.80029H69.2438V0.82373ZM70.3235 7.78632H71.6844C72.1418 7.78632 72.5729 7.72623 72.9778 7.60606C73.3902 7.47838 73.7501 7.2906 74.0575 7.04275C74.3649 6.79489 74.6086 6.48694 74.7886 6.11891C74.9685 5.74336 75.0585 5.30773 75.0585 4.81201C75.0585 4.55664 75.0173 4.25996 74.9348 3.92197C74.8523 3.57647 74.6948 3.24975 74.4624 2.9418C74.2375 2.63385 73.9226 2.37473 73.5177 2.16442C73.1128 1.94661 72.5879 1.8377 71.9431 1.8377H70.3235V7.78632Z" fill="black"></path><path d="M69.2438 0.82373H72.0218C72.5842 0.82373 73.0753 0.887573 73.4952 1.01526C73.9226 1.14294 74.29 1.31569 74.5974 1.53351C74.9123 1.74381 75.171 1.98792 75.3734 2.26582C75.5834 2.54372 75.7483 2.82914 75.8683 3.12206C75.9882 3.41499 76.0745 3.70791 76.127 4.00084C76.1794 4.29376 76.2057 4.56415 76.2057 4.81201C76.2057 5.32275 76.112 5.81847 75.9245 6.29917C75.7371 6.77235 75.4596 7.19672 75.0922 7.57226C74.7248 7.9403 74.2675 8.23698 73.7201 8.4623C73.1803 8.68763 72.5542 8.80029 71.8419 8.80029H69.2438V0.82373ZM70.3235 7.78632H71.6844C72.1418 7.78632 72.5729 7.72623 72.9778 7.60606C73.3902 7.47838 73.7501 7.2906 74.0575 7.04275C74.3649 6.79489 74.6086 6.48694 74.7886 6.11891C74.9685 5.74336 75.0585 5.30773 75.0585 4.81201C75.0585 4.55664 75.0173 4.25996 74.9348 3.92197C74.8523 3.57647 74.6948 3.24975 74.4624 2.9418C74.2375 2.63385 73.9226 2.37473 73.5177 2.16442C73.1128 1.94661 72.5879 1.8377 71.9431 1.8377H70.3235V7.78632Z" fill="url(#paint4_linear_3196_1589)"></path><path d="M14.0725 8.93717C11.839 8.93717 10.0219 7.10959 10.0219 4.86356C10.0219 2.61752 11.839 0.789551 14.0725 0.789551C16.306 0.789551 18.1231 2.61713 18.1231 4.86356C18.1231 7.10999 16.306 8.93756 14.0725 8.93756V8.93717ZM14.0725 1.18173C12.0538 1.18173 10.4118 2.83322 10.4118 4.86356C10.4118 6.89389 12.0538 8.54538 14.0725 8.54538C16.0912 8.54538 17.7331 6.89389 17.7331 4.86356C17.7331 2.83322 16.0908 1.18173 14.0725 1.18173Z" fill="black"></path><path d="M14.0725 8.93717C11.839 8.93717 10.0219 7.10959 10.0219 4.86356C10.0219 2.61752 11.839 0.789551 14.0725 0.789551C16.306 0.789551 18.1231 2.61713 18.1231 4.86356C18.1231 7.10999 16.306 8.93756 14.0725 8.93756V8.93717ZM14.0725 1.18173C12.0538 1.18173 10.4118 2.83322 10.4118 4.86356C10.4118 6.89389 12.0538 8.54538 14.0725 8.54538C16.0912 8.54538 17.7331 6.89389 17.7331 4.86356C17.7331 2.83322 16.0908 1.18173 14.0725 1.18173Z" fill="url(#paint5_linear_3196_1589)"></path><path d="M13.5511 7.25102L15.562 6.0105L15.6737 5.94182L15.9967 5.7429L16.1084 5.67422L16.2736 5.572L16.0002 5.40346L15.9507 5.37228L15.7855 5.47372L15.6737 5.54279H15.6725L15.3512 5.74171H15.3504L15.2387 5.81078L13.3732 6.96132C13.3181 6.99447 13.267 7.03355 13.2194 7.07775L13.2206 7.01144L13.2198 6.19403V6.09181C13.2206 5.86644 13.328 5.65488 13.5091 5.52068L13.5495 5.48871L14.5013 4.92983C14.5595 4.89667 14.5595 4.81852 14.5013 4.78497L13.6018 4.2624L13.5087 4.20596C13.3276 4.07137 13.2206 3.85981 13.2198 3.63484V3.52274C13.284 3.58431 13.3557 3.63681 13.4338 3.67944L14.8503 4.57263L15.1733 4.37331L13.5994 3.38263L13.5911 3.37868C13.5768 3.37157 13.2202 3.18804 13.2202 2.7148H13.2194V2.64849C13.2666 2.6931 13.3189 2.73217 13.3744 2.76611L16.0141 4.41475L13.7488 5.84749L13.7433 6.25245L16.5348 4.4929C16.593 4.45738 16.593 4.37331 16.5348 4.33739L13.5523 2.47759C13.2606 2.30156 13.219 1.91752 13.2186 1.91357L12.8791 1.92976V3.63523C12.8791 4.1953 13.3054 4.47909 13.3236 4.49093L13.4809 4.5675L13.9802 4.85799L13.4873 5.14888L13.3236 5.23729C13.3054 5.24914 12.8791 5.53253 12.8791 6.09299V7.79847L13.2186 7.81386C13.219 7.81031 13.2606 7.42666 13.5511 7.25142V7.25102Z" fill="black"></path><path d="M13.5511 7.25102L15.562 6.0105L15.6737 5.94182L15.9967 5.7429L16.1084 5.67422L16.2736 5.572L16.0002 5.40346L15.9507 5.37228L15.7855 5.47372L15.6737 5.54279H15.6725L15.3512 5.74171H15.3504L15.2387 5.81078L13.3732 6.96132C13.3181 6.99447 13.267 7.03355 13.2194 7.07775L13.2206 7.01144L13.2198 6.19403V6.09181C13.2206 5.86644 13.328 5.65488 13.5091 5.52068L13.5495 5.48871L14.5013 4.92983C14.5595 4.89667 14.5595 4.81852 14.5013 4.78497L13.6018 4.2624L13.5087 4.20596C13.3276 4.07137 13.2206 3.85981 13.2198 3.63484V3.52274C13.284 3.58431 13.3557 3.63681 13.4338 3.67944L14.8503 4.57263L15.1733 4.37331L13.5994 3.38263L13.5911 3.37868C13.5768 3.37157 13.2202 3.18804 13.2202 2.7148H13.2194V2.64849C13.2666 2.6931 13.3189 2.73217 13.3744 2.76611L16.0141 4.41475L13.7488 5.84749L13.7433 6.25245L16.5348 4.4929C16.593 4.45738 16.593 4.37331 16.5348 4.33739L13.5523 2.47759C13.2606 2.30156 13.219 1.91752 13.2186 1.91357L12.8791 1.92976V3.63523C12.8791 4.1953 13.3054 4.47909 13.3236 4.49093L13.4809 4.5675L13.9802 4.85799L13.4873 5.14888L13.3236 5.23729C13.3054 5.24914 12.8791 5.53253 12.8791 6.09299V7.79847L13.2186 7.81386C13.219 7.81031 13.2606 7.42666 13.5511 7.25142V7.25102Z" fill="url(#paint6_linear_3196_1589)"></path><path d="M50.7129 8.93717C48.4676 8.93717 46.641 7.10959 46.641 4.86316C46.641 2.61674 48.468 0.789551 50.7129 0.789551C52.9578 0.789551 54.7848 2.61713 54.7848 4.86356C54.7848 7.10999 52.9582 8.93756 50.7129 8.93756V8.93717ZM50.7129 1.18173C48.684 1.18173 47.033 2.83322 47.033 4.86356C47.033 6.89389 48.6836 8.54538 50.7129 8.54538C52.7422 8.54538 54.3928 6.89389 54.3928 4.86356C54.3928 2.83322 52.7422 1.18173 50.7129 1.18173Z" fill="black"></path><path d="M50.7129 8.93717C48.4676 8.93717 46.641 7.10959 46.641 4.86316C46.641 2.61674 48.468 0.789551 50.7129 0.789551C52.9578 0.789551 54.7848 2.61713 54.7848 4.86356C54.7848 7.10999 52.9582 8.93756 50.7129 8.93756V8.93717ZM50.7129 1.18173C48.684 1.18173 47.033 2.83322 47.033 4.86356C47.033 6.89389 48.6836 8.54538 50.7129 8.54538C52.7422 8.54538 54.3928 6.89389 54.3928 4.86356C54.3928 2.83322 52.7422 1.18173 50.7129 1.18173Z" fill="url(#paint7_linear_3196_1589)"></path><path d="M49.9775 4.58295L49.8191 4.49157C49.8011 4.47981 49.3848 4.20136 49.3848 3.65191L49.3832 1.911L49.7199 1.89453C49.7199 1.89885 49.7615 2.28515 50.0508 2.46241L52.5837 4.04919L52.6751 4.10645L52.7468 4.15155L52.8573 4.22097L53.1772 4.42137L53.2881 4.49079L53.3806 4.54883L53.4528 4.59432L53.5625 4.66335H53.5633L53.7589 4.7861C53.8165 4.82218 53.8165 4.9065 53.7589 4.94258L53.5633 5.06495L53.4528 5.13436L53.2877 5.23751C53.3497 5.243 50.0488 7.26666 50.0488 7.26666C49.7611 7.44276 49.7199 7.82906 49.7195 7.83259L49.3828 7.81729V6.1007C49.3828 5.53674 49.8054 5.25123 49.8234 5.23947L50.3114 4.93356L50.4216 4.86415L50.4757 4.83003L50.8461 4.6006L51.1722 4.79473L51.0617 4.86415L50.7418 5.06455L50.6313 5.13397L50.0072 5.52537C49.8277 5.66067 49.7211 5.87324 49.7203 6.10031V6.20306C49.7846 6.14306 49.8567 6.09286 49.9355 6.05325L51.0648 5.34653L51.8296 4.86062L51.7226 4.79316L51.721 4.79395L51.6524 4.75081L51.5579 4.69119L51.4474 4.62178L51.1271 4.42098H51.1267L51.0166 4.35156L50.9476 4.30842L50.1009 3.7825L50.097 3.37306L51.3364 4.15076L51.447 4.22018L51.5211 4.26646L52.3454 4.78297C52.403 4.81865 52.403 4.90219 52.3454 4.93749L51.0609 5.75087V5.74852L50.1045 6.34856L50.0943 6.35523L50.0817 6.36033C50.0668 6.367 49.7215 6.52622 49.7215 7.02508H49.7203V7.09175C49.767 7.04743 49.8179 7.00822 49.8724 6.97449L52.9675 5.03592L53.1321 4.93278L53.2426 4.86336L53.1321 4.79395L53.0851 4.76453L52.9671 4.6908L52.8562 4.62139L52.5363 4.42098L52.4712 4.3798L52.4262 4.35156L52.2627 4.2492L49.874 2.75302C49.8187 2.7189 49.7674 2.67929 49.7207 2.63458L49.7195 3.65112C49.7195 4.03978 50.0139 4.23665 50.0268 4.24489L49.9775 4.58217V4.58295Z" fill="black"></path><path d="M49.9775 4.58295L49.8191 4.49157C49.8011 4.47981 49.3848 4.20136 49.3848 3.65191L49.3832 1.911L49.7199 1.89453C49.7199 1.89885 49.7615 2.28515 50.0508 2.46241L52.5837 4.04919L52.6751 4.10645L52.7468 4.15155L52.8573 4.22097L53.1772 4.42137L53.2881 4.49079L53.3806 4.54883L53.4528 4.59432L53.5625 4.66335H53.5633L53.7589 4.7861C53.8165 4.82218 53.8165 4.9065 53.7589 4.94258L53.5633 5.06495L53.4528 5.13436L53.2877 5.23751C53.3497 5.243 50.0488 7.26666 50.0488 7.26666C49.7611 7.44276 49.7199 7.82906 49.7195 7.83259L49.3828 7.81729V6.1007C49.3828 5.53674 49.8054 5.25123 49.8234 5.23947L50.3114 4.93356L50.4216 4.86415L50.4757 4.83003L50.8461 4.6006L51.1722 4.79473L51.0617 4.86415L50.7418 5.06455L50.6313 5.13397L50.0072 5.52537C49.8277 5.66067 49.7211 5.87324 49.7203 6.10031V6.20306C49.7846 6.14306 49.8567 6.09286 49.9355 6.05325L51.0648 5.34653L51.8296 4.86062L51.7226 4.79316L51.721 4.79395L51.6524 4.75081L51.5579 4.69119L51.4474 4.62178L51.1271 4.42098H51.1267L51.0166 4.35156L50.9476 4.30842L50.1009 3.7825L50.097 3.37306L51.3364 4.15076L51.447 4.22018L51.5211 4.26646L52.3454 4.78297C52.403 4.81865 52.403 4.90219 52.3454 4.93749L51.0609 5.75087V5.74852L50.1045 6.34856L50.0943 6.35523L50.0817 6.36033C50.0668 6.367 49.7215 6.52622 49.7215 7.02508H49.7203V7.09175C49.767 7.04743 49.8179 7.00822 49.8724 6.97449L52.9675 5.03592L53.1321 4.93278L53.2426 4.86336L53.1321 4.79395L53.0851 4.76453L52.9671 4.6908L52.8562 4.62139L52.5363 4.42098L52.4712 4.3798L52.4262 4.35156L52.2627 4.2492L49.874 2.75302C49.8187 2.7189 49.7674 2.67929 49.7207 2.63458L49.7195 3.65112C49.7195 4.03978 50.0139 4.23665 50.0268 4.24489L49.9775 4.58217V4.58295Z" fill="url(#paint8_linear_3196_1589)"></path><defs><linearGradient id="paint0_linear_3196_1589" x1="38.1582" y1="0.82373" x2="38.1582" y2="8.80029" gradientUnits="userSpaceOnUse"><stop stop-color="#CB9846"></stop><stop offset="0.25" stop-color="#DFB464"></stop><stop offset="0.5" stop-color="#FFEDB7"></stop><stop offset="0.75" stop-color="#EFCF88"></stop><stop offset="1" stop-color="#C89646"></stop></linearGradient><linearGradient id="paint1_linear_3196_1589" x1="38.1582" y1="0.82373" x2="38.1582" y2="8.80029" gradientUnits="userSpaceOnUse"><stop stop-color="#CB9846"></stop><stop offset="0.25" stop-color="#DFB464"></stop><stop offset="0.5" stop-color="#FFEDB7"></stop><stop offset="0.75" stop-color="#EFCF88"></stop><stop offset="1" stop-color="#C89646"></stop></linearGradient><linearGradient id="paint2_linear_3196_1589" x1="38.1582" y1="0.82373" x2="38.1582" y2="8.80029" gradientUnits="userSpaceOnUse"><stop stop-color="#CB9846"></stop><stop offset="0.25" stop-color="#DFB464"></stop><stop offset="0.5" stop-color="#FFEDB7"></stop><stop offset="0.75" stop-color="#EFCF88"></stop><stop offset="1" stop-color="#C89646"></stop></linearGradient><linearGradient id="paint3_linear_3196_1589" x1="38.1582" y1="0.82373" x2="38.1582" y2="8.80029" gradientUnits="userSpaceOnUse"><stop stop-color="#CB9846"></stop><stop offset="0.25" stop-color="#DFB464"></stop><stop offset="0.5" stop-color="#FFEDB7"></stop><stop offset="0.75" stop-color="#EFCF88"></stop><stop offset="1" stop-color="#C89646"></stop></linearGradient><linearGradient id="paint4_linear_3196_1589" x1="38.1582" y1="0.82373" x2="38.1582" y2="8.80029" gradientUnits="userSpaceOnUse"><stop stop-color="#CB9846"></stop><stop offset="0.25" stop-color="#DFB464"></stop><stop offset="0.5" stop-color="#FFEDB7"></stop><stop offset="0.75" stop-color="#EFCF88"></stop><stop offset="1" stop-color="#C89646"></stop></linearGradient><linearGradient id="paint5_linear_3196_1589" x1="14.0725" y1="0.789551" x2="14.0725" y2="8.93756" gradientUnits="userSpaceOnUse"><stop stop-color="#CB9846"></stop><stop offset="0.25" stop-color="#DFB464"></stop><stop offset="0.5" stop-color="#FFEDB7"></stop><stop offset="0.75" stop-color="#EFCF88"></stop><stop offset="1" stop-color="#C89646"></stop></linearGradient><linearGradient id="paint6_linear_3196_1589" x1="14.7288" y1="1.91357" x2="14.7288" y2="7.81386" gradientUnits="userSpaceOnUse"><stop stop-color="#CB9846"></stop><stop offset="0.25" stop-color="#DFB464"></stop><stop offset="0.5" stop-color="#FFEDB7"></stop><stop offset="0.75" stop-color="#EFCF88"></stop><stop offset="1" stop-color="#C89646"></stop></linearGradient><linearGradient id="paint7_linear_3196_1589" x1="50.7129" y1="0.789551" x2="50.7129" y2="8.93756" gradientUnits="userSpaceOnUse"><stop stop-color="#CB9846"></stop><stop offset="0.25" stop-color="#DFB464"></stop><stop offset="0.5" stop-color="#FFEDB7"></stop><stop offset="0.75" stop-color="#EFCF88"></stop><stop offset="1" stop-color="#C89646"></stop></linearGradient><linearGradient id="paint8_linear_3196_1589" x1="51.5925" y1="1.89453" x2="51.5925" y2="7.83259" gradientUnits="userSpaceOnUse"><stop stop-color="#CB9846"></stop><stop offset="0.25" stop-color="#DFB464"></stop><stop offset="0.5" stop-color="#FFEDB7"></stop><stop offset="0.75" stop-color="#EFCF88"></stop><stop offset="1" stop-color="#C89646"></stop></linearGradient></defs></svg>