<svg xmlns="http://www.w3.org/2000/svg" width="206" height="19" viewBox="0 0 206 19" fill="none"><path d="M15.5847 3.01404C13.8848 1.3142 11.6247 0.378028 9.2207 0.378028C6.81672 0.378028 4.55663 1.3142 2.85672 3.01404C1.15688 4.71395 0.220703 6.97404 0.220703 9.37803C0.220703 11.782 1.15688 14.0421 2.85672 15.742C4.55663 17.4419 6.81672 18.378 9.2207 18.378C11.6247 18.378 13.8848 17.4419 15.5847 15.742C17.2845 14.0421 18.2207 11.782 18.2207 9.37803C18.2207 6.97404 17.2845 4.71395 15.5847 3.01404ZM1.62695 9.37803C1.62695 5.19081 5.03349 1.78428 9.2207 1.78428C9.25041 1.78428 9.27991 1.78505 9.30951 1.7854C11.1684 1.83269 13.1468 3.01404 13.1468 5.22959C13.1468 7.44514 11.3784 9.07528 9.47862 9.07528C6.80344 9.07528 4.36914 10.8513 4.36914 13.5265C4.36914 14.2527 4.58764 14.9326 5.28635 15.8201C2.85672 14.7569 1.62695 11.9249 1.62695 9.37803ZM10.4512 13.5265C10.4512 14.206 9.90027 14.7569 9.2207 14.7569C8.54113 14.7569 7.99023 14.206 7.99023 13.5265C7.99023 12.8469 8.54113 12.296 9.2207 12.296C9.90027 12.296 10.4512 12.8469 10.4512 13.5265ZM7.99023 5.22959C7.99023 4.55002 8.54113 3.99912 9.2207 3.99912C9.90027 3.99912 10.4512 4.55002 10.4512 5.22959C10.4512 5.90916 9.90027 6.46006 9.2207 6.46006C8.54113 6.46006 7.99023 5.90916 7.99023 5.22959Z" fill="black"></path><path d="M15.5847 3.01404C13.8848 1.3142 11.6247 0.378028 9.2207 0.378028C6.81672 0.378028 4.55663 1.3142 2.85672 3.01404C1.15688 4.71395 0.220703 6.97404 0.220703 9.37803C0.220703 11.782 1.15688 14.0421 2.85672 15.742C4.55663 17.4419 6.81672 18.378 9.2207 18.378C11.6247 18.378 13.8848 17.4419 15.5847 15.742C17.2845 14.0421 18.2207 11.782 18.2207 9.37803C18.2207 6.97404 17.2845 4.71395 15.5847 3.01404ZM1.62695 9.37803C1.62695 5.19081 5.03349 1.78428 9.2207 1.78428C9.25041 1.78428 9.27991 1.78505 9.30951 1.7854C11.1684 1.83269 13.1468 3.01404 13.1468 5.22959C13.1468 7.44514 11.3784 9.07528 9.47862 9.07528C6.80344 9.07528 4.36914 10.8513 4.36914 13.5265C4.36914 14.2527 4.58764 14.9326 5.28635 15.8201C2.85672 14.7569 1.62695 11.9249 1.62695 9.37803ZM10.4512 13.5265C10.4512 14.206 9.90027 14.7569 9.2207 14.7569C8.54113 14.7569 7.99023 14.206 7.99023 13.5265C7.99023 12.8469 8.54113 12.296 9.2207 12.296C9.90027 12.296 10.4512 12.8469 10.4512 13.5265ZM7.99023 5.22959C7.99023 4.55002 8.54113 3.99912 9.2207 3.99912C9.90027 3.99912 10.4512 4.55002 10.4512 5.22959C10.4512 5.90916 9.90027 6.46006 9.2207 6.46006C8.54113 6.46006 7.99023 5.90916 7.99023 5.22959Z" fill="url(#paint0_linear_1802_93)"></path><path d="M23.0707 18.0001V0.500097H29.6207C31.104 0.500097 32.379 0.741764 33.4457 1.2251C34.5124 1.69176 35.329 2.3751 35.8957 3.2751C36.479 4.15843 36.7707 5.23343 36.7707 6.5001C36.7707 7.73343 36.479 8.8001 35.8957 9.7001C35.329 10.5834 34.5124 11.2668 33.4457 11.7501C32.379 12.2168 31.104 12.4501 29.6207 12.4501H24.0957L24.9207 11.6001V18.0001H23.0707ZM35.0207 18.0001L30.5207 11.6501H32.5207L37.0457 18.0001H35.0207ZM24.9207 11.7501L24.0957 10.8751H29.5707C31.3207 10.8751 32.6457 10.4918 33.5457 9.7251C34.4624 8.95843 34.9207 7.88343 34.9207 6.5001C34.9207 5.1001 34.4624 4.01676 33.5457 3.2501C32.6457 2.48343 31.3207 2.1001 29.5707 2.1001H24.0957L24.9207 1.2251V11.7501Z" fill="black"></path><path d="M23.0707 18.0001V0.500097H29.6207C31.104 0.500097 32.379 0.741764 33.4457 1.2251C34.5124 1.69176 35.329 2.3751 35.8957 3.2751C36.479 4.15843 36.7707 5.23343 36.7707 6.5001C36.7707 7.73343 36.479 8.8001 35.8957 9.7001C35.329 10.5834 34.5124 11.2668 33.4457 11.7501C32.379 12.2168 31.104 12.4501 29.6207 12.4501H24.0957L24.9207 11.6001V18.0001H23.0707ZM35.0207 18.0001L30.5207 11.6501H32.5207L37.0457 18.0001H35.0207ZM24.9207 11.7501L24.0957 10.8751H29.5707C31.3207 10.8751 32.6457 10.4918 33.5457 9.7251C34.4624 8.95843 34.9207 7.88343 34.9207 6.5001C34.9207 5.1001 34.4624 4.01676 33.5457 3.2501C32.6457 2.48343 31.3207 2.1001 29.5707 2.1001H24.0957L24.9207 1.2251V11.7501Z" fill="url(#paint1_linear_1802_93)"></path><path d="M45.1121 18.0001L39.2121 0.500097H41.1121L46.6371 16.9751H45.6871L51.3871 0.500097H53.0871L58.7121 16.9751H57.8121L63.3871 0.500097H65.1621L59.2621 18.0001H57.3121L51.9371 2.3751H52.4371L47.0371 18.0001H45.1121Z" fill="black"></path><path d="M45.1121 18.0001L39.2121 0.500097H41.1121L46.6371 16.9751H45.6871L51.3871 0.500097H53.0871L58.7121 16.9751H57.8121L63.3871 0.500097H65.1621L59.2621 18.0001H57.3121L51.9371 2.3751H52.4371L47.0371 18.0001H45.1121Z" fill="url(#paint2_linear_1802_93)"></path><path d="M65.217 18.0001L73.217 0.500097H75.042L83.042 18.0001H81.092L73.742 1.5751H74.492L67.142 18.0001H65.217ZM68.367 13.3251L68.917 11.8251H79.092L79.642 13.3251H68.367Z" fill="black"></path><path d="M65.217 18.0001L73.217 0.500097H75.042L83.042 18.0001H81.092L73.742 1.5751H74.492L67.142 18.0001H65.217ZM68.367 13.3251L68.917 11.8251H79.092L79.642 13.3251H68.367Z" fill="url(#paint3_linear_1802_93)"></path><path d="M85.9369 18.0001V0.500097H92.4869C93.9702 0.500097 95.2452 0.741764 96.3119 1.2251C97.3786 1.69176 98.1953 2.3751 98.7619 3.2751C99.3453 4.15843 99.6369 5.23343 99.6369 6.5001C99.6369 7.73343 99.3453 8.8001 98.7619 9.7001C98.1953 10.5834 97.3786 11.2668 96.3119 11.7501C95.2452 12.2168 93.9702 12.4501 92.4869 12.4501H86.9619L87.7869 11.6001V18.0001H85.9369ZM97.8869 18.0001L93.3869 11.6501H95.3869L99.9119 18.0001H97.8869ZM87.7869 11.7501L86.9619 10.8751H92.4369C94.1869 10.8751 95.5119 10.4918 96.4119 9.7251C97.3286 8.95843 97.7869 7.88343 97.7869 6.5001C97.7869 5.1001 97.3286 4.01676 96.4119 3.2501C95.5119 2.48343 94.1869 2.1001 92.4369 2.1001H86.9619L87.7869 1.2251V11.7501Z" fill="black"></path><path d="M85.9369 18.0001V0.500097H92.4869C93.9702 0.500097 95.2452 0.741764 96.3119 1.2251C97.3786 1.69176 98.1953 2.3751 98.7619 3.2751C99.3453 4.15843 99.6369 5.23343 99.6369 6.5001C99.6369 7.73343 99.3453 8.8001 98.7619 9.7001C98.1953 10.5834 97.3786 11.2668 96.3119 11.7501C95.2452 12.2168 93.9702 12.4501 92.4869 12.4501H86.9619L87.7869 11.6001V18.0001H85.9369ZM97.8869 18.0001L93.3869 11.6501H95.3869L99.9119 18.0001H97.8869ZM87.7869 11.7501L86.9619 10.8751H92.4369C94.1869 10.8751 95.5119 10.4918 96.4119 9.7251C97.3286 8.95843 97.7869 7.88343 97.7869 6.5001C97.7869 5.1001 97.3286 4.01676 96.4119 3.2501C95.5119 2.48343 94.1869 2.1001 92.4369 2.1001H86.9619L87.7869 1.2251V11.7501Z" fill="url(#paint4_linear_1802_93)"></path><path d="M104.003 18.0001V0.500097H111.128C112.995 0.500097 114.628 0.875097 116.028 1.6251C117.445 2.35843 118.545 3.38343 119.328 4.7001C120.112 6.01676 120.503 7.53343 120.503 9.2501C120.503 10.9668 120.112 12.4834 119.328 13.8001C118.545 15.1168 117.445 16.1501 116.028 16.9001C114.628 17.6334 112.995 18.0001 111.128 18.0001H104.003ZM105.853 16.4001H111.028C112.578 16.4001 113.92 16.1001 115.053 15.5001C116.203 14.8834 117.095 14.0418 117.728 12.9751C118.362 11.8918 118.678 10.6501 118.678 9.2501C118.678 7.83343 118.362 6.59176 117.728 5.5251C117.095 4.45843 116.203 3.6251 115.053 3.0251C113.92 2.40843 112.578 2.1001 111.028 2.1001H105.853V16.4001Z" fill="black"></path><path d="M104.003 18.0001V0.500097H111.128C112.995 0.500097 114.628 0.875097 116.028 1.6251C117.445 2.35843 118.545 3.38343 119.328 4.7001C120.112 6.01676 120.503 7.53343 120.503 9.2501C120.503 10.9668 120.112 12.4834 119.328 13.8001C118.545 15.1168 117.445 16.1501 116.028 16.9001C114.628 17.6334 112.995 18.0001 111.128 18.0001H104.003ZM105.853 16.4001H111.028C112.578 16.4001 113.92 16.1001 115.053 15.5001C116.203 14.8834 117.095 14.0418 117.728 12.9751C118.362 11.8918 118.678 10.6501 118.678 9.2501C118.678 7.83343 118.362 6.59176 117.728 5.5251C117.095 4.45843 116.203 3.6251 115.053 3.0251C113.92 2.40843 112.578 2.1001 111.028 2.1001H105.853V16.4001Z" fill="url(#paint5_linear_1802_93)"></path><path d="M132.851 8.9751H142.101V10.5751H132.851V8.9751ZM133.051 18.0001H131.201V0.500097H143.201V2.1001H133.051V18.0001Z" fill="black"></path><path d="M132.851 8.9751H142.101V10.5751H132.851V8.9751ZM133.051 18.0001H131.201V0.500097H143.201V2.1001H133.051V18.0001Z" fill="url(#paint6_linear_1802_93)"></path><path d="M147.021 18.0001V0.500097H148.871V16.4001H158.671V18.0001H147.021Z" fill="black"></path><path d="M147.021 18.0001V0.500097H148.871V16.4001H158.671V18.0001H147.021Z" fill="url(#paint7_linear_1802_93)"></path><path d="M169.051 18.1501C167.734 18.1501 166.509 17.9334 165.376 17.5001C164.259 17.0501 163.284 16.4251 162.451 15.6251C161.634 14.8084 160.992 13.8668 160.526 12.8001C160.076 11.7168 159.851 10.5334 159.851 9.2501C159.851 7.96677 160.076 6.79176 160.526 5.7251C160.992 4.64176 161.634 3.7001 162.451 2.9001C163.284 2.08343 164.259 1.45843 165.376 1.0251C166.492 0.575098 167.717 0.350098 169.051 0.350098C170.367 0.350098 171.584 0.575098 172.701 1.0251C173.817 1.45843 174.784 2.0751 175.601 2.8751C176.434 3.6751 177.076 4.61676 177.526 5.7001C177.992 6.78343 178.226 7.96677 178.226 9.2501C178.226 10.5334 177.992 11.7168 177.526 12.8001C177.076 13.8834 176.434 14.8251 175.601 15.6251C174.784 16.4251 173.817 17.0501 172.701 17.5001C171.584 17.9334 170.367 18.1501 169.051 18.1501ZM169.051 16.5001C170.101 16.5001 171.067 16.3251 171.951 15.9751C172.851 15.6084 173.626 15.1001 174.276 14.4501C174.942 13.7834 175.459 13.0168 175.826 12.1501C176.192 11.2668 176.376 10.3001 176.376 9.2501C176.376 8.2001 176.192 7.24176 175.826 6.3751C175.459 5.49176 174.942 4.7251 174.276 4.0751C173.626 3.40843 172.851 2.9001 171.951 2.5501C171.067 2.18343 170.101 2.0001 169.051 2.0001C168.001 2.0001 167.026 2.18343 166.126 2.5501C165.226 2.9001 164.442 3.40843 163.776 4.0751C163.126 4.7251 162.609 5.49176 162.226 6.3751C161.859 7.24176 161.676 8.2001 161.676 9.2501C161.676 10.2834 161.859 11.2418 162.226 12.1251C162.609 13.0084 163.126 13.7834 163.776 14.4501C164.442 15.1001 165.226 15.6084 166.126 15.9751C167.026 16.3251 168.001 16.5001 169.051 16.5001Z" fill="black"></path><path d="M169.051 18.1501C167.734 18.1501 166.509 17.9334 165.376 17.5001C164.259 17.0501 163.284 16.4251 162.451 15.6251C161.634 14.8084 160.992 13.8668 160.526 12.8001C160.076 11.7168 159.851 10.5334 159.851 9.2501C159.851 7.96677 160.076 6.79176 160.526 5.7251C160.992 4.64176 161.634 3.7001 162.451 2.9001C163.284 2.08343 164.259 1.45843 165.376 1.0251C166.492 0.575098 167.717 0.350098 169.051 0.350098C170.367 0.350098 171.584 0.575098 172.701 1.0251C173.817 1.45843 174.784 2.0751 175.601 2.8751C176.434 3.6751 177.076 4.61676 177.526 5.7001C177.992 6.78343 178.226 7.96677 178.226 9.2501C178.226 10.5334 177.992 11.7168 177.526 12.8001C177.076 13.8834 176.434 14.8251 175.601 15.6251C174.784 16.4251 173.817 17.0501 172.701 17.5001C171.584 17.9334 170.367 18.1501 169.051 18.1501ZM169.051 16.5001C170.101 16.5001 171.067 16.3251 171.951 15.9751C172.851 15.6084 173.626 15.1001 174.276 14.4501C174.942 13.7834 175.459 13.0168 175.826 12.1501C176.192 11.2668 176.376 10.3001 176.376 9.2501C176.376 8.2001 176.192 7.24176 175.826 6.3751C175.459 5.49176 174.942 4.7251 174.276 4.0751C173.626 3.40843 172.851 2.9001 171.951 2.5501C171.067 2.18343 170.101 2.0001 169.051 2.0001C168.001 2.0001 167.026 2.18343 166.126 2.5501C165.226 2.9001 164.442 3.40843 163.776 4.0751C163.126 4.7251 162.609 5.49176 162.226 6.3751C161.859 7.24176 161.676 8.2001 161.676 9.2501C161.676 10.2834 161.859 11.2418 162.226 12.1251C162.609 13.0084 163.126 13.7834 163.776 14.4501C164.442 15.1001 165.226 15.6084 166.126 15.9751C167.026 16.3251 168.001 16.5001 169.051 16.5001Z" fill="url(#paint8_linear_1802_93)"></path><path d="M185.835 18.0001L179.935 0.500097H181.835L187.36 16.9751H186.41L192.11 0.500097H193.81L199.435 16.9751H198.535L204.11 0.500097H205.885L199.985 18.0001H198.035L192.66 2.3751H193.16L187.76 18.0001H185.835Z" fill="black"></path><path d="M185.835 18.0001L179.935 0.500097H181.835L187.36 16.9751H186.41L192.11 0.500097H193.81L199.435 16.9751H198.535L204.11 0.500097H205.885L199.985 18.0001H198.035L192.66 2.3751H193.16L187.76 18.0001H185.835Z" fill="url(#paint9_linear_1802_93)"></path><defs><linearGradient id="paint0_linear_1802_93" x1="103.053" y1="0.350098" x2="103.053" y2="18.378" gradientUnits="userSpaceOnUse"><stop stop-color="#CB9846"></stop><stop offset="0.25" stop-color="#DFB464"></stop><stop offset="0.5" stop-color="#FFEDB7"></stop><stop offset="0.75" stop-color="#EFCF88"></stop><stop offset="1" stop-color="#C89646"></stop></linearGradient><linearGradient id="paint1_linear_1802_93" x1="113.721" y1="-6" x2="113.721" y2="24" gradientUnits="userSpaceOnUse"><stop stop-color="#CB9846"></stop><stop offset="0.25" stop-color="#DFB464"></stop><stop offset="0.5" stop-color="#FFEDB7"></stop><stop offset="0.75" stop-color="#EFCF88"></stop><stop offset="1" stop-color="#C89646"></stop></linearGradient><linearGradient id="paint2_linear_1802_93" x1="113.721" y1="-6" x2="113.721" y2="24" gradientUnits="userSpaceOnUse"><stop stop-color="#CB9846"></stop><stop offset="0.25" stop-color="#DFB464"></stop><stop offset="0.5" stop-color="#FFEDB7"></stop><stop offset="0.75" stop-color="#EFCF88"></stop><stop offset="1" stop-color="#C89646"></stop></linearGradient><linearGradient id="paint3_linear_1802_93" x1="113.721" y1="-6" x2="113.721" y2="24" gradientUnits="userSpaceOnUse"><stop stop-color="#CB9846"></stop><stop offset="0.25" stop-color="#DFB464"></stop><stop offset="0.5" stop-color="#FFEDB7"></stop><stop offset="0.75" stop-color="#EFCF88"></stop><stop offset="1" stop-color="#C89646"></stop></linearGradient><linearGradient id="paint4_linear_1802_93" x1="113.721" y1="-6" x2="113.721" y2="24" gradientUnits="userSpaceOnUse"><stop stop-color="#CB9846"></stop><stop offset="0.25" stop-color="#DFB464"></stop><stop offset="0.5" stop-color="#FFEDB7"></stop><stop offset="0.75" stop-color="#EFCF88"></stop><stop offset="1" stop-color="#C89646"></stop></linearGradient><linearGradient id="paint5_linear_1802_93" x1="113.721" y1="-6" x2="113.721" y2="24" gradientUnits="userSpaceOnUse"><stop stop-color="#CB9846"></stop><stop offset="0.25" stop-color="#DFB464"></stop><stop offset="0.5" stop-color="#FFEDB7"></stop><stop offset="0.75" stop-color="#EFCF88"></stop><stop offset="1" stop-color="#C89646"></stop></linearGradient><linearGradient id="paint6_linear_1802_93" x1="113.721" y1="-6" x2="113.721" y2="24" gradientUnits="userSpaceOnUse"><stop stop-color="#CB9846"></stop><stop offset="0.25" stop-color="#DFB464"></stop><stop offset="0.5" stop-color="#FFEDB7"></stop><stop offset="0.75" stop-color="#EFCF88"></stop><stop offset="1" stop-color="#C89646"></stop></linearGradient><linearGradient id="paint7_linear_1802_93" x1="113.721" y1="-6" x2="113.721" y2="24" gradientUnits="userSpaceOnUse"><stop stop-color="#CB9846"></stop><stop offset="0.25" stop-color="#DFB464"></stop><stop offset="0.5" stop-color="#FFEDB7"></stop><stop offset="0.75" stop-color="#EFCF88"></stop><stop offset="1" stop-color="#C89646"></stop></linearGradient><linearGradient id="paint8_linear_1802_93" x1="113.721" y1="-6" x2="113.721" y2="24" gradientUnits="userSpaceOnUse"><stop stop-color="#CB9846"></stop><stop offset="0.25" stop-color="#DFB464"></stop><stop offset="0.5" stop-color="#FFEDB7"></stop><stop offset="0.75" stop-color="#EFCF88"></stop><stop offset="1" stop-color="#C89646"></stop></linearGradient><linearGradient id="paint9_linear_1802_93" x1="113.721" y1="-6" x2="113.721" y2="24" gradientUnits="userSpaceOnUse"><stop stop-color="#CB9846"></stop><stop offset="0.25" stop-color="#DFB464"></stop><stop offset="0.5" stop-color="#FFEDB7"></stop><stop offset="0.75" stop-color="#EFCF88"></stop><stop offset="1" stop-color="#C89646"></stop></linearGradient></defs></svg>