<svg xmlns="http://www.w3.org/2000/svg" width="46" height="37" viewBox="0 0 46 37" fill="none"><path d="M4.69474 36.9044C4.10742 36.9044 3.56472 36.8077 3.06661 36.6145C2.56851 36.4137 2.1336 36.1349 1.76189 35.7781C1.3976 35.4212 1.1151 35.0049 0.914372 34.5291C0.713645 34.0459 0.613281 33.518 0.613281 32.9456C0.613281 32.3732 0.713645 31.849 0.914372 31.3732C1.1151 30.89 1.40132 30.47 1.77304 30.1131C2.14476 29.7563 2.57595 29.4812 3.06661 29.2879C3.56472 29.0872 4.11114 28.9868 4.70589 28.9868C5.2709 28.9868 5.79502 29.076 6.27825 29.2545C6.76148 29.4329 7.17409 29.7005 7.51607 30.0574L7.15922 30.4365C6.81724 30.102 6.44181 29.8641 6.03292 29.7228C5.63146 29.5816 5.19284 29.5109 4.71704 29.5109C4.2115 29.5109 3.74314 29.5964 3.31195 29.7674C2.88076 29.9384 2.50532 30.18 2.18564 30.4923C1.86597 30.8045 1.61692 31.1688 1.43849 31.5851C1.2675 32.0014 1.18201 32.4549 1.18201 32.9456C1.18201 33.4363 1.2675 33.8898 1.43849 34.3061C1.61692 34.7224 1.86597 35.0867 2.18564 35.3989C2.50532 35.7112 2.88076 35.9528 3.31195 36.1238C3.74314 36.2948 4.2115 36.3803 4.71704 36.3803C5.17797 36.3803 5.61288 36.3096 6.02177 36.1684C6.43809 36.0271 6.81724 35.793 7.15922 35.4658L7.48261 35.9008C7.1332 36.2353 6.71316 36.4881 6.22249 36.6591C5.73926 36.8226 5.23001 36.9044 4.69474 36.9044ZM6.93619 35.845V32.9791H7.48261V35.9008L6.93619 35.845Z" fill="white"></path><path d="M13.5762 36.9044C12.9963 36.9044 12.4574 36.8077 11.9593 36.6145C11.4686 36.4137 11.0374 36.1349 10.6657 35.7781C10.3014 35.4138 10.0189 34.9938 9.81816 34.518C9.61743 34.0347 9.51707 33.5106 9.51707 32.9456C9.51707 32.3806 9.61743 31.8602 9.81816 31.3844C10.0189 30.9012 10.3014 30.4811 10.6657 30.1243C11.0374 29.76 11.4686 29.4812 11.9593 29.2879C12.4574 29.0872 12.9963 28.9868 13.5762 28.9868C14.1561 28.9868 14.6914 29.0872 15.182 29.2879C15.6801 29.4812 16.1113 29.7563 16.4756 30.1131C16.8399 30.47 17.1224 30.89 17.3231 31.3732C17.5313 31.849 17.6354 32.3732 17.6354 32.9456C17.6354 33.518 17.5313 34.0459 17.3231 34.5291C17.1224 35.0049 16.8399 35.4212 16.4756 35.7781C16.1113 36.1349 15.6801 36.4137 15.182 36.6145C14.6914 36.8077 14.1561 36.9044 13.5762 36.9044ZM13.5762 36.3803C14.0743 36.3803 14.5353 36.2948 14.959 36.1238C15.3828 35.9528 15.7508 35.7112 16.063 35.3989C16.3753 35.0867 16.6169 34.7224 16.7879 34.3061C16.9663 33.8898 17.0555 33.4363 17.0555 32.9456C17.0555 32.4475 16.9663 31.994 16.7879 31.5851C16.6169 31.1688 16.3753 30.8045 16.063 30.4923C15.7508 30.18 15.3828 29.9384 14.959 29.7674C14.5353 29.5964 14.0743 29.5109 13.5762 29.5109C13.0781 29.5109 12.6172 29.5964 12.1934 29.7674C11.7697 29.9384 11.398 30.18 11.0783 30.4923C10.766 30.8045 10.5207 31.1688 10.3423 31.5851C10.1713 31.994 10.0858 32.4475 10.0858 32.9456C10.0858 33.4363 10.1713 33.8898 10.3423 34.3061C10.5207 34.7224 10.766 35.0867 11.0783 35.3989C11.398 35.7112 11.7697 35.9528 12.1934 36.1238C12.6172 36.2948 13.0781 36.3803 13.5762 36.3803Z" fill="white"></path><path d="M24.524 36.8486V29.5555H21.7138V29.0426H27.9029V29.5555H25.0927V36.8486H24.524Z" fill="white"></path><path d="M32.7952 36.9044C32.2153 36.9044 31.6763 36.8077 31.1782 36.6145C30.6875 36.4137 30.2563 36.1349 29.8846 35.7781C29.5203 35.4138 29.2378 34.9938 29.0371 34.518C28.8364 34.0347 28.736 33.5106 28.736 32.9456C28.736 32.3806 28.8364 31.8602 29.0371 31.3844C29.2378 30.9012 29.5203 30.4811 29.8846 30.1243C30.2563 29.76 30.6875 29.4812 31.1782 29.2879C31.6763 29.0872 32.2153 28.9868 32.7952 28.9868C33.375 28.9868 33.9103 29.0872 34.401 29.2879C34.8991 29.4812 35.3303 29.7563 35.6946 30.1131C36.0588 30.47 36.3413 30.89 36.5421 31.3732C36.7502 31.849 36.8543 32.3732 36.8543 32.9456C36.8543 33.518 36.7502 34.0459 36.5421 34.5291C36.3413 35.0049 36.0588 35.4212 35.6946 35.7781C35.3303 36.1349 34.8991 36.4137 34.401 36.6145C33.9103 36.8077 33.375 36.9044 32.7952 36.9044ZM32.7952 36.3803C33.2933 36.3803 33.7542 36.2948 34.1779 36.1238C34.6017 35.9528 34.9697 35.7112 35.2819 35.3989C35.5942 35.0867 35.8358 34.7224 36.0068 34.3061C36.1852 33.8898 36.2744 33.4363 36.2744 32.9456C36.2744 32.4475 36.1852 31.994 36.0068 31.5851C35.8358 31.1688 35.5942 30.8045 35.2819 30.4923C34.9697 30.18 34.6017 29.9384 34.1779 29.7674C33.7542 29.5964 33.2933 29.5109 32.7952 29.5109C32.2971 29.5109 31.8361 29.5964 31.4124 29.7674C30.9886 29.9384 30.6169 30.18 30.2972 30.4923C29.985 30.8045 29.7396 31.1688 29.5612 31.5851C29.3902 31.994 29.3047 32.4475 29.3047 32.9456C29.3047 33.4363 29.3902 33.8898 29.5612 34.3061C29.7396 34.7224 29.985 35.0867 30.2972 35.3989C30.6169 35.7112 30.9886 35.9528 31.4124 36.1238C31.8361 36.2948 32.2971 36.3803 32.7952 36.3803Z" fill="white"></path><path d="M39.1057 36.8486V29.0426H41.9047C42.559 29.0426 43.1202 29.1467 43.5886 29.3548C44.057 29.563 44.4175 29.8641 44.6703 30.2581C44.9231 30.6447 45.0495 31.1168 45.0495 31.6743C45.0495 32.217 44.9231 32.6854 44.6703 33.0794C44.4175 33.4734 44.057 33.7745 43.5886 33.9827C43.1202 34.1909 42.559 34.2949 41.9047 34.2949H39.4179L39.6744 34.0273V36.8486H39.1057ZM39.6744 34.0608L39.4179 33.782H41.9047C42.7448 33.782 43.3804 33.5998 43.8116 33.2355C44.2503 32.8638 44.4696 32.3434 44.4696 31.6743C44.4696 30.9978 44.2503 30.4774 43.8116 30.1131C43.3804 29.7414 42.7448 29.5555 41.9047 29.5555H39.4179L39.6744 29.2768V34.0608Z" fill="white"></path><path d="M23.3536 0.646446C23.1583 0.451185 22.8417 0.451185 22.6464 0.646446L19.4645 3.82843C19.2692 4.02369 19.2692 4.34027 19.4645 4.53553C19.6597 4.7308 19.9763 4.7308 20.1716 4.53553L23 1.70711L25.8284 4.53553C26.0237 4.7308 26.3403 4.7308 26.5355 4.53553C26.7308 4.34027 26.7308 4.02369 26.5355 3.82843L23.3536 0.646446ZM23.5 19L23.5 1L22.5 1L22.5 19L23.5 19Z" fill="#A5732B"></path></svg>