<svg width="632" height="105" viewBox="0 0 632 105" fill="none" xmlns="http://www.w3.org/2000/svg">
<path fill-rule="evenodd" clip-rule="evenodd" d="M85.7014 104.935H80.0665L73.2431 86.1868H86.6544C89.2217 86.1868 91.6409 85.0606 93.2916 83.0969C94.9448 81.1325 95.6365 78.529 95.1897 75.9541C94.4853 71.9026 90.5753 68.8474 86.0946 68.8474H67.4431C67.4237 68.8474 67.3695 68.8218 67.2866 68.7732H66.791C66.6202 68.7732 66.4519 68.7623 66.2653 68.7491L65.9864 68.731C58.4453 68.5124 51.5036 65.3094 46.44 59.7122C41.3932 54.1339 38.9078 46.9035 39.4416 39.3532C40.4528 25.1006 52.8847 13.936 67.744 13.936H108.404H114.074L110.077 17.9509L98.5906 29.5379C96.6093 31.5372 93.8596 32.6839 91.0465 32.6839H66.791C64.2277 32.6839 61.8086 33.8101 60.1538 35.7738C58.5004 37.7382 57.8085 40.3417 58.2557 42.9166C58.9581 46.968 62.8681 50.0233 67.3508 50.0233H89.4514C89.736 50.0233 90.0194 50.0424 90.2693 50.0593L90.6432 50.0815C103.782 50.7135 114.074 61.5035 114.074 74.6459L114.075 74.8088C114.084 77.1337 114.059 78.7172 114.002 79.5154C112.991 93.7692 100.56 104.935 85.7014 104.935V104.935ZM61.8092 104.935H61.806H45.0397H39.3716H18.5109C8.30388 104.935 -0.000183105 96.6315 -0.000183105 86.4256V20.4408V13.9361H6.5046H19.3296H22.3231V16.7551L22.0302 82.7578C22.0302 83.5183 22.2696 84.2412 22.7224 84.8485C23.3952 85.7525 24.4248 86.271 25.5474 86.271H55.0165L61.8081 104.932L61.8092 104.935Z" fill="white"/>
<path d="M162.239 98.0396H174.072L175.054 94.3031H174.407C173.521 96.5066 172.635 97.1773 170.742 97.1773H169.042C167.221 97.1773 166.79 97.0096 166.79 95.357V85.3691C166.79 83.7643 167.796 83.7164 169.042 83.4769V82.95H162.239V83.4769C163.485 83.7164 164.227 83.7643 164.227 85.3691V95.6204C164.227 97.2252 163.485 97.2731 162.239 97.5126V98.0396ZM190.639 94.4468C189.753 96.5066 188.866 97.1773 186.974 97.1773H185.345C183.525 97.1773 183.094 97.0096 183.094 95.357V90.8301H184.938C187.836 90.8301 188.124 91.381 188.268 92.842H188.771V88.0038H188.268C188.124 89.4648 187.836 90.0157 184.938 90.0157H183.094V85.6326C183.094 83.9799 183.525 83.8122 185.345 83.8122H187.477C189.202 83.8122 189.609 84.6505 189.824 86.3511H190.471L190.256 82.95H178.543V83.4769C179.789 83.7164 180.531 83.7643 180.531 85.3691V95.6204C180.531 97.2252 179.789 97.2731 178.543 97.5126V98.0396H190.303L191.285 94.4468H190.639ZM207.02 82.95V83.4769C208.05 83.7164 208.936 83.7404 208.481 84.8182L204.289 94.9258L199.93 84.8421C199.451 83.7404 200.385 83.7164 201.415 83.4769V82.95H195.14V83.4769C196.385 83.7164 196.625 83.7404 197.104 84.8421L202.9 98.2072H203.834L209.487 84.8182C209.942 83.7164 210.253 83.7164 211.499 83.4769V82.95H207.02ZM227.339 94.4468C226.453 96.5066 225.567 97.1773 223.675 97.1773H222.046C220.226 97.1773 219.795 97.0096 219.795 95.357V90.8301H221.639C224.537 90.8301 224.824 91.381 224.968 92.842H225.471V88.0038H224.968C224.824 89.4648 224.537 90.0157 221.639 90.0157H219.795V85.6326C219.795 83.9799 220.226 83.8122 222.046 83.8122H224.178C225.902 83.8122 226.309 84.6505 226.525 86.3511H227.172L226.956 82.95H215.244V83.4769C216.489 83.7164 217.232 83.7643 217.232 85.3691V95.6204C217.232 97.2252 216.489 97.2731 215.244 97.5126V98.0396H227.004L227.986 94.4468H227.339ZM243.708 95.2851L242.294 93.0336C241.624 91.9558 240.929 91.4289 240.067 91.2612C243.109 90.8061 244.714 89.4409 244.714 87.1176C244.714 84.1475 242.127 82.95 238.055 82.95H231.851V83.4769C233.097 83.7164 233.839 83.7643 233.839 85.3691V95.6204C233.839 97.2252 233.097 97.2731 231.851 97.5126V98.0396H238.39V97.5126C237.145 97.2731 236.402 97.2252 236.402 95.6204V91.4049C237.887 91.4768 238.654 91.884 239.54 93.2732L241.264 96.0037C242.294 97.6563 243.348 98.4228 245.264 98.4228C246.055 98.4228 246.486 98.2791 246.941 98.0396V97.4887C245.6 97.8958 244.498 96.5306 243.708 95.2851ZM238.223 83.8122C241.097 83.8122 242.031 85.3691 242.031 87.2852C242.031 89.1774 241.121 90.5666 237.959 90.5666H236.402V84.914C236.402 84.1954 236.69 83.8122 238.223 83.8122ZM264.948 96.1474L259.152 82.7823H258.218L252.565 96.1713C252.11 97.2731 251.799 97.2731 250.553 97.5126V98.0396H255.032V97.5126C254.002 97.2731 253.116 97.2491 253.571 96.1713L254.745 93.345H260.9L262.122 96.1474C262.601 97.2491 261.667 97.2731 260.637 97.5126V98.0396H266.912V97.5126C265.667 97.2731 265.427 97.2491 264.948 96.1474ZM255.08 92.5307L257.763 86.0637L260.565 92.5307H255.08ZM278.707 98.327C281.102 98.327 283.138 97.6803 283.904 97.0096C283.785 96.5306 283.545 95.7881 283.545 94.2552V92.9618C283.545 91.7642 284.048 91.4049 285.15 91.2612V90.6385H278.707V91.2612C280.719 91.4049 281.27 91.7642 281.27 93.9199V94.9737C281.27 96.7701 280.743 97.4647 278.97 97.4647C275.114 97.4647 272.887 94.2073 272.887 89.7522C272.887 85.8242 274.803 83.429 278.084 83.429C280.216 83.429 281.94 84.3871 282.515 86.902H283.377C283.306 85.92 283.258 84.8182 283.21 83.6685C282.324 83.1416 280.647 82.5667 278.419 82.5667C273.342 82.5667 270.06 85.9679 270.06 90.4708C270.06 94.9258 273.174 98.327 278.707 98.327ZM301.466 94.4468C300.579 96.5066 299.693 97.1773 297.801 97.1773H296.172C294.352 97.1773 293.921 97.0096 293.921 95.357V90.8301H295.765C298.663 90.8301 298.951 91.381 299.094 92.842H299.597V88.0038H299.094C298.951 89.4648 298.663 90.0157 295.765 90.0157H293.921V85.6326C293.921 83.9799 294.352 83.8122 296.172 83.8122H298.304C300.029 83.8122 300.436 84.6505 300.651 86.3511H301.298L301.082 82.95H289.37V83.4769C290.616 83.7164 291.358 83.7643 291.358 85.3691V95.6204C291.358 97.2252 290.616 97.2731 289.37 97.5126V98.0396H301.13L302.112 94.4468H301.466ZM308.434 98.2791C309.248 98.2791 309.943 97.6324 309.943 96.7941C309.943 95.9797 309.248 95.333 308.434 95.333C307.619 95.333 306.925 95.9797 306.925 96.7941C306.925 97.6324 307.619 98.2791 308.434 98.2791ZM322.726 98.0396H334.559L335.541 94.3031H334.894C334.008 96.5066 333.121 97.1773 331.229 97.1773H329.529C327.708 97.1773 327.277 97.0096 327.277 95.357V85.3691C327.277 83.7643 328.283 83.7164 329.529 83.4769V82.95H322.726V83.4769C323.972 83.7164 324.714 83.7643 324.714 85.3691V95.6204C324.714 97.2252 323.972 97.2731 322.726 97.5126V98.0396ZM351.126 94.4468C350.239 96.5066 349.353 97.1773 347.461 97.1773H345.832C344.012 97.1773 343.581 97.0096 343.581 95.357V90.8301H345.425C348.323 90.8301 348.611 91.381 348.754 92.842H349.257V88.0038H348.754C348.611 89.4648 348.323 90.0157 345.425 90.0157H343.581V85.6326C343.581 83.9799 344.012 83.8122 345.832 83.8122H347.964C349.689 83.8122 350.096 84.6505 350.311 86.3511H350.958L350.742 82.95H339.03V83.4769C340.276 83.7164 341.018 83.7643 341.018 85.3691V95.6204C341.018 97.2252 340.276 97.2731 339.03 97.5126V98.0396H350.79L351.772 94.4468H351.126ZM369.554 96.1474L363.757 82.7823H362.823L357.171 96.1713C356.716 97.2731 356.404 97.2731 355.159 97.5126V98.0396H359.638V97.5126C358.608 97.2731 357.722 97.2491 358.177 96.1713L359.35 93.345H365.506L366.727 96.1474C367.206 97.2491 366.272 97.2731 365.242 97.5126V98.0396H371.518V97.5126C370.272 97.2731 370.033 97.2491 369.554 96.1474ZM359.686 92.5307L362.368 86.0637L365.171 92.5307H359.686ZM381.934 82.95H375.731V83.4769C376.976 83.7164 377.719 83.7643 377.719 85.3691V95.6204C377.719 97.2252 376.976 97.2731 375.731 97.5126V98.0396H381.934C386.461 98.0396 390.605 95.8599 390.605 90.3989C390.605 85.0577 386.365 82.95 381.934 82.95ZM382.605 97.1773C380.784 97.1773 380.282 96.5306 380.282 94.8779V83.8122H381.695C386.198 83.8122 387.802 86.6385 387.802 90.6385C387.802 94.7103 386.222 97.1773 382.605 97.1773ZM406.937 94.4468C406.051 96.5066 405.164 97.1773 403.272 97.1773H401.643C399.823 97.1773 399.392 97.0096 399.392 95.357V90.8301H401.236C404.134 90.8301 404.422 91.381 404.566 92.842H405.069V88.0038H404.566C404.422 89.4648 404.134 90.0157 401.236 90.0157H399.392V85.6326C399.392 83.9799 399.823 83.8122 401.643 83.8122H403.775C405.5 83.8122 405.907 84.6505 406.122 86.3511H406.769L406.554 82.95H394.841V83.4769C396.087 83.7164 396.829 83.7643 396.829 85.3691V95.6204C396.829 97.2252 396.087 97.2731 394.841 97.5126V98.0396H406.601L407.584 94.4468H406.937ZM423.305 95.2851L421.892 93.0336C421.221 91.9558 420.527 91.4289 419.664 91.2612C422.706 90.8061 424.311 89.4409 424.311 87.1176C424.311 84.1475 421.724 82.95 417.652 82.95H411.449V83.4769C412.694 83.7164 413.437 83.7643 413.437 85.3691V95.6204C413.437 97.2252 412.694 97.2731 411.449 97.5126V98.0396H417.988V97.5126C416.742 97.2731 416 97.2252 416 95.6204V91.4049C417.485 91.4768 418.251 91.884 419.137 93.2732L420.862 96.0037C421.892 97.6563 422.946 98.4228 424.862 98.4228C425.652 98.4228 426.083 98.2791 426.538 98.0396V97.4887C425.197 97.8958 424.095 96.5306 423.305 95.2851ZM417.82 83.8122C420.694 83.8122 421.628 85.3691 421.628 87.2852C421.628 89.1774 420.718 90.5666 417.557 90.5666H416V84.914C416 84.1954 416.287 83.8122 417.82 83.8122ZM435.716 98.327C438.71 98.327 441.153 96.6264 441.153 93.9678C441.153 91.0696 438.326 89.7522 436.53 88.89C434.374 87.8601 433.368 86.9978 433.368 85.6565C433.368 84.435 434.183 83.3571 435.955 83.3571C438.111 83.3571 439.237 85.0577 439.764 87.0936H440.314L440.243 83.9799C439.524 83.5248 438.374 82.5667 435.931 82.5667C432.626 82.5667 431.045 84.2433 431.045 86.3751C431.045 88.9139 433.249 90.1834 435.261 91.1414C437.321 92.1235 438.638 93.0097 438.638 94.7103C438.638 96.339 437.392 97.5366 435.62 97.5366C433.464 97.5366 431.931 95.9318 431.357 93.7522H430.758L430.949 96.818C431.62 97.2731 433.321 98.327 435.716 98.327ZM461.291 83.4769V82.95H454.752V83.4769C455.998 83.7164 456.74 83.7643 456.74 85.3691V90.0876H450.034V85.3691C450.034 83.7643 450.776 83.7164 452.022 83.4769V82.95H445.483V83.4769C446.729 83.7164 447.471 83.7643 447.471 85.3691V95.6204C447.471 97.2252 446.729 97.2731 445.483 97.5126V98.0396H452.022V97.5126C450.776 97.2731 450.034 97.2252 450.034 95.6204V90.9019H456.74V95.6204C456.74 97.2252 455.998 97.2731 454.752 97.5126V98.0396H461.291V97.5126C460.046 97.2731 459.303 97.2252 459.303 95.6204V85.3691C459.303 83.7643 460.046 83.7164 461.291 83.4769ZM465.506 98.0396H472.045V97.5126C470.799 97.2731 470.057 97.2252 470.057 95.6204V85.3691C470.057 83.7643 470.799 83.7164 472.045 83.4769V82.95H465.506V83.4769C466.751 83.7164 467.494 83.7643 467.494 85.3691V95.6204C467.494 97.2252 466.751 97.2731 465.506 97.5126V98.0396ZM476.266 98.0396H482.805V97.5126C481.559 97.2731 480.817 97.2252 480.817 95.6204V84.914C480.817 84.1954 481.104 83.8122 482.565 83.8122C485.655 83.8122 486.685 85.417 486.685 87.5247C486.685 89.7522 485.511 91.3331 481.895 91.3331C481.511 91.3331 481.511 92.1714 481.895 92.1714C486.541 92.1714 489.439 90.5666 489.439 87.381C489.439 84.1475 486.469 82.95 482.326 82.95H476.266V83.4769C477.511 83.7164 478.254 83.7643 478.254 85.3691V95.6204C478.254 97.2252 477.511 97.2731 476.266 97.5126V98.0396ZM494.721 98.2791C495.536 98.2791 496.23 97.6324 496.23 96.7941C496.23 95.9797 495.536 95.333 494.721 95.333C493.907 95.333 493.212 95.9797 493.212 96.7941C493.212 97.6324 493.907 98.2791 494.721 98.2791ZM509.014 98.0396H520.846L521.828 94.3031H521.182C520.295 96.5066 519.409 97.1773 517.517 97.1773H515.816C513.996 97.1773 513.565 97.0096 513.565 95.357V85.3691C513.565 83.7643 514.571 83.7164 515.816 83.4769V82.95H509.014V83.4769C510.26 83.7164 511.002 83.7643 511.002 85.3691V95.6204C511.002 97.2252 510.26 97.2731 509.014 97.5126V98.0396ZM537.413 94.4468C536.527 96.5066 535.641 97.1773 533.749 97.1773H532.12C530.3 97.1773 529.869 97.0096 529.869 95.357V90.8301H531.713C534.611 90.8301 534.898 91.381 535.042 92.842H535.545V88.0038H535.042C534.898 89.4648 534.611 90.0157 531.713 90.0157H529.869V85.6326C529.869 83.9799 530.3 83.8122 532.12 83.8122H534.252C535.976 83.8122 536.383 84.6505 536.599 86.3511H537.246L537.03 82.95H525.318V83.4769C526.563 83.7164 527.306 83.7643 527.306 85.3691V95.6204C527.306 97.2252 526.563 97.2731 525.318 97.5126V98.0396H537.078L538.06 94.4468H537.413ZM551.051 98.327C553.446 98.327 555.482 97.6803 556.249 97.0096C556.129 96.5306 555.889 95.7881 555.889 94.2552V92.9618C555.889 91.7642 556.392 91.4049 557.494 91.2612V90.6385H551.051V91.2612C553.063 91.4049 553.614 91.7642 553.614 93.9199V94.9737C553.614 96.7701 553.087 97.4647 551.315 97.4647C547.458 97.4647 545.231 94.2073 545.231 89.7522C545.231 85.8242 547.147 83.429 550.428 83.429C552.56 83.429 554.285 84.3871 554.859 86.902H555.722C555.65 85.92 555.602 84.8182 555.554 83.6685C554.668 83.1416 552.991 82.5667 550.764 82.5667C545.686 82.5667 542.404 85.9679 542.404 90.4708C542.404 94.9258 545.518 98.327 551.051 98.327ZM575.256 96.1474L569.46 82.7823H568.526L562.873 96.1713C562.418 97.2731 562.106 97.2731 560.861 97.5126V98.0396H565.34V97.5126C564.31 97.2731 563.424 97.2491 563.879 96.1713L565.053 93.345H571.208L572.43 96.1474C572.909 97.2491 571.975 97.2731 570.945 97.5126V98.0396H577.22V97.5126C575.975 97.2731 575.735 97.2491 575.256 96.1474ZM565.388 92.5307L568.07 86.0637L570.873 92.5307H565.388ZM588.416 98.327C590.955 98.327 592.943 97.4168 593.901 96.3629L593.422 95.8599C592.464 96.8899 590.691 97.1533 589.614 97.1533C585.997 97.1533 583.194 94.1594 583.194 89.7283C583.194 85.8002 585.111 83.429 588.344 83.429C590.38 83.429 592.105 84.3871 592.679 86.902H593.542C593.47 85.92 593.422 84.8182 593.374 83.6685C592.488 83.1416 590.811 82.5667 588.703 82.5667C583.65 82.5667 580.368 85.9679 580.368 90.4708C580.368 95.0456 583.674 98.327 588.416 98.327ZM608.734 82.95V83.4769C610.003 83.7164 611.009 83.7404 610.266 84.9619L606.817 90.6385L603.273 84.9619C602.578 83.8362 603.536 83.7164 604.566 83.4769V82.95H598.243V83.4769C599.488 83.7164 599.56 83.7643 600.326 84.9619L604.686 91.8121V95.6204C604.686 97.2252 603.943 97.2731 602.458 97.5126V98.0396H609.476V97.5126C607.991 97.2731 607.249 97.2252 607.249 95.6204V91.5247L611.344 84.9619C612.087 83.7643 612.207 83.7164 613.452 83.4769V82.95H608.734Z" fill="white"/>
<path d="M163.732 56H193.823V48.2572H173.234V14.9399H163.732V56ZM229.764 56.7039C241.437 56.7039 248.358 50.017 248.358 37.9335V14.9399H238.973V37.5816C238.973 45.383 235.63 48.6092 229.823 48.6092C224.074 48.6092 220.672 45.383 220.672 37.5816V14.9399H211.17V37.9335C211.17 50.017 218.091 56.7039 229.764 56.7039ZM270.653 56H280.156V14.9399H270.653V56ZM316.296 56.7039C328.027 56.7039 333.717 50.8382 333.717 43.9752C333.717 28.9003 309.844 34.1208 309.844 26.554C309.844 23.9731 312.014 21.8614 317.645 21.8614C321.282 21.8614 325.212 22.9173 329.025 25.0876L331.957 17.8727C328.145 15.4678 322.866 14.236 317.704 14.236C306.031 14.236 300.4 20.0431 300.4 27.0233C300.4 42.2742 324.273 36.995 324.273 44.6791C324.273 47.2014 321.986 49.0784 316.355 49.0784C311.427 49.0784 306.266 47.3187 302.805 44.7965L299.579 51.9526C303.215 54.7682 309.785 56.7039 316.296 56.7039ZM396.123 56.7039C407.854 56.7039 413.544 50.8382 413.544 43.9752C413.544 28.9003 389.67 34.1208 389.67 26.554C389.67 23.9731 391.841 21.8614 397.472 21.8614C401.109 21.8614 405.039 22.9173 408.851 25.0876L411.784 17.8727C407.971 15.4678 402.692 14.236 397.53 14.236C385.858 14.236 380.227 20.0431 380.227 27.0233C380.227 42.2742 404.1 36.995 404.1 44.6791C404.1 47.2014 401.812 49.0784 396.181 49.0784C391.254 49.0784 386.092 47.3187 382.631 44.7965L379.405 51.9526C383.042 54.7682 389.612 56.7039 396.123 56.7039ZM452.592 56.7039C459.748 56.7039 465.672 54.123 469.544 49.3717L463.443 43.7406C460.686 46.9668 457.226 48.6092 453.12 48.6092C445.436 48.6092 439.98 43.2127 439.98 35.4699C439.98 27.7272 445.436 22.3307 453.12 22.3307C457.226 22.3307 460.686 23.9731 463.443 27.1406L469.544 21.5095C465.672 16.8169 459.748 14.236 452.65 14.236C439.863 14.236 430.361 23.0932 430.361 35.4699C430.361 47.8466 439.863 56.7039 452.592 56.7039ZM507.891 56.7039C520.796 56.7039 530.357 47.7293 530.357 35.4699C530.357 23.2106 520.796 14.236 507.891 14.236C494.928 14.236 485.425 23.2692 485.425 35.4699C485.425 47.6707 494.928 56.7039 507.891 56.7039ZM507.891 48.6092C500.559 48.6092 495.045 43.2714 495.045 35.4699C495.045 27.6685 500.559 22.3307 507.891 22.3307C515.223 22.3307 520.737 27.6685 520.737 35.4699C520.737 43.2714 515.223 48.6092 507.891 48.6092ZM558.335 56H567.838V22.6826H580.977V14.9399H545.196V22.6826H558.335V56ZM608.073 56H617.575V22.6826H630.714V14.9399H594.933V22.6826H608.073V56Z" fill="white"/>
</svg>
