<svg width="344" height="165" viewBox="0 0 344 165" fill="none" xmlns="http://www.w3.org/2000/svg">
<g clip-path="url(#clip0_1441_1635)">
<path fill-rule="evenodd" clip-rule="evenodd" d="M182.102 73.095C180.068 76.5709 176.503 80.3955 172.283 82.6335C167.801 93.7526 156.6 88.7518 150.473 88.4894C150.124 88.474 149.784 88.4709 149.451 88.4709L132.9 89.789C132.913 89.6439 132.928 89.4988 132.94 89.3537C132.632 89.4278 132.332 89.5112 132.042 89.5976L80.1642 90.0483L80.3741 80.2906L84.2664 80.3708L84.4269 72.9684C84.4547 71.8386 83.3713 70.891 82.0378 70.8601L59.5082 70.394C58.1685 70.3662 57.0573 71.2737 57.0295 72.4035L56.869 79.8059L60.7675 79.8831L60.215 105.288L56.3227 105.208L56.1653 112.601C56.1406 113.734 57.2147 114.682 58.5544 114.71L81.0841 115.176C82.4175 115.203 83.538 114.302 83.5627 113.169L83.7232 105.776L79.8278 105.69L80.0469 95.5522L122.893 97.7347C119.177 116.034 132.712 148.403 121.905 164.739C121.902 129.388 0 171.345 0 100.797C8.82791 101.85 15.8131 100.797 20.7518 96.7376C17.412 94.8083 16.1804 89.897 16.1804 86.7391C33.7313 86.7391 49.461 37.7438 90.0509 22.0685C96.2397 15.8484 104.129 9.27017 107.636 8.73304C109.713 8.41509 110.219 11.2303 110.29 13.2029C110.309 13.2029 110.33 13.2029 110.349 13.1967C120.186 6.21413 134.629 0.262577 139.006 0.00636421C143.37 -0.252936 132.4 8.89974 129.31 16.1817C131.267 17.5215 139.003 29.6067 142.898 33.098C146.79 36.5862 147.753 44.7665 150.738 48.8196C153.806 52.9869 176.169 64.9981 179.25 66.4921C182.33 67.9862 183.55 70.6255 182.102 73.095ZM45.5162 126.634V127.452H42.2937C40.1855 127.452 38.4632 129.431 38.4632 131.851V135.969C38.4632 135.969 55.551 139.893 101.018 140.843C106.111 144.662 101.218 131.851 101.218 131.851C101.218 129.431 99.4961 127.452 97.3787 127.452H94.9834V126.634C94.9834 123.06 92.3072 120.136 89.0354 120.136H51.455C48.1924 120.136 45.5131 123.06 45.5131 126.634H45.5162Z" fill="white"/>
</g>
<path d="M234.838 11.7301C237.382 11.7732 239.151 11.8164 240.272 11.8595C244.111 11.9457 245.275 13.1534 245.362 14.2748C245.362 14.4042 245.405 14.6199 245.405 14.7493C245.448 15.3962 245.534 15.6119 245.879 15.6119C246.138 15.6119 246.224 15.3531 246.267 14.9218C246.267 13.8004 246.397 10.8243 246.397 9.9186C246.397 9.27164 246.354 9.01285 246.052 9.01285C245.879 9.01285 245.534 9.09912 244.887 9.22851C244.24 9.31477 243.291 9.44416 241.911 9.44416H224.831C223.408 9.44416 221.769 9.3579 220.518 9.22851C219.44 9.14225 219.009 8.71094 218.664 8.71094C218.405 8.71094 218.275 8.96972 218.146 9.53042C218.06 9.87547 217.24 13.8004 217.24 14.4905C217.24 14.9649 217.326 15.1806 217.628 15.1806C217.887 15.1806 218.017 15.008 218.103 14.663C218.189 14.3179 218.405 13.8004 218.836 13.1534C219.483 12.2045 220.518 11.9889 223.02 11.9026C225.133 11.8595 227.807 11.7732 229.446 11.7301V29.4137C229.446 33.3818 229.446 36.7891 229.231 38.6006C229.101 39.8514 228.842 40.8003 227.98 40.9728C227.592 41.059 227.074 41.1453 226.427 41.1453C225.91 41.1453 225.737 41.2747 225.737 41.4904C225.737 41.7923 226.039 41.9217 226.6 41.9217C228.325 41.9217 231.042 41.7923 232.034 41.7923C233.242 41.7923 235.959 41.9217 238.806 41.9217C239.28 41.9217 239.625 41.7923 239.625 41.4904C239.625 41.2747 239.409 41.1453 238.935 41.1453C238.288 41.1453 237.339 41.059 236.735 40.9728C235.441 40.8003 235.183 39.8514 235.053 38.6437C234.838 36.7891 234.838 33.3818 234.838 29.4137V11.7301Z" fill="white"/>
<path d="M270.656 42.5255C281.611 42.5255 288.512 34.7188 288.512 24.8419C288.512 14.9649 281.827 8.71094 271.087 8.71094C258.148 8.71094 253.274 18.2428 253.274 25.6182C253.274 33.2524 258.277 42.5255 270.656 42.5255ZM272.467 40.3689C264.186 40.3689 259.226 33.2524 259.226 24.2812C259.226 13.5416 264.876 10.7812 269.836 10.7812C276.91 10.7812 282.474 16.7764 282.474 26.4377C282.474 38.9025 275.486 40.3689 272.467 40.3689Z" fill="white"/>
<path d="M301.628 29.4137C301.628 33.3818 301.628 36.7891 301.413 38.6006C301.24 39.8514 301.025 40.8003 300.162 40.9728C299.774 41.059 299.256 41.1453 298.609 41.1453C298.092 41.1453 297.919 41.2747 297.919 41.4904C297.919 41.7923 298.221 41.9217 298.782 41.9217C300.507 41.9217 303.224 41.7923 304.216 41.7923C305.338 41.7923 308.055 41.9217 310.901 41.9217C311.376 41.9217 311.721 41.7923 311.721 41.4904C311.721 41.2747 311.505 41.1453 311.031 41.1453C310.384 41.1453 309.435 41.059 308.831 40.9728C307.537 40.8003 307.278 39.8514 307.149 38.6437C306.933 36.7891 306.933 33.3818 306.933 29.4137V12.1614C306.933 11.687 307.063 11.4282 307.278 11.3419C307.667 11.2125 308.314 11.1694 308.961 11.1694C309.953 11.1694 311.85 11.4282 313.403 12.8515C315.818 15.008 315.818 17.8547 315.818 19.278C315.818 23.6773 312.454 26.4377 310.039 26.4377C309.133 26.4377 308.831 26.5671 308.831 26.9121C308.831 27.2141 309.133 27.2572 309.349 27.3003C309.564 27.3434 310.039 27.3434 310.255 27.3434C316.379 27.3434 320.865 22.8578 320.865 17.5528C320.865 14.5767 319.743 12.8515 318.794 11.9026C317.802 10.9537 316.077 9.31477 310.686 9.31477C308.702 9.31477 306.2 9.44416 304.432 9.44416C303.224 9.44416 300.507 9.31477 298.221 9.31477C297.574 9.31477 297.272 9.40103 297.272 9.70295C297.272 10.0049 297.531 10.0911 298.005 10.0911C298.609 10.0911 299.342 10.1343 299.687 10.2205C301.111 10.5224 301.456 11.2125 301.542 12.679C301.628 14.0592 301.628 15.2668 301.628 21.8227V29.4137Z" fill="white"/>
<path d="M223.926 81.4137C223.926 85.3818 223.926 88.7891 223.71 90.6006C223.537 91.8514 223.322 92.8003 222.459 92.9728C222.071 93.059 221.553 93.1453 220.906 93.1453C220.389 93.1453 220.216 93.2747 220.216 93.4903C220.216 93.7923 220.518 93.9217 221.079 93.9217C221.941 93.9217 223.063 93.8354 224.055 93.8354C225.09 93.7923 226.039 93.7923 226.513 93.7923C227.592 93.7923 229.101 93.9217 230.74 94.051C232.379 94.1804 234.148 94.3098 235.7 94.3098C243.679 94.3098 248.165 91.2475 250.149 89.2204C252.564 86.7619 254.85 82.6214 254.85 77.1869C254.85 72.0543 252.823 68.4745 250.667 66.2317C245.965 61.3148 238.763 61.3148 233.371 61.3148C230.783 61.3148 228.066 61.4442 226.729 61.4442C225.521 61.4442 222.804 61.3148 220.518 61.3148C219.871 61.3148 219.569 61.401 219.569 61.7029C219.569 62.0049 219.828 62.0911 220.303 62.0911C220.906 62.0911 221.64 62.1343 221.985 62.2205C223.408 62.5224 223.753 63.2125 223.839 64.679C223.926 66.0592 223.926 67.2668 223.926 73.8227V81.4137ZM229.317 73.1326C229.317 69.7253 229.317 65.9729 229.36 64.5064C229.36 64.032 229.489 63.8164 229.878 63.6438C230.223 63.4713 231.818 63.3419 232.681 63.3419C236.045 63.3419 240.962 63.8595 244.93 67.655C246.785 69.4234 249.071 72.9601 249.071 78.4377C249.071 82.8802 248.208 86.8051 245.448 89.1773C242.86 91.4201 239.927 92.2827 235.528 92.2827C232.12 92.2827 230.438 91.3769 229.878 90.5575C229.533 90.083 229.446 88.3578 229.403 87.2795C229.36 86.46 229.317 83.139 229.317 78.5671V73.1326Z" fill="white"/>
<path d="M281.691 94.5255C292.646 94.5255 299.547 86.7188 299.547 76.8419C299.547 66.9649 292.862 60.7109 282.122 60.7109C269.183 60.7109 264.309 70.2428 264.309 77.6182C264.309 85.2524 269.313 94.5255 281.691 94.5255ZM283.503 92.3689C275.222 92.3689 270.261 85.2524 270.261 76.2812C270.261 65.5416 275.912 62.7812 280.872 62.7812C287.945 62.7812 293.509 68.7764 293.509 78.4377C293.509 90.9025 286.522 92.3689 283.503 92.3689Z" fill="white"/>
<path d="M339.897 86.2875C339.897 84.131 339.897 82.4057 339.94 81.1118C339.983 79.6022 340.415 78.869 341.579 78.6534C342.097 78.5671 342.399 78.524 342.744 78.524C343.046 78.524 343.305 78.4377 343.305 78.1789C343.305 77.8339 343.003 77.7476 342.442 77.7476C341.019 77.7476 338.733 77.877 337.396 77.877C336.102 77.877 333.384 77.7476 331.142 77.7476C330.538 77.7476 330.236 77.8339 330.236 78.1789C330.236 78.4377 330.495 78.524 330.883 78.524C331.487 78.524 332.22 78.5671 332.565 78.6534C333.988 78.9553 334.376 79.6454 334.42 81.1118C334.463 82.4057 334.463 84.0447 334.463 86.2012V90.2555C334.463 90.9888 334.29 91.5495 333.643 91.8514C332.608 92.3258 331.098 92.3258 329.977 92.3258C320.876 92.3258 314.968 85.3818 314.968 76.1086C314.968 70.8035 316.52 67.5687 318.936 65.5416C321.955 63.04 325.103 62.8675 327.475 62.8675C332.349 62.8675 335.8 64.8515 337.094 66.2317C338.215 67.4393 338.431 68.8195 338.56 69.8115C338.603 70.1566 338.69 70.3722 338.991 70.3722C339.336 70.3722 339.466 70.1566 339.466 69.4665C339.466 64.0751 339.768 62.8675 339.768 62.393C339.768 62.0911 339.682 61.9186 339.164 61.8755C338.172 61.8323 336.662 61.5736 335.757 61.401C334.894 61.2285 331.098 60.7109 328.122 60.7109C324.499 60.7109 320.661 61.0129 316.52 63.5144C312.595 65.8866 309.016 70.7173 309.016 77.6182C309.016 89.5223 318.375 94.5255 328.942 94.5255C332.306 94.5255 336.533 94.051 339.336 92.5846C339.854 92.2827 339.897 92.1964 339.897 91.0319V86.2875Z" fill="white"/>
<path d="M229.317 125.823C229.317 119.267 229.317 118.059 229.403 116.679C229.489 115.169 229.834 114.436 230.999 114.221C231.517 114.134 232.207 114.091 232.681 114.091C233.199 114.091 233.457 114.005 233.457 113.703C233.457 113.401 233.156 113.315 232.552 113.315C230.87 113.315 227.721 113.444 226.686 113.444C225.521 113.444 222.804 113.315 220.777 113.315C220.13 113.315 219.828 113.401 219.828 113.703C219.828 114.005 220.087 114.091 220.561 114.091C221.122 114.091 221.64 114.134 221.985 114.221C223.408 114.522 223.753 115.213 223.839 116.679C223.926 118.059 223.926 119.267 223.926 125.823V133.414C223.926 137.382 223.926 140.789 223.71 142.601C223.537 143.851 223.322 144.8 222.459 144.973C222.071 145.059 221.553 145.145 220.906 145.145C220.389 145.145 220.216 145.275 220.216 145.49C220.216 145.792 220.518 145.922 221.079 145.922C223.02 145.922 224.788 145.792 226.513 145.792C231.128 145.792 235.096 146.051 239.064 146.051C241.307 146.051 241.523 145.835 241.782 144.887C242.127 143.636 242.429 140.401 242.429 139.926C242.429 139.409 242.385 139.193 242.084 139.193C241.739 139.193 241.652 139.452 241.609 139.84C241.523 140.66 241.005 141.867 240.488 142.428C239.409 143.593 237.727 143.636 235.441 143.636C232.077 143.636 230.956 143.334 230.223 142.687C229.317 141.91 229.317 138.934 229.317 133.414V125.823Z" fill="white"/>
<path d="M269.024 134.665C269.239 134.665 269.369 134.751 269.455 134.966L272.906 144.11C273.121 144.628 272.819 145.016 272.517 145.102C272.086 145.145 271.914 145.275 271.914 145.49C271.914 145.749 272.129 145.792 272.906 145.835C276.356 145.922 279.807 145.922 281.359 145.922C282.955 145.922 283.343 145.835 283.343 145.49C283.343 145.232 283.128 145.145 282.783 145.145C282.265 145.145 281.618 145.102 280.971 144.973C280.065 144.757 278.815 144.153 277.176 140.272C274.415 133.716 267.514 116.118 266.479 113.746C266.048 112.754 265.746 112.366 265.401 112.366C265.013 112.366 264.711 112.84 264.193 114.091L253.367 141.177C252.505 143.334 251.685 144.8 249.701 145.059C249.356 145.102 248.839 145.145 248.45 145.145C248.105 145.145 247.847 145.232 247.847 145.49C247.847 145.835 248.105 145.922 248.666 145.922C250.909 145.922 253.281 145.792 253.756 145.792C255.093 145.792 256.947 145.922 258.327 145.922C258.802 145.922 259.061 145.835 259.061 145.49C259.061 145.232 258.931 145.145 258.414 145.145C258.241 145.145 257.982 145.145 257.767 145.145C256.43 145.145 256.041 144.585 256.041 143.808C256.041 143.291 256.257 142.256 256.688 141.177L259.017 135.01C259.104 134.751 259.19 134.665 259.406 134.665H269.024ZM260.268 132.508C260.096 132.508 260.053 132.379 260.096 132.206L264.064 121.596C264.236 121.078 264.409 121.208 264.538 121.596L268.42 132.249C268.463 132.379 268.42 132.508 268.204 132.508H260.268Z" fill="white"/>
<path d="M295.266 144.93C295.654 146.051 295.827 146.525 296.258 146.525C296.776 146.525 296.991 146.008 297.811 144.24C299.666 140.272 305.402 125.003 306.265 122.674L315.279 144.412C315.926 146.008 316.185 146.525 316.616 146.525C317.177 146.525 317.392 146.008 317.867 144.498C319.98 138.029 324.509 124.313 326.493 118.879C327.399 116.42 327.873 114.695 328.908 114.307C329.383 114.134 329.987 114.091 330.418 114.091C330.806 114.091 331.022 113.962 331.022 113.66C331.022 113.401 330.72 113.315 330.245 113.315C328.822 113.315 326.967 113.444 326.665 113.444C326.277 113.444 324.466 113.315 322.18 113.315C321.533 113.315 321.188 113.401 321.188 113.703C321.188 113.962 321.49 114.091 321.921 114.091C323.603 114.091 323.991 114.695 323.991 115.385C323.991 115.989 323.862 116.895 323.56 117.887C322.05 122.933 318.6 134.319 317.781 137.382L308.723 115.514C308.162 114.134 307.947 113.487 307.472 113.487C307.127 113.487 306.825 113.832 306.394 115.04L297.94 137.684C297.121 135.096 293.11 122.027 292.376 119.181C291.859 117.24 291.428 115.773 291.428 115.213C291.428 114.738 291.514 114.436 291.902 114.264C292.204 114.091 292.635 114.091 292.98 114.091C293.412 114.091 293.757 114.048 293.757 113.703C293.757 113.444 293.455 113.315 292.851 113.315C290.349 113.315 288.452 113.444 288.063 113.444C287.675 113.444 285.303 113.315 283.06 113.315C282.456 113.315 282.111 113.401 282.111 113.703C282.111 114.048 282.37 114.091 282.801 114.091C283.19 114.091 284.052 114.177 284.527 114.479C285.13 114.911 285.605 115.946 286.122 117.542L295.266 144.93Z" fill="white"/>
<defs>
<clipPath id="clip0_1441_1635">
<rect width="182.707" height="164.736" fill="white"/>
</clipPath>
</defs>
</svg>
