<svg width="425" height="98" viewBox="0 0 425 98" fill="none" xmlns="http://www.w3.org/2000/svg">
<path d="M54.3763 55.2968C55.7533 51.4097 57.3685 47.6112 59.2128 43.9229C63.0349 40.0817 67.1065 35.7973 71.4275 31.0696C78.2251 23.3311 84.5266 15.1707 90.2943 6.63694L90.952 5.68136C92.1671 3.9439 92.7579 1.51693 91.4584 0.437194C89.6127 -1.09323 86.4849 1.71124 84.292 3.96149C73.6443 15.5856 64.6076 28.5882 57.4244 42.6202C50.5863 49.7394 43.1211 56.2286 35.1194 62.0093C31.3658 64.5844 28.4769 65.4476 26.9895 64.4427C25.1788 63.2228 25.1294 59.1571 25.6709 56.6584C25.9432 55.6404 26.2902 54.644 26.7092 53.6771C35.6942 40.5308 46.7449 23.333 48.5269 15.837C48.5858 15.5899 48.5567 15.33 48.4445 15.1021C48.3323 14.8742 48.1442 14.6926 47.9124 14.5886C47.6806 14.4846 47.4199 14.4647 47.175 14.5324C46.9302 14.6001 46.7167 14.7512 46.5713 14.9594C46.3213 15.3194 21.4092 51.0941 14.9356 60.8133C12.3955 64.6258 9.41271 68.6772 6.78025 72.2509C0.79073 80.384 -0.346389 82.0816 0.0804103 83.2729C0.150932 83.4688 0.269092 83.6442 0.424209 83.7831C0.579325 83.9221 0.766603 84.0204 0.969115 84.0691C1.07915 84.0998 1.19249 84.1169 1.30669 84.12C2.12844 84.12 3.90895 83.0642 11.3986 73.9724C15.3481 69.1789 19.5444 63.7245 23.2057 58.6507C23.0385 61.3883 23.4923 64.7134 25.7712 66.247C28.1218 67.8284 31.6795 67.0051 36.352 63.8041C42.9042 59.1334 49.0673 53.9396 54.7808 48.2737C53.8714 50.3726 53.0433 52.4748 52.3139 54.5642C46.5506 71.0979 44.9485 82.115 47.5507 87.3306C47.6134 87.4611 47.7013 87.5778 47.8096 87.674C47.9178 87.7701 48.0441 87.8438 48.1811 87.8906C48.318 87.9375 48.4629 87.9566 48.6074 87.9469C48.7518 87.9372 48.8929 87.8989 49.0223 87.8341C49.1518 87.7693 49.267 87.6794 49.3614 87.5696C49.4557 87.4598 49.5273 87.3323 49.5719 87.1946C49.6165 87.0569 49.6333 86.9117 49.6212 86.7674C49.6091 86.6231 49.5684 86.4828 49.5015 86.3544C47.9026 83.1646 47.4488 75.1652 54.3763 55.2968ZM85.8559 5.49191C86.977 4.09911 88.4028 2.98212 90.0236 2.22714C89.9432 3.02564 89.6489 3.78766 89.1716 4.43282L88.5059 5.38839C82.7943 13.8395 76.5551 21.9217 69.8255 29.587C67.4346 32.203 65.1233 34.6793 62.8916 37.0161C69.3364 25.6778 77.0399 15.1029 85.8559 5.49191ZM32.8819 40.4623C33.3039 39.6167 33.702 38.8316 34.0524 38.1452C34.1445 37.9621 34.1829 37.7566 34.1632 37.5525C34.1435 37.3485 34.0664 37.1543 33.9409 36.9922C36.7772 32.8978 39.5291 28.9324 41.8542 25.5833C39.6071 29.7 36.5861 34.7149 32.8819 40.4623ZM6.1639 76.796C6.93787 75.7322 7.7565 74.6237 8.54162 73.5551C11.1884 69.9608 14.1887 65.8871 16.7558 62.0316C18.9265 58.7765 23.1721 52.5831 27.8669 45.7878C26.7522 48.1479 25.6262 50.6067 24.7934 52.6356C19.0096 61.0097 12.7908 69.0748 6.16234 76.7975L6.1639 76.796ZM126.784 4.77525C125.528 4.03632 123.397 4.28316 121.463 6.50474C119.197 9.11331 103.673 30.345 98.4544 48.21C92.6767 55.9959 86.0327 64.7723 82.5817 68.8603C78.3981 73.8163 74.1158 76.4488 71.6744 75.5682C69.5834 74.8133 68.4479 71.4132 68.3922 65.7294C68.4035 63.2 68.7244 60.6816 69.3477 58.2302C76.2991 43.4547 83.5706 29.3178 87.2828 26.1741C87.4432 26.037 87.5604 25.8563 87.6202 25.6539C87.68 25.4515 87.6798 25.2361 87.6196 25.0338C87.5594 24.8315 87.4418 24.6511 87.2811 24.5143C87.1205 24.3774 86.9236 24.2902 86.7143 24.2631C86.4414 24.2558 86.1703 24.3092 85.9205 24.4194C85.6708 24.5295 85.4485 24.6937 85.2699 24.9C82.0848 27.7411 70.832 43.1298 67.2918 57.4706C58.8258 75.4423 50.9507 94.1673 50.3567 95.5815C50.3004 95.7138 50.2709 95.856 50.2698 95.9998C50.2687 96.1436 50.2959 96.2861 50.3501 96.4193C50.4043 96.5525 50.4842 96.6738 50.5854 96.7759C50.6866 96.8781 50.807 96.9593 50.9396 97.0148C51.0726 97.0712 51.2156 97.0998 51.36 97.0991C51.5748 97.0991 51.7848 97.0357 51.9636 96.9167C52.1424 96.7977 52.2821 96.6284 52.365 96.4303C52.4956 96.1229 58.8131 81.1006 66.2199 64.965C66.2199 65.231 66.2199 65.4969 66.2199 65.7613C66.2868 72.5312 67.8762 76.5252 70.945 77.632C75.9966 79.4571 82.4113 72.4642 84.257 70.2793C87.1443 66.8553 92.2419 60.189 97.2154 53.5434C97.1135 54.1406 97.0275 54.733 96.959 55.3158C94.7135 74.3227 97.6582 82.3555 99.6122 85.4514C99.6882 85.5737 99.7876 85.6797 99.9048 85.7634C100.022 85.8471 100.155 85.9067 100.295 85.9389C100.435 85.9711 100.58 85.9752 100.722 85.951C100.864 85.9268 101 85.8747 101.122 85.7977C101.243 85.7208 101.349 85.6206 101.431 85.5028C101.514 85.385 101.573 85.252 101.604 85.1114C101.635 84.9708 101.638 84.8255 101.613 84.6838C101.587 84.5421 101.534 84.4068 101.456 84.2857C99.6568 81.4334 96.9591 73.9103 99.1249 55.5707C99.3978 53.4126 99.843 51.2797 100.456 49.1926C105.384 42.5485 109.644 36.6769 110.714 35.105C112.833 31.9948 126.671 11.0577 127.805 7.93796C128.045 7.37636 128.074 6.74681 127.886 6.16551C127.699 5.58421 127.307 5.09046 126.784 4.77525ZM125.747 7.18C124.792 9.80608 112.074 29.2127 108.905 33.8645C108.161 34.9553 105.879 38.1277 102.898 42.1871C108.239 30.002 115.025 18.5027 123.11 7.93641C123.37 7.57334 123.7 7.26593 124.08 7.03235C124.461 6.79877 124.884 6.64374 125.325 6.57638C125.448 6.57098 125.569 6.59846 125.677 6.65599C125.819 6.74358 125.843 6.9204 125.747 7.18476V7.18Z" fill="white"/>
<path d="M154.71 68.4873V45.8415H145.709L141.122 59.4577L136.794 45.8415H127.477V68.4873H134.007V55.7025L138.112 68.4873H144.103L148.203 55.7025V68.4873H154.71ZM165.15 68.4873V45.8415H157.984V68.4873H165.15ZM191.316 59.601H184.235C184.239 60.4738 183.97 61.3258 183.464 62.0376C183.002 62.573 182.415 62.9865 181.755 63.2414C181.095 63.4964 180.383 63.585 179.681 63.4995C178.973 63.5682 178.259 63.4691 177.596 63.2101C176.934 62.9511 176.342 62.5396 175.868 62.0089C174.987 60.5768 174.604 58.8939 174.779 57.2218C174.633 55.6194 174.973 54.0102 175.753 52.6034C176.208 52.0281 176.802 51.5785 177.48 51.2976C178.157 51.0166 178.895 50.9135 179.623 50.9981C181.853 50.9981 182.92 51.5714 183.579 52.7181C183.972 53.4393 184.179 54.2472 184.181 55.0687H191.261C191.251 53.7865 191.058 52.5124 190.688 51.2848C189.685 48.0997 186.646 45.523 179.709 45.523C175.209 45.523 172.084 46.6378 170.078 48.8196C168.215 51.1737 167.295 54.1373 167.498 57.1326C167.498 61.1458 168.415 64.041 170.307 65.9329C172.282 67.8854 175.343 68.8058 179.563 68.8058C185.669 68.8058 188.85 67.0286 190.427 63.6747C190.991 62.3892 191.293 61.0044 191.316 59.601ZM215.624 68.4873V45.8415H208.658V54.2979H200.603V45.8415H193.638V68.4873H200.603V60.1457H208.658V68.4873H215.624ZM226.202 63.6715H234.314L235.977 68.4873H243.315L235.002 45.8415H226.084L217.201 68.4873H224.424L226.202 63.6715ZM232.709 58.913H227.922L229.928 53.5812L230.387 51.632L230.846 53.5175L232.709 58.913ZM264.413 68.4873V63.2129H251.771V59.859H263.811V54.473H251.771V51.1765H264.27V45.8415H244.92V68.4873H264.413ZM285.081 68.4873V62.8975H274.159V45.8415H267.072V68.4873H285.081ZM322.833 68.4873V45.8415H313.832L309.246 59.4577L304.917 45.8415H295.601V68.4873H302.13V55.7025L306.236 68.4873H312.227L316.326 55.7025V68.4873H322.833ZM337.281 45.4402C328.853 45.4402 325.127 49.826 325.127 57.0498C325.127 64.7895 328.911 68.8345 337.281 68.8345C345.623 68.8345 349.435 64.936 349.435 56.967C349.435 49.396 345.881 45.4402 337.281 45.4402ZM337.303 63.5282C333.978 63.5282 332.229 61.9229 332.229 57.1358C332.229 52.5779 333.548 50.8007 337.275 50.8007C341.144 50.8007 342.371 52.6353 342.371 57.1358C342.383 62.1809 340.52 63.5282 337.303 63.5282ZM374.091 68.4873C374.091 68.344 374.062 65.0475 374.062 62.2669V55.0718H361.987V59.945H367.663V61.1489C367.434 62.7829 365.657 63.9582 363.306 63.9582C362.504 64.0477 361.693 63.9342 360.947 63.628C360.2 63.3219 359.543 62.8331 359.035 62.2064C358.277 60.7201 357.94 59.0547 358.06 57.3906C357.853 55.5779 358.268 53.7487 359.236 52.2021C359.719 51.69 360.316 51.2987 360.978 51.0597C361.64 50.8207 362.349 50.7407 363.048 50.8261C363.647 50.7865 364.247 50.8732 364.81 51.0806C365.373 51.2881 365.886 51.6115 366.316 52.0301C366.785 52.543 367.066 53.2 367.112 53.8934H373.877C373.858 52.7025 373.615 51.5259 373.161 50.4248C371.842 47.4436 368.66 45.437 362.784 45.437C357.452 45.437 354.356 47.3289 352.722 49.7942C351.391 52.0334 350.752 54.6169 350.887 57.2186C350.771 59.8272 351.378 62.4173 352.639 64.7035C354.366 67.3726 357.49 68.8313 361.618 68.8313C362.838 68.9402 364.067 68.7986 365.231 68.4152C366.394 68.0318 367.467 67.4147 368.383 66.6018L368.676 68.4873H374.091ZM383.837 68.4873V45.8415H376.671V68.4873H383.837ZM405.136 68.4873V62.8975H394.214V45.8415H387.134V68.4873H405.136ZM425.001 68.4873V62.8975H414.079V45.8415H406.999V68.4873H425.001Z" fill="white"/>
</svg>
