<svg width="614" height="122" viewBox="0 0 614 122" fill="none" xmlns="http://www.w3.org/2000/svg">
<path d="M243.912 45.4946H257.07C261.426 45.4946 265.086 47.022 268.05 50.0772C271.015 53.1321 272.497 56.8982 272.497 61.3748C272.497 65.8817 271.015 69.6629 268.05 72.7179C265.116 75.7428 261.456 77.2553 257.07 77.2553H243.912V45.4946ZM253.44 68.4529H257.07C258.915 68.4529 260.435 67.7951 261.63 66.4793C262.825 65.1634 263.422 63.462 263.422 61.3748C263.422 59.2876 262.825 57.5862 261.63 56.2704C260.435 54.9548 258.915 54.2967 257.07 54.2967H253.44V68.4529Z" fill="white"/>
<path d="M311.971 77.2553H302.216L301.127 73.1716H291.962L290.873 77.2553H281.118L291.236 45.4946H301.853L311.971 77.2553ZM296.545 56.1571L293.913 65.912H299.176L296.545 56.1571Z" fill="white"/>
<path d="M339.059 77.2553H328.896L318.777 45.4946H328.759L333.977 65.6851L339.195 45.4946H349.177L339.059 77.2553Z" fill="white"/>
<path d="M369.594 65.3677V68.9067H381.391V77.2553H360.52V45.4946H381.164V53.7522H369.594V57.2007H380.03V65.3677H369.594Z" fill="white"/>
<path d="M440.375 77.2553H430.62L429.531 73.1716H420.366L419.277 77.2553H409.521L419.64 45.4946H430.257L440.375 77.2553ZM424.948 56.1571L422.317 65.912H427.58L424.948 56.1571Z" fill="white"/>
<path d="M460.337 45.4946V68.4529H470.772V77.2553H451.262V45.4946H460.337Z" fill="white"/>
<path d="M491.645 45.4946V68.4529H502.081V77.2553H482.57V45.4946H491.645Z" fill="white"/>
<path d="M539.968 77.2098H530.258L525.222 67.2278H522.953V77.2098H513.879V45.4492H526.583C530.031 45.4492 532.905 46.4775 535.204 48.5344C537.472 50.5611 538.607 53.2531 538.607 56.6108C538.607 58.4862 538.176 60.1799 537.314 61.6924C536.452 63.2049 535.249 64.43 533.707 65.3677L539.968 77.2098ZM526.402 53.7976H522.953V59.696H526.402C527.37 59.7262 528.133 59.4842 528.693 58.97C529.253 58.456 529.532 57.73 529.532 56.7922C529.532 55.8545 529.253 55.1211 528.693 54.5917C528.133 54.0624 527.37 53.7976 526.402 53.7976Z" fill="white"/>
<path d="M560.384 65.3677V68.9067H572.181V77.2553H551.31V45.4946H571.954V53.7522H560.384V57.2007H570.82V65.3677H560.384Z" fill="white"/>
<path d="M584.885 45.4946H598.043C602.399 45.4946 606.059 47.022 609.023 50.0772C611.988 53.1321 613.47 56.8982 613.47 61.3748C613.47 65.8817 611.988 69.6629 609.023 72.7179C606.089 75.7428 602.429 77.2553 598.043 77.2553H584.885V45.4946ZM594.414 68.4529H598.043C599.888 68.4529 601.408 67.7951 602.603 66.4793C603.798 65.1634 604.395 63.462 604.395 61.3748C604.395 59.2876 603.798 57.5862 602.603 56.2704C601.408 54.9548 599.888 54.2967 598.043 54.2967H594.414V68.4529Z" fill="white"/>
<path fill-rule="evenodd" clip-rule="evenodd" d="M200.249 121.956V0H207.614V121.956H200.249Z" fill="white"/>
<path fill-rule="evenodd" clip-rule="evenodd" d="M23.7522 39.9551C20.9183 39.9815 19.8094 39.9903 19.8094 39.9903V76.8572H0.306641V20.4521H40.8614C63.2597 20.4521 81.4159 38.6085 81.4159 61.0068C81.4159 83.3963 63.2597 101.561 40.8614 101.561H0.306641V82.0496L40.8614 82.0585C52.4874 82.0585 61.9131 72.6328 61.9131 61.0068C61.9131 49.372 52.4874 39.9551 40.8614 39.9551C40.8614 39.9551 26.6037 39.9199 23.7522 39.9551Z" fill="white"/>
<path fill-rule="evenodd" clip-rule="evenodd" d="M131.654 52.2764L161.217 101.561H132.305L117.194 76.3819L131.654 52.2764Z" fill="white"/>
<path fill-rule="evenodd" clip-rule="evenodd" d="M128.97 47.8053C128.97 47.8053 110.91 77.8955 111.544 76.8306L96.7144 101.561H67.7944L114.51 23.7085L128.97 47.8053Z" fill="white"/>
</svg>
