<svg width="478" height="119" viewBox="0 0 478 119" fill="none" xmlns="http://www.w3.org/2000/svg">
<path d="M62.0831 64.7043C62.0831 64.7043 49.5581 65.3856 48.0532 78.5877C48.0532 78.5877 45.1676 94.1309 61.7176 104.18C61.7176 104.18 35.6157 89.3804 37.0942 65.1697C37.0942 65.1697 38.1968 45.6499 44.9749 40.0156C44.9749 40.0149 38.1464 63.9112 62.0831 64.7043Z" fill="white"/>
<path d="M44.4563 41.0625C44.4563 41.0625 37.4696 49.5299 37.988 66.8718C38.5018 84.0675 54.498 110.981 86.9366 105.904C86.9366 105.904 77.6037 114.583 65.398 115.022C53.4722 115.451 25.8096 110.767 25.8096 73.7958C25.8105 73.7951 27.4658 52.9756 44.4563 41.0625Z" fill="white"/>
<path d="M65.2766 0C65.2766 0 54.4987 14.4533 43.9538 15.8474C32.1409 17.4092 6.35062 25.9028 2.26755 47.0876C2.26755 47.0876 5.15941 41.0617 9.3732 37.3709C9.3732 37.3709 -12.3967 66.1508 10.5464 98.0748C10.5464 98.0748 6.07694 87.2875 7.54901 81.7786C7.54901 81.7786 11.0539 115.021 57.4066 118.062C57.4066 118.062 26.3674 109.393 26.3674 75.01C26.3674 75.01 26.5391 53.5818 44.4549 41.0612C44.4549 41.0612 37.2968 62.9401 60.6542 64.7282C60.6542 64.7282 72.4967 63.7676 81.5621 72.8869C81.5621 72.8869 90.9362 84.0511 96.7137 83.5688C102.372 83.095 107.677 74.6086 103.562 66.1931C99.4463 57.7775 80.4524 27.8068 80.4524 27.8068C80.4524 27.8068 76.5854 21.5712 69.9274 21.5712C69.9274 21.5712 75.2931 17.9927 76.1819 7.95424C76.1819 7.95424 68.8289 16.1671 60.465 16.1671C60.4648 16.1667 65.2766 12.0489 65.2766 0Z" fill="white"/>
<path style="mix-blend-mode:multiply" opacity="0.33" d="M44.4558 41.0625C44.4558 41.0625 46.9803 60.0241 63.9294 59.0321C80.8785 58.04 84.1623 78.9156 92.8351 82.6014C92.8351 82.6014 85.7611 77.4368 79.653 71.1413C74.3503 65.6755 61.7631 64.7989 60.6544 64.7295C59.5546 64.6601 38.8595 64.4937 44.4558 41.0625Z" fill="white"/>
<path style="mix-blend-mode:screen" opacity="0.49" d="M1.48956 79.0114C1.48956 79.0114 0.603953 45.2616 27.7643 34.7144C27.7643 34.7144 22.5775 33.8352 18.1828 35.6812C18.1828 35.6812 26.0949 23.903 46.4858 20.3865C46.4858 20.3865 60.425 17.9342 65.2769 0C65.2769 0 53.5523 14.2974 43.9541 15.8474C34.3559 17.3974 6.93181 24.3865 2.26782 47.0878C4.04587 43.4559 6.45127 40.1666 9.37324 37.3712C9.37324 37.3712 -4.46906 56.072 1.48956 79.0114Z" fill="white"/>
<path style="mix-blend-mode:screen" opacity="0.39" d="M64.7249 21.3095C64.7249 21.3095 70.2622 24.7374 73.7775 30.0105C77.2929 35.2837 100.366 67.2346 100.366 67.2346C100.366 67.2346 104.19 74.42 101.927 80.7157C101.927 80.7157 107.872 73.9747 103.563 66.193C99.2541 58.4114 80.4533 27.8051 80.4533 27.8051C80.4533 27.8051 76.7654 20.2985 64.7249 21.3095Z" fill="white"/>
<path style="mix-blend-mode:multiply" opacity="0.91" d="M62.0826 64.7049C62.0826 64.7049 49.5576 65.3863 48.0527 78.5884C48.0527 78.5884 45.167 94.1316 61.717 104.181C61.717 104.181 37.8245 90.6438 38.0984 64.6534C38.0984 64.6534 37.517 50.257 44.4552 41.062C44.4552 41.0629 37.0328 63.8161 62.0826 64.7049Z" fill="white"/>
<path style="mix-blend-mode:multiply" opacity="0.77" d="M44.4559 41.0625C44.4559 41.0625 37.4692 49.5299 37.9876 66.8718C38.5015 84.0675 54.4976 110.981 86.9362 105.904C86.9362 105.904 77.6034 114.583 65.3976 115.022C53.472 115.451 26.4338 110.704 26.4338 73.7329C26.4348 73.732 27.4647 52.9756 44.4559 41.0625Z" fill="white"/>
<path d="M117.37 39.8855H128.269V58.3304H149.439V39.8855H160.338V89.3516H149.439V67.9721H128.269V89.3516H117.37V39.8855ZM167.799 72.3738C167.799 69.6723 168.288 67.2269 169.266 65.0377C170.244 62.8485 171.572 60.9854 173.249 59.4483C174.972 57.8647 176.975 56.6536 179.257 55.8152C181.586 54.9768 184.055 54.5576 186.663 54.5576C189.272 54.5576 191.717 54.9768 193.999 55.8152C196.328 56.6536 198.331 57.8647 200.008 59.4483C201.731 60.9854 203.082 62.8485 204.06 65.0377C205.038 67.2269 205.527 69.6723 205.527 72.3738C205.527 75.0753 205.038 77.5207 204.06 79.7099C203.082 81.899 201.731 83.7855 200.008 85.3691C198.331 86.9062 196.328 88.0939 193.999 88.9324C191.717 89.7708 189.272 90.19 186.663 90.19C184.055 90.19 181.586 89.7708 179.257 88.9324C176.975 88.0939 174.972 86.9062 173.249 85.3691C171.572 83.7855 170.244 81.899 169.266 79.7099C168.288 77.5207 167.799 75.0753 167.799 72.3738ZM178.279 72.3738C178.279 74.9356 179.001 77.0083 180.445 78.592C181.936 80.1756 184.008 80.9675 186.663 80.9675C189.318 80.9675 191.368 80.1756 192.812 78.592C194.302 77.0083 195.047 74.9356 195.047 72.3738C195.047 69.812 194.302 67.7393 192.812 66.1556C191.368 64.5719 189.318 63.7801 186.663 63.7801C184.008 63.7801 181.936 64.5719 180.445 66.1556C179.001 67.7393 178.279 69.812 178.279 72.3738ZM211.7 55.396H222.18V60.8457H222.32C223.438 58.7497 224.766 57.1893 226.303 56.1646C227.84 55.0933 229.773 54.5576 232.102 54.5576C232.707 54.5576 233.313 54.5809 233.918 54.6275C234.524 54.6741 235.083 54.7672 235.595 54.9069V64.4788C234.85 64.2459 234.104 64.0829 233.359 63.9897C232.661 63.85 231.915 63.7801 231.123 63.7801C229.121 63.7801 227.537 64.0596 226.372 64.6185C225.208 65.1775 224.3 65.9693 223.648 66.994C223.042 67.9721 222.646 69.1599 222.46 70.5572C222.274 71.9546 222.18 73.4917 222.18 75.1685V89.3516H211.7V55.396ZM259.366 65.3871C257.829 63.4773 255.802 62.5225 253.287 62.5225C252.402 62.5225 251.541 62.7321 250.702 63.1513C249.864 63.5705 249.445 64.2925 249.445 65.3172C249.445 66.1556 249.864 66.7844 250.702 67.2036C251.587 67.5762 252.682 67.9256 253.986 68.2516C255.337 68.5311 256.757 68.8571 258.248 69.2298C259.785 69.5558 261.206 70.0915 262.51 70.8367C263.861 71.582 264.955 72.6067 265.794 73.9109C266.678 75.1685 267.121 76.8686 267.121 79.0112C267.121 81.2004 266.632 83.0169 265.654 84.4608C264.722 85.8582 263.511 86.9994 262.021 87.8843C260.53 88.7228 258.853 89.305 256.99 89.631C255.127 90.0037 253.287 90.19 251.471 90.19C249.095 90.19 246.696 89.8639 244.274 89.2118C241.852 88.5132 239.803 87.3021 238.126 85.5787L244.484 78.5221C245.462 79.7332 246.533 80.6647 247.698 81.3168C248.909 81.9223 250.306 82.2251 251.89 82.2251C253.101 82.2251 254.196 82.0621 255.174 81.736C256.152 81.3634 256.641 80.7113 256.641 79.7797C256.641 78.8947 256.198 78.2427 255.313 77.8234C254.475 77.3577 253.38 76.985 252.03 76.7056C250.725 76.3795 249.305 76.0535 247.768 75.7274C246.277 75.3548 244.857 74.8191 243.506 74.1205C242.202 73.4218 241.107 72.4437 240.222 71.186C239.384 69.8819 238.964 68.1585 238.964 66.0159C238.964 64.013 239.36 62.2896 240.152 60.8457C240.991 59.4017 242.062 58.214 243.366 57.2824C244.717 56.3509 246.254 55.6755 247.977 55.2563C249.701 54.7905 251.447 54.5576 253.217 54.5576C255.453 54.5576 257.712 54.8837 259.995 55.5358C262.277 56.1878 264.21 57.3523 265.794 59.0291L259.366 65.3871ZM304.632 83.4827C302.955 85.6253 300.836 87.2788 298.274 88.4433C295.712 89.6077 293.057 90.19 290.309 90.19C287.701 90.19 285.232 89.7708 282.903 88.9324C280.621 88.0939 278.618 86.9062 276.895 85.3691C275.218 83.7855 273.89 81.899 272.912 79.7099C271.934 77.5207 271.445 75.0753 271.445 72.3738C271.445 69.6723 271.934 67.2269 272.912 65.0377C273.89 62.8485 275.218 60.9854 276.895 59.4483C278.618 57.8647 280.621 56.6536 282.903 55.8152C285.232 54.9768 287.701 54.5576 290.309 54.5576C292.731 54.5576 294.921 54.9768 296.877 55.8152C298.88 56.6536 300.557 57.8647 301.907 59.4483C303.305 60.9854 304.376 62.8485 305.121 65.0377C305.866 67.2269 306.239 69.6723 306.239 72.3738V75.6576H281.925C282.344 77.6604 283.253 79.2674 284.65 80.4784C286.047 81.6429 287.771 82.2251 289.82 82.2251C291.544 82.2251 292.988 81.8525 294.152 81.1072C295.363 80.3154 296.411 79.3139 297.296 78.1029L304.632 83.4827ZM295.759 68.5311C295.806 66.7611 295.223 65.2473 294.012 63.9897C292.801 62.7321 291.241 62.1033 289.331 62.1033C288.167 62.1033 287.142 62.2896 286.257 62.6622C285.372 63.0349 284.603 63.5239 283.951 64.1294C283.346 64.6884 282.857 65.3638 282.484 66.1556C282.158 66.9008 281.972 67.6927 281.925 68.5311H295.759ZM346.288 52.7411C345.217 51.4369 343.89 50.4354 342.306 49.7368C340.769 49.0381 338.976 48.6888 336.926 48.6888C334.877 48.6888 332.967 49.0847 331.197 49.8765C329.474 50.6683 327.96 51.7862 326.656 53.2301C325.398 54.6275 324.397 56.3043 323.651 58.2606C322.953 60.2169 322.603 62.3362 322.603 64.6185C322.603 66.9474 322.953 69.09 323.651 71.0463C324.397 72.956 325.398 74.6328 326.656 76.0768C327.913 77.4741 329.38 78.5687 331.057 79.3605C332.781 80.1524 334.621 80.5483 336.577 80.5483C338.813 80.5483 340.792 80.0825 342.516 79.1509C344.239 78.2194 345.66 76.9152 346.777 75.2384L355.86 82.0155C353.764 84.9499 351.109 87.1158 347.895 88.5132C344.681 89.9105 341.374 90.6092 337.974 90.6092C334.108 90.6092 330.545 90.0037 327.284 88.7926C324.024 87.5816 321.206 85.8582 318.83 83.6224C316.455 81.3401 314.592 78.592 313.241 75.3781C311.937 72.1642 311.285 68.5777 311.285 64.6185C311.285 60.6594 311.937 57.0728 313.241 53.8589C314.592 50.645 316.455 47.9202 318.83 45.6845C321.206 43.4021 324.024 41.6554 327.284 40.4444C330.545 39.2334 334.108 38.6279 337.974 38.6279C339.371 38.6279 340.815 38.7676 342.306 39.0471C343.843 39.2799 345.334 39.6759 346.777 40.2348C348.268 40.7937 349.689 41.539 351.039 42.4706C352.39 43.4021 353.601 44.5433 354.672 45.8941L346.288 52.7411ZM360.581 36.5318H371.061V89.3516H360.581V36.5318ZM399.9 85.0897H399.76C398.596 86.9062 397.036 88.2104 395.079 89.0022C393.17 89.7941 391.143 90.19 389.001 90.19C387.417 90.19 385.88 89.9571 384.39 89.4913C382.946 89.0721 381.665 88.42 380.547 87.535C379.429 86.65 378.544 85.5554 377.892 84.2512C377.24 82.9471 376.914 81.4333 376.914 79.7099C376.914 77.7536 377.263 76.1001 377.962 74.7493C378.707 73.3985 379.685 72.2806 380.896 71.3956C382.154 70.5107 383.574 69.8353 385.158 69.3695C386.742 68.8571 388.372 68.4845 390.049 68.2516C391.772 68.0187 393.472 67.879 395.149 67.8324C396.873 67.7858 398.456 67.7625 399.9 67.7625C399.9 65.8994 399.225 64.4322 397.874 63.3609C396.57 62.243 395.009 61.6841 393.193 61.6841C391.469 61.6841 389.886 62.0567 388.442 62.802C387.044 63.5006 385.787 64.4788 384.669 65.7364L379.08 60.0073C381.036 58.1907 383.318 56.8399 385.927 55.955C388.535 55.0234 391.237 54.5576 394.031 54.5576C397.105 54.5576 399.621 54.9535 401.577 55.7454C403.58 56.4906 405.163 57.6085 406.328 59.099C407.539 60.5895 408.377 62.4293 408.843 64.6185C409.309 66.7611 409.542 69.253 409.542 72.0943V89.3516H399.9V85.0897ZM397.315 74.4698C396.523 74.4698 395.522 74.5164 394.311 74.6095C393.146 74.6561 392.005 74.8424 390.887 75.1685C389.816 75.4945 388.884 75.9836 388.093 76.6357C387.347 77.2878 386.975 78.1961 386.975 79.3605C386.975 80.6181 387.51 81.5497 388.582 82.1552C389.653 82.7607 390.771 83.0635 391.935 83.0635C392.96 83.0635 393.938 82.9238 394.87 82.6443C395.848 82.3648 396.709 81.9689 397.455 81.4565C398.2 80.9442 398.782 80.2921 399.201 79.5003C399.667 78.7084 399.9 77.7769 399.9 76.7056V74.4698H397.315ZM435.33 65.3871C433.793 63.4773 431.767 62.5225 429.252 62.5225C428.367 62.5225 427.505 62.7321 426.667 63.1513C425.829 63.5705 425.409 64.2925 425.409 65.3172C425.409 66.1556 425.829 66.7844 426.667 67.2036C427.552 67.5762 428.647 67.9256 429.951 68.2516C431.301 68.5311 432.722 68.8571 434.213 69.2298C435.75 69.5558 437.17 70.0915 438.475 70.8367C439.825 71.582 440.92 72.6067 441.758 73.9109C442.643 75.1685 443.086 76.8686 443.086 79.0112C443.086 81.2004 442.597 83.0169 441.619 84.4608C440.687 85.8582 439.476 86.9994 437.985 87.8843C436.495 88.7228 434.818 89.305 432.955 89.631C431.092 90.0037 429.252 90.19 427.435 90.19C425.06 90.19 422.661 89.8639 420.239 89.2118C417.817 88.5132 415.768 87.3021 414.091 85.5787L420.449 78.5221C421.427 79.7332 422.498 80.6647 423.663 81.3168C424.874 81.9223 426.271 82.2251 427.855 82.2251C429.066 82.2251 430.16 82.0621 431.138 81.736C432.117 81.3634 432.606 80.7113 432.606 79.7797C432.606 78.8947 432.163 78.2427 431.278 77.8234C430.44 77.3577 429.345 76.985 427.994 76.7056C426.69 76.3795 425.27 76.0535 423.733 75.7274C422.242 75.3548 420.821 74.8191 419.471 74.1205C418.166 73.4218 417.072 72.4437 416.187 71.186C415.348 69.8819 414.929 68.1585 414.929 66.0159C414.929 64.013 415.325 62.2896 416.117 60.8457C416.955 59.4017 418.027 58.214 419.331 57.2824C420.682 56.3509 422.219 55.6755 423.942 55.2563C425.666 54.7905 427.412 54.5576 429.182 54.5576C431.418 54.5576 433.677 54.8837 435.959 55.5358C438.242 56.1878 440.175 57.3523 441.758 59.0291L435.33 65.3871ZM467.671 65.3871C466.134 63.4773 464.108 62.5225 461.593 62.5225C460.708 62.5225 459.846 62.7321 459.008 63.1513C458.169 63.5705 457.75 64.2925 457.75 65.3172C457.75 66.1556 458.169 66.7844 459.008 67.2036C459.893 67.5762 460.987 67.9256 462.292 68.2516C463.642 68.5311 465.063 68.8571 466.554 69.2298C468.091 69.5558 469.511 70.0915 470.815 70.8367C472.166 71.582 473.261 72.6067 474.099 73.9109C474.984 75.1685 475.427 76.8686 475.427 79.0112C475.427 81.2004 474.938 83.0169 473.96 84.4608C473.028 85.8582 471.817 86.9994 470.326 87.8843C468.836 88.7228 467.159 89.305 465.296 89.631C463.433 90.0037 461.593 90.19 459.776 90.19C457.401 90.19 455.002 89.8639 452.58 89.2118C450.158 88.5132 448.109 87.3021 446.432 85.5787L452.79 78.5221C453.768 79.7332 454.839 80.6647 456.004 81.3168C457.215 81.9223 458.612 82.2251 460.196 82.2251C461.407 82.2251 462.501 82.0621 463.479 81.736C464.458 81.3634 464.947 80.7113 464.947 79.7797C464.947 78.8947 464.504 78.2427 463.619 77.8234C462.781 77.3577 461.686 76.985 460.335 76.7056C459.031 76.3795 457.611 76.0535 456.073 75.7274C454.583 75.3548 453.162 74.8191 451.812 74.1205C450.507 73.4218 449.413 72.4437 448.528 71.186C447.689 69.8819 447.27 68.1585 447.27 66.0159C447.27 64.013 447.666 62.2896 448.458 60.8457C449.296 59.4017 450.368 58.214 451.672 57.2824C453.023 56.3509 454.56 55.6755 456.283 55.2563C458.006 54.7905 459.753 54.5576 461.523 54.5576C463.759 54.5576 466.018 54.8837 468.3 55.5358C470.583 56.1878 472.516 57.3523 474.099 59.0291L467.671 65.3871Z" fill="white"/>
</svg>
