<svg width="490" height="168" viewBox="0 0 490 168" fill="none" xmlns="http://www.w3.org/2000/svg">
<path d="M0.00778983 35.8164H120.737C120.759 36.3088 120.798 36.7875 120.798 37.2662C120.8 60.3924 120.937 83.5185 120.754 106.642C120.625 122.812 115.745 137.343 104.415 149.283C96.2107 157.927 86.1303 163.322 74.5098 165.759C60.6325 168.673 47.0205 167.707 34.0021 161.905C18.6093 155.047 8.5946 143.257 3.32324 127.366C1.11294 120.713 0.0351451 113.847 0.0214674 106.844C-0.0168299 83.8112 0.00778983 60.7781 0.00778983 37.7422V35.8164ZM5.35027 41.1808V43.0847C5.35027 63.8391 5.26273 84.5963 5.41592 105.351C5.45148 110.094 5.86728 114.928 6.87122 119.556C10.6599 137.006 20.3765 149.978 36.9428 157.265C48.6016 162.395 60.8021 163.125 73.2077 160.611C83.5124 158.524 92.5314 153.868 99.8735 146.312C110.353 135.529 115.184 122.311 115.343 107.49C115.578 85.871 115.403 64.2494 115.4 42.6306C115.4 42.1519 115.357 41.6759 115.332 41.1835H5.34753L5.35027 41.1808Z" fill="white"/>
<path d="M38.2431 29.2674C39.7476 28.3893 41.2522 27.5084 42.9017 26.5455C39.7312 18.0763 36.5717 9.63725 33.2754 0.831599C38.8969 4.07046 44.2202 7.13425 49.6721 10.2746C53.2037 6.88531 56.738 3.49326 60.379 0C63.9762 3.45223 67.5077 6.84155 71.0967 10.2856C76.4994 7.17254 81.8474 4.09234 87.5236 0.823393C84.2409 9.57707 81.0759 18.008 77.8836 26.5209C79.4647 27.4592 81.0021 28.3701 82.865 29.4725H38.3279C38.3005 29.4014 38.2705 29.333 38.2431 29.2619V29.2674ZM53.9231 25.0191C53.9587 25.1121 53.997 25.2079 54.0325 25.3009C54.2104 25.3227 54.3909 25.361 54.5687 25.361C60.6717 25.3638 66.7746 25.3528 72.8803 25.3829C73.6627 25.3857 73.9827 25.082 74.2399 24.3845C75.7936 20.1663 77.3994 15.9645 78.9778 11.7545C79.1146 11.3907 79.1912 11.0077 79.3799 10.3321C70.7192 15.3271 62.3212 20.1718 53.9259 25.0164L53.9231 25.0191ZM46.5782 24.4364C49.8144 22.5653 52.9219 20.7708 56.2073 18.8696C51.204 15.9864 46.4415 13.2427 41.6789 10.4989C41.5969 10.5755 41.5148 10.6494 41.4327 10.726C43.1287 15.2423 44.822 19.756 46.5782 24.4337V24.4364ZM53.8958 12.7065C55.7176 13.7624 57.8185 14.9934 59.9413 16.1861C60.1711 16.3147 60.5978 16.3229 60.8249 16.197C62.9421 15.0098 65.0376 13.7788 66.8676 12.7175C64.7284 10.3649 62.6412 8.06432 60.3571 5.55038C58.0948 8.05338 56.0131 10.3594 53.8958 12.7065Z" fill="white"/>
<path d="M12.8253 48.8755H107.912C107.939 49.3405 107.981 49.7372 107.981 50.1366C107.972 69.2524 108.175 88.371 107.877 107.484C107.669 120.768 103.051 132.397 92.7929 141.336C86.3425 146.955 78.746 150.208 70.3534 151.562C59.6165 153.296 49.0655 152.642 39.0508 148.098C24.8397 141.654 16.5757 130.457 13.7198 115.261C13.0852 111.888 12.8828 108.395 12.8664 104.954C12.7843 86.8856 12.8281 68.8147 12.8281 50.7466V48.8782L12.8253 48.8755ZM63.6185 123.052V121.011C63.6185 99.6167 63.6185 78.2222 63.6185 56.8277C63.6185 56.3736 63.6869 55.8976 63.5748 55.4708C63.5064 55.2055 63.1644 54.8198 62.9401 54.817C60.7216 54.7678 58.5031 54.787 56.0822 54.787V123.022H25.592V54.2563H18.2608C18.2362 54.6857 18.2034 55.0003 18.2034 55.3149C18.2034 72.6116 18.1158 89.9111 18.2362 107.208C18.2964 115.871 20.772 123.87 25.83 131.007C26.4564 131.893 27.1294 132.194 28.1935 132.191C44.3249 132.159 60.459 132.169 76.5904 132.169C82.1052 132.169 87.62 132.191 93.1321 132.134C93.7093 132.128 94.5026 131.803 94.8254 131.36C99.4347 125.008 102.181 117.876 102.269 110.053C102.468 91.9381 102.332 73.818 102.332 55.7034V54.2508H94.8309V123.052H63.6185ZM69.0157 117.786H89.3543V54.2508H69.0157V117.786ZM50.7397 117.822V54.2535H31.0603V117.822H50.7424H50.7397ZM88.7279 137.657H32.2913C46.6939 150.596 75.4524 149.789 88.7306 137.657H88.7279Z" fill="white"/>
<path d="M114.596 167.351C111.231 167.266 108.567 164.465 108.651 161.101C108.736 157.736 111.537 155.071 114.902 155.156C118.297 155.241 120.931 158.012 120.846 161.407C120.762 164.802 117.988 167.436 114.596 167.351ZM114.88 156.078C112.005 156.004 109.644 158.247 109.573 161.125C109.502 164.003 111.743 166.361 114.62 166.432C117.498 166.503 119.856 164.233 119.927 161.385C120.001 158.51 117.728 156.149 114.88 156.078ZM116.33 164.804L114.587 161.998L113.378 161.968L113.307 164.728L112.331 164.703L112.508 157.714L115.356 157.785C116.535 157.815 117.607 158.677 117.575 159.971C117.536 161.525 116.141 162.006 115.739 161.998L117.539 164.835L116.33 164.804ZM115.334 158.65L113.466 158.603L113.403 161.076L115.271 161.122C115.876 161.139 116.549 160.666 116.568 159.946C116.587 159.169 115.939 158.663 115.334 158.65Z" fill="white"/>
<path d="M171.493 12.3159H175.289V154.644C175.181 154.73 175.144 154.785 175.101 154.792C171.527 155.314 171.493 155.289 171.493 151.771V12.3159Z" fill="white"/>
<path d="M251.445 60.4218C250.507 63.9066 245.369 66.4979 239.07 66.7212H236.3V53.6309C242.912 53.8989 245.146 54.3904 245.369 55.552H245.727L244.654 49.4759H244.297C244.52 50.8162 242.51 51.1736 236.3 51.397V39.5576H237.64C243.939 39.781 248.765 41.568 249.256 43.8913H249.613L248.139 37.5024H227.722V37.8599C228.973 37.8599 229.464 40.4511 229.732 48.5823V57.6965C229.464 65.8277 228.973 68.419 227.722 68.419V68.7764H249.569L251.803 60.4218H251.445Z" fill="white"/>
<path d="M280.447 60.4218C279.509 63.9066 274.371 66.4979 268.071 66.7212H266.195V48.5823C266.195 40.4511 266.686 37.8599 268.205 37.8599V37.5024H257.617V37.8599C258.868 37.8599 259.359 40.4511 259.627 48.5823V57.6965C259.359 65.8277 258.868 68.419 257.617 68.419V68.7764H278.57L280.804 60.4218H280.447Z" fill="white"/>
<path d="M296.748 37.8599V37.5024H286.16V37.8599C287.411 37.8599 287.902 40.4511 288.17 48.5823V57.6965C287.902 65.8277 287.411 68.419 286.16 68.419V68.7764H296.748V68.419C295.229 68.419 294.738 65.8277 294.738 57.6965V48.5823C294.738 40.4511 295.229 37.8599 296.748 37.8599Z" fill="white"/>
<path d="M313.698 69.2232C319.193 69.2232 325.716 66.0064 325.716 60.3771C325.716 54.2117 320.578 51.1289 314.725 49.2525C310.749 48.0015 307.756 47.1527 307.756 44.2933C307.756 41.2553 309.9 39.1108 312.983 39.1108C317.629 39.1108 322.678 42.7297 323.303 46.9293H323.661L323.616 40.4958C321.025 38.4407 317.049 37.0557 312.983 37.0557C307.89 37.0557 302.35 40.4511 302.35 46.0358C302.35 50.9056 305.388 53.8096 310.168 55.5073C314.949 57.205 319.193 58.6794 319.193 62.7003C319.193 65.3363 317.093 67.168 313.608 67.168C308.962 67.168 303.288 62.745 302.484 57.071H302.126L302.171 65.7383C304.762 67.7935 309.498 69.2232 313.698 69.2232Z" fill="white"/>
<path d="M355.466 57.6965L347.335 37.5024H344.833L336.076 59.2155C333.217 66.1404 331.787 68.419 330.626 68.419V68.7764H337.193V68.419C336.121 68.419 336.031 67.0787 337.148 63.3705H349.971C351.132 67.0787 351.132 68.419 350.239 68.419V68.7764H361.765V68.419C360.246 68.419 358.638 65.8277 355.466 57.6965ZM337.819 61.3153C338.042 60.6452 338.31 59.8856 338.623 59.0815L343.627 46.6612L348.184 57.9199C348.63 59.1708 348.988 60.3324 349.345 61.3153H337.819Z" fill="white"/>
<path d="M386.688 51.9778C389.949 50.6375 391.781 48.2696 391.736 45.0529C391.692 40.6298 387.715 37.5024 381.014 37.5024H367.119V37.8599C368.37 37.8599 368.862 40.4511 369.13 48.5823V57.6965C368.862 65.8277 368.37 68.419 367.119 68.419V68.7764H382.354C389.056 68.7764 393.032 65.649 393.077 60.3324C393.121 56.0434 390.798 53.2734 386.688 51.9778ZM375.697 39.5576H378.021C381.282 39.5576 383.829 42.2829 384.097 45.2762C384.365 48.7611 382.31 51.1736 379.048 51.1736H375.697V39.5576ZM381.773 66.7212H375.697V53.2288H380.567C383.829 53.2288 386.331 55.7307 386.733 60.109C387.045 63.9959 384.99 66.7212 381.773 66.7212Z" fill="white"/>
<path d="M422.832 60.4218C421.894 63.9066 416.756 66.4979 410.457 66.7212H407.687V53.6309C414.299 53.8989 416.533 54.3904 416.756 55.552H417.114L416.041 49.4759H415.684C415.907 50.8162 413.897 51.1736 407.687 51.397V39.5576H409.027C415.327 39.781 420.152 41.568 420.643 43.8913H421.001L419.526 37.5024H399.109V37.8599C400.36 37.8599 400.851 40.4511 401.119 48.5823V57.6965C400.851 65.8277 400.36 68.419 399.109 68.419V68.7764H420.956L423.19 60.4218H422.832Z" fill="white"/>
<path d="M455.006 37.5024H428.245L427.664 43.8913H428.021C428.513 41.568 432.757 39.781 438.297 39.5576H438.342V57.6965C438.074 65.8277 437.582 68.419 436.331 68.419V68.7764H446.92V68.419C445.401 68.419 444.909 65.8277 444.909 57.6965V39.5576H444.954C450.494 39.781 454.738 41.568 455.23 43.8913H455.587L455.006 37.5024Z" fill="white"/>
<path d="M488.94 37.8599V37.5024H478.351V37.8599C479.602 37.8599 480.094 40.4511 480.362 48.5823V52.1118H468.612V48.5823C468.612 40.4511 469.103 37.8599 470.622 37.8599V37.5024H460.034V37.8599C461.285 37.8599 461.776 40.4511 462.044 48.5823V57.6965C461.776 65.8277 461.285 68.419 460.034 68.419V68.7764H470.622V68.419C469.103 68.419 468.612 65.8277 468.612 57.6965V54.167H480.362V57.6965C480.094 65.8277 479.602 68.419 478.351 68.419V68.7764H488.94V68.419C487.421 68.419 486.929 65.8277 486.929 57.6965V48.5823C486.929 40.4511 487.421 37.8599 488.94 37.8599Z" fill="white"/>
<path d="M241.632 85.3949H228.26V85.86C229.888 85.86 230.527 89.2322 230.876 99.814V111.675C230.527 122.257 229.888 125.629 228.26 125.629V126.094H241.632C256.807 126.094 265.47 117.663 265.412 105.744C265.47 93.8254 256.807 85.3949 241.632 85.3949ZM243.202 123.419H239.423V88.0694H240.237C248.784 88.1275 255.412 95.5115 256.342 105.744C257.214 115.977 251.807 123.419 243.202 123.419Z" fill="white"/>
<path d="M300.329 111.675L289.747 85.3949H286.492L275.096 113.652C271.375 122.664 269.514 125.629 268.003 125.629V126.094H276.549V125.629C275.154 125.629 275.038 123.884 276.491 119.059H293.178C294.689 123.884 294.689 125.629 293.527 125.629V126.094H308.527V125.629C306.55 125.629 304.457 122.257 300.329 111.675ZM277.363 116.384C277.654 115.512 278.003 114.524 278.41 113.477L284.922 97.3139L290.852 111.965C291.434 113.593 291.899 115.105 292.364 116.384H277.363Z" fill="white"/>
<path d="M353.291 85.3949V85.86C356.198 85.86 354.047 91.2672 344.744 114.175C337.942 91.3835 336.139 85.86 338.639 85.86V85.3949H324.22V85.86C326.139 85.86 327.651 88.1857 331.837 99.9884C330.558 103.884 328.988 108.651 327.302 114.175C318.755 91.3835 316.953 85.86 319.453 85.86V85.3949H305.034V85.86C307.941 85.86 309.859 91.0927 323.232 126.094H326.488L333.407 104.523C335.325 109.989 337.651 117.024 340.674 126.094H343.93L354.745 97.8371C358.233 88.709 360.326 85.86 361.838 85.86V85.3949H353.291Z" fill="white"/>
<path d="M380.403 126.675C387.554 126.675 396.043 122.489 396.043 115.163C396.043 107.14 389.356 103.128 381.74 100.686C376.565 99.0581 372.67 97.9534 372.67 94.2324C372.67 90.2788 375.461 87.488 379.472 87.488C385.519 87.488 392.089 92.1974 392.903 97.6627H393.368L393.31 89.2904C389.938 86.6159 384.763 84.8135 379.472 84.8135C372.844 84.8135 365.635 89.2322 365.635 96.4999C365.635 102.837 369.588 106.616 375.809 108.826C382.031 111.035 387.554 112.954 387.554 118.187C387.554 121.617 384.821 124.001 380.286 124.001C374.24 124.001 366.856 118.245 365.809 110.861H365.344L365.402 122.14C368.774 124.815 374.937 126.675 380.403 126.675Z" fill="white"/>
<path d="M424.293 126.675C436.561 126.675 445.224 118.012 445.166 105.744C445.224 93.4765 436.561 84.8135 424.293 84.8135C412.025 84.8135 403.304 93.4765 403.304 105.744C403.304 118.012 412.025 126.675 424.293 126.675ZM425.805 124.001C419.177 124.001 413.886 116.442 413.014 105.744C412.025 94.9882 416.037 87.4298 422.665 87.488C429.235 87.4298 434.584 94.9882 435.514 105.744C436.445 116.442 432.433 124.001 425.805 124.001Z" fill="white"/>
<path d="M489.91 85.3949H482.002V85.86C483.63 85.86 484.27 89.2322 484.619 99.814V113.07L458.862 85.3949H452.99V85.86C454.618 85.86 455.606 89.2322 455.606 99.814V111.675C455.257 122.257 454.618 125.629 452.99 125.629V126.094H460.897V125.629C458.92 125.629 458.63 122.257 458.281 111.675V99.0581L484.037 126.094H487.293V99.814C487.642 89.2322 487.933 85.86 489.91 85.86V85.3949Z" fill="white"/>
</svg>
