<svg width="447" height="155" viewBox="0 0 447 155" fill="none" xmlns="http://www.w3.org/2000/svg">
<path d="M431.174 40.1979C430.377 40.1979 429.515 40.2304 428.604 40.2792C426.637 40.3768 425.19 40.6207 424.214 41.0272C423.255 41.4174 422.458 42.1004 421.84 43.076C421.255 43.9704 420.832 45.1737 420.523 46.7022L420.1 46.6697L420.458 39.645H446.199L446.556 46.6697L446.134 46.7022C445.792 44.946 445.256 43.5964 444.524 42.6858C443.792 41.7752 442.735 41.1247 441.337 40.7345C440.166 40.393 438.15 40.2141 435.336 40.2141V59.6621C435.336 60.9629 435.401 61.9223 435.564 62.5565C435.71 63.1907 435.987 63.6948 436.377 64.1176C436.735 64.4916 437.141 64.7517 437.597 64.9143C438.052 65.0769 438.637 65.1745 439.369 65.2233V65.6461H427.206V65.2233C427.938 65.1908 428.539 65.0769 428.995 64.9143C429.45 64.7517 429.84 64.4916 430.198 64.1176C430.588 63.711 430.865 63.1907 430.995 62.5728C431.141 61.9549 431.223 60.9792 431.223 59.6783V40.2304L431.174 40.1979ZM399.888 65.516L399.953 57.6295L400.408 57.7108C400.945 59.7109 401.579 61.2882 402.327 62.4427C403.709 64.5729 405.465 65.6298 407.563 65.6298C409.026 65.6298 410.246 65.142 411.189 64.1663C412.149 63.1907 412.62 61.9549 412.62 60.4589C412.62 59.8084 412.523 59.1417 412.295 58.475C412.084 57.7921 411.807 57.223 411.449 56.7351C411.075 56.2473 410.555 55.7595 409.888 55.3042C409.222 54.8489 408.197 54.2635 406.815 53.5643C405.595 52.9626 404.669 52.4423 404.034 52.0195C403.384 51.5967 402.864 51.1739 402.473 50.7512C401.384 49.5479 400.831 48.1006 400.831 46.377C400.831 45.32 401.042 44.3119 401.481 43.3362C401.904 42.3606 402.506 41.515 403.27 40.8158C404.62 39.58 406.23 38.9458 408.083 38.9458C408.685 38.9458 409.238 39.0108 409.758 39.1247C410.262 39.2548 410.945 39.4824 411.807 39.8401C412.441 40.1003 412.88 40.2629 413.108 40.328C413.336 40.393 413.547 40.4255 413.726 40.4255C414.165 40.4255 414.474 40.1003 414.62 39.4499H415.043L415.157 47.0112H414.734C414.393 45.8079 414.1 44.8647 413.84 44.2306C413.596 43.5801 413.303 42.9947 412.962 42.4419C412.344 41.45 411.644 40.7182 410.896 40.2304C410.148 39.7588 409.27 39.5149 408.295 39.5149C406.864 39.5149 405.742 40.0028 404.912 40.9621C404.571 41.3524 404.295 41.824 404.099 42.3606C403.904 42.8972 403.807 43.4338 403.807 43.9704C403.807 46.1006 405.173 47.8079 407.904 49.1088L410.588 50.4097C412.669 51.3853 414.165 52.4748 415.076 53.6618C416.116 54.9952 416.637 56.5237 416.637 58.2799C416.637 59.4507 416.409 60.5564 415.921 61.6134C415.254 63.0931 414.262 64.2314 412.945 65.0282C411.612 65.8249 410.067 66.2315 408.262 66.2315C406.62 66.2315 405.043 65.9062 403.53 65.2558C402.734 64.8981 402.262 64.7029 402.116 64.6542C401.969 64.6054 401.79 64.5729 401.595 64.5729C400.977 64.5729 400.555 64.8818 400.327 65.4835H399.904L399.888 65.516ZM395.4 39.6125V40.0353C394.684 40.0678 394.099 40.1816 393.644 40.3442C393.188 40.5068 392.798 40.767 392.44 41.141C391.953 41.6451 391.644 42.3606 391.53 43.2549C391.449 43.9379 391.416 44.7021 391.416 45.5802V59.6296C391.416 60.6865 391.465 61.5158 391.562 62.1337C391.66 62.7354 391.823 63.2395 392.066 63.5972C392.392 64.1176 392.814 64.4916 393.335 64.7355C393.855 64.9794 394.538 65.1257 395.416 65.1908V65.6135H383.286V65.1908C384.017 65.1582 384.619 65.0444 385.074 64.8818C385.53 64.7029 385.92 64.4428 386.261 64.085C386.668 63.6785 386.944 63.1582 387.074 62.5403C387.204 61.9223 387.286 60.9467 387.286 59.6458V45.5965C387.286 44.2794 387.221 43.32 387.074 42.702C386.928 42.0841 386.652 41.5638 386.261 41.1573C385.92 40.7833 385.513 40.5231 385.058 40.3605C384.603 40.1979 384.017 40.1003 383.286 40.0515V39.6288H395.416L395.4 39.6125ZM364.065 39.6125V40.0353C363.334 40.0678 362.748 40.1816 362.277 40.3442C361.821 40.5068 361.415 40.767 361.073 41.141C360.651 41.5638 360.374 42.1004 360.244 42.7346C360.114 43.3687 360.049 44.4582 360.049 46.0193V56.8002C360.049 58.5564 360.114 59.8247 360.244 60.6052C360.374 61.3857 360.651 62.1012 361.057 62.7679C361.675 63.7761 362.423 64.5078 363.317 64.9469C364.212 65.4022 365.35 65.6298 366.716 65.6298C368.082 65.6298 369.301 65.4347 370.505 65.0282C371.708 64.6216 372.716 64.0688 373.513 63.3533C374.001 62.9142 374.375 62.4264 374.602 61.9061C374.846 61.3857 374.993 60.7353 375.074 59.9223C375.123 59.4019 375.155 58.1661 375.155 56.2148V45.564C375.155 44.2631 375.09 43.2874 374.928 42.6695C374.781 42.0516 374.505 41.5313 374.115 41.1248C373.757 40.7508 373.367 40.4906 372.911 40.328C372.456 40.1654 371.87 40.0678 371.155 40.019V39.5962H379.936V40.019C379.22 40.0515 378.635 40.1491 378.18 40.328C377.724 40.4906 377.334 40.7508 376.976 41.1248C376.586 41.5313 376.31 42.0516 376.18 42.6858C376.033 43.3037 375.952 44.2794 375.952 45.5802V57.597C375.952 59.3694 375.822 60.6865 375.545 61.5321C375.269 62.3776 374.732 63.1419 373.919 63.8411C372.066 65.4347 369.415 66.2477 365.968 66.2477C362.521 66.2477 359.74 65.4997 358.033 63.9712C356.927 63.0118 356.276 61.7272 356.049 60.1662C355.967 59.6133 355.935 58.6051 355.935 57.1417V45.5802C355.935 44.2631 355.87 43.3037 355.723 42.6858C355.577 42.0679 355.301 41.5475 354.91 41.141C354.569 40.767 354.162 40.5068 353.723 40.3442C353.268 40.1816 352.683 40.0841 351.935 40.0353V39.6125H364.082H364.065ZM332.747 65.7111L332.617 65.5485C331.723 64.4753 330.975 63.711 330.34 63.272C329.722 62.8329 329.088 62.6216 328.438 62.6216C328.194 62.6216 327.934 62.6703 327.641 62.7842C328.438 63.7273 329.235 64.4102 329.999 64.8493C330.763 65.2883 331.69 65.5648 332.747 65.7111ZM327.251 62.2801C328.178 62.0199 329.105 61.8898 330.015 61.8898C331.153 61.8898 332.227 62.1175 333.284 62.5565C333.723 62.7516 334.194 62.9956 334.649 63.3045C335.121 63.6135 335.885 64.1501 336.942 64.9143L337.105 65.0444C337.934 64.6054 338.65 64.085 339.251 63.4834C339.853 62.8817 340.438 62.1012 341.007 61.1418C342.422 58.8165 343.121 56.101 343.121 52.9951C343.121 50.9625 342.845 49.0275 342.292 47.19C341.739 45.3526 340.959 43.7915 339.951 42.5394C339.137 41.515 338.227 40.7508 337.235 40.2629C336.243 39.7751 335.072 39.5474 333.739 39.5474C332.406 39.5474 331.218 39.7914 330.227 40.2629C329.218 40.7345 328.324 41.4987 327.511 42.5394C326.519 43.7915 325.755 45.3363 325.202 47.1738C324.649 49.0112 324.373 50.9463 324.373 52.9626C324.373 54.8489 324.6 56.5237 325.056 58.0035C325.511 59.4832 326.243 60.9142 327.251 62.2963V62.2801ZM337.885 65.6298C338.633 66.1502 339.479 66.5404 340.406 66.8331C341.333 67.1258 342.276 67.2722 343.219 67.2722C344.016 67.2722 344.78 67.1746 345.495 66.9795C346.211 66.7843 346.78 66.5242 347.219 66.1989C347.593 65.9062 347.902 65.5648 348.13 65.1908C348.357 64.8005 348.552 64.2639 348.731 63.5809L349.04 63.6135C348.992 64.5566 348.829 65.3534 348.569 66.0038C348.309 66.6542 347.886 67.2884 347.317 67.8901C345.804 69.4836 343.625 70.2967 340.764 70.2967C339.105 70.2967 337.707 69.9877 336.568 69.3861C335.56 68.8332 334.471 67.825 333.316 66.3778L333.202 66.2477C332.097 66.2477 330.926 66.0688 329.722 65.7274C328.519 65.3859 327.397 64.8818 326.34 64.2476C324.259 63.0118 322.633 61.3695 321.494 59.3531C320.34 57.3368 319.771 55.1253 319.771 52.7675C319.771 50.6536 320.226 48.6698 321.137 46.8486C322.047 45.0273 323.381 43.4338 325.137 42.0841C326.422 41.076 327.836 40.3117 329.348 39.7751C330.877 39.2385 332.405 38.9621 333.934 38.9621C335.739 38.9621 337.495 39.3198 339.186 40.0515C340.487 40.6207 341.69 41.3849 342.812 42.3443C343.934 43.3037 344.878 44.3932 345.674 45.5965C347.04 47.7266 347.723 50.0519 347.723 52.5724C347.723 54.1822 347.43 55.7432 346.861 57.2392C346.276 58.7352 345.447 60.1174 344.357 61.3857C343.447 62.4264 342.503 63.272 341.495 63.9387C340.487 64.6054 339.284 65.1745 337.869 65.6623L337.885 65.6298ZM311.689 39.6125L311.917 47.9218L311.494 47.9543C310.616 45.1249 309.494 43.0273 308.128 41.6451C306.762 40.2629 305.104 39.5637 303.152 39.5637C301.64 39.5637 300.339 39.8727 299.266 40.4906C298.176 41.1085 297.168 42.1167 296.225 43.4988C294.323 46.3282 293.363 49.5641 293.363 53.2228C293.363 54.9627 293.591 56.605 294.046 58.1498C294.502 59.6946 295.168 61.0605 296.046 62.2313C297.754 64.5241 299.835 65.6623 302.29 65.6623C303.25 65.6623 304.16 65.4672 305.006 65.0444C305.852 64.6379 306.551 64.085 307.104 63.3696C307.852 62.3776 308.226 61.2069 308.226 59.841C308.226 58.5889 307.884 57.6783 307.217 57.1254C306.535 56.5725 305.429 56.2798 303.868 56.2798V55.8571H315.998V56.2798C314.893 56.3774 314.096 56.54 313.657 56.7514C313.201 56.9628 312.876 57.3205 312.665 57.8246C312.421 58.3775 312.307 59.4995 312.307 61.1581C312.307 61.6134 312.34 62.3289 312.388 63.2882L312.421 63.7273C311.933 63.5484 311.575 63.4671 311.348 63.4671C311.071 63.4671 310.714 63.6135 310.291 63.9062C309.185 64.6542 307.9 65.2395 306.437 65.6461C304.973 66.0526 303.429 66.2477 301.803 66.2477C299.575 66.2477 297.559 65.8575 295.754 65.1095C293.949 64.3452 292.501 63.2557 291.379 61.841C290.534 60.7678 289.9 59.4995 289.444 58.036C288.989 56.5563 288.761 54.9952 288.761 53.3529C288.761 51.0764 289.168 48.9625 289.981 47.0112C290.794 45.0599 291.932 43.4338 293.412 42.1654C294.615 41.141 296.014 40.3442 297.575 39.7914C299.152 39.2385 300.811 38.9458 302.551 38.9458C303.575 38.9458 304.502 39.0434 305.38 39.2385C306.258 39.4336 307.169 39.7426 308.144 40.1654L309.266 40.6857C309.543 40.7995 309.803 40.8483 310.031 40.8483C310.535 40.8483 310.925 40.4255 311.185 39.6125H311.689ZM280.664 39.6125L280.891 47.9218L280.468 47.9543C279.59 45.1249 278.468 43.0273 277.086 41.6451C275.72 40.2629 274.062 39.5637 272.11 39.5637C270.598 39.5637 269.297 39.8727 268.224 40.4906C267.135 41.1085 266.126 42.1167 265.183 43.4988C263.281 46.3282 262.321 49.5641 262.321 53.2228C262.321 54.9627 262.549 56.605 263.004 58.1498C263.46 59.6946 264.126 61.0605 265.004 62.2313C266.712 64.5241 268.793 65.6623 271.232 65.6623C272.192 65.6623 273.102 65.4672 273.964 65.0444C274.81 64.6379 275.509 64.085 276.062 63.3696C276.81 62.3776 277.184 61.2069 277.184 59.841C277.184 58.5889 276.842 57.6783 276.176 57.1254C275.493 56.5725 274.387 56.2798 272.826 56.2798V55.8571H284.956V56.2798C283.851 56.3774 283.054 56.54 282.615 56.7514C282.16 56.9628 281.834 57.3205 281.623 57.8246C281.379 58.3775 281.265 59.4995 281.265 61.1581C281.265 61.6134 281.298 62.3289 281.347 63.2882L281.379 63.7273C280.891 63.5484 280.533 63.4671 280.306 63.4671C280.029 63.4671 279.672 63.6135 279.233 63.9062C278.127 64.6542 276.842 65.2395 275.379 65.6461C273.915 66.0526 272.371 66.2477 270.744 66.2477C268.5 66.2477 266.5 65.8575 264.695 65.1095C262.89 64.3452 261.443 63.2557 260.321 61.841C259.476 60.7678 258.842 59.4995 258.386 58.036C257.931 56.5563 257.703 54.9952 257.703 53.3529C257.703 51.0764 258.11 48.9625 258.923 47.0112C259.736 45.0599 260.874 43.4338 262.354 42.1654C263.557 41.141 264.956 40.3442 266.517 39.7914C268.094 39.2385 269.753 38.9458 271.492 38.9458C272.517 38.9458 273.444 39.0434 274.322 39.2385C275.2 39.4336 276.111 39.7426 277.086 40.1654L278.208 40.6857C278.485 40.7995 278.745 40.8483 278.972 40.8483C279.477 40.8483 279.867 40.4255 280.127 39.6125H280.631H280.664ZM251.297 39.6125L251.605 45.9054H251.183C251.02 44.8485 250.744 43.9704 250.37 43.2712C249.979 42.572 249.427 41.9541 248.711 41.4174C248.109 40.9784 247.41 40.6532 246.597 40.4743C245.784 40.2792 244.695 40.1979 243.345 40.1979H238.971V51.6618H240.125C241.296 51.6618 242.158 51.5805 242.743 51.4341C243.329 51.2715 243.817 51.0113 244.174 50.6211C244.532 50.2633 244.792 49.8243 244.971 49.3202C245.134 48.8161 245.28 48.0844 245.394 47.1087H245.817L245.735 57.3368H245.313C245.199 56.3611 245.02 55.5644 244.808 54.9627C244.581 54.3611 244.272 53.857 243.882 53.4342C243.491 53.0277 243.003 52.7187 242.386 52.5398C241.768 52.3447 241.003 52.2472 240.06 52.2472H238.971V56.6051C238.971 58.345 239.02 59.6133 239.101 60.3938C239.182 61.1906 239.361 61.8573 239.621 62.3776C240.06 63.2882 240.727 63.9549 241.605 64.394C242.499 64.8168 243.67 65.0282 245.134 65.0282C246.597 65.0282 247.931 64.833 248.955 64.4428C249.979 64.0525 250.809 63.4509 251.459 62.6378C251.914 62.0849 252.288 61.467 252.565 60.7678C252.841 60.0686 253.118 59.1417 253.345 58.0035H253.768L253.541 65.5973H230.792V65.1745C231.523 65.142 232.109 65.0282 232.564 64.8655C233.019 64.7029 233.426 64.4428 233.784 64.0688C234.174 63.6623 234.45 63.1419 234.597 62.5077C234.743 61.8736 234.824 60.9142 234.824 59.6133V45.564C234.824 44.2631 234.759 43.3037 234.597 42.6695C234.45 42.0354 234.174 41.5313 233.784 41.1085C233.442 40.7345 233.036 40.4743 232.58 40.3117C232.125 40.1491 231.54 40.0515 230.792 40.0028V39.58H251.28L251.297 39.6125ZM216.628 54.3936L212.628 44.507L208.84 54.3936H216.628ZM228.596 65.6298H216.059V65.207C217.198 65.1095 217.978 64.9143 218.433 64.6379C219.214 64.1501 219.62 63.4509 219.62 62.5728C219.62 62.0524 219.442 61.3532 219.084 60.4751L218.759 59.6783L216.937 55.1741H208.531L207.539 57.8084L207.051 58.9791C206.482 60.3776 206.189 61.4833 206.189 62.2801C206.189 62.7516 206.287 63.1907 206.514 63.5972C206.726 64.0037 207.002 64.3289 207.36 64.5891C207.864 64.9306 208.498 65.142 209.279 65.207V65.6298H200.742V65.207C201.425 65.1745 202.01 65.0119 202.514 64.7192C203.018 64.4265 203.522 63.9549 203.994 63.3045C204.4 62.7842 204.807 62.1012 205.197 61.2882C205.587 60.4751 206.091 59.2393 206.726 57.597L213.701 39.6125H214.791L223.1 59.6458C223.718 61.1581 224.222 62.2476 224.596 62.898C224.954 63.5484 225.361 64.0363 225.8 64.3615C226.109 64.5891 226.45 64.768 226.84 64.8818C227.231 64.9956 227.832 65.1095 228.613 65.1908V65.6135L228.596 65.6298ZM176.773 51.7431H190.302V45.5965C190.302 44.2794 190.237 43.32 190.075 42.6858C189.928 42.0679 189.652 41.5475 189.261 41.141C188.904 40.767 188.497 40.5068 188.042 40.328C187.587 40.1654 187.001 40.0678 186.253 40.019V39.5962H198.416V40.019C197.701 40.0515 197.115 40.1654 196.66 40.328C196.205 40.4906 195.815 40.7508 195.457 41.1248C195.067 41.5313 194.79 42.0516 194.644 42.6858C194.497 43.32 194.416 44.2794 194.416 45.5802V59.6296C194.416 60.9304 194.481 61.8898 194.644 62.5077C194.79 63.1256 195.067 63.646 195.457 64.0688C195.815 64.4265 196.221 64.6867 196.66 64.8655C197.115 65.0282 197.701 65.142 198.416 65.1745V65.5973H186.253V65.1745C187.001 65.142 187.587 65.0282 188.042 64.8655C188.497 64.6867 188.904 64.4265 189.261 64.0688C189.652 63.6623 189.928 63.1582 190.075 62.524C190.221 61.9061 190.302 60.9304 190.302 59.6296V52.6049H176.773V59.6296C176.773 60.9304 176.838 61.8898 177.001 62.524C177.147 63.1419 177.424 63.6623 177.814 64.0688C178.155 64.4265 178.562 64.6867 179.017 64.8655C179.472 65.0282 180.058 65.142 180.806 65.1745V65.5973H168.675V65.1745C169.407 65.142 170.009 65.0282 170.464 64.8655C170.919 64.6867 171.31 64.4265 171.651 64.0688C172.058 63.6623 172.334 63.1419 172.464 62.524C172.594 61.9061 172.675 60.9304 172.675 59.6296V45.5802C172.675 44.2631 172.61 43.3037 172.464 42.6858C172.318 42.0679 172.041 41.5475 171.651 41.141C171.31 40.767 170.903 40.5068 170.448 40.3442C169.992 40.1816 169.407 40.0841 168.675 40.0353V39.6125H180.806V40.0353C180.074 40.0678 179.489 40.1816 179.05 40.3442C178.594 40.5068 178.188 40.7833 177.83 41.1573C177.44 41.5638 177.163 42.0841 177.017 42.7183C176.871 43.3525 176.789 44.3119 176.789 45.6127V51.7593L176.773 51.7431Z" fill="white"/>
<path d="M362.748 97.0611H364.618C365.887 97.0611 366.846 96.9636 367.529 96.7847C368.212 96.6058 368.814 96.2643 369.35 95.7603C370.586 94.622 371.22 93.126 371.22 91.2397C371.22 90.1991 371.041 89.2397 370.667 88.3616C370.31 87.4835 369.789 86.7843 369.123 86.2314C368.342 85.581 367.432 85.207 366.358 85.0932C366.066 85.0606 365.399 85.0606 364.358 85.0606H362.765V97.0774L362.748 97.0611ZM362.748 97.6465V104.509C362.748 105.809 362.813 106.769 362.976 107.387C363.122 108.021 363.399 108.541 363.789 108.948C364.131 109.306 364.537 109.566 364.992 109.745C365.448 109.907 366.033 110.021 366.781 110.054V110.476H354.65V110.054C355.382 110.021 355.984 109.907 356.439 109.745C356.894 109.566 357.285 109.306 357.626 108.948C358.033 108.541 358.309 108.021 358.439 107.403C358.569 106.785 358.651 105.809 358.651 104.509V90.4592C358.651 89.3698 358.602 88.5242 358.504 87.9225C358.407 87.3371 358.244 86.8493 358.016 86.4916C357.691 85.9712 357.268 85.5972 356.764 85.3533C356.26 85.1094 355.594 84.9631 354.781 84.898H354.65V84.4752H366.114C368.114 84.4752 369.594 84.5728 370.537 84.7842C371.48 84.9793 372.359 85.4021 373.139 86.0038C374.944 87.3697 375.838 89.2071 375.838 91.4837C375.838 93.7602 374.928 95.5163 373.09 96.5896C372.147 97.1424 370.976 97.4839 369.627 97.5977C369.188 97.6302 368.147 97.6628 366.505 97.6628H362.765L362.748 97.6465ZM328.975 110.476V110.054C330.259 110.054 331.251 109.696 331.95 108.964C332.341 108.558 332.617 108.037 332.763 107.403C332.91 106.769 332.991 105.809 332.991 104.509V90.443C332.991 89.0933 332.91 88.1014 332.747 87.4672C332.585 86.8168 332.292 86.2965 331.869 85.8899C331.511 85.5485 331.121 85.3208 330.682 85.1582C330.243 85.0118 329.674 84.9143 328.991 84.898V84.4752H341.121V84.898C340.422 84.9305 339.853 85.0281 339.398 85.1907C338.959 85.3371 338.569 85.581 338.227 85.9062C337.804 86.329 337.512 86.8493 337.349 87.4998C337.203 88.1339 337.121 89.1096 337.121 90.4592V101.452C337.121 103.143 337.17 104.395 337.251 105.224C337.349 106.053 337.512 106.736 337.772 107.24C338.211 108.151 338.878 108.818 339.756 109.257C340.634 109.68 341.788 109.891 343.235 109.891C344.683 109.891 346.016 109.68 347.057 109.289C348.097 108.883 348.943 108.265 349.593 107.436C350.032 106.866 350.406 106.216 350.699 105.484C350.976 104.769 351.252 103.809 351.48 102.622L351.951 102.655L351.675 110.476H328.991H328.975ZM303.331 110.476V110.054C304.616 110.054 305.608 109.696 306.307 108.964C306.697 108.558 306.974 108.037 307.12 107.403C307.266 106.769 307.348 105.809 307.348 104.509V90.443C307.348 89.0933 307.266 88.1014 307.104 87.4672C306.941 86.8168 306.649 86.2965 306.226 85.8899C305.868 85.5485 305.478 85.3208 305.039 85.1582C304.6 85.0118 304.031 84.9143 303.364 84.898V84.4752H315.494V84.898C314.795 84.9305 314.226 85.0281 313.771 85.1907C313.332 85.3371 312.941 85.581 312.6 85.9062C312.177 86.329 311.885 86.8493 311.722 87.4998C311.576 88.1339 311.494 89.1096 311.494 90.4592V101.452C311.494 103.143 311.543 104.395 311.624 105.224C311.722 106.053 311.885 106.736 312.145 107.24C312.584 108.151 313.25 108.818 314.129 109.257C315.007 109.68 316.161 109.891 317.608 109.891C319.056 109.891 320.389 109.68 321.43 109.289C322.47 108.883 323.316 108.265 323.966 107.436C324.405 106.866 324.779 106.216 325.072 105.484C325.349 104.769 325.625 103.809 325.853 102.622L326.324 102.655L326.048 110.476H303.364H303.331ZM272.241 97.2075L280.322 89.1909C281.119 88.4104 281.623 87.8575 281.818 87.5811C282.013 87.3046 282.111 86.9794 282.111 86.6379C282.111 86.02 281.802 85.5485 281.2 85.2232C280.875 85.0606 280.339 84.9468 279.591 84.8818V84.459H287.802V84.8818C287.249 84.9305 286.778 85.0281 286.404 85.1582C286.03 85.2883 285.623 85.5159 285.168 85.8412C284.68 86.1989 283.818 86.9469 282.615 88.1014L276.436 94.0366L285.233 105.257L286.323 106.655C287.119 107.647 287.949 108.427 288.81 108.98C289.331 109.322 289.786 109.566 290.176 109.712C290.567 109.858 291.071 109.956 291.672 110.037V110.46H279.086V110.037C280.046 109.956 280.729 109.793 281.152 109.566C281.574 109.322 281.786 108.964 281.786 108.492C281.786 107.988 281.526 107.338 281.005 106.541C280.745 106.151 280.273 105.5 279.574 104.557C278.875 103.614 278.273 102.85 277.802 102.265L273.509 96.931L272.273 98.1506V104.46C272.273 105.761 272.338 106.72 272.501 107.354C272.647 107.972 272.924 108.492 273.314 108.915C273.655 109.273 274.062 109.533 274.517 109.712C274.972 109.875 275.558 109.988 276.306 110.021V110.444H264.159V110.021C264.891 109.988 265.492 109.875 265.948 109.712C266.403 109.533 266.793 109.273 267.135 108.915C267.541 108.509 267.818 107.988 267.948 107.37C268.078 106.753 268.159 105.777 268.159 104.476V90.4267C268.159 89.1096 268.094 88.1502 267.948 87.5323C267.801 86.9144 267.525 86.394 267.135 85.9875C266.793 85.6135 266.387 85.3533 265.931 85.1907C265.476 85.0281 264.891 84.9305 264.159 84.8818V84.459H276.306V84.8818C275.59 84.9143 274.989 85.0281 274.55 85.1907C274.094 85.3533 273.688 85.6135 273.33 85.9875C272.94 86.394 272.663 86.9144 272.517 87.5485C272.371 88.1827 272.289 89.1421 272.289 90.443V97.2075H272.241ZM259.557 84.459L259.785 92.8496H259.362C259.232 92.4756 259.118 92.1991 259.037 92.004C258.598 90.7844 258.24 89.8738 257.947 89.2722C257.443 88.199 256.728 87.2233 255.785 86.329C255.069 85.6623 254.337 85.1582 253.573 84.8492C252.809 84.5403 251.947 84.3939 250.988 84.3939C249.557 84.3939 248.305 84.7029 247.248 85.3208C246.321 85.8737 245.459 86.6542 244.662 87.6786C243.849 88.7031 243.199 89.8576 242.695 91.1747C241.979 93.0284 241.605 95.1098 241.605 97.4676C241.605 99.4515 241.849 101.256 242.353 102.85C242.857 104.444 243.573 105.793 244.532 106.866C246.288 108.883 248.614 109.875 251.508 109.875C252.955 109.875 254.256 109.614 255.411 109.11C256.565 108.606 257.46 107.907 258.11 106.996C258.842 105.94 259.378 104.525 259.704 102.736L260.126 102.817C259.882 104.834 259.346 106.411 258.484 107.598C257.671 108.736 256.549 109.582 255.118 110.184C253.687 110.785 252.028 111.078 250.158 111.078C248.419 111.078 246.727 110.818 245.134 110.297C242.581 109.452 240.581 107.94 239.15 105.744C237.719 103.565 237.003 100.947 237.003 97.9067C237.003 95.5814 237.41 93.435 238.256 91.4837C239.101 89.5161 240.272 87.9388 241.768 86.7518C242.922 85.8412 244.305 85.1094 245.914 84.5728C247.524 84.0362 249.134 83.7598 250.744 83.7598C252.354 83.7598 253.898 84.0525 255.622 84.6541L257.183 85.1745C257.492 85.2883 257.752 85.3533 257.98 85.3533C258.305 85.3533 258.565 85.2232 258.76 84.9631C258.858 84.833 258.956 84.6216 259.086 84.3289L259.557 84.4427V84.459ZM230.434 84.459L230.743 90.7519H230.32C230.158 89.695 229.881 88.8169 229.507 88.1177C229.117 87.4185 228.564 86.8005 227.849 86.2639C227.247 85.8249 226.548 85.4997 225.735 85.3208C224.922 85.1257 223.832 85.0444 222.483 85.0444H218.108V96.5082H219.263C220.434 96.5082 221.295 96.4269 221.881 96.2806C222.466 96.118 222.954 95.8578 223.312 95.4676C223.67 95.1098 223.93 94.6708 224.109 94.1667C224.271 93.6626 224.418 92.9309 224.531 91.9552H224.954L224.873 102.167H224.45C224.336 101.191 224.157 100.395 223.946 99.8092C223.718 99.2076 223.409 98.7035 223.019 98.2969C222.629 97.8904 222.141 97.5815 221.523 97.4026C220.921 97.2075 220.141 97.1099 219.198 97.1099H218.108V101.468C218.108 103.208 218.157 104.476 218.238 105.273C218.32 106.07 218.499 106.736 218.759 107.257C219.198 108.167 219.865 108.834 220.743 109.273C221.637 109.696 222.808 109.907 224.271 109.907C225.735 109.907 227.068 109.712 228.093 109.322C229.117 108.932 229.946 108.33 230.597 107.517C231.052 106.964 231.426 106.346 231.702 105.647C231.979 104.948 232.255 104.021 232.483 102.882H232.906L232.678 110.476H209.929V110.054C210.661 110.021 211.246 109.907 211.702 109.745C212.157 109.582 212.563 109.322 212.921 108.948C213.311 108.541 213.588 108.021 213.734 107.387C213.881 106.753 213.962 105.793 213.962 104.492V90.443C213.962 89.1421 213.897 88.1827 213.734 87.5485C213.588 86.9144 213.311 86.4103 212.921 85.9875C212.58 85.6135 212.173 85.3533 211.718 85.1907C211.263 85.0281 210.677 84.9305 209.929 84.8818V84.459H230.402H230.434Z" fill="white"/>
<mask id="mask0_1492_4826" style="mask-type:luminance" maskUnits="userSpaceOnUse" x="168" y="78" width="44" height="38">
<path d="M187.36 107.403C184.498 105.013 181.636 102.606 178.823 100.134C177.164 98.6873 175.376 97.0449 173.994 95.305C172.481 96.8173 171.896 98.7686 171.896 100.915C171.896 103.5 173.164 105.484 175.197 107.013C177.018 108.379 179.067 109.078 181.343 109.078C183.506 109.078 185.506 108.493 187.36 107.403ZM188.612 108.444C186.189 110.005 183.522 110.737 180.628 110.737C179.132 110.737 177.652 110.509 176.205 110.102C174.156 109.533 172.351 108.525 170.871 106.997C169.359 105.419 168.627 103.533 168.627 101.338C168.627 99.7442 168.985 98.2157 169.847 96.8661C170.644 95.614 171.733 94.6708 173.018 93.9554C172.01 92.3455 171.441 90.5894 171.441 88.6706C171.441 86.7518 172.091 85.1583 173.457 83.8574C174.969 82.3939 177.018 81.9224 179.067 81.9224C181.782 81.9224 184.303 82.6866 186.14 84.768L186.205 84.8493L185.62 89.5487H184.823V89.3373C184.742 87.76 184.319 86.2477 183.197 85.0932C182.173 84.02 180.888 83.5484 179.408 83.5484C178.026 83.5484 176.774 83.9387 175.831 84.9794C174.92 85.9876 174.53 87.2071 174.53 88.5568C174.53 90.2154 175.067 91.6951 176.059 93.0285C177.473 94.9148 179.49 96.736 181.246 98.2645C184.075 100.72 186.921 103.126 189.783 105.549C191.116 104.297 192.206 102.834 193.067 101.208C194.303 98.8824 194.921 96.3782 194.921 93.744C194.921 92.4594 194.759 91.191 194.466 89.9389C193.962 87.8413 192.856 85.9713 191.474 84.329C189.815 82.3614 187.718 80.8491 185.457 79.6621L185.213 79.532L185.685 78.9629L185.831 79.0279C187.897 79.8572 189.832 80.9955 191.474 82.5078C194.856 85.5973 196.466 89.4674 196.466 94.0204C196.466 97.0612 195.62 99.9231 194.141 102.557C193.311 104.037 192.271 105.387 191.051 106.574L193.36 108.444C195.718 110.363 198.368 111.989 201.247 112.964C202.596 113.42 204.06 113.582 205.474 113.582C207.296 113.582 209.101 112.981 210.727 112.2L210.922 112.102L211.312 112.785L211.182 112.899C208.954 114.818 206.385 115.907 203.426 115.907C201.165 115.907 198.938 115.241 196.889 114.298C195.49 113.647 194.173 112.818 192.954 111.875C191.506 110.753 190.075 109.598 188.661 108.444H188.612Z" fill="white"/>
</mask>
<g mask="url(#mask0_1492_4826)">
<path d="M211.263 78.9482H168.627V115.909H211.263V78.9482Z" fill="white"/>
</g>
<mask id="mask1_1492_4826" style="mask-type:luminance" maskUnits="userSpaceOnUse" x="147" y="0" width="3" height="155">
<path d="M149.975 0H147.503V154.868H149.975V0Z" fill="white"/>
</mask>
<g mask="url(#mask1_1492_4826)">
<path d="M149.975 0H147.503V154.868H149.975V0Z" fill="white"/>
</g>
<mask id="mask2_1492_4826" style="mask-type:luminance" maskUnits="userSpaceOnUse" x="38" y="27" width="89" height="101">
<path d="M104.298 127.014C111.046 121.03 116.558 113.696 120.428 105.436C115.875 105.891 111.127 106.135 106.265 106.135C71.9549 106.135 43.9375 94.1181 42.1163 79.0118C73.142 79.6947 101.68 84.6055 124.916 92.4595C126.038 87.63 126.624 82.6217 126.624 77.4507C126.624 72.2961 126.038 67.2715 124.916 62.442C101.68 70.296 73.142 75.1905 42.1163 75.8897C43.9375 60.7671 71.9549 48.7667 106.265 48.7667C111.144 48.7667 115.875 49.0106 120.428 49.4659C116.575 41.2054 111.046 33.8555 104.298 27.8878C76.9307 25.9365 38.0674 45.9535 38.0674 77.467C38.0674 108.98 75.76 127.046 104.281 127.046" fill="white"/>
</mask>
<g mask="url(#mask2_1492_4826)">
<path d="M126.639 25.9023H38.083V127.012H126.639V25.9023Z" fill="white"/>
</g>
<mask id="mask3_1492_4826" style="mask-type:luminance" maskUnits="userSpaceOnUse" x="0" y="11" width="85" height="133">
<path d="M26.2287 75.8566C25.1392 75.8241 24.0498 75.7916 22.9603 75.7591C22.7326 59.5633 19.2366 44.3269 13.2363 30.993C7.75641 36.5542 3.25216 43.0911 0 50.3109C11.4964 56.6363 18.8788 66.4416 18.8788 77.4502C18.8788 88.4588 11.4964 98.264 0 104.59C3.25216 111.809 7.75641 118.33 13.2363 123.907C19.2366 110.557 22.7326 95.3371 22.9603 79.1413C24.0498 79.1088 25.1392 79.0763 26.2287 79.0438C26.4889 102.589 32.4729 124.168 42.2944 141.16C48.0507 142.802 54.1323 143.664 60.4252 143.664C69.0597 143.664 77.3039 142.006 84.8652 138.997C55.8884 131.956 31.4809 108.362 31.4809 77.4339C31.4809 46.5059 55.8884 22.9114 84.8652 15.8705C77.3039 12.8622 69.0597 11.2036 60.4252 11.2036C54.1323 11.2036 48.0507 12.0817 42.2944 13.7078C32.4729 30.7003 26.4889 52.2947 26.2287 75.8241" fill="white"/>
</mask>
<g mask="url(#mask3_1492_4826)">
<path d="M84.8652 11.2192H0V143.664H84.8652V11.2192Z" fill="white"/>
</g>
</svg>
