<svg width="523" height="156" viewBox="0 0 523 156" fill="none" xmlns="http://www.w3.org/2000/svg">
<mask id="mask0_1492_4864" style="mask-type:luminance" maskUnits="userSpaceOnUse" x="208" y="0" width="107" height="98">
<path fill-rule="evenodd" clip-rule="evenodd" d="M208.815 0H315V97.2115H208.815V0Z" fill="white"/>
</mask>
<g mask="url(#mask0_1492_4864)">
<mask id="mask1_1492_4864" style="mask-type:luminance" maskUnits="userSpaceOnUse" x="208" y="0" width="107" height="98">
<path fill-rule="evenodd" clip-rule="evenodd" d="M214.028 36.0829L228.823 10.4738L258.954 62.5932L244.159 88.2023L214.028 36.0829ZM264.166 62.5932L294.296 10.4738L309.111 36.0829L278.981 88.2024L264.166 62.5932ZM247.406 33.5796L261.56 9.07158L275.733 33.5796L261.56 58.0874L247.406 33.5796ZM261.559 0.0615234L244.8 29.0745L228.822 1.46315L208.815 36.0824L244.158 97.212L261.559 67.0977L278.98 97.212L314.323 36.0824L294.296 1.46315L278.338 29.0745L261.559 0.0615234Z" fill="white"/>
</mask>
<g mask="url(#mask1_1492_4864)">
<path fill-rule="evenodd" clip-rule="evenodd" d="M208.815 0H315V97.2115H208.815V0Z" fill="url(#paint0_linear_1492_4864)"/>
</g>
</g>
<path d="M41.7843 129.217C41.7835 129.189 41.7747 129.161 41.7589 129.138C41.7432 129.114 41.7209 129.094 41.6946 129.082C41.6767 129.056 41.6519 129.035 41.6228 129.02C41.5937 129.006 41.5611 129 41.5285 129.001H36.379C36.347 129.004 36.3159 129.012 36.2874 129.026C36.2589 129.039 36.2336 129.058 36.2128 129.082C36.1942 129.099 36.1796 129.12 36.1699 129.144C36.1602 129.167 36.1556 129.192 36.1564 129.217V151.355H31.2394C30.8148 151.355 30.398 151.247 30.0321 151.043C29.6661 150.839 29.3644 150.546 29.158 150.194L23.7045 141.043V129.217C23.7042 129.189 23.6961 129.162 23.6813 129.139C23.6664 129.115 23.6452 129.095 23.6198 129.082C23.6019 129.056 23.5771 129.035 23.548 129.02C23.5188 129.006 23.4863 129 23.4537 129.001H18.3324C18.2956 129.001 18.2593 129.008 18.2256 129.022C18.1918 129.036 18.1615 129.056 18.1364 129.082C18.1177 129.099 18.1031 129.12 18.0934 129.144C18.0837 129.167 18.0791 129.192 18.0799 129.217V141.043L12.6247 150.194C12.4184 150.546 12.1166 150.839 11.7506 151.043C11.3847 151.247 10.9679 151.355 10.5433 151.355H5.62303V129.217C5.62286 129.19 5.6151 129.163 5.60053 129.139C5.58596 129.115 5.56508 129.095 5.53997 129.082C5.52583 129.058 5.50537 129.038 5.48061 129.024C5.45585 129.01 5.42765 129.002 5.39878 129.001H0.252579C0.21584 129.001 0.179474 129.008 0.14575 129.022C0.112026 129.036 0.0816661 129.056 0.0565649 129.082C0.0379379 129.099 0.0233229 129.12 0.0136123 129.144C0.00390178 129.167 -0.000700585 129.192 8.62743e-05 129.217V155.757C-0.00139882 155.823 0.0182708 155.889 0.0565649 155.946C0.114686 155.982 0.183032 156 0.252579 155.999H11.4719C12.7371 156.006 13.9809 155.689 15.0716 155.081C16.1892 154.458 17.1113 153.563 17.7427 152.489L20.8988 147.198L24.055 152.489C24.6813 153.558 25.5927 154.451 26.6979 155.081C27.7997 155.687 29.0519 156.004 30.3258 155.999H41.5285C41.5585 156.001 41.5887 155.997 41.6172 155.988C41.6457 155.979 41.672 155.964 41.6946 155.946C41.7215 155.921 41.7429 155.892 41.7575 155.859C41.772 155.827 41.7795 155.792 41.7793 155.757L41.7843 129.217Z" fill="url(#paint1_linear_1492_4864)"/>
<path d="M55.8441 129.244C55.8451 129.213 55.838 129.182 55.8231 129.154C55.8083 129.127 55.7864 129.103 55.7593 129.086C55.7415 129.059 55.7162 129.036 55.6861 129.021C55.656 129.006 55.6222 128.999 55.5882 129.001H50.4387C50.4068 129.003 50.3757 129.011 50.3471 129.025C50.3186 129.039 50.2933 129.058 50.2726 129.081C50.2328 129.125 50.2125 129.181 50.2161 129.239V155.782C50.2184 155.838 50.238 155.893 50.2726 155.939C50.3211 155.972 50.379 155.991 50.4387 155.993H55.5882C55.6183 155.995 55.6485 155.991 55.677 155.982C55.7055 155.972 55.7318 155.958 55.7544 155.939C55.8033 155.899 55.8337 155.843 55.8391 155.782L55.8441 129.244Z" fill="url(#paint2_linear_1492_4864)"/>
<path d="M104.431 151.599C104.43 151.571 104.422 151.544 104.407 151.521C104.393 151.497 104.371 151.477 104.346 151.464C104.332 151.44 104.311 151.42 104.287 151.406C104.262 151.392 104.234 151.384 104.205 151.383H72.3109C71.9917 151.388 71.6747 151.331 71.3798 151.215C71.0848 151.099 70.8183 150.927 70.5966 150.709C70.371 150.492 70.1927 150.235 70.0721 149.952C69.9516 149.67 69.891 149.368 69.894 149.063V129.244C69.895 129.213 69.8879 129.182 69.873 129.154C69.8582 129.127 69.8363 129.103 69.8092 129.086C69.7913 129.06 69.7666 129.039 69.7374 129.025C69.7083 129.011 69.6758 129.004 69.6431 129.006H64.4936C64.4617 129.008 64.4306 129.016 64.4021 129.03C64.3736 129.044 64.3482 129.063 64.3275 129.086C64.2878 129.13 64.2676 129.186 64.271 129.244V148.278C64.251 149.293 64.4465 150.301 64.8461 151.243C65.2456 152.184 65.8409 153.04 66.5966 153.759C67.3361 154.482 68.2241 155.054 69.2058 155.439C70.1875 155.825 71.242 156.015 72.3043 155.999H104.198C104.224 156 104.25 155.995 104.275 155.986C104.299 155.977 104.321 155.963 104.339 155.945C104.388 155.905 104.418 155.849 104.424 155.788L104.431 151.599Z" fill="url(#paint3_linear_1492_4864)"/>
<path d="M144.979 129.001C146.04 128.984 147.093 129.178 148.07 129.568C149.048 129.959 149.93 130.538 150.658 131.269C151.424 131.977 152.028 132.826 152.434 133.763C152.84 134.7 153.04 135.707 153.021 136.72V148.275C153.039 149.293 152.839 150.303 152.433 151.245C152.027 152.187 151.423 153.041 150.658 153.756C149.926 154.48 149.043 155.053 148.065 155.438C147.088 155.824 146.037 156.014 144.979 155.996H113.085C113.025 155.994 112.968 155.975 112.919 155.942C112.881 155.886 112.861 155.82 112.863 155.753V129.244C112.859 129.186 112.879 129.13 112.919 129.086C112.94 129.063 112.965 129.044 112.994 129.03C113.022 129.016 113.053 129.008 113.085 129.006L144.979 129.001ZM147.398 135.932C147.402 135.631 147.342 135.333 147.222 135.054C147.101 134.776 146.922 134.524 146.695 134.313C146.478 134.088 146.213 133.908 145.917 133.787C145.622 133.666 145.302 133.606 144.981 133.61H118.49V151.383H144.977C145.297 151.388 145.613 151.331 145.908 151.215C146.203 151.099 146.47 150.927 146.692 150.709C146.917 150.492 147.096 150.235 147.216 149.952C147.337 149.67 147.397 149.368 147.394 149.063L147.398 135.932Z" fill="url(#paint4_linear_1492_4864)"/>
<path d="M167.079 135.932C167.074 135.631 167.134 135.333 167.255 135.054C167.376 134.776 167.555 134.524 167.781 134.313C167.998 134.087 168.263 133.908 168.559 133.787C168.854 133.666 169.174 133.606 169.496 133.61H201.389C201.42 133.612 201.45 133.609 201.478 133.599C201.507 133.59 201.533 133.576 201.556 133.557C201.604 133.517 201.635 133.46 201.64 133.399V129.244C201.641 129.213 201.634 129.182 201.619 129.154C201.605 129.127 201.583 129.103 201.556 129.086C201.538 129.06 201.513 129.039 201.484 129.025C201.455 129.011 201.422 129.004 201.389 129.006H169.496C168.431 128.991 167.374 129.184 166.392 129.575C165.41 129.965 164.523 130.544 163.788 131.274C163.031 131.985 162.434 132.834 162.032 133.77C161.631 134.706 161.435 135.71 161.454 136.72V148.275C161.435 149.29 161.632 150.299 162.033 151.241C162.434 152.182 163.031 153.038 163.788 153.756C164.527 154.479 165.415 155.051 166.397 155.436C167.379 155.822 168.433 156.012 169.496 155.996H201.389C201.42 155.998 201.45 155.994 201.478 155.985C201.507 155.976 201.533 155.961 201.556 155.942C201.582 155.918 201.604 155.888 201.618 155.856C201.633 155.823 201.64 155.788 201.64 155.753V151.599C201.64 151.571 201.632 151.544 201.617 151.521C201.602 151.497 201.581 151.477 201.556 151.464C201.538 151.438 201.513 151.417 201.484 151.403C201.455 151.389 201.422 151.382 201.389 151.383H169.496C169.176 151.388 168.859 151.331 168.565 151.215C168.27 151.099 168.003 150.927 167.781 150.709C167.556 150.492 167.377 150.235 167.257 149.952C167.136 149.67 167.076 149.368 167.079 149.063V144.822H197.361C197.391 144.824 197.421 144.82 197.45 144.811C197.478 144.802 197.505 144.787 197.527 144.768C197.554 144.744 197.576 144.715 197.59 144.682C197.605 144.65 197.612 144.615 197.612 144.579V140.421C197.613 140.39 197.606 140.359 197.591 140.331C197.576 140.304 197.554 140.28 197.527 140.263C197.509 140.237 197.485 140.216 197.455 140.202C197.426 140.188 197.394 140.181 197.361 140.183H167.079V135.932Z" fill="url(#paint5_linear_1492_4864)"/>
<path d="M250.253 139.422C250.275 140.902 249.839 142.355 249 143.603C248.16 144.85 246.954 145.837 245.529 146.441L245.642 146.657L250.112 155.674C250.13 155.747 250.12 155.824 250.084 155.89C250.067 155.925 250.038 155.954 250.003 155.974C249.968 155.993 249.927 156.002 249.886 155.999H244.179C244.132 155.998 244.086 155.985 244.046 155.961C244.007 155.937 243.975 155.903 243.954 155.863L239.624 147.142H215.723V155.782C215.718 155.843 215.688 155.899 215.639 155.939C215.616 155.958 215.59 155.973 215.561 155.982C215.533 155.991 215.503 155.995 215.473 155.993H210.323C210.263 155.991 210.205 155.972 210.157 155.939C210.122 155.893 210.103 155.838 210.1 155.782V129.244C210.097 129.186 210.117 129.13 210.157 129.086C210.178 129.061 210.205 129.04 210.235 129.026C210.266 129.011 210.299 129.003 210.333 129.001H242.247C243.303 128.987 244.35 129.181 245.322 129.571C246.295 129.962 247.171 130.54 247.895 131.269C248.659 131.977 249.263 132.826 249.669 133.763C250.074 134.701 250.273 135.707 250.253 136.72V139.422ZM215.723 142.5H242.238C242.554 142.504 242.866 142.446 243.157 142.33C243.447 142.214 243.709 142.042 243.926 141.826C244.155 141.611 244.335 141.354 244.456 141.071C244.576 140.788 244.635 140.485 244.629 140.179V135.932C244.633 135.631 244.574 135.333 244.453 135.054C244.332 134.776 244.153 134.524 243.926 134.313C243.709 134.096 243.447 133.925 243.157 133.809C242.866 133.693 242.554 133.635 242.238 133.639H215.723V142.5Z" fill="url(#paint6_linear_1492_4864)"/>
<path d="M328.591 129.217C328.591 129.189 328.583 129.162 328.568 129.138C328.553 129.115 328.532 129.095 328.506 129.081C328.488 129.055 328.463 129.034 328.434 129.02C328.405 129.006 328.373 129 328.34 129.001H323.191C323.159 129.003 323.128 129.011 323.099 129.025C323.07 129.039 323.045 129.058 323.024 129.081C323.006 129.099 322.991 129.12 322.981 129.144C322.972 129.167 322.967 129.192 322.968 129.217V151.355H318.048C317.623 151.355 317.206 151.247 316.841 151.043C316.475 150.839 316.173 150.546 315.966 150.194L310.511 141.041V129.217C310.511 129.189 310.503 129.162 310.488 129.138C310.473 129.115 310.452 129.095 310.426 129.081C310.408 129.055 310.384 129.034 310.354 129.02C310.325 129.006 310.293 129 310.26 129.001H305.142C305.105 129.001 305.069 129.008 305.035 129.022C305.001 129.035 304.97 129.056 304.945 129.081C304.926 129.099 304.912 129.12 304.902 129.144C304.892 129.167 304.887 129.192 304.888 129.217V141.043L299.433 150.195C299.227 150.547 298.925 150.84 298.56 151.044C298.194 151.248 297.777 151.356 297.353 151.356H292.433V129.217C292.433 129.189 292.425 129.162 292.41 129.138C292.395 129.115 292.374 129.095 292.348 129.081C292.334 129.057 292.313 129.037 292.288 129.023C292.263 129.009 292.234 129.001 292.205 129.001H287.056C287.019 129.001 286.982 129.008 286.948 129.022C286.914 129.035 286.884 129.056 286.858 129.081C286.84 129.099 286.825 129.12 286.815 129.144C286.806 129.167 286.801 129.192 286.802 129.217V155.756C286.8 155.823 286.82 155.889 286.858 155.945C286.917 155.982 286.986 156 287.056 155.999H298.275C299.54 156.006 300.784 155.689 301.875 155.08C302.992 154.457 303.914 153.563 304.546 152.489L307.702 147.198L310.858 152.489C311.485 153.557 312.396 154.451 313.501 155.08C314.603 155.687 315.855 156.004 317.129 155.999H328.348C328.378 156.001 328.409 155.997 328.437 155.988C328.466 155.979 328.492 155.964 328.515 155.945C328.541 155.921 328.563 155.892 328.577 155.859C328.592 155.827 328.599 155.792 328.599 155.756L328.591 129.217Z" fill="url(#paint7_linear_1492_4864)"/>
<path d="M369.164 129.001C370.225 128.984 371.278 129.178 372.256 129.568C373.234 129.959 374.115 130.538 374.844 131.269C375.609 131.977 376.213 132.826 376.619 133.763C377.025 134.7 377.225 135.707 377.206 136.72V148.275C377.224 149.293 377.024 150.303 376.618 151.245C376.212 152.187 375.608 153.041 374.844 153.756C374.111 154.48 373.228 155.053 372.251 155.438C371.273 155.824 370.222 156.014 369.164 155.996H345.066C344.008 156.01 342.958 155.819 341.982 155.434C341.005 155.048 340.122 154.477 339.387 153.756C338.622 153.041 338.018 152.187 337.612 151.245C337.206 150.303 337.006 149.293 337.025 148.275V136.72C337.004 135.707 337.203 134.701 337.609 133.764C338.014 132.826 338.617 131.977 339.382 131.269C340.113 130.54 340.996 129.962 341.974 129.572C342.952 129.181 344.005 128.987 345.066 129.001H369.164ZM371.583 135.932C371.587 135.631 371.527 135.333 371.407 135.054C371.286 134.776 371.107 134.524 370.88 134.313C370.663 134.088 370.398 133.908 370.102 133.787C369.807 133.666 369.488 133.606 369.166 133.61H345.066C344.745 133.609 344.426 133.67 344.131 133.791C343.836 133.912 343.571 134.09 343.352 134.313C343.125 134.524 342.946 134.776 342.825 135.054C342.704 135.333 342.644 135.631 342.649 135.932V149.053C342.646 149.358 342.707 149.66 342.827 149.943C342.948 150.225 343.126 150.483 343.352 150.7C343.575 150.915 343.842 151.086 344.137 151.202C344.431 151.318 344.747 151.376 345.066 151.374H369.164C369.483 151.379 369.8 151.322 370.095 151.206C370.39 151.09 370.657 150.917 370.878 150.7C371.104 150.483 371.282 150.225 371.403 149.943C371.523 149.66 371.584 149.358 371.581 149.053L371.583 135.932Z" fill="url(#paint8_linear_1492_4864)"/>
<path d="M425.824 139.422C425.846 140.902 425.41 142.355 424.57 143.603C423.731 144.85 422.524 145.837 421.1 146.441L421.213 146.657L425.683 155.674C425.701 155.747 425.691 155.824 425.654 155.89C425.637 155.925 425.609 155.954 425.573 155.974C425.538 155.993 425.497 156.002 425.457 155.999H419.749C419.702 155.998 419.656 155.985 419.617 155.961C419.577 155.937 419.545 155.903 419.525 155.863L415.194 147.142H391.294V155.782C391.289 155.843 391.258 155.899 391.209 155.939C391.187 155.958 391.16 155.972 391.132 155.982C391.103 155.991 391.073 155.995 391.043 155.993H385.893C385.834 155.991 385.776 155.972 385.727 155.939C385.693 155.893 385.673 155.838 385.671 155.782V129.244C385.667 129.186 385.688 129.13 385.727 129.086C385.748 129.063 385.773 129.044 385.802 129.03C385.83 129.016 385.862 129.008 385.893 129.006H417.807C418.863 128.991 419.911 129.186 420.883 129.576C421.855 129.967 422.731 130.545 423.455 131.274C424.221 131.981 424.826 132.828 425.233 133.765C425.641 134.701 425.842 135.707 425.824 136.72V139.422ZM391.294 142.5H417.809C418.124 142.504 418.437 142.446 418.727 142.33C419.017 142.214 419.279 142.042 419.497 141.826C419.725 141.611 419.905 141.354 420.026 141.071C420.147 140.788 420.206 140.485 420.199 140.179V135.932C420.204 135.631 420.144 135.333 420.023 135.054C419.902 134.776 419.723 134.524 419.497 134.313C419.279 134.096 419.017 133.925 418.727 133.809C418.437 133.693 418.124 133.635 417.809 133.639H391.294V142.5Z" fill="url(#paint9_linear_1492_4864)"/>
<path d="M474.409 151.599C474.409 151.572 474.401 151.545 474.386 151.521C474.372 151.497 474.351 151.477 474.326 151.464C474.311 151.439 474.291 151.419 474.266 151.405C474.241 151.391 474.212 151.384 474.183 151.383H442.299C441.98 151.388 441.663 151.331 441.368 151.215C441.073 151.099 440.806 150.927 440.585 150.709C440.359 150.492 440.181 150.235 440.06 149.952C439.94 149.67 439.879 149.368 439.882 149.063V129.244C439.883 129.213 439.876 129.182 439.861 129.154C439.846 129.127 439.824 129.103 439.797 129.086C439.779 129.06 439.755 129.039 439.725 129.025C439.696 129.011 439.664 129.004 439.631 129.006H434.482C434.45 129.008 434.419 129.016 434.39 129.03C434.362 129.044 434.336 129.063 434.316 129.086C434.276 129.13 434.256 129.186 434.259 129.244V148.278C434.24 149.294 434.437 150.302 434.838 151.244C435.239 152.185 435.836 153.041 436.593 153.759C437.333 154.482 438.221 155.054 439.202 155.439C440.184 155.825 441.238 156.015 442.301 155.999H474.185C474.211 156 474.237 155.996 474.262 155.987C474.287 155.977 474.309 155.963 474.327 155.945C474.375 155.905 474.405 155.849 474.41 155.788L474.409 151.599Z" fill="url(#paint10_linear_1492_4864)"/>
<path d="M514.959 129.001C516.02 128.984 517.072 129.178 518.05 129.568C519.028 129.959 519.909 130.538 520.638 131.269C521.404 131.977 522.008 132.827 522.414 133.765C522.82 134.703 523.019 135.709 522.999 136.723V148.278C523.017 149.296 522.818 150.306 522.412 151.248C522.006 152.19 521.403 153.045 520.638 153.759C519.905 154.483 519.022 155.055 518.045 155.441C517.068 155.826 516.017 156.016 514.959 155.999H483.065C483.005 155.998 482.947 155.979 482.899 155.945C482.858 155.89 482.837 155.824 482.839 155.756V129.244C482.837 129.215 482.841 129.186 482.851 129.159C482.862 129.132 482.878 129.107 482.899 129.086C482.919 129.063 482.944 129.043 482.973 129.03C483.002 129.016 483.033 129.008 483.065 129.006L514.959 129.001ZM517.374 135.932C517.379 135.631 517.319 135.333 517.198 135.054C517.077 134.776 516.898 134.524 516.671 134.313C516.455 134.087 516.19 133.908 515.895 133.787C515.599 133.666 515.28 133.606 514.959 133.61H488.469V151.383H514.959C515.278 151.389 515.595 151.332 515.889 151.216C516.184 151.1 516.45 150.927 516.671 150.709C516.897 150.492 517.075 150.235 517.196 149.952C517.316 149.67 517.377 149.368 517.374 149.063V135.932Z" fill="url(#paint11_linear_1492_4864)"/>
<defs>
<linearGradient id="paint0_linear_1492_4864" x1="208.815" y1="97.3318" x2="209.078" y2="97.3318" gradientUnits="userSpaceOnUse">
<stop stop-color="white"/>
<stop offset="1" stop-color="white"/>
</linearGradient>
<linearGradient id="paint1_linear_1492_4864" x1="482.838" y1="156" x2="482.918" y2="156" gradientUnits="userSpaceOnUse">
<stop stop-color="white"/>
<stop offset="1" stop-color="white"/>
</linearGradient>
<linearGradient id="paint2_linear_1492_4864" x1="482.838" y1="156" x2="482.918" y2="156" gradientUnits="userSpaceOnUse">
<stop stop-color="white"/>
<stop offset="1" stop-color="white"/>
</linearGradient>
<linearGradient id="paint3_linear_1492_4864" x1="482.838" y1="156" x2="482.918" y2="156" gradientUnits="userSpaceOnUse">
<stop stop-color="white"/>
<stop offset="1" stop-color="white"/>
</linearGradient>
<linearGradient id="paint4_linear_1492_4864" x1="482.838" y1="156" x2="482.918" y2="156" gradientUnits="userSpaceOnUse">
<stop stop-color="white"/>
<stop offset="1" stop-color="white"/>
</linearGradient>
<linearGradient id="paint5_linear_1492_4864" x1="482.838" y1="156" x2="482.918" y2="156" gradientUnits="userSpaceOnUse">
<stop stop-color="white"/>
<stop offset="1" stop-color="white"/>
</linearGradient>
<linearGradient id="paint6_linear_1492_4864" x1="482.838" y1="156" x2="482.918" y2="156" gradientUnits="userSpaceOnUse">
<stop stop-color="white"/>
<stop offset="1" stop-color="white"/>
</linearGradient>
<linearGradient id="paint7_linear_1492_4864" x1="482.838" y1="156" x2="482.918" y2="156" gradientUnits="userSpaceOnUse">
<stop stop-color="white"/>
<stop offset="1" stop-color="white"/>
</linearGradient>
<linearGradient id="paint8_linear_1492_4864" x1="482.838" y1="156" x2="482.918" y2="156" gradientUnits="userSpaceOnUse">
<stop stop-color="white"/>
<stop offset="1" stop-color="white"/>
</linearGradient>
<linearGradient id="paint9_linear_1492_4864" x1="482.838" y1="156" x2="482.918" y2="156" gradientUnits="userSpaceOnUse">
<stop stop-color="white"/>
<stop offset="1" stop-color="white"/>
</linearGradient>
<linearGradient id="paint10_linear_1492_4864" x1="482.838" y1="156" x2="482.918" y2="156" gradientUnits="userSpaceOnUse">
<stop stop-color="white"/>
<stop offset="1" stop-color="white"/>
</linearGradient>
<linearGradient id="paint11_linear_1492_4864" x1="482.838" y1="156" x2="482.918" y2="156" gradientUnits="userSpaceOnUse">
<stop stop-color="white"/>
<stop offset="1" stop-color="white"/>
</linearGradient>
</defs>
</svg>
