<svg width="585" height="41" viewBox="0 0 585 41" fill="none" xmlns="http://www.w3.org/2000/svg">
<g opacity="0.999184">
<path fill-rule="evenodd" clip-rule="evenodd" d="M19.0736 1.11593C25.8127 1.11593 32.2929 3.85688 32.2929 11.5979C32.2929 16.2761 29.5032 21.5313 23.1956 22.1596C25.5431 22.9287 27.6316 25.1361 28.8648 27.0835C29.0337 27.3537 32.368 32.6399 34.4612 35.2505C36.8577 38.3021 38.4424 39.4219 41.3388 39.4652V40.0226H35.9273C29.8476 40.0226 25.4266 38.7074 22.8746 34.2613C21.5223 31.9062 19.0159 26.4028 18.2424 24.7411C17.1637 22.4211 15.9222 21.2433 14.4795 20.9957V20.4669H16.1772C19.1655 20.4359 22.2041 18.9105 23.1956 14.0416C23.3257 13.3651 23.4482 12.4706 23.4016 11.3508C23.1786 6.03493 20.4967 3.65676 16.8463 3.5681C15.3719 3.50436 13.3274 3.566 12.6299 3.54921V35.9724C12.6666 37.9086 14.2442 39.4676 16.2005 39.467H16.893L16.9014 40.0226H0.00236673L0.0110265 39.467H0.714548C2.65095 39.467 4.22378 37.9223 4.27283 35.9989V5.16246C4.23611 3.22655 2.6575 1.6676 0.718215 1.67048H0.0096995L0 1.11778L19.0736 1.11593ZM89.3724 20.57C89.3724 33.0592 80.8549 40.8002 67.5052 40.8002C54.1558 40.8002 45.6384 33.0592 45.6384 20.57C45.6384 8.08 54.1558 0.338218 67.5052 0.338218C80.8549 0.338218 89.3724 8.08 89.3724 20.57ZM80.2494 20.5686C80.2494 9.53006 75.3394 2.67517 67.503 2.67517C59.6683 2.67517 54.757 9.53006 54.757 20.5686C54.757 31.6067 59.6683 38.461 67.503 38.461C75.3394 38.461 80.2494 31.6067 80.2494 20.5686ZM127.281 40.0239H98.5048L98.5134 39.4681H99.2172C101.163 39.4681 102.74 37.9094 102.777 35.9732V5.16638C102.74 3.23048 101.161 1.67152 99.2159 1.67152H98.5134L98.5037 1.11593H115.388L115.38 1.67152H114.677C112.731 1.67152 111.153 3.23048 111.115 5.16638V37.6479H118.412C123.963 37.6479 127.567 34.1981 129.29 28.6821H129.846L127.281 40.0239ZM172.215 36.2421C173.418 38.5163 175.321 39.4651 176.959 39.4651H177.424V40.021H159.715V39.4699H160.203C161.639 39.4699 163.2 38.2058 162.352 35.9813L159.616 29.1136H146.573L143.73 35.9813C142.817 38.2058 144.421 39.4707 145.856 39.4707H146.345V40.0215H134.427V39.4659H134.927C136.506 39.4659 138.423 38.5426 139.604 36.3344L152.457 7.28141C152.852 6.43597 155.054 1.61797 155.19 0H155.69L172.215 36.2421ZM158.683 26.771L153.246 13.1232L147.551 26.771H158.683ZM227.798 1.11495L227.79 1.67054H226.764C224.905 1.67054 223.394 3.14869 223.334 4.99331V33.7111C223.334 37.899 223.976 40.8018 223.976 40.8018H223.471L195.387 14.0601V36.1165C195.431 37.975 196.949 39.4689 198.818 39.4689H199.844L199.852 40.0248H183.005L183.012 39.4689H184.039C185.913 39.4689 187.434 37.9666 187.47 36.1013V7.22774C187.47 3.09571 186.823 0.284715 186.823 0.284715H187.371L215.41 27.0157V5.04052C215.376 3.17492 213.855 1.67184 211.98 1.67184H210.955L210.946 1.11625L227.798 1.11495ZM256.586 1.11856C269.716 1.11856 277.897 8.56758 277.897 20.5859C277.897 32.5825 269.716 40.0231 256.586 40.0231H236.42L236.43 39.467H237.132C239.076 39.467 240.653 37.912 240.693 35.9792V4.84713C240.693 3.05944 238.992 1.66679 237.153 1.66679H236.449L236.441 1.11593L256.586 1.11856ZM249.036 37.6582H255.911C263.877 37.6582 268.835 31.1186 268.835 20.5879C268.835 10.0241 263.856 3.46435 255.911 3.46435H249.037L249.036 37.6582ZM334.859 9.52548V8.93972C334.865 5.69432 332.832 3.60104 329.58 3.49269H320.077V19.6638H327.446C330.174 19.6121 332.166 17.6077 332.159 14.9006V14.4193L332.702 14.4122V27.2571L332.159 27.2505V26.7692C332.166 24.0851 330.206 22.0923 327.516 22.0081H320.079V35.9744C320.115 37.9101 321.694 39.469 323.639 39.469H324.342L324.351 40.0251H307.465L307.475 39.469H308.177C310.122 39.469 311.701 37.91 311.738 35.9744V4.985C311.738 3.13278 310.071 1.66878 308.186 1.66878H307.482L307.474 1.11607H328.783C331.179 1.09457 334.382 0.540028 335.416 0.105096V9.53148L334.859 9.52548ZM365.344 1.11593C372.083 1.11593 378.564 3.85688 378.564 11.5979C378.564 16.2761 375.774 21.5313 369.466 22.1596C371.814 22.9287 373.902 25.1361 375.136 27.0835C375.305 27.3537 378.639 32.6399 380.732 35.2505C383.128 38.3021 384.713 39.4219 387.61 39.4652V40.0226H382.198C376.119 40.0226 371.697 38.7074 369.145 34.2613C367.793 31.9062 365.287 26.4028 364.514 24.7411C363.435 22.4211 362.193 21.2433 360.75 20.9957V20.4669H362.448C365.436 20.4359 368.475 18.9105 369.466 14.0416C369.596 13.3651 369.719 12.4706 369.672 11.3508C369.449 6.03493 366.767 3.65676 363.117 3.5681C361.643 3.50436 359.598 3.566 358.901 3.54921V35.9724C358.937 37.9086 360.515 39.4676 362.471 39.467H363.164L363.173 40.0226H346.273L346.282 39.467H346.985C348.922 39.467 350.495 37.9223 350.544 35.9989V5.16246C350.507 3.22655 348.928 1.6676 346.989 1.67048H346.281L346.271 1.11778L365.344 1.11593ZM426.43 36.2421C427.632 38.5163 429.536 39.4651 431.173 39.4651H431.638V40.021H413.93V39.4699H414.417C415.853 39.4699 417.414 38.2058 416.566 35.9813L413.83 29.1136H400.787L397.945 35.9813C397.032 38.2058 398.635 39.4707 400.07 39.4707H400.559V40.0215H388.641V39.4659H389.142C390.721 39.4659 392.637 38.5426 393.818 36.3344L406.671 7.28141C407.067 6.43597 409.268 1.61797 409.404 0H409.905L426.43 36.2421ZM412.893 26.7715L407.456 13.1236L401.761 26.7715H412.893ZM460.112 20.0774C463.417 22.2239 465.339 25.138 465.102 29.2934C464.765 36.5336 459.305 40.7999 450.418 40.7999C445.433 40.7999 440.763 39.5156 438.734 37.4255C437.815 35.1024 438.598 30.415 440.052 27.9904H440.541C440.095 33.785 444.354 38.5655 451.021 38.4577C455.854 38.3693 458.705 35.691 458.701 32.209C458.705 29.9546 457.245 28.451 454.258 26.4687L444.574 20.0425C440.749 17.5048 438.849 14.1196 439.254 10.0686C439.727 4.31391 443.944 0.338218 450.955 0.338218C452.743 0.338218 455.985 0.58663 458.524 0.908492H462.015L461.286 9.07811H460.751C460.743 5.21916 457.617 2.68045 452.916 2.68045C448.54 2.68045 445.776 5.04183 445.641 8.02596C445.506 10.2147 447.184 11.6806 449.513 13.1934L460.112 20.0774ZM492.121 40.0214H475.237L475.246 39.4658H475.949C477.894 39.4658 479.473 37.9063 479.51 35.9706V5.13835C479.462 3.21294 477.888 1.66579 475.95 1.66579H475.248L475.238 1.1102H492.121L492.113 1.66579H491.409C489.476 1.66579 487.905 3.20664 487.849 5.12628V35.9706C487.886 37.9063 489.465 39.4658 491.41 39.4658H492.113L492.121 40.0214ZM531.034 40.0235H502.256L502.265 39.4677H502.968C504.914 39.4677 506.492 37.909 506.529 35.9728V4.98604C506.403 3.13302 504.862 1.66825 502.975 1.66825H502.273L502.265 1.1158H523.572C525.968 1.09429 529.173 0.540014 530.207 0.105096V9.82238L529.646 9.81398V9.16081C529.653 5.816 527.55 3.63116 524.216 3.49134H514.865V19.6624H522.233C524.963 19.6108 526.955 17.6067 526.946 14.8993V14.4179L527.489 14.4106V27.2557L526.946 27.2492V26.7678C526.953 24.0836 524.995 22.0907 522.303 22.0068H514.864V37.6475H522.161C527.713 37.6475 531.317 34.1977 533.039 28.6817H533.596L531.034 40.0235ZM561.909 1.11402C568.647 1.11402 575.128 3.85497 575.128 11.596C575.128 16.2741 572.338 21.5294 566.03 22.1577C568.378 22.9268 570.466 25.1342 571.7 27.0816C571.869 27.3518 575.203 32.638 577.296 35.2486C579.693 38.3002 581.277 39.42 584.174 39.4633V40.0207H578.762C572.682 40.0207 568.261 38.7055 565.709 34.2594C564.357 31.9043 561.851 26.4009 561.079 24.7391C559.999 22.4192 558.757 21.2414 557.314 20.9938V20.4649H559.012C562 20.434 565.039 18.9086 566.03 14.0397C566.16 13.3632 566.283 12.4687 566.236 11.3489C566.013 6.03302 563.332 3.65485 559.681 3.56619C558.207 3.50245 556.162 3.56409 555.465 3.54729V35.9705C555.501 37.9067 557.079 39.4657 559.035 39.4651H559.728L559.736 40.0207H542.837L542.846 39.4651H543.549C545.486 39.4651 547.059 37.9203 547.108 35.997V5.16054C547.071 3.22464 545.492 1.66569 543.553 1.66857H542.844L542.835 1.11587L561.909 1.11402Z" fill="white"/>
</g>
</svg>
