<svg width="168" height="76" viewBox="0 0 168 76" fill="none" xmlns="http://www.w3.org/2000/svg">
<path d="M37.0511 30.5161C37.1928 30.1974 44.438 13.6782 31.2453 3.78666C31.237 3.77832 27.3436 0 19.8109 0H0.00624948C0.00624948 0 0 0.00208287 0 0.00624861V75.2561C0 75.2561 0.00208316 75.2624 0.00624948 75.2624H26.7686C27.479 75.2624 28.1872 75.1957 28.8851 75.0562C33.3597 74.1605 48.4085 69.7594 48.4085 51.0844C48.4085 51.0844 49.1918 37.3771 37.0511 30.5224C37.049 30.5224 37.0469 30.5182 37.049 30.514L37.0511 30.5161ZM41.0653 51.6739C41.2799 56.6478 38.6114 61.1405 36.1845 63.6879C33.0827 66.9434 28.733 68.7138 24.2355 68.7138H6.4953C6.4953 68.7138 6.48905 68.7118 6.48905 68.7076V6.43606C6.48905 6.43606 6.49113 6.42982 6.4953 6.42982H19.8088C29.9413 6.42982 31.7578 17.0066 31.7578 17.0066C34.0555 28.6832 26.8082 33.6258 26.4811 33.8424C26.477 33.8445 26.4811 33.8508 26.4853 33.8529C41.5486 36.4065 41.0633 51.6656 41.0633 51.6739H41.0653Z" fill="white"/>
<path d="M36.6598 0L75.6263 75.2624L89.7236 49.5181L103.234 75.2624L143.181 0H134.958L103.238 58.5286L93.6425 41.4887L116.159 0C116.159 0 106.759 0 107.346 0C107.933 0 89.9193 34.2424 89.9193 34.2424L70.7307 0H63.0949L85.2216 41.4887L76.0178 58.9202L43.9063 0H36.6619H36.6598Z" fill="white"/>
<path d="M159.486 0L130.038 37.5729L159.436 75.2624H167.39L139.115 37.5729L167.39 0H159.486Z" fill="white"/>
</svg>
