<svg width="353" height="136" viewBox="0 0 353 136" fill="none" xmlns="http://www.w3.org/2000/svg">
<g opacity="0.999184">
<path fill-rule="evenodd" clip-rule="evenodd" d="M4.03335 135.132L4.16904 134.714C4.03335 134.714 3.89209 134.855 3.47574 134.991C3.19694 134.991 2.7806 135.132 2.50178 135.132H1.80664C1.52969 135.132 1.25274 134.991 1.11149 134.855C0.972094 134.714 0.695144 134.577 0.416348 134.437V133.741C0.416348 133.324 0.416348 132.906 0.27695 132.492C0.27695 132.211 0.27695 131.797 0.139398 131.656C0.139398 131.515 0 131.379 0 130.961C0.416348 129.294 1.11149 127.626 1.94792 126.095C2.64306 123.869 3.61518 122.065 4.72854 120.257C5.83818 118.449 7.08723 116.641 8.33998 114.832C8.61878 114.278 9.45334 113.306 10.5667 111.775C11.6801 110.248 13.0704 108.44 14.5964 106.495C16.1279 104.546 17.7952 102.324 19.6037 100.098C21.4066 97.8721 23.0794 95.7868 24.7467 93.8421C26.414 91.8976 27.8043 90.2257 29.1946 88.6991C30.4436 87.3088 31.4213 86.3365 31.9752 85.9186C32.5291 85.5006 33.0885 85.0826 33.5067 84.6647C33.7837 84.2511 34.2019 83.8331 34.7558 83.556L37.5364 81.0526C38.0903 80.6347 38.6498 80.2167 39.2037 79.5217C39.6219 79.1037 39.8988 78.6901 40.317 78.2721C40.594 78.1314 40.7352 77.995 41.0122 77.7134C41.4304 77.2998 41.7073 76.8818 41.8467 76.3232C41.9843 76.046 42.1255 75.628 42.5419 75.3509L42.6794 75.2145V75.0737C43.237 73.6834 43.7928 72.2932 44.211 71.0437C44.6236 69.6535 45.1831 68.3996 45.8783 67.0094L47.9637 61.1711C49.0752 58.6678 50.0492 55.7509 50.88 52.8296C51.7164 49.9083 52.551 46.9914 53.5249 44.3473V44.2109C53.6606 42.4027 53.9413 40.8717 54.497 39.6222C55.0509 38.3728 55.6085 36.8417 56.0267 35.4515C56.168 35.3107 56.4412 35.1743 56.8631 35.0335C57.417 34.8971 57.9728 34.7563 58.5304 34.4792C58.8074 34.3384 58.9449 34.202 59.0843 34.0612H59.2256C59.5025 34.0612 59.9207 34.202 60.1977 34.3384C60.6159 34.6156 61.1698 34.7563 61.588 34.7563C61.8649 35.1743 62.1419 35.4515 62.7013 35.4515C62.9783 35.4515 63.3965 35.5922 63.6734 35.8693C63.9504 36.1465 64.3686 36.7009 64.6455 37.1188C64.9225 37.5368 65.0637 37.9548 64.9225 38.3728V38.5092V38.6499C65.0637 38.927 65.0637 39.2042 65.0637 39.345C64.9225 39.6222 64.9225 39.8993 64.9225 40.3173C64.2273 41.0124 63.811 41.7076 63.3965 42.5434C63.1158 43.375 62.7013 44.2109 62.1418 45.0425L62.0062 45.1831V45.3239C62.0062 45.4603 62.0062 45.6011 61.8649 45.7375C61.7255 45.8783 61.7255 46.0191 61.7255 46.1555L61.588 46.2962H61.4467V46.7142C61.1697 48.3816 60.7534 50.0491 60.3352 51.4394C59.7794 52.8296 59.2256 54.3606 58.6679 55.7508C58.1122 57.1412 57.417 58.5313 56.8631 60.058C56.3037 61.589 55.7461 63.1157 55.1922 64.7875L54.9134 65.7598L55.8873 65.3418C56.8632 64.9239 57.8353 64.3695 58.8074 63.6745C59.6401 62.9793 60.6159 62.2842 61.588 61.7254C62.5601 61.171 63.5322 60.476 64.5061 59.9216C65.6176 59.3629 66.5916 58.6677 67.7031 58.1134C68.6752 57.5547 69.6528 56.8596 70.625 56.3052L73.5413 54.6377C75.0728 53.9162 76.6044 53.1991 78.056 52.5172C78.214 52.0992 78.3813 51.69 78.5486 51.2986C78.9668 50.3262 79.5207 49.3539 79.9389 48.5179C80.3571 48.2409 80.7753 47.6865 81.0523 47.2686C81.3292 46.8506 81.4705 46.4326 81.6062 46.1554C83.4147 44.2109 85.2232 42.4026 87.1674 40.5944C89.1116 38.7863 91.0614 37.396 93.1468 36.4236C94.1189 35.8693 95.091 35.4514 96.0631 35.0334C97.1765 34.6155 98.1486 34.2019 98.985 33.9203C99.4032 33.7839 99.6801 33.6431 99.9571 33.3659C100.098 33.3659 100.234 33.2252 100.652 33.2252C103.574 33.2252 105.518 33.6431 106.353 34.6155C107.186 35.4514 107.604 36.2873 107.604 37.1188C107.604 37.2596 107.327 37.5368 106.909 37.8139C106.353 38.2319 105.937 38.6499 105.658 39.0677C105.241 39.4813 104.823 39.7629 104.546 40.1765C104.269 40.5944 103.99 40.8716 103.71 41.1532C100.234 43.7929 96.7583 46.2962 93.4238 48.2409C92.5874 48.7995 91.4796 49.2131 90.0893 49.4947C89.2529 49.6311 88.4165 49.6311 87.5856 49.6311C87.0317 49.6311 86.4723 49.6311 85.9184 49.4947H85.6414L85.5002 49.6311C85.0912 50.0446 84.6768 50.4582 84.2641 50.9818L84.3868 51.0214H84.805H85.2232C84.6247 51.4217 84.0392 51.8045 83.463 52.1652C83.0894 52.8032 82.7939 53.441 82.5783 54.079C82.3014 54.9149 82.1657 55.8872 82.1657 56.7231C82.1657 57.6955 82.5783 58.5313 83.4147 59.2265L83.556 59.3629H83.6917C84.1099 59.3629 84.5281 59.3629 84.9463 59.5036C86.1953 59.5036 87.3087 59.3629 88.4165 58.9449C89.6711 58.5313 90.9201 58.1133 92.1748 57.8362C93.1469 57.5547 94.119 57.2775 95.2323 57.0003C96.2044 56.7231 97.1765 56.446 98.0129 56.028C99.8196 55.1921 101.347 54.6377 102.461 54.079C103.574 53.5247 104.686 53.1067 105.795 52.6887C106.909 52.2752 107.881 51.7164 109.134 51.1622C110.247 50.6034 111.633 49.9082 113.446 49.0767C114.836 48.5179 116.226 47.8229 117.617 47.1277C118.531 46.6702 119.451 46.2698 120.366 45.8563C120.854 44.8487 121.33 43.8325 121.788 42.8206C121.923 42.4026 122.206 42.1254 122.483 41.5668C122.901 41.0124 123.178 40.5944 123.314 40.1765L123.732 38.5091C123.873 38.0911 123.873 37.6775 124.009 37.2596C124.15 37.1188 124.291 36.8416 124.568 36.7008C124.704 36.4236 124.986 36.2872 125.122 36.1464C125.676 35.7286 126.235 35.5921 126.931 35.5921C127.208 35.5921 127.626 35.5921 127.903 35.7286C128.875 36.0057 129.434 36.4236 129.57 36.9824C129.988 37.8139 129.988 38.3727 129.57 39.0677C129.152 39.7629 128.739 40.458 128.321 41.0124C128.18 41.5668 128.044 42.1254 128.044 42.5434C128.044 42.957 127.903 43.3749 127.761 43.6521L126.094 46.9914C125.54 48.1045 124.986 49.3539 124.427 50.7442L124.15 51.58L124.986 51.4394C125.676 51.2986 126.371 51.0214 126.789 50.6034C127.208 50.1898 127.626 49.9083 128.18 49.6311C130.542 47.8229 132.769 46.0191 134.713 44.2109C136.798 42.4026 139.166 40.8716 141.947 39.3449C142.919 38.7863 144.031 38.2319 145.14 37.5368C146.254 36.9824 147.506 36.5644 148.616 36.5644C149.311 36.5644 150.148 36.8416 151.12 37.396C151.954 37.9548 152.369 38.5091 152.51 38.927C152.649 39.7629 152.51 40.5945 152.233 41.4304C151.954 42.4026 151.674 43.2386 151.397 44.2109C151.259 44.9061 151.12 45.8783 150.843 47.2686C150.564 48.6588 150.148 50.1899 149.869 51.7164C149.588 53.2475 149.311 54.7742 149.175 56.1644C149.034 57.6955 148.897 58.6678 149.034 59.3629L149.175 59.9217L149.729 59.6401C150.564 59.3629 151.259 59.0857 151.815 58.8085C152.51 58.5314 153.205 58.2498 154.04 57.8362C155.014 57.4184 155.571 57.2776 155.707 57.1412C155.986 57.0004 156.125 57.0004 156.266 57.0004C156.402 57.0004 156.54 56.8596 156.681 56.7232C156.82 56.7232 157.097 56.446 158.352 55.8873C158.906 55.4693 159.601 54.915 160.157 54.4971C160.714 54.0791 161.268 53.8019 161.828 53.5248C162.105 53.384 162.523 53.384 163.077 53.384H163.218H163.354C164.049 52.9704 164.744 52.6888 165.3 52.4116C165.709 52.2093 166.117 52.0025 166.469 51.7474C166.543 51.5934 166.614 51.4437 166.69 51.2986C168.08 48.6588 169.469 45.8783 170.723 43.0978C170.859 42.6799 171.138 42.4027 171.418 41.8483C171.833 41.2897 172.114 40.8717 172.249 40.4581L172.668 38.7863C172.809 38.3728 172.809 37.9548 172.944 37.5368C173.086 37.396 173.223 37.1189 173.504 36.9825C173.64 36.7009 173.918 36.5645 174.058 36.4237C174.614 36.0057 175.171 35.8693 175.866 35.8693C176.143 35.8693 176.562 35.8693 176.838 36.0057C177.811 36.2873 178.37 36.7009 178.506 37.2597C178.924 38.0912 178.924 38.65 178.506 39.345C178.088 40.0401 177.675 40.7353 177.257 41.2897C177.115 41.8483 176.98 42.4027 176.98 42.8206C176.98 43.2386 176.838 43.6522 176.697 43.9338L175.03 47.2686C174.476 48.3816 173.918 49.6311 173.363 51.0215L173.086 51.8573L173.918 51.7165C174.614 51.5801 175.307 51.2986 175.725 50.8851C176.143 50.4671 176.561 50.1899 177.115 49.9083C179.478 48.1046 181.705 46.2963 183.649 44.4881C185.734 42.6799 188.102 41.1533 190.877 39.6222C191.855 39.0678 192.963 38.5092 194.076 37.814C195.189 37.2597 196.438 36.8417 197.552 36.8417C198.247 36.8417 199.083 37.1189 200.055 37.6777C200.892 38.232 201.304 38.7864 201.446 39.2042C201.587 40.0402 201.446 40.8717 201.169 41.7077C200.892 42.6799 200.609 43.5158 200.332 44.4882C200.197 45.1832 200.055 46.1555 199.778 47.5458C199.502 48.936 199.083 50.4671 198.806 51.9937C198.524 53.5248 198.247 55.0558 198.111 56.4461C197.97 57.9726 197.829 58.945 197.97 59.6401L198.111 60.1989L198.665 59.9217C199.502 59.6401 200.197 59.363 200.751 59.0858C201.446 58.8086 202.141 58.5314 202.977 58.1135C203.949 57.6956 204.503 57.5548 204.645 57.4184C204.922 57.2776 205.063 57.2776 205.198 57.2776C205.34 57.2776 205.475 57.1412 205.617 57.0005C205.758 57.0005 206.035 56.7233 207.284 56.1645C207.842 55.7509 208.537 55.1922 209.092 54.7743C209.646 54.3607 210.206 54.0792 210.76 53.802C211.037 53.6656 211.455 53.6656 212.012 53.6656H212.15H212.291C212.985 53.2476 213.68 52.9705 214.235 52.6889C214.789 52.4117 215.349 52.1345 215.765 51.7165C216.321 51.9937 216.321 52.1345 216.321 52.1345C216.321 52.161 216.315 52.1961 216.302 52.2313C216.412 52.0202 216.514 51.8002 216.602 51.5801C217.016 50.8851 217.297 50.19 217.57 49.4948C218.546 47.6866 219.518 45.8784 220.631 44.0702C221.603 42.2619 222.717 40.5946 223.968 39.0679C224.525 38.7864 225.079 38.5092 225.635 38.5092H225.774H226.051C226.192 38.5092 226.33 38.5092 226.469 38.65C226.746 38.7864 227.025 38.9271 227.306 38.9271H227.583L228.278 39.6222C228.555 39.763 228.555 40.0402 228.696 40.3174C228.832 40.8717 228.832 41.2897 228.832 41.5669C228.832 41.8483 228.832 42.1255 228.696 42.4027V42.5435V42.6799C228.696 43.0978 228.555 43.5158 228.278 44.0702C228.137 44.3474 227.86 44.629 227.86 44.9061C227.86 45.0425 227.72 45.324 227.583 45.4604C227.442 45.4604 227.306 45.4604 227.306 45.6012C227.025 45.7375 226.888 46.0191 226.888 46.2963H226.746L226.611 46.4327C226.051 47.5458 225.358 48.6588 224.663 49.772C223.968 50.8851 223.272 52.1345 222.717 53.1068C222.159 54.22 221.603 55.1922 221.326 56.0281C221.187 56.4461 220.769 57.5548 221.464 58.1135C221.603 58.2498 221.882 58.3906 222.298 58.3906C222.717 58.3906 223.412 58.2498 224.245 57.9727C225.497 57.5548 227.025 57.0005 228.832 56.1645C230.64 55.4694 232.585 54.6378 234.811 53.6656C236.897 52.6889 239.123 51.9937 241.345 51.2987C241.467 51.2678 241.609 51.2327 241.759 51.1887L241.904 50.6035L242.458 49.6312L243.012 47.6866L244.543 45.1832L245.097 42.6799C245.657 41.7077 246.211 40.8717 246.77 39.8994C247.183 39.0679 247.601 38.0912 248.019 37.2597C248.019 37.2597 248.155 37.2597 248.155 37.1189L248.991 37.5369L248.573 36.4237V36.1466L248.991 35.7287L249.133 35.5922L249.545 34.3384L250.382 33.0889C250.8 32.6709 251.077 32.1167 251.354 31.6987C251.631 31.0036 251.913 30.4448 252.326 29.8904C252.608 29.3361 253.021 28.7774 253.58 28.2231C253.716 28.2231 253.857 28.0823 253.999 27.9459L254.134 27.6643L253.999 27.5279V27.3871C254.134 26.9691 254.411 26.5556 254.829 25.9969C255.248 25.4426 255.525 25.0246 255.943 24.6066C256.22 24.1886 256.497 23.6343 256.779 23.0799C257.056 22.6621 257.333 22.2441 257.887 21.9669L258.028 21.8261L258.305 21.9669C259 20.713 259.837 19.4636 260.668 18.3505C261.504 17.2373 262.476 16.1287 263.448 15.0156L265.814 11.8171C265.952 11.8171 266.229 11.6763 266.37 11.54L267.342 10.2862C267.9 9.87258 268.456 9.31383 268.874 8.75947C269.29 8.34151 269.705 7.78715 270.262 7.50555L270.4 7.36916L270.541 7.09199V6.8105C271.236 6.25615 271.79 5.561 272.348 5.14302C273.043 4.58866 273.599 3.89363 274.152 3.19847C274.989 2.7805 275.684 2.08534 276.519 1.39019C277.074 0.835837 277.769 0.554357 278.881 0.554357H279.576H279.717H279.855C279.855 0.554357 280.136 0.417966 280.55 0.417966C280.966 0.417966 281.245 0.277178 281.526 0L287.083 1.39019C287.223 1.66737 287.5 1.94455 287.918 2.36252C288.336 2.6397 288.613 3.05766 288.754 3.33484C289.308 4.02998 289.308 4.72503 288.89 5.56098C288.336 6.53331 287.918 7.50554 287.779 8.34149C287.641 8.48227 287.641 8.61867 287.5 8.61867H287.223L287.083 9.03663C286.946 9.31381 286.946 9.4546 286.946 9.59099C286.251 10.5676 285.556 11.54 285.002 12.5123C284.442 13.4846 283.747 14.4568 283.193 15.4336C283.052 15.4336 282.916 15.57 282.916 15.7107V15.8471H282.775V16.2651H282.634V16.5423H282.357V17.1009C282.357 17.2373 282.357 17.3781 282.221 17.3781C281.803 17.6553 281.662 17.9325 281.526 18.3504C280.55 19.8814 279.576 21.2717 278.604 22.7984C277.769 24.1886 276.519 25.5789 275.27 26.9691V27.1099C274.848 27.9458 274.294 28.7774 273.738 29.4724C273.043 30.1676 272.348 31.0035 271.652 31.6987C271.652 31.6987 271.236 32.5302 271.095 33.0889C270.957 33.5068 270.68 33.6432 270.4 33.784L269.985 33.9204L270.123 34.3384C269.705 34.4792 269.569 34.7563 269.428 35.0335L269.151 35.3107H269.009H268.874L268.732 35.4515C267.483 36.8417 266.37 38.5092 265.119 40.0401C264.008 41.5668 262.753 43.0978 261.504 44.6289C260.255 46.1555 258.865 47.5458 257.474 48.7996C256.084 50.0491 254.411 51.1622 252.467 52.1344V52.2752L251.913 52.5524L252.467 53.1068C252.885 53.5247 253.021 53.6655 253.303 53.6655C253.58 53.6655 253.857 53.5248 253.999 53.1068L254.134 52.9704C254.134 52.9704 254.276 52.8296 254.694 52.8296C256.22 52.9704 257.751 52.9704 259 52.9704C260.532 52.9704 261.922 52.9704 263.171 52.8296C265.534 52.5524 267.619 52.1344 269.705 51.4394C271.653 50.7443 273.738 49.9083 275.684 48.7996C277.628 47.823 280.136 46.5734 282.916 45.3239L286.669 43.6522C287.223 43.5158 287.918 43.375 288.336 43.2386C288.375 43.221 288.416 43.2034 288.455 43.1858C288.873 42.7854 289.295 42.3851 289.726 41.9848C291.671 40.1765 293.62 38.7863 295.706 37.814C296.678 37.2596 297.65 36.8417 298.622 36.4237C299.736 36.0057 300.708 35.5921 301.544 35.3106C301.962 35.1743 302.239 35.0335 302.516 34.7563C302.657 34.7563 302.793 34.6155 303.211 34.6155C306.133 34.6155 308.077 35.0335 308.914 36.0057C309.745 36.8416 310.163 37.6776 310.163 38.5091C310.163 38.6499 309.886 38.927 309.468 39.2042C308.914 39.6221 308.496 40.0401 308.219 40.4581C307.8 40.8717 307.382 41.1532 307.105 41.5668C306.828 41.9848 306.546 42.2618 306.269 42.5434C302.793 45.1831 299.317 47.6866 295.983 49.6311C295.146 50.1899 294.039 50.6034 292.648 50.885C291.812 51.0214 290.976 51.0214 290.145 51.0214C289.585 51.0214 289.031 51.0214 288.477 50.885H288.195L288.059 51.0214C287.5 51.5801 286.946 52.1344 286.392 52.9704C285.832 53.8019 285.414 54.6378 285.137 55.4693C284.86 56.3052 284.719 57.2776 284.719 58.1134C284.719 59.0857 285.137 59.9217 285.974 60.6168L286.109 60.7532H286.251C286.669 60.7532 287.087 60.7532 287.5 60.8939C288.754 60.8939 290.003 60.7532 290.976 60.3352C292.23 59.9217 293.479 59.5037 294.734 59.2265C295.706 58.9449 296.678 58.6678 297.791 58.3906C298.763 58.1134 299.736 57.8362 300.572 57.4184C302.38 56.5824 303.906 56.0281 305.02 55.4693C306.133 54.9149 307.241 54.4971 308.354 54.0791C309.468 53.6655 310.44 53.1068 311.694 52.5524C312.802 51.9936 314.193 51.2986 316.001 50.4671C317.395 49.9083 318.785 49.2132 320.172 48.518C320.748 48.2321 321.324 47.9681 321.901 47.7041C322.02 47.4666 322.138 47.229 322.257 46.9914C322.534 46.8506 322.676 46.5735 322.676 46.4327C323.092 44.9061 323.648 43.375 324.343 41.8483C325.038 40.3173 325.592 38.7863 326.151 37.396C326.287 37.1188 326.287 36.9825 326.428 36.8417L326.982 36.2873C327.404 36.1465 327.677 36.0057 327.958 35.8693C328.235 35.7287 328.373 35.7287 328.653 35.7287H328.794L329.209 35.8693C329.209 35.8693 329.348 35.7287 329.49 35.7287H330.044C330.32 35.7287 330.462 35.8693 330.739 35.8693C331.294 35.8693 331.711 36.1465 331.99 36.5645C332.824 37.6776 332.824 38.5092 331.711 39.4814L331.575 39.6222V39.7629C331.434 40.3173 331.294 41.0124 331.157 41.5668C330.88 42.2618 330.739 42.8206 330.739 43.2386L330.462 44.3473L331.434 43.6522C334.356 41.7076 337.413 40.3173 340.33 39.4813C343.251 38.7863 346.032 38.232 348.394 38.0911C349.09 37.9548 349.926 37.9548 350.757 37.814H351.175C351.593 37.814 352.147 37.9548 352.424 38.0911V38.3727C352.424 38.3727 352.288 38.3727 352.288 38.5091L352.011 38.6499H351.87L351.593 38.927C351.452 39.0678 351.452 39.345 351.034 39.345C350.48 39.4813 350.062 39.6221 349.643 40.0401C347.976 40.4581 346.168 41.0124 344.223 41.7076C342.279 42.4026 340.471 43.2386 338.662 43.9337C336.854 44.7653 335.186 45.6011 333.796 46.4326C332.27 47.2686 331.157 48.2409 330.32 49.0767L328.099 51.0214C327.263 51.7164 326.568 52.5524 325.873 53.3839C325.592 54.0791 325.319 54.9149 325.038 55.7509C324.761 56.7232 324.482 57.5547 324.202 58.5314C323.928 59.3629 323.648 60.1989 323.371 60.8939C322.953 61.7254 322.815 61.8662 322.676 62.007H322.534V62.1434C322.397 62.2842 322.12 62.7022 321.562 63.3973C321.007 63.9517 320.73 63.9517 320.73 63.9517H320.59H320.449C319.754 64.6467 319.2 64.7875 318.782 64.7875C318.228 64.7875 317.81 64.6467 317.391 64.2287C316.696 63.6745 316.419 62.8385 316.559 61.7254C316.696 61.0304 317.114 59.7809 317.668 58.2498C318.363 56.5824 318.644 55.4693 318.923 54.4971V54.3607C319.059 54.0791 319.059 53.9427 319.059 53.6655C319.468 53.0144 319.828 52.3589 320.14 51.7077C319.841 51.888 319.529 52.0773 319.2 52.2752L315.029 54.4971C313.639 55.1921 312.39 55.8873 311.135 56.5824C309.886 57.1412 309.05 57.5547 308.496 57.8362L299.04 61.7254C298.345 62.1434 297.65 62.4206 296.819 62.5614C295.983 62.7022 295.146 62.9793 294.316 63.2565C293.344 63.5337 292.089 63.6745 290.84 63.9517C289.727 64.0923 288.613 64.2287 287.641 64.2287C287.223 63.8109 286.946 63.8109 286.805 63.8109C285.556 63.8109 284.442 63.5337 283.329 63.1157C282.221 62.7022 281.385 62.007 280.69 61.0304C280.136 60.3352 279.859 59.6401 279.717 58.6678C279.576 57.6955 279.717 56.7232 279.994 55.7509C280.271 54.7743 280.69 53.6655 281.108 52.6888C281.526 51.7165 282.08 50.7442 282.498 49.9083C282.916 49.6311 283.329 49.0767 283.611 48.6588C283.888 48.2409 284.024 47.8229 284.165 47.5458C284.201 47.5106 284.232 47.4754 284.268 47.4402C283.805 47.6601 283.361 47.8845 282.916 48.1045C281.94 48.6588 280.967 49.2131 279.855 49.7719C279.16 50.1899 278.465 50.6034 277.77 50.885C276.933 51.1622 276.379 51.5801 275.823 52.1344C273.599 52.8296 271.79 53.5247 270.4 54.0791C269.009 54.7742 267.619 55.3329 266.37 55.7509C265.119 56.1645 263.729 56.446 262.199 56.7232C261.227 56.8596 260.114 56.8596 258.865 56.8596C258.028 56.8596 257.056 56.8596 256.084 56.7232L254.971 56.5824L255.666 57.4184C256.779 58.8086 257.751 60.3352 258.305 62.007C258.865 63.6745 259.419 65.4827 259.696 67.2865C259.973 69.0947 260.114 70.7621 259.973 72.434C259.973 74.1013 259.696 75.4916 259.56 76.7411C259.56 77.0182 259.696 77.2998 259.973 77.2998C259.419 79.7988 258.723 82.4429 257.887 84.9463C257.056 87.586 255.943 90.2257 254.694 92.729C253.999 93.8421 253.304 95.0916 252.608 96.3454C251.913 97.5949 251.077 98.7081 250.24 99.8211C249.268 100.93 248.155 102.043 247.047 103.015C246.352 103.851 245.657 104.546 245.097 105.101C244.543 105.659 243.848 106.354 243.012 106.909C242.599 107.049 242.317 107.327 242.04 107.745C242.04 107.745 241.904 108.022 241.068 108.163H240.791H240.65H240.373C240.096 108.163 239.954 108.163 239.819 108.299C239.259 108.44 238.705 108.717 238.287 108.858C238.01 108.994 237.451 109.271 236.756 109.412C236.06 109.966 235.925 109.966 235.648 109.966C235.23 109.966 234.953 109.83 234.534 109.689C233.839 109.412 233.28 109.135 232.585 108.858C232.308 108.717 231.89 108.576 231.613 108.44C231.336 108.299 231.196 108.299 231.059 108.163C230.501 107.745 229.945 107.049 229.527 106.077C229.111 105.101 228.696 104.269 228.416 103.433C228.001 101.348 227.72 99.1259 227.86 96.8998C228.001 94.6781 228.278 92.5883 228.696 90.5029C229.111 87.4452 229.806 84.2511 230.782 80.9119C231.754 77.4362 232.867 73.9606 234.116 70.485C235.365 67.0094 236.62 63.5337 237.869 60.1989C238.622 58.1355 239.374 56.1952 240.083 54.3827C239.59 54.6291 239.092 54.8578 238.564 55.0558C237.592 55.3329 236.202 56.0281 234.393 57.1412C232.585 58.2498 230.782 59.3629 228.832 60.4761C226.888 61.5891 225.079 62.7022 223.412 63.5337C221.882 64.3696 221.046 64.506 220.769 64.506H220.492L220.213 64.3696L219.936 64.506C219.382 64.6467 219.241 64.6467 219.241 64.6467H218.687C217.297 64.6467 216.18 64.506 215.208 64.2288C214.375 63.9517 213.68 63.5337 212.985 62.7022C212.845 61.8663 212.845 61.0304 212.985 60.1989C213.263 59.2266 213.54 58.2498 214.094 57.0004L214.931 55.3329C215.208 54.7743 215.485 54.2199 215.626 53.5248C215.71 53.3576 215.81 53.1772 215.912 52.988C215.356 53.6083 214.578 54.1099 213.68 54.4971H213.54L212.291 55.7509C212.013 56.0281 211.596 56.3053 211.037 56.4461L209.093 57.8363L208.537 58.3906C208.537 58.3906 208.397 58.5314 207.979 58.6678C207.702 58.8086 207.007 59.2266 205.894 59.9217C204.922 60.3353 203.95 61.0304 202.695 61.7255C201.587 62.4206 200.474 62.9794 199.502 63.2565C198.665 63.3973 197.97 63.5337 197.134 63.5337C196.439 63.6745 195.743 63.6745 195.19 63.6745H194.771C194.076 63.6745 193.522 63.2565 192.963 62.4206C192.268 61.4483 191.991 60.6169 191.991 59.7809C191.991 59.5037 192.132 58.945 192.409 57.4184C192.686 56.1645 192.963 54.915 193.245 53.5248C193.522 52.1344 193.799 50.8851 194.217 49.6311C194.494 48.3816 194.771 47.5458 194.771 46.9914C194.913 45.8783 195.048 44.9061 195.331 44.0701C195.608 43.2386 195.885 42.2619 196.026 41.4304L196.162 40.7353L195.467 40.8717C194.771 41.0125 194.076 41.2897 193.522 41.7076L191.991 42.8207C190.465 43.9338 188.798 45.0425 187.407 46.1555C185.876 47.2686 184.344 48.518 182.954 49.772C182.123 50.4671 181.151 51.1623 180.173 51.8573C179.065 52.5525 178.088 53.384 177.116 54.2199C174.199 57.0004 171.696 59.363 169.887 61.3119C167.662 63.5338 166.69 64.0924 166.134 64.2288C165.995 64.7876 165.857 64.7876 165.716 64.7876C165.3 64.7876 164.744 64.6468 164.049 64.2288C163.214 63.8109 162.8 63.3974 162.659 62.8386C162.659 62.7022 162.659 62.4206 162.8 61.7255C163.073 61.1711 163.214 60.6169 163.495 60.0581C164.062 57.8715 164.766 55.7465 165.549 53.8239C165.294 53.9691 165.027 54.1011 164.744 54.2199H164.605L163.354 55.4693C163.077 55.7509 162.659 56.0281 162.105 56.1645L160.157 57.5548L159.601 58.1134C159.601 58.1134 159.462 58.2498 159.047 58.3906C158.766 58.5314 158.071 58.945 156.962 59.6401C155.986 60.0581 155.014 60.7532 153.759 61.4483C152.65 62.1434 151.538 62.7022 150.564 62.9794C149.73 63.1158 149.034 63.2565 148.202 63.2565C147.507 63.3973 146.811 63.3973 146.254 63.3973H145.836C145.14 63.3973 144.586 62.9794 144.031 62.1434C143.336 61.1711 143.055 60.3353 143.055 59.5037C143.055 59.2265 143.196 58.6678 143.473 57.1412C143.75 55.8873 144.031 54.6378 144.31 53.2476C144.587 51.8573 144.863 50.6035 145.282 49.3539C145.559 48.1046 145.836 47.2686 145.836 46.7142C145.977 45.6011 146.116 44.6289 146.395 43.793C146.672 42.957 146.949 41.9848 147.09 41.1533L147.226 40.4581L146.531 40.5945C145.836 40.7353 145.14 41.0125 144.587 41.4305L143.055 42.5435C141.529 43.6522 139.862 44.7653 138.471 45.8783C136.94 46.9915 135.408 48.241 134.018 49.4948C133.187 50.1899 132.215 50.8851 131.237 51.5801C130.13 52.2753 129.152 53.1068 128.18 53.9428C125.263 56.7233 122.76 59.0858 120.951 61.0304C118.73 63.2566 117.753 63.8109 117.199 63.9517C117.057 64.506 116.922 64.506 116.78 64.506C116.362 64.506 115.808 64.3696 115.113 63.9517C114.277 63.5338 113.864 63.1158 113.723 62.5614C113.723 62.4206 113.723 62.1435 113.864 61.4483C114.141 60.8939 114.277 60.3353 114.559 59.7809C115.39 56.5825 116.503 53.5248 117.752 51.0215C117.961 50.6299 118.167 50.234 118.373 49.8335C117.845 50.1547 117.269 50.5067 116.641 50.8851L112.47 53.1068C111.08 53.802 109.829 54.4971 108.58 55.1921C107.327 55.7509 106.491 56.1645 105.937 56.4461L96.4815 60.3353C95.7864 60.7532 95.0912 61.0304 94.2604 61.1711C93.424 61.3119 92.5875 61.5891 91.7567 61.8663C90.7846 62.1434 89.53 62.2842 88.281 62.5614C87.1676 62.7022 86.0542 62.8386 85.0822 62.8386C84.6639 62.4206 84.387 62.4206 84.2513 62.4206C82.9967 62.4206 81.8833 62.1434 80.7756 61.7255C79.6622 61.3119 78.8258 60.6169 78.1306 59.6401C77.5767 58.945 77.2998 58.2498 77.1585 57.2776C77.0879 56.7716 77.0879 56.2613 77.1455 55.7554C74.5099 57.0884 72.5266 58.2939 71.3204 59.5038L53.6609 72.016C53.107 72.1524 52.83 72.5704 52.5512 72.9884C52.5512 73.1292 52.4118 73.2655 51.9973 73.4063L51.5754 73.5427L51.7167 73.9606L51.4397 74.1014L51.1609 74.2378V74.5193C50.8803 75.4917 50.4658 76.3232 49.9082 77.159C49.7706 77.2998 49.6312 77.4362 49.6312 77.8542V77.995C48.0996 80.3575 46.5737 82.8609 45.4603 85.3598C44.2112 88.0039 42.9566 90.6436 41.7076 93.147C40.4585 95.6503 39.2039 98.2901 37.6779 100.653C36.2876 103.02 34.6148 105.382 32.6706 107.467C32.1167 108.299 31.5572 109.412 30.7264 110.943C29.89 112.47 28.9179 114.137 27.9458 115.668C26.9681 117.199 25.8603 118.726 24.8827 119.98C23.9106 121.229 23.0797 121.784 22.2433 121.924L21.5482 122.065L21.8251 122.619H21.6894C21.5482 122.619 21.5482 122.76 21.5482 122.76H20.9943V123.315C20.9943 123.455 20.7117 123.733 20.1579 124.151C19.604 124.564 19.1858 124.982 18.7675 125.541C18.3493 125.954 18.0724 126.372 17.9367 126.649C17.7955 126.79 17.5185 126.931 17.3772 127.345H17.2416H17.1003H16.959H16.8233C16.5464 127.485 16.2639 127.626 16.2639 127.903L16.1282 128.04C15.71 128.04 15.433 128.18 15.2918 128.458C15.0148 128.598 14.5966 128.876 14.5966 129.294H14.3197L14.1784 129.43C13.9015 129.712 13.7658 129.848 13.6245 130.125C12.9294 130.266 12.2342 130.684 11.816 131.238C11.3978 131.656 10.8439 131.933 10.29 132.211L8.48147 132.769L8.89969 132.906L9.03537 133.187C9.03537 133.187 8.89969 133.187 8.89969 133.324C8.48147 133.464 8.06328 133.601 7.64507 133.882C7.08745 134.019 6.67297 134.159 6.25476 134.296C5.97781 134.296 5.69715 134.437 5.55961 134.577L5.002 134.296V134.855H4.58752L4.30686 135.55C4.16931 135.55 4.03364 135.409 4.03364 135.132L4.03335 135.132ZM11.5393 119C11.2624 119.695 10.8442 120.254 10.2903 120.808C9.87206 120.808 9.59512 121.367 9.31444 122.199C8.7587 122.758 8.34048 123.453 8.2048 124.284C8.06353 124.979 7.64532 125.538 7.36839 126.092V126.233V126.369C7.22899 126.928 6.95018 127.342 6.67325 127.76C6.25503 128.319 6.11935 129.014 6.25503 129.845L6.39258 130.404L6.9502 130.122C8.6193 129.291 9.87208 128.319 10.8442 127.065C11.8163 125.951 12.9296 124.843 14.3199 123.73L14.4612 123.589V123.312C14.8738 123.035 15.292 122.617 15.4333 122.062C15.569 121.781 15.8515 121.504 16.1284 121.367L16.2641 121.226V121.086C16.9593 119.559 17.7957 118.169 18.909 117.056C20.0168 115.806 20.9945 114.416 21.8253 112.885C22.7974 111.772 23.6339 110.663 24.329 109.409C25.0242 108.16 25.8606 107.047 26.8327 106.075C27.8048 103.848 28.9181 101.904 30.3084 100.236C31.6987 98.4282 32.8121 96.2019 33.7842 93.5622C33.9199 93.1442 34.0611 93.0034 34.0611 93.0034C34.2024 92.867 34.3381 92.5899 34.2024 92.0312L34.0611 91.754H32.9478L32.8121 91.8948C31.9757 92.867 30.8623 94.1166 29.6133 95.5069C28.3587 96.8971 27.1096 98.4282 25.8606 99.9547C24.606 101.486 23.3569 103.017 22.2436 104.407C21.1302 105.793 20.1581 106.906 19.6042 107.601C18.7678 108.991 17.7957 110.382 16.5466 111.772C15.292 113.162 14.3199 114.416 13.4835 115.525L13.3478 115.665V115.806C13.3478 116.083 13.0709 116.361 12.7884 116.779V116.915C12.6527 117.197 12.3757 117.61 12.2345 118.028C12.0932 118.305 11.9575 118.587 11.6806 118.864H11.5393L11.5393 119ZM246.074 57.0009C245.097 58.5319 244.266 60.3358 243.706 62.2847C243.152 64.0929 242.457 65.8967 241.621 67.7049C241.067 68.5409 240.649 69.5132 240.372 70.349C240.095 71.1805 239.818 72.2937 239.535 73.266C238.563 76.0465 237.591 78.827 236.755 81.6075C235.924 84.388 235.088 87.3093 234.534 90.5033C234.257 92.4524 233.974 94.5378 233.839 96.7595C233.697 98.9856 233.974 101.212 234.811 103.574C235.506 105.66 236.619 106.773 238.009 107.05H238.286L238.428 106.909C240.231 105.519 241.903 103.852 243.152 102.184C244.402 100.517 245.515 98.7086 246.487 96.7595C249.545 91.3393 251.913 85.5011 253.58 79.5221C253.998 77.5775 254.411 75.4921 254.552 73.1296C254.829 70.7626 254.552 68.4001 253.715 66.0375C253.303 64.37 252.608 63.1162 251.912 62.0075L249.545 58.9454C249.132 58.5319 248.714 58.1139 248.295 57.5552C248.019 57.1417 247.465 56.8601 246.905 56.8601H246.351H246.21L246.074 57.0009ZM304.468 38.2347C301.269 39.2069 298.489 40.738 295.985 42.6825C293.623 44.6316 291.26 46.8533 289.175 49.2159L288.48 50.0518H289.587C290.424 50.0518 291.26 49.911 292.091 49.3567C292.786 48.9387 293.623 48.5207 294.318 48.2437C296.126 46.9942 297.929 45.6038 299.738 44.0728C301.546 42.5462 303.213 41.0152 304.604 39.4841C304.881 39.3477 305.158 39.0705 305.158 38.6526V37.9575L304.468 38.2347ZM250.449 47.9143C250.264 48.6094 250.334 48.9966 250.659 49.2121L251.078 49.4937L251.355 49.0758C256.362 43.6511 260.951 38.2309 264.981 32.947C269.01 27.6632 273.044 21.825 277.075 15.7097C277.77 13.9014 278.605 12.2341 279.718 10.5666C280.832 8.89478 281.662 6.80944 282.081 4.72399L282.222 4.31042L281.804 4.16963C281.527 4.02896 281.386 4.02896 281.109 4.02896H280.551L280.413 4.16963C278.882 5.28276 277.356 6.53226 275.824 7.92246C274.295 9.17637 273.044 10.5666 271.932 11.9569H271.653L271.514 12.2341C271.373 12.3704 271.096 12.9292 270.542 13.7606C269.986 14.5966 269.291 15.5689 268.596 16.5412L266.51 19.4625C265.676 20.5755 265.399 20.9935 265.258 21.1299L265.12 21.2707V21.5479C265.12 21.5479 265.12 21.825 264.425 22.243L264.144 22.3838V22.661C264.144 22.661 264.144 22.7974 263.73 23.6332C263.449 24.3283 263.036 24.8827 262.754 25.5778C262.341 26.273 261.923 26.8316 261.646 27.5268C261.228 28.222 260.951 28.4991 260.951 28.7763C260.81 29.1943 260.533 29.4713 260.256 29.8893C259.973 30.1665 259.696 30.4437 259.419 30.5845L258.583 31.0024L259.143 31.2796C259.143 31.2796 259.001 31.4204 259.001 31.5568C258.866 31.9748 258.583 32.2519 258.583 32.8106C258.583 32.947 258.447 33.0878 258.17 33.2242L257.475 33.5058L257.888 33.9193C257.611 34.0601 257.475 34.2009 257.475 34.3373V34.4781H256.085L257.334 35.3096C257.057 35.4504 256.78 35.7276 256.78 35.8683L256.085 35.4504L255.944 35.7276L251.914 44.2099C251.355 45.4593 250.936 46.4316 250.659 47.2676C250.585 47.4743 250.518 47.659 250.47 47.8263C250.488 47.8263 250.505 47.8219 250.524 47.8219C250.492 47.8527 250.466 47.8835 250.449 47.9143L250.449 47.9143ZM101.903 36.8423C98.7062 37.8147 95.9256 39.3457 93.422 41.2903C91.0596 43.2393 88.6972 45.461 86.6117 47.8237L85.9166 48.6595H87.0299C87.8608 48.6595 88.6972 48.5187 89.528 47.9645C90.2232 47.5465 91.0596 47.1285 91.7547 46.8513C93.5632 45.6018 95.3662 44.2116 97.1747 42.6805C98.9832 41.154 100.65 39.6228 102.044 38.0919C102.318 37.9555 102.598 37.6783 102.598 37.2603V36.5652L101.903 36.8423ZM200.199 100.239V77.8544L214.238 77.9952V80.4941L202.838 80.3577V87.309L213.401 87.4454V89.9487L202.838 89.8123V97.7359L214.795 97.8723V100.376L200.199 100.239ZM130.68 99.5437C129.566 98.985 128.73 98.4307 128.04 97.5948C127.345 96.7632 126.927 95.7909 126.65 94.6735C126.373 93.5648 126.232 92.4518 126.232 91.1978L126.373 77.4361H129.012L128.871 90.9207C128.871 91.7566 129.012 92.7288 129.148 93.5648C129.289 94.3963 129.708 95.0915 130.126 95.7909C130.538 96.4817 131.098 96.8996 131.929 97.3176C132.624 97.7356 133.602 97.872 134.709 97.872C135.823 97.872 136.795 97.7356 137.49 97.3176C138.185 96.8996 138.88 96.4817 139.298 95.7909C139.717 95.0915 140.135 94.3963 140.271 93.5648C140.412 92.7288 140.553 91.8974 140.553 90.9207L140.689 77.4361H143.328L143.051 91.3386C143.051 92.5924 142.915 93.7011 142.633 94.8143C142.356 95.9273 141.802 96.8996 141.107 97.7356C140.412 98.5671 139.575 99.2665 138.468 99.6801C137.354 100.098 136.1 100.375 134.574 100.375C133.042 100.375 131.793 100.098 130.68 99.5437V99.5437ZM183.649 100.098L183.513 90.5067L175.313 77.7128H178.647L184.904 87.8626L191.437 77.8536H194.636L186.294 90.5067V100.098H183.649ZM151.259 99.8217L151.397 77.5776H160.019C160.715 77.5776 161.547 77.714 162.382 77.8548C163.214 77.9956 164.049 78.2728 164.885 78.6908C165.716 79.1087 166.411 79.5223 167.248 80.081C167.943 80.6353 168.638 81.3305 169.192 82.1664C169.748 82.9979 170.164 83.9702 170.582 85.0833C170.859 86.1964 171.142 87.4458 171.001 88.6997C171.001 90.0899 170.859 91.3394 170.447 92.3161C170.164 93.4248 169.61 94.3971 169.056 95.233C168.497 96.0689 167.802 96.764 167.107 97.3184C166.411 97.8727 165.581 98.4315 164.744 98.7087C163.913 99.1265 163.077 99.2673 162.241 99.5445C161.41 99.6809 160.715 99.8217 159.878 99.8217H151.259ZM153.902 97.4569H158.908C160.159 97.4569 161.411 97.3161 162.521 97.0389C163.633 96.7617 164.607 96.203 165.302 95.5079C166.136 94.8128 166.692 93.9813 167.25 92.8681C167.668 91.7551 167.945 90.5056 167.945 88.9746C167.945 87.4435 167.668 86.1941 167.25 85.081C166.831 83.9679 166.136 83.1363 165.441 82.4413C164.607 81.7462 163.774 81.1874 162.661 80.9102C161.549 80.633 160.439 80.3559 159.045 80.3559H154.038L153.902 97.4569ZM115.112 99.5442L115.253 89.1173L103.294 88.9765L103.155 99.4034H100.513L100.651 77.1593H103.294V86.6139L115.253 86.7503V77.2957H117.892L117.751 99.5442L115.112 99.5442ZM88.8365 99.4019C88.5558 99.2655 88.2789 99.1248 88.0019 98.8476C87.725 98.5661 87.5837 98.4297 87.4424 98.1481C87.4424 97.871 87.3067 97.4574 87.3067 97.1758C87.3067 96.4807 87.5837 95.9263 88.0019 95.5084C88.5558 95.0905 89.1152 94.8133 89.8104 94.8133C90.5056 94.8133 91.0595 95.0905 91.6134 95.5084C92.1728 95.9263 92.3085 96.4807 92.3085 97.1758C92.3085 97.871 92.0316 98.4297 91.6134 98.8476C91.0595 99.2656 90.5056 99.5427 89.8104 99.5427C89.5279 99.5427 89.1153 99.5427 88.8365 99.402L88.8365 99.4019ZM78.5486 98.9858L73.4056 89.5356H70.4837V98.9858H66.454L66.731 76.8826H74.5189C75.6323 76.8826 76.6044 77.0189 77.5765 77.1597C78.5486 77.2961 79.5207 77.7141 80.2159 78.1321C81.0523 78.6908 81.6062 79.2452 82.0244 80.081C82.4426 80.9126 82.7195 81.8893 82.7195 83.1387C82.7195 84.8062 82.3013 86.06 81.3292 87.1687C80.4928 88.2818 79.1081 88.977 77.4352 89.1178L83.2734 98.9858H78.5486ZM70.3457 86.337L73.6802 86.4733H75.3474C75.9069 86.4733 76.4608 86.337 76.879 86.0598C77.2972 85.9191 77.7154 85.5011 77.9924 85.0832C78.2693 84.6652 78.4106 84.1108 78.4106 83.4157C78.4106 82.7206 78.2693 82.3027 77.9924 81.8891C77.7154 81.4711 77.4329 81.1895 76.879 80.9124C76.4608 80.7716 75.9069 80.6352 75.3474 80.4944C74.7935 80.4944 74.2397 80.358 73.8214 80.358H70.3457V86.337ZM227.859 33.0897C227.441 32.9489 227.164 32.8125 227.024 32.531C226.887 32.2538 226.887 31.9767 226.887 31.5587C226.887 31.1407 227.024 30.7272 227.164 30.3092C227.305 29.7504 227.441 29.4733 227.582 29.0554V28.919V28.7782C227.582 28.7782 227.72 28.501 228.136 27.9467C228.695 27.3879 229.249 26.8336 229.944 26.2749C230.64 25.7205 231.195 25.4434 231.889 25.1662C232.03 25.1662 232.171 25.0254 232.448 25.0254C232.725 25.0254 232.866 25.1662 233.143 25.3026L233.279 25.4434H233.561H233.697C233.838 25.4434 233.974 25.5798 233.974 25.5798C234.392 25.9977 234.534 26.6928 234.257 27.3879C234.115 28.0831 233.697 28.6418 233.143 28.919L232.725 29.1962L232.866 29.4733L232.584 29.614C232.448 29.7504 232.448 29.7504 232.448 29.8912L231.612 29.4733L232.03 30.5864L231.889 30.7272C231.612 30.8636 231.476 31.0043 231.335 31.2815H230.917V31.4223L230.64 31.6995C230.5 31.9767 230.221 32.1175 229.805 32.2538C229.249 32.3946 228.831 32.6717 228.554 32.9489C228.415 33.0897 228.277 33.0897 228.136 33.2261C228.136 33.2261 228 33.2261 227.859 33.0897L227.859 33.0897ZM60.8949 28.7763C60.7555 28.2219 60.7555 27.386 61.0325 26.5544C61.3131 25.7186 61.7276 24.7463 62.2852 23.9103C62.8391 23.0788 63.3986 22.5201 63.9525 22.2429C64.2294 22.2429 64.5082 22.1022 64.7889 21.9658C64.9246 21.825 65.0658 21.6886 65.2034 21.6886C65.484 21.6886 65.761 21.5478 65.8985 21.5478C66.1792 21.5478 66.5937 21.5478 66.8743 21.6886C67.4282 21.825 67.9821 21.9658 68.5416 22.2429C68.6773 22.3837 68.6773 22.6609 68.8186 22.7973V23.0788L68.1234 23.7739L69.0955 23.9103C69.7906 24.0511 69.7906 24.3283 69.7906 24.4691C69.7906 24.8827 69.5137 25.0234 69.2367 25.1642L68.8185 25.3006V25.5778C68.8185 25.7186 68.6773 25.7186 68.6773 25.8594C68.5416 25.9958 68.4003 26.1365 68.2646 26.4136C67.5695 26.5544 67.2888 26.968 67.1513 27.386C67.1513 27.5268 67.01 27.6631 66.7331 27.8039L66.0379 28.0811L66.3149 28.3583L65.6197 29.0534C65.484 29.1942 65.2034 29.3349 65.0658 29.3349H64.7889H64.6476H64.5082C64.3707 29.3349 64.2294 29.3349 64.0937 29.1942C63.8131 29.0535 63.6755 29.0535 63.5342 29.0535H63.2573C63.1179 28.9171 62.9803 28.9171 62.8391 28.9171C62.7034 28.9171 62.5621 28.9171 62.2852 29.0535L62.0082 29.1942L61.867 29.4713C61.0324 29.3349 60.8949 28.9171 60.8949 28.7763H60.8949Z" fill="white"/>
</g>
</svg>
