<svg width="609" height="159" viewBox="0 0 609 159" fill="none" xmlns="http://www.w3.org/2000/svg">
<path opacity="0.5" d="M23.5605 20.0366V38.1825C22.8727 40.237 20.9239 41.7341 18.6475 41.7341H18.1016C15.536 41.7341 13.3906 39.8436 12.9867 37.3848V26.6535L0 33.7676V127.246L12.9867 134.289V49.351C13.3961 46.8976 15.536 45.0125 18.1016 45.0125H18.6475C20.9293 45.0125 22.8727 46.5042 23.5605 48.5587V75.2667L36.5472 75.2066V12.917L23.5605 20.0366Z" fill="white"/>
<path opacity="0.5" d="M117.912 26.6479V69.595V112.542H117.797C117.524 115.143 115.308 117.186 112.639 117.186H112.093C109.423 117.186 107.207 115.143 106.934 112.542H104.996V124.836H106.972C107.365 122.366 109.516 120.465 112.093 120.465H112.639C115.215 120.465 117.366 122.366 117.759 124.836H117.912V133.742L130.898 126.699V33.7675L117.912 26.6479Z" fill="white"/>
<path d="M83.597 7.1196V151.413L70.6104 158.456V0L83.597 7.1196Z" fill="white"/>
<path d="M47.022 19.1841V138.299L36.6501 132.289V85.5171H23.5488V138.578L59.9432 158.456V0L46.9074 6.98846" fill="white"/>
<path d="M107.07 74.3816L98.3357 79.8346L107.07 85.2987V138.846L93.9686 145.976V85.4243L83.5967 80.0969L93.9686 74.2013V13.1738L107.07 20.96V74.3816Z" fill="white"/>
<path d="M176.888 88.585H183.895V96.9932H203.719V54.9863H210.726V96.9932C210.726 97.9502 210.532 98.8617 210.145 99.7275C209.78 100.571 209.279 101.311 208.641 101.949C208.025 102.587 207.285 103.089 206.419 103.453C205.576 103.818 204.676 104 203.719 104H183.895C182.938 104 182.026 103.818 181.16 103.453C180.317 103.089 179.576 102.587 178.938 101.949C178.323 101.311 177.822 100.571 177.435 99.7275C177.07 98.8617 176.888 97.9502 176.888 96.9932V88.585ZM247.845 54.9863V104H240.838V54.9863H247.845ZM303.25 104L284.964 68.0771V104H277.957V54.9863H285.613L304.275 91.9004L322.972 54.9863H330.594V104H323.621V68.0771L305.335 104H303.25ZM385.233 54.9863V76.1436L408.612 54.9863H418.49L391.967 79.0146L419.55 104H409.672L385.233 81.9541V104H378.227V54.9863H385.233ZM453.251 104L439.237 54.9863H446.244L457.113 93.9854L467.948 54.9863H474.955L485.79 93.9854L496.659 54.9863H503.666L489.652 104H481.962L471.469 67.2568L460.941 104H453.251ZM536.581 54.9863V104H529.574V54.9863H536.581ZM573.7 54.9863V76.1436L597.079 54.9863H606.957L580.434 79.0146L608.017 104H598.139L573.7 81.9541V104H566.693V54.9863H573.7Z" fill="white"/>
<path d="M176.888 88.585V87.585H175.888V88.585H176.888ZM183.895 88.585H184.895V87.585H183.895V88.585ZM183.895 96.9932H182.895V97.9932H183.895V96.9932ZM203.719 96.9932V97.9932H204.719V96.9932H203.719ZM203.719 54.9863V53.9863H202.719V54.9863H203.719ZM210.726 54.9863H211.726V53.9863H210.726V54.9863ZM210.145 99.7275L209.232 99.3191L209.227 99.3306L210.145 99.7275ZM208.641 101.949L207.934 101.242L207.927 101.249L207.921 101.255L208.641 101.949ZM206.419 103.453L206.031 102.531L206.022 102.535L206.419 103.453ZM181.16 103.453L180.763 104.371L180.772 104.375L181.16 103.453ZM178.938 101.949L178.219 102.643L178.225 102.65L178.231 102.656L178.938 101.949ZM177.435 99.7275L176.513 100.116L176.519 100.13L176.526 100.145L177.435 99.7275ZM176.888 89.585H183.895V87.585H176.888V89.585ZM182.895 88.585V96.9932H184.895V88.585H182.895ZM183.895 97.9932H203.719V95.9932H183.895V97.9932ZM204.719 96.9932V54.9863H202.719V96.9932H204.719ZM203.719 55.9863H210.726V53.9863H203.719V55.9863ZM209.726 54.9863V96.9932H211.726V54.9863H209.726ZM209.726 96.9932C209.726 97.8107 209.561 98.5829 209.232 99.3192L211.057 100.136C211.503 99.1404 211.726 98.0896 211.726 96.9932H209.726ZM209.227 99.3306C208.911 100.06 208.481 100.695 207.934 101.242L209.348 102.656C210.077 101.927 210.649 101.081 211.062 100.124L209.227 99.3306ZM207.921 101.255C207.405 101.79 206.78 102.216 206.031 102.531L206.807 104.375C207.79 103.961 208.646 103.385 209.36 102.643L207.921 101.255ZM206.022 102.535C205.309 102.843 204.545 103 203.719 103V105C204.806 105 205.842 104.792 206.816 104.371L206.022 102.535ZM203.719 103H183.895V105H203.719V103ZM183.895 103C183.068 103 182.289 102.843 181.548 102.531L180.772 104.375C181.763 104.792 182.807 105 183.895 105V103ZM181.557 102.535C180.828 102.22 180.193 101.789 179.646 101.242L178.231 102.656C178.96 103.385 179.807 103.957 180.763 104.371L181.557 102.535ZM179.658 101.255C179.125 100.702 178.686 100.056 178.343 99.31L176.526 100.145C176.958 101.085 177.522 101.921 178.219 102.643L179.658 101.255ZM178.356 99.3395C178.044 98.5988 177.888 97.8195 177.888 96.9932H175.888C175.888 98.0809 176.096 99.1245 176.513 100.116L178.356 99.3395ZM177.888 96.9932V88.585H175.888V96.9932H177.888ZM247.845 54.9863H248.845V53.9863H247.845V54.9863ZM247.845 104V105H248.845V104H247.845ZM240.838 104H239.838V105H240.838V104ZM240.838 54.9863V53.9863H239.838V54.9863H240.838ZM246.845 54.9863V104H248.845V54.9863H246.845ZM247.845 103H240.838V105H247.845V103ZM241.838 104V54.9863H239.838V104H241.838ZM240.838 55.9863H247.845V53.9863H240.838V55.9863ZM303.25 104L302.359 104.454L302.637 105H303.25V104ZM284.964 68.0771L285.855 67.6235L283.964 68.0771H284.964ZM284.964 104V105H285.964V104H284.964ZM277.957 104H276.957V105H277.957V104ZM277.957 54.9863V53.9863H276.957V54.9863H277.957ZM285.613 54.9863L286.506 54.5352L286.228 53.9863H285.613V54.9863ZM304.275 91.9004L303.383 92.3516L304.275 94.1152L305.167 92.3522L304.275 91.9004ZM322.972 54.9863V53.9863H322.357L322.08 54.5345L322.972 54.9863ZM330.594 54.9863H331.594V53.9863H330.594V54.9863ZM330.594 104V105H331.594V104H330.594ZM323.621 104H322.621V105H323.621V104ZM323.621 68.0771H324.621L322.73 67.6235L323.621 68.0771ZM305.335 104V105H305.948L306.226 104.454L305.335 104ZM304.141 103.546L285.855 67.6235L284.073 68.5308L302.359 104.454L304.141 103.546ZM283.964 68.0771V104H285.964V68.0771H283.964ZM284.964 103H277.957V105H284.964V103ZM278.957 104V54.9863H276.957V104H278.957ZM277.957 55.9863H285.613V53.9863H277.957V55.9863ZM284.721 55.4375L303.383 92.3516L305.168 91.4492L286.506 54.5352L284.721 55.4375ZM305.167 92.3522L323.864 55.4382L322.08 54.5345L303.383 91.4486L305.167 92.3522ZM322.972 55.9863H330.594V53.9863H322.972V55.9863ZM329.594 54.9863V104H331.594V54.9863H329.594ZM330.594 103H323.621V105H330.594V103ZM324.621 104V68.0771H322.621V104H324.621ZM322.73 67.6235L304.444 103.546L306.226 104.454L324.512 68.5308L322.73 67.6235ZM305.335 103H303.25V105H305.335V103ZM385.233 54.9863H386.233V53.9863H385.233V54.9863ZM385.233 76.1436H384.233V78.3972L385.904 76.885L385.233 76.1436ZM408.612 54.9863V53.9863H408.227L407.941 54.2449L408.612 54.9863ZM418.49 54.9863L419.162 55.7274L421.084 53.9863H418.49V54.9863ZM391.967 79.0146L391.295 78.2735L390.477 79.0147L391.295 79.7558L391.967 79.0146ZM419.55 104V105H422.143L420.221 103.259L419.55 104ZM409.672 104L409.002 104.743L409.287 105H409.672V104ZM385.233 81.9541L385.903 81.2116L384.233 79.7052V81.9541H385.233ZM385.233 104V105H386.233V104H385.233ZM378.227 104H377.227V105H378.227V104ZM378.227 54.9863V53.9863H377.227V54.9863H378.227ZM384.233 54.9863V76.1436H386.233V54.9863H384.233ZM385.904 76.885L409.283 55.7278L407.941 54.2449L384.562 75.4021L385.904 76.885ZM408.612 55.9863H418.49V53.9863H408.612V55.9863ZM417.819 54.2452L391.295 78.2735L392.638 79.7558L419.162 55.7274L417.819 54.2452ZM391.295 79.7558L418.878 104.741L420.221 103.259L392.638 78.2735L391.295 79.7558ZM419.55 103H409.672V105H419.55V103ZM410.342 103.257L385.903 81.2116L384.564 82.6966L409.002 104.743L410.342 103.257ZM384.233 81.9541V104H386.233V81.9541H384.233ZM385.233 103H378.227V105H385.233V103ZM379.227 104V54.9863H377.227V104H379.227ZM378.227 55.9863H385.233V53.9863H378.227V55.9863ZM453.251 104L452.289 104.275L452.497 105H453.251V104ZM439.237 54.9863V53.9863H437.911L438.276 55.2612L439.237 54.9863ZM446.244 54.9863L447.207 54.7179L447.004 53.9863H446.244V54.9863ZM457.113 93.9854L456.15 94.2538L457.115 97.7156L458.077 94.253L457.113 93.9854ZM467.948 54.9863V53.9863H467.188L466.985 54.7186L467.948 54.9863ZM474.955 54.9863L475.919 54.7186L475.715 53.9863H474.955V54.9863ZM485.79 93.9854L484.827 94.253L485.789 97.7156L486.753 94.2538L485.79 93.9854ZM496.659 54.9863V53.9863H495.9L495.696 54.7179L496.659 54.9863ZM503.666 54.9863L504.628 55.2612L504.992 53.9863H503.666V54.9863ZM489.652 104V105H490.406L490.614 104.275L489.652 104ZM481.962 104L481 104.275L481.208 105H481.962V104ZM471.469 67.2568L472.43 66.9822L471.47 63.6207L470.507 66.9814L471.469 67.2568ZM460.941 104V105H461.695L461.903 104.275L460.941 104ZM454.212 103.725L440.199 54.7114L438.276 55.2612L452.289 104.275L454.212 103.725ZM439.237 55.9863H446.244V53.9863H439.237V55.9863ZM445.281 55.2548L456.15 94.2538L458.077 93.7169L447.207 54.7179L445.281 55.2548ZM458.077 94.253L468.912 55.254L466.985 54.7186L456.15 93.7177L458.077 94.253ZM467.948 55.9863H474.955V53.9863H467.948V55.9863ZM473.992 55.254L484.827 94.253L486.754 93.7177L475.919 54.7186L473.992 55.254ZM486.753 94.2538L497.622 55.2548L495.696 54.7179L484.827 93.7169L486.753 94.2538ZM496.659 55.9863H503.666V53.9863H496.659V55.9863ZM502.705 54.7114L488.691 103.725L490.614 104.275L504.628 55.2612L502.705 54.7114ZM489.652 103H481.962V105H489.652V103ZM482.923 103.725L472.43 66.9822L470.507 67.5314L481 104.275L482.923 103.725ZM470.507 66.9814L459.98 103.725L461.903 104.275L472.43 67.5323L470.507 66.9814ZM460.941 103H453.251V105H460.941V103ZM536.581 54.9863H537.581V53.9863H536.581V54.9863ZM536.581 104V105H537.581V104H536.581ZM529.574 104H528.574V105H529.574V104ZM529.574 54.9863V53.9863H528.574V54.9863H529.574ZM535.581 54.9863V104H537.581V54.9863H535.581ZM536.581 103H529.574V105H536.581V103ZM530.574 104V54.9863H528.574V104H530.574ZM529.574 55.9863H536.581V53.9863H529.574V55.9863ZM573.7 54.9863H574.7V53.9863H573.7V54.9863ZM573.7 76.1436H572.7V78.3972L574.371 76.885L573.7 76.1436ZM597.079 54.9863V53.9863H596.694L596.408 54.2449L597.079 54.9863ZM606.957 54.9863L607.628 55.7274L609.55 53.9863H606.957V54.9863ZM580.434 79.0146L579.762 78.2735L578.944 79.0147L579.762 79.7558L580.434 79.0146ZM608.017 104V105H610.61L608.688 103.259L608.017 104ZM598.139 104L597.469 104.743L597.754 105H598.139V104ZM573.7 81.9541L574.37 81.2116L572.7 79.7052V81.9541H573.7ZM573.7 104V105H574.7V104H573.7ZM566.693 104H565.693V105H566.693V104ZM566.693 54.9863V53.9863H565.693V54.9863H566.693ZM572.7 54.9863V76.1436H574.7V54.9863H572.7ZM574.371 76.885L597.75 55.7278L596.408 54.2449L573.029 75.4021L574.371 76.885ZM597.079 55.9863H606.957V53.9863H597.079V55.9863ZM606.286 54.2452L579.762 78.2735L581.105 79.7558L607.628 55.7274L606.286 54.2452ZM579.762 79.7558L607.345 104.741L608.688 103.259L581.105 78.2735L579.762 79.7558ZM608.017 103H598.139V105H608.017V103ZM598.809 103.257L574.37 81.2116L573.03 82.6966L597.469 104.743L598.809 103.257ZM572.7 81.9541V104H574.7V81.9541H572.7ZM573.7 103H566.693V105H573.7V103ZM567.693 104V54.9863H565.693V104H567.693ZM566.693 55.9863H573.7V53.9863H566.693V55.9863Z" fill="white"/>
</svg>
