<svg width="508" height="46" viewBox="0 0 508 46" fill="none" xmlns="http://www.w3.org/2000/svg">
<g opacity="0.999184">
<path fill-rule="evenodd" clip-rule="evenodd" d="M373.777 45.17C371.391 40.0564 369.345 35.4533 367.473 31.0242C363.724 22.1585 355.879 5.96649 354.007 2.04807C353.837 1.70764 354.178 1.19709 354.518 1.36722L364.575 3.57982C364.745 3.57982 364.916 3.57982 364.916 3.75388C366.106 6.48088 371.73 18.2401 373.777 23.0133C373.948 23.1835 374.118 23.3538 374.287 23.3538C374.628 23.3538 374.802 23.1835 374.802 23.0133C377.185 17.0448 380.597 8.01274 381.788 4.9453C381.959 4.26445 382.639 3.9241 383.324 3.9241H391.505C392.186 3.9241 392.697 4.43465 393.037 4.9453C394.572 8.18296 399.516 18.9209 401.388 23.1835C401.562 23.3538 401.729 23.524 401.903 23.524C402.242 23.524 402.413 23.3538 402.413 23.1835C405.14 16.1938 409.569 5.45585 410.25 3.9241C410.425 3.9241 410.425 3.75388 410.594 3.75388C411.786 3.4096 418.434 1.87786 420.821 1.36722C421.162 1.19709 421.503 1.53743 421.332 1.87786C419.285 6.99152 407.697 34.2618 405.65 39.3755L403.434 45.17C403.093 45.5104 402.924 45.6806 402.583 45.6806C402.073 45.6806 401.562 45.5104 401.388 44.9998C399.172 40.0564 391.335 22.3287 388.607 16.5342C388.437 16.1938 388.094 16.1938 387.927 16.5342C386.562 19.9459 380.423 34.2618 378.38 39.3755L375.823 45.3401C375.653 45.6806 375.313 45.8508 374.973 45.8508C374.458 45.8508 373.948 45.6806 373.777 45.17L373.777 45.17ZM102.436 45.0002C100.049 39.8865 98.0022 35.2834 96.13 30.8545C92.3782 21.9886 84.5367 5.79667 82.6615 1.87825C82.4918 1.53781 82.8311 1.02333 83.1765 1.19748L93.7399 3.75042C93.9096 3.75042 94.0837 3.75042 94.0837 3.92448C95.2758 6.65148 100.9 18.4107 102.946 23.1839C103.116 23.3541 103.285 23.5243 103.457 23.5243C103.797 23.5243 103.967 23.3541 103.967 23.1839C106.354 17.2193 109.765 8.18333 110.957 4.94568C111.127 4.26483 111.807 3.92448 112.489 3.92448H120.329C121.01 3.92448 121.524 4.43503 121.865 4.94568C123.4 8.18333 128.34 18.9212 130.217 23.1839C130.386 23.3541 130.556 23.5243 130.727 23.5243C131.071 23.5243 131.237 23.3541 131.237 23.1839C133.964 16.1942 138.397 5.45623 139.077 3.92448C139.249 3.92448 139.249 3.75042 139.418 3.75042C140.613 3.40998 147.263 1.87825 149.645 1.36759C149.986 1.19747 150.33 1.53781 150.33 1.53781C148.284 6.65148 136.695 33.9219 134.648 39.0356L132.089 45.0002C131.752 45.3405 131.581 45.5108 131.237 45.5108C130.727 45.5108 130.217 45.3405 130.045 44.83C127.829 39.8865 119.989 22.1589 117.261 16.3644C117.092 16.024 116.751 16.024 116.581 16.3644C115.215 19.7722 109.081 34.092 107.034 39.2057L104.477 45.1704C104.311 45.5107 103.967 45.681 103.626 45.681C103.116 45.681 102.605 45.5107 102.436 45.0002L102.436 45.0002ZM304.413 21.4772C304.413 12.7855 309.183 0.171478 324.864 0.171478C340.546 0.171478 345.319 12.7855 345.319 21.4772C345.319 30.3391 340.546 42.7829 324.864 42.7829C309.183 42.7829 304.413 30.3391 304.413 21.4772ZM313.952 21.4763C313.952 24.5437 315.314 33.9201 324.861 33.9201C334.403 33.9201 335.768 24.5437 335.768 21.4763C335.768 18.4089 334.403 9.03249 324.861 9.03249C315.314 9.03249 313.952 18.4089 313.952 21.4763ZM476.724 38.3486C476.214 38.1784 476.044 37.4977 476.214 36.9871L479.455 31.0224C479.625 30.508 480.306 30.3378 480.817 30.508C484.735 32.2138 488.317 33.5793 491.724 33.5793C494.793 33.5793 497.349 32.0436 497.349 29.9973C497.349 27.4405 494.281 26.2491 490.359 25.0539C484.394 23.0115 476.898 20.795 476.898 12.2736C476.898 4.60303 482.689 0 490.533 0C493.09 0 498.54 0.340329 505.359 3.57798C505.871 3.92226 506.041 4.60303 505.871 5.11367L503.143 11.2485C502.974 11.7591 502.292 11.9331 501.781 11.7591C499.225 10.7379 494.281 9.03208 491.044 9.03208C488.487 9.03208 486.271 9.88691 486.271 12.1034C486.61 14.6602 490.703 15.6813 495.306 17.3872C501.101 19.4296 507.406 22.3269 507.406 29.4868C507.406 36.6467 501.101 42.2709 492.065 42.2709C486.441 42.2709 481.671 40.9055 476.724 38.3486V38.3486ZM190.381 38.3486C189.87 38.1784 189.699 37.4977 189.87 36.9871L193.112 31.0224C193.281 30.508 193.963 30.3378 194.473 30.508C198.395 32.2138 201.973 33.5793 205.381 33.5793C208.448 33.5793 211.005 32.0436 211.005 29.9973C211.005 27.4405 207.937 26.2491 204.016 25.0539C198.051 23.0115 190.555 20.795 190.555 12.2736C190.555 4.60303 196.349 0 204.19 0C206.747 0 212.197 0.340329 219.016 3.57798C219.526 3.92226 219.697 4.60303 219.526 5.11367L216.8 11.2485C216.63 11.7591 215.949 11.9331 215.438 11.7591C212.881 10.7379 207.937 9.03208 204.7 9.03208C202.144 9.03208 199.926 9.88691 199.926 12.1034C200.267 14.6602 204.36 15.6813 208.963 17.3872C214.758 19.4296 221.062 22.3269 221.062 29.4868C221.062 36.6467 214.758 42.2709 205.721 42.2709C200.097 42.2709 195.328 40.9055 190.381 38.3486L190.381 38.3486ZM434.627 42.1012C434.114 42.1012 433.604 41.5906 433.604 41.0761V1.87645C433.604 1.36581 434.114 0.851407 434.627 0.851407H461.044C461.559 0.851407 462.069 1.3658 462.069 1.87645V8.69209C462.069 9.20658 461.559 9.71713 461.044 9.71713H442.979V17.5579H456.784C457.295 17.5579 457.807 18.0685 457.807 18.579V25.2284C457.807 25.739 457.295 26.2496 456.784 26.2496H442.979V33.4095H461.044C461.559 33.4095 462.069 33.9201 462.069 34.4307V41.0761C462.069 41.5906 461.559 42.1012 461.044 42.1012L434.627 42.1012ZM283.103 42.1012C282.593 42.1012 282.078 41.5906 282.078 41.0761V26.2496H266.74V41.0761C266.74 41.5906 266.227 42.1012 265.716 42.1012H258.39C257.875 42.1012 257.364 41.5906 257.364 41.0761V1.87645C257.364 1.36581 257.875 0.851407 258.39 0.851407H265.716C266.227 0.851407 266.74 1.3658 266.74 1.87645V17.3877H282.078V1.87645C282.078 1.36581 282.593 0.851407 283.103 0.851407H290.433C291.114 0.851407 291.625 1.3658 291.454 1.87645V41.0761C291.454 41.5906 290.94 42.1012 290.433 42.1012H283.103ZM165.672 42.1012C165.161 42.1012 164.651 41.5906 164.651 41.0761V1.87645C164.651 1.36581 165.161 0.851407 165.672 0.851407H173.001C173.683 0.851407 174.193 1.3658 174.022 1.87645V41.0761C174.022 41.5906 173.512 42.1012 173.001 42.1012H165.672ZM40.7365 42.1012C40.226 42.1012 39.7111 41.5906 39.7111 41.0761V1.87645C39.7111 1.36581 40.226 0.851407 40.7365 0.851407H67.1556C67.6661 0.851407 68.1765 1.3658 68.1765 1.87645V8.69209C68.1765 9.20658 67.6661 9.71713 67.1556 9.71713H49.087V17.5579H62.8933C63.4038 17.5579 63.9142 18.0685 63.9142 18.579V25.2284C63.9142 25.739 63.4038 26.2496 62.8933 26.2496H49.087V33.4095H67.1556C67.6661 33.4095 68.1765 33.9201 68.1765 34.4307V41.0761C68.1765 41.5906 67.6661 42.1012 67.1556 42.1012L40.7365 42.1012ZM1.02091 42.1012C0.510455 42.1012 0 41.5906 0 41.0761V1.87645C0 1.36581 0.510455 0.851407 1.02091 0.851407H8.52163C9.03208 0.851407 9.54704 1.3658 9.54704 1.87645V33.4095H23.3519C23.8624 33.4095 24.3728 33.7499 24.3728 34.4307V41.0761C24.3728 41.5906 23.8624 42.1012 23.3519 42.1012L1.02091 42.1012Z" fill="white"/>
</g>
</svg>
