<svg width="568" height="118" viewBox="0 0 568 118" fill="none" xmlns="http://www.w3.org/2000/svg">
<path d="M201.241 57.7243V57.5922C201.241 44.5762 191.198 34.5995 176.662 34.5995H158.625V80.8491H176.662C191.198 80.8491 201.241 70.7403 201.241 57.7243ZM190.603 57.8565C190.603 66.0492 184.987 71.6653 176.662 71.6653H168.8V43.7834H176.662C184.987 43.7834 190.603 49.5315 190.603 57.7243V57.8565ZM253.584 80.8491L242.286 64.3314C248.166 62.1511 252.196 57.46 252.196 49.994V49.8619C252.196 40.3477 245.655 34.5995 234.754 34.5995H213.611V80.8491H223.786V66.0492H231.781L241.691 80.8491H253.584ZM241.889 50.5226C241.889 54.4208 239.048 57.0636 234.093 57.0636H223.786V43.7834H233.895C238.85 43.7834 241.889 46.0298 241.889 50.3905V50.5226ZM273.911 80.8491V70.2778H263.208V80.8491H273.911ZM346.585 50.7208V50.5887C346.585 41.1405 339.912 34.5995 328.878 34.5995H309.982V80.8491H320.157V66.9742H327.887C338.26 66.9742 346.585 61.4243 346.585 50.7208ZM336.278 50.919C336.278 54.8833 333.305 57.9225 328.217 57.9225H320.157V43.7834H328.019C333.106 43.7834 336.278 46.228 336.278 50.7869V50.919ZM404.527 57.7243V57.5922C404.527 44.4441 394.286 33.8067 380.015 33.8067C365.743 33.8067 355.37 44.5762 355.37 57.7243V57.8565C355.37 71.0046 365.611 81.642 379.882 81.642C394.154 81.642 404.527 70.8724 404.527 57.7243ZM393.89 57.8565C393.89 65.785 388.207 72.2599 380.015 72.2599C371.822 72.2599 366.008 65.6528 366.008 57.7243V57.5922C366.008 49.6637 371.69 43.1887 379.882 43.1887C388.075 43.1887 393.89 49.7958 393.89 57.7243V57.8565ZM463.106 80.8491V34.5995H452.138L439.981 54.1565L427.824 34.5995H416.856V80.8491H426.833V50.853L439.717 70.4099H439.981L452.997 50.6547V80.8491H463.106ZM514.124 50.7208V50.5887C514.124 41.1405 507.45 34.5995 496.417 34.5995H477.52V80.8491H487.695V66.9742H495.425C505.799 66.9742 514.124 61.4243 514.124 50.7208ZM503.816 50.919C503.816 54.8833 500.843 57.9225 495.756 57.9225H487.695V43.7834H495.558C500.645 43.7834 503.816 46.228 503.816 50.7869V50.919ZM565.372 80.8491L545.551 34.2692H536.168L516.347 80.8491H526.72L530.949 70.476H550.506L554.734 80.8491H565.372ZM546.872 61.4904H534.583L540.727 46.4923L546.872 61.4904Z" fill="white"/>
<g clip-path="url(#clip0_1441_1640)">
<path d="M4.91447 70.2824C11.0851 76.8578 20.778 76.7896 21.6517 76.7759H57.0648L57.0648 40.7889H31.0033C29.9111 40.748 20.0818 40.5434 14.0886 47.3643C11.1124 50.7611 9.65169 55.2083 9.69264 60.6513C11.2626 63.1341 13.4196 64.703 15.4947 65.6852C14.3206 59.1508 15.1671 54.1715 18.034 50.8838C22.5118 45.7409 30.7029 46.0819 30.7712 46.0819H51.7269L51.7269 71.4829H21.5289C21.4469 71.4829 13.4196 71.6466 8.75066 66.6401C6.02028 63.7071 4.90082 59.4509 5.41959 53.9942C5.93836 48.6193 8.10902 44.3767 11.8496 41.3755C20.8326 34.1863 36.0681 35.9597 36.2183 35.9734L36.3821 36.0007H50.9351C63.6041 36.0007 67.0717 25.4283 67.1399 19.8079V0L51.7406 0V26.4241C51.7406 26.4241 57.0375 25.4965 57.0375 19.6169V5.29301H61.843V19.7533C61.8157 20.8719 61.3242 30.694 50.9351 30.694H36.6961C34.7439 30.4757 18.8394 28.9888 8.54588 37.2148C3.64484 41.1436 0.818895 46.6276 0.149951 53.4758C-0.532645 60.5286 1.06463 66.1899 4.91447 70.2824Z" fill="white"/>
<path d="M51.1945 87.1711C50.9625 87.1711 36.6826 87.0893 28.4368 87.0893C18.1296 87.0893 12.8053 80.9368 12.5869 80.664L12.6415 80.623C20.4641 82.11 30.3617 81.8372 30.4027 81.8372C37.7201 81.8372 50.471 81.8917 56.1775 81.9054C56.1775 81.9054 55.3584 82.2464 53.3652 84.2518C51.9181 85.6978 51.2082 87.1575 51.2082 87.1575L51.1945 87.1711Z" fill="url(#paint0_linear_1441_1640)"/>
<path d="M57.0513 0V19.6169C57.0513 25.4965 51.7954 26.4241 51.7544 26.4241V0L57.0513 0Z" fill="url(#paint1_linear_1441_1640)"/>
<path d="M30.812 46.0818C30.7301 46.0818 22.5526 45.7408 18.0747 50.8838C15.2078 54.1714 14.3478 59.1507 15.5355 65.6851C13.4467 64.7029 11.2897 63.1341 9.73341 60.6513C9.6788 55.2218 11.1396 50.761 14.1293 47.3642C20.1089 40.5433 29.9519 40.7343 31.0441 40.7888L30.8393 46.0818H30.812Z" fill="url(#paint2_linear_1441_1640)"/>
</g>
<g clip-path="url(#clip1_1441_1640)">
<path d="M114.144 47.3914C107.973 40.816 98.2806 40.8843 97.4069 40.8979L61.9938 40.8979L61.9938 76.8849L88.0553 76.8849C89.1475 76.9258 98.9768 77.1305 104.97 70.3096C107.946 66.9128 109.407 62.4656 109.366 57.0225C107.796 54.5397 105.639 52.9709 103.564 51.9887C104.738 58.5231 103.892 63.5023 101.025 66.79C96.5468 71.9329 88.3557 71.5919 88.2874 71.5919L67.3317 71.5919L67.3317 46.1909L97.5297 46.1909C97.6117 46.1909 105.639 46.0272 110.308 51.0337C113.038 53.9667 114.158 58.223 113.639 63.6797C113.12 69.0545 110.95 73.2971 107.209 76.2983C98.226 83.4875 82.9904 81.7141 82.8403 81.7005L82.6765 81.6732L68.1235 81.6732C55.4545 81.6732 51.9869 92.2455 51.9187 97.866L51.9187 117.674L67.318 117.674L67.318 91.2497C67.318 91.2497 62.0211 92.1773 62.0211 98.0569L62.0211 112.381L57.2156 112.381L57.2156 97.9205C57.2429 96.8019 57.7344 86.9798 68.1235 86.9798L82.3625 86.9798C84.3147 87.1981 100.219 88.685 110.513 80.4591C115.414 76.5302 118.24 71.0462 118.909 64.1981C119.591 57.1453 117.994 51.4839 114.144 47.3914Z" fill="white"/>
<path d="M67.8641 30.5027C68.0961 30.5027 82.376 30.5846 90.6218 30.5846C100.929 30.5846 106.253 36.737 106.472 37.0099L106.417 37.0508C98.5945 35.5638 88.6969 35.8367 88.6559 35.8367C81.3385 35.8367 68.5876 35.7821 62.8811 35.7684C62.8811 35.7684 63.7002 35.4274 65.6934 33.4221C67.1405 31.976 67.8504 30.5164 67.8504 30.5164L67.8641 30.5027Z" fill="url(#paint3_linear_1441_1640)"/>
<path d="M62.0068 117.674L62.0068 98.057C62.0068 92.1773 67.2628 91.2497 67.3037 91.2497L67.3037 117.674L62.0068 117.674Z" fill="url(#paint4_linear_1441_1640)"/>
<path d="M88.2456 71.592C88.3276 71.592 96.5051 71.933 100.983 66.7901C103.85 63.5024 104.71 58.5232 103.522 51.9887C105.611 52.971 107.768 54.5398 109.324 57.0226C109.379 62.452 107.918 66.9128 104.928 70.3096C98.9488 77.1305 89.1057 76.9396 88.0136 76.885L88.2183 71.592L88.2456 71.592Z" fill="url(#paint5_linear_1441_1640)"/>
</g>
<defs>
<linearGradient id="paint0_linear_1441_1640" x1="60.9135" y1="83.9872" x2="28.8416" y2="84.0373" gradientUnits="userSpaceOnUse">
<stop/>
<stop offset="1" stop-color="white"/>
</linearGradient>
<linearGradient id="paint1_linear_1441_1640" x1="54.453" y1="-3.92247" x2="39.5305" y2="2.72467" gradientUnits="userSpaceOnUse">
<stop stop-color="white" stop-opacity="0"/>
<stop offset="1"/>
</linearGradient>
<linearGradient id="paint2_linear_1441_1640" x1="20.7455" y1="42.5101" x2="-1.83195" y2="65.3647" gradientUnits="userSpaceOnUse">
<stop stop-color="white"/>
<stop offset="1"/>
</linearGradient>
<linearGradient id="paint3_linear_1441_1640" x1="58.1451" y1="33.6867" x2="90.217" y2="33.6365" gradientUnits="userSpaceOnUse">
<stop/>
<stop offset="1" stop-color="white"/>
</linearGradient>
<linearGradient id="paint4_linear_1441_1640" x1="64.6051" y1="121.596" x2="79.5276" y2="114.949" gradientUnits="userSpaceOnUse">
<stop stop-color="white" stop-opacity="0"/>
<stop offset="1"/>
</linearGradient>
<linearGradient id="paint5_linear_1441_1640" x1="98.3122" y1="75.1637" x2="120.89" y2="52.3091" gradientUnits="userSpaceOnUse">
<stop stop-color="white"/>
<stop offset="1"/>
</linearGradient>
<clipPath id="clip0_1441_1640">
<rect width="119.058" height="117.674" fill="white"/>
</clipPath>
<clipPath id="clip1_1441_1640">
<rect width="119.058" height="117.674" fill="white" transform="translate(119.059 117.674) rotate(-180)"/>
</clipPath>
</defs>
</svg>
