<svg width="507" height="109" viewBox="0 0 507 109" fill="none" xmlns="http://www.w3.org/2000/svg">
<path fill-rule="evenodd" clip-rule="evenodd" d="M131.157 33.0405H140.286L162.078 83.1367H149.625L145.309 72.5235H125.85L121.676 83.1367H109.506L131.157 33.0405ZM135.403 47.6165L129.318 63.1827H141.559L135.403 47.6165Z" fill="white"/>
<mask id="mask0_1441_1639" style="mask-type:luminance" maskUnits="userSpaceOnUse" x="10" y="0" width="497" height="108">
<path fill-rule="evenodd" clip-rule="evenodd" d="M10.8213 0H506.301V107.41H10.8213V0Z" fill="white"/>
</mask>
<g mask="url(#mask0_1441_1639)">
<path fill-rule="evenodd" clip-rule="evenodd" d="M199.01 83.1379H189.247V78.6111H189.104C188.681 79.2248 188.126 79.8483 187.443 80.4846C186.758 81.1224 185.957 81.7005 185.036 82.219C184.117 82.7388 183.102 83.1621 181.994 83.493C180.885 83.8226 179.741 83.9874 178.562 83.9874C176.015 83.9874 173.703 83.5527 171.628 82.6792C169.553 81.807 167.771 80.5812 166.286 78.9989C164.801 77.4194 163.657 75.5445 162.854 73.3741C162.051 71.2051 161.652 68.8231 161.652 66.228C161.652 63.8233 162.017 61.5237 162.749 59.3291C163.479 57.136 164.517 55.1901 165.862 53.4913C167.206 51.7939 168.845 50.4388 170.78 49.4233C172.713 48.4091 174.906 47.902 177.359 47.902C179.576 47.902 181.64 48.2443 183.551 48.9289C185.461 49.6122 187.029 50.7797 188.257 52.4302H188.397V29.647H199.01V83.1379ZM189.247 65.9457C189.247 63.352 188.504 61.2513 187.018 59.6476C185.532 58.0454 183.446 57.2429 180.756 57.2429C178.067 57.2429 175.98 58.0454 174.494 59.6476C173.009 61.2513 172.266 63.352 172.266 65.9457C172.266 68.5394 173.009 70.6401 174.494 72.2438C175.98 73.846 178.067 74.6485 180.756 74.6485C183.446 74.6485 185.532 73.846 187.018 72.2438C188.504 70.6401 189.247 68.5394 189.247 65.9457Z" fill="white"/>
<path fill-rule="evenodd" clip-rule="evenodd" d="M204.742 58.0915C204.742 54.0831 205.414 50.4497 206.759 47.1942C208.103 43.94 209.978 41.1688 212.384 38.882C214.789 36.5937 217.644 34.8367 220.945 33.6094C224.247 32.3822 227.855 31.77 231.771 31.77C235.686 31.77 239.295 32.3822 242.597 33.6094C245.898 34.8367 248.753 36.5937 251.158 38.882C253.564 41.1688 255.439 43.94 256.783 47.1942C258.128 50.4498 258.8 54.0831 258.8 58.0915C258.8 62.1013 258.128 65.7333 256.783 68.9874C255.439 72.243 253.564 75.0142 251.158 77.3011C248.753 79.5907 245.898 81.3464 242.597 82.5722C239.295 83.7994 235.686 84.4116 231.771 84.4116C227.855 84.4116 224.247 83.7994 220.945 82.5722C217.644 81.3464 214.789 79.5907 212.384 77.3011C209.978 75.0142 208.103 72.243 206.759 68.9874C205.414 65.7333 204.742 62.1013 204.742 58.0915ZM216.205 58.0914C216.205 60.4507 216.57 62.6083 217.301 64.5656C218.033 66.5243 219.081 68.2217 220.45 69.6606C221.818 71.0994 223.457 72.2187 225.368 73.0212C227.278 73.8223 229.412 74.2229 231.771 74.2229C234.129 74.2229 236.264 73.8223 238.174 73.0212C240.085 72.2187 241.724 71.0994 243.092 69.6606C244.459 68.2217 245.509 66.5243 246.241 64.5656C246.972 62.6083 247.337 60.4507 247.337 58.0914C247.337 55.7804 246.972 53.6327 246.241 51.6527C245.509 49.6712 244.459 47.9611 243.092 46.5222C241.724 45.0847 240.085 43.964 238.174 43.1615C236.264 42.3604 234.129 41.9599 231.771 41.9599C229.412 41.9599 227.278 42.3604 225.368 43.1615C223.457 43.964 221.818 45.0847 220.45 46.5222C219.081 47.9611 218.033 49.6712 217.301 51.6527C216.57 53.6327 216.205 55.7804 216.205 58.0914Z" fill="white"/>
<path fill-rule="evenodd" clip-rule="evenodd" d="M296.652 83.1375H286.464V78.4686H286.323C285.944 79.1291 285.461 79.7896 284.872 80.4487C284.281 81.1106 283.562 81.6986 282.714 82.2185C281.865 82.7384 280.897 83.1616 279.814 83.4912C278.727 83.8207 277.548 83.9869 276.275 83.9869C273.587 83.9869 271.405 83.5735 269.73 82.7497C268.056 81.9245 266.759 80.7796 265.838 79.318C264.919 77.855 264.306 76.1321 263.999 74.152C263.692 72.1706 263.54 70.0257 263.54 67.7133V48.7495H274.153V65.5898C274.153 66.5813 274.187 67.6068 274.26 68.6678C274.331 69.7303 274.542 70.7089 274.896 71.6052C275.25 72.5015 275.791 73.2316 276.524 73.7983C277.254 74.3637 278.304 74.6463 279.672 74.6463C281.039 74.6463 282.147 74.4006 282.997 73.9034C283.845 73.4077 284.492 72.7501 284.943 71.922C285.39 71.0981 285.686 70.1664 285.828 69.128C285.97 68.0912 286.039 67.006 286.039 65.8739V48.7495H296.652L296.652 83.1375Z" fill="white"/>
<path fill-rule="evenodd" clip-rule="evenodd" d="M327.573 57.2422H318.233V68.7035C318.233 69.648 318.28 70.5088 318.373 71.2872C318.469 72.0656 318.68 72.7374 319.013 73.3042C319.341 73.8695 319.849 74.307 320.532 74.6123C321.216 74.9192 322.125 75.0726 323.257 75.0726C323.822 75.0726 324.566 75.0143 325.485 74.8964C326.406 74.7785 327.1 74.5058 327.573 74.0811V82.926C326.393 83.3507 325.167 83.6333 323.893 83.7754C322.62 83.916 321.37 83.987 320.145 83.987C318.351 83.987 316.7 83.7981 315.19 83.4217C313.68 83.0453 312.361 82.443 311.229 81.6178C310.095 80.7925 309.212 79.7187 308.575 78.3991C307.939 77.0782 307.62 75.4731 307.62 73.5868V57.2422H300.827V48.7496H307.62V38.5625H318.233V48.7496H327.573V57.2422Z" fill="white"/>
<path fill-rule="evenodd" clip-rule="evenodd" d="M332.95 48.7498H343.563V54.2695H343.704C344.836 52.1474 346.18 50.5551 347.738 49.4927C349.295 48.4316 351.252 47.9004 353.61 47.9004C354.224 47.9004 354.836 47.926 355.451 47.9714C356.062 48.0197 356.628 48.1135 357.148 48.2541V57.9497C356.394 57.714 355.65 57.5364 354.92 57.4185C354.187 57.302 353.421 57.2424 352.62 57.2424C350.592 57.2424 348.987 57.525 347.809 58.0904C346.629 58.6571 345.721 59.4469 345.085 60.461C344.448 61.4752 344.035 62.6882 343.846 64.1058C343.657 65.5205 343.563 67.0758 343.563 68.7746V83.1378H332.95L332.95 48.7498Z" fill="white"/>
<path fill-rule="evenodd" clip-rule="evenodd" d="M393.023 77.1944C391.325 79.3647 389.178 81.0394 386.584 82.2183C383.99 83.3973 381.3 83.9867 378.518 83.9867C375.876 83.9867 373.388 83.5635 371.052 82.7141C368.718 81.8646 366.69 80.6516 364.968 79.0693C363.245 77.4898 361.89 75.5921 360.9 73.3749C359.909 71.1576 359.413 68.6819 359.413 65.9448C359.413 63.2091 359.909 60.7333 360.9 58.516C361.89 56.2988 363.245 54.3997 364.968 52.8202C366.69 51.2407 368.718 50.0249 371.052 49.1769C373.388 48.3261 375.876 47.9014 378.518 47.9014C380.971 47.9014 383.199 48.3261 385.203 49.1769C387.208 50.0249 388.908 51.2407 390.298 52.8202C391.69 54.3997 392.764 56.2988 393.518 58.516C394.273 60.7333 394.65 63.2091 394.65 65.9448V69.2699H370.028C370.452 71.2997 371.371 72.9133 372.786 74.1163C374.201 75.3208 375.947 75.9217 378.023 75.9217C379.767 75.9217 381.242 75.5325 382.445 74.7541C383.648 73.9757 384.698 72.9729 385.594 71.7471L393.023 77.1944ZM384.037 62.0528C384.083 60.2603 383.493 58.7276 382.269 57.455C381.042 56.1809 379.461 55.5431 377.528 55.5431C376.347 55.5431 375.309 55.7334 374.414 56.1098C373.518 56.4877 372.752 56.9706 372.114 57.5601C371.478 58.151 370.982 58.8327 370.629 59.6111C370.275 60.3909 370.073 61.2034 370.028 62.0528H384.037Z" fill="white"/>
<path fill-rule="evenodd" clip-rule="evenodd" d="M422.669 78.8221H422.526C421.347 80.6616 419.779 81.9825 417.821 82.7837C415.864 83.5862 413.8 83.9867 411.63 83.9867C410.025 83.9867 408.481 83.7637 406.996 83.3149C405.511 82.8675 404.201 82.1942 403.069 81.2979C401.937 80.403 401.039 79.2937 400.379 77.9742C399.72 76.6532 399.389 75.1192 399.389 73.3735C399.389 71.3934 399.754 69.7188 400.487 68.3495C401.217 66.9817 402.207 65.8496 403.457 64.9547C404.707 64.0585 406.134 63.361 407.738 62.8667C409.341 62.371 411.005 62.006 412.728 61.7688C414.449 61.5344 416.171 61.3924 417.891 61.3455C419.612 61.2986 421.205 61.2745 422.669 61.2745C422.669 59.3882 421.996 57.8911 420.652 56.7817C419.308 55.6724 417.715 55.1184 415.877 55.1184C414.13 55.1184 412.537 55.4849 411.098 56.215C409.661 56.9479 408.376 57.9493 407.242 59.222L401.583 53.4196C403.565 51.5816 405.876 50.201 408.518 49.2806C411.158 48.3616 413.894 47.9014 416.725 47.9014C419.838 47.9014 422.395 48.2906 424.401 49.0689C426.406 49.8473 428.01 50.9922 429.213 52.5006C430.416 54.0105 431.253 55.8613 431.726 58.0544C432.196 60.2489 432.433 62.7844 432.433 65.6621V83.1373H422.669V78.8221ZM420.05 68.067C419.249 68.067 418.244 68.1025 417.043 68.1736C415.84 68.2446 414.683 68.4463 413.575 68.7744C412.466 69.1053 411.523 69.6011 410.745 70.2601C409.966 70.922 409.578 71.841 409.578 73.02C409.578 74.2941 410.12 75.2386 411.205 75.8494C412.29 76.4644 413.422 76.7698 414.601 76.7698C415.639 76.7698 416.642 76.6278 417.608 76.3451C418.575 76.0625 419.436 75.6633 420.192 75.142C420.946 74.6236 421.547 73.9645 421.996 73.162C422.444 72.3595 422.669 71.4163 422.669 70.3311V68.067L420.05 68.067Z" fill="white"/>
<path fill-rule="evenodd" clip-rule="evenodd" d="M462.362 59.8597C461.842 59.1055 461.111 58.4791 460.167 57.9848C459.224 57.4891 458.21 57.2419 457.125 57.2419C454.438 57.2419 452.35 58.0445 450.864 59.6481C449.377 61.2503 448.635 63.3511 448.635 65.9448C448.635 68.5384 449.377 70.6392 450.864 72.2428C452.35 73.8465 454.438 74.6476 457.125 74.6476C458.305 74.6476 459.318 74.3891 460.167 73.8692C461.018 73.3507 461.747 72.7371 462.362 72.0298L469.367 79.3889C467.716 81.0863 465.768 82.278 463.528 82.9626C461.288 83.6444 459.153 83.9867 457.125 83.9867C454.483 83.9867 451.996 83.562 449.661 82.7141C447.326 81.8646 445.297 80.6516 443.576 79.0693C441.854 77.4898 440.498 75.5921 439.508 73.3749C438.516 71.1576 438.021 68.6819 438.021 65.9448C438.021 63.2091 438.516 60.7333 439.508 58.516C440.498 56.2988 441.854 54.3997 443.576 52.8202C445.297 51.2407 447.326 50.0249 449.661 49.1769C451.996 48.3261 454.483 47.9014 457.125 47.9014C459.153 47.9014 461.288 48.2437 463.528 48.9283C465.768 49.6115 467.716 50.8032 469.367 52.5006L462.362 59.8597Z" fill="white"/>
<path fill-rule="evenodd" clip-rule="evenodd" d="M483.8 29.647V53.4203H483.942C484.178 52.7598 484.578 52.1007 485.143 51.4402C485.71 50.7797 486.393 50.1903 487.196 49.6718C487.997 49.152 488.94 48.7287 490.027 48.3963C491.111 48.0682 492.291 47.902 493.564 47.902C496.254 47.902 498.421 48.3153 500.073 49.1406C501.724 49.9658 503.009 51.1093 503.93 52.5723C504.849 54.0339 505.475 55.7554 505.805 57.7369C506.136 59.7183 506.3 61.866 506.3 64.177V83.1379H495.687V66.2991C495.687 65.3076 495.652 64.2821 495.581 63.2211C495.51 62.16 495.298 61.1799 494.944 60.2837C494.591 59.3874 494.048 58.6573 493.316 58.0906C492.585 57.5252 491.535 57.2426 490.167 57.2426C488.8 57.2426 487.692 57.4897 486.842 57.984C485.993 58.4797 485.344 59.1417 484.896 59.9669C484.448 60.7922 484.153 61.7239 484.011 62.7594C483.871 63.7992 483.8 64.8843 483.8 66.015V83.1379H473.187V29.647L483.8 29.647Z" fill="white"/>
</g>
<path fill-rule="evenodd" clip-rule="evenodd" d="M111.847 6.3727C110.248 4.45658 108.236 2.84158 105.597 2.05183C103.268 1.35583 100.955 1.47089 98.6018 1.84161C88.881 3.37114 79.1587 4.88857 69.4366 6.406C65.4173 7.03333 61.398 7.66065 57.3788 8.28883C54.0607 8.8075 50.7424 9.32498 47.4242 9.84245L47.4232 9.8426L47.4231 9.84263C37.2018 11.4366 26.9807 13.0306 16.7652 14.6593C13.9656 15.1068 11.166 15.6565 8.43172 16.3993C4.96877 17.3411 2.49585 19.6606 1.07403 22.9019C-0.837837 27.264 -0.0963859 32.0039 2.49869 35.4768L2.48875 35.4782L54.4428 104.192L54.4613 104.159C55.3917 105.349 56.5337 106.412 57.937 107.257C62.4326 109.966 66.9665 109.197 71.2562 106.629C73.3669 105.365 74.8171 103.368 75.8455 101.169C78.2999 95.9169 80.7085 90.6434 83.1173 85.3698L83.118 85.3683C83.9974 83.4429 84.8768 81.5175 85.7585 79.5931C87.6949 75.3687 89.6308 71.1442 91.5666 66.9198L91.6086 66.8281L91.6159 66.8123L91.6379 66.7642L91.6384 66.7631C95.2166 58.9547 98.7947 51.1465 102.376 43.3401C103.624 40.6189 104.878 37.9004 106.132 35.1819L106.136 35.1729C108.55 29.9395 110.963 24.7063 113.338 19.4546C115.391 14.9178 114.897 10.5814 111.847 6.3727ZM99.9889 5.15872L13.8286 18.6724C8.10441 19.5716 6.76497 20.8783 6.76497 20.8783C2.32904 24.2418 2.48813 29.976 5.04912 33.3566C7.61295 36.7343 11.5645 36.8621 11.5645 36.8621C18.3484 37.6306 20.6977 42.9542 20.6977 42.9542C32.0666 40.6347 34.4401 51.3474 34.4401 51.3474C37.8207 49.7367 40.6572 49.7466 42.8901 50.3915L42.8873 50.3886C42.8873 50.3886 51.6568 47.7822 67.0142 38.5964C67.037 38.3777 66.983 38.1462 66.8196 37.8692C66.2955 36.9729 66.2302 36.0454 66.9603 35.1463C67.0742 35.0055 67.0776 34.774 67.0819 34.4767V34.4766C67.0842 34.3181 67.0868 34.141 67.1066 33.9489C67.2571 33.8168 67.598 33.5142 67.9901 33.1648C66.0171 29.4164 64.0626 25.702 62.0656 21.9053C62.4307 21.63 62.7866 21.3441 63.1408 21.0597C63.9855 20.3813 64.8205 19.7107 65.7472 19.2093C66.4986 18.8017 67.5838 18.7491 68.4616 18.8912C70.3806 19.2022 72.3237 19.5701 74.1475 20.2193C77.663 21.4678 80.8689 21.0218 84.1585 19.3485C87.736 17.5269 91.4455 15.9629 95.1483 14.4016L95.5601 14.228C96.7973 13.7067 98.1708 13.3999 99.5088 13.2451C100.639 13.1158 101.469 13.3204 101.946 13.7934L101.96 13.7834C101.978 13.8061 101.994 13.8314 102.009 13.8567C102.017 13.8693 102.025 13.8819 102.033 13.8942C102.038 13.8996 102.042 13.9049 102.047 13.9101C102.052 13.9157 102.057 13.9213 102.063 13.9268L102.063 13.9275C102.084 13.9495 102.104 13.9713 102.121 13.995L102.108 14.005C102.433 14.593 102.406 15.4481 101.976 16.4992C101.466 17.7492 100.8 18.9878 99.9633 20.0374L99.7043 20.3628L99.7042 20.3629L99.7041 20.3629C97.1952 23.5137 94.6794 26.6732 91.9551 29.6323C89.4552 32.3481 88.1598 35.3139 88.4112 39.0368C88.5433 40.9671 88.3728 42.9372 88.1541 44.8689C88.0533 45.7524 87.7109 46.7836 87.1158 47.3958C86.3803 48.1554 85.506 48.7796 84.6213 49.411C84.2536 49.6735 83.8842 49.9373 83.5222 50.2125L81.4255 48.2277C79.0329 45.9627 76.6666 43.7225 74.2824 41.4671C73.8435 41.7497 73.4586 41.9969 73.2896 42.1048C73.0978 42.0725 72.9254 42.0268 72.7713 41.986C72.4861 41.9105 72.2639 41.8516 72.0979 41.9244C71.0354 42.3832 70.159 42.0693 69.4389 41.3236C69.2159 41.0921 69.0071 40.9756 68.7897 40.9401C55.7973 53.2451 50.9182 60.9834 50.9182 60.9834L50.8926 60.9422C50.7563 65.4193 47.7166 68.8596 47.7166 68.8596C49.8359 69.7345 51.3941 71.9788 51.3941 71.9788C56.1268 78.2356 52.0801 84.3789 52.0801 84.3789C54.0942 85.8348 56.3669 90.3403 55.5019 94.7663C54.6383 99.1923 57.016 102.087 57.016 102.087C61.5499 108.067 68.1974 104.786 69.5908 103.729C70.9857 102.672 72.2839 100.405 72.2839 100.405L109.964 18.3131C109.964 18.3131 112.993 13.3814 109.312 8.52933C107.028 5.51666 103.987 4.94566 102.009 4.94566C100.8 4.94566 99.9889 5.15872 99.9889 5.15872ZM42.6744 29.6051L39.5311 23.4775L44.582 28.1591L50.7096 25.0158L46.028 30.0667L49.1713 36.1958L44.1204 31.5141L37.9913 34.656L42.6744 29.6051ZM92.7554 18.4528C92.4716 18.3001 92.1796 18.143 91.8926 17.9672C92.6184 17.6974 93.3882 17.5724 94.0885 17.5724C95.0487 17.5724 95.8825 17.8067 96.31 18.2329C96.8185 19.1448 96.4506 21.0737 95.3725 22.5566C95.2811 22.234 95.2089 21.9117 95.1386 21.5985L95.1386 21.5983C94.984 20.9088 94.8391 20.2629 94.5217 19.7541L94.5317 19.747C94.5286 19.7423 94.5256 19.7373 94.5227 19.7322C94.5189 19.7256 94.515 19.7189 94.5106 19.7129L94.5084 19.71L94.5061 19.7072C94.4962 19.6932 94.4849 19.6811 94.4737 19.6692C94.4657 19.6607 94.4578 19.6522 94.4507 19.6433C94.4437 19.6335 94.4375 19.6234 94.4313 19.6133C94.4223 19.5988 94.4133 19.5843 94.4024 19.5709C94.3977 19.5638 94.3916 19.5575 94.3855 19.5512C94.3805 19.5462 94.3756 19.541 94.3712 19.5354L94.3626 19.5425C93.9598 19.1006 93.3774 18.7874 92.7554 18.4528Z" fill="white"/>
</svg>
