<svg xmlns="http://www.w3.org/2000/svg" width="23" height="83" viewBox="0 0 23 83" fill="none"><path d="M16 83V32H6.00002V83H16Z" fill="black"></path><path d="M16 83V32H6.00002V83H16Z" fill="url(#paint0_linear_1603_86)"></path><path d="M10.456 7.41684C10.592 7.25092 10.7897 7.14463 11.0057 7.12132C11.9335 7.01555 12.8711 7.21189 13.6735 7.67996C14.4759 8.14805 15.0983 8.86181 15.4444 9.71084L15.4447 9.71152L15.445 9.71222C15.5177 9.90683 15.5101 10.1215 15.4239 10.3107C15.3377 10.5 15.1797 10.649 14.9832 10.7262C14.7867 10.8035 14.5672 10.8028 14.3712 10.7245C14.1751 10.6461 14.018 10.4962 13.9329 10.3064L13.9326 10.3057L13.9323 10.305C13.7173 9.78108 13.3315 9.34131 12.8348 9.05396C12.3382 8.76661 11.7585 8.64776 11.1858 8.71586L11.1852 8.71592C10.9691 8.73918 10.7524 8.67749 10.5828 8.54441C10.4132 8.41133 10.3045 8.21777 10.2807 8.00631C10.257 7.79485 10.32 7.58281 10.456 7.41684Z" fill="black"></path><path d="M10.456 7.41684C10.592 7.25092 10.7897 7.14463 11.0057 7.12132C11.9335 7.01555 12.8711 7.21189 13.6735 7.67996C14.4759 8.14805 15.0983 8.86181 15.4444 9.71084L15.4447 9.71152L15.445 9.71222C15.5177 9.90683 15.5101 10.1215 15.4239 10.3107C15.3377 10.5 15.1797 10.649 14.9832 10.7262C14.7867 10.8035 14.5672 10.8028 14.3712 10.7245C14.1751 10.6461 14.018 10.4962 13.9329 10.3064L13.9326 10.3057L13.9323 10.305C13.7173 9.78108 13.3315 9.34131 12.8348 9.05396C12.3382 8.76661 11.7585 8.64776 11.1858 8.71586L11.1852 8.71592C10.9691 8.73918 10.7524 8.67749 10.5828 8.54441C10.4132 8.41133 10.3045 8.21777 10.2807 8.00631C10.257 7.79485 10.32 7.58281 10.456 7.41684Z" fill="url(#paint1_linear_1603_86)"></path><path d="M14.8953 12.2173C14.7552 12.139 14.5944 12.1032 14.4335 12.1143C14.2725 12.1255 14.1185 12.1832 13.9911 12.2801C13.8636 12.377 13.7685 12.5087 13.7176 12.6586C13.6667 12.8085 13.6625 12.9697 13.7054 13.122C13.7483 13.2742 13.8364 13.4106 13.9586 13.5137C14.0807 13.6169 14.2315 13.6823 14.3916 13.7016C14.5518 13.7209 14.7142 13.6932 14.8583 13.6221C15.0024 13.551 15.1217 13.4396 15.201 13.302C15.3069 13.1184 15.3342 12.9012 15.277 12.6979C15.2197 12.4947 15.0825 12.3218 14.8953 12.2173Z" fill="black"></path><path d="M14.8953 12.2173C14.7552 12.139 14.5944 12.1032 14.4335 12.1143C14.2725 12.1255 14.1185 12.1832 13.9911 12.2801C13.8636 12.377 13.7685 12.5087 13.7176 12.6586C13.6667 12.8085 13.6625 12.9697 13.7054 13.122C13.7483 13.2742 13.8364 13.4106 13.9586 13.5137C14.0807 13.6169 14.2315 13.6823 14.3916 13.7016C14.5518 13.7209 14.7142 13.6932 14.8583 13.6221C15.0024 13.551 15.1217 13.4396 15.201 13.302C15.3069 13.1184 15.3342 12.9012 15.277 12.6979C15.2197 12.4947 15.0825 12.3218 14.8953 12.2173Z" fill="url(#paint2_linear_1603_86)"></path><path fill-rule="evenodd" clip-rule="evenodd" d="M7.96446 17.5447C7.99647 17.5954 8.01351 17.6538 8.01369 17.7134L8.01369 18.348C8.01506 18.6113 8.0718 18.8717 8.18037 19.1125C8.28354 19.3414 8.43141 19.5482 8.61554 19.7214C8.47354 19.9891 8.39799 20.286 8.3953 20.588L8.3953 21.3353C8.3953 21.844 8.60179 22.3318 8.96935 22.6914C9.3369 23.0511 9.83542 23.2532 10.3552 23.2532H10.6866C10.6991 23.4462 10.7831 23.6288 10.9237 23.7664C11.0765 23.916 11.2838 24 11.5 24C11.7162 24 11.9235 23.916 12.0764 23.7664C12.217 23.6288 12.3009 23.4462 12.3135 23.2532H12.6448C13.1646 23.2532 13.6632 23.0511 14.0307 22.6914C14.3983 22.3318 14.6048 21.844 14.6048 21.3353V20.5883C14.6021 20.2863 14.5265 19.9891 14.3845 19.7214C14.5686 19.5482 14.7165 19.3414 14.8197 19.1125C14.9283 18.8717 14.985 18.6115 14.9864 18.3483L14.9864 17.7136C14.9869 17.655 15.0037 17.5974 15.035 17.5474C15.0664 17.4974 15.1111 17.4567 15.1644 17.4297L15.1655 17.4291L15.1666 17.4285C16.1628 16.862 17.0079 16.0728 17.6327 15.1255C18.2576 14.1782 18.6445 13.0997 18.7618 11.978C18.8792 10.8564 18.7236 9.72348 18.3078 8.67195C17.892 7.62046 17.2279 6.68016 16.3697 5.9279C15.6093 5.25781 14.7135 4.75158 13.7403 4.44203C12.7672 4.13248 11.7384 4.02653 10.7207 4.13105C9.703 4.23556 8.71912 4.5482 7.83284 5.04871C6.94655 5.54921 6.17767 6.2264 5.57603 7.03637C4.97438 7.84633 4.55342 8.77099 4.34044 9.75038C4.12746 10.7298 4.1272 11.742 4.3397 12.7215C4.5522 13.701 4.9727 14.6259 5.57393 15.4361C6.17517 16.2464 6.94372 16.9239 7.82975 17.4249L7.83104 17.4256L7.83236 17.4262C7.88673 17.453 7.93246 17.4941 7.96446 17.5447ZM14.3659 16.1075L14.3727 16.1037C14.3704 16.105 14.3681 16.1063 14.3659 16.1075ZM14.3735 16.1075C14.3716 16.1086 14.3697 16.1097 14.3678 16.1108L14.3659 16.1119C14.3684 16.1104 14.371 16.109 14.3735 16.1075ZM14.1716 16.1583H14.196C13.9663 16.3169 13.773 16.5218 13.6297 16.7601C13.456 17.0491 13.3617 17.3772 13.3561 17.7124L13.3561 17.7128V18.348C13.3561 18.4336 13.3214 18.5156 13.2596 18.5761C13.1977 18.6366 13.1139 18.6706 13.0264 18.6706H9.97362C9.88618 18.6706 9.80232 18.6366 9.74049 18.5761C9.67866 18.5156 9.64392 18.4336 9.64392 18.348V17.7128L9.64391 17.7124C9.63833 17.3772 9.54407 17.0491 9.37032 16.7601C9.19657 16.4711 8.94926 16.2311 8.6525 16.0635C7.56849 15.453 6.72108 14.5088 6.24221 13.3782C5.76333 12.2475 5.67982 10.9936 6.00464 9.8117C6.32947 8.62976 7.04443 7.58603 8.03827 6.84291C9.03211 6.09979 10.2491 5.69895 11.4999 5.70277C12.75 5.70059 13.9661 6.1026 14.9586 6.84631C15.9512 7.59002 16.6649 8.63376 16.9887 9.81529C17.3126 10.9968 17.2285 12.2499 16.7495 13.3799C16.2705 14.5098 15.4234 15.4532 14.34 16.0635L14.1716 16.1583ZM12.9745 21.3353C12.9745 21.4209 12.9398 21.5029 12.878 21.5634C12.8161 21.6239 12.7323 21.6579 12.6448 21.6579H10.3552C10.2678 21.6579 10.1839 21.6239 10.1221 21.5634C10.0603 21.5029 10.0255 21.4209 10.0255 21.3353V20.5885C10.0255 20.5029 10.0603 20.4209 10.1221 20.3604C10.1839 20.2999 10.2678 20.2659 10.3552 20.2659H12.6448C12.7323 20.2659 12.8161 20.2999 12.878 20.3604C12.9398 20.4209 12.9745 20.5029 12.9745 20.5885V21.3353Z" fill="black"></path><path fill-rule="evenodd" clip-rule="evenodd" d="M7.96446 17.5447C7.99647 17.5954 8.01351 17.6538 8.01369 17.7134L8.01369 18.348C8.01506 18.6113 8.0718 18.8717 8.18037 19.1125C8.28354 19.3414 8.43141 19.5482 8.61554 19.7214C8.47354 19.9891 8.39799 20.286 8.3953 20.588L8.3953 21.3353C8.3953 21.844 8.60179 22.3318 8.96935 22.6914C9.3369 23.0511 9.83542 23.2532 10.3552 23.2532H10.6866C10.6991 23.4462 10.7831 23.6288 10.9237 23.7664C11.0765 23.916 11.2838 24 11.5 24C11.7162 24 11.9235 23.916 12.0764 23.7664C12.217 23.6288 12.3009 23.4462 12.3135 23.2532H12.6448C13.1646 23.2532 13.6632 23.0511 14.0307 22.6914C14.3983 22.3318 14.6048 21.844 14.6048 21.3353V20.5883C14.6021 20.2863 14.5265 19.9891 14.3845 19.7214C14.5686 19.5482 14.7165 19.3414 14.8197 19.1125C14.9283 18.8717 14.985 18.6115 14.9864 18.3483L14.9864 17.7136C14.9869 17.655 15.0037 17.5974 15.035 17.5474C15.0664 17.4974 15.1111 17.4567 15.1644 17.4297L15.1655 17.4291L15.1666 17.4285C16.1628 16.862 17.0079 16.0728 17.6327 15.1255C18.2576 14.1782 18.6445 13.0997 18.7618 11.978C18.8792 10.8564 18.7236 9.72348 18.3078 8.67195C17.892 7.62046 17.2279 6.68016 16.3697 5.9279C15.6093 5.25781 14.7135 4.75158 13.7403 4.44203C12.7672 4.13248 11.7384 4.02653 10.7207 4.13105C9.703 4.23556 8.71912 4.5482 7.83284 5.04871C6.94655 5.54921 6.17767 6.2264 5.57603 7.03637C4.97438 7.84633 4.55342 8.77099 4.34044 9.75038C4.12746 10.7298 4.1272 11.742 4.3397 12.7215C4.5522 13.701 4.9727 14.6259 5.57393 15.4361C6.17517 16.2464 6.94372 16.9239 7.82975 17.4249L7.83104 17.4256L7.83236 17.4262C7.88673 17.453 7.93246 17.4941 7.96446 17.5447ZM14.3659 16.1075L14.3727 16.1037C14.3704 16.105 14.3681 16.1063 14.3659 16.1075ZM14.3735 16.1075C14.3716 16.1086 14.3697 16.1097 14.3678 16.1108L14.3659 16.1119C14.3684 16.1104 14.371 16.109 14.3735 16.1075ZM14.1716 16.1583H14.196C13.9663 16.3169 13.773 16.5218 13.6297 16.7601C13.456 17.0491 13.3617 17.3772 13.3561 17.7124L13.3561 17.7128V18.348C13.3561 18.4336 13.3214 18.5156 13.2596 18.5761C13.1977 18.6366 13.1139 18.6706 13.0264 18.6706H9.97362C9.88618 18.6706 9.80232 18.6366 9.74049 18.5761C9.67866 18.5156 9.64392 18.4336 9.64392 18.348V17.7128L9.64391 17.7124C9.63833 17.3772 9.54407 17.0491 9.37032 16.7601C9.19657 16.4711 8.94926 16.2311 8.6525 16.0635C7.56849 15.453 6.72108 14.5088 6.24221 13.3782C5.76333 12.2475 5.67982 10.9936 6.00464 9.8117C6.32947 8.62976 7.04443 7.58603 8.03827 6.84291C9.03211 6.09979 10.2491 5.69895 11.4999 5.70277C12.75 5.70059 13.9661 6.1026 14.9586 6.84631C15.9512 7.59002 16.6649 8.63376 16.9887 9.81529C17.3126 10.9968 17.2285 12.2499 16.7495 13.3799C16.2705 14.5098 15.4234 15.4532 14.34 16.0635L14.1716 16.1583ZM12.9745 21.3353C12.9745 21.4209 12.9398 21.5029 12.878 21.5634C12.8161 21.6239 12.7323 21.6579 12.6448 21.6579H10.3552C10.2678 21.6579 10.1839 21.6239 10.1221 21.5634C10.0603 21.5029 10.0255 21.4209 10.0255 21.3353V20.5885C10.0255 20.5029 10.0603 20.4209 10.1221 20.3604C10.1839 20.2999 10.2678 20.2659 10.3552 20.2659H12.6448C12.7323 20.2659 12.8161 20.2999 12.878 20.3604C12.9398 20.4209 12.9745 20.5029 12.9745 20.5885V21.3353Z" fill="url(#paint3_linear_1603_86)"></path><path d="M17.6681 4.08891C17.5545 4.20068 17.4774 4.34287 17.4463 4.49752C17.4153 4.65217 17.4318 4.81236 17.4937 4.95785C17.5556 5.10335 17.6602 5.22763 17.7942 5.31502C17.9283 5.4024 18.0857 5.44896 18.2468 5.44885C18.462 5.449 18.6686 5.36585 18.8214 5.21754L19.6305 4.42576C19.7063 4.35165 19.7663 4.26368 19.8073 4.16685C19.8483 4.07003 19.8694 3.96626 19.8694 3.86146C19.8694 3.75666 19.8483 3.65289 19.8073 3.55606C19.7663 3.45924 19.7063 3.37127 19.6305 3.29716C19.5548 3.22306 19.4649 3.16428 19.366 3.12417C19.267 3.08407 19.161 3.06342 19.0539 3.06342C18.9468 3.06342 18.8407 3.08407 18.7418 3.12417C18.6428 3.16428 18.5529 3.22306 18.4772 3.29716L17.6681 4.08891Z" fill="black"></path><path d="M17.6681 4.08891C17.5545 4.20068 17.4774 4.34287 17.4463 4.49752C17.4153 4.65217 17.4318 4.81236 17.4937 4.95785C17.5556 5.10335 17.6602 5.22763 17.7942 5.31502C17.9283 5.4024 18.0857 5.44896 18.2468 5.44885C18.462 5.449 18.6686 5.36585 18.8214 5.21754L19.6305 4.42576C19.7063 4.35165 19.7663 4.26368 19.8073 4.16685C19.8483 4.07003 19.8694 3.96626 19.8694 3.86146C19.8694 3.75666 19.8483 3.65289 19.8073 3.55606C19.7663 3.45924 19.7063 3.37127 19.6305 3.29716C19.5548 3.22306 19.4649 3.16428 19.366 3.12417C19.267 3.08407 19.161 3.06342 19.0539 3.06342C18.9468 3.06342 18.8407 3.08407 18.7418 3.12417C18.6428 3.16428 18.5529 3.22306 18.4772 3.29716L17.6681 4.08891Z" fill="url(#paint4_linear_1603_86)"></path><path d="M4.17864 5.21754C4.33146 5.36586 4.53802 5.44901 4.75325 5.44885C4.9143 5.44897 5.07178 5.4024 5.2058 5.31502C5.33984 5.22764 5.44442 5.10335 5.50634 4.95786C5.56825 4.81236 5.58473 4.65218 5.55369 4.49753C5.52266 4.34288 5.44549 4.20069 5.33194 4.08891L4.52284 3.29717C4.44711 3.22307 4.3572 3.16428 4.25826 3.12418C4.15931 3.08407 4.05326 3.06343 3.94616 3.06343C3.83907 3.06343 3.73302 3.08407 3.63407 3.12418C3.53513 3.16428 3.44522 3.22307 3.36949 3.29717C3.29376 3.37127 3.23369 3.45925 3.1927 3.55607C3.15172 3.65289 3.13063 3.75667 3.13063 3.86147C3.13063 3.96626 3.15172 4.07004 3.1927 4.16686C3.23369 4.26368 3.29376 4.35166 3.36949 4.42576L4.17864 5.21754Z" fill="black"></path><path d="M4.17864 5.21754C4.33146 5.36586 4.53802 5.44901 4.75325 5.44885C4.9143 5.44897 5.07178 5.4024 5.2058 5.31502C5.33984 5.22764 5.44442 5.10335 5.50634 4.95786C5.56825 4.81236 5.58473 4.65218 5.55369 4.49753C5.52266 4.34288 5.44549 4.20069 5.33194 4.08891L4.52284 3.29717C4.44711 3.22307 4.3572 3.16428 4.25826 3.12418C4.15931 3.08407 4.05326 3.06343 3.94616 3.06343C3.83907 3.06343 3.73302 3.08407 3.63407 3.12418C3.53513 3.16428 3.44522 3.22307 3.36949 3.29717C3.29376 3.37127 3.23369 3.45925 3.1927 3.55607C3.15172 3.65289 3.13063 3.75667 3.13063 3.86147C3.13063 3.96626 3.15172 4.07004 3.1927 4.16686C3.23369 4.26368 3.29376 4.35166 3.36949 4.42576L4.17864 5.21754Z" fill="url(#paint5_linear_1603_86)"></path><path d="M11.5 2.71548C11.7162 2.71548 11.9235 2.63144 12.0764 2.48186C12.2293 2.33228 12.3151 2.1294 12.3151 1.91786V0.797619C12.3151 0.586078 12.2293 0.3832 12.0764 0.233617C11.9235 0.0840346 11.7162 0 11.5 0C11.2838 0 11.0765 0.0840346 10.9236 0.233617C10.7708 0.3832 10.6849 0.586078 10.6849 0.797619V1.91786C10.6849 2.1294 10.7708 2.33228 10.9236 2.48186C11.0765 2.63144 11.2838 2.71548 11.5 2.71548Z" fill="black"></path><path d="M11.5 2.71548C11.7162 2.71548 11.9235 2.63144 12.0764 2.48186C12.2293 2.33228 12.3151 2.1294 12.3151 1.91786V0.797619C12.3151 0.586078 12.2293 0.3832 12.0764 0.233617C11.9235 0.0840346 11.7162 0 11.5 0C11.2838 0 11.0765 0.0840346 10.9236 0.233617C10.7708 0.3832 10.6849 0.586078 10.6849 0.797619V1.91786C10.6849 2.1294 10.7708 2.33228 10.9236 2.48186C11.0765 2.63144 11.2838 2.71548 11.5 2.71548Z" fill="url(#paint6_linear_1603_86)"></path><path d="M22.1849 10.4556H21.0401C20.8239 10.4556 20.6166 10.5396 20.4637 10.6892C20.3109 10.8388 20.225 11.0416 20.225 11.2532C20.225 11.4647 20.3109 11.6676 20.4637 11.8172C20.6166 11.9668 20.8239 12.0508 21.0401 12.0508H22.1849C22.4011 12.0508 22.6084 11.9668 22.7613 11.8172C22.9141 11.6676 23 11.4647 23 11.2532C23 11.0416 22.9141 10.8388 22.7613 10.6892C22.6084 10.5396 22.4011 10.4556 22.1849 10.4556Z" fill="black"></path><path d="M22.1849 10.4556H21.0401C20.8239 10.4556 20.6166 10.5396 20.4637 10.6892C20.3109 10.8388 20.225 11.0416 20.225 11.2532C20.225 11.4647 20.3109 11.6676 20.4637 11.8172C20.6166 11.9668 20.8239 12.0508 21.0401 12.0508H22.1849C22.4011 12.0508 22.6084 11.9668 22.7613 11.8172C22.9141 11.6676 23 11.4647 23 11.2532C23 11.0416 22.9141 10.8388 22.7613 10.6892C22.6084 10.5396 22.4011 10.4556 22.1849 10.4556Z" fill="url(#paint7_linear_1603_86)"></path><path d="M18.8215 17.289C18.6686 17.1393 18.4611 17.0552 18.2448 17.0552C18.0285 17.0552 17.8211 17.1393 17.6682 17.289C17.5152 17.4386 17.4293 17.6416 17.4293 17.8532C17.4293 18.0649 17.5152 18.2679 17.6682 18.4175L18.477 19.2091C18.5529 19.2837 18.643 19.3429 18.7424 19.3833C18.8417 19.4237 18.9482 19.4444 19.0557 19.4444C19.2173 19.4445 19.3752 19.3976 19.5095 19.3098C19.6438 19.2219 19.7483 19.0969 19.8099 18.9508C19.8715 18.8046 19.8873 18.6439 19.8553 18.4889C19.8234 18.3339 19.745 18.1918 19.6303 18.0804L18.8215 17.289Z" fill="black"></path><path d="M18.8215 17.289C18.6686 17.1393 18.4611 17.0552 18.2448 17.0552C18.0285 17.0552 17.8211 17.1393 17.6682 17.289C17.5152 17.4386 17.4293 17.6416 17.4293 17.8532C17.4293 18.0649 17.5152 18.2679 17.6682 18.4175L18.477 19.2091C18.5529 19.2837 18.643 19.3429 18.7424 19.3833C18.8417 19.4237 18.9482 19.4444 19.0557 19.4444C19.2173 19.4445 19.3752 19.3976 19.5095 19.3098C19.6438 19.2219 19.7483 19.0969 19.8099 18.9508C19.8715 18.8046 19.8873 18.6439 19.8553 18.4889C19.8234 18.3339 19.745 18.1918 19.6303 18.0804L18.8215 17.289Z" fill="url(#paint8_linear_1603_86)"></path><path d="M4.17849 17.289L3.36949 18.0806C3.21655 18.2302 3.13063 18.4332 3.13063 18.6449C3.13063 18.8565 3.21655 19.0595 3.36949 19.2092C3.52243 19.3588 3.72987 19.4429 3.94616 19.4429C4.16246 19.4429 4.36989 19.3588 4.52284 19.2092L5.33183 18.4175C5.40756 18.3434 5.46764 18.2555 5.50862 18.1586C5.54961 18.0618 5.5707 17.958 5.5707 17.8532C5.5707 17.7484 5.54961 17.6447 5.50862 17.5479C5.46764 17.451 5.40756 17.3631 5.33183 17.289C5.2561 17.2148 5.1662 17.1561 5.06726 17.116C4.96831 17.0759 4.86226 17.0552 4.75516 17.0552C4.64806 17.0552 4.54202 17.0759 4.44307 17.116C4.34412 17.1561 4.25422 17.2148 4.17849 17.289Z" fill="black"></path><path d="M4.17849 17.289L3.36949 18.0806C3.21655 18.2302 3.13063 18.4332 3.13063 18.6449C3.13063 18.8565 3.21655 19.0595 3.36949 19.2092C3.52243 19.3588 3.72987 19.4429 3.94616 19.4429C4.16246 19.4429 4.36989 19.3588 4.52284 19.2092L5.33183 18.4175C5.40756 18.3434 5.46764 18.2555 5.50862 18.1586C5.54961 18.0618 5.5707 17.958 5.5707 17.8532C5.5707 17.7484 5.54961 17.6447 5.50862 17.5479C5.46764 17.451 5.40756 17.3631 5.33183 17.289C5.2561 17.2148 5.1662 17.1561 5.06726 17.116C4.96831 17.0759 4.86226 17.0552 4.75516 17.0552C4.64806 17.0552 4.54202 17.0759 4.44307 17.116C4.34412 17.1561 4.25422 17.2148 4.17849 17.289Z" fill="url(#paint9_linear_1603_86)"></path><path d="M1.95994 10.4556H0.815129C0.598948 10.4556 0.39162 10.5396 0.238757 10.6892C0.0858931 10.8388 1.52588e-05 11.0416 1.52588e-05 11.2532C1.52588e-05 11.4647 0.0858931 11.6676 0.238757 11.8172C0.39162 11.9668 0.598948 12.0508 0.815129 12.0508H1.95994C2.17612 12.0508 2.38345 11.9668 2.53631 11.8172C2.68917 11.6676 2.77505 11.4647 2.77505 11.2532C2.77505 11.0416 2.68917 10.8388 2.53631 10.6892C2.38345 10.5396 2.17612 10.4556 1.95994 10.4556Z" fill="black"></path><path d="M1.95994 10.4556H0.815129C0.598948 10.4556 0.39162 10.5396 0.238757 10.6892C0.0858931 10.8388 1.52588e-05 11.0416 1.52588e-05 11.2532C1.52588e-05 11.4647 0.0858931 11.6676 0.238757 11.8172C0.39162 11.9668 0.598948 12.0508 0.815129 12.0508H1.95994C2.17612 12.0508 2.38345 11.9668 2.53631 11.8172C2.68917 11.6676 2.77505 11.4647 2.77505 11.2532C2.77505 11.0416 2.68917 10.8388 2.53631 10.6892C2.38345 10.5396 2.17612 10.4556 1.95994 10.4556Z" fill="url(#paint10_linear_1603_86)"></path><defs><linearGradient id="paint0_linear_1603_86" x1="10.0003" y1="18.1481" x2="10.0003" y2="91.2542" gradientUnits="userSpaceOnUse"><stop stop-color="#CB9846"></stop><stop offset="0.25" stop-color="#DFB464"></stop><stop offset="0.5" stop-color="#FFEDB7"></stop><stop offset="0.75" stop-color="#EFCF88"></stop><stop offset="1" stop-color="#C89646"></stop></linearGradient><linearGradient id="paint1_linear_1603_86" x1="11.5" y1="0" x2="11.5" y2="24" gradientUnits="userSpaceOnUse"><stop stop-color="#CB9846"></stop><stop offset="0.25" stop-color="#DFB464"></stop><stop offset="0.5" stop-color="#FFEDB7"></stop><stop offset="0.75" stop-color="#EFCF88"></stop><stop offset="1" stop-color="#C89646"></stop></linearGradient><linearGradient id="paint2_linear_1603_86" x1="11.5" y1="0" x2="11.5" y2="24" gradientUnits="userSpaceOnUse"><stop stop-color="#CB9846"></stop><stop offset="0.25" stop-color="#DFB464"></stop><stop offset="0.5" stop-color="#FFEDB7"></stop><stop offset="0.75" stop-color="#EFCF88"></stop><stop offset="1" stop-color="#C89646"></stop></linearGradient><linearGradient id="paint3_linear_1603_86" x1="11.5" y1="0" x2="11.5" y2="24" gradientUnits="userSpaceOnUse"><stop stop-color="#CB9846"></stop><stop offset="0.25" stop-color="#DFB464"></stop><stop offset="0.5" stop-color="#FFEDB7"></stop><stop offset="0.75" stop-color="#EFCF88"></stop><stop offset="1" stop-color="#C89646"></stop></linearGradient><linearGradient id="paint4_linear_1603_86" x1="11.5" y1="0" x2="11.5" y2="24" gradientUnits="userSpaceOnUse"><stop stop-color="#CB9846"></stop><stop offset="0.25" stop-color="#DFB464"></stop><stop offset="0.5" stop-color="#FFEDB7"></stop><stop offset="0.75" stop-color="#EFCF88"></stop><stop offset="1" stop-color="#C89646"></stop></linearGradient><linearGradient id="paint5_linear_1603_86" x1="11.5" y1="0" x2="11.5" y2="24" gradientUnits="userSpaceOnUse"><stop stop-color="#CB9846"></stop><stop offset="0.25" stop-color="#DFB464"></stop><stop offset="0.5" stop-color="#FFEDB7"></stop><stop offset="0.75" stop-color="#EFCF88"></stop><stop offset="1" stop-color="#C89646"></stop></linearGradient><linearGradient id="paint6_linear_1603_86" x1="11.5" y1="0" x2="11.5" y2="24" gradientUnits="userSpaceOnUse"><stop stop-color="#CB9846"></stop><stop offset="0.25" stop-color="#DFB464"></stop><stop offset="0.5" stop-color="#FFEDB7"></stop><stop offset="0.75" stop-color="#EFCF88"></stop><stop offset="1" stop-color="#C89646"></stop></linearGradient><linearGradient id="paint7_linear_1603_86" x1="11.5" y1="0" x2="11.5" y2="24" gradientUnits="userSpaceOnUse"><stop stop-color="#CB9846"></stop><stop offset="0.25" stop-color="#DFB464"></stop><stop offset="0.5" stop-color="#FFEDB7"></stop><stop offset="0.75" stop-color="#EFCF88"></stop><stop offset="1" stop-color="#C89646"></stop></linearGradient><linearGradient id="paint8_linear_1603_86" x1="11.5" y1="0" x2="11.5" y2="24" gradientUnits="userSpaceOnUse"><stop stop-color="#CB9846"></stop><stop offset="0.25" stop-color="#DFB464"></stop><stop offset="0.5" stop-color="#FFEDB7"></stop><stop offset="0.75" stop-color="#EFCF88"></stop><stop offset="1" stop-color="#C89646"></stop></linearGradient><linearGradient id="paint9_linear_1603_86" x1="11.5" y1="0" x2="11.5" y2="24" gradientUnits="userSpaceOnUse"><stop stop-color="#CB9846"></stop><stop offset="0.25" stop-color="#DFB464"></stop><stop offset="0.5" stop-color="#FFEDB7"></stop><stop offset="0.75" stop-color="#EFCF88"></stop><stop offset="1" stop-color="#C89646"></stop></linearGradient><linearGradient id="paint10_linear_1603_86" x1="11.5" y1="0" x2="11.5" y2="24" gradientUnits="userSpaceOnUse"><stop stop-color="#CB9846"></stop><stop offset="0.25" stop-color="#DFB464"></stop><stop offset="0.5" stop-color="#FFEDB7"></stop><stop offset="0.75" stop-color="#EFCF88"></stop><stop offset="1" stop-color="#C89646"></stop></linearGradient></defs></svg>