<svg xmlns="http://www.w3.org/2000/svg" width="24" height="24" viewBox="0 0 24 24" fill="none"><path fill-rule="evenodd" clip-rule="evenodd" d="M21.6886 20.7381L10.9512 2.17041C10.8984 2.0823 9.63384 0.0060951 7.42332 0.0060951L0.328514 0.00380379C0.144383 -0.00418006 0.0273032 0.00456731 0.00671387 0.0060951L0.0613636 1.47987L0.326051 1.48023C0.794032 1.50875 1.91276 1.71232 2.6316 2.95366L13.4952 21.715L13.5038 21.7298C13.5517 21.8085 14.7048 23.6567 16.9823 23.6567H23.9157L23.981 22.1837C23.9654 22.1822 22.4046 22.0018 21.6886 20.7381ZM14.6604 20.9263L3.8032 2.17558C3.65169 1.91385 3.48813 1.68369 3.31674 1.48083H3.8965L3.89686 1.48426C3.95506 1.48121 5.32782 1.44628 6.11905 2.81219L16.8003 21.2526C16.8635 21.3814 17.0657 21.7604 17.4365 22.1805H16.982C15.4949 22.1805 14.7169 21.0137 14.6604 20.9263H14.6604ZM20.72 22.1806V22.1761C18.7965 22.1761 18.0504 20.6297 18.022 20.569L18.006 20.5337L7.29066 2.03398C7.17251 1.83 7.04551 1.64693 6.91317 1.48207H7.42264C8.83482 1.48207 9.73816 2.88519 9.78819 2.96459L20.5124 21.5091C20.655 21.7609 20.8168 21.9839 20.9903 22.1806H20.72Z" fill="url(#paint0_linear_2039_154)"></path><path fill-rule="evenodd" clip-rule="evenodd" d="M23.6514 0.0034845H16.5548C14.344 0.0034845 13.0795 2.08197 13.0216 2.17921L2.28607 20.7435C1.5736 22.0015 0.0127753 22.1819 0 22.183L0.0624471 23.6564H6.99577C9.27302 23.6564 10.4265 21.8081 10.4744 21.7295L21.3466 2.95332C22.066 1.71087 23.1862 1.50804 23.6532 1.47954H23.9168L23.9714 0.00575794C23.9508 0.00424877 23.8344 -0.00488074 23.6514 0.0034845ZM3.46089 21.5146L14.1886 2.96438C14.2372 2.8865 15.141 1.47959 16.5538 1.47959H17.0647C16.932 1.64521 16.8046 1.82904 16.6858 2.03377L5.98964 20.5L5.96304 20.5441L5.94174 20.5992C5.91514 20.6637 5.27077 22.1759 3.25653 22.1759V22.1804H2.9872C3.15929 21.9852 3.31969 21.7641 3.46089 21.5146ZM20.1743 2.17546L9.31814 20.9247C9.24822 21.0322 8.47087 22.1804 6.9955 22.1804H6.58039C6.93134 21.7675 7.11793 21.39 7.18505 21.2388L17.8584 2.81208C18.6497 1.44617 20.0232 1.48035 20.0806 1.48415L20.081 1.47959H20.6615C20.4901 1.68281 20.3262 1.91337 20.1743 2.17546Z" fill="url(#paint1_linear_2039_154)"></path><g style="mix-blend-mode:multiply" opacity="0.25"><path fill-rule="evenodd" clip-rule="evenodd" d="M11.0141 14.6285L11.4752 15.4249L10.6557 16.8114L10.2084 16.0388L11.0141 14.6285Z" fill="url(#paint2_linear_2039_154)"></path></g><g style="mix-blend-mode:multiply" opacity="0.25"><path fill-rule="evenodd" clip-rule="evenodd" d="M12.7999 11.5471L13.261 12.3435L12.4415 13.73L11.9835 12.9539L12.7999 11.5471Z" fill="url(#paint3_linear_2039_154)"></path></g><g style="mix-blend-mode:multiply" opacity="0.25"><path fill-rule="evenodd" clip-rule="evenodd" d="M14.5915 8.45532L15.0526 9.2517L14.2331 10.6382L13.7751 9.8621L14.5915 8.45532Z" fill="url(#paint4_linear_2039_154)"></path></g><g style="mix-blend-mode:multiply" opacity="0.18"><path fill-rule="evenodd" clip-rule="evenodd" d="M9.22578 11.5455L9.68689 12.3424L8.86737 13.7297L8.42004 12.9406L9.22578 11.5455Z" fill="url(#paint5_linear_2039_154)"></path></g><g style="mix-blend-mode:multiply" opacity="0.18"><path fill-rule="evenodd" clip-rule="evenodd" d="M11.0115 8.46191L11.4726 9.25879L10.653 10.6461L10.1951 9.86955L11.0115 8.46191Z" fill="url(#paint6_linear_2039_154)"></path></g><g style="mix-blend-mode:multiply" opacity="0.18"><path fill-rule="evenodd" clip-rule="evenodd" d="M12.8031 5.36877L13.2642 6.16563L12.4447 7.55298L11.9867 6.77641L12.8031 5.36877Z" fill="url(#paint7_linear_2039_154)"></path></g><g style="mix-blend-mode:multiply" opacity="0.35"><path fill-rule="evenodd" clip-rule="evenodd" d="M12.7996 17.7153L13.2607 18.5117L12.4412 19.8982L11.9884 19.1129L12.7996 17.7153Z" fill="url(#paint8_linear_2039_154)"></path></g><g style="mix-blend-mode:multiply" opacity="0.35"><path fill-rule="evenodd" clip-rule="evenodd" d="M14.5865 14.6342L15.0476 15.4305L14.2281 16.817L13.7701 16.0409L14.5865 14.6342Z" fill="url(#paint9_linear_2039_154)"></path></g><g style="mix-blend-mode:multiply" opacity="0.35"><path fill-rule="evenodd" clip-rule="evenodd" d="M16.3782 11.5419L16.8393 12.3382L16.0198 13.7247L15.5618 12.9486L16.3782 11.5419Z" fill="url(#paint10_linear_2039_154)"></path></g><defs><linearGradient id="paint0_linear_2039_154" x1="-18.8055" y1="-42.2796" x2="23.1507" y2="-34.9523" gradientUnits="userSpaceOnUse"><stop stop-color="#BC8431"></stop><stop offset="0.104167" stop-color="#ECC777"></stop><stop offset="0.164558" stop-color="#FEF7DF"></stop><stop offset="0.297169" stop-color="#ECC777"></stop><stop offset="0.331328" stop-color="#BC8431"></stop><stop offset="0.370425" stop-color="#ECC777"></stop><stop offset="0.49793" stop-color="#FEF7DF"></stop><stop offset="0.607315" stop-color="#ECC777"></stop><stop offset="0.646864" stop-color="#BC8431"></stop><stop offset="0.687052" stop-color="#ECC777"></stop><stop offset="0.81548" stop-color="#FEF7DF"></stop><stop offset="0.895833" stop-color="#ECC777"></stop><stop offset="1" stop-color="#BC8431"></stop></linearGradient><linearGradient id="paint1_linear_2039_154" x1="-18.81" y1="-42.2804" x2="23.1416" y2="-34.9549" gradientUnits="userSpaceOnUse"><stop stop-color="#BC8431"></stop><stop offset="0.104167" stop-color="#ECC777"></stop><stop offset="0.164558" stop-color="#FEF7DF"></stop><stop offset="0.297169" stop-color="#ECC777"></stop><stop offset="0.331328" stop-color="#BC8431"></stop><stop offset="0.370425" stop-color="#ECC777"></stop><stop offset="0.49793" stop-color="#FEF7DF"></stop><stop offset="0.607315" stop-color="#ECC777"></stop><stop offset="0.646864" stop-color="#BC8431"></stop><stop offset="0.687052" stop-color="#ECC777"></stop><stop offset="0.81548" stop-color="#FEF7DF"></stop><stop offset="0.895833" stop-color="#ECC777"></stop><stop offset="1" stop-color="#BC8431"></stop></linearGradient><linearGradient id="paint2_linear_2039_154" x1="10.176" y1="10.3942" x2="10.176" y2="16.9884" gradientUnits="userSpaceOnUse"><stop stop-color="#BC8431"></stop><stop offset="0.104167" stop-color="#ECC777"></stop><stop offset="0.164558" stop-color="#FEF7DF"></stop><stop offset="0.297169" stop-color="#ECC777"></stop><stop offset="0.331328" stop-color="#BC8431"></stop><stop offset="0.370425" stop-color="#ECC777"></stop><stop offset="0.49793" stop-color="#FEF7DF"></stop><stop offset="0.607315" stop-color="#ECC777"></stop><stop offset="0.646864" stop-color="#BC8431"></stop><stop offset="0.687052" stop-color="#ECC777"></stop><stop offset="0.81548" stop-color="#FEF7DF"></stop><stop offset="0.895833" stop-color="#ECC777"></stop><stop offset="1" stop-color="#BC8431"></stop></linearGradient><linearGradient id="paint3_linear_2039_154" x1="11.9509" y1="7.31274" x2="11.9509" y2="13.907" gradientUnits="userSpaceOnUse"><stop stop-color="#BC8431"></stop><stop offset="0.104167" stop-color="#ECC777"></stop><stop offset="0.164558" stop-color="#FEF7DF"></stop><stop offset="0.297169" stop-color="#ECC777"></stop><stop offset="0.331328" stop-color="#BC8431"></stop><stop offset="0.370425" stop-color="#ECC777"></stop><stop offset="0.49793" stop-color="#FEF7DF"></stop><stop offset="0.607315" stop-color="#ECC777"></stop><stop offset="0.646864" stop-color="#BC8431"></stop><stop offset="0.687052" stop-color="#ECC777"></stop><stop offset="0.81548" stop-color="#FEF7DF"></stop><stop offset="0.895833" stop-color="#ECC777"></stop><stop offset="1" stop-color="#BC8431"></stop></linearGradient><linearGradient id="paint4_linear_2039_154" x1="13.7425" y1="4.22092" x2="13.7425" y2="10.8152" gradientUnits="userSpaceOnUse"><stop stop-color="#BC8431"></stop><stop offset="0.104167" stop-color="#ECC777"></stop><stop offset="0.164558" stop-color="#FEF7DF"></stop><stop offset="0.297169" stop-color="#ECC777"></stop><stop offset="0.331328" stop-color="#BC8431"></stop><stop offset="0.370425" stop-color="#ECC777"></stop><stop offset="0.49793" stop-color="#FEF7DF"></stop><stop offset="0.607315" stop-color="#ECC777"></stop><stop offset="0.646864" stop-color="#BC8431"></stop><stop offset="0.687052" stop-color="#ECC777"></stop><stop offset="0.81548" stop-color="#FEF7DF"></stop><stop offset="0.895833" stop-color="#ECC777"></stop><stop offset="1" stop-color="#BC8431"></stop></linearGradient><linearGradient id="paint5_linear_2039_154" x1="8.38771" y1="7.30851" x2="8.38771" y2="13.9069" gradientUnits="userSpaceOnUse"><stop stop-color="#BC8431"></stop><stop offset="0.104167" stop-color="#ECC777"></stop><stop offset="0.164558" stop-color="#FEF7DF"></stop><stop offset="0.297169" stop-color="#ECC777"></stop><stop offset="0.331328" stop-color="#BC8431"></stop><stop offset="0.370425" stop-color="#ECC777"></stop><stop offset="0.49793" stop-color="#FEF7DF"></stop><stop offset="0.607315" stop-color="#ECC777"></stop><stop offset="0.646864" stop-color="#BC8431"></stop><stop offset="0.687052" stop-color="#ECC777"></stop><stop offset="0.81548" stop-color="#FEF7DF"></stop><stop offset="0.895833" stop-color="#ECC777"></stop><stop offset="1" stop-color="#BC8431"></stop></linearGradient><linearGradient id="paint6_linear_2039_154" x1="10.1625" y1="4.22489" x2="10.1625" y2="10.8233" gradientUnits="userSpaceOnUse"><stop stop-color="#BC8431"></stop><stop offset="0.104167" stop-color="#ECC777"></stop><stop offset="0.164558" stop-color="#FEF7DF"></stop><stop offset="0.297169" stop-color="#ECC777"></stop><stop offset="0.331328" stop-color="#BC8431"></stop><stop offset="0.370425" stop-color="#ECC777"></stop><stop offset="0.49793" stop-color="#FEF7DF"></stop><stop offset="0.607315" stop-color="#ECC777"></stop><stop offset="0.646864" stop-color="#BC8431"></stop><stop offset="0.687052" stop-color="#ECC777"></stop><stop offset="0.81548" stop-color="#FEF7DF"></stop><stop offset="0.895833" stop-color="#ECC777"></stop><stop offset="1" stop-color="#BC8431"></stop></linearGradient><linearGradient id="paint7_linear_2039_154" x1="11.9541" y1="1.13175" x2="11.9541" y2="7.73011" gradientUnits="userSpaceOnUse"><stop stop-color="#BC8431"></stop><stop offset="0.104167" stop-color="#ECC777"></stop><stop offset="0.164558" stop-color="#FEF7DF"></stop><stop offset="0.297169" stop-color="#ECC777"></stop><stop offset="0.331328" stop-color="#BC8431"></stop><stop offset="0.370425" stop-color="#ECC777"></stop><stop offset="0.49793" stop-color="#FEF7DF"></stop><stop offset="0.607315" stop-color="#ECC777"></stop><stop offset="0.646864" stop-color="#BC8431"></stop><stop offset="0.687052" stop-color="#ECC777"></stop><stop offset="0.81548" stop-color="#FEF7DF"></stop><stop offset="0.895833" stop-color="#ECC777"></stop><stop offset="1" stop-color="#BC8431"></stop></linearGradient><linearGradient id="paint8_linear_2039_154" x1="11.9559" y1="13.4809" x2="11.9559" y2="20.0752" gradientUnits="userSpaceOnUse"><stop stop-color="#BC8431"></stop><stop offset="0.104167" stop-color="#ECC777"></stop><stop offset="0.164558" stop-color="#FEF7DF"></stop><stop offset="0.297169" stop-color="#ECC777"></stop><stop offset="0.331328" stop-color="#BC8431"></stop><stop offset="0.370425" stop-color="#ECC777"></stop><stop offset="0.49793" stop-color="#FEF7DF"></stop><stop offset="0.607315" stop-color="#ECC777"></stop><stop offset="0.646864" stop-color="#BC8431"></stop><stop offset="0.687052" stop-color="#ECC777"></stop><stop offset="0.81548" stop-color="#FEF7DF"></stop><stop offset="0.895833" stop-color="#ECC777"></stop><stop offset="1" stop-color="#BC8431"></stop></linearGradient><linearGradient id="paint9_linear_2039_154" x1="13.7375" y1="10.3998" x2="13.7375" y2="16.994" gradientUnits="userSpaceOnUse"><stop stop-color="#BC8431"></stop><stop offset="0.104167" stop-color="#ECC777"></stop><stop offset="0.164558" stop-color="#FEF7DF"></stop><stop offset="0.297169" stop-color="#ECC777"></stop><stop offset="0.331328" stop-color="#BC8431"></stop><stop offset="0.370425" stop-color="#ECC777"></stop><stop offset="0.49793" stop-color="#FEF7DF"></stop><stop offset="0.607315" stop-color="#ECC777"></stop><stop offset="0.646864" stop-color="#BC8431"></stop><stop offset="0.687052" stop-color="#ECC777"></stop><stop offset="0.81548" stop-color="#FEF7DF"></stop><stop offset="0.895833" stop-color="#ECC777"></stop><stop offset="1" stop-color="#BC8431"></stop></linearGradient><linearGradient id="paint10_linear_2039_154" x1="15.5292" y1="7.30747" x2="15.5292" y2="13.9017" gradientUnits="userSpaceOnUse"><stop stop-color="#BC8431"></stop><stop offset="0.104167" stop-color="#ECC777"></stop><stop offset="0.164558" stop-color="#FEF7DF"></stop><stop offset="0.297169" stop-color="#ECC777"></stop><stop offset="0.331328" stop-color="#BC8431"></stop><stop offset="0.370425" stop-color="#ECC777"></stop><stop offset="0.49793" stop-color="#FEF7DF"></stop><stop offset="0.607315" stop-color="#ECC777"></stop><stop offset="0.646864" stop-color="#BC8431"></stop><stop offset="0.687052" stop-color="#ECC777"></stop><stop offset="0.81548" stop-color="#FEF7DF"></stop><stop offset="0.895833" stop-color="#ECC777"></stop><stop offset="1" stop-color="#BC8431"></stop></linearGradient></defs></svg>