<svg width="235" height="46" viewBox="0 0 235 46" fill="none" xmlns="http://www.w3.org/2000/svg">
<g opacity="0.999184">
<path fill-rule="evenodd" clip-rule="evenodd" d="M103.137 45.2739C97.8327 35.5654 92.545 25.8656 87.2717 16.1773H87.2063V45.2566H78.6512V0.302756H79.1222H87.625C87.9233 0.271188 88.2073 0.443422 88.3224 0.721898C93.4806 10.0284 98.6453 19.3119 103.815 28.5783C103.881 28.6845 103.95 28.7936 104.008 28.8999H104.087V0.331471H112.631V45.2739L103.137 45.2739ZM224.224 45.2596L211.717 25.5269L211.413 25.8025C210.495 26.6838 209.516 27.5737 208.536 28.4435C208.353 28.6043 208.252 28.8368 208.264 29.0808V44.9094V45.2596H199.766V0.337292H208.264V19.8604L208.605 19.47L210.709 16.895L224.012 0.650191C224.144 0.472235 224.342 0.35455 224.56 0.317166H234.042V0.394694C233.996 0.437799 233.953 0.480811 233.916 0.532492L218.5 19.8604C218.351 20.0211 218.351 20.268 218.5 20.4287L233.769 44.8978C233.841 44.9983 233.921 45.0902 234.013 45.1734V45.2596H224.224ZM173.235 45.2582C161.24 43.9434 152.394 33.4399 153.142 21.3976C153.693 10.4491 162.101 1.5157 172.997 0.301474C185.272 -1.06781 196.333 7.77082 197.702 20.0456C198.509 26.1428 196.735 32.3031 192.811 37.0396C189.055 41.7589 183.529 44.73 177.519 45.2582L173.235 45.2582ZM175.435 7.94862C175.397 7.94862 175.358 7.95149 175.315 7.95149C167.182 8.10941 160.714 14.8295 160.873 22.9619L160.875 22.9964C161.007 31.1748 167.745 37.6968 175.92 37.5619C184.101 37.4299 190.62 30.6868 190.486 22.5113C190.353 14.419 183.753 7.94577 175.685 7.94577C175.604 7.94577 175.517 7.94863 175.435 7.94863L175.435 7.94862ZM128.643 45.2591V0.3368H137.157V36.8223H155.225C155.586 36.8223 155.704 36.9113 155.704 37.2931V44.8572V45.2591H128.643ZM0 45.2584V0.324718H3.00436C7.21387 0.333307 11.4299 0.324718 15.6591 0.382133C18.4776 0.405033 21.2713 0.893113 23.9289 1.82027C30.2608 4.09096 34.4808 8.35952 36.2604 14.8586C37.7194 20.1836 37.633 25.8157 36.017 31.0948C34.7085 35.6849 31.6479 39.5775 27.4907 41.9285C24.4196 43.6481 21.024 44.7016 17.5185 45.0231C16.5515 45.1293 15.5897 45.1982 14.6803 45.2584H0ZM7.58746 37.476H7.92898C10.0933 37.4559 12.2432 37.4559 14.3996 37.4072C16.5979 37.3756 18.7792 36.9708 20.8493 36.213C25.1098 34.7949 28.3327 31.2698 29.3638 26.8949C30.145 23.9526 30.1358 20.8581 29.3324 17.9214C28.4361 14.5858 26.1972 11.7725 23.1457 10.1506C21.1542 9.02538 18.9258 8.38232 16.6385 8.27036C14.0175 8.18138 11.4018 8.18138 8.8096 8.18138H7.58744L7.58746 37.476ZM67.6123 45.2553L67.543 45.04C66.2227 41.6555 64.9115 38.2796 63.6279 34.8924C63.5219 34.5881 63.3753 34.5881 63.128 34.5881H47.5265C47.2963 34.5536 47.079 34.7029 47.0293 34.9297C45.781 38.2452 44.5327 41.5637 43.2804 44.885L43.1548 45.2553H33.6589C33.6981 45.1203 33.7479 44.9912 33.7963 44.8563C38.9715 30.0955 44.1453 15.3377 49.3205 0.577052C49.4265 0.292854 49.5129 0.077528 49.878 0.137798C49.9068 0.146387 50.0036 0.0488134 50.0036 0H60.7714C60.7662 0.0345164 60.7662 0.0718065 60.7714 0.109097C61.2111 0.077528 61.2307 0.430584 61.3288 0.714782L72.3492 31.9271C73.905 36.3707 75.4805 40.803 77.0363 45.2553L67.6123 45.2553ZM49.5927 26.5615H61.1993L55.3292 7.47757C53.428 13.7814 51.5515 20.1628 49.5927 26.5615Z" fill="white"/>
</g>
</svg>
