<svg xmlns="http://www.w3.org/2000/svg" width="142" height="30" viewBox="0 0 142 30" fill="none"><path d="M29.0457 24L21.2957 6.5H23.2957L30.5457 22.975H29.4457L36.7457 6.5H38.6207L30.8707 24H29.0457ZM42.8105 14.325H52.0605V15.9H42.8105V14.325ZM43.0105 22.4H53.5355V24H41.1605V6.5H53.1605V8.1H43.0105V22.4ZM64.4271 24V6.5H65.9521L73.9521 20.15H73.1521L81.0771 6.5H82.6021V24H80.8271V9.275H81.2521L73.9521 21.775H73.0771L65.7271 9.275H66.2021V24H64.4271ZM95.9541 24.15C94.6374 24.15 93.4124 23.9333 92.2791 23.5C91.1624 23.05 90.1874 22.425 89.3541 21.625C88.5374 20.8083 87.8958 19.8667 87.4291 18.8C86.9791 17.7167 86.7541 16.5333 86.7541 15.25C86.7541 13.9667 86.9791 12.7917 87.4291 11.725C87.8958 10.6417 88.5374 9.7 89.3541 8.9C90.1874 8.08333 91.1624 7.45833 92.2791 7.025C93.3958 6.575 94.6208 6.35 95.9541 6.35C97.2708 6.35 98.4874 6.575 99.6041 7.025C100.721 7.45833 101.687 8.075 102.504 8.875C103.337 9.675 103.979 10.6167 104.429 11.7C104.896 12.7833 105.129 13.9667 105.129 15.25C105.129 16.5333 104.896 17.7167 104.429 18.8C103.979 19.8833 103.337 20.825 102.504 21.625C101.687 22.425 100.721 23.05 99.6041 23.5C98.4874 23.9333 97.2708 24.15 95.9541 24.15ZM95.9541 22.5C97.0041 22.5 97.9708 22.325 98.8541 21.975C99.7541 21.6083 100.529 21.1 101.179 20.45C101.846 19.7833 102.362 19.0167 102.729 18.15C103.096 17.2667 103.279 16.3 103.279 15.25C103.279 14.2 103.096 13.2417 102.729 12.375C102.362 11.4917 101.846 10.725 101.179 10.075C100.529 9.40833 99.7541 8.9 98.8541 8.55C97.9708 8.18333 97.0041 8 95.9541 8C94.9041 8 93.9291 8.18333 93.0291 8.55C92.1291 8.9 91.3458 9.40833 90.6791 10.075C90.0291 10.725 89.5124 11.4917 89.1291 12.375C88.7624 13.2417 88.5791 14.2 88.5791 15.25C88.5791 16.2833 88.7624 17.2417 89.1291 18.125C89.5124 19.0083 90.0291 19.7833 90.6791 20.45C91.3458 21.1 92.1291 21.6083 93.0291 21.975C93.9291 22.325 94.9041 22.5 95.9541 22.5ZM109.276 24V6.5H115.826C117.309 6.5 118.584 6.74167 119.651 7.225C120.717 7.69167 121.534 8.375 122.101 9.275C122.684 10.1583 122.976 11.2333 122.976 12.5C122.976 13.7333 122.684 14.8 122.101 15.7C121.534 16.5833 120.717 17.2667 119.651 17.75C118.584 18.2167 117.309 18.45 115.826 18.45H110.301L111.126 17.6V24H109.276ZM121.226 24L116.726 17.65H118.726L123.251 24H121.226ZM111.126 17.75L110.301 16.875H115.776C117.526 16.875 118.851 16.4917 119.751 15.725C120.667 14.9583 121.126 13.8833 121.126 12.5C121.126 11.1 120.667 10.0167 119.751 9.25C118.851 8.48333 117.526 8.1 115.776 8.1H110.301L111.126 7.225V17.75ZM128.992 14.325H138.242V15.9H128.992V14.325ZM129.192 22.4H139.717V24H127.342V6.5H139.342V8.1H129.192V22.4Z" fill="black"></path><path d="M29.0457 24L21.2957 6.5H23.2957L30.5457 22.975H29.4457L36.7457 6.5H38.6207L30.8707 24H29.0457ZM42.8105 14.325H52.0605V15.9H42.8105V14.325ZM43.0105 22.4H53.5355V24H41.1605V6.5H53.1605V8.1H43.0105V22.4ZM64.4271 24V6.5H65.9521L73.9521 20.15H73.1521L81.0771 6.5H82.6021V24H80.8271V9.275H81.2521L73.9521 21.775H73.0771L65.7271 9.275H66.2021V24H64.4271ZM95.9541 24.15C94.6374 24.15 93.4124 23.9333 92.2791 23.5C91.1624 23.05 90.1874 22.425 89.3541 21.625C88.5374 20.8083 87.8958 19.8667 87.4291 18.8C86.9791 17.7167 86.7541 16.5333 86.7541 15.25C86.7541 13.9667 86.9791 12.7917 87.4291 11.725C87.8958 10.6417 88.5374 9.7 89.3541 8.9C90.1874 8.08333 91.1624 7.45833 92.2791 7.025C93.3958 6.575 94.6208 6.35 95.9541 6.35C97.2708 6.35 98.4874 6.575 99.6041 7.025C100.721 7.45833 101.687 8.075 102.504 8.875C103.337 9.675 103.979 10.6167 104.429 11.7C104.896 12.7833 105.129 13.9667 105.129 15.25C105.129 16.5333 104.896 17.7167 104.429 18.8C103.979 19.8833 103.337 20.825 102.504 21.625C101.687 22.425 100.721 23.05 99.6041 23.5C98.4874 23.9333 97.2708 24.15 95.9541 24.15ZM95.9541 22.5C97.0041 22.5 97.9708 22.325 98.8541 21.975C99.7541 21.6083 100.529 21.1 101.179 20.45C101.846 19.7833 102.362 19.0167 102.729 18.15C103.096 17.2667 103.279 16.3 103.279 15.25C103.279 14.2 103.096 13.2417 102.729 12.375C102.362 11.4917 101.846 10.725 101.179 10.075C100.529 9.40833 99.7541 8.9 98.8541 8.55C97.9708 8.18333 97.0041 8 95.9541 8C94.9041 8 93.9291 8.18333 93.0291 8.55C92.1291 8.9 91.3458 9.40833 90.6791 10.075C90.0291 10.725 89.5124 11.4917 89.1291 12.375C88.7624 13.2417 88.5791 14.2 88.5791 15.25C88.5791 16.2833 88.7624 17.2417 89.1291 18.125C89.5124 19.0083 90.0291 19.7833 90.6791 20.45C91.3458 21.1 92.1291 21.6083 93.0291 21.975C93.9291 22.325 94.9041 22.5 95.9541 22.5ZM109.276 24V6.5H115.826C117.309 6.5 118.584 6.74167 119.651 7.225C120.717 7.69167 121.534 8.375 122.101 9.275C122.684 10.1583 122.976 11.2333 122.976 12.5C122.976 13.7333 122.684 14.8 122.101 15.7C121.534 16.5833 120.717 17.2667 119.651 17.75C118.584 18.2167 117.309 18.45 115.826 18.45H110.301L111.126 17.6V24H109.276ZM121.226 24L116.726 17.65H118.726L123.251 24H121.226ZM111.126 17.75L110.301 16.875H115.776C117.526 16.875 118.851 16.4917 119.751 15.725C120.667 14.9583 121.126 13.8833 121.126 12.5C121.126 11.1 120.667 10.0167 119.751 9.25C118.851 8.48333 117.526 8.1 115.776 8.1H110.301L111.126 7.225V17.75ZM128.992 14.325H138.242V15.9H128.992V14.325ZM129.192 22.4H139.717V24H127.342V6.5H139.342V8.1H129.192V22.4Z" fill="url(#paint0_linear_1802_94)"></path><path d="M14.3235 15.1334C13.8596 15.1334 13.4834 15.5037 13.4834 15.9605V17.8839H11.5297C11.0657 17.8839 10.6896 18.2542 10.6896 18.711C10.6896 19.1678 11.0657 19.5381 11.5297 19.5381H13.4834V21.4615C13.4834 21.9182 13.8596 22.2885 14.3235 22.2885C14.7875 22.2885 15.1637 21.9182 15.1637 21.4615V19.5381H17.1174C17.5814 19.5381 17.9575 19.1678 17.9575 18.711C17.9575 18.2542 17.5814 17.8839 17.1174 17.8839H15.1637V15.9605C15.1637 15.5037 14.7875 15.1334 14.3235 15.1334Z" fill="black"></path><path d="M14.3235 15.1334C13.8596 15.1334 13.4834 15.5037 13.4834 15.9605V17.8839H11.5297C11.0657 17.8839 10.6896 18.2542 10.6896 18.711C10.6896 19.1678 11.0657 19.5381 11.5297 19.5381H13.4834V21.4615C13.4834 21.9182 13.8596 22.2885 14.3235 22.2885C14.7875 22.2885 15.1637 21.9182 15.1637 21.4615V19.5381H17.1174C17.5814 19.5381 17.9575 19.1678 17.9575 18.711C17.9575 18.2542 17.5814 17.8839 17.1174 17.8839H15.1637V15.9605C15.1637 15.5037 14.7875 15.1334 14.3235 15.1334Z" fill="url(#paint1_linear_1802_94)"></path><path d="M9.8506 23.792C9.96916 23.8406 10.0962 23.8656 10.2246 23.8657C10.4835 23.8661 10.732 23.7652 10.9155 23.5853L12.3538 22.1689C12.5357 21.9882 12.6374 21.744 12.6368 21.4897C12.6362 21.2354 12.5333 20.9916 12.3506 20.8118C12.1679 20.632 11.9203 20.5308 11.6619 20.5302C11.4036 20.5297 11.1556 20.63 10.9721 20.809L10.2246 21.5449L3.18726 14.618C2.53646 13.9771 2.1709 13.1079 2.17105 12.2016C2.1712 11.2954 2.53703 10.4263 3.18806 9.7856C3.83905 9.14489 4.72197 8.78502 5.64248 8.78517C6.09829 8.78524 6.54963 8.87369 6.97067 9.04549C7.39176 9.21726 7.77434 9.46903 8.09659 9.78637L9.53377 11.2008C9.62447 11.2902 9.73219 11.361 9.85071 11.4094C9.96927 11.4577 10.0963 11.4826 10.2246 11.4826C10.3529 11.4826 10.48 11.4577 10.5985 11.4094C10.717 11.361 10.8248 11.2902 10.9155 11.2008L12.3448 9.79368C12.9957 9.15276 13.8785 8.79264 14.7991 8.79253C15.7196 8.79242 16.6025 9.15234 17.2536 9.7931C17.9046 10.4339 18.2704 11.303 18.2705 12.2093C18.2706 13.1155 17.905 13.9848 17.2541 14.6257L16.6693 15.2012C16.2828 15.5815 16.2882 16.1999 16.6812 16.5736C17.0647 16.9382 17.6741 16.933 18.0511 16.5619L18.6347 15.9874C20.7494 13.9052 20.7494 10.5173 18.6347 8.43499C17.6173 7.4335 16.2376 6.87087 14.7989 6.87087C13.3602 6.87087 11.9804 7.4335 10.9631 8.43499L10.2246 9.16204L9.47828 8.42729C7.36318 6.34539 3.92147 6.34501 1.80675 8.42729C-0.307978 10.5096 -0.307978 13.8975 1.80675 15.9797L9.53377 23.583C9.62439 23.6725 9.73208 23.7435 9.8506 23.792Z" fill="black"></path><path d="M9.8506 23.792C9.96916 23.8406 10.0962 23.8656 10.2246 23.8657C10.4835 23.8661 10.732 23.7652 10.9155 23.5853L12.3538 22.1689C12.5357 21.9882 12.6374 21.744 12.6368 21.4897C12.6362 21.2354 12.5333 20.9916 12.3506 20.8118C12.1679 20.632 11.9203 20.5308 11.6619 20.5302C11.4036 20.5297 11.1556 20.63 10.9721 20.809L10.2246 21.5449L3.18726 14.618C2.53646 13.9771 2.1709 13.1079 2.17105 12.2016C2.1712 11.2954 2.53703 10.4263 3.18806 9.7856C3.83905 9.14489 4.72197 8.78502 5.64248 8.78517C6.09829 8.78524 6.54963 8.87369 6.97067 9.04549C7.39176 9.21726 7.77434 9.46903 8.09659 9.78637L9.53377 11.2008C9.62447 11.2902 9.73219 11.361 9.85071 11.4094C9.96927 11.4577 10.0963 11.4826 10.2246 11.4826C10.3529 11.4826 10.48 11.4577 10.5985 11.4094C10.717 11.361 10.8248 11.2902 10.9155 11.2008L12.3448 9.79368C12.9957 9.15276 13.8785 8.79264 14.7991 8.79253C15.7196 8.79242 16.6025 9.15234 17.2536 9.7931C17.9046 10.4339 18.2704 11.303 18.2705 12.2093C18.2706 13.1155 17.905 13.9848 17.2541 14.6257L16.6693 15.2012C16.2828 15.5815 16.2882 16.1999 16.6812 16.5736C17.0647 16.9382 17.6741 16.933 18.0511 16.5619L18.6347 15.9874C20.7494 13.9052 20.7494 10.5173 18.6347 8.43499C17.6173 7.4335 16.2376 6.87087 14.7989 6.87087C13.3602 6.87087 11.9804 7.4335 10.9631 8.43499L10.2246 9.16204L9.47828 8.42729C7.36318 6.34539 3.92147 6.34501 1.80675 8.42729C-0.307978 10.5096 -0.307978 13.8975 1.80675 15.9797L9.53377 23.583C9.62439 23.6725 9.73208 23.7435 9.8506 23.792Z" fill="url(#paint2_linear_1802_94)"></path><defs><linearGradient id="paint0_linear_1802_94" x1="81.2207" y1="0" x2="81.2207" y2="30" gradientUnits="userSpaceOnUse"><stop stop-color="#CB9846"></stop><stop offset="0.25" stop-color="#DFB464"></stop><stop offset="0.5" stop-color="#FFEDB7"></stop><stop offset="0.75" stop-color="#EFCF88"></stop><stop offset="1" stop-color="#C89646"></stop></linearGradient><linearGradient id="paint1_linear_1802_94" x1="10.2207" y1="6.86572" x2="10.2207" y2="23.8657" gradientUnits="userSpaceOnUse"><stop stop-color="#CB9846"></stop><stop offset="0.25" stop-color="#DFB464"></stop><stop offset="0.5" stop-color="#FFEDB7"></stop><stop offset="0.75" stop-color="#EFCF88"></stop><stop offset="1" stop-color="#C89646"></stop></linearGradient><linearGradient id="paint2_linear_1802_94" x1="10.2207" y1="6.86572" x2="10.2207" y2="23.8657" gradientUnits="userSpaceOnUse"><stop stop-color="#CB9846"></stop><stop offset="0.25" stop-color="#DFB464"></stop><stop offset="0.5" stop-color="#FFEDB7"></stop><stop offset="0.75" stop-color="#EFCF88"></stop><stop offset="1" stop-color="#C89646"></stop></linearGradient></defs></svg>