<svg xmlns="http://www.w3.org/2000/svg" width="168" height="19" viewBox="0 0 168 19" fill="none"><path d="M37.0308 18H39.2308L31.1308 8.425L38.7058 0.499999H36.5808L26.3058 11.075V0.499999H24.4558V18H26.3058V13.4L29.8808 9.775L37.0308 18Z" fill="black"></path><path d="M37.0308 18H39.2308L31.1308 8.425L38.7058 0.499999H36.5808L26.3058 11.075V0.499999H24.4558V18H26.3058V13.4L29.8808 9.775L37.0308 18Z" fill="url(#paint0_linear_1802_91)"></path><path d="M44.0792 16.4V9.9H53.1292V8.325H44.0792V2.1H54.2292V0.499999H42.2292V18H54.6042V16.4H44.0792Z" fill="black"></path><path d="M44.0792 16.4V9.9H53.1292V8.325H44.0792V2.1H54.2292V0.499999H42.2292V18H54.6042V16.4H44.0792Z" fill="url(#paint1_linear_1802_91)"></path><path d="M58.9528 18H66.0778C71.6778 18 75.4528 14.4 75.4528 9.25C75.4528 4.1 71.6778 0.499999 66.0778 0.499999H58.9528V18ZM60.8028 16.4V2.1H65.9778C70.6278 2.1 73.6278 5.05 73.6278 9.25C73.6278 13.45 70.6278 16.4 65.9778 16.4H60.8028Z" fill="black"></path><path d="M58.9528 18H66.0778C71.6778 18 75.4528 14.4 75.4528 9.25C75.4528 4.1 71.6778 0.499999 66.0778 0.499999H58.9528V18ZM60.8028 16.4V2.1H65.9778C70.6278 2.1 73.6278 5.05 73.6278 9.25C73.6278 13.45 70.6278 16.4 65.9778 16.4H60.8028Z" fill="url(#paint2_linear_1802_91)"></path><path d="M89.5501 18H91.4001V2.1H97.5501V0.499999H83.4001V2.1H89.5501V18Z" fill="black"></path><path d="M89.5501 18H91.4001V2.1H97.5501V0.499999H83.4001V2.1H89.5501V18Z" fill="url(#paint3_linear_1802_91)"></path><path d="M114.481 18L110.206 12C112.756 11.175 114.206 9.25 114.206 6.5C114.206 2.75 111.506 0.499999 107.056 0.499999H100.506V18H102.356V12.45H107.056C107.556 12.45 108.006 12.425 108.456 12.375L112.456 18H114.481ZM107.006 10.875H102.356V2.1H107.006C110.506 2.1 112.356 3.7 112.356 6.5C112.356 9.25 110.506 10.875 107.006 10.875Z" fill="black"></path><path d="M114.481 18L110.206 12C112.756 11.175 114.206 9.25 114.206 6.5C114.206 2.75 111.506 0.499999 107.056 0.499999H100.506V18H102.356V12.45H107.056C107.556 12.45 108.006 12.425 108.456 12.375L112.456 18H114.481ZM107.006 10.875H102.356V2.1H107.006C110.506 2.1 112.356 3.7 112.356 6.5C112.356 9.25 110.506 10.875 107.006 10.875Z" fill="url(#paint4_linear_1802_91)"></path><path d="M125.622 18.15C130.097 18.15 132.797 15.55 132.797 10.525V0.499999H130.997V10.45C130.997 14.6 129.047 16.5 125.622 16.5C122.222 16.5 120.272 14.6 120.272 10.45V0.499999H118.422V10.525C118.422 15.55 121.147 18.15 125.622 18.15Z" fill="black"></path><path d="M125.622 18.15C130.097 18.15 132.797 15.55 132.797 10.525V0.499999H130.997V10.45C130.997 14.6 129.047 16.5 125.622 16.5C122.222 16.5 120.272 14.6 120.272 10.45V0.499999H118.422V10.525C118.422 15.55 121.147 18.15 125.622 18.15Z" fill="url(#paint5_linear_1802_91)"></path><path d="M141.43 18H143.28V2.1H149.43V0.499999H135.28V2.1H141.43V18Z" fill="black"></path><path d="M141.43 18H143.28V2.1H149.43V0.499999H135.28V2.1H141.43V18Z" fill="url(#paint6_linear_1802_91)"></path><path d="M165.185 0.499999V8.3H154.235V0.499999H152.385V18H154.235V9.925H165.185V18H167.01V0.499999H165.185Z" fill="black"></path><path d="M165.185 0.499999V8.3H154.235V0.499999H152.385V18H154.235V9.925H165.185V18H167.01V0.499999H165.185Z" fill="url(#paint7_linear_1802_91)"></path><path fill-rule="evenodd" clip-rule="evenodd" d="M20.9733 17.0876L11.218 0.395907C10.9624 -0.0414741 10.3211 -0.0414741 10.0655 0.395907L0.310188 17.0876C0.0553223 17.5237 0.37523 18.0679 0.886477 18.0679H20.397C20.9083 18.0679 21.2282 17.5237 20.9733 17.0876ZM4.41469 12.7932C4.75145 13.1108 5.20757 13.5078 5.7577 13.9059C7.38486 15.0836 9.07193 15.7101 10.6368 15.7101C13.3996 15.7101 15.7734 13.8289 16.8701 12.7954L19.1566 16.7077H2.12689L4.41469 12.7932ZM10.6709 9.01576C11.1072 9.01576 11.4622 9.36512 11.4622 9.79441C11.4622 10.2237 11.1072 10.5731 10.6709 10.5731C10.2345 10.5731 9.87949 10.2237 9.87949 9.79441C9.87949 9.36512 10.2345 9.01576 10.6709 9.01576ZM8.56751 9.85686C8.59103 10.6325 9.0498 11.3026 9.71132 11.6375C9.07806 11.3169 8.63061 10.6892 8.57289 9.95569C8.57032 9.92295 8.56852 9.89 8.56751 9.85686ZM7.96033 11.6414C7.96033 11.0375 8.1658 10.4803 8.51121 10.0327C8.63202 11.1003 9.55403 11.9333 10.6709 11.9333C11.7877 11.9333 12.7097 11.1003 12.8305 10.0327C13.1759 10.4803 13.3814 11.0375 13.3814 11.6414C13.3814 13.112 12.1654 14.3085 10.6709 14.3085C9.17633 14.3085 7.96033 13.112 7.96033 11.6414ZM14.7637 11.6414C14.7637 11.2003 14.6912 10.7754 14.5573 10.3778C15.2219 10.842 15.7522 11.3198 16.0851 11.6447C15.7516 11.9701 15.2203 12.4487 14.5545 12.9135C14.6902 12.5134 14.7637 12.0856 14.7637 11.6414ZM6.90145 10.2553C6.73695 10.6869 6.64671 11.1539 6.64671 11.6414C6.64672 11.1118 6.75323 10.6063 6.94577 10.1441C6.93045 10.1809 6.91567 10.218 6.90145 10.2553ZM6.57794 11.6414C6.57794 12.1067 6.65879 12.5538 6.80712 12.97C6.10481 12.4877 5.5456 11.983 5.20032 11.6447C5.54517 11.3068 6.10324 10.8031 6.80401 10.3215C6.65768 10.7352 6.57794 11.1793 6.57794 11.6414ZM6.9463 8.70072C6.87538 8.74019 6.80536 8.78024 6.73627 8.82077C6.69539 8.84475 6.65483 8.8689 6.61461 8.8932C6.72279 8.82785 6.83341 8.76355 6.9463 8.70072ZM10.6369 7.57924C11.8717 7.57924 13.184 7.96972 14.4841 8.71269L10.6418 2.1383L6.80565 8.70207C7.89643 8.07842 9.21365 7.57924 10.6369 7.57924Z" fill="black"></path><path fill-rule="evenodd" clip-rule="evenodd" d="M20.9733 17.0876L11.218 0.395907C10.9624 -0.0414741 10.3211 -0.0414741 10.0655 0.395907L0.310188 17.0876C0.0553223 17.5237 0.37523 18.0679 0.886477 18.0679H20.397C20.9083 18.0679 21.2282 17.5237 20.9733 17.0876ZM4.41469 12.7932C4.75145 13.1108 5.20757 13.5078 5.7577 13.9059C7.38486 15.0836 9.07193 15.7101 10.6368 15.7101C13.3996 15.7101 15.7734 13.8289 16.8701 12.7954L19.1566 16.7077H2.12689L4.41469 12.7932ZM10.6709 9.01576C11.1072 9.01576 11.4622 9.36512 11.4622 9.79441C11.4622 10.2237 11.1072 10.5731 10.6709 10.5731C10.2345 10.5731 9.87949 10.2237 9.87949 9.79441C9.87949 9.36512 10.2345 9.01576 10.6709 9.01576ZM8.56751 9.85686C8.59103 10.6325 9.0498 11.3026 9.71132 11.6375C9.07806 11.3169 8.63061 10.6892 8.57289 9.95569C8.57032 9.92295 8.56852 9.89 8.56751 9.85686ZM7.96033 11.6414C7.96033 11.0375 8.1658 10.4803 8.51121 10.0327C8.63202 11.1003 9.55403 11.9333 10.6709 11.9333C11.7877 11.9333 12.7097 11.1003 12.8305 10.0327C13.1759 10.4803 13.3814 11.0375 13.3814 11.6414C13.3814 13.112 12.1654 14.3085 10.6709 14.3085C9.17633 14.3085 7.96033 13.112 7.96033 11.6414ZM14.7637 11.6414C14.7637 11.2003 14.6912 10.7754 14.5573 10.3778C15.2219 10.842 15.7522 11.3198 16.0851 11.6447C15.7516 11.9701 15.2203 12.4487 14.5545 12.9135C14.6902 12.5134 14.7637 12.0856 14.7637 11.6414ZM6.90145 10.2553C6.73695 10.6869 6.64671 11.1539 6.64671 11.6414C6.64672 11.1118 6.75323 10.6063 6.94577 10.1441C6.93045 10.1809 6.91567 10.218 6.90145 10.2553ZM6.57794 11.6414C6.57794 12.1067 6.65879 12.5538 6.80712 12.97C6.10481 12.4877 5.5456 11.983 5.20032 11.6447C5.54517 11.3068 6.10324 10.8031 6.80401 10.3215C6.65768 10.7352 6.57794 11.1793 6.57794 11.6414ZM6.9463 8.70072C6.87538 8.74019 6.80536 8.78024 6.73627 8.82077C6.69539 8.84475 6.65483 8.8689 6.61461 8.8932C6.72279 8.82785 6.83341 8.76355 6.9463 8.70072ZM10.6369 7.57924C11.8717 7.57924 13.184 7.96972 14.4841 8.71269L10.6418 2.1383L6.80565 8.70207C7.89643 8.07842 9.21365 7.57924 10.6369 7.57924Z" fill="url(#paint8_linear_1802_91)"></path><defs><linearGradient id="paint0_linear_1802_91" x1="83.6156" y1="0.0678711" x2="83.6156" y2="18.15" gradientUnits="userSpaceOnUse"><stop stop-color="#CB9846"></stop><stop offset="0.25" stop-color="#DFB464"></stop><stop offset="0.5" stop-color="#FFEDB7"></stop><stop offset="0.75" stop-color="#EFCF88"></stop><stop offset="1" stop-color="#C89646"></stop></linearGradient><linearGradient id="paint1_linear_1802_91" x1="83.6156" y1="0.0678711" x2="83.6156" y2="18.15" gradientUnits="userSpaceOnUse"><stop stop-color="#CB9846"></stop><stop offset="0.25" stop-color="#DFB464"></stop><stop offset="0.5" stop-color="#FFEDB7"></stop><stop offset="0.75" stop-color="#EFCF88"></stop><stop offset="1" stop-color="#C89646"></stop></linearGradient><linearGradient id="paint2_linear_1802_91" x1="83.6156" y1="0.0678711" x2="83.6156" y2="18.15" gradientUnits="userSpaceOnUse"><stop stop-color="#CB9846"></stop><stop offset="0.25" stop-color="#DFB464"></stop><stop offset="0.5" stop-color="#FFEDB7"></stop><stop offset="0.75" stop-color="#EFCF88"></stop><stop offset="1" stop-color="#C89646"></stop></linearGradient><linearGradient id="paint3_linear_1802_91" x1="83.6156" y1="0.0678711" x2="83.6156" y2="18.15" gradientUnits="userSpaceOnUse"><stop stop-color="#CB9846"></stop><stop offset="0.25" stop-color="#DFB464"></stop><stop offset="0.5" stop-color="#FFEDB7"></stop><stop offset="0.75" stop-color="#EFCF88"></stop><stop offset="1" stop-color="#C89646"></stop></linearGradient><linearGradient id="paint4_linear_1802_91" x1="83.6156" y1="0.0678711" x2="83.6156" y2="18.15" gradientUnits="userSpaceOnUse"><stop stop-color="#CB9846"></stop><stop offset="0.25" stop-color="#DFB464"></stop><stop offset="0.5" stop-color="#FFEDB7"></stop><stop offset="0.75" stop-color="#EFCF88"></stop><stop offset="1" stop-color="#C89646"></stop></linearGradient><linearGradient id="paint5_linear_1802_91" x1="83.6156" y1="0.0678711" x2="83.6156" y2="18.15" gradientUnits="userSpaceOnUse"><stop stop-color="#CB9846"></stop><stop offset="0.25" stop-color="#DFB464"></stop><stop offset="0.5" stop-color="#FFEDB7"></stop><stop offset="0.75" stop-color="#EFCF88"></stop><stop offset="1" stop-color="#C89646"></stop></linearGradient><linearGradient id="paint6_linear_1802_91" x1="83.6156" y1="0.0678711" x2="83.6156" y2="18.15" gradientUnits="userSpaceOnUse"><stop stop-color="#CB9846"></stop><stop offset="0.25" stop-color="#DFB464"></stop><stop offset="0.5" stop-color="#FFEDB7"></stop><stop offset="0.75" stop-color="#EFCF88"></stop><stop offset="1" stop-color="#C89646"></stop></linearGradient><linearGradient id="paint7_linear_1802_91" x1="83.6156" y1="0.0678711" x2="83.6156" y2="18.15" gradientUnits="userSpaceOnUse"><stop stop-color="#CB9846"></stop><stop offset="0.25" stop-color="#DFB464"></stop><stop offset="0.5" stop-color="#FFEDB7"></stop><stop offset="0.75" stop-color="#EFCF88"></stop><stop offset="1" stop-color="#C89646"></stop></linearGradient><linearGradient id="paint8_linear_1802_91" x1="10.6418" y1="0.0678711" x2="10.6418" y2="18.0679" gradientUnits="userSpaceOnUse"><stop stop-color="#CB9846"></stop><stop offset="0.25" stop-color="#DFB464"></stop><stop offset="0.5" stop-color="#FFEDB7"></stop><stop offset="0.75" stop-color="#EFCF88"></stop><stop offset="1" stop-color="#C89646"></stop></linearGradient></defs></svg>