<svg width="187" height="64" viewBox="0 0 187 64" fill="none" xmlns="http://www.w3.org/2000/svg">
<path d="M0.00295893 13.6046H45.8615C45.8698 13.7916 45.8844 13.9735 45.8844 14.1553C45.8854 22.9397 45.9374 31.724 45.8677 40.5073C45.8189 46.6493 43.9652 52.1689 39.6614 56.7044C36.5452 59.9879 32.7162 62.037 28.3022 62.9628C23.0309 64.0694 17.8605 63.7026 12.9155 61.4987C7.06867 58.8938 3.26462 54.4153 1.26232 48.3794C0.422745 45.8523 0.0133497 43.2442 0.00815431 40.5842C-0.00639275 31.8352 0.00295893 23.0862 0.00295893 14.3361V13.6046ZM2.03227 15.6422V16.3654C2.03227 24.2489 1.99902 32.1334 2.05721 40.0169C2.07072 41.8186 2.22866 43.6547 2.61 45.4128C4.04912 52.0411 7.73991 56.9684 14.0326 59.7365C18.4611 61.6847 23.0954 61.9622 27.8076 61.0072C31.7218 60.2144 35.1476 58.4459 37.9365 55.576C41.9172 51.48 43.7522 46.4591 43.8125 40.8294C43.9018 32.6176 43.8353 24.4048 43.8343 16.193C43.8343 16.0111 43.8176 15.8303 43.8083 15.6433H2.03123L2.03227 15.6422Z" fill="white"/>
<path d="M14.5261 11.1169C15.0976 10.7834 15.6691 10.4488 16.2957 10.0831C15.0914 6.86609 13.8912 3.66054 12.6392 0.315757C14.7745 1.54602 16.7965 2.70979 18.8674 3.90265C20.2088 2.61523 21.5513 1.32678 22.9343 -0.00012207C24.3007 1.31119 25.6421 2.59861 27.0054 3.9068C29.0576 2.72433 31.089 1.55433 33.2451 0.31264C31.9982 3.63768 30.796 6.84011 29.5834 10.0737C30.1839 10.4301 30.7679 10.7761 31.4755 11.1949H14.5583C14.5479 11.1679 14.5365 11.1419 14.5261 11.1149V11.1169ZM20.4821 9.50326C20.4956 9.53859 20.5102 9.57496 20.5237 9.61029C20.5912 9.6186 20.6598 9.63315 20.7273 9.63315C23.0455 9.63419 25.3637 9.63003 27.6829 9.64146C27.9801 9.6425 28.1016 9.52716 28.1993 9.2622C28.7895 7.65994 29.3994 6.06392 29.999 4.46479C30.0509 4.32659 30.08 4.18112 30.1517 3.92447C26.862 5.82182 23.6721 7.66202 20.4831 9.50222L20.4821 9.50326ZM17.6922 9.28194C18.9214 8.57121 20.1018 7.88958 21.3497 7.16742C19.4493 6.07224 17.6402 5.03004 15.8312 3.98785C15.8 4.01694 15.7689 4.045 15.7377 4.07409C16.3819 5.78961 17.0251 7.50408 17.6922 9.2809V9.28194ZM20.4717 4.82638C21.1637 5.22747 21.9617 5.69505 22.7681 6.14809C22.8553 6.19692 23.0174 6.20004 23.1037 6.15224C23.9079 5.70129 24.7039 5.2337 25.399 4.83054C24.5864 3.93694 23.7936 3.06307 22.926 2.10816C22.0667 3.05892 21.276 3.93486 20.4717 4.82638Z" fill="white"/>
<path d="M4.87155 18.5652H40.9898C41.0002 18.7418 41.0158 18.8925 41.0158 19.0442C41.0127 26.3053 41.0896 33.5674 40.9763 40.8274C40.8973 45.8731 39.1434 50.2902 35.2468 53.6859C32.7967 55.8202 29.9112 57.0557 26.7233 57.57C22.6449 58.2288 18.6372 57.9804 14.8332 56.2545C9.43517 53.8065 6.29613 49.5535 5.21133 43.7815C4.97027 42.5003 4.89337 41.1734 4.88714 39.8662C4.85597 33.0031 4.87259 26.139 4.87259 19.2759V18.5662L4.87155 18.5652ZM24.1651 46.7408V45.9656C24.1651 37.839 24.1651 29.7124 24.1651 21.5858C24.1651 21.4133 24.1911 21.2325 24.1485 21.0704C24.1225 20.9696 23.9926 20.8231 23.9074 20.8221C23.0647 20.8034 22.222 20.8106 21.3025 20.8106V46.7293H9.72092V20.609H6.9362C6.92685 20.7722 6.91438 20.8917 6.91438 21.0112C6.91438 27.5812 6.88113 34.1524 6.92684 40.7224C6.9497 44.0132 7.89007 47.0514 9.81132 49.7624C10.0493 50.0991 10.3049 50.2134 10.7091 50.2123C16.8365 50.1998 22.965 50.204 29.0924 50.204C31.1872 50.204 33.282 50.2123 35.3757 50.1905C35.5949 50.1884 35.8963 50.0648 36.0189 49.8964C37.7697 47.4837 38.813 44.7748 38.8462 41.8031C38.9221 34.9223 38.8701 28.0395 38.8701 21.1587V20.607H36.021V46.7408H24.1651ZM26.2152 44.7405H33.9407V20.607H26.2152V44.7405ZM19.2731 44.754V20.608H11.798V44.754H19.2742H19.2731ZM33.7028 52.2884H12.2656C17.7363 57.2032 28.6601 56.8967 33.7038 52.2884H33.7028Z" fill="white"/>
<path d="M43.5287 63.5676C42.2506 63.5354 41.2386 62.4714 41.2708 61.1934C41.303 59.9153 42.367 58.9032 43.6451 58.9354C44.9345 58.9677 45.9352 60.0202 45.903 61.3097C45.8708 62.5992 44.8171 63.5999 43.5287 63.5676ZM43.6367 59.2856C42.5447 59.2576 41.648 60.1096 41.6209 61.2027C41.5939 62.2958 42.4449 63.1915 43.538 63.2185C44.6311 63.2455 45.5268 62.3831 45.5538 61.3014C45.5819 60.2093 44.7184 59.3126 43.6367 59.2856ZM44.1875 62.6003L43.5256 61.5342L43.0663 61.5227L43.0393 62.5712L42.6683 62.5618L42.7359 59.907L43.8175 59.934C44.2654 59.9454 44.6727 60.2727 44.6602 60.7642C44.6457 61.3544 44.1158 61.5373 43.963 61.5342L44.6467 62.6117L44.1875 62.6003ZM43.8092 60.2623L43.0995 60.2447L43.0756 61.184L43.7853 61.2017C44.015 61.2079 44.2706 61.0281 44.2779 60.7549C44.2851 60.4598 44.0389 60.2675 43.8092 60.2623Z" fill="white"/>
<path d="M65.1411 4.6781H66.5828V58.7408C66.542 58.7734 66.528 58.7945 66.5116 58.7968C65.154 58.9952 65.1411 58.9859 65.1411 57.6493V4.6781Z" fill="white"/>
<path d="M95.5103 22.9509C95.1539 24.2746 93.2023 25.2589 90.8095 25.3438H89.7573V20.3714C92.2689 20.4733 93.1175 20.6599 93.2023 21.1012H93.3381L92.9308 18.7932H92.795C92.8799 19.3023 92.1162 19.4381 89.7573 19.5229V15.0258H90.2664C92.6593 15.1106 94.4921 15.7894 94.6787 16.6719H94.8145L94.2545 14.2451H86.499V14.3809C86.9742 14.3809 87.1609 15.3652 87.2627 18.4538V21.9157C87.1609 25.0044 86.9742 25.9886 86.499 25.9886V26.1244H94.7975L95.6461 22.9509H95.5103Z" fill="white"/>
<path d="M106.526 22.9509C106.17 24.2746 104.218 25.2589 101.826 25.3438H101.113V18.4538C101.113 15.3652 101.3 14.3809 101.877 14.3809V14.2451H97.8546V14.3809C98.3298 14.3809 98.5164 15.3652 98.6183 18.4538V21.9157C98.5164 25.0044 98.3298 25.9886 97.8546 25.9886V26.1244H105.814L106.662 22.9509H106.526Z" fill="white"/>
<path d="M112.718 14.3809V14.2451H108.696V14.3809C109.172 14.3809 109.358 15.3652 109.46 18.4538V21.9157C109.358 25.0044 109.172 25.9886 108.696 25.9886V26.1244H112.718V25.9886C112.141 25.9886 111.955 25.0044 111.955 21.9157V18.4538C111.955 15.3652 112.141 14.3809 112.718 14.3809Z" fill="white"/>
<path d="M119.157 26.2941C121.244 26.2941 123.722 25.0722 123.722 22.934C123.722 20.5921 121.77 19.4211 119.547 18.7084C118.037 18.2332 116.9 17.9107 116.9 16.8246C116.9 15.6707 117.714 14.8561 118.885 14.8561C120.65 14.8561 122.568 16.2307 122.805 17.8259H122.941L122.924 15.3822C121.94 14.6015 120.429 14.0754 118.885 14.0754C116.95 14.0754 114.846 15.3652 114.846 17.4865C114.846 19.3363 116 20.4393 117.816 21.0842C119.632 21.7291 121.244 22.2891 121.244 23.8164C121.244 24.8177 120.446 25.5135 119.123 25.5135C117.358 25.5135 115.203 23.8334 114.897 21.6782H114.761L114.778 24.9704C115.763 25.7511 117.561 26.2941 119.157 26.2941Z" fill="white"/>
<path d="M135.022 21.9157L131.933 14.2451H130.983L127.657 22.4927C126.571 25.1231 126.028 25.9886 125.587 25.9886V26.1244H128.081V25.9886C127.674 25.9886 127.64 25.4795 128.064 24.071H132.935C133.376 25.4795 133.376 25.9886 133.037 25.9886V26.1244H137.415V25.9886C136.838 25.9886 136.227 25.0044 135.022 21.9157ZM128.319 23.2903C128.404 23.0358 128.505 22.7473 128.624 22.4418L130.525 17.7241L132.256 22.0006C132.426 22.4758 132.561 22.917 132.697 23.2903H128.319Z" fill="white"/>
<path d="M146.882 19.7435C148.12 19.2344 148.816 18.335 148.799 17.1131C148.782 15.4331 147.272 14.2451 144.726 14.2451H139.449V14.3809C139.924 14.3809 140.11 15.3652 140.212 18.4538V21.9157C140.11 25.0044 139.924 25.9886 139.449 25.9886V26.1244H145.235C147.781 26.1244 149.291 24.9365 149.308 22.917C149.325 21.2878 148.443 20.2357 146.882 19.7435ZM142.707 15.0258H143.589C144.828 15.0258 145.795 16.061 145.897 17.198C145.999 18.5217 145.218 19.4381 143.98 19.4381H142.707V15.0258ZM145.015 25.3438H142.707V20.2187H144.557C145.795 20.2187 146.746 21.1691 146.899 22.8321C147.017 24.3086 146.237 25.3438 145.015 25.3438Z" fill="white"/>
<path d="M160.611 22.9509C160.254 24.2746 158.303 25.2589 155.91 25.3438H154.858V20.3714C157.37 20.4733 158.218 20.6599 158.303 21.1012H158.439L158.031 18.7932H157.896C157.98 19.3023 157.217 19.4381 154.858 19.5229V15.0258H155.367C157.76 15.1106 159.593 15.7894 159.779 16.6719H159.915L159.355 14.2451H151.6V14.3809C152.075 14.3809 152.261 15.3652 152.363 18.4538V21.9157C152.261 25.0044 152.075 25.9886 151.6 25.9886V26.1244H159.898L160.747 22.9509H160.611Z" fill="white"/>
<path d="M172.832 14.2451H162.667L162.446 16.6719H162.582C162.768 15.7894 164.381 15.1106 166.485 15.0258H166.502V21.9157C166.4 25.0044 166.213 25.9886 165.738 25.9886V26.1244H169.76V25.9886C169.183 25.9886 168.997 25.0044 168.997 21.9157V15.0258H169.014C171.118 15.1106 172.73 15.7894 172.917 16.6719H173.053L172.832 14.2451Z" fill="white"/>
<path d="M185.721 14.3809V14.2451H181.699V14.3809C182.175 14.3809 182.361 15.3652 182.463 18.4538V19.7945H178V18.4538C178 15.3652 178.187 14.3809 178.764 14.3809V14.2451H174.742V14.3809C175.217 14.3809 175.403 15.3652 175.505 18.4538V21.9157C175.403 25.0044 175.217 25.9886 174.742 25.9886V26.1244H178.764V25.9886C178.187 25.9886 178 25.0044 178 21.9157V20.5751H182.463V21.9157C182.361 25.0044 182.175 25.9886 181.699 25.9886V26.1244H185.721V25.9886C185.144 25.9886 184.958 25.0044 184.958 21.9157V18.4538C184.958 15.3652 185.144 14.3809 185.721 14.3809Z" fill="white"/>
<path d="M91.7831 32.4369H86.7036V32.6136C87.322 32.6136 87.5649 33.8945 87.6974 37.9139V42.4192C87.5649 46.4386 87.322 47.7195 86.7036 47.7195V47.8962H91.7831C97.5472 47.8962 100.838 44.6939 100.816 40.1666C100.838 35.6392 97.5472 32.4369 91.7831 32.4369ZM92.3794 46.8803H90.9439V33.4528H91.2531C94.4995 33.4749 97.0172 36.2797 97.3705 40.1666C97.7018 44.0535 95.6479 46.8803 92.3794 46.8803Z" fill="white"/>
<path d="M114.079 42.4192L110.059 32.4369H108.823L104.494 43.1701C103.081 46.5932 102.374 47.7195 101.8 47.7195V47.8962H105.046V47.7195C104.516 47.7195 104.472 47.057 105.024 45.224H111.362C111.937 47.057 111.937 47.7195 111.495 47.7195V47.8962H117.193V47.7195C116.442 47.7195 115.647 46.4386 114.079 42.4192ZM105.355 44.2081C105.466 43.8768 105.598 43.5014 105.753 43.1038L108.226 36.9643L110.479 42.5296C110.7 43.148 110.877 43.7222 111.053 44.2081H105.355Z" fill="white"/>
<path d="M134.196 32.4369V32.6136C135.3 32.6136 134.483 34.6675 130.95 43.3688C128.366 34.7116 127.681 32.6136 128.631 32.6136V32.4369H123.154V32.6136C123.883 32.6136 124.457 33.497 126.047 37.9802C125.561 39.4599 124.965 41.2708 124.324 43.3688C121.078 34.7116 120.393 32.6136 121.343 32.6136V32.4369H115.866V32.6136C116.97 32.6136 117.699 34.6012 122.778 47.8962H124.015L126.643 39.7028C127.372 41.7788 128.255 44.451 129.404 47.8962H130.64L134.748 37.163C136.073 33.6957 136.868 32.6136 137.443 32.6136V32.4369H134.196Z" fill="white"/>
<path d="M144.494 48.1171C147.211 48.1171 150.435 46.527 150.435 43.7443C150.435 40.6966 147.895 39.1728 145.002 38.2452C143.037 37.6268 141.557 37.2072 141.557 35.7938C141.557 34.292 142.617 33.232 144.141 33.232C146.438 33.232 148.933 35.0208 149.243 37.0968H149.419L149.397 33.9166C148.116 32.9007 146.151 32.2161 144.141 32.2161C141.623 32.2161 138.885 33.8945 138.885 36.6551C138.885 39.0623 140.387 40.4978 142.75 41.3371C145.113 42.1763 147.211 42.9051 147.211 44.8927C147.211 46.1957 146.173 47.1012 144.45 47.1012C142.153 47.1012 139.349 44.9148 138.951 42.11H138.774L138.796 46.3945C140.077 47.4104 142.418 48.1171 144.494 48.1171Z" fill="white"/>
<path d="M161.166 48.1171C165.826 48.1171 169.116 44.8264 169.094 40.1666C169.116 35.5067 165.826 32.2161 161.166 32.2161C156.506 32.2161 153.193 35.5067 153.193 40.1666C153.193 44.8264 156.506 48.1171 161.166 48.1171ZM161.74 47.1012C159.222 47.1012 157.213 44.2302 156.881 40.1666C156.506 36.0809 158.03 33.2099 160.548 33.232C163.043 33.2099 165.075 36.0809 165.428 40.1666C165.782 44.2302 164.258 47.1012 161.74 47.1012Z" fill="white"/>
<path d="M186.09 32.4369H183.087V32.6136C183.705 32.6136 183.948 33.8945 184.08 37.9139V42.9492L174.297 32.4369H172.066V32.6136C172.685 32.6136 173.06 33.8945 173.06 37.9139V42.4192C172.928 46.4386 172.685 47.7195 172.066 47.7195V47.8962H175.07V47.7195C174.319 47.7195 174.208 46.4386 174.076 42.4192V37.6268L183.859 47.8962H185.096V37.9139C185.229 33.8945 185.339 32.6136 186.09 32.6136V32.4369Z" fill="white"/>
</svg>
