<svg width="192" height="164" viewBox="0 0 192 164" fill="none" xmlns="http://www.w3.org/2000/svg">
<path opacity="0.999184" fill-rule="evenodd" clip-rule="evenodd" d="M172.269 138.475L164.603 153.346V163.254H160.556V153.352L151.031 138.475H155.769L162.47 149.161L167.779 138.475H172.269ZM128.022 137.888H142.772V141.621H132.221V148.797H142.772V152.53H132.221V159.525H142.772V163.257H128.022V137.888ZM101.475 155.146H105.655C105.655 158.365 107.544 160.31 110.706 160.31C113.468 160.31 114.995 159.072 114.995 156.844C114.995 154.969 114.086 154.016 111.216 152.884L107.071 151.257C103.874 150.054 102.202 147.828 102.202 144.68C102.202 140.646 105.546 137.888 110.342 137.888C115.395 137.888 118.739 140.966 118.739 145.633H114.559C114.559 142.91 113.031 141.355 110.197 141.355C107.798 141.355 106.418 142.557 106.418 144.432C106.418 146.128 107.653 147.26 110.634 148.427L114.376 149.913C117.575 151.186 119.174 153.378 119.174 156.739C119.174 160.983 115.794 163.847 110.743 163.847C104.855 163.847 101.475 160.699 101.475 155.146ZM76.6949 155.146H80.8755C80.8755 158.365 82.7661 160.31 85.9258 160.31C88.6883 160.31 90.2156 159.072 90.2156 156.844C90.2156 154.969 89.306 154.016 86.4362 152.884L82.2934 151.257C79.094 150.054 77.4218 147.828 77.4218 144.68C77.4218 140.646 80.7662 137.888 85.5624 137.888C90.6147 137.888 93.9592 140.966 93.9592 145.633H89.7787C89.7787 142.91 88.2534 141.355 85.4174 141.355C83.0203 141.355 81.6381 142.557 81.6381 144.432C81.6381 146.128 82.8734 147.26 85.8544 148.427L89.5979 149.913C92.7954 151.186 94.3941 153.378 94.3941 156.739C94.3941 160.983 91.014 163.847 85.9636 163.847C80.0751 163.847 76.695 160.699 76.695 155.146M50.7372 155.034V138.475H54.7826V154.787C54.7826 158.358 56.7885 160.199 59.8827 160.199C62.9788 160.199 64.9827 158.358 64.9827 154.787V138.475H69.0261V155.034C69.0261 160.801 65.4057 163.844 59.8827 163.844C54.3616 163.844 50.7372 160.801 50.7372 155.034M21.8269 137.888H25.8803V148.797H36.0645V137.888H40.1159V163.257H36.0645V152.53H25.8803V163.257H21.8269V137.888ZM156.929 102.488H161.259L167.199 120.936L172.813 102.488H175.856L181.472 120.936L187.41 102.488H191.738L183.081 127.857H180.112L174.352 109.772L168.557 127.857H165.588L156.929 102.488ZM135.689 102.488H150.439V106.221H139.887V113.397H150.439V117.131H139.887V124.125H150.439V127.857H135.689V102.488ZM107.373 102.488H111.425V113.397H121.609V102.488H125.662V127.857H121.609V117.131H111.425V127.857H107.373V102.488ZM87.9371 106.402H80.8252V102.488H99.1142V106.402H91.9666V127.857H87.937L87.9371 106.402ZM62.5667 106.402H55.4549V102.488H73.7439V106.402H66.5962V127.857H62.5667V106.402ZM47.1847 124.632H37.7691L36.8237 127.857H32.4466L40.7083 102.488H44.2434L52.5071 127.857H48.13L47.1847 124.632ZM46.0996 120.897L42.4573 108.322L38.8189 120.897H46.0996ZM0 102.488H3.98787L12.1105 121.913L20.1995 102.488H24.1874V127.857H20.1995V111.077L13.6715 127.857H10.5158L3.98787 110.896V127.857H0V102.488ZM110.812 49.3891C112.168 49.3891 113.278 48.2691 113.278 46.8987V37.1296C113.278 35.7613 112.168 34.6412 110.812 34.6412H110.432C109.076 34.6412 107.968 35.7613 107.968 37.1296V46.8987C107.968 48.2691 109.076 49.3891 110.432 49.3891H110.812ZM103.137 49.3867C104.494 49.3867 105.604 48.2925 105.604 46.9519V28.222C105.604 26.8835 104.494 25.7892 103.137 25.7892H102.758C101.404 25.7892 100.294 26.8834 100.294 28.222V46.9519C100.294 48.2925 101.404 49.3867 102.758 49.3867H103.137ZM94.2895 49.3891C95.646 49.3891 96.7561 48.2691 96.7561 46.8987V37.1296C96.7561 35.7613 95.6459 34.6412 94.2895 34.6412H93.9102C92.5557 34.6412 91.4456 35.7613 91.4456 37.1296V46.8987C91.4456 48.2691 92.5557 49.3891 93.9102 49.3891H94.2895ZM86.6187 49.3891C87.9752 49.3891 89.0853 48.2691 89.0853 46.8987V37.1296C89.0853 35.7613 87.9751 34.6412 86.6187 34.6412H86.2394C84.8849 34.6412 83.7748 35.7613 83.7748 37.1296V46.8987C83.7748 48.2691 84.8849 49.3891 86.2394 49.3891H86.6187ZM78.9499 49.3891C80.3043 49.3891 81.4145 48.2691 81.4145 46.8987V37.1296C81.4145 35.7613 80.3043 34.6412 78.9499 34.6412H78.5705C77.2141 34.6412 76.104 35.7613 76.104 37.1296V46.8987C76.104 48.2691 77.2141 49.3891 78.5705 49.3891H78.9499ZM134.941 39.9383C134.941 61.9948 117.015 79.8766 94.9015 79.8766C72.7894 79.8766 54.8639 61.9948 54.8639 39.9383C54.8639 17.8819 72.7894 0 94.9015 0C117.015 0 134.941 17.8819 134.941 39.9383Z" fill="white"/>
</svg>
