<svg xmlns="http://www.w3.org/2000/svg" fill="none" viewBox="0 0 1062 316"><path fill="url(#a)" d="m108.464 87.03-1.365 4.76c-.245.77-.315 1.12-.315 1.61 0 .805.595 1.47 1.47 1.47.805 0 1.435-.63 1.435-1.47 0-.7-.455-1.26-1.12-1.435l1.12-4.935h-1.225Zm5.46 4.935 1.12-4.935h-1.225l-1.365 4.76c-.245.77-.315 1.12-.315 1.61 0 .805.595 1.47 1.47 1.47.805 0 1.435-.63 1.435-1.47 0-.7-.455-1.26-1.12-1.435ZM121.363 113h9.695c7.77 0 13.02-5.11 13.02-12.25s-5.25-12.25-13.02-12.25h-9.695V113Zm1.785-1.61V90.11h7.77c6.93 0 11.375 4.41 11.375 10.64s-4.445 10.64-11.375 10.64h-7.77Zm27.131 1.61h1.785V88.5h-1.785V113Zm16.762.175c6.055 0 8.82-3.01 8.82-6.475 0-8.89-15.295-4.55-15.295-11.9 0-2.695 2.135-4.9 6.895-4.9 2.205 0 4.69.665 6.72 2.065l.665-1.435c-1.89-1.365-4.69-2.205-7.385-2.205-6.02 0-8.68 3.045-8.68 6.51 0 9.03 15.295 4.62 15.295 11.97 0 2.66-2.17 4.795-7.07 4.795-3.29 0-6.405-1.33-8.085-3.08l-.805 1.33c1.785 1.96 5.285 3.325 8.925 3.325Zm25.248 0c3.465 0 6.58-1.155 8.715-3.43l-1.12-1.155c-2.1 2.065-4.655 2.94-7.525 2.94-6.265 0-10.99-4.62-10.99-10.78 0-6.16 4.725-10.78 10.99-10.78 2.87 0 5.425.84 7.525 2.905l1.12-1.155c-2.135-2.275-5.25-3.395-8.715-3.395-7.28 0-12.705 5.285-12.705 12.425 0 7.14 5.425 12.425 12.705 12.425Zm24.576 0c7.28 0 12.74-5.285 12.74-12.425 0-7.14-5.46-12.425-12.74-12.425-7.315 0-12.74 5.32-12.74 12.425s5.425 12.425 12.74 12.425Zm0-1.645c-6.265 0-10.955-4.585-10.955-10.78 0-6.195 4.69-10.78 10.955-10.78 6.23 0 10.92 4.585 10.92 10.78 0 6.195-4.69 10.78-10.92 10.78Zm35.89-23.03-9.905 22.19-9.905-22.19h-1.96l10.92 24.5h1.785l10.92-24.5h-1.855Zm7.59 22.89v-10.045H273.4V99.77h-13.055v-9.66h14.595V88.5h-16.38V113h16.905v-1.61h-15.12Zm40.668 1.61-6.125-8.575c3.64-1.085 5.74-3.78 5.74-7.665 0-5.18-3.71-8.26-9.87-8.26h-8.785V113h1.785v-8.015h7c.84 0 1.61-.07 2.38-.175l5.845 8.19h2.03Zm-17.255-9.59v-13.3h7c5.25 0 8.05 2.415 8.05 6.65 0 4.2-2.8 6.65-8.05 6.65h-7Zm37.085 9.59h1.785V90.11h8.82V88.5h-19.425v1.61h8.82V113Zm33.197-24.5v11.27h-16.38V88.5h-1.785V113h1.785v-11.655h16.38V113h1.785V88.5h-1.785Zm12.126 22.89v-10.045h13.055V99.77h-13.055v-9.66h14.595V88.5h-16.38V113h16.905v-1.61h-15.12Zm26.662-22.89v1.61h5.985V113h1.785V88.5h-7.77Zm12.339 0v1.61h5.985V113h1.785V88.5h-7.77Zm31.723 24.675c6.055 0 8.82-3.01 8.82-6.475 0-8.89-15.295-4.55-15.295-11.9 0-2.695 2.135-4.9 6.895-4.9 2.205 0 4.69.665 6.72 2.065l.665-1.435c-1.89-1.365-4.69-2.205-7.385-2.205-6.02 0-8.68 3.045-8.68 6.51 0 9.03 15.295 4.62 15.295 11.97 0 2.66-2.17 4.795-7.07 4.795-3.29 0-6.405-1.33-8.085-3.08l-.805 1.33c1.785 1.96 5.285 3.325 8.925 3.325Zm16.673-1.785v-10.045h13.055V99.77h-13.055v-9.66h14.595V88.5h-16.38V113h16.905v-1.61h-15.12Zm31.851 1.785c3.465 0 6.58-1.155 8.715-3.43l-1.12-1.155c-2.1 2.065-4.655 2.94-7.525 2.94-6.265 0-10.99-4.62-10.99-10.78 0-6.16 4.725-10.78 10.99-10.78 2.87 0 5.425.84 7.525 2.905l1.12-1.155c-2.135-2.275-5.25-3.395-8.715-3.395-7.28 0-12.705 5.285-12.705 12.425 0 7.14 5.425 12.425 12.705 12.425Zm33.734-.175-6.125-8.575c3.64-1.085 5.74-3.78 5.74-7.665 0-5.18-3.71-8.26-9.87-8.26h-8.785V113h1.785v-8.015h7c.84 0 1.61-.07 2.38-.175l5.845 8.19h2.03Zm-17.255-9.59v-13.3h7c5.25 0 8.05 2.415 8.05 6.65 0 4.2-2.8 6.65-8.05 6.65h-7Zm25.191 7.98v-10.045h13.055V99.77h-13.055v-9.66h14.595V88.5h-16.38V113h16.905v-1.61h-15.12Zm26.318 1.61h1.785V90.11h8.82V88.5h-19.425v1.61h8.82V113Zm21.027.175c6.055 0 8.82-3.01 8.82-6.475 0-8.89-15.295-4.55-15.295-11.9 0-2.695 2.135-4.9 6.895-4.9 2.205 0 4.69.665 6.72 2.065l.665-1.435c-1.89-1.365-4.69-2.205-7.385-2.205-6.02 0-8.68 3.045-8.68 6.51 0 9.03 15.295 4.62 15.295 11.97 0 2.66-2.17 4.795-7.07 4.795-3.29 0-6.405-1.33-8.085-3.08l-.805 1.33c1.785 1.96 5.285 3.325 8.925 3.325Zm28.567-.175h1.785V90.11h8.82V88.5h-19.425v1.61h8.82V113Zm25.085.175c7.28 0 12.74-5.285 12.74-12.425 0-7.14-5.46-12.425-12.74-12.425-7.315 0-12.74 5.32-12.74 12.425s5.425 12.425 12.74 12.425Zm0-1.645c-6.265 0-10.955-4.585-10.955-10.78 0-6.195 4.69-10.78 10.955-10.78 6.23 0 10.92 4.585 10.92 10.78 0 6.195-4.69 10.78-10.92 10.78Zm38.281 1.645c3.465 0 6.58-1.155 8.715-3.43l-1.12-1.155c-2.1 2.065-4.655 2.94-7.525 2.94-6.265 0-10.99-4.62-10.99-10.78 0-6.16 4.725-10.78 10.99-10.78 2.87 0 5.425.84 7.525 2.905l1.12-1.155c-2.135-2.275-5.25-3.395-8.715-3.395-7.28 0-12.705 5.285-12.705 12.425 0 7.14 5.425 12.425 12.705 12.425Zm33.733-.175-6.125-8.575c3.64-1.085 5.74-3.78 5.74-7.665 0-5.18-3.71-8.26-9.87-8.26h-8.785V113h1.785v-8.015h7c.84 0 1.61-.07 2.38-.175l5.845 8.19h2.03Zm-17.255-9.59v-13.3h7c5.25 0 8.05 2.415 8.05 6.65 0 4.2-2.8 6.65-8.05 6.65h-7Zm25.191 7.98v-10.045h13.055V99.77h-13.055v-9.66h14.595V88.5h-16.38V113h16.905v-1.61h-15.12Zm39.933 1.61h1.925l-11.27-24.5h-1.785l-11.27 24.5h1.925l3.115-6.895h14.21l3.15 6.895Zm-16.66-8.4 6.405-14.14 6.44 14.14h-12.845Zm26.492 8.4h1.785V90.11h8.82V88.5h-19.425v1.61h8.82V113Zm15.032 0h1.785V88.5h-1.785V113Zm28.487-24.5v21.28l-16.66-21.28h-1.505V113h1.785V91.72L801.63 113h1.47V88.5h-1.785Zm27.841 20.79c-1.995 1.61-4.375 2.24-6.965 2.24-6.37 0-11.095-4.655-11.095-10.78 0-6.16 4.725-10.78 11.095-10.78 2.975 0 5.53.805 7.665 2.905l1.12-1.19c-2.17-2.24-5.285-3.36-8.82-3.36-7.42 0-12.845 5.285-12.845 12.425 0 7.14 5.425 12.425 12.81 12.425 3.36 0 6.545-1.05 8.75-3.15v-9.17h-1.715v8.435Zm35.99-20.79h-1.855l-8.855 14.42-8.855-14.42h-1.96l9.87 16.065V113h1.785v-8.435l9.87-16.065Zm13.78 24.675c7.28 0 12.74-5.285 12.74-12.425 0-7.14-5.46-12.425-12.74-12.425-7.315 0-12.74 5.32-12.74 12.425s5.425 12.425 12.74 12.425Zm0-1.645c-6.265 0-10.955-4.585-10.955-10.78 0-6.195 4.69-10.78 10.955-10.78 6.23 0 10.92 4.585 10.92 10.78 0 6.195-4.69 10.78-10.92 10.78Zm28.521 1.645c6.09 0 9.835-3.57 9.835-10.57V88.5h-1.785v14.035c0 6.125-2.905 8.995-8.015 8.995-5.11 0-8.05-2.87-8.05-8.995V88.5h-1.785v14.105c0 7 3.71 10.57 9.8 10.57Zm37.204-.175-6.125-8.575c3.64-1.085 5.74-3.78 5.74-7.665 0-5.18-3.71-8.26-9.87-8.26h-8.785V113h1.785v-8.015h7c.84 0 1.61-.07 2.38-.175l5.845 8.19h2.03Zm-17.255-9.59v-13.3h7c5.25 0 8.05 2.415 8.05 6.65 0 4.2-2.8 6.65-8.05 6.65h-7Zm-781.522 58.765c7.28 0 12.74-5.285 12.74-12.425 0-7.14-5.46-12.425-12.74-12.425-7.315 0-12.74 5.32-12.74 12.425s5.425 12.425 12.74 12.425Zm0-1.645c-6.265 0-10.955-4.585-10.955-10.78 0-6.195 4.69-10.78 10.955-10.78 6.23 0 10.92 4.585 10.92 10.78 0 6.195-4.69 10.78-10.92 10.78Zm49.189-23.03-7.525 22.085-7.63-22.085h-1.715l-7.665 22.05-7.455-22.05h-1.89l8.33 24.5h1.89l7.63-21.98 7.595 21.98h1.89l8.295-24.5h-1.75Zm25.061 0v21.28l-16.66-21.28h-1.505V162h1.785v-21.28L220.439 162h1.47v-24.5h-1.785Zm28.115 0h-8.785V162h1.785v-8.015h7c6.16 0 9.87-3.08 9.87-8.225 0-5.18-3.71-8.26-9.87-8.26Zm0 14.875h-7V139.11h7c5.25 0 8.05 2.415 8.05 6.65 0 4.2-2.8 6.615-8.05 6.615Zm26.629 9.8c7.28 0 12.74-5.285 12.74-12.425 0-7.14-5.46-12.425-12.74-12.425-7.315 0-12.74 5.32-12.74 12.425s5.425 12.425 12.74 12.425Zm0-1.645c-6.265 0-10.955-4.585-10.955-10.78 0-6.195 4.69-10.78 10.955-10.78 6.23 0 10.92 4.585 10.92 10.78 0 6.195-4.69 10.78-10.92 10.78Zm49.19-23.03-7.525 22.085-7.63-22.085h-1.715l-7.665 22.05-7.455-22.05h-1.89l8.33 24.5h1.89l7.63-21.98 7.595 21.98h1.89l8.295-24.5h-1.75Zm8.68 22.89v-10.045h13.055v-1.575h-13.055v-9.66h14.595v-1.61h-16.38V162h16.905v-1.61h-15.12Zm40.668 1.61-6.125-8.575c3.64-1.085 5.74-3.78 5.74-7.665 0-5.18-3.71-8.26-9.87-8.26h-8.785V162h1.785v-8.015h7c.84 0 1.61-.07 2.38-.175l5.845 8.19h2.03Zm-17.255-9.59v-13.3h7c5.25 0 8.05 2.415 8.05 6.65 0 4.2-2.8 6.65-8.05 6.65h-7Zm39.785-13.3v-1.61h-16.38V162h1.785v-10.815h13.055v-1.61h-13.055V139.11h14.595Zm15.29 23.065c6.09 0 9.835-3.57 9.835-10.57V137.5h-1.785v14.035c0 6.125-2.905 8.995-8.015 8.995-5.11 0-8.05-2.87-8.05-8.995V137.5h-1.785v14.105c0 7 3.71 10.57 9.8 10.57ZM429.39 162h15.89v-1.61h-14.105V137.5h-1.785V162Zm20.764-2.835c-.84 0-1.47.63-1.47 1.47 0 .735.455 1.26 1.155 1.435l-1.155 4.935h1.26l1.365-4.76c.21-.735.315-1.085.315-1.61 0-.77-.595-1.47-1.47-1.47Zm25.551-21.665h-8.785V162h1.785v-8.015h7c6.16 0 9.87-3.08 9.87-8.225 0-5.18-3.71-8.26-9.87-8.26Zm0 14.875h-7V139.11h7c5.25 0 8.05 2.415 8.05 6.65 0 4.2-2.8 6.615-8.05 6.615Zm17.677 8.015v-10.045h13.055v-1.575h-13.055v-9.66h14.595v-1.61h-16.38V162h16.905v-1.61h-15.12ZM534.05 162l-6.125-8.575c3.64-1.085 5.74-3.78 5.74-7.665 0-5.18-3.71-8.26-9.87-8.26h-8.785V162h1.785v-8.015h7c.84 0 1.61-.07 2.38-.175l5.845 8.19h2.03Zm-17.255-9.59v-13.3h7c5.25 0 8.05 2.415 8.05 6.65 0 4.2-2.8 6.65-8.05 6.65h-7Zm29.846 9.765c6.055 0 8.82-3.01 8.82-6.475 0-8.89-15.295-4.55-15.295-11.9 0-2.695 2.135-4.9 6.895-4.9 2.205 0 4.69.665 6.72 2.065l.665-1.435c-1.89-1.365-4.69-2.205-7.385-2.205-6.02 0-8.68 3.045-8.68 6.51 0 9.03 15.295 4.62 15.295 11.97 0 2.66-2.17 4.795-7.07 4.795-3.29 0-6.405-1.33-8.085-3.08l-.805 1.33c1.785 1.96 5.285 3.325 8.925 3.325Zm25.283 0c7.28 0 12.74-5.285 12.74-12.425 0-7.14-5.46-12.425-12.74-12.425-7.315 0-12.74 5.32-12.74 12.425s5.425 12.425 12.74 12.425Zm0-1.645c-6.265 0-10.955-4.585-10.955-10.78 0-6.195 4.69-10.78 10.955-10.78 6.23 0 10.92 4.585 10.92 10.78 0 6.195-4.69 10.78-10.92 10.78Zm37.096-23.03v21.28l-16.66-21.28h-1.505V162h1.785v-21.28L609.335 162h1.47v-24.5h-1.785Zm28.646 24.5h1.925l-11.27-24.5h-1.785l-11.27 24.5h1.925l3.115-6.895h14.21l3.15 6.895Zm-16.66-8.4 6.405-14.14 6.44 14.14h-12.845Zm23.033 8.4h15.89v-1.61h-14.105V137.5h-1.785V162Zm44.023-12.635c2.45-.805 4.095-2.695 4.095-5.6 0-4.06-3.185-6.265-8.435-6.265h-10.22V162h10.92c6.02 0 9.03-2.345 9.03-6.475 0-3.395-1.925-5.495-5.39-6.16Zm-4.41-10.325c4.235 0 6.685 1.645 6.685 4.865 0 3.255-2.45 4.9-6.685 4.9h-8.365v-9.765h8.365Zm.77 21.42h-9.135v-10.115h9.135c4.69 0 7.245 1.54 7.245 5.04 0 3.535-2.555 5.075-7.245 5.075ZM718.86 162l-6.125-8.575c3.64-1.085 5.74-3.78 5.74-7.665 0-5.18-3.71-8.26-9.87-8.26h-8.785V162h1.785v-8.015h7c.84 0 1.61-.07 2.38-.175l5.845 8.19h2.03Zm-17.255-9.59v-13.3h7c5.25 0 8.05 2.415 8.05 6.65 0 4.2-2.8 6.65-8.05 6.65h-7Zm41.71 9.59h1.925l-11.27-24.5h-1.785l-11.27 24.5h1.925l3.115-6.895h14.21l3.15 6.895Zm-16.66-8.4 6.405-14.14 6.44 14.14h-12.845Zm41.198-16.1v21.28l-16.66-21.28h-1.505V162h1.785v-21.28L768.168 162h1.47v-24.5h-1.785Zm10.341 24.5h9.695c7.77 0 13.02-5.11 13.02-12.25s-5.25-12.25-13.02-12.25h-9.695V162Zm1.785-1.61v-21.28h7.77c6.93 0 11.375 4.41 11.375 10.64s-4.445 10.64-11.375 10.64h-7.77Zm42.56 1.785c6.055 0 8.82-3.01 8.82-6.475 0-8.89-15.295-4.55-15.295-11.9 0-2.695 2.135-4.9 6.895-4.9 2.205 0 4.69.665 6.72 2.065l.665-1.435c-1.89-1.365-4.69-2.205-7.385-2.205-6.02 0-8.68 3.045-8.68 6.51 0 9.03 15.295 4.62 15.295 11.97 0 2.66-2.17 4.795-7.07 4.795-3.29 0-6.405-1.33-8.085-3.08l-.805 1.33c1.785 1.96 5.285 3.325 8.925 3.325Zm14.888-.175h1.785v-24.5h-1.785V162Zm15.013 0h1.785v-22.89h8.82v-1.61H843.62v1.61h8.82V162Zm16.816-1.61v-10.045h13.055v-1.575h-13.055v-9.66h14.595v-1.61h-16.38V162h16.905v-1.61h-15.12Zm21.2 1.75c.805 0 1.47-.665 1.47-1.505 0-.84-.665-1.47-1.47-1.47-.805 0-1.47.63-1.47 1.47s.665 1.505 1.47 1.505Zm7.175 0c.805 0 1.47-.665 1.47-1.505 0-.84-.665-1.47-1.47-1.47-.805 0-1.47.63-1.47 1.47s.665 1.505 1.47 1.505Zm7.175 0c.805 0 1.47-.665 1.47-1.505 0-.84-.665-1.47-1.47-1.47-.805 0-1.47.63-1.47 1.47s.665 1.505 1.47 1.505Zm6.432-26.25c-.84 0-1.47.63-1.47 1.47 0 .735.455 1.26 1.155 1.435l-1.155 4.935h1.26l1.365-4.76c.21-.735.315-1.085.315-1.61 0-.77-.595-1.47-1.47-1.47Zm5.355 0c-.84 0-1.47.63-1.47 1.47 0 .735.455 1.26 1.155 1.435l-1.155 4.935h1.26l1.365-4.76c.21-.735.315-1.085.315-1.61 0-.77-.595-1.47-1.47-1.47Z"></path><path fill="url(#b)" fill-rule="evenodd" d="M348.202 290.352H0V0h1061.29v290.352H706.829v-3.458h351.001V3.4581H3.458V286.894h344.744v3.458Z" clip-rule="evenodd"></path><g fill="#fff" fill-rule="evenodd" clip-path="url(#c)" clip-rule="evenodd" opacity=".7"><path d="M429.272 268c-.161 2.841-.322 5.666-.484 8.603l-4.261-.161-.291-5.294h-6.602v12.671h2.922c.226-.92.436-1.84.678-2.793h2.873v8.717h-2.889c-.242-.937-.484-1.889-.727-2.874h-2.857v13.414h6.651c.21-1.921.419-3.809.645-5.827l4.472.161c.113 2.986.226 5.924.355 8.91h-21.759v-3.099l3.051-.516V271.47l-3.406-.387V268h21.629Zm76.987 48c0-.878.113-1.627.161-2.473l2.309-.504v-30.59l-2.729-.407v-2.555l7.233-1.025c.259.944.501 1.823.759 2.734.104-.078.202-.165.291-.26 1.642-1.931 4.156-2.872 6.651-2.49 2.944.257 5.368 2.436 5.958 5.353.404 1.33.663 2.699.775 4.084.283 2.832.185 5.689-.291 8.494a14.9287 14.9287 0 0 1-.888 3.043c-1.091 2.805-3.729 4.69-6.716 4.8a9.3025 9.3025 0 0 1-4.698-.684 1.3752 1.3752 0 0 0-.355-.097v9.6l2.47.504c0 .814-.113 1.627-.178 2.473h-10.752Zm8.427-15.994a7.408 7.408 0 0 0 5.683.196c.34-.094.601-.369.678-.716.264-.943.48-1.899.646-2.864.371-2.925.419-5.883.145-8.819-.07-1.005-.255-1.999-.549-2.961a3.3517 3.3517 0 0 0-1.545-2.18 3.3076 3.3076 0 0 0-2.637-.342h-.323c-1.245.197-2.146 1.301-2.098 2.57v15.116Zm72.127.455 2.551.517-.146 2.582h-8.28v-17.061a8.0105 8.0105 0 0 0-.404-2.212 2.293 2.293 0 0 0-1.856-1.517 3.909 3.909 0 0 0-2.47.21c-.709.227-1.204.87-1.243 1.614v15.609a.7557.7557 0 0 0 0 .242l2.422.5c0 .84-.097 1.695-.146 2.583h-10.734v-2.583l2.389-.5v-17.917l-2.728-.323v-2.583l7.038-1c.226.775.436 1.614.629 2.292.533-.404 1.082-.888 1.695-1.275a8.071 8.071 0 0 1 7.393-.807c2.02.744 3.44 2.572 3.664 4.713.09.615.138 1.235.145 1.856v15.06h.081Zm-146.612.016 2.453.5c0 .872-.097 1.695-.145 2.583h-10.783c0-.856.081-1.614.129-2.583l2.293-.5c.161-.581.209-16.997 0-17.917l-2.712-.291v-2.631l7.054-1.017c.209.775.403 1.518.629 2.341l.662-.581a8.2476 8.2476 0 0 1 7.667-1.776c2.302.499 4.049 2.381 4.374 4.713.125.638.184 1.287.178 1.937v15.206l2.534.5v2.599h-8.361v-16.545c0-.627-.048-1.253-.145-1.873-.099-1.337-1.194-2.383-2.535-2.421a2.9695 2.9695 0 0 0-2.889.872c-.299.344-.46.787-.452 1.243v14.801l.049.84Zm184.626-18.563-2.727-.275v-2.34l8.07-.92c.397.937.626 1.937.678 2.954v19.111l2.502.517c-.097.871-.177 1.695-.274 2.566h-6.925c-.21-.597-.42-1.259-.662-1.985l-.532.42c-2.51 2.174-6.079 2.633-9.056 1.162a5.8424 5.8424 0 0 1-3.26-4.455c-.116-.667-.175-1.342-.178-2.018V281.93l-2.744-.291v-2.34l8.071-.92c.316.864.522 1.764.613 2.679v14.302c.002.653.046 1.305.129 1.953.087 1.635 1.481 2.891 3.116 2.809.622-.006 1.24-.093 1.84-.259a2.5496 2.5496 0 0 0 1.485-1.937v-15.77c-.04-.086-.088-.167-.146-.242Zm-131.968 10.964a9.1773 9.1773 0 0 0 1.388 5.451c.878 1.389 2.403 2.225 4.037 2.213 1.588.004 3.16-.323 4.617-.96l.662-.26c.339.764.662 1.497 1.017 2.343-.436.293-.856.634-1.324.895-2.862 1.689-6.285 2.13-9.477 1.22-2.636-.815-4.77-2.78-5.812-5.353-1.242-2.812-1.715-5.907-1.372-8.966.135-1.882.593-3.727 1.356-5.451 1.122-2.778 3.544-4.809 6.458-5.418 2.799-.801 5.81-.059 7.927 1.953 1.269 1.323 2.166 2.963 2.599 4.751.502 1.816.741 3.696.711 5.581-.095.641-.28 1.266-.549 1.855l-12.238.146Zm7.394-3.254c0-.765-.113-1.383-.177-2.002a10.9909 10.9909 0 0 0-1.195-4.214c-.636-1.353-2.215-1.962-3.584-1.383-.575.169-1.039.595-1.26 1.155a19.073 19.073 0 0 0-1.307 6.281c.013.171.045.341.096.504l7.427-.341Zm108.477 3.109-12.238.147a8.799 8.799 0 0 0 .193 2.538c.24 1.249.796 2.415 1.615 3.384.844 1.062 2.106 1.698 3.455 1.741 1.548.052 3.09-.231 4.52-.83l.969-.374c.323.781.646 1.513 1.001 2.376l-.387.26c-2.504 1.799-5.587 2.583-8.638 2.197-3.59-.337-6.646-2.773-7.798-6.216-1.79-4.409-1.744-9.359.129-13.733 1.032-2.876 3.482-4.999 6.458-5.597 2.387-.661 4.941-.252 7.007 1.123 1.449 1.075 2.541 2.567 3.132 4.279a17.2929 17.2929 0 0 1 1.114 6.834c-.106.642-.285 1.27-.532 1.871Zm-4.844-3.075a18.2074 18.2074 0 0 0-.743-4.881 6.759 6.759 0 0 0-1.13-2.132c-.969-1.253-3.956-1.009-4.408.716a33.7357 33.7357 0 0 0-1.065 4.166 8.014 8.014 0 0 0-.097 2.424l7.443-.293Zm-38.718 3.074-12.222.146c-.129 2.125.501 4.226 1.776 5.923.829 1.063 2.082 1.701 3.423 1.741 1.573.072 3.143-.2 4.602-.798l.952-.39 1.001 2.327c-.291.211-.549.423-.839.602-2.691 1.763-5.96 2.394-9.106 1.757-2.864-.587-5.27-2.532-6.458-5.223a16.9821 16.9821 0 0 1-1.615-8.835 16.757 16.757 0 0 1 1.421-5.972c.908-2.21 2.65-3.966 4.843-4.881a9.0276 9.0276 0 0 1 8.073.26c1.633.954 2.889 2.449 3.552 4.231.909 2.29 1.349 4.742 1.291 7.208a6.9824 6.9824 0 0 1-.694 1.904Zm-4.842-3.077c0-.83-.113-1.627-.21-2.278a10.588 10.588 0 0 0-1.13-3.889 2.818 2.818 0 0 0-1.641-1.513 2.7855 2.7855 0 0 0-2.218.163c-.406.158-.732.475-.904.879a16.9654 16.9654 0 0 0-1.291 5.027c0 .619-.097 1.237-.162 1.969l7.556-.358Zm-83.614-11.034.549 2.292.871-.532c1.71-.926 3.598-1.476 5.537-1.614.862-.141 1.724.254 2.179 1-.242 2.163-.5 4.359-.743 6.635l-3.987-.162c-.161-1.227-.29-2.357-.435-3.551-.914.064-1.795.37-2.551.888v16.916l2.47.565c0 .823-.097 1.614-.145 2.486h-10.654v-2.47l2.228-.581v-17.965l-2.551-.291v-2.615l7.232-1.001Zm158.106 24.89c0-.888 0-1.614.113-2.518l2.212-.549v-17.917l-2.615-.323v-2.582l7.263-1.001.533 2.098c1.001-.529 2.03-1.003 3.083-1.42 1.062-.297 2.14-.534 3.228-.71a2.034 2.034 0 0 1 2.276 1c-.242 2.115-.484 4.31-.742 6.602l-3.971-.145c-.162-1.211-.307-2.389-.468-3.68l-2.421.904v17.223l2.469.565c0 .839-.097 1.614-.161 2.518l-10.799-.065Zm-94.089-21.145-2.534.936v17.191l2.518.565-.21 2.453h-10.621v-2.437l2.26-.581v-17.965l-2.599-.291v-2.599l7.232-1.017c.209.727.419 1.437.613 2.147.694-.371 1.388-.759 2.082-1.097 1.327-.559 2.731-.913 4.165-1.05.896-.19 1.816.196 2.308.969-.226 2.114-.468 4.31-.726 6.634l-3.987-.145c-.194-1.211-.323-2.357-.501-3.713Zm-77.641-8.489v5.036h4.439c-.097 1.13-.194 2.131-.274 3.228l-3.987.388c-.042.213-.069.429-.081.645v14.528c-.024.322-.024.646 0 .968.116.94.926 1.638 1.872 1.614h2.518l.259 2.615c-.609.371-1.293.602-2.002.678-1.486.318-3.018.361-4.519.129-2.21-.282-3.92-2.073-4.1-4.293v-15.98c.015-.296.015-.592 0-.888l-2.793-.468c0-1.017.097-2.002.145-3.083l3.116-.162 1.404-4.745 4.003-.21Zm188.521 28.422c.156.883-.252 1.77-1.022 2.219-.769.449-1.736.366-2.418-.21-.682-.575-.934-1.519-.63-2.362.304-.843 1.098-1.404 1.987-1.404 1.054-.085 1.981.697 2.083 1.757Zm-3.537.001c.079.753.709 1.325 1.461 1.325.752 0 1.383-.572 1.461-1.325-.078-.754-.709-1.326-1.461-1.326-.752 0-1.382.572-1.461 1.326Zm1.196.829h-.565v-1.627c.274-.016.549-.016.824 0 .254-.025.511.02.742.13.124.076.198.213.194.358 0 .163-.178.31-.42.375.198.051.345.218.372.423.026.135.069.266.129.39h-.63a.6824.6824 0 0 1-.129-.342.2922.2922 0 0 0-.323-.244h-.194v.537Zm0-.926h.161c.21 0 .355-.082.355-.196 0-.113-.129-.211-.339-.211h-.177v.407Z"></path></g><defs><linearGradient id="a" x1="525.643" x2="526.387" y1="76" y2="256.887" gradientUnits="userSpaceOnUse"><stop stop-color="#FFF2C6"></stop><stop offset="1" stop-color="#BD8332"></stop></linearGradient><linearGradient id="b" x1="0" x2="117.521" y1="290.352" y2="-212.101" gradientUnits="userSpaceOnUse"><stop stop-color="#FF6358"></stop><stop offset=".4335" stop-color="#FFA5AF"></stop><stop offset=".7685" stop-color="#FEE191"></stop><stop offset="1" stop-color="#FAAE60"></stop></linearGradient><clipPath id="c"><path fill="#fff" d="M407.643 268h244v48h-244z"></path></clipPath></defs></svg>