<svg width="467" height="108" viewBox="0 0 467 108" fill="none" xmlns="http://www.w3.org/2000/svg">
<path fill-rule="evenodd" clip-rule="evenodd" d="M89.0195 0L47.1252 53.8254L47.1218 53.9333L89.0162 107.333H98.8236L87.7664 92.9667C91.2554 89.887 93.7421 86.4566 96.6461 81.8303L90.907 78.5151C90.0208 79.9135 89.0617 81.2644 88.0336 82.5622C86.654 84.3051 85.1479 85.9421 83.5281 87.4602L57.723 53.9333L83.6109 19.9654C85.1339 21.3995 86.5559 22.9393 87.8661 24.5739C88.9011 25.8659 89.8674 27.2115 90.7609 28.6052L96.5123 25.2877C93.6188 20.7275 91.2441 17.384 87.8684 14.379L98.827 0H89.0195ZM59.3913 99.207C57.7495 99.4429 56.0959 99.5885 54.4381 99.6432V106.26C62.1851 106.006 69.7739 104 76.6354 100.394L73.3381 94.681C71.8782 95.4455 70.377 96.1282 68.8413 96.7259C65.7959 97.9098 62.6254 98.7422 59.3913 99.207ZM31.3437 94.681L28.0465 100.394C34.9078 104 42.4967 106.006 50.2437 106.26V99.6432C48.5859 99.5885 46.9324 99.4429 45.2905 99.207C42.0564 98.7422 38.8859 97.9098 35.8405 96.7259C34.3048 96.1282 32.8036 95.4455 31.3437 94.681ZM13.7692 78.5094L8.03014 81.8247C12.151 88.3915 17.672 93.9666 24.1983 98.1514L27.5023 92.4259C26.1207 91.5279 24.7878 90.5571 23.5092 89.5176C20.974 87.4539 18.6715 85.1197 16.6426 82.5566C15.6145 81.2588 14.6554 79.9079 13.7692 78.5094ZM6.61028 55.7647H0C0.290126 63.5023 2.279 71.0812 5.82559 77.9642L11.559 74.6512C10.8106 73.189 10.1407 71.688 9.5523 70.1544C8.38608 67.1063 7.55674 63.9397 7.07907 60.7112C6.83606 59.0717 6.67958 57.4206 6.61028 55.7647ZM99.1305 53.794C99.1305 54.4798 99.1148 55.1745 99.0844 55.8603H105.406C105.435 55.1464 105.45 54.4235 105.45 53.7131C105.45 52.9643 105.434 52.2033 105.401 51.4534H99.0721C99.1103 52.2291 99.1305 53.016 99.1305 53.794ZM5.94475 29.146C2.36477 36.0107 0.338684 43.5789 0.0101178 51.314H6.62264C6.70139 49.6617 6.86726 48.0147 7.11954 46.3799C7.619 43.1562 8.46945 39.9968 9.65572 36.958C10.2539 35.4239 10.9335 33.9229 11.6916 32.4612L5.94475 29.146ZM24.4243 9.03523C17.8736 13.1893 12.3225 18.7404 8.16841 25.2911L13.9164 28.6097C14.8099 27.216 15.7762 25.8704 16.8112 24.5784C18.8557 22.0277 21.1725 19.7079 23.7205 17.6601C25.0077 16.6257 26.3488 15.6606 27.7384 14.7686L24.4243 9.03523ZM68.6491 10.5506C70.1646 11.1325 71.647 11.7972 73.0896 12.5416V12.5517L76.3981 6.81831C69.598 3.28913 62.0942 1.32666 54.437 1.07479V7.70755C56.0705 7.76155 57.7 7.90378 59.3182 8.13362C62.5093 8.58672 65.6393 9.3975 68.6491 10.5506ZM50.2437 1.07479C42.5872 1.32352 35.0835 3.28253 28.2825 6.8082L31.5899 12.5416C33.0318 11.7973 34.5135 11.1326 36.0283 10.5506C39.038 9.39751 42.168 8.58673 45.3591 8.13362C46.9784 7.90366 48.609 7.76143 50.2437 7.70755V1.07479ZM36.7799 90.5161C33.1027 88.2598 32.9655 85.8462 32.9655 83.1841V53.0983V24.5797C32.9655 20.3561 31.3545 19.2173 31.3545 19.2173C33.4146 19.8648 35.3734 20.7988 37.1734 21.9918C40.8506 24.2481 40.9878 26.6617 40.9878 29.3204V59.4096V87.9282C40.9878 92.1529 42.5988 93.2906 42.5988 93.2906C40.5387 92.6431 38.5799 91.7091 36.7799 90.5161ZM152.854 53.5262H159.229L147.772 37.8987L158.221 23.3708H151.897L141.264 38.1281V23.3708H136.123V54.2142L144.648 42.3438L152.854 53.5262ZM184.343 48.3931V53.5262L165.278 53.5251V23.3696H184.343V28.5488H170.457V35.8358H180.906V41.015H170.457V48.3931H184.343ZM215.146 23.3708V54.2142L196.534 35.6065V53.5262H191.401V22.9121L210.009 41.5198V23.3708H215.146ZM244.156 28.5499V23.3708H220.92V28.5499H229.948V53.5273H235.081V28.5499H244.156ZM271.815 53.8005C274.102 53.8086 276.359 53.2913 278.414 52.2884C280.467 51.2995 282.269 49.8577 283.684 48.0715L279.652 44.8631C278.698 46.0361 277.502 46.9897 276.146 47.659C274.801 48.3289 273.318 48.6754 271.815 48.6707C270.038 48.6779 268.294 48.1944 266.774 47.2734C265.238 46.3637 263.966 45.0682 263.085 43.5152C262.19 41.9615 261.724 40.1976 261.736 38.4046C261.724 36.6119 262.19 34.8485 263.085 33.2951C263.958 31.7503 265.222 30.4623 266.751 29.5605C268.279 28.6483 270.029 28.1728 271.81 28.1856C273.208 28.1843 274.591 28.4813 275.866 29.0569C277.163 29.636 278.325 30.4782 279.28 31.5301L283.086 28.0856C281.675 26.4843 279.931 25.2099 277.977 24.351C276.037 23.4867 273.937 23.0416 271.813 23.0447C269.129 23.0269 266.491 23.74 264.182 25.1076C261.874 26.4523 259.962 28.3808 258.636 30.6993C257.28 33.0374 256.576 35.6963 256.597 38.399C256.576 41.1016 257.28 43.7605 258.636 46.0986C259.965 48.4203 261.877 50.3553 264.182 51.7128C266.487 53.0953 269.127 53.8175 271.815 53.8005ZM308.801 53.525V48.3919H294.914V23.3696H289.735V53.525H308.801ZM326.676 53.8005C329.36 53.8183 331.998 53.1051 334.307 51.7376C336.617 50.3893 338.537 48.462 339.875 46.1458C341.245 43.8124 341.957 41.1518 341.937 38.4462C341.957 35.7406 341.245 33.08 339.875 30.7466C338.535 28.4329 336.615 26.5084 334.305 25.1627C331.995 23.7951 329.357 23.082 326.674 23.0998C323.99 23.082 321.352 23.7951 319.043 25.1627C316.732 26.5106 314.813 28.4374 313.474 30.7533C312.105 33.0867 311.392 35.7473 311.413 38.4529C311.392 41.1585 312.105 43.8191 313.474 46.1525C314.813 48.4688 316.732 50.3961 319.043 51.7443C321.353 53.1095 323.991 53.8203 326.674 53.8005H326.676ZM326.676 28.2272C328.456 28.2143 330.206 28.6898 331.735 29.6021C333.258 30.4991 334.522 31.7777 335.401 33.312C336.301 34.8716 336.767 36.6442 336.75 38.445C336.767 40.2459 336.301 42.0185 335.401 43.5781C334.522 45.1124 333.258 46.3911 331.735 47.288C330.206 48.2003 328.456 48.6758 326.676 48.6629C324.896 48.6758 323.146 48.2003 321.617 47.288C320.089 46.3862 318.824 45.0982 317.951 43.5534C317.056 42 316.591 40.2366 316.602 38.4439C316.591 36.6513 317.056 34.8879 317.951 33.3345C318.824 31.7896 320.089 30.5017 321.617 29.5999C323.146 28.6892 324.894 28.2148 326.674 28.2284L326.676 28.2272ZM367.877 23.3696V28.5488H358.802V53.5262H353.669V28.5488H344.638V23.3696H367.877ZM391.662 53.525H396.842L396.795 23.3696H391.662V35.8347H379.057V23.3696H373.921V53.525H379.054V41.0138H391.658L391.662 53.525ZM410.549 53.525V23.3696H405.37V53.525H410.549ZM438.092 53.525V48.3919H424.199V41.0138H434.648V35.8347H424.199V28.5476H438.085V23.3685H419.02V53.5239L438.092 53.525ZM460.41 53.525L450.282 40.2348V53.525H445.149L445.103 23.3696H456.148C457.562 23.3605 458.966 23.601 460.296 24.0801C461.556 24.5307 462.716 25.2235 463.71 26.1194C464.659 26.9354 465.425 27.9425 465.958 29.0749C466.474 30.1718 466.74 31.3693 466.737 32.5812C466.737 34.4449 466.108 36.2539 464.95 37.7143C463.953 38.9977 462.621 39.9811 461.101 40.5563C460.482 40.79 459.846 40.9738 459.198 41.106C458.68 41.2302 458.151 41.3055 457.618 41.3309L466.783 53.5217L460.41 53.525ZM450.282 28.5476V36.6598H454.779C456.251 36.72 457.718 36.4703 459.087 35.9269C459.773 35.6418 460.373 35.184 460.829 34.598C461.301 34.032 461.56 33.3185 461.562 32.5812C461.556 32.0713 461.438 31.5687 461.216 31.1094C460.995 30.6501 460.675 30.2453 460.279 29.9237C459.129 28.9571 457.654 28.4654 456.154 28.5488L450.282 28.5476ZM135.066 69.0983C135.066 68.8364 135.153 68.7487 135.415 68.7487H147.614C147.898 68.7487 147.942 68.8364 147.942 69.0983V69.9729C147.942 70.2349 147.876 70.3226 147.614 70.3226H142.367V83.7005C142.367 83.9624 142.301 84.0501 142.039 84.0501H140.99C140.706 84.0501 140.641 83.9624 140.641 83.7005V70.3226H135.415C135.131 70.3226 135.066 70.2349 135.066 69.9729V69.0983ZM162.196 75.613H170.81V69.0927C170.81 68.8307 170.876 68.7431 171.138 68.7431H172.187C172.449 68.7431 172.536 68.8307 172.536 69.0927V83.696C172.536 83.9579 172.449 84.0456 172.187 84.0456H171.138C170.875 84.0456 170.81 83.9579 170.81 83.696V77.1374H162.196V83.696C162.196 83.9579 162.13 84.0456 161.868 84.0456H160.819C160.557 84.0456 160.469 83.9579 160.469 83.696V69.0927C160.469 68.8307 160.557 68.7431 160.819 68.7431H161.868C162.131 68.7431 162.196 68.8307 162.196 69.0927V75.613ZM197.35 83.7016C197.35 83.9636 197.283 84.0512 197.021 84.0512L187.294 84.0501C187.032 84.0501 186.944 83.9624 186.944 83.7005V69.0972C186.944 68.8352 187.032 68.7476 187.294 68.7476H197.022C197.263 68.7476 197.351 68.8352 197.351 69.0972V69.9066C197.351 70.1685 197.263 70.2562 197.022 70.2562H188.671V75.5681H196.628C196.89 75.5681 196.977 75.6557 196.977 75.9177V76.7271C196.977 76.989 196.89 77.0767 196.628 77.0767H188.671V82.5426H197.021C197.284 82.5426 197.35 82.6303 197.35 82.8922V83.7016ZM224.568 69.0983C224.568 68.8364 224.655 68.7487 224.917 68.7487H237.112C237.397 68.7487 237.441 68.8364 237.441 69.0983V69.9729C237.441 70.2349 237.374 70.3226 237.112 70.3226H231.866V83.7005C231.866 83.9624 231.799 84.0501 231.538 84.0501H230.489C230.204 84.0501 230.139 83.9624 230.139 83.7005V70.3226H224.917C224.633 70.3226 224.568 70.2349 224.568 69.9729V69.0983ZM250.321 84.0501C250.059 84.0501 249.971 83.9624 249.971 83.7005V69.0972C249.971 68.8352 250.059 68.7476 250.321 68.7476H251.369C251.633 68.7476 251.698 68.8352 251.698 69.0972V83.7005C251.698 83.9624 251.631 84.0501 251.369 84.0501H250.321ZM282.632 83.7005L281.364 72.3101L275.416 83.986C275.307 84.2041 275.198 84.3357 275.023 84.3357H274.847C274.677 84.3357 274.59 84.2106 274.444 84.0022L274.432 83.986L268.53 72.3337L267.241 83.7016C267.197 83.9636 267.153 84.0512 266.891 84.0512H265.82C265.579 84.0512 265.47 83.9422 265.514 83.7016L267.345 68.661C267.367 68.5081 267.389 68.4643 267.542 68.4643H267.674C267.76 68.4643 267.823 68.4856 267.936 68.661L274.932 81.8872L281.927 68.661C282.036 68.4856 282.102 68.4643 282.189 68.4643H282.33C282.483 68.4643 282.505 68.5081 282.527 68.661L284.36 83.7005C284.382 83.9377 284.294 84.0501 284.032 84.0501H282.961C282.72 84.0501 282.654 83.9624 282.632 83.7005ZM308.385 83.7016C308.385 83.9636 308.319 84.0512 308.057 84.0512L298.328 84.0501C298.066 84.0501 297.979 83.9624 297.979 83.7005V69.0972C297.979 68.8352 298.066 68.7476 298.328 68.7476H308.057C308.298 68.7476 308.385 68.8352 308.385 69.0972V69.9066C308.385 70.1685 308.298 70.2562 308.057 70.2562H299.705V75.5681H307.663C307.924 75.5681 308.012 75.6557 308.012 75.9177V76.7271C308.012 76.989 307.924 77.0767 307.663 77.0767H299.705V82.5426H308.057C308.32 82.5426 308.385 82.6303 308.385 82.8922V83.7016ZM337.985 84.0512C337.724 84.0512 337.636 83.9636 337.636 83.7016V69.0983C337.636 68.8364 337.724 68.7487 337.985 68.7487H339.034C339.297 68.7487 339.363 68.8364 339.363 69.0983V83.7016C339.363 83.9636 339.296 84.0512 339.034 84.0512H337.985ZM363.214 71.4805C361.936 70.5672 360.411 70.0641 358.842 70.0381C355.518 70.0381 354.797 71.8964 354.793 73.0431C354.793 74.8351 356.827 75.2949 359.232 75.6007C362.052 75.9716 364.457 76.8463 364.457 79.7759C364.457 82.1143 362.642 84.3008 358.882 84.3008C356.786 84.3761 354.719 83.7858 352.979 82.6145C352.76 82.483 352.76 82.3739 352.891 82.1334L353.307 81.4341C353.46 81.1902 353.548 81.1497 353.81 81.3026C355.25 82.2533 356.937 82.7613 358.663 82.764C360.674 82.764 362.773 82.1075 362.773 79.8344C362.773 78.0199 361.133 77.4297 358.269 77.0363C355.887 76.708 353.11 75.9863 353.11 73.0791C353.11 71.3962 354.377 68.5104 358.619 68.5104C360.538 68.5086 362.413 69.0878 363.997 70.1719C364.241 70.3034 364.197 70.435 364.11 70.6531L363.695 71.3276C363.563 71.5682 363.432 71.6559 363.214 71.4805ZM405.401 84.1614L395.241 71.9403L395.236 83.7027C395.236 83.9647 395.149 84.0524 394.887 84.0524H393.859C393.597 84.0524 393.51 83.9647 393.51 83.7027V68.6385C393.51 68.4845 393.553 68.4631 393.706 68.4631H393.819C393.875 68.4609 393.932 68.4739 393.982 68.5008C394.032 68.5277 394.074 68.5675 394.103 68.616L404.291 80.7708V69.0972C404.291 68.8128 404.378 68.7476 404.64 68.7476H405.689C405.952 68.7476 406.017 68.8128 406.017 69.0972V84.1614C406.017 84.3154 405.973 84.3368 405.842 84.3368H405.73C405.665 84.3327 405.603 84.3149 405.546 84.2847C405.49 84.2544 405.44 84.2124 405.401 84.1614ZM421.676 81.9799C420.21 80.4934 419.391 78.4877 419.398 76.4C419.391 74.3122 420.21 72.3065 421.676 70.82C423.142 69.3336 425.137 68.4868 427.224 68.4643C429.312 68.4868 431.306 69.3336 432.772 70.82C434.238 72.3065 435.057 74.3122 435.051 76.4C435.057 78.4877 434.238 80.4934 432.772 81.9799C431.306 83.4664 429.312 84.3131 427.224 84.3357C425.137 84.3131 423.142 83.4664 421.676 81.9799ZM422.893 71.9706C421.76 73.1655 421.134 74.7531 421.147 76.4C421.138 78.0457 421.765 79.6313 422.897 80.8255C424.03 82.0196 425.58 82.7299 427.224 82.8079C428.871 82.7374 430.425 82.0294 431.559 80.8336C432.694 79.6378 433.318 78.0479 433.302 76.4C433.322 74.7509 432.698 73.159 431.564 71.9624C430.429 70.7658 428.872 70.0589 427.224 69.992C425.579 70.0665 424.027 70.7756 422.893 71.9706ZM447.861 68.7431C448.102 68.7431 448.211 68.8307 448.298 69.0927L452.431 80.7506L456.105 68.8139C456.193 68.5767 456.258 68.4643 456.411 68.4643H456.629C456.782 68.4643 456.847 68.5733 456.934 68.8139L460.607 80.7506L464.741 69.0927C464.829 68.8307 464.938 68.7431 465.178 68.7431H466.511C466.73 68.7431 466.777 68.8307 466.664 69.0927L461.002 84.112L460.981 84.1577C460.907 84.3229 460.864 84.4177 460.761 84.4177H460.608C460.521 84.4177 460.455 84.3087 460.368 84.112L456.52 71.7166L452.672 84.112C452.584 84.3053 452.519 84.4177 452.431 84.4177H452.278C452.19 84.4177 452.125 84.33 452.037 84.112L446.375 69.0927C446.266 68.8307 446.31 68.7431 446.528 68.7431H447.861Z" fill="white"/>
</svg>
