<svg xmlns="http://www.w3.org/2000/svg" width="48" height="55" viewBox="0 0 48 55" fill="none"><path fill-rule="evenodd" clip-rule="evenodd" d="M9.91175 10.2184L9.89252 7.16942C9.88654 6.22205 9.05342 5.67444 9.00972 5.64573L9.00941 5.64552L8.28961 5.19703L9.00533 4.75675L9.00545 4.75667C9.04216 4.73286 9.87071 4.19555 9.86472 3.24689L9.84549 0.197912C9.84879 0.133632 9.8462 0.0883733 9.84507 0.0686902L9.84507 0.0685735L9.84505 0.0683659L9.84462 0.0591843L9.25326 0.0783183L9.25398 0.192656C9.24305 0.393812 9.16529 0.873515 8.66873 1.17984L5.23616 3.29453L1.53013 0.985416C1.02359 0.67581 0.946185 0.00457347 0.946156 0L0.354828 0.0237072L0.37362 3.00256C0.379794 3.98128 1.12535 4.48142 1.15596 4.50143L2.20997 5.15886L1.16873 5.80033L1.16265 5.80334C1.13077 5.82448 0.392993 6.31526 0.399157 7.29246L0.417949 10.2713L0.973148 10.3006L0.4198 10.3227L0.438592 13.3016C0.444766 14.2803 1.19032 14.7805 1.22093 14.8005L2.27494 15.4579L1.2337 16.0994L1.22762 16.1024C1.19574 16.1235 0.457966 16.6143 0.46413 17.5915L0.482922 20.5703L1.03815 20.5996L0.48476 20.6218L0.503552 23.6006C0.509726 24.5794 1.25528 25.0795 1.28589 25.0995L2.3399 25.7569L1.29866 26.3984L1.29258 26.4014C1.2607 26.4226 0.522926 26.9133 0.52909 27.8905L0.547692 30.8394H0.541584V32.0892C0.541584 44.6519 10.448 55 23.2715 55H23.2911C15.5383 51.4722 10.0173 43.7308 10.0173 34.6762V30.9511L10.041 30.9521L10.0414 30.9426C10.0422 30.9229 10.0443 30.878 10.0401 30.8149L10.0417 30.8165L10.0225 27.7675C10.0165 26.8201 9.18333 26.2725 9.13966 26.2438L9.13934 26.2436L8.41953 25.7951L9.13526 25.3548L9.13538 25.3547C9.17209 25.3309 10.0006 24.7936 9.99466 23.845L9.97542 20.796C9.97873 20.7317 9.97613 20.6864 9.975 20.6668L9.97455 20.6573L9.38319 20.6764L9.38391 20.7907C9.37298 20.9919 9.29522 21.4716 8.79866 21.7779L5.36609 23.8926L1.66006 21.5835C1.15352 21.2739 1.07612 20.6027 1.07609 20.5981L1.07498 20.5981C1.08104 20.5462 1.16442 19.9125 1.64921 19.6204L1.6477 19.6219L5.32453 17.36L8.78595 19.519C9.28641 19.8317 9.37024 20.3139 9.3837 20.5137L9.38441 20.6265L9.97606 20.6531L9.9764 20.6436C9.97728 20.6239 9.97929 20.5789 9.97519 20.5159L9.97673 20.5174L9.95749 17.4685C9.95151 16.5211 9.11839 15.9735 9.07469 15.9448L9.07438 15.9446L8.35458 15.4961L9.0703 15.0558L9.07043 15.0557C9.10717 15.0319 9.93568 14.4946 9.9297 13.5459L9.91046 10.4969C9.91377 10.4327 9.91117 10.3874 9.91004 10.3677L9.90962 10.3595L9.90959 10.3582L9.31823 10.3774L9.31895 10.4917C9.30803 10.6929 9.23026 11.1726 8.7337 11.4789L5.30113 13.5936L1.5951 11.2845C1.08856 10.9748 1.01116 10.3036 1.01113 10.299L1.01 10.2991C1.01607 10.2471 1.09945 9.61346 1.58424 9.32133L1.58273 9.32284L5.25956 7.061L8.72097 9.22001C9.22143 9.53262 9.30527 10.0149 9.31873 10.2147L9.31944 10.3275L9.91108 10.3541L9.91142 10.3445C9.9123 10.3249 9.91432 10.2799 9.91022 10.2169L9.91175 10.2184ZM5.38466 27.6621L5.38249 27.6607L1.70566 29.9225L1.70717 29.921C1.22237 30.2132 1.139 30.8469 1.13293 30.8988L1.13405 30.8987C1.13407 30.9033 1.21148 31.5746 1.71802 31.8842L5.42405 34.1933L8.85662 32.0786C9.35317 31.7723 9.43094 31.2926 9.44187 31.0914L9.44237 30.9272L9.44181 30.8394H9.44882L9.44866 30.8127C9.4352 30.613 9.35137 30.1307 8.85091 29.8181L5.38949 27.6591L5.38466 27.6621ZM8.68205 4.25774L7.72595 4.84584L7.04383 4.42083L9.04877 3.18534C9.13077 3.13555 9.2036 3.08113 9.2688 3.02514L9.27018 3.24466C9.27401 3.85141 8.71393 4.2366 8.68205 4.25774ZM7.16575 5.19042L6.48401 4.76581L5.81011 5.18108L6.49061 5.6057L7.16575 5.19042ZM8.7361 2.67725L6.47812 4.06835L5.8003 3.64603L8.98442 1.6849C9.0892 1.62001 9.18023 1.55046 9.26209 1.4778L9.26365 1.72629L9.26367 1.72805C9.26424 1.77094 9.27186 2.34654 8.7361 2.67725ZM5.91812 4.41336L5.2401 3.99106L4.56718 4.40552L5.24467 4.82826L5.91812 4.41336ZM1.22385 1.48959L4.67592 3.63967L4.00361 4.05386L1.63774 2.5776L1.61937 2.56528L1.59644 2.55599C1.57046 2.54516 0.961962 2.26387 0.9565 1.39796L0.955768 1.2821C1.03245 1.35576 1.12132 1.42644 1.22232 1.48806L1.22385 1.48959ZM1.34217 3.08794L3.44339 4.39899L2.76937 4.81423L1.47449 4.00648C1.43161 3.97572 0.967587 3.63894 0.963587 3.00476L0.962462 2.82639C1.12958 2.97837 1.28102 3.06011 1.34217 3.08794ZM1.48745 6.30235L2.77343 5.51031L3.4513 5.93312L1.36366 7.21927C1.312 7.24639 1.1601 7.33232 0.993405 7.48981L0.992173 7.29468C0.988144 6.65592 1.45406 6.325 1.48897 6.30083L1.48745 6.30235ZM3.33287 5.16574L4.01062 5.58853L4.6845 5.17337L4.00691 4.75059L3.33287 5.16574ZM1.65355 7.74246L4.01706 6.286L4.69607 6.70953L1.26856 8.8178C1.16833 8.87814 1.07882 8.9477 1.00002 9.0219L0.999291 8.90604L1.0008 8.903C0.997108 8.07674 1.61556 7.76051 1.63987 7.74847L1.65355 7.74246ZM4.57629 5.94139L5.25577 6.36526L5.93003 5.95052L5.25002 5.52623L4.57629 5.94139ZM9.0288 8.71888L5.8192 6.71673L6.49337 6.30201L8.76639 7.72026C9.31735 8.06368 9.30735 8.65357 9.30598 8.67795L9.30756 8.92797C9.22783 8.85429 9.13438 8.78205 9.02879 8.71736L9.0288 8.71888ZM9.0788 7.22069L7.0539 5.95719L7.72953 5.54157L8.69853 6.14509L8.69981 6.14599C8.74224 6.17571 9.29722 6.56447 9.30102 7.16569L9.3024 7.38521C9.23497 7.32838 9.16145 7.27304 9.0788 7.22069ZM8.74702 14.5568L7.79093 15.1449L7.1088 14.7199L9.11374 13.4844C9.19575 13.4346 9.26857 13.3802 9.33377 13.3242L9.33516 13.5437C9.33898 14.1504 8.7789 14.5356 8.74702 14.5568ZM7.23072 15.4895L6.54898 15.0648L5.87508 15.4801L6.55558 15.9047L7.23072 15.4895ZM8.80108 12.9763L6.54309 14.3674L5.86527 13.9451L9.0494 11.9839C9.15417 11.919 9.2452 11.8495 9.32706 11.7768L9.32863 12.0253L9.32865 12.0271C9.32922 12.07 9.33683 12.6456 8.80108 12.9763ZM5.9831 14.7124L5.30507 14.2901L4.63215 14.7046L5.30964 15.1273L5.9831 14.7124ZM1.28883 11.7886L4.7409 13.9387L4.06858 14.3529L1.70271 12.8766L1.68434 12.8643L1.66142 12.855C1.63543 12.8442 1.02693 12.5629 1.02147 11.697L1.02074 11.5811C1.09743 11.6548 1.18629 11.7255 1.28729 11.7871L1.28883 11.7886ZM1.40714 13.387L3.50836 14.698L2.83434 15.1133L1.53946 14.3055C1.49659 14.2748 1.03256 13.938 1.02856 13.3038L1.02743 13.1254C1.19456 13.2774 1.34599 13.3592 1.40714 13.387ZM1.55242 16.6014L2.8384 15.8093L3.51627 16.2322L1.42863 17.5183C1.37697 17.5454 1.22507 17.6314 1.05838 17.7889L1.05715 17.5937C1.05312 16.955 1.51903 16.624 1.55394 16.5999L1.55242 16.6014ZM3.39784 15.4648L4.0756 15.8876L4.74947 15.4724L4.07188 15.0496L3.39784 15.4648ZM1.71852 18.0415L4.08203 16.585L4.76104 17.0086L1.33353 19.1168C1.2333 19.1772 1.1438 19.2467 1.06499 19.3209L1.06426 19.2051L1.06577 19.202C1.06208 18.3758 1.68053 18.0595 1.70484 18.0475L1.71852 18.0415ZM4.64126 16.2404L5.32074 16.6643L5.995 16.2496L5.31499 15.8253L4.64126 16.2404ZM9.09377 19.0179L5.88418 17.0158L6.55834 16.601L8.83136 18.0193C9.38232 18.3627 9.37232 18.9526 9.37095 18.977L9.37253 19.227C9.2928 19.1533 9.19935 19.0811 9.09376 19.0164L9.09377 19.0179ZM9.14377 17.5197L7.11887 16.2562L7.79451 15.8406L8.7635 16.4441L8.76478 16.445C8.80722 16.4748 9.3622 16.8635 9.36599 17.4647L9.36737 17.6843C9.29994 17.6274 9.22642 17.5721 9.14377 17.5197ZM8.81198 24.8558L7.85589 25.4439L7.17376 25.0189L9.1787 23.7834C9.2607 23.7336 9.33354 23.6792 9.39873 23.6232L9.40012 23.8427C9.40394 24.4495 8.84386 24.8347 8.81198 24.8558ZM7.29568 25.7885L6.61394 25.3639L5.94004 25.7792L6.62054 26.2038L7.29568 25.7885ZM8.86604 23.2753L6.60805 24.6664L5.93023 24.2441L9.11436 22.283C9.21913 22.2181 9.31016 22.1485 9.39202 22.0759L9.39359 22.3244L9.39361 22.3261C9.39417 22.369 9.40179 22.9446 8.86604 23.2753ZM6.04806 25.0114L5.37003 24.5891L4.69711 25.0036L5.3746 25.4263L6.04806 25.0114ZM1.35378 22.0877L4.80586 24.2377L4.13354 24.6519L1.76767 23.1757L1.7493 23.1634L1.72638 23.1541C1.70039 23.1432 1.09189 22.862 1.08643 21.996L1.0857 21.8802C1.16239 21.9538 1.25125 22.0245 1.35225 22.0861L1.35378 22.0877ZM1.4721 23.686L3.57332 24.9971L2.8993 25.4123L1.60442 24.6046C1.56155 24.5738 1.09752 24.237 1.09352 23.6028L1.09239 23.4245C1.25951 23.5764 1.41095 23.6582 1.4721 23.686ZM1.61738 26.9004L2.90336 26.1084L3.58123 26.5312L1.49359 27.8174C1.44193 27.8445 1.29003 27.9304 1.12334 28.0879L1.12211 27.8928C1.11808 27.254 1.58399 26.9231 1.6189 26.8989L1.61738 26.9004ZM3.4628 25.7638L4.14056 26.1866L4.81443 25.7715L4.13684 25.3487L3.4628 25.7638ZM1.78348 28.3405L4.14699 26.8841L4.826 27.3076L1.39849 29.4159C1.29826 29.4762 1.20876 29.5458 1.12995 29.62L1.12922 29.5041L1.13073 29.5011C1.12704 28.6748 1.74549 28.3586 1.7698 28.3465L1.78348 28.3405ZM4.70622 26.5395L5.3857 26.9633L6.05996 26.5486L5.37995 26.1243L4.70622 26.5395ZM9.15873 29.317L5.94913 27.3148L6.6233 26.9001L8.89632 28.3183C9.44728 28.6618 9.43728 29.2516 9.43591 29.276L9.43749 29.526C9.35776 29.4524 9.26431 29.3801 9.15872 29.3154L9.15873 29.317ZM9.20873 27.8188L7.18383 26.5553L7.85946 26.1396L8.82846 26.7432L8.82974 26.7441C8.87219 26.7738 9.42716 27.1625 9.43095 27.7638L9.43233 27.9833C9.3649 27.9265 9.29138 27.8711 9.20873 27.8188ZM47.8799 30.9504C47.7849 41.542 41.219 49.9631 32.4535 49.9631C27.2262 49.9631 22.6254 47.0821 19.8258 43.1428C21.255 43.574 22.7625 43.7896 24.3483 43.7896C32.2382 43.7896 38.4052 38.5567 38.4052 30.7172V30.8394H38.4261L38.4075 27.8905C38.4014 26.9133 39.1391 26.4226 39.171 26.4014L39.1771 26.3984L40.2183 25.7569L39.1643 25.0995C39.1337 25.0795 38.3882 24.5794 38.382 23.6006L38.3632 20.6218L38.9166 20.5996L38.3614 20.5703L38.3426 17.5915C38.3364 16.6143 39.0742 16.1235 39.1061 16.1024L39.1121 16.0994L40.1534 15.4579L39.0994 14.8005C39.0688 14.7805 38.3232 14.2803 38.317 13.3016L38.2982 10.3227L38.8516 10.3006L38.2964 10.2713L38.2776 7.29246C38.2714 6.31526 39.0092 5.82448 39.0411 5.80334L39.0472 5.80033L40.0884 5.15886L39.0344 4.50143C39.0038 4.48142 38.2582 3.98128 38.2521 3.00256L38.2333 0.0237072L38.8246 0C38.8246 0.00457347 38.902 0.67581 39.4086 0.985416L43.1146 3.29453L46.5472 1.17984C47.0437 0.873515 47.1215 0.393812 47.1324 0.192656L47.1317 0.0783183L47.723 0.0591843L47.7235 0.0687137C47.7246 0.0884094 47.7272 0.133658 47.7239 0.197912L47.7432 3.24689C47.7491 4.19554 46.9206 4.73285 46.8839 4.75667L46.8838 4.75675L46.168 5.19703L46.8878 5.64552L46.8882 5.64572C46.9318 5.67442 47.765 6.22203 47.771 7.16942L47.7902 10.2184L47.7887 10.2169C47.7927 10.2798 47.7907 10.3247 47.7899 10.3444V10.3445L47.7896 10.3511L47.7895 10.3541L47.1979 10.3275L47.1972 10.2147C47.1837 10.0149 47.0999 9.53262 46.5994 9.22001L43.138 7.061L39.4612 9.32284L39.4627 9.32133C38.9779 9.61346 38.8945 10.2471 38.8884 10.2991L38.8896 10.299C38.8896 10.3036 38.967 10.9748 39.4735 11.2845L43.1796 13.5936L46.6121 11.4789C47.1087 11.1726 47.1865 10.6929 47.1974 10.4917L47.1967 10.3774L47.788 10.3582L47.7885 10.3678V10.3678V10.3678C47.7896 10.3876 47.7922 10.4328 47.7889 10.4969L47.8081 13.5459C47.8141 14.4946 46.9856 15.0319 46.9489 15.0557L46.9487 15.0558L46.233 15.4961L46.9528 15.9446L46.9531 15.9448C46.9968 15.9735 47.8299 16.5211 47.8359 17.4685L47.8552 20.5174L47.8536 20.5159C47.8577 20.579 47.8557 20.6239 47.8548 20.6436L47.8548 20.6439L47.8545 20.6531L47.2628 20.6265L47.2621 20.5137C47.2487 20.3139 47.1648 19.8317 46.6644 19.519L43.203 17.36L39.5261 19.6219L39.5276 19.6204C39.0429 19.9125 38.9595 20.5462 38.9534 20.5981L38.9545 20.5981C38.9545 20.6027 39.032 21.2739 39.5385 21.5835L43.2445 23.8926L46.6771 21.7779C47.1737 21.4716 47.2514 20.9919 47.2623 20.7907L47.2616 20.6764L47.853 20.6573L47.8534 20.6667V20.6668C47.8546 20.6865 47.8572 20.7318 47.8539 20.796L47.8731 23.845C47.8791 24.7936 47.0505 25.3309 47.0138 25.3547L47.0137 25.3548L46.298 25.7951L47.0178 26.2436L47.0181 26.2438C47.0617 26.2725 47.8949 26.8201 47.9009 27.7675L47.9201 30.8165L47.9186 30.8149C47.9227 30.878 47.9207 30.923 47.9198 30.9426L47.9198 30.9429L47.9194 30.9521L47.8799 30.9504ZM47.3273 30.8394L47.3271 30.8127C47.3136 30.613 47.2298 30.1307 46.7293 29.8181L43.2679 27.6591L43.2631 27.6621L43.2609 27.6607L39.5841 29.9225L39.5856 29.921C39.1008 30.2132 39.0174 30.8469 39.0114 30.8988L39.0125 30.8987C39.0125 30.9033 39.0899 31.5746 39.5965 31.8842L43.3025 34.1933L46.7351 32.0786C47.2316 31.7723 47.3094 31.2926 47.3203 31.0914L47.3208 30.9272L47.3202 30.8394H47.3273ZM45.6044 4.84584L46.5605 4.25774C46.5924 4.2366 47.1524 3.85141 47.1486 3.24466L47.1472 3.02514C47.082 3.08113 47.0092 3.13555 46.9272 3.18534L44.9223 4.42083L45.6044 4.84584ZM44.3624 4.76581L45.0442 5.19042L44.369 5.6057L43.6885 5.18108L44.3624 4.76581ZM44.3566 4.06835L46.6145 2.67725C47.1503 2.34655 47.1427 1.77097 47.1421 1.72805L47.1421 1.72629L47.1405 1.4778C47.0587 1.55046 46.9676 1.62001 46.8629 1.6849L43.6787 3.64603L44.3566 4.06835ZM43.1185 3.99106L43.7966 4.41336L43.1231 4.82826L42.4456 4.40552L43.1185 3.99106ZM42.5544 3.63967L39.1023 1.48959L39.1007 1.48806C38.9998 1.42644 38.9109 1.35576 38.8342 1.2821L38.8349 1.39796C38.8404 2.26387 39.4489 2.54516 39.4749 2.55599L39.4978 2.56528L39.5162 2.5776L41.882 4.05386L42.5544 3.63967ZM41.3218 4.39899L39.2206 3.08794C39.1595 3.06011 39.008 2.97837 38.8409 2.82639L38.842 3.00476C38.846 3.63894 39.31 3.97572 39.3529 4.00648L40.6478 4.81423L41.3218 4.39899ZM40.6519 5.51031L39.3659 6.30235L39.3674 6.30083C39.3325 6.325 38.8666 6.65592 38.8706 7.29468L38.8718 7.48981C39.0385 7.33232 39.1904 7.24639 39.2421 7.21927L41.3297 5.93312L40.6519 5.51031ZM41.8891 5.58853L41.2113 5.16574L41.8853 4.75059L42.5629 5.17337L41.8891 5.58853ZM41.8955 6.286L39.532 7.74246L39.5183 7.74847C39.494 7.76051 38.8755 8.07674 38.8792 8.903L38.8777 8.90604L38.8785 9.0219C38.9573 8.9477 39.0468 8.87814 39.147 8.8178L42.5745 6.70953L41.8955 6.286ZM43.1342 6.36526L42.4547 5.94139L43.1285 5.52623L43.8085 5.95052L43.1342 6.36526ZM43.6976 6.71673L46.9072 8.71888L46.9072 8.71736C47.0128 8.78205 47.1063 8.85429 47.186 8.92797L47.1844 8.67795C47.1858 8.65357 47.1958 8.06368 46.6448 7.72026L44.3718 6.30201L43.6976 6.71673ZM44.9323 5.95719L46.9572 7.22069C47.0399 7.27304 47.1134 7.32838 47.1808 7.38521L47.1795 7.16569C47.1757 6.56445 46.6206 6.17569 46.5782 6.14599L46.577 6.14509L45.608 5.54157L44.9323 5.95719ZM45.6694 15.1449L46.6255 14.5568C46.6573 14.5356 47.2174 14.1504 47.2136 13.5437L47.2122 13.3242C47.147 13.3802 47.0742 13.4346 46.9922 13.4844L44.9872 14.7199L45.6694 15.1449ZM44.4274 15.0648L45.1092 15.4895L44.434 15.9047L43.7535 15.4801L44.4274 15.0648ZM44.4215 14.3674L46.6795 12.9763C47.2153 12.6456 47.2076 12.0699 47.2071 12.0271L47.2071 12.0253L47.2055 11.7768C47.1236 11.8495 47.0326 11.919 46.9278 11.9839L43.7437 13.9451L44.4215 14.3674ZM43.1835 14.2901L43.8615 14.7124L43.1881 15.1273L42.5106 14.7046L43.1835 14.2901ZM42.6193 13.9387L39.1673 11.7886L39.1657 11.7871C39.0647 11.7255 38.9759 11.6548 38.8992 11.5811L38.8999 11.697C38.9054 12.5629 39.5139 12.8442 39.5398 12.855L39.5628 12.8643L39.5811 12.8766L41.947 14.3529L42.6193 13.9387ZM41.3868 14.698L39.2856 13.387C39.2244 13.3592 39.073 13.2774 38.9059 13.1254L38.907 13.3038C38.911 13.938 39.375 14.2748 39.4179 14.3055L40.7128 15.1133L41.3868 14.698ZM40.7168 15.8093L39.4309 16.6014L39.4324 16.5999C39.3975 16.624 38.9315 16.955 38.9356 17.5937L38.9368 17.7889C39.1035 17.6314 39.2554 17.5454 39.3071 17.5183L41.3947 16.2322L40.7168 15.8093ZM41.954 15.8876L41.2763 15.4648L41.9503 15.0496L42.6279 15.4724L41.954 15.8876ZM41.9605 16.585L39.597 18.0415L39.5833 18.0475C39.559 18.0595 38.9405 18.3758 38.9442 19.202L38.9427 19.2051L38.9434 19.3209C39.0222 19.2467 39.1117 19.1772 39.212 19.1168L42.6395 17.0086L41.9605 16.585ZM43.1992 16.6643L42.5197 16.2404L43.1934 15.8253L43.8734 16.2496L43.1992 16.6643ZM43.7626 17.0158L46.9722 19.0179L46.9722 19.0164C47.0778 19.0811 47.1712 19.1533 47.251 19.227L47.2494 18.977C47.2508 18.9526 47.2608 18.3627 46.7098 18.0193L44.4368 16.601L43.7626 17.0158ZM44.9973 16.2562L47.0222 17.5197C47.1049 17.5721 47.1784 17.6274 47.2458 17.6843L47.2444 17.4647C47.2406 16.8635 46.6856 16.4747 46.6432 16.445L46.6419 16.4441L45.6729 15.8406L44.9973 16.2562ZM45.7343 25.4439L46.6904 24.8558C46.7223 24.8347 47.2824 24.4495 47.2786 23.8427L47.2772 23.6232C47.212 23.6792 47.1391 23.7336 47.0571 23.7834L45.0522 25.0189L45.7343 25.4439ZM44.4924 25.3639L45.1741 25.7885L44.499 26.2038L43.8185 25.7792L44.4924 25.3639ZM44.4865 24.6664L46.7445 23.2753C47.2802 22.9446 47.2726 22.369 47.272 22.3261L47.272 22.3244L47.2705 22.0759C47.1886 22.1485 47.0976 22.2181 46.9928 22.283L43.8087 24.2441L44.4865 24.6664ZM43.2485 24.5891L43.9265 25.0114L43.253 25.4263L42.5755 25.0036L43.2485 24.5891ZM42.6843 24.2377L39.2322 22.0877L39.2307 22.0861C39.1297 22.0245 39.0408 21.9538 38.9641 21.8802L38.9649 21.996C38.9703 22.862 39.5788 23.1432 39.6048 23.1541L39.6277 23.1634L39.6461 23.1757L42.012 24.6519L42.6843 24.2377ZM41.4518 24.9971L39.3505 23.686C39.2894 23.6582 39.1379 23.5764 38.9708 23.4245L38.972 23.6028C38.976 24.237 39.44 24.5738 39.4829 24.6046L40.7777 25.4123L41.4518 24.9971ZM40.7818 26.1084L39.4958 26.9004L39.4973 26.8989C39.4624 26.9231 38.9965 27.254 39.0005 27.8928L39.0018 28.0879C39.1685 27.9304 39.3204 27.8445 39.372 27.8174L41.4597 26.5312L40.7818 26.1084ZM42.019 26.1866L41.3412 25.7638L42.0153 25.3487L42.6929 25.7715L42.019 26.1866ZM42.0254 26.8841L39.6619 28.3405L39.6482 28.3465C39.6239 28.3586 39.0055 28.6748 39.0092 29.5011L39.0077 29.5041L39.0084 29.62C39.0872 29.5458 39.1767 29.4762 39.2769 29.4159L42.7044 27.3076L42.0254 26.8841ZM43.2641 26.9633L42.5847 26.5395L43.2584 26.1243L43.9384 26.5486L43.2641 26.9633ZM43.8276 27.3148L47.0372 29.317L47.0371 29.3154C47.1427 29.3801 47.2362 29.4524 47.3159 29.526L47.3144 29.276C47.3157 29.2516 47.3257 28.6618 46.7748 28.3183L44.5017 26.9001L43.8276 27.3148ZM45.0623 26.5553L47.0872 27.8188C47.1698 27.8711 47.2433 27.9265 47.3108 27.9833L47.3094 27.7638C47.3056 27.1626 46.7507 26.7738 46.7082 26.7441L46.7069 26.7432L45.7379 26.1396L45.0623 26.5553Z" fill="black"></path><path fill-rule="evenodd" clip-rule="evenodd" d="M9.91175 10.2184L9.89252 7.16942C9.88654 6.22205 9.05342 5.67444 9.00972 5.64573L9.00941 5.64552L8.28961 5.19703L9.00533 4.75675L9.00545 4.75667C9.04216 4.73286 9.87071 4.19555 9.86472 3.24689L9.84549 0.197912C9.84879 0.133632 9.8462 0.0883733 9.84507 0.0686902L9.84507 0.0685735L9.84505 0.0683659L9.84462 0.0591843L9.25326 0.0783183L9.25398 0.192656C9.24305 0.393812 9.16529 0.873515 8.66873 1.17984L5.23616 3.29453L1.53013 0.985416C1.02359 0.67581 0.946185 0.00457347 0.946156 0L0.354828 0.0237072L0.37362 3.00256C0.379794 3.98128 1.12535 4.48142 1.15596 4.50143L2.20997 5.15886L1.16873 5.80033L1.16265 5.80334C1.13077 5.82448 0.392993 6.31526 0.399157 7.29246L0.417949 10.2713L0.973148 10.3006L0.4198 10.3227L0.438592 13.3016C0.444766 14.2803 1.19032 14.7805 1.22093 14.8005L2.27494 15.4579L1.2337 16.0994L1.22762 16.1024C1.19574 16.1235 0.457966 16.6143 0.46413 17.5915L0.482922 20.5703L1.03815 20.5996L0.48476 20.6218L0.503552 23.6006C0.509726 24.5794 1.25528 25.0795 1.28589 25.0995L2.3399 25.7569L1.29866 26.3984L1.29258 26.4014C1.2607 26.4226 0.522926 26.9133 0.52909 27.8905L0.547692 30.8394H0.541584V32.0892C0.541584 44.6519 10.448 55 23.2715 55H23.2911C15.5383 51.4722 10.0173 43.7308 10.0173 34.6762V30.9511L10.041 30.9521L10.0414 30.9426C10.0422 30.9229 10.0443 30.878 10.0401 30.8149L10.0417 30.8165L10.0225 27.7675C10.0165 26.8201 9.18333 26.2725 9.13966 26.2438L9.13934 26.2436L8.41953 25.7951L9.13526 25.3548L9.13538 25.3547C9.17209 25.3309 10.0006 24.7936 9.99466 23.845L9.97542 20.796C9.97873 20.7317 9.97613 20.6864 9.975 20.6668L9.97455 20.6573L9.38319 20.6764L9.38391 20.7907C9.37298 20.9919 9.29522 21.4716 8.79866 21.7779L5.36609 23.8926L1.66006 21.5835C1.15352 21.2739 1.07612 20.6027 1.07609 20.5981L1.07498 20.5981C1.08104 20.5462 1.16442 19.9125 1.64921 19.6204L1.6477 19.6219L5.32453 17.36L8.78595 19.519C9.28641 19.8317 9.37024 20.3139 9.3837 20.5137L9.38441 20.6265L9.97606 20.6531L9.9764 20.6436C9.97728 20.6239 9.97929 20.5789 9.97519 20.5159L9.97673 20.5174L9.95749 17.4685C9.95151 16.5211 9.11839 15.9735 9.07469 15.9448L9.07438 15.9446L8.35458 15.4961L9.0703 15.0558L9.07043 15.0557C9.10717 15.0319 9.93568 14.4946 9.9297 13.5459L9.91046 10.4969C9.91377 10.4327 9.91117 10.3874 9.91004 10.3677L9.90962 10.3595L9.90959 10.3582L9.31823 10.3774L9.31895 10.4917C9.30803 10.6929 9.23026 11.1726 8.7337 11.4789L5.30113 13.5936L1.5951 11.2845C1.08856 10.9748 1.01116 10.3036 1.01113 10.299L1.01 10.2991C1.01607 10.2471 1.09945 9.61346 1.58424 9.32133L1.58273 9.32284L5.25956 7.061L8.72097 9.22001C9.22143 9.53262 9.30527 10.0149 9.31873 10.2147L9.31944 10.3275L9.91108 10.3541L9.91142 10.3445C9.9123 10.3249 9.91432 10.2799 9.91022 10.2169L9.91175 10.2184ZM5.38466 27.6621L5.38249 27.6607L1.70566 29.9225L1.70717 29.921C1.22237 30.2132 1.139 30.8469 1.13293 30.8988L1.13405 30.8987C1.13407 30.9033 1.21148 31.5746 1.71802 31.8842L5.42405 34.1933L8.85662 32.0786C9.35317 31.7723 9.43094 31.2926 9.44187 31.0914L9.44237 30.9272L9.44181 30.8394H9.44882L9.44866 30.8127C9.4352 30.613 9.35137 30.1307 8.85091 29.8181L5.38949 27.6591L5.38466 27.6621ZM8.68205 4.25774L7.72595 4.84584L7.04383 4.42083L9.04877 3.18534C9.13077 3.13555 9.2036 3.08113 9.2688 3.02514L9.27018 3.24466C9.27401 3.85141 8.71393 4.2366 8.68205 4.25774ZM7.16575 5.19042L6.48401 4.76581L5.81011 5.18108L6.49061 5.6057L7.16575 5.19042ZM8.7361 2.67725L6.47812 4.06835L5.8003 3.64603L8.98442 1.6849C9.0892 1.62001 9.18023 1.55046 9.26209 1.4778L9.26365 1.72629L9.26367 1.72805C9.26424 1.77094 9.27186 2.34654 8.7361 2.67725ZM5.91812 4.41336L5.2401 3.99106L4.56718 4.40552L5.24467 4.82826L5.91812 4.41336ZM1.22385 1.48959L4.67592 3.63967L4.00361 4.05386L1.63774 2.5776L1.61937 2.56528L1.59644 2.55599C1.57046 2.54516 0.961962 2.26387 0.9565 1.39796L0.955768 1.2821C1.03245 1.35576 1.12132 1.42644 1.22232 1.48806L1.22385 1.48959ZM1.34217 3.08794L3.44339 4.39899L2.76937 4.81423L1.47449 4.00648C1.43161 3.97572 0.967587 3.63894 0.963587 3.00476L0.962462 2.82639C1.12958 2.97837 1.28102 3.06011 1.34217 3.08794ZM1.48745 6.30235L2.77343 5.51031L3.4513 5.93312L1.36366 7.21927C1.312 7.24639 1.1601 7.33232 0.993405 7.48981L0.992173 7.29468C0.988144 6.65592 1.45406 6.325 1.48897 6.30083L1.48745 6.30235ZM3.33287 5.16574L4.01062 5.58853L4.6845 5.17337L4.00691 4.75059L3.33287 5.16574ZM1.65355 7.74246L4.01706 6.286L4.69607 6.70953L1.26856 8.8178C1.16833 8.87814 1.07882 8.9477 1.00002 9.0219L0.999291 8.90604L1.0008 8.903C0.997108 8.07674 1.61556 7.76051 1.63987 7.74847L1.65355 7.74246ZM4.57629 5.94139L5.25577 6.36526L5.93003 5.95052L5.25002 5.52623L4.57629 5.94139ZM9.0288 8.71888L5.8192 6.71673L6.49337 6.30201L8.76639 7.72026C9.31735 8.06368 9.30735 8.65357 9.30598 8.67795L9.30756 8.92797C9.22783 8.85429 9.13438 8.78205 9.02879 8.71736L9.0288 8.71888ZM9.0788 7.22069L7.0539 5.95719L7.72953 5.54157L8.69853 6.14509L8.69981 6.14599C8.74224 6.17571 9.29722 6.56447 9.30102 7.16569L9.3024 7.38521C9.23497 7.32838 9.16145 7.27304 9.0788 7.22069ZM8.74702 14.5568L7.79093 15.1449L7.1088 14.7199L9.11374 13.4844C9.19575 13.4346 9.26857 13.3802 9.33377 13.3242L9.33516 13.5437C9.33898 14.1504 8.7789 14.5356 8.74702 14.5568ZM7.23072 15.4895L6.54898 15.0648L5.87508 15.4801L6.55558 15.9047L7.23072 15.4895ZM8.80108 12.9763L6.54309 14.3674L5.86527 13.9451L9.0494 11.9839C9.15417 11.919 9.2452 11.8495 9.32706 11.7768L9.32863 12.0253L9.32865 12.0271C9.32922 12.07 9.33683 12.6456 8.80108 12.9763ZM5.9831 14.7124L5.30507 14.2901L4.63215 14.7046L5.30964 15.1273L5.9831 14.7124ZM1.28883 11.7886L4.7409 13.9387L4.06858 14.3529L1.70271 12.8766L1.68434 12.8643L1.66142 12.855C1.63543 12.8442 1.02693 12.5629 1.02147 11.697L1.02074 11.5811C1.09743 11.6548 1.18629 11.7255 1.28729 11.7871L1.28883 11.7886ZM1.40714 13.387L3.50836 14.698L2.83434 15.1133L1.53946 14.3055C1.49659 14.2748 1.03256 13.938 1.02856 13.3038L1.02743 13.1254C1.19456 13.2774 1.34599 13.3592 1.40714 13.387ZM1.55242 16.6014L2.8384 15.8093L3.51627 16.2322L1.42863 17.5183C1.37697 17.5454 1.22507 17.6314 1.05838 17.7889L1.05715 17.5937C1.05312 16.955 1.51903 16.624 1.55394 16.5999L1.55242 16.6014ZM3.39784 15.4648L4.0756 15.8876L4.74947 15.4724L4.07188 15.0496L3.39784 15.4648ZM1.71852 18.0415L4.08203 16.585L4.76104 17.0086L1.33353 19.1168C1.2333 19.1772 1.1438 19.2467 1.06499 19.3209L1.06426 19.2051L1.06577 19.202C1.06208 18.3758 1.68053 18.0595 1.70484 18.0475L1.71852 18.0415ZM4.64126 16.2404L5.32074 16.6643L5.995 16.2496L5.31499 15.8253L4.64126 16.2404ZM9.09377 19.0179L5.88418 17.0158L6.55834 16.601L8.83136 18.0193C9.38232 18.3627 9.37232 18.9526 9.37095 18.977L9.37253 19.227C9.2928 19.1533 9.19935 19.0811 9.09376 19.0164L9.09377 19.0179ZM9.14377 17.5197L7.11887 16.2562L7.79451 15.8406L8.7635 16.4441L8.76478 16.445C8.80722 16.4748 9.3622 16.8635 9.36599 17.4647L9.36737 17.6843C9.29994 17.6274 9.22642 17.5721 9.14377 17.5197ZM8.81198 24.8558L7.85589 25.4439L7.17376 25.0189L9.1787 23.7834C9.2607 23.7336 9.33354 23.6792 9.39873 23.6232L9.40012 23.8427C9.40394 24.4495 8.84386 24.8347 8.81198 24.8558ZM7.29568 25.7885L6.61394 25.3639L5.94004 25.7792L6.62054 26.2038L7.29568 25.7885ZM8.86604 23.2753L6.60805 24.6664L5.93023 24.2441L9.11436 22.283C9.21913 22.2181 9.31016 22.1485 9.39202 22.0759L9.39359 22.3244L9.39361 22.3261C9.39417 22.369 9.40179 22.9446 8.86604 23.2753ZM6.04806 25.0114L5.37003 24.5891L4.69711 25.0036L5.3746 25.4263L6.04806 25.0114ZM1.35378 22.0877L4.80586 24.2377L4.13354 24.6519L1.76767 23.1757L1.7493 23.1634L1.72638 23.1541C1.70039 23.1432 1.09189 22.862 1.08643 21.996L1.0857 21.8802C1.16239 21.9538 1.25125 22.0245 1.35225 22.0861L1.35378 22.0877ZM1.4721 23.686L3.57332 24.9971L2.8993 25.4123L1.60442 24.6046C1.56155 24.5738 1.09752 24.237 1.09352 23.6028L1.09239 23.4245C1.25951 23.5764 1.41095 23.6582 1.4721 23.686ZM1.61738 26.9004L2.90336 26.1084L3.58123 26.5312L1.49359 27.8174C1.44193 27.8445 1.29003 27.9304 1.12334 28.0879L1.12211 27.8928C1.11808 27.254 1.58399 26.9231 1.6189 26.8989L1.61738 26.9004ZM3.4628 25.7638L4.14056 26.1866L4.81443 25.7715L4.13684 25.3487L3.4628 25.7638ZM1.78348 28.3405L4.14699 26.8841L4.826 27.3076L1.39849 29.4159C1.29826 29.4762 1.20876 29.5458 1.12995 29.62L1.12922 29.5041L1.13073 29.5011C1.12704 28.6748 1.74549 28.3586 1.7698 28.3465L1.78348 28.3405ZM4.70622 26.5395L5.3857 26.9633L6.05996 26.5486L5.37995 26.1243L4.70622 26.5395ZM9.15873 29.317L5.94913 27.3148L6.6233 26.9001L8.89632 28.3183C9.44728 28.6618 9.43728 29.2516 9.43591 29.276L9.43749 29.526C9.35776 29.4524 9.26431 29.3801 9.15872 29.3154L9.15873 29.317ZM9.20873 27.8188L7.18383 26.5553L7.85946 26.1396L8.82846 26.7432L8.82974 26.7441C8.87219 26.7738 9.42716 27.1625 9.43095 27.7638L9.43233 27.9833C9.3649 27.9265 9.29138 27.8711 9.20873 27.8188ZM47.8799 30.9504C47.7849 41.542 41.219 49.9631 32.4535 49.9631C27.2262 49.9631 22.6254 47.0821 19.8258 43.1428C21.255 43.574 22.7625 43.7896 24.3483 43.7896C32.2382 43.7896 38.4052 38.5567 38.4052 30.7172V30.8394H38.4261L38.4075 27.8905C38.4014 26.9133 39.1391 26.4226 39.171 26.4014L39.1771 26.3984L40.2183 25.7569L39.1643 25.0995C39.1337 25.0795 38.3882 24.5794 38.382 23.6006L38.3632 20.6218L38.9166 20.5996L38.3614 20.5703L38.3426 17.5915C38.3364 16.6143 39.0742 16.1235 39.1061 16.1024L39.1121 16.0994L40.1534 15.4579L39.0994 14.8005C39.0688 14.7805 38.3232 14.2803 38.317 13.3016L38.2982 10.3227L38.8516 10.3006L38.2964 10.2713L38.2776 7.29246C38.2714 6.31526 39.0092 5.82448 39.0411 5.80334L39.0472 5.80033L40.0884 5.15886L39.0344 4.50143C39.0038 4.48142 38.2582 3.98128 38.2521 3.00256L38.2333 0.0237072L38.8246 0C38.8246 0.00457347 38.902 0.67581 39.4086 0.985416L43.1146 3.29453L46.5472 1.17984C47.0437 0.873515 47.1215 0.393812 47.1324 0.192656L47.1317 0.0783183L47.723 0.0591843L47.7235 0.0687137C47.7246 0.0884094 47.7272 0.133658 47.7239 0.197912L47.7432 3.24689C47.7491 4.19554 46.9206 4.73285 46.8839 4.75667L46.8838 4.75675L46.168 5.19703L46.8878 5.64552L46.8882 5.64572C46.9318 5.67442 47.765 6.22203 47.771 7.16942L47.7902 10.2184L47.7887 10.2169C47.7927 10.2798 47.7907 10.3247 47.7899 10.3444V10.3445L47.7896 10.3511L47.7895 10.3541L47.1979 10.3275L47.1972 10.2147C47.1837 10.0149 47.0999 9.53262 46.5994 9.22001L43.138 7.061L39.4612 9.32284L39.4627 9.32133C38.9779 9.61346 38.8945 10.2471 38.8884 10.2991L38.8896 10.299C38.8896 10.3036 38.967 10.9748 39.4735 11.2845L43.1796 13.5936L46.6121 11.4789C47.1087 11.1726 47.1865 10.6929 47.1974 10.4917L47.1967 10.3774L47.788 10.3582L47.7885 10.3678V10.3678V10.3678C47.7896 10.3876 47.7922 10.4328 47.7889 10.4969L47.8081 13.5459C47.8141 14.4946 46.9856 15.0319 46.9489 15.0557L46.9487 15.0558L46.233 15.4961L46.9528 15.9446L46.9531 15.9448C46.9968 15.9735 47.8299 16.5211 47.8359 17.4685L47.8552 20.5174L47.8536 20.5159C47.8577 20.579 47.8557 20.6239 47.8548 20.6436L47.8548 20.6439L47.8545 20.6531L47.2628 20.6265L47.2621 20.5137C47.2487 20.3139 47.1648 19.8317 46.6644 19.519L43.203 17.36L39.5261 19.6219L39.5276 19.6204C39.0429 19.9125 38.9595 20.5462 38.9534 20.5981L38.9545 20.5981C38.9545 20.6027 39.032 21.2739 39.5385 21.5835L43.2445 23.8926L46.6771 21.7779C47.1737 21.4716 47.2514 20.9919 47.2623 20.7907L47.2616 20.6764L47.853 20.6573L47.8534 20.6667V20.6668C47.8546 20.6865 47.8572 20.7318 47.8539 20.796L47.8731 23.845C47.8791 24.7936 47.0505 25.3309 47.0138 25.3547L47.0137 25.3548L46.298 25.7951L47.0178 26.2436L47.0181 26.2438C47.0617 26.2725 47.8949 26.8201 47.9009 27.7675L47.9201 30.8165L47.9186 30.8149C47.9227 30.878 47.9207 30.923 47.9198 30.9426L47.9198 30.9429L47.9194 30.9521L47.8799 30.9504ZM47.3273 30.8394L47.3271 30.8127C47.3136 30.613 47.2298 30.1307 46.7293 29.8181L43.2679 27.6591L43.2631 27.6621L43.2609 27.6607L39.5841 29.9225L39.5856 29.921C39.1008 30.2132 39.0174 30.8469 39.0114 30.8988L39.0125 30.8987C39.0125 30.9033 39.0899 31.5746 39.5965 31.8842L43.3025 34.1933L46.7351 32.0786C47.2316 31.7723 47.3094 31.2926 47.3203 31.0914L47.3208 30.9272L47.3202 30.8394H47.3273ZM45.6044 4.84584L46.5605 4.25774C46.5924 4.2366 47.1524 3.85141 47.1486 3.24466L47.1472 3.02514C47.082 3.08113 47.0092 3.13555 46.9272 3.18534L44.9223 4.42083L45.6044 4.84584ZM44.3624 4.76581L45.0442 5.19042L44.369 5.6057L43.6885 5.18108L44.3624 4.76581ZM44.3566 4.06835L46.6145 2.67725C47.1503 2.34655 47.1427 1.77097 47.1421 1.72805L47.1421 1.72629L47.1405 1.4778C47.0587 1.55046 46.9676 1.62001 46.8629 1.6849L43.6787 3.64603L44.3566 4.06835ZM43.1185 3.99106L43.7966 4.41336L43.1231 4.82826L42.4456 4.40552L43.1185 3.99106ZM42.5544 3.63967L39.1023 1.48959L39.1007 1.48806C38.9998 1.42644 38.9109 1.35576 38.8342 1.2821L38.8349 1.39796C38.8404 2.26387 39.4489 2.54516 39.4749 2.55599L39.4978 2.56528L39.5162 2.5776L41.882 4.05386L42.5544 3.63967ZM41.3218 4.39899L39.2206 3.08794C39.1595 3.06011 39.008 2.97837 38.8409 2.82639L38.842 3.00476C38.846 3.63894 39.31 3.97572 39.3529 4.00648L40.6478 4.81423L41.3218 4.39899ZM40.6519 5.51031L39.3659 6.30235L39.3674 6.30083C39.3325 6.325 38.8666 6.65592 38.8706 7.29468L38.8718 7.48981C39.0385 7.33232 39.1904 7.24639 39.2421 7.21927L41.3297 5.93312L40.6519 5.51031ZM41.8891 5.58853L41.2113 5.16574L41.8853 4.75059L42.5629 5.17337L41.8891 5.58853ZM41.8955 6.286L39.532 7.74246L39.5183 7.74847C39.494 7.76051 38.8755 8.07674 38.8792 8.903L38.8777 8.90604L38.8785 9.0219C38.9573 8.9477 39.0468 8.87814 39.147 8.8178L42.5745 6.70953L41.8955 6.286ZM43.1342 6.36526L42.4547 5.94139L43.1285 5.52623L43.8085 5.95052L43.1342 6.36526ZM43.6976 6.71673L46.9072 8.71888L46.9072 8.71736C47.0128 8.78205 47.1063 8.85429 47.186 8.92797L47.1844 8.67795C47.1858 8.65357 47.1958 8.06368 46.6448 7.72026L44.3718 6.30201L43.6976 6.71673ZM44.9323 5.95719L46.9572 7.22069C47.0399 7.27304 47.1134 7.32838 47.1808 7.38521L47.1795 7.16569C47.1757 6.56445 46.6206 6.17569 46.5782 6.14599L46.577 6.14509L45.608 5.54157L44.9323 5.95719ZM45.6694 15.1449L46.6255 14.5568C46.6573 14.5356 47.2174 14.1504 47.2136 13.5437L47.2122 13.3242C47.147 13.3802 47.0742 13.4346 46.9922 13.4844L44.9872 14.7199L45.6694 15.1449ZM44.4274 15.0648L45.1092 15.4895L44.434 15.9047L43.7535 15.4801L44.4274 15.0648ZM44.4215 14.3674L46.6795 12.9763C47.2153 12.6456 47.2076 12.0699 47.2071 12.0271L47.2071 12.0253L47.2055 11.7768C47.1236 11.8495 47.0326 11.919 46.9278 11.9839L43.7437 13.9451L44.4215 14.3674ZM43.1835 14.2901L43.8615 14.7124L43.1881 15.1273L42.5106 14.7046L43.1835 14.2901ZM42.6193 13.9387L39.1673 11.7886L39.1657 11.7871C39.0647 11.7255 38.9759 11.6548 38.8992 11.5811L38.8999 11.697C38.9054 12.5629 39.5139 12.8442 39.5398 12.855L39.5628 12.8643L39.5811 12.8766L41.947 14.3529L42.6193 13.9387ZM41.3868 14.698L39.2856 13.387C39.2244 13.3592 39.073 13.2774 38.9059 13.1254L38.907 13.3038C38.911 13.938 39.375 14.2748 39.4179 14.3055L40.7128 15.1133L41.3868 14.698ZM40.7168 15.8093L39.4309 16.6014L39.4324 16.5999C39.3975 16.624 38.9315 16.955 38.9356 17.5937L38.9368 17.7889C39.1035 17.6314 39.2554 17.5454 39.3071 17.5183L41.3947 16.2322L40.7168 15.8093ZM41.954 15.8876L41.2763 15.4648L41.9503 15.0496L42.6279 15.4724L41.954 15.8876ZM41.9605 16.585L39.597 18.0415L39.5833 18.0475C39.559 18.0595 38.9405 18.3758 38.9442 19.202L38.9427 19.2051L38.9434 19.3209C39.0222 19.2467 39.1117 19.1772 39.212 19.1168L42.6395 17.0086L41.9605 16.585ZM43.1992 16.6643L42.5197 16.2404L43.1934 15.8253L43.8734 16.2496L43.1992 16.6643ZM43.7626 17.0158L46.9722 19.0179L46.9722 19.0164C47.0778 19.0811 47.1712 19.1533 47.251 19.227L47.2494 18.977C47.2508 18.9526 47.2608 18.3627 46.7098 18.0193L44.4368 16.601L43.7626 17.0158ZM44.9973 16.2562L47.0222 17.5197C47.1049 17.5721 47.1784 17.6274 47.2458 17.6843L47.2444 17.4647C47.2406 16.8635 46.6856 16.4747 46.6432 16.445L46.6419 16.4441L45.6729 15.8406L44.9973 16.2562ZM45.7343 25.4439L46.6904 24.8558C46.7223 24.8347 47.2824 24.4495 47.2786 23.8427L47.2772 23.6232C47.212 23.6792 47.1391 23.7336 47.0571 23.7834L45.0522 25.0189L45.7343 25.4439ZM44.4924 25.3639L45.1741 25.7885L44.499 26.2038L43.8185 25.7792L44.4924 25.3639ZM44.4865 24.6664L46.7445 23.2753C47.2802 22.9446 47.2726 22.369 47.272 22.3261L47.272 22.3244L47.2705 22.0759C47.1886 22.1485 47.0976 22.2181 46.9928 22.283L43.8087 24.2441L44.4865 24.6664ZM43.2485 24.5891L43.9265 25.0114L43.253 25.4263L42.5755 25.0036L43.2485 24.5891ZM42.6843 24.2377L39.2322 22.0877L39.2307 22.0861C39.1297 22.0245 39.0408 21.9538 38.9641 21.8802L38.9649 21.996C38.9703 22.862 39.5788 23.1432 39.6048 23.1541L39.6277 23.1634L39.6461 23.1757L42.012 24.6519L42.6843 24.2377ZM41.4518 24.9971L39.3505 23.686C39.2894 23.6582 39.1379 23.5764 38.9708 23.4245L38.972 23.6028C38.976 24.237 39.44 24.5738 39.4829 24.6046L40.7777 25.4123L41.4518 24.9971ZM40.7818 26.1084L39.4958 26.9004L39.4973 26.8989C39.4624 26.9231 38.9965 27.254 39.0005 27.8928L39.0018 28.0879C39.1685 27.9304 39.3204 27.8445 39.372 27.8174L41.4597 26.5312L40.7818 26.1084ZM42.019 26.1866L41.3412 25.7638L42.0153 25.3487L42.6929 25.7715L42.019 26.1866ZM42.0254 26.8841L39.6619 28.3405L39.6482 28.3465C39.6239 28.3586 39.0055 28.6748 39.0092 29.5011L39.0077 29.5041L39.0084 29.62C39.0872 29.5458 39.1767 29.4762 39.2769 29.4159L42.7044 27.3076L42.0254 26.8841ZM43.2641 26.9633L42.5847 26.5395L43.2584 26.1243L43.9384 26.5486L43.2641 26.9633ZM43.8276 27.3148L47.0372 29.317L47.0371 29.3154C47.1427 29.3801 47.2362 29.4524 47.3159 29.526L47.3144 29.276C47.3157 29.2516 47.3257 28.6618 46.7748 28.3183L44.5017 26.9001L43.8276 27.3148ZM45.0623 26.5553L47.0872 27.8188C47.1698 27.8711 47.2433 27.9265 47.3108 27.9833L47.3094 27.7638C47.3056 27.1626 46.7507 26.7738 46.7082 26.7441L46.7069 26.7432L45.7379 26.1396L45.0623 26.5553Z" fill="url(#paint0_linear_2054_499)"></path><defs><linearGradient id="paint0_linear_2054_499" x1="32.9337" y1="5.3233" x2="53.241" y2="25.6306" gradientUnits="userSpaceOnUse"><stop stop-color="#CB9846"></stop><stop offset="0.25" stop-color="#DFB464"></stop><stop offset="0.5" stop-color="#FFEDB7"></stop><stop offset="0.75" stop-color="#EFCF88"></stop><stop offset="1" stop-color="#C89646"></stop></linearGradient></defs></svg>