<svg width="293" height="137" viewBox="0 0 293 137" fill="none" xmlns="http://www.w3.org/2000/svg">
<path d="M146.897 119.695L148.864 125.78H155.277C155.691 125.78 155.87 126.31 155.52 126.562L150.337 130.337L152.322 136.422C152.448 136.808 151.99 137.141 151.667 136.889L146.484 133.141L141.302 136.916C140.97 137.159 140.502 136.835 140.646 136.449L142.631 130.364L137.449 126.589C137.116 126.346 137.287 125.807 137.691 125.807H144.104L146.071 119.695C146.197 119.308 146.772 119.308 146.888 119.695H146.897ZM177.929 119.695L179.896 125.78H186.309C186.723 125.78 186.902 126.31 186.552 126.562L181.369 130.337L183.354 136.422C183.48 136.808 183.022 137.141 182.699 136.889L177.516 133.141L172.334 136.916C172.001 137.159 171.534 136.835 171.678 136.449L173.663 130.364L168.481 126.589C168.148 126.346 168.319 125.807 168.723 125.807H175.136L177.103 119.695C177.229 119.308 177.804 119.308 177.92 119.695H177.929ZM115.866 119.695L117.833 125.78H124.246C124.659 125.78 124.838 126.31 124.488 126.562L119.306 130.337L121.291 136.422C121.416 136.808 120.958 137.141 120.635 136.889L115.452 133.141L110.27 136.916C109.938 137.159 109.471 136.835 109.614 136.449L111.599 130.364L106.417 126.589C106.084 126.346 106.255 125.807 106.659 125.807H113.072L115.039 119.686C115.165 119.299 115.74 119.299 115.857 119.686L115.866 119.695ZM84.8336 119.695L86.8006 125.78H93.2136C93.6268 125.78 93.8064 126.31 93.4561 126.562L88.2736 130.337L90.2586 136.422C90.3844 136.808 89.9263 137.141 89.6029 136.889L84.4205 133.141L79.238 136.916C78.9057 137.159 78.4386 136.835 78.5823 136.449L80.5673 130.364L75.3759 126.58C75.0435 126.337 75.2142 125.798 75.6184 125.798H82.0403L84.0073 119.686C84.1331 119.299 84.7079 119.299 84.8247 119.686L84.8336 119.695ZM208.97 119.695L210.937 125.78H217.35C217.763 125.78 217.943 126.31 217.593 126.562L212.41 130.337L214.395 136.422C214.521 136.808 214.063 137.141 213.74 136.889L208.557 133.141L203.375 136.916C203.042 137.159 202.575 136.835 202.719 136.449L204.704 130.364L199.522 126.589C199.189 126.346 199.36 125.807 199.764 125.807H206.177L208.144 119.695C208.27 119.308 208.845 119.308 208.961 119.695H208.97Z" fill="white"/>
<path d="M19.0294 85.2235V86.8H14.8404V88.7229H19.7124V90.3905H12.8188V81.8153H19.5849V83.4829H14.8404V85.2235H19.0294Z" fill="white"/>
<path d="M24.7031 84.2666H24.6667V90.3905H22.645V81.8153H25.4862L27.5352 87.7113L29.575 81.8153H32.4163V90.3905H30.3946V84.2666H30.3582L28.2182 90.3905H26.8431L24.7031 84.2666Z" fill="white"/>
<path d="M40.0111 81.8153C41.7414 81.8153 43.2439 82.4623 43.2439 84.5856C43.2439 87.283 41.0037 87.438 39.9656 87.438H38.0441V90.3905H36.0225V81.8153H40.0111ZM38.0441 85.7703H39.6196C40.5848 85.7703 41.0675 85.424 41.0675 84.5947C41.0675 83.4283 40.0749 83.4829 39.6196 83.4829H38.0441V85.7703Z" fill="white"/>
<path d="M52.2323 90.3905H46.2221V81.8153H48.2437V88.7229H52.2323V90.3905Z" fill="white"/>
<path d="M54.217 86.0984C54.217 84.1026 55.1732 81.5692 58.5517 81.5692C61.5022 81.5692 62.8863 83.5012 62.8863 86.0984C62.8863 88.6955 61.5022 90.6275 58.5517 90.6275C55.1732 90.6275 54.217 88.0941 54.217 86.0984ZM60.7008 86.0984C60.7008 85.3146 60.6006 83.2278 58.5426 83.2278C57.4316 83.2278 56.4026 83.8292 56.4026 86.0984C56.4026 88.3675 57.4316 88.9689 58.5426 88.9689C60.6006 88.9689 60.7008 86.8274 60.7008 86.0984Z" fill="white"/>
<path d="M70.7544 81.8153H72.9581L69.9621 87.1554V90.3905H67.9314V87.1554L64.8261 81.8153H67.13L68.9422 85.5242L70.7544 81.8153Z" fill="white"/>
<path d="M81.6819 85.2235V86.8H77.4929V88.7229H82.3648V90.3905H75.4713V81.8153H82.2374V83.4829H77.4838V85.2235H81.6819Z" fill="white"/>
<path d="M91.4992 85.2235V86.8H87.3102V88.7229H92.1822V90.3905H85.2886V81.8153H92.0547V83.4829H87.3011V85.2235H91.4992Z" fill="white"/>
<path d="M104.066 81.8153C104.95 81.8153 106.981 82.034 106.981 84.2484C106.981 85.7065 106.052 86.1986 105.487 86.39V86.4173C106.662 86.7727 106.707 87.8662 106.707 88.5042C106.744 89.6068 106.735 89.9349 107.035 90.3905H104.977C104.622 89.8802 104.731 89.4975 104.631 88.2125C104.531 87.1919 103.493 87.2283 103.247 87.2283H101.69V90.3905H99.668V81.8153H104.066ZM101.708 85.6609H103.556C104.695 85.6609 104.859 84.9957 104.859 84.5856C104.859 83.7381 104.367 83.4829 103.484 83.4829H101.708V85.6609Z" fill="white"/>
<path d="M116.406 85.2235V86.8H112.217V88.7229H117.089V90.3905H110.195V81.8153H116.961V83.4829H112.208V85.2235H116.406Z" fill="white"/>
<path d="M119.665 83.4829V81.8153H126.859V83.4829H124.273V90.3905H122.252V83.4829H119.656H119.665Z" fill="white"/>
<path d="M135.874 85.2235V86.8H131.685V88.7229H136.557V90.3905H129.664V81.8153H136.43V83.4829H131.676V85.2235H135.874Z" fill="white"/>
<path d="M141.511 85.023V90.3905H139.49V81.8153H141.539L144.917 87.1463H144.954V81.8153H146.975V90.3905H144.917L141.539 85.023H141.511Z" fill="white"/>
<path d="M149.817 83.4829V81.8153H157.011V83.4829H154.425V90.3905H152.403V83.4829H149.808H149.817Z" fill="white"/>
<path d="M161.846 81.8153V90.3905H159.825V81.8153H161.846Z" fill="white"/>
<path d="M165.043 86.0984C165.043 84.1026 165.999 81.5692 169.378 81.5692C172.328 81.5692 173.712 83.5012 173.712 86.0984C173.712 88.6955 172.328 90.6275 169.378 90.6275C165.999 90.6275 165.043 88.0941 165.043 86.0984ZM171.527 86.0984C171.527 85.3146 171.427 83.2278 169.369 83.2278C168.258 83.2278 167.229 83.8292 167.229 86.0984C167.229 88.3675 168.258 88.9689 169.369 88.9689C171.427 88.9689 171.527 86.8274 171.527 86.0984Z" fill="white"/>
<path d="M178.921 85.023V90.3905H176.899V81.8153H178.948L182.327 87.1463H182.363V81.8153H184.385V90.3905H182.327L178.948 85.023H178.921Z" fill="white"/>
<path d="M191.797 83.4829V81.8153H198.991V83.4829H196.405V90.3905H194.383V83.4829H191.788H191.797Z" fill="white"/>
<path d="M205.412 81.8153L208.635 90.3905H206.495L205.94 88.7867H202.834L202.297 90.3905H200.166L203.372 81.8153H205.421H205.412ZM205.493 87.3286L204.392 84.057L203.262 87.3286H205.493Z" fill="white"/>
<path d="M212.769 90.3905H210.219L213.233 85.9343L210.492 81.8153H212.887L214.527 84.6312L216.184 81.8153H218.579L215.829 85.9343L218.852 90.3905H216.302L214.527 87.438L212.76 90.3905H212.769Z" fill="white"/>
<path d="M233.75 87.3651C233.614 88.65 232.894 90.6366 229.862 90.6366C227.667 90.6366 225.664 89.6342 225.664 86.2624C225.664 81.7424 228.96 81.5692 229.789 81.5692C232.84 81.5692 233.595 83.4647 233.659 84.7314H231.674C231.483 83.3007 230.354 83.2369 229.889 83.2369C229.425 83.2369 227.84 83.3189 227.84 86.1895C227.84 87.8025 228.578 88.9689 229.944 88.9689C231.31 88.9689 231.647 88.003 231.747 87.3651H233.75Z" fill="white"/>
<path d="M241.109 81.8152C241.992 81.8152 244.023 82.0339 244.023 84.2483C244.023 85.7064 243.094 86.1985 242.53 86.3898V86.4172C243.704 86.7726 243.75 87.8661 243.75 88.504C243.786 89.6067 243.777 89.9348 244.078 90.3904H242.02C241.665 89.8801 241.774 89.4974 241.674 88.2124C241.573 87.1918 240.535 87.2282 240.289 87.2282H238.732V90.3904H236.711V81.8152H241.109ZM238.751 85.6608H240.599C241.737 85.6608 241.901 84.9956 241.901 84.5855C241.901 83.738 241.41 83.4828 240.526 83.4828H238.751V85.6608Z" fill="white"/>
<path d="M253.447 85.2234V86.7999H249.258V88.7228H254.13V90.3904H247.237V81.8152H254.003V83.4828H249.249V85.2234H253.447Z" fill="white"/>
<path d="M260.752 81.8152C261.571 81.8152 264.913 81.9154 264.913 86.0891C264.913 90.2628 261.954 90.3904 260.57 90.3904H257.073V81.8152H260.761H260.752ZM260.369 88.7228C261.945 88.7228 262.728 87.9026 262.728 86.1256C262.728 83.7471 261.335 83.4828 260.488 83.4828H259.076V88.7228H260.369Z" fill="white"/>
<path d="M270.121 81.8152V90.3904H268.099V81.8152H270.121Z" fill="white"/>
<path d="M272.963 83.4828V81.8152H280.158V83.4828H277.571V90.3904H275.55V83.4828H272.954H272.963Z" fill="white"/>
<path d="M76.6011 1.80337H110.791C118.37 1.80337 126.035 2.16157 131.182 7.12702C134.614 10.462 135.601 14.3529 135.601 18.7748C135.601 22.8386 134.786 26.8159 131.54 30.0644C129.281 32.4113 125.949 33.9429 122.789 34.5852V34.7705C125.319 35.2275 128.38 36.5738 130.096 38.3772C132.799 41.1811 133.071 45.0596 133.256 48.1228L133.713 56.1639C133.898 59.3259 134.342 61.8457 136.329 65.0078H124.147C122.616 62.3027 121.888 59.5853 121.801 56.7938L121.53 50.2967C121.444 47.5917 121.258 44.2443 118.827 41.8975C116.025 39.1924 111.063 39.0936 108.175 39.0936H87.784V65.0078H76.6011V1.80337ZM87.784 30.4226H109.804C113.05 30.4226 117.383 29.7927 119.999 27.9893C123.073 25.8277 123.702 22.7521 123.702 19.9482C123.702 15.8845 121.9 13.7229 120.456 12.6359C118.197 10.919 114.408 10.4744 108.459 10.4744H87.7963V30.4226H87.784ZM154.202 10.4744V1.80337H212.215V10.4744H188.849V65.0078H177.666V10.4744H154.202ZM292.975 43.7873C292.617 50.4697 289.902 55.9786 286.569 59.4124C280.435 65.823 271.684 66.91 260.587 66.91C252.021 66.91 242.184 66.28 234.247 58.0661C227.384 50.939 225.767 41.811 225.767 33.6835C225.767 27.3594 226.755 17.0703 234.518 9.21448C242.282 1.3587 252.478 0 261.13 0C268.166 0 276.102 0.901686 282.422 4.96544C290.359 10.0174 292.074 16.7985 292.432 21.5787H280.706C280.25 16.7985 277.818 13.9082 275.473 12.1913C271.227 9.0292 265.092 8.48572 261.488 8.48572C256.07 8.48572 249.392 9.30094 244.171 14.6246C241.097 17.7867 237.678 23.4685 237.678 33.2265C237.678 42.2557 240.567 48.7528 244.27 52.5448C249.145 57.4238 255.452 58.3254 261.056 58.3254C264.389 58.3254 271.251 58.0537 275.584 54.8916C278.114 52.9894 281.003 49.3827 281.274 43.7873H293H292.975ZM53.5936 1.80337H0V10.4744H53.5936V1.80337ZM53.5936 56.3368H0V65.0078H53.5936V56.3368ZM53.5936 27.8411H0V36.5121H53.5936V27.8411Z" fill="white"/>
</svg>
