<svg width="370" height="79" viewBox="0 0 370 79" fill="none" xmlns="http://www.w3.org/2000/svg">
<path d="M121.605 38.1131H105.619V4.05007H101.43V38.6064H121.605V38.1131Z" fill="white"/>
<path d="M133.123 4.05007H128.934V38.6107H133.123V4.05007Z" fill="white"/>
<path d="M164.752 30.0041C164.752 18.1565 144.714 18.931 144.714 9.97389C144.714 5.74197 148.693 3.83804 152.253 3.83804C157.071 3.83804 161.676 6.72855 163.072 8.84451L163.141 6.44729C160.417 4.82462 156.51 3.34475 152.458 3.34475C146.941 3.34475 141.917 6.44729 141.917 12.3711C141.917 24.3615 161.886 23.3014 161.886 32.0508C161.886 36.6332 157.14 38.3295 153.229 38.3295C147.575 38.3295 143.176 35.1577 141.15 31.207V35.1577C142.127 35.3005 146.945 39.0348 153.298 39.0348C158.742 39.0348 164.747 36.3563 164.747 30.0084L164.752 30.0041Z" fill="white"/>
<path d="M174.244 25.2789H185.903L190.581 38.6107H195.327L181.851 3.55677L168.517 38.6107H169.146L174.244 25.2789ZM179.971 10.1859L185.488 24.7164H174.385L179.971 10.1859Z" fill="white"/>
<path d="M235.959 30.0041C235.959 18.1565 215.921 18.931 215.921 9.97389C215.921 5.74197 219.901 3.83804 223.46 3.83804C228.279 3.83804 232.884 6.72855 234.28 8.84451L234.349 6.44729C231.624 4.82462 227.718 3.34475 223.666 3.34475C218.149 3.34475 213.124 6.44729 213.124 12.3711C213.124 24.3615 233.093 23.3014 233.093 32.0508C233.093 36.6332 228.347 38.3295 224.437 38.3295C218.783 38.3295 214.383 35.1577 212.357 31.207V35.1577C213.334 35.3005 218.153 39.0348 224.505 39.0348C229.949 39.0348 235.955 36.3563 235.955 30.0084L235.959 30.0041Z" fill="white"/>
<path d="M247.199 21.259H263.463V38.6064H267.652V4.05007H263.463V20.6921H247.199V4.05007H243.01V38.6064H247.199V21.259Z" fill="white"/>
<path d="M279.033 4.05007H274.844V38.6107H279.033V4.05007Z" fill="white"/>
<path d="M308.075 38.0439H291.806V21.3975H301.718V20.7657H291.806V4.61259H307.445V4.05007H287.617V38.6064H308.075V38.0439Z" fill="white"/>
<path d="M335.861 38.1131H319.871V4.05007H315.682V38.6064H335.861V38.1131Z" fill="white"/>
<path d="M370 21.3975C370 11.8778 362.598 4.04574 353.102 4.04574H342.072V38.6064H353.732C363.155 38.6064 370 30.7051 370 21.3975ZM346.261 38.0439V4.61259H349.542C359.664 4.61259 365.391 11.2417 365.391 21.3975C365.391 31.5532 359.664 38.0439 349.542 38.0439H346.261Z" fill="white"/>
<path d="M100.458 78.8226H101.725V72.3146H104.775V71.129H101.725V66.5552H104.964V65.3696H100.458V78.8226Z" fill="white"/>
<path d="M110.656 65.3696H109.388V78.8226H110.656V65.3696Z" fill="white"/>
<path d="M120.243 70.4107C120.243 72.6002 120.268 74.4912 120.341 76.3388H120.307C120.071 75.1489 118.157 68.0005 117.394 65.3696H115.865V78.8226H117.077V73.7555C117.077 71.328 117.034 69.0996 116.944 67.4812H116.966C117.244 68.6712 119.185 76.0835 119.964 78.8226H121.446V65.3696H120.243V70.4107Z" fill="white"/>
<path d="M128.968 65.3696H126.655V78.8226H128.861C131.838 78.8226 132.146 76.711 132.146 74.6426V69.2943C132.146 67.2432 131.859 65.3739 128.968 65.3739V65.3696ZM130.848 74.9239C130.848 76.7715 130.433 77.7019 128.758 77.7019H127.923V66.4946H128.779C130.561 66.4946 130.853 67.4856 130.853 69.1169V74.9239H130.848Z" fill="white"/>
<path d="M141.865 66.5552H144.024V78.8226H145.292V66.5552H147.429V65.3696H141.865V66.5552Z" fill="white"/>
<path d="M155.782 71.0078H152.878V65.3696H151.614V78.8226H152.878V72.1848H155.782V78.8226H157.05V65.3696H155.782V71.0078Z" fill="white"/>
<path d="M163.497 72.2194H166.499V71.0468H163.497V66.5552H166.671V65.3696H162.233V78.8226H166.718L166.893 77.6456H163.497V72.2194Z" fill="white"/>
<path d="M179.487 72.6348H181.041V74.82C181.041 76.6158 180.836 77.8447 179.534 77.8447C178.51 77.8447 178.159 76.9316 178.159 75.547V68.6019C178.159 66.9663 178.656 66.3605 179.624 66.3605C180.917 66.3605 181.033 67.5072 181.033 68.5024V68.8399H182.301V68.5197C182.301 66.7456 181.847 65.1879 179.641 65.1879C177.756 65.1879 176.869 66.4773 176.869 68.6842V75.5123C176.869 77.6326 177.469 78.9913 179.281 78.9913C180.15 78.9913 180.904 78.6365 181.23 77.6153C181.238 77.9225 181.277 78.6019 181.311 78.8183H182.326V71.5054H179.495V72.6305L179.487 72.6348Z" fill="white"/>
<path d="M191.36 75.8888C191.36 77.0874 190.992 77.8187 189.925 77.8187C188.859 77.8187 188.477 77.0182 188.477 75.8758V65.3696H187.21V75.8758C187.21 77.9788 188.118 78.9957 189.9 78.9957C191.681 78.9957 192.641 77.9052 192.641 75.8369V65.3696H191.36V75.8888Z" fill="white"/>
<path d="M199.096 65.3696L196.899 78.8226H198.179L198.856 74.3657H201.148L201.872 78.8226H203.2L200.908 65.3696H199.096ZM199.032 73.1887C199.413 70.6227 199.906 67.5591 199.953 66.5379H200.008C200.128 67.7495 200.471 70.0688 200.976 73.1887H199.032Z" fill="white"/>
<path d="M212.593 74.6686C212.593 72.8771 212.212 72.2151 211.351 71.9079C212.118 71.6396 212.709 70.8391 212.709 69.0693V68.4289C212.709 66.2523 211.775 65.3696 209.779 65.3696H207.573V78.8226H208.841V72.479H209.749C211.098 72.479 211.351 73.0026 211.351 74.7724C211.351 75.7071 211.325 77.9788 211.492 78.8269H212.73C212.576 77.9702 212.597 75.8282 212.597 74.6729L212.593 74.6686ZM209.805 71.38H208.841V66.4687H209.693C211.068 66.4687 211.428 67.2303 211.428 68.5024V69.1342C211.428 70.5665 211.111 71.38 209.805 71.38Z" fill="white"/>
<path d="M219.892 65.3696H217.579V78.8226H219.785C222.762 78.8226 223.07 76.711 223.07 74.6426V69.2943C223.07 67.2432 222.783 65.3739 219.892 65.3739V65.3696ZM221.772 74.9239C221.772 76.7715 221.357 77.7019 219.682 77.7019H218.847V66.4946H219.704C221.485 66.4946 221.777 67.4856 221.777 69.1169V74.9239H221.772Z" fill="white"/>
<path d="M229.273 65.3696H228.005V78.8226H229.273V65.3696Z" fill="white"/>
<path d="M235.899 65.3696L233.702 78.8226H234.982L235.659 74.3657H237.951L238.675 78.8226H240.003L237.711 65.3696H235.899ZM235.835 73.1887C236.216 70.6227 236.709 67.5591 236.756 66.5379H236.811C236.931 67.7495 237.274 70.0688 237.78 73.1887H235.835Z" fill="white"/>
<path d="M248.745 70.4107C248.745 72.6002 248.771 74.4912 248.844 76.3388H248.809C248.574 75.1489 246.659 68.0005 245.897 65.3696H244.367V78.8226H245.58V73.7555C245.58 71.328 245.537 69.0996 245.447 67.4812H245.468C245.747 68.6712 247.687 76.0835 248.467 78.8226H249.949V65.3696H248.745V70.4107Z" fill="white"/>
<path d="M263.583 65.1965C261.724 65.1965 260.756 66.4038 260.756 68.6193V75.5253C260.756 77.6543 261.458 79 263.497 79C265.416 79 266.354 77.823 266.354 75.5124V68.6149C266.354 66.5985 265.54 65.1965 263.587 65.1965H263.583ZM265.056 75.5383C265.056 77.2302 264.529 77.836 263.557 77.836C262.585 77.836 262.049 77.2172 262.049 75.6119V68.5803C262.049 67.0399 262.529 66.3648 263.544 66.3648C264.559 66.3648 265.061 67.0702 265.061 68.5846V75.5383H265.056Z" fill="white"/>
<path d="M271.284 78.8226H272.552V72.3146H275.598V71.129H272.552V66.5552H275.791V65.3696H271.284V78.8226Z" fill="white"/>
<path d="M288.174 72.0377H288.152C287.925 70.8564 287.086 67.862 286.396 65.3739H285.004L287.446 73.405C287.48 73.5132 287.501 73.6041 287.501 73.7469V78.8312H288.769V73.8551C288.769 73.669 288.791 73.5695 288.808 73.4786L291.271 65.3783H289.93C289.292 67.7452 288.431 70.8131 288.178 72.042L288.174 72.0377Z" fill="white"/>
<path d="M297.992 65.1965C296.133 65.1965 295.164 66.4038 295.164 68.6193V75.5253C295.164 77.6543 295.867 79 297.906 79C299.825 79 300.763 77.823 300.763 75.5124V68.6149C300.763 66.5985 299.949 65.1965 297.996 65.1965H297.992ZM299.465 75.5383C299.465 77.2302 298.938 77.836 297.966 77.836C296.993 77.836 296.458 77.2172 296.458 75.6119V68.5803C296.458 67.0399 296.938 66.3648 297.953 66.3648C298.968 66.3648 299.469 67.0702 299.469 68.5846V75.5383H299.465Z" fill="white"/>
<path d="M309.737 75.8888C309.737 77.0874 309.368 77.8187 308.302 77.8187C307.235 77.8187 306.854 77.0182 306.854 75.8758V65.3696H305.586V75.8758C305.586 77.9788 306.494 78.9957 308.276 78.9957C310.058 78.9957 311.017 77.9052 311.017 75.8369V65.3696H309.737V75.8888Z" fill="white"/>
<path d="M321.178 74.6686C321.178 72.8771 320.796 72.2151 319.935 71.9079C320.702 71.6396 321.293 70.8391 321.293 69.0693V68.4289C321.293 66.2523 320.359 65.3696 318.363 65.3696H316.157V78.8226H317.425V72.479H318.333C319.683 72.479 319.935 73.0026 319.935 74.7724C319.935 75.7071 319.91 77.9788 320.077 78.8269H321.315C321.16 77.9702 321.182 75.8282 321.182 74.6729L321.178 74.6686ZM318.389 71.38H317.425V66.4687H318.278C319.653 66.4687 320.013 67.2303 320.013 68.5024V69.1342C320.013 70.5665 319.696 71.38 318.389 71.38Z" fill="white"/>
<path d="M334.293 71.0165C333.06 70.0645 332.799 69.5928 332.799 68.2688C332.799 67.174 333.047 66.3129 334.019 66.3129C334.992 66.3129 335.214 67.0702 335.214 68.2298V68.7967H336.474V68.1952C336.474 66.4297 335.917 65.2008 334.045 65.1879C332.028 65.1749 331.531 66.7716 331.531 68.4635C331.531 70.4453 332.246 71.1117 333.668 72.2324C335.064 73.3272 335.416 73.9806 335.416 75.5816C335.416 77.1826 335 77.8793 334.011 77.8793C333.021 77.8793 332.576 77.174 332.576 75.8455V75.0796H331.308V75.8455C331.308 77.6197 331.92 79 333.994 79C336.187 79 336.688 77.2994 336.688 75.4085C336.688 73.18 336.11 72.4098 334.293 71.0165Z" fill="white"/>
<path d="M344.06 65.1965C342.201 65.1965 341.233 66.4038 341.233 68.6193V75.5253C341.233 77.6543 341.935 79 343.974 79C345.893 79 346.831 77.823 346.831 75.5124V68.6149C346.831 66.5985 346.017 65.1965 344.064 65.1965H344.06ZM345.533 75.5383C345.533 77.2302 345.006 77.836 344.034 77.836C343.062 77.836 342.526 77.2172 342.526 75.6119V68.5803C342.526 67.0399 343.006 66.3648 344.021 66.3648C345.036 66.3648 345.537 67.0702 345.537 68.5846V75.5383H345.533Z" fill="white"/>
<path d="M355.809 75.8888C355.809 77.0874 355.441 77.8187 354.374 77.8187C353.308 77.8187 352.926 77.0182 352.926 75.8758V65.3696H351.658V75.8758C351.658 77.9788 352.567 78.9957 354.348 78.9957C356.13 78.9957 357.09 77.9052 357.09 75.8369V65.3696H355.809V75.8888Z" fill="white"/>
<path d="M363.498 65.3696H362.23V78.8226H366.693L366.847 77.6673H363.498V65.3696Z" fill="white"/>
<path d="M369.996 51.3844H99.7807V52.332H369.996V51.3844Z" fill="white"/>
<path d="M79.3874 4.5823C77.0487 2.6827 74.4015 1.48841 71.4331 0.947525C67.6894 0.268168 64.1384 0.713861 60.7031 2.38845C56.2955 4.5347 52.4104 7.36896 49.1465 11.0557C46.1609 14.4308 43.441 18.0266 40.7467 21.6398C40.207 22.3667 39.693 23.1197 39.0762 23.7774C36.6175 26.4039 33.7219 28.3944 30.4151 29.7834C28.9202 30.4108 27.3825 30.8609 25.7633 30.9431C22.7435 31.0989 20.0021 30.2724 17.5049 28.5329C15.663 27.2477 14.4037 25.5255 13.6798 23.4226C13.0073 21.471 12.5747 19.4632 12.6475 17.3646C12.716 15.465 13.2043 13.6822 14.0011 11.986C14.7849 10.3114 15.9115 8.85749 17.0551 7.42089C17.9332 6.31747 18.9827 5.41743 20.1606 4.65153C21.9896 3.46591 23.9429 2.58317 26.0546 2.06825C26.7271 1.90382 27.4082 1.77833 28.0935 1.68746C28.6889 1.60957 29.2929 1.60525 29.8754 1.5663C29.3485 1.1509 27.8836 0.458561 27.074 0.276823C25.2407 -0.13858 23.3903 -0.0390566 21.5656 0.263841C19.2311 0.657609 17.0937 1.56198 15.1747 2.98992C13.7698 4.03276 12.3519 5.07126 11.2682 6.46027C8.58254 9.9133 6.87774 13.7428 6.71925 18.23C6.59932 21.6831 7.40032 24.8678 9.18222 27.7497C12.035 32.358 16.01 35.5861 21.2143 37.2001C23.5445 37.9227 25.8961 38.2472 28.3377 38.0525C30.6421 37.8665 32.8995 37.5809 35.0712 36.7198C38.378 35.4087 41.4363 33.7124 43.985 31.1724C45.5099 29.6536 47.0133 28.1131 48.3027 26.3736C49.8275 24.3183 51.3182 22.2369 52.8559 20.1902C54.2994 18.2733 55.7729 16.3823 57.2593 14.4957C58.3601 13.0981 59.5466 11.7956 60.973 10.7138C63.2903 8.96134 65.749 7.52041 68.5889 6.81076C70.5122 6.32613 72.4311 6.35209 74.3158 6.91029C76.3033 7.49878 78.0039 8.6195 79.4517 10.108C82.4029 13.1543 83.8807 16.8583 84.2405 21.0686C84.4504 23.5134 84.0863 25.8847 83.5894 28.2689C82.7456 32.3364 81.1179 36.0577 78.8605 39.4935C77.2286 41.9772 75.2496 44.1797 73.1079 46.2351C72.4012 46.9145 72.5554 46.7414 73.0951 47.3904C73.2364 47.5592 73.3478 47.5678 73.5106 47.4034C73.9432 46.9707 74.4058 46.5726 74.8299 46.1312C76.0549 44.8547 77.3442 43.6215 78.4665 42.2585C80.1113 40.2637 81.4177 38.0352 82.6 35.7202C84.6474 31.709 85.7012 27.4251 86.1124 22.9812C86.5493 18.2257 85.7269 13.6909 83.3581 9.48059C82.3044 7.60695 81.0536 5.92371 79.3917 4.57365L79.3874 4.5823Z" fill="white"/>
<path d="M66.2416 53.1152C65.3678 53.8811 64.4811 54.6297 63.6287 55.4129C58.4115 60.1944 51.3139 66.7153 46.1138 71.5141C45.8268 71.7781 45.6812 71.7521 45.4285 71.5228C38.8534 65.4691 32.2784 59.4241 25.6991 53.3748C22.2895 50.2377 18.8756 47.1092 15.466 43.972C13.6584 42.3104 11.8208 40.6791 10.0732 38.9526C8.88238 37.7799 7.79011 36.4991 6.71497 35.2183C6.71497 35.2183 -1.35927 25.2529 1.86186 16.3694C0.247013 20.8263 -3.68516 35.7635 9.0323 47.0183C9.36641 47.3818 9.70908 47.7366 10.0775 48.0741C20.1306 57.2909 30.171 66.5249 40.2156 75.7504C40.8709 76.3518 41.5263 76.9576 42.1902 77.5677C49.9775 70.216 59.6409 61.142 67.4067 53.8162C67.1411 53.4873 66.8798 53.1671 66.61 52.8296C66.4772 52.9291 66.3573 53.0114 66.2502 53.1066L66.2416 53.1152Z" fill="white"/>
</svg>
