<svg width="637" height="106" viewBox="0 0 637 106" fill="none" xmlns="http://www.w3.org/2000/svg">
<path d="M145.201 22.9117L152.101 69.4707H139.77L139.093 61.1185H134.777L134.038 69.4707H121.652L127.815 22.9117H145.201ZM138.788 52.8214C138.171 47.5376 137.555 41.0146 136.939 33.2524C135.707 42.1697 134.926 48.6927 134.597 52.8214H138.788Z" fill="white"/>
<path d="M165.67 22.9117H153.771V69.46H165.67V22.9117Z" fill="white"/>
<path d="M196.068 51.0319H181.085V59.329C181.003 60.4572 181.129 61.5908 181.455 62.6734C181.589 62.926 181.796 63.132 182.049 63.2645C182.301 63.397 182.588 63.4499 182.871 63.4163C183.235 63.4636 183.605 63.393 183.927 63.2147C184.248 63.0363 184.505 62.7596 184.659 62.4246C185.025 61.1802 185.171 59.8812 185.091 58.5862V53.5038H196.061V56.3471C196.114 58.1736 195.97 60.0005 195.63 61.7956C195.215 63.2683 194.501 64.6387 193.533 65.8206C192.461 67.2392 191.036 68.3497 189.401 69.0406C187.397 69.8106 185.258 70.1684 183.113 70.0927C180.909 70.1375 178.716 69.7811 176.639 69.0406C174.955 68.464 173.447 67.4616 172.261 66.1298C171.249 64.9451 170.512 63.5489 170.103 62.0426C169.63 59.9092 169.423 57.725 169.487 55.5403V44.3999C169.366 41.7103 169.829 39.0265 170.844 36.5346C171.757 34.6076 173.303 33.0551 175.222 32.1382C177.595 31.0678 180.175 30.5402 182.776 30.5937C185.377 30.6472 187.934 31.2803 190.261 32.4474C192.246 33.5387 193.812 35.2633 194.711 37.3485C195.695 40.1063 196.135 43.03 196.006 45.9566L196.068 51.0319ZM184.477 44.8388V42.0471C184.55 40.7595 184.447 39.4679 184.169 38.2086C184.085 37.9371 183.91 37.7029 183.674 37.5451C183.439 37.3873 183.156 37.3154 182.874 37.3414C182.048 37.3414 181.555 37.589 181.395 38.0842C181.154 39.3907 181.051 40.7189 181.087 42.0471V44.8335L184.477 44.8388Z" fill="white"/>
<path d="M222.767 31.2727L218.141 49.5409L223.752 69.4796H212.469C211.359 64.4434 210.516 60.1085 209.94 56.475C209.159 61.016 208.317 65.3509 207.412 69.4796H197.794L202.727 49.5392L197.733 31.3349H207.414C208.975 39.1374 209.818 43.5753 209.942 44.6487C211.052 38.1257 211.895 33.6878 212.471 31.3349L222.767 31.2727Z" fill="white"/>
<path d="M235.591 46.0721H224.739V43.5327C224.643 41.2202 224.978 38.91 225.727 36.7212C226.579 34.902 228.011 33.4201 229.796 32.5096C232.42 31.2455 235.3 30.6099 238.21 30.6528C241.12 30.6957 243.981 31.4158 246.566 32.7566C247.472 33.3321 248.255 34.0829 248.869 34.9652C249.483 35.8476 249.916 36.8438 250.142 37.8959C250.68 42.0423 250.885 46.2252 250.758 50.4046V69.5418H239.537V66.1352C238.949 67.4115 237.995 68.4824 236.797 69.2106C235.599 69.9388 234.212 70.2911 232.813 70.2224C230.831 70.2247 228.895 69.6196 227.264 68.488C225.579 67.3317 224.736 64.8343 224.736 60.9959V57.7759C224.521 55.7371 225 53.6854 226.093 51.9542C228.05 50.3198 230.314 49.0983 232.751 48.3628C236.533 46.8771 238.568 45.866 238.855 45.3293C239.22 44.3191 239.367 43.2429 239.287 42.1715C239.377 40.8529 239.23 39.5288 238.855 38.2619C238.731 37.975 238.524 37.7327 238.259 37.5667C237.995 37.4008 237.687 37.3192 237.376 37.3325C236.595 37.3325 236.102 37.5801 235.897 38.0753C235.612 39.3755 235.508 40.7093 235.589 42.0382L235.591 46.0721ZM239.229 51.2736C237.866 52.0877 236.755 53.2674 236.023 54.6802C235.685 55.9726 235.54 57.308 235.591 58.6431C235.51 59.9342 235.635 61.23 235.961 62.4815C236.091 62.7733 236.311 63.0153 236.588 63.1716C236.866 63.3278 237.186 63.3899 237.502 63.3487C237.778 63.3882 238.06 63.3446 238.312 63.2235C238.564 63.1024 238.775 62.9091 238.917 62.6681C239.2 61.5146 239.304 60.3242 239.225 59.1389L239.229 51.2736Z" fill="white"/>
<path d="M266.543 31.271L266.366 34.8002C267.106 33.4994 268.168 32.4119 269.448 31.6424C270.728 30.9241 272.176 30.561 273.642 30.5904C275.376 30.5182 277.087 31.0174 278.513 32.012C279.702 32.8682 280.553 34.1176 280.917 35.5412C281.367 37.8864 281.554 40.275 281.473 42.6619V69.4174H269.944V43.0422C270.011 41.428 269.929 39.811 269.698 38.2122C269.534 37.634 269.041 37.345 268.218 37.345C267.886 37.3002 267.549 37.3754 267.267 37.5569C266.985 37.7385 266.776 38.0148 266.677 38.3366C266.39 40.098 266.287 41.8848 266.369 43.6677V69.4352H254.766V31.271H266.543Z" fill="white"/>
<path d="M311.736 22.9117V69.4707H300.207V66.6932C299.204 67.7695 298.013 68.6514 296.693 69.2948C295.499 69.8641 294.193 70.1603 292.871 70.162C291.198 70.2075 289.554 69.7088 288.186 68.7403C286.999 67.9635 286.108 66.807 285.657 65.4581C285.21 63.4682 285.023 61.428 285.102 59.3894V41.4891C285.018 39.3886 285.204 37.2861 285.657 35.2338C286.127 33.8938 287.042 32.7568 288.248 32.0138C289.664 31.0473 291.345 30.5501 293.057 30.5921C294.41 30.5581 295.755 30.8169 296.999 31.3511C298.244 31.8852 299.36 32.6822 300.271 33.6878V22.9117H311.736ZM300.207 40.8707C300.266 39.9265 300.14 38.9799 299.837 38.0842C299.674 37.8735 299.466 37.7019 299.229 37.5819C298.991 37.4619 298.73 37.3966 298.465 37.3906C298.199 37.3846 297.935 37.4382 297.693 37.5475C297.45 37.6567 297.235 37.8188 297.063 38.022C296.734 38.9548 296.608 39.9472 296.693 40.9329V59.5707C296.635 60.5959 296.76 61.6232 297.063 62.6041C297.176 62.8469 297.361 63.0486 297.593 63.1816C297.825 63.3145 298.092 63.3723 298.358 63.347C298.657 63.3796 298.958 63.32 299.223 63.1762C299.487 63.0324 299.701 62.8112 299.837 62.5419C300.174 61.2287 300.298 59.8698 300.207 58.5169V40.8707Z" fill="white"/>
<path d="M342.134 51.0319H327.151V59.329C327.069 60.4572 327.195 61.5908 327.521 62.6734C327.655 62.926 327.862 63.132 328.114 63.2645C328.367 63.397 328.653 63.4499 328.936 63.4163C329.301 63.4636 329.671 63.393 329.993 63.2147C330.314 63.0363 330.571 62.7596 330.725 62.4246C331.091 61.1802 331.237 59.8812 331.157 58.5862V53.5038H342.127V56.3471C342.18 58.1736 342.035 60.0005 341.695 61.7956C341.281 63.2682 340.567 64.6387 339.599 65.8206C338.527 67.2392 337.102 68.3497 335.467 69.0406C333.462 69.8106 331.324 70.1684 329.179 70.0927C326.975 70.1375 324.782 69.7811 322.705 69.0406C321.021 68.464 319.513 67.4616 318.327 66.1298C317.315 64.9451 316.577 63.5489 316.169 62.0426C315.696 59.9091 315.489 57.725 315.553 55.5403V44.3999C315.432 41.7103 315.895 39.0265 316.91 36.5346C317.839 34.5973 319.407 33.0435 321.349 32.1382C323.723 31.0679 326.303 30.5404 328.904 30.5939C331.505 30.6474 334.061 31.2805 336.389 32.4474C338.368 33.5382 339.93 35.2593 340.828 37.3396C341.812 40.0974 342.252 43.0211 342.124 45.9477L342.134 51.0319ZM330.543 44.8388V42.0471C330.616 40.7595 330.513 39.4679 330.235 38.2086C330.15 37.9371 329.976 37.7029 329.74 37.5451C329.504 37.3873 329.222 37.3154 328.94 37.3414C328.159 37.3414 327.666 37.589 327.461 38.0842C327.175 39.3844 327.072 40.7182 327.153 42.0471V44.8335L330.543 44.8388Z" fill="white"/>
<path d="M357.423 31.271L356.992 36.2876C358.677 32.6956 361.102 30.7965 364.267 30.5904V44.0285C362.658 43.9205 361.047 44.2186 359.582 44.8957C359.116 45.1375 358.709 45.4792 358.39 45.8966C358.07 46.3139 357.846 46.7967 357.733 47.3107C357.402 49.6479 357.278 52.01 357.363 54.3692V69.4174H345.894V31.271H357.423Z" fill="white"/>
<path d="M403.112 36.9682H391.891V33.5634C391.985 32.5119 391.838 31.4527 391.459 30.4677C391.301 30.2419 391.088 30.0608 390.84 29.9416C390.592 29.8224 390.318 29.7692 390.044 29.7871C389.714 29.7694 389.386 29.8405 389.094 29.993C388.801 30.1454 388.554 30.3738 388.379 30.6543C387.951 31.495 387.759 32.4367 387.823 33.3786C387.749 34.5874 387.961 35.7968 388.441 36.9078C389.33 38.1134 390.493 39.0882 391.832 39.7511C397.217 42.9297 400.588 45.5514 401.944 47.6164C403.301 49.6813 404 52.9837 404.041 57.5235C404.185 60.0159 403.785 62.5097 402.87 64.8308C401.85 66.6177 400.266 68.0121 398.369 68.7936C395.952 69.9048 393.318 70.4551 390.661 70.4036C387.793 70.486 384.949 69.849 382.388 68.5502C380.374 67.5749 378.776 65.9047 377.886 63.8445C377.047 61.2487 376.692 58.5197 376.839 55.7944V52.7592H388.06V58.3943C387.954 59.5327 388.123 60.6801 388.554 61.7387C388.744 61.9962 388.997 62.2 389.289 62.3301C389.581 62.4603 389.901 62.5124 390.219 62.4815C390.573 62.5022 390.925 62.4269 391.24 62.2633C391.555 62.0998 391.82 61.8541 392.008 61.5521C392.466 60.6781 392.68 59.6953 392.625 58.7088C392.832 56.8401 392.444 54.9536 391.516 53.3208C389.811 51.7067 387.929 50.2937 385.905 49.1091C383.818 47.7993 381.82 46.3513 379.924 44.7749C378.86 43.7291 378.039 42.4603 377.52 41.059C376.814 39.1163 376.479 37.0576 376.533 34.9904C376.363 32.3181 376.829 29.6437 377.89 27.1873C378.893 25.4629 380.431 24.115 382.267 23.3488C384.583 22.3504 387.086 21.8655 389.605 21.9272C392.356 21.8573 395.091 22.3853 397.62 23.475C399.488 24.189 401.041 25.5504 401.998 27.3135C402.849 29.8427 403.205 32.5136 403.045 35.1787L403.112 36.9682Z" fill="white"/>
<path d="M419.081 22.9117V33.3768C420.01 32.4808 421.097 31.7666 422.287 31.271C423.466 30.8094 424.722 30.5784 425.987 30.5904C427.834 30.532 429.651 31.0749 431.166 32.1382C432.436 32.9777 433.357 34.2552 433.754 35.7296C434.168 38.1838 434.334 40.6737 434.248 43.1613V69.4707H422.719V42.6033C422.789 41.1744 422.686 39.7421 422.411 38.3383C422.281 38.0627 422.076 37.8297 421.819 37.6665C421.563 37.5034 421.265 37.4168 420.962 37.4168C420.658 37.4168 420.361 37.5034 420.104 37.6665C419.848 37.8297 419.642 38.0627 419.513 38.3383C419.192 39.615 419.067 40.9334 419.143 42.2479V69.4707H407.49V22.9117H419.081Z" fill="white"/>
<path d="M464.708 31.2727V69.4174H452.934L453.111 66.2596C452.393 67.4718 451.373 68.4751 450.151 69.1704C448.901 69.8441 447.5 70.1855 446.082 70.162C444.589 70.2115 443.107 69.8923 441.766 69.2326C440.703 68.6979 439.823 67.8571 439.238 66.8175C438.715 65.8361 438.38 64.765 438.25 63.6597C438.132 62.5449 438.073 60.3567 438.073 57.0952V31.2727H449.665V57.2818C449.589 59.0402 449.671 60.8019 449.911 62.5455C450.074 63.0822 450.568 63.3505 451.39 63.3505C452.253 63.3505 452.767 63.0614 452.931 62.4833C453.17 60.636 453.252 58.7717 453.177 56.9104V31.2727H464.708Z" fill="white"/>
<path d="M480.615 31.271L480.438 34.8002C481.178 33.4995 482.24 32.412 483.52 31.6424C484.8 30.9242 486.247 30.5611 487.713 30.5904C489.448 30.5182 491.158 31.0174 492.584 32.012C493.774 32.8682 494.625 34.1176 494.989 35.5412C495.439 37.8864 495.626 40.275 495.545 42.6619V69.4174H484.015V43.0422C484.083 41.428 484 39.8109 483.768 38.2122C483.604 37.634 483.132 37.345 482.352 37.345C482.02 37.3002 481.683 37.3754 481.401 37.5569C481.118 37.7385 480.909 38.0148 480.811 38.3366C480.523 40.098 480.42 41.8848 480.503 43.6677V69.4352H468.838V31.271H480.615Z" fill="white"/>
<path d="M511.32 31.271L511.143 34.8002C511.884 33.4994 512.946 32.412 514.226 31.6424C515.506 30.9242 516.953 30.5611 518.419 30.5904C520.154 30.5182 521.864 31.0174 523.29 32.012C524.48 32.8683 525.331 34.1177 525.695 35.5412C526.145 37.8864 526.331 40.275 526.25 42.6619V69.4174H514.659V43.0422C514.727 41.428 514.645 39.811 514.413 38.2122C514.249 37.634 513.778 37.345 512.998 37.345C512.666 37.3002 512.328 37.3754 512.046 37.5569C511.764 37.7385 511.555 38.0148 511.457 38.3366C511.169 40.098 511.066 41.8848 511.149 43.6677V69.4352H499.543V31.271H511.32Z" fill="white"/>
<path d="M540.545 46.0721H529.694V43.5327C529.596 41.2203 529.931 38.9101 530.679 36.7212C531.532 34.9021 532.964 33.4202 534.749 32.5096C537.373 31.2455 540.253 30.6099 543.163 30.6528C546.073 30.6957 548.933 31.4158 551.519 32.7566C552.425 33.3321 553.207 34.0829 553.821 34.9652C554.435 35.8476 554.868 36.8438 555.095 37.8959C555.633 42.0422 555.839 46.2252 555.712 50.4046V69.5418H544.491V66.1352C543.903 67.4115 542.949 68.4824 541.751 69.2106C540.553 69.9388 539.166 70.2911 537.767 70.2224C535.785 70.2247 533.849 69.6196 532.219 68.488C530.533 67.3317 529.69 64.8343 529.69 60.9959V57.7759C529.476 55.7371 529.954 53.6854 531.047 51.9542C533.004 50.3198 535.268 49.0983 537.705 48.3628C541.487 46.8771 543.522 45.866 543.81 45.3293C544.166 44.3175 544.292 43.2386 544.18 42.1715C544.269 40.8529 544.123 39.5288 543.748 38.2619C543.624 37.975 543.416 37.7327 543.152 37.5667C542.888 37.4008 542.58 37.3192 542.269 37.3325C541.488 37.3325 540.995 37.5801 540.789 38.0753C540.504 39.3755 540.401 40.7093 540.482 42.0382L540.545 46.0721ZM544.183 51.2736C542.82 52.0876 541.709 53.2673 540.977 54.6802C540.639 55.9726 540.494 57.308 540.545 58.6431C540.464 59.9342 540.589 61.23 540.915 62.4815C541.052 62.7673 541.274 63.0038 541.55 63.1589C541.825 63.314 542.142 63.3803 542.456 63.3487C542.733 63.3882 543.015 63.3446 543.266 63.2235C543.518 63.1024 543.729 62.9091 543.872 62.6681C544.155 61.5146 544.258 60.3242 544.18 59.1389L544.183 51.2736Z" fill="white"/>
<path d="M571.311 31.271L570.879 36.2876C572.565 32.6956 574.99 30.7965 578.155 30.5904V44.0285C576.546 43.9206 574.935 44.2187 573.47 44.8957C573.004 45.1375 572.597 45.4792 572.278 45.8966C571.958 46.3139 571.734 46.7967 571.621 47.3107C571.29 49.6479 571.166 52.01 571.251 54.3692V69.4174H559.72V31.271H571.311Z" fill="white"/>
<path d="M591.042 46.0721H580.19V43.5327C580.093 41.2202 580.428 38.91 581.177 36.7212C582.03 34.9021 583.462 33.4202 585.247 32.5096C587.871 31.2455 590.751 30.6099 593.661 30.6528C596.571 30.6957 599.431 31.4158 602.017 32.7566C602.923 33.3322 603.705 34.083 604.319 34.9653C604.933 35.8476 605.366 36.8438 605.593 37.8959C606.13 42.0423 606.336 46.2252 606.209 50.4046V69.5418H595.053V66.1352C594.465 67.4115 593.511 68.4824 592.313 69.2106C591.115 69.9388 589.728 70.2911 588.329 70.2224C586.347 70.2247 584.411 69.6196 582.78 68.488C581.095 67.3317 580.252 64.8343 580.252 60.9959V57.7759C580.037 55.7371 580.516 53.6854 581.609 51.9542C583.547 50.3258 585.791 49.1046 588.207 48.3628C591.989 46.8771 594.024 45.866 594.311 45.3293C594.667 44.3175 594.794 43.2386 594.681 42.1715C594.771 40.8529 594.624 39.5288 594.249 38.2619C594.125 37.975 593.917 37.7327 593.653 37.5667C593.389 37.4008 593.081 37.3192 592.77 37.3325C591.989 37.3325 591.496 37.5801 591.291 38.0753C591.006 39.3755 590.902 40.7093 590.983 42.0382L591.042 46.0721ZM594.679 51.2736C593.316 52.0878 592.206 53.2675 591.473 54.6802C591.136 55.9726 590.99 57.308 591.042 58.6431C590.961 59.9342 591.085 61.23 591.411 62.4815C591.549 62.7673 591.77 63.0038 592.046 63.1589C592.322 63.314 592.638 63.3803 592.952 63.3487C593.229 63.3882 593.511 63.3446 593.763 63.2235C594.015 63.1024 594.225 62.9091 594.368 62.6681C594.651 61.5146 594.755 60.3242 594.676 59.1389L594.679 51.2736Z" fill="white"/>
<path d="M621.809 22.9117V33.3768C622.738 32.4807 623.826 31.7665 625.015 31.271C626.194 30.8093 627.45 30.5783 628.715 30.5904C630.562 30.532 632.379 31.0749 633.894 32.1382C635.165 32.9773 636.087 34.2548 636.484 35.7296C636.898 38.1838 637.064 40.6737 636.978 43.1613V69.4707H625.387V42.6033C625.457 41.1744 625.354 39.7421 625.079 38.3383C624.949 38.0627 624.744 37.8297 624.488 37.6665C624.231 37.5034 623.934 37.4168 623.63 37.4168C623.326 37.4168 623.029 37.5034 622.772 37.6665C622.516 37.8297 622.311 38.0627 622.181 38.3383C621.86 39.615 621.736 40.9334 621.811 42.2479V69.4707H610.28V22.9117H621.809Z" fill="white"/>
<path d="M486.163 79.3867H495.288V80.8723H491.526V91.1526H489.923V80.8723H486.163V79.3867Z" fill="white"/>
<path d="M504.722 91.1526L502.38 87.4368H498.742V91.0904H497.139V79.3263H501.702C502.941 79.2501 504.166 79.6235 505.154 80.3783C505.565 80.7392 505.889 81.1881 506.104 81.692C506.318 82.1959 506.417 82.7417 506.393 83.2891C506.421 84.1451 506.184 84.9887 505.715 85.7042C505.251 86.3764 504.58 86.8762 503.804 87.1258L506.516 91.0887L504.722 91.1526ZM501.762 86.0134C502.578 86.0546 503.382 85.8144 504.043 85.3327C504.319 85.0865 504.535 84.7796 504.674 84.436C504.813 84.0924 504.871 83.7212 504.845 83.3513C504.871 82.9906 504.813 82.6286 504.673 82.295C504.534 81.9614 504.318 81.6657 504.043 81.4321C503.372 80.9769 502.57 80.7593 501.762 80.8137H498.802V86.0151L501.762 86.0134Z" fill="white"/>
<path d="M510.827 79.3867H509.224V91.1526H510.827V79.3867Z" fill="white"/>
<path d="M522.91 91.1526L521.671 88.3093H515.505L514.266 91.1526H512.614L517.793 79.3867H519.458L524.637 91.1526H522.91ZM516.128 86.8184H521.061L518.594 81.1211L516.128 86.8184Z" fill="white"/>
<path d="M526.364 79.3867H527.967V89.7274H533.087V91.1491H526.364V79.3867Z" fill="white"/>
<path d="M548.191 91.1526L546.952 88.3093H540.788L539.549 91.1526H537.895L543.074 79.3867H544.739L549.918 91.1526H548.191ZM541.409 86.8184H546.342L543.875 81.1211L541.409 86.8184Z" fill="white"/>
<path d="M549.054 79.3867H558.179V80.8723H554.417V91.1526H552.814V80.8723H549.054V79.3867Z" fill="white"/>
<path d="M558.549 79.3867H567.673V80.8723H563.912V91.1526H562.309V80.8723H558.549V79.3867Z" fill="white"/>
<path d="M577.046 80.0691C577.964 80.5814 578.729 81.3296 579.264 82.2371C579.806 83.1543 580.084 84.2044 580.066 85.2706C580.08 86.3364 579.803 87.3857 579.264 88.304C578.729 89.2116 577.964 89.9599 577.046 90.472C576.091 90.9979 575.02 91.2736 573.932 91.2736C572.843 91.2736 571.772 90.9979 570.818 90.472C569.899 89.96 569.132 89.2118 568.597 88.304C568.058 87.3857 567.781 86.3364 567.795 85.2706C567.777 84.2038 568.055 83.153 568.597 82.2353C569.133 81.3276 569.899 80.5794 570.818 80.0673C571.774 79.5469 572.844 79.2743 573.932 79.2743C575.019 79.2743 576.089 79.5469 577.046 80.0673M571.681 81.3113C570.998 81.6955 570.424 82.25 570.016 82.9213C569.609 83.6159 569.395 84.407 569.395 85.2128C569.395 86.0186 569.609 86.8097 570.016 87.5043C570.418 88.1967 570.992 88.7727 571.681 89.1766C572.372 89.5858 573.16 89.7995 573.962 89.795C574.764 89.8059 575.554 89.5917 576.242 89.1766C576.932 88.7727 577.505 88.1967 577.907 87.5043C578.314 86.8097 578.529 86.0186 578.529 85.2128C578.529 84.407 578.314 83.6159 577.907 82.9213C577.499 82.25 576.926 81.6955 576.242 81.3113C575.553 80.8991 574.764 80.6852 573.962 80.6928C573.16 80.6883 572.372 80.902 571.681 81.3113Z" fill="white"/>
<path d="M589.932 91.1526L587.589 87.4368H583.952V91.0905H582.349V79.3263H586.972C588.211 79.2503 589.436 79.6236 590.424 80.3783C590.835 80.7392 591.159 81.1881 591.373 81.692C591.588 82.1959 591.687 82.7417 591.663 83.2892C591.69 84.1451 591.453 84.9887 590.985 85.7042C590.521 86.3764 589.849 86.8761 589.074 87.1258L591.786 91.0887L589.932 91.1526ZM586.972 86.0134C587.787 86.0546 588.592 85.8145 589.253 85.3328C589.529 85.0865 589.745 84.7796 589.884 84.436C590.023 84.0924 590.081 83.7212 590.054 83.3513C590.081 82.9906 590.022 82.6286 589.883 82.295C589.744 81.9614 589.528 81.6657 589.253 81.4321C588.582 80.9769 587.779 80.7593 586.972 80.8137H584.012V86.0152L586.972 86.0134Z" fill="white"/>
<path d="M602.811 79.3867H604.414V91.1526H602.749L596.091 82.0505V91.1526H594.495V79.3867H596.098L602.822 88.551L602.811 79.3867Z" fill="white"/>
<path d="M607.752 79.3867H615.891V80.8723H609.355V84.4638H615.213V85.9494H609.355V89.7274H616.137V91.1491H607.752V79.3867Z" fill="white"/>
<path d="M627.542 79.3867L623.165 87.1276V91.1526H621.5V87.1898L617.06 79.3867H618.725L622.301 85.3932L625.877 79.3867H627.542Z" fill="white"/>
<path d="M634.386 81.0589C633.866 80.9007 633.326 80.8175 632.783 80.8119C632.224 80.781 631.669 80.9098 631.18 81.1833C630.986 81.2958 630.827 81.4587 630.718 81.6549C630.609 81.8511 630.556 82.0731 630.562 82.2975C630.554 82.6635 630.686 83.0188 630.932 83.2891C631.192 83.5601 631.508 83.7711 631.858 83.9075L633.337 84.4655L635.248 85.1462C635.734 85.3718 636.159 85.712 636.486 86.1378C636.838 86.6449 637.012 87.255 636.98 87.8722C636.998 88.5161 636.803 89.148 636.426 89.6688C636.032 90.1981 635.498 90.6057 634.885 90.8452C634.162 91.1428 633.386 91.2902 632.604 91.2788C631.737 91.2836 630.877 91.1151 630.076 90.783C629.299 90.4628 628.588 90.0007 627.979 89.42L628.719 87.9983C629.271 88.531 629.92 88.9531 630.63 89.2423C631.272 89.5236 631.964 89.6711 632.664 89.6759C633.31 89.7183 633.953 89.5674 634.513 89.2423C634.725 89.1126 634.899 88.9295 635.018 88.7112C635.137 88.4929 635.196 88.2471 635.191 87.9983C635.208 87.6127 635.076 87.2354 634.821 86.9463C634.561 86.6753 634.245 86.4643 633.896 86.3279L632.355 85.8321L630.444 85.1515C629.956 84.9279 629.531 84.5874 629.205 84.1599C628.849 83.6548 628.675 83.0431 628.712 82.4255C628.694 81.8294 628.867 81.2432 629.205 80.7533C629.581 80.2467 630.095 79.8598 630.684 79.6391C631.373 79.3756 632.106 79.2494 632.843 79.2676C633.554 79.2637 634.26 79.368 634.94 79.5768C635.57 79.7586 636.172 80.0297 636.727 80.3819L636.049 81.8035C635.514 81.455 634.933 81.184 634.322 80.9985" fill="white"/>
<path d="M104.262 0H54.4438V50.0172H104.262V0Z" fill="white"/>
<path d="M28.6091 48.0535L27.7456 39.632H21.3953L20.4699 48.0535H28.6091Z" fill="white"/>
<path d="M24.6014 8.4215C22.792 18.4121 21.6613 25.7194 21.2095 30.3433H27.3139C26.4092 24.4399 25.505 17.1327 24.6014 8.4215Z" fill="white"/>
<path d="M10.5437 0H0V48.0535H2.2188L10.5437 0Z" fill="white"/>
<path d="M37.302 0L46.6125 48.0535H47.8511V0H37.302Z" fill="white"/>
<path d="M95.8773 56.3506C96.7449 59.3237 97.1197 62.4198 96.9867 65.515V67.8678H82.1239V63.4713C82.2451 62.1425 82.0548 60.8036 81.5684 59.5618C81.3495 59.2661 81.0591 59.0312 80.7248 58.8795C80.3904 58.7278 80.0231 58.6641 79.6574 58.6946C79.2325 58.6777 78.8104 58.7714 78.4322 58.9666C78.054 59.1618 77.7324 59.4519 77.4988 59.8088C76.9389 60.8522 76.6826 62.0327 76.7592 63.2154C76.6655 64.7512 76.9627 66.2856 77.6226 67.6741C78.8327 69.1984 80.3719 70.4265 82.1239 71.2655C89.2345 75.3113 93.7352 78.6344 95.6261 81.2348C97.517 83.8353 98.4417 88.0256 98.4005 93.8058C98.5912 96.9792 98.0643 100.155 96.8593 103.094C96.2996 104.12 95.5459 105.025 94.6405 105.76H102.286V56.3506H95.8773Z" fill="white"/>
<path d="M63.6304 101.989C62.5498 98.6965 62.0703 95.2349 62.2149 91.7711V87.9291H77.0777V95.1119C76.9425 96.5625 77.1535 98.0246 77.6934 99.3769C77.9536 99.709 78.2941 99.9688 78.6825 100.131C79.0708 100.294 79.4942 100.354 79.9122 100.306C80.3808 100.342 80.8504 100.251 81.2729 100.045C81.6953 99.8379 82.0556 99.5222 82.3168 99.1299C82.9163 98.0328 83.1942 96.7876 83.1183 95.5384C83.1183 92.0708 82.6253 89.8003 81.6391 88.727C79.3288 86.6851 76.8072 84.8978 74.1175 83.3958C71.3702 81.7343 68.7341 79.8941 66.2261 77.8869C64.8192 76.58 63.7233 74.9716 63.02 73.1812C62.0819 70.7126 61.6416 68.0813 61.7248 65.4403C61.582 62.3865 62.0432 59.3345 63.0819 56.4608H54.4438V106H66.4756C65.1985 104.961 64.2019 103.617 63.5773 102.09" fill="white"/>
</svg>
