<svg width="444" height="97" viewBox="0 0 444 97" fill="none" xmlns="http://www.w3.org/2000/svg">
<path d="M37.8638 0.10635C28.6247 0.10635 3.21641 0.00858546 2.96177 0.00858546L0 0L0.143559 58.8903C1.65906 56.7462 3.67385 55.0066 6.01241 53.8229L5.89962 5.92677C12.2931 5.94907 27.4626 6.00224 35.6728 6.01082C42.3387 5.87205 49.0037 6.33132 55.5882 7.38316L55.6412 7.33685C53.3393 4.96152 50.5707 3.09235 47.5109 1.84794C44.4512 0.603533 41.1672 0.0110398 37.8672 0.108077" fill="white"/>
<path d="M69.281 18.602C62.4261 11.2634 51.6694 11.3389 50.6952 11.3612H11.3737V51.502H40.3009C41.5109 51.5517 52.435 51.7747 59.0798 44.1634C62.5059 40.0153 64.2466 34.7224 63.954 29.3422C62.3866 26.8883 60.1471 24.9406 57.504 23.7328C58.8149 31.0147 57.8664 36.571 54.6807 40.242C49.7006 45.98 40.6136 45.6078 40.5299 45.6009H17.2596V17.2657H50.82C50.914 17.2657 59.8318 17.0941 65.0153 22.6692C68.0539 25.9423 69.2964 30.6871 68.7068 36.7768C68.5495 39.4918 67.8337 42.1447 66.6045 44.5682C65.3753 46.9918 63.6593 49.1336 61.5647 50.8587C51.5942 58.8834 34.6696 56.9004 34.5038 56.8781L34.3192 56.8558H18.1517C4.08803 56.8558 0.234142 68.6459 0.162362 74.9123V97H17.2528V67.5206C15.5306 67.8739 13.991 68.8337 12.9122 70.2267C11.8335 71.6197 11.2865 73.354 11.3702 75.1164V91.0972H6.03977V74.9637C6.0654 73.7132 6.62084 62.7637 18.1466 62.7637H33.962C36.124 63.0073 53.7869 64.6644 65.2204 55.4852C67.9428 53.2757 70.1787 50.523 71.7864 47.4013C73.3941 44.2796 74.3387 40.8569 74.5602 37.3498C75.3225 29.4794 73.5348 23.1736 69.2776 18.6071" fill="white"/>
<path d="M92.8829 28.1294H105.918C107.735 28.1294 109.453 28.2952 111.072 28.6269C112.691 28.9585 114.095 29.5389 115.285 30.368C116.507 31.164 117.466 32.2584 118.16 33.6514C118.886 35.0111 119.25 36.7357 119.25 38.8251C119.25 40.8813 118.92 42.6058 118.259 43.9988C117.598 45.3917 116.689 46.5027 115.533 47.3318C114.376 48.1609 113.005 48.7579 111.419 49.1227C109.833 49.4544 108.115 49.6202 106.265 49.6202H100.615V63.3504H92.8829V28.1294ZM100.615 43.0536H105.769C106.463 43.0536 107.124 42.9872 107.752 42.8546C108.412 42.7219 108.991 42.5063 109.486 42.2079C110.015 41.8762 110.428 41.4451 110.725 40.9144C111.056 40.3506 111.221 39.6542 111.221 38.8251C111.221 37.9296 111.006 37.2166 110.577 36.6859C110.18 36.1221 109.651 35.691 108.991 35.3925C108.363 35.094 107.652 34.9116 106.859 34.8453C106.066 34.7458 105.306 34.696 104.58 34.696H100.615V43.0536Z" fill="white"/>
<path d="M122.267 51.2618C122.267 49.3383 122.614 47.5971 123.308 46.0384C124.002 44.4796 124.944 43.153 126.133 42.0586C127.356 40.931 128.777 40.0687 130.396 39.4718C132.048 38.8748 133.799 38.5763 135.649 38.5763C137.5 38.5763 139.234 38.8748 140.853 39.4718C142.505 40.0687 143.926 40.931 145.116 42.0586C146.338 43.153 147.296 44.4796 147.99 46.0384C148.684 47.5971 149.031 49.3383 149.031 51.2618C149.031 53.1854 148.684 54.9265 147.99 56.4853C147.296 58.044 146.338 59.3872 145.116 60.5148C143.926 61.6092 142.505 62.4549 140.853 63.0519C139.234 63.6489 137.5 63.9473 135.649 63.9473C133.799 63.9473 132.048 63.6489 130.396 63.0519C128.777 62.4549 127.356 61.6092 126.133 60.5148C124.944 59.3872 124.002 58.044 123.308 56.4853C122.614 54.9265 122.267 53.1854 122.267 51.2618ZM129.702 51.2618C129.702 53.0859 130.214 54.5617 131.238 55.6893C132.295 56.8169 133.766 57.3807 135.649 57.3807C137.533 57.3807 138.986 56.8169 140.011 55.6893C141.068 54.5617 141.597 53.0859 141.597 51.2618C141.597 49.4378 141.068 47.9619 140.011 46.8343C138.986 45.7067 137.533 45.1429 135.649 45.1429C133.766 45.1429 132.295 45.7067 131.238 46.8343C130.214 47.9619 129.702 49.4378 129.702 51.2618Z" fill="white"/>
<path d="M153.41 39.1733H160.547V42.4566H160.646C160.877 41.9923 161.208 41.528 161.637 41.0637C162.067 40.5994 162.579 40.1848 163.174 39.82C163.768 39.4552 164.446 39.1567 165.206 38.9245C165.966 38.6924 166.792 38.5763 167.684 38.5763C169.369 38.5763 170.856 38.9245 172.144 39.621C173.466 40.3175 174.457 41.4119 175.118 42.9043C175.977 41.3456 177.018 40.2346 178.24 39.5713C179.463 38.908 180.966 38.5763 182.751 38.5763C184.37 38.5763 185.724 38.8582 186.815 39.422C187.938 39.9527 188.814 40.6989 189.442 41.6606C190.102 42.5892 190.565 43.7003 190.829 44.9937C191.127 46.254 191.275 47.6137 191.275 49.073V63.3504H183.841V49.2719C183.841 48.1443 183.593 47.1826 183.098 46.3866C182.635 45.5575 181.792 45.1429 180.57 45.1429C179.711 45.1429 178.984 45.2922 178.389 45.5907C177.827 45.856 177.365 46.2374 177.001 46.7348C176.671 47.2323 176.423 47.8127 176.258 48.476C176.126 49.1393 176.06 49.8357 176.06 50.5654V63.3504H168.625V50.5654C168.625 50.1342 168.609 49.6036 168.576 48.9735C168.543 48.3433 168.427 47.7464 168.229 47.1826C168.031 46.6188 167.7 46.1379 167.238 45.7399C166.808 45.3419 166.164 45.1429 165.305 45.1429C164.347 45.1429 163.57 45.3253 162.975 45.6902C162.381 46.0218 161.918 46.4861 161.588 47.0831C161.29 47.6469 161.092 48.2936 160.993 49.0232C160.894 49.7528 160.844 50.5156 160.844 51.3116V63.3504H153.41V39.1733Z" fill="white"/>
<path d="M197.229 39.1733H204.068V42.3571H204.167C204.465 41.926 204.845 41.4948 205.307 41.0637C205.803 40.5994 206.365 40.1848 206.992 39.82C207.653 39.4552 208.364 39.1567 209.124 38.9245C209.883 38.6924 210.693 38.5763 211.552 38.5763C213.336 38.5763 214.955 38.8914 216.409 39.5215C217.863 40.1185 219.102 40.9808 220.126 42.1084C221.184 43.2028 221.993 44.5128 222.555 46.0384C223.117 47.564 223.397 49.2388 223.397 51.0628C223.397 52.7542 223.133 54.3793 222.604 55.9381C222.109 57.4636 221.382 58.8234 220.424 60.0173C219.499 61.2112 218.359 62.173 217.004 62.9026C215.649 63.5991 214.113 63.9473 212.395 63.9473C210.842 63.9473 209.388 63.7152 208.033 63.2509C206.711 62.7534 205.621 61.9243 204.762 60.7635H204.663V74.6927H197.229V39.1733ZM204.068 51.2618C204.068 53.0859 204.58 54.5617 205.605 55.6893C206.662 56.8169 208.132 57.3807 210.016 57.3807C211.899 57.3807 213.353 56.8169 214.377 55.6893C215.434 54.5617 215.963 53.0859 215.963 51.2618C215.963 49.4378 215.434 47.9619 214.377 46.8343C213.353 45.7067 211.899 45.1429 210.016 45.1429C208.132 45.1429 206.662 45.7067 205.605 46.8343C204.58 47.9619 204.068 49.4378 204.068 51.2618Z" fill="white"/>
<path d="M242.87 60.3158H242.77C241.944 61.6092 240.837 62.5378 239.45 63.1016C238.095 63.6654 236.658 63.9473 235.138 63.9473C234.014 63.9473 232.924 63.7815 231.867 63.4499C230.842 63.1514 229.934 62.6871 229.141 62.057C228.348 61.4268 227.72 60.6475 227.257 59.7188C226.795 58.7902 226.564 57.7124 226.564 56.4853C226.564 55.0924 226.811 53.915 227.307 52.9532C227.836 51.9915 228.53 51.1955 229.389 50.5654C230.281 49.9352 231.288 49.4544 232.412 49.1227C233.535 48.7579 234.692 48.4926 235.881 48.3268C237.104 48.1609 238.31 48.0614 239.499 48.0283C240.722 47.9951 241.845 47.9785 242.87 47.9785C242.87 46.6519 242.39 45.6072 241.432 44.8445C240.507 44.0485 239.4 43.6505 238.112 43.6505C236.889 43.6505 235.766 43.9158 234.741 44.4465C233.75 44.9439 232.858 45.6404 232.065 46.5359L228.1 42.4566C229.488 41.1632 231.107 40.2014 232.957 39.5713C234.807 38.908 236.724 38.5763 238.706 38.5763C240.887 38.5763 242.671 38.8582 244.059 39.422C245.48 39.9527 246.603 40.7486 247.429 41.8099C248.288 42.8712 248.883 44.1812 249.213 45.7399C249.544 47.2655 249.709 49.0398 249.709 51.0628V63.3504H242.87V60.3158ZM241.036 52.7542C240.474 52.7542 239.764 52.7874 238.905 52.8537C238.078 52.8869 237.269 53.0196 236.476 53.2517C235.716 53.4839 235.055 53.8321 234.494 54.2964C233.965 54.7607 233.701 55.4074 233.701 56.2365C233.701 57.132 234.08 57.7953 234.84 58.2264C235.6 58.6576 236.393 58.8731 237.219 58.8731C237.946 58.8731 238.64 58.7736 239.301 58.5747C239.995 58.3757 240.606 58.0938 241.135 57.729C241.663 57.3641 242.077 56.8998 242.374 56.336C242.704 55.7722 242.87 55.1089 242.87 54.3461V52.7542H241.036Z" fill="white"/>
<path d="M266.673 42.6624H272.224C273.756 42.6624 275.048 42.5023 276.1 42.1821C277.185 41.8619 278.046 41.4456 278.684 40.9333C279.323 40.3889 279.785 39.7645 280.072 39.0601C280.359 38.3236 280.503 37.5391 280.503 36.7065C280.503 35.906 280.359 35.1535 280.072 34.449C279.785 33.7125 279.323 33.0721 278.684 32.5278C278.046 31.9834 277.185 31.5671 276.1 31.2789C275.048 30.9587 273.756 30.7986 272.224 30.7986H266.673V42.6624ZM263.228 27.6285H273.086C276.531 27.6285 279.243 28.381 281.221 29.886C283.231 31.391 284.235 33.6645 284.235 36.7065C284.235 39.7485 283.231 42.038 281.221 43.575C279.243 45.08 276.531 45.8325 273.086 45.8325H266.673V61.635H263.228V27.6285Z" fill="white"/>
<path d="M292.333 47.3318C292.333 46.3037 292.3 45.259 292.234 44.1977C292.201 43.1365 292.168 41.7601 292.135 40.0687H295.356V44.3967H295.455C295.687 43.7666 296.017 43.1696 296.447 42.6058C296.876 42.0089 297.388 41.4782 297.983 41.0139C298.611 40.5496 299.321 40.1848 300.114 39.9195C300.94 39.621 301.865 39.4718 302.89 39.4718C303.815 39.4718 304.624 39.5713 305.318 39.7702L304.674 43.0038C304.244 42.838 303.617 42.7551 302.79 42.7551C301.535 42.7551 300.461 43.0038 299.569 43.5013C298.677 43.9656 297.933 44.5791 297.339 45.3419C296.744 46.0715 296.298 46.8675 296 47.7298C295.736 48.5921 295.604 49.4212 295.604 50.2171V63.3504H292.333V47.3318Z" fill="white"/>
<path d="M327.445 51.7096C327.445 50.4161 327.231 49.2056 326.801 48.078C326.405 46.9504 325.826 45.9721 325.066 45.1429C324.306 44.3138 323.381 43.6671 322.291 43.2028C321.234 42.7053 320.027 42.4566 318.673 42.4566C317.318 42.4566 316.096 42.7053 315.005 43.2028C313.948 43.6671 313.039 44.3138 312.279 45.1429C311.552 45.9721 310.974 46.9504 310.545 48.078C310.148 49.2056 309.95 50.4161 309.95 51.7096C309.95 53.003 310.148 54.2135 310.545 55.3411C310.974 56.4687 311.552 57.4471 312.279 58.2762C313.039 59.1053 313.948 59.7686 315.005 60.2661C316.096 60.7304 317.318 60.9625 318.673 60.9625C320.027 60.9625 321.234 60.7304 322.291 60.2661C323.381 59.7686 324.306 59.1053 325.066 58.2762C325.826 57.4471 326.405 56.4687 326.801 55.3411C327.231 54.2135 327.445 53.003 327.445 51.7096ZM331.014 51.7096C331.014 53.4673 330.7 55.0924 330.072 56.5848C329.477 58.0772 328.635 59.3706 327.544 60.465C326.454 61.5595 325.149 62.4218 323.629 63.0519C322.142 63.6489 320.49 63.9473 318.673 63.9473C316.889 63.9473 315.236 63.6489 313.717 63.0519C312.23 62.4218 310.941 61.5595 309.851 60.465C308.76 59.3706 307.901 58.0772 307.274 56.5848C306.679 55.0924 306.381 53.4673 306.381 51.7096C306.381 49.9518 306.679 48.3267 307.274 46.8343C307.901 45.3419 308.76 44.0485 309.851 42.9541C310.941 41.8596 312.23 41.0139 313.717 40.417C315.236 39.7868 316.889 39.4718 318.673 39.4718C320.49 39.4718 322.142 39.7868 323.629 40.417C325.149 41.0139 326.454 41.8596 327.544 42.9541C328.635 44.0485 329.477 45.3419 330.072 46.8343C330.7 48.3267 331.014 49.9518 331.014 51.7096Z" fill="white"/>
<path d="M339.329 51.4111C339.329 52.6382 339.544 53.7989 339.973 54.8934C340.436 55.9546 341.047 56.8998 341.807 57.729C342.6 58.5249 343.509 59.1716 344.533 59.6691C345.59 60.1334 346.73 60.3656 347.953 60.3656C349.142 60.3656 350.266 60.15 351.323 59.7188C352.413 59.2877 353.372 58.6907 354.198 57.9279C355.024 57.132 355.651 56.1868 356.081 55.0924C356.544 53.9979 356.758 52.7708 356.725 51.4111C356.725 50.184 356.527 49.0398 356.131 47.9785C355.734 46.8841 355.156 45.9389 354.396 45.1429C353.636 44.3138 352.711 43.6671 351.62 43.2028C350.53 42.7053 349.307 42.4566 347.953 42.4566C346.73 42.4566 345.59 42.7053 344.533 43.2028C343.509 43.6671 342.6 44.3138 341.807 45.1429C341.047 45.9389 340.436 46.8841 339.973 47.9785C339.544 49.0398 339.329 50.184 339.329 51.4111ZM338.734 68.0266C339.692 69.32 340.931 70.3481 342.451 71.1109C344.004 71.9069 345.723 72.3049 347.606 72.3049C349.258 72.3049 350.662 72.0561 351.819 71.5587C352.975 71.0943 353.9 70.4476 354.594 69.6185C355.321 68.7894 355.833 67.811 356.131 66.6834C356.461 65.589 356.626 64.4117 356.626 63.1514V58.9726H356.527C355.47 60.5645 354.181 61.6921 352.661 62.3554C351.141 63.0187 349.539 63.3504 347.854 63.3504C346.169 63.3504 344.583 63.0519 343.096 62.4549C341.642 61.858 340.37 61.0454 339.279 60.0173C338.189 58.956 337.33 57.6958 336.702 56.2365C336.074 54.7773 335.761 53.202 335.761 51.5106C335.761 49.8192 336.058 48.2438 336.653 46.7846C337.247 45.3253 338.057 44.0485 339.081 42.9541C340.138 41.8596 341.378 41.0139 342.798 40.417C344.252 39.7868 345.838 39.4718 347.556 39.4718C348.25 39.4718 348.977 39.5381 349.737 39.6708C350.53 39.8034 351.307 40.0356 352.066 40.3672C352.859 40.6989 353.636 41.1632 354.396 41.7601C355.156 42.3239 355.866 43.0536 356.527 43.949H356.626V40.0687H359.897V63.1514C359.897 64.4117 359.732 65.7548 359.402 67.1809C359.104 68.607 358.493 69.917 357.568 71.1109C356.676 72.3049 355.42 73.2998 353.801 74.0957C352.182 74.8917 350.067 75.2897 347.457 75.2897C345.144 75.2897 343.079 74.9083 341.262 74.1455C339.445 73.3827 337.793 72.2054 336.306 70.6134L338.734 68.0266Z" fill="white"/>
<path d="M367.596 47.3318C367.596 46.3037 367.563 45.259 367.497 44.1977C367.464 43.1365 367.43 41.7601 367.397 40.0687H370.619V44.3967H370.718C370.949 43.7666 371.28 43.1696 371.709 42.6058C372.139 42.0089 372.651 41.4782 373.246 41.0139C373.874 40.5496 374.584 40.1848 375.377 39.9195C376.203 39.621 377.128 39.4718 378.152 39.4718C379.078 39.4718 379.887 39.5713 380.581 39.7702L379.937 43.0038C379.507 42.838 378.879 42.7551 378.053 42.7551C376.798 42.7551 375.724 43.0038 374.832 43.5013C373.94 43.9656 373.196 44.5791 372.601 45.3419C372.007 46.0715 371.561 46.8675 371.263 47.7298C370.999 48.5921 370.867 49.4212 370.867 50.2171V63.3504H367.596V47.3318Z" fill="white"/>
<path d="M396.888 51.7593C396.062 51.7593 395.022 51.809 393.766 51.9085C392.543 51.9749 391.354 52.1739 390.198 52.5055C389.074 52.804 388.099 53.2849 387.273 53.9482C386.48 54.6115 386.084 55.5235 386.084 56.6843C386.084 57.447 386.233 58.1103 386.53 58.6741C386.86 59.2048 387.29 59.6525 387.819 60.0173C388.347 60.349 388.925 60.5977 389.553 60.7635C390.214 60.8962 390.875 60.9625 391.536 60.9625C392.725 60.9625 393.75 60.7635 394.609 60.3656C395.501 59.9676 396.244 59.4369 396.839 58.7736C397.434 58.0772 397.863 57.2812 398.127 56.3858C398.425 55.4572 398.574 54.4788 398.574 53.4507V51.7593H396.888ZM398.574 49.073V48.476C398.574 44.4631 396.591 42.4566 392.626 42.4566C389.917 42.4566 387.554 43.3686 385.539 45.1927L383.556 42.8546C385.737 40.5994 389.008 39.4718 393.37 39.4718C394.493 39.4718 395.567 39.6376 396.591 39.9692C397.648 40.3009 398.557 40.8149 399.317 41.5114C400.077 42.1747 400.688 43.0204 401.151 44.0485C401.613 45.0766 401.845 46.3037 401.845 47.7298V58.1269C401.845 59.0224 401.878 59.9676 401.944 60.9625C402.043 61.9243 402.142 62.7202 402.241 63.3504H399.069C398.97 62.7866 398.887 62.173 398.821 61.5097C398.788 60.8464 398.772 60.1997 398.772 59.5696H398.673C397.714 61.1283 396.575 62.2559 395.253 62.9524C393.964 63.6157 392.378 63.9473 390.495 63.9473C389.471 63.9473 388.479 63.7981 387.521 63.4996C386.563 63.2343 385.704 62.8197 384.944 62.2559C384.217 61.659 383.622 60.9459 383.16 60.1168C382.73 59.2545 382.515 58.2596 382.515 57.132C382.515 55.2416 382.995 53.7658 383.953 52.7045C384.944 51.6101 386.167 50.7975 387.62 50.2669C389.107 49.7363 390.677 49.4046 392.329 49.2719C394.014 49.1393 395.55 49.073 396.938 49.073H398.574Z" fill="white"/>
<path d="M409.406 45.2424C409.406 44.3801 409.373 43.5179 409.306 42.6556C409.273 41.7933 409.224 40.931 409.158 40.0687H412.677V43.6008H412.776C413.569 42.241 414.659 41.2129 416.047 40.5165C417.468 39.82 418.872 39.4718 420.26 39.4718C420.887 39.4718 421.548 39.5381 422.242 39.6708C422.969 39.8034 423.663 40.0521 424.324 40.417C424.985 40.7486 425.596 41.2295 426.158 41.8596C426.752 42.4898 427.248 43.3023 427.644 44.2972C428.305 42.8048 429.346 41.6275 430.767 40.7652C432.221 39.9029 433.724 39.4718 435.277 39.4718C438.251 39.4718 440.448 40.2677 441.869 41.8596C443.29 43.4184 444 45.657 444 48.5755V63.3504H440.729V49.7694C440.729 47.4147 440.316 45.6072 439.49 44.347C438.664 43.0867 437.127 42.4566 434.881 42.4566C433.658 42.4566 432.634 42.7053 431.808 43.2028C430.982 43.6671 430.304 44.2972 429.776 45.0932C429.28 45.8891 428.917 46.8012 428.685 47.8293C428.454 48.8242 428.338 49.8689 428.338 50.9633V63.3504H425.067V49.7694C425.067 47.4147 424.654 45.6072 423.828 44.347C423.002 43.0867 421.466 42.4566 419.219 42.4566C419.021 42.4566 418.558 42.5229 417.831 42.6556C417.137 42.7882 416.41 43.1531 415.65 43.75C414.89 44.347 414.197 45.2424 413.569 46.4364C412.974 47.6303 412.677 49.2885 412.677 51.4111V63.3504H409.406V45.2424Z" fill="white"/>
</svg>
