<svg width="265" height="96" viewBox="0 0 265 96" fill="none" xmlns="http://www.w3.org/2000/svg">
<path d="M32.9699 94.5591H28.163L8.38164 64.1893H8.1877C8.4509 67.75 8.58943 71.0197 8.58943 73.9985V94.5729H4.69687V58.3841H9.44828L29.1743 88.6292H29.3682C29.3405 88.1858 29.2574 86.7588 29.1466 84.3342C29.0357 81.9096 28.9942 80.1916 29.0219 79.1525V58.3841H32.956V94.5729L32.9699 94.5591Z" fill="white"/>
<path d="M64.1103 94.5591H43.9411V58.3703H64.1103V62.1111H48.1522V73.7768H63.1545V77.4899H48.1522V90.8044H64.1103V94.5729V94.5591Z" fill="white"/>
<path d="M84.2242 94.5591H80.013V62.1111H68.557V58.3703H95.6802V62.1111H84.2242V94.5591Z" fill="white"/>
<path d="M129.522 94.5591L122.222 70.327C121.875 69.2602 121.487 67.9024 121.058 66.2675C120.629 64.6327 120.407 63.649 120.393 63.3165C120.033 65.4917 119.451 67.8747 118.662 70.4655L111.583 94.5591H107.427L97.7996 58.3703H102.26L107.981 80.7181C108.771 83.8493 109.353 86.6895 109.713 89.2388C110.156 86.2185 110.821 83.2674 111.694 80.3717L118.177 58.3703H122.637L129.439 80.5796C130.228 83.1427 130.893 86.0245 131.447 89.2388C131.766 86.8974 132.348 84.0433 133.234 80.6765L138.928 58.3703H143.388L133.705 94.5591H129.522Z" fill="white"/>
<path d="M181.455 76.4093C181.455 82.2006 179.987 86.7588 177.064 90.0701C174.141 93.3814 170.068 95.044 164.846 95.044C159.623 95.044 155.398 93.4091 152.503 90.1532C149.608 86.8973 148.154 82.2975 148.154 76.3538C148.154 70.4101 149.608 65.8934 152.517 62.6514C155.426 59.4094 159.54 57.7884 164.887 57.7884C170.234 57.7884 174.141 59.4371 177.064 62.7345C179.987 66.032 181.441 70.5902 181.441 76.3954L181.455 76.4093ZM152.614 76.4093C152.614 81.3139 153.653 85.0269 155.745 87.5624C157.836 90.0978 160.87 91.3586 164.846 91.3586C168.822 91.3586 171.883 90.0978 173.933 87.5762C175.983 85.0547 177.008 81.3277 177.008 76.4093C177.008 71.4908 175.983 67.847 173.947 65.3254C171.911 62.8038 168.891 61.5569 164.901 61.5569C160.912 61.5569 157.836 62.8177 155.759 65.3531C153.681 67.8885 152.628 71.5739 152.628 76.4093H152.614Z" fill="white"/>
<path d="M194.74 79.5127V94.5591H190.528V58.3703H200.461C204.893 58.3703 208.176 59.2154 210.296 60.9196C212.415 62.6237 213.482 65.173 213.482 68.5951C213.482 73.375 211.058 76.6171 206.209 78.2935L216.031 94.5591H211.058L202.289 79.5127H194.74ZM194.74 75.8966H200.502C203.467 75.8966 205.655 75.3009 207.041 74.1232C208.426 72.9455 209.118 71.1721 209.118 68.8168C209.118 66.4615 208.412 64.7019 206.999 63.649C205.586 62.596 203.328 62.0695 200.211 62.0695H194.74V75.9105V75.8966Z" fill="white"/>
<path d="M248.972 94.5591H244.027L230.839 77.005L227.057 80.3717V94.5591H222.846V58.3703H227.057V76.3123L243.473 58.3703H248.446L233.887 74.0955L248.986 94.5729L248.972 94.5591Z" fill="white"/>
<path d="M23.9094 23.8441H40.4355V47.4943C37.8589 48.3117 35.2408 48.9352 32.5811 49.3508C29.9214 49.7665 26.8323 49.9882 23.3415 49.9882C15.9858 49.9882 10.2509 47.7991 6.15052 43.421C2.05017 39.0429 0 32.9052 0 25.0218C0 19.9648 1.01123 15.5312 3.04755 11.735C5.07002 7.92495 7.9929 5.0293 11.8162 3.02035C15.6256 0.997547 20.0862 0 25.2116 0C30.337 0 35.227 0.955982 39.7152 2.85409L37.5265 7.84183C33.1352 5.98528 28.9102 5.04315 24.8514 5.04315C18.9364 5.04315 14.3097 6.80271 10.985 10.3357C7.66044 13.8687 5.99814 18.7456 5.99814 25.0079C5.99814 31.5751 7.60503 36.549 10.805 39.9434C14.0049 43.3379 18.7148 45.0281 24.9207 45.0281C28.2868 45.0281 31.5837 44.6402 34.7975 43.8643V28.9011H23.9233V23.8441H23.9094Z" fill="white"/>
<path d="M80.5108 49.337H53.4015V0.692741H80.5108V5.72204H59.0533V21.3918H79.2087V26.3796H59.0533V44.28H80.5108V49.337Z" fill="white"/>
<path d="M130.574 49.337H124.119L97.5494 8.52071H97.2862C97.6464 13.3145 97.8126 17.7065 97.8126 21.6966V49.337H92.5902V0.692741H98.9762L125.49 41.3428H125.753C125.712 40.747 125.615 38.8212 125.448 35.5653C125.282 32.3094 125.241 29.9957 125.282 28.5963V0.692741H130.574V49.337Z" fill="white"/>
<path d="M145.299 49.337V0.692741H150.951V49.3231H145.299V49.337Z" fill="white"/>
<path d="M202.371 0.692741V32.157C202.371 37.6989 200.695 42.0632 197.343 45.236C193.991 48.4087 189.392 49.9882 183.546 49.9882C177.7 49.9882 173.17 48.3949 169.957 45.1944C166.757 41.9939 165.15 37.6158 165.15 32.0185V0.692741H170.802V32.4203C170.802 36.4797 171.91 39.5971 174.126 41.7723C176.343 43.9475 179.598 45.0281 183.906 45.0281C188.214 45.0281 191.165 43.9336 193.381 41.7584C195.598 39.5832 196.706 36.4382 196.706 32.3648V0.692741H202.371Z" fill="white"/>
<path d="M243.971 36.3966C243.971 40.6777 242.419 44.0167 239.316 46.4136C236.213 48.8105 232.002 50.002 226.683 50.002C220.92 50.002 216.487 49.2539 213.384 47.7714V42.3126C215.379 43.1577 217.554 43.8228 219.909 44.3077C222.264 44.7926 224.591 45.042 226.89 45.042C230.658 45.042 233.498 44.3216 235.41 42.8945C237.321 41.4675 238.263 39.4724 238.263 36.9231C238.263 35.2328 237.931 33.8612 237.252 32.7805C236.573 31.6998 235.451 30.7161 233.858 29.8017C232.279 28.8873 229.855 27.862 226.627 26.7121C222.097 25.0911 218.87 23.1791 216.93 20.9623C214.991 18.7456 214.021 15.8499 214.021 12.2754C214.021 8.53456 215.434 5.54193 218.246 3.32516C221.058 1.10839 224.785 0 229.425 0C234.066 0 238.707 0.886708 242.765 2.66012L241.006 7.57858C236.989 5.8883 233.096 5.05701 229.301 5.05701C226.309 5.05701 223.968 5.69433 222.278 6.98283C220.587 8.27132 219.756 10.0586 219.756 12.3446C219.756 14.0349 220.061 15.4066 220.684 16.4872C221.308 17.5679 222.347 18.5516 223.829 19.4522C225.297 20.3527 227.555 21.3364 230.603 22.4309C235.701 24.2459 239.205 26.1995 241.131 28.2915C243.042 30.3698 244.012 33.0853 244.012 36.4105L243.971 36.3966Z" fill="white"/>
<path d="M253.502 90.2641C253.502 89.2389 253.752 88.2829 254.264 87.3962C254.777 86.5095 255.469 85.8029 256.37 85.2902C257.256 84.7776 258.226 84.5144 259.251 84.5144C260.276 84.5144 261.218 84.7638 262.119 85.2764C263.019 85.789 263.712 86.4818 264.224 87.3823C264.737 88.269 265 89.2389 265 90.2641C265 91.2894 264.751 92.2038 264.266 93.0905C263.767 93.9772 263.074 94.6838 262.188 95.2103C261.301 95.7368 260.318 96 259.265 96C258.212 96 257.243 95.7368 256.342 95.2103C255.456 94.6838 254.763 93.9772 254.264 93.1043C253.766 92.2176 253.516 91.2755 253.516 90.2641M254.32 90.2641C254.32 91.1508 254.541 91.9682 254.985 92.7303C255.428 93.4923 256.037 94.1019 256.799 94.5453C257.561 94.9886 258.392 95.2103 259.265 95.2103C260.138 95.2103 260.969 94.9886 261.731 94.5453C262.493 94.1019 263.088 93.5061 263.532 92.7441C263.975 91.9821 264.197 91.1647 264.197 90.2641C264.197 89.3635 263.975 88.56 263.532 87.798C263.088 87.0359 262.493 86.4402 261.731 85.9968C260.969 85.5535 260.152 85.3318 259.251 85.3318C258.351 85.3318 257.547 85.5535 256.785 85.9968C256.024 86.4402 255.428 87.0359 254.985 87.798C254.541 88.5461 254.32 89.3774 254.32 90.278M261.592 88.8925C261.592 89.2943 261.481 89.6545 261.274 89.9732C261.052 90.2918 260.747 90.5135 260.359 90.6659L262.174 93.6862H260.886L259.307 90.9846H258.282V93.6862H257.146V86.8835H259.14C259.985 86.8835 260.609 87.0498 260.997 87.3823C261.398 87.7148 261.592 88.2136 261.592 88.8925ZM258.282 90.0424H259.099C259.514 90.0424 259.833 89.9316 260.082 89.7238C260.332 89.516 260.456 89.2389 260.456 88.9202C260.456 88.5323 260.346 88.269 260.124 88.1028C259.902 87.9365 259.556 87.8534 259.085 87.8534H258.282V90.0424Z" fill="white"/>
</svg>
