<svg xmlns="http://www.w3.org/2000/svg" fill="none" viewBox="0 0 197 46">
  <path fill="url(#a)" d="m196.787 23.3752-16.096 22.5157H16.9028L.8063 23.3751 16.9028.8594H180.691l16.096 22.5158Z"/>
  <path fill="url(#b)" d="m196.787 23.3752-16.096 22.5157H16.9028L.8063 23.3751 16.9028.8594H180.691l16.096 22.5158Z"/>
  <path fill="#020202" d="m41.9428 18.3301-3.433 7.9468-3.3853-7.9468h-2.7813l4.7998 11.1255h2.543l4.8157-11.1255h-2.5589Zm3.9646 11.1255h2.5747V18.3301h-2.5747v11.1255Zm8.2507-2.0662v-2.5747h5.1654v-2.0026h-5.1654v-2.4158h5.8488v-2.0662h-8.4077v11.1255h8.6143v-2.0662h-6.0554Zm22.7775-9.0593-2.5907 7.8832-2.5429-7.8832h-2.384l-2.6225 7.8196-2.5111-7.8196h-2.6701l3.6555 11.1255h2.7495l2.5271-7.5335 2.4476 7.5335h2.7655l3.6396-11.1255h-2.4635Zm23.9404 0-2.5909 7.8832-2.5429-7.8832h-2.384l-2.6225 7.8196-2.5111-7.8196h-2.6701L89.21 29.4556h2.7495l2.5271-7.5335 2.4476 7.5335h2.7655l3.6393-11.1255h-2.463Zm6.936 9.0593v-2.5747h5.166v-2.0026h-5.166v-2.4158h5.849v-2.0662h-8.408v11.1255h8.615v-2.0662h-6.056Zm16.75-3.7191c.906-.4768 1.479-1.335 1.479-2.4476 0-1.7324-1.431-2.8926-4.212-2.8926h-5.436v11.1255h5.754c2.924 0 4.45-1.1126 4.45-3.0357 0-1.3986-.795-2.3522-2.035-2.7496Zm-3.051-3.4012c1.255 0 1.939.4292 1.939 1.3033 0 .8741-.684 1.3192-1.939 1.3192h-2.559v-2.6225h2.559Zm.445 7.2475h-3.004V24.767h3.004c1.335 0 2.05.445 2.05 1.3827 0 .9536-.715 1.3669-2.05 1.3669Zm10.722 2.1297c3.179 0 4.721-1.5894 4.721-3.4489 0-4.0846-6.469-2.6701-6.469-4.7204 0-.6993.588-1.2714 2.114-1.2714.985 0 2.05.286 3.083.8741l.795-1.9549c-1.033-.6516-2.464-.9854-3.862-.9854-3.163 0-4.689 1.5735-4.689 3.4648 0 4.1323 6.469 2.7019 6.469 4.7839 0 .6834-.62 1.192-2.146 1.192-1.335 0-2.733-.4768-3.671-1.1602l-.874 1.939c.985.7629 2.765 1.2874 4.529 1.2874Zm6.957-.1907h2.575V18.3301h-2.575v11.1255Zm7.996 0h2.575v-9.0275h3.56v-2.098h-9.695v2.098h3.56v9.0275Zm10.556-2.0662v-2.5747h5.166v-2.0026h-5.166v-2.4158h5.849v-2.0662h-8.408v11.1255h8.615v-2.0662h-6.056Z"/>
  <defs>
    <linearGradient id="a" x1="191.5" x2="14.5532" y1="-.2899" y2="-.29" gradientUnits="userSpaceOnUse">
      <stop stop-color="#BC8431"/>
      <stop offset=".3216" stop-color="#ECC777"/>
      <stop offset=".507" stop-color="#FEF7DF"/>
      <stop offset=".7063" stop-color="#ECC777"/>
      <stop offset="1" stop-color="#BC8431"/>
    </linearGradient>
    <linearGradient id="b" x1="191.5" x2="14.5532" y1="-.2899" y2="-.29" gradientUnits="userSpaceOnUse">
      <stop stop-color="#BC8431"/>
      <stop offset=".3216" stop-color="#ECC777"/>
      <stop offset=".507" stop-color="#FEF7DF"/>
      <stop offset=".7063" stop-color="#ECC777"/>
      <stop offset="1" stop-color="#BC8431"/>
    </linearGradient>
  </defs>
</svg>
