<svg width="177" height="71" viewBox="0 0 177 71" fill="none" xmlns="http://www.w3.org/2000/svg">
<path d="M26.951 49.39H21.714C21.7955 49.5026 21.9147 49.5821 22.05 49.614C23.467 50.082 23.858 50.937 23.243 52.279L19.85 59.809L17.706 64.509C16.644 62.347 15.637 60.297 14.65 58.247C14.6067 58.011 14.6462 57.7672 14.762 57.557C15.6067 55.6557 16.464 53.7607 17.334 51.872C17.502 51.3251 17.7876 50.8215 18.1707 50.3965C18.5539 49.9716 19.0253 49.6356 19.552 49.412H14.277L14.594 49.58C16.234 50.121 16.572 50.88 15.88 52.431L13.047 58.656L10.419 64.456C10.3507 64.38 10.2885 64.2988 10.233 64.213L6.03299 55.621C5.99102 55.4578 5.92851 55.3005 5.84698 55.153C5.30598 54.146 4.84001 53.103 4.33801 52.078C4.1162 51.7436 4.03586 51.3349 4.11456 50.9413C4.19327 50.5478 4.42461 50.2014 4.758 49.978C4.84837 49.9179 4.94491 49.8676 5.04599 49.828L5.79199 49.492H0C0.620877 50.0379 1.20609 50.6231 1.75201 51.244C2.15703 51.7883 2.48947 52.3829 2.741 53.013H2.72198C4.60465 56.813 6.47467 60.6277 8.332 64.457L10.032 67.905L13.571 60.205L17.355 67.884L17.655 67.306L24.719 51.817C24.8798 51.2683 25.1648 50.764 25.5518 50.3431C25.9389 49.9222 26.4176 49.5961 26.951 49.39Z" fill="#051C4E"/>
<path d="M104.287 4.67805L97.5032 13.5311L90.7742 22.3311L86.5802 16.8311L99.2542 0.00305176H70.2542L90.7542 26.8611L101.564 12.8091V33.8091H67.9402V12.6371L79.0112 26.858L84.0112 20.222L82.2772 17.948L78.9772 22.3091L65.2402 4.69604V36.418H104.288L104.287 4.67805ZM75.4552 2.27805H94.0932L84.8292 14.56L75.4552 2.27805Z" fill="#051C4E"/>
<path d="M88.3389 66.2401C86.6389 64.0021 85.0769 61.6921 83.4179 59.3811C83.6774 59.341 83.933 59.2788 84.1819 59.1951C85.1171 58.9619 85.9693 58.4739 86.6439 57.7854C87.3184 57.0969 87.7889 56.2349 88.0029 55.2951C88.235 53.9378 87.9192 52.5438 87.1249 51.419C86.3306 50.2942 85.1226 49.5304 83.7659 49.2951C83.515 49.2517 83.2613 49.227 83.0069 49.2211C80.5279 49.1651 78.0489 49.2021 75.5709 49.2021L75.2349 49.2761C75.8161 49.4176 76.3297 49.7576 76.687 50.2374C77.0442 50.7172 77.2228 51.3067 77.1919 51.9041C77.2109 56.3211 77.2299 60.739 77.1729 65.156C77.126 65.7926 76.9068 66.4045 76.5389 66.926C76.2029 67.446 75.7749 67.5261 75.4019 67.7831H81.0869C79.8199 67.2831 79.1669 66.7021 79.1299 65.6391C79.0369 63.6261 79.1109 61.594 79.1109 59.582C79.6718 59.3843 80.2837 59.3857 80.8437 59.586C81.4037 59.7864 81.8776 60.1734 82.1859 60.682C82.3169 60.887 82.4859 61.0731 82.6329 61.2821C84.0679 63.3321 85.5029 65.3821 86.9199 67.4511C87.3916 68.213 88.0252 68.8617 88.7758 69.3513C89.5264 69.8409 90.3755 70.1593 91.2629 70.284C92.0441 70.346 92.8287 70.3524 93.6109 70.3031C92.709 69.964 91.8467 69.5281 91.0389 69.0031C90.0294 68.1977 89.1226 67.2714 88.3389 66.245V66.2401ZM81.8148 58.5241H79.0569C79.0569 55.8781 79.0379 53.3241 79.0759 50.7701C79.0759 50.6021 79.4299 50.285 79.6169 50.27C80.6783 50.2015 81.7433 50.2078 82.8039 50.2891C84.9479 50.5321 86.3819 52.9541 85.8609 55.2651C85.7433 56.223 85.2571 57.0975 84.5054 57.7029C83.7538 58.3084 82.7959 58.5972 81.8349 58.508L81.8148 58.5241Z" fill="#051C4E"/>
<path d="M63.5982 67.602C61.5112 64.937 59.5542 62.16 57.5032 59.402L58.3032 59.216C59.2908 58.9534 60.1827 58.4139 60.8737 57.661C61.5647 56.9082 62.026 55.9734 62.2032 54.967C62.2671 54.2797 62.1949 53.5865 61.9909 52.927C61.7869 52.2675 61.4549 51.6547 61.014 51.1235C60.5731 50.5924 60.0319 50.1533 59.4213 49.8313C58.8106 49.5093 58.1426 49.3108 57.4552 49.247C57.3362 49.236 57.2162 49.229 57.0962 49.226C54.7482 49.189 52.3802 49.207 50.0322 49.207L49.3422 49.244C49.9586 49.4121 50.4963 49.7918 50.8608 50.3166C51.2254 50.8413 51.3937 51.4776 51.3362 52.114C51.3362 56.14 51.3172 60.147 51.3552 64.173C51.3742 65.72 51.2432 67.155 49.3252 67.789H55.0662C53.5372 67.269 53.1842 66.089 53.2212 64.676C53.2402 64.135 53.2212 63.576 53.2212 63.036V59.588C53.7853 59.3835 54.4026 59.3793 54.9695 59.5762C55.5363 59.773 56.0182 60.1589 56.3342 60.669L56.7822 61.269C57.9942 63.021 59.2052 64.769 60.4352 66.525C60.9462 67.3136 61.533 68.0504 62.1872 68.725C62.9641 69.4255 63.8973 69.9298 64.909 70.1958C65.9206 70.4618 66.9813 70.4818 68.0022 70.254C65.6482 69.484 64.7532 69.074 63.5982 67.602ZM56.1802 58.502H53.2542C53.2352 58.223 53.1982 58.002 53.1982 57.794C53.1982 55.556 53.2172 53.34 53.1792 51.103C53.1602 50.395 53.4392 50.19 54.0922 50.227C54.6878 50.2676 55.2856 50.2676 55.8812 50.227C59.1242 49.948 60.6902 53.153 59.9072 55.651C59.6905 56.4728 59.2066 57.1991 58.5316 57.7154C57.8566 58.2318 57.029 58.5089 56.1792 58.503L56.1802 58.502Z" fill="#051C4E"/>
<path d="M104.509 48.9819C103.172 48.8533 101.822 49.0009 100.544 49.4158C99.2663 49.8307 98.0874 50.5038 97.0806 51.3935C96.0739 52.2832 95.2608 53.3705 94.692 54.5876C94.1232 55.8048 93.8107 57.1259 93.7739 58.4689C93.8299 59.0279 93.8479 59.606 93.9419 60.169C94.3748 62.3264 95.5193 64.2761 97.1922 65.7057C98.865 67.1352 100.969 67.9618 103.168 68.053C109.076 68.463 114.332 63.5769 113.829 57.6529C113.524 55.3501 112.428 53.2252 110.727 51.6429C109.026 50.0607 106.828 49.1198 104.509 48.9819ZM109.225 65.104C108.164 66.2727 106.736 67.0444 105.177 67.2917C103.618 67.539 102.021 67.247 100.651 66.4639C99.5485 65.7811 98.5933 64.8854 97.8412 63.8291C97.0891 62.7729 96.5551 61.5772 96.2704 60.3121C95.9858 59.0471 95.9562 57.7379 96.1835 56.4613C96.4107 55.1846 96.8902 53.9661 97.5939 52.8769C98.6086 51.3163 100.202 50.2227 102.023 49.8366C103.843 49.4504 105.743 49.8034 107.304 50.8179C107.593 51.0054 107.867 51.214 108.125 51.4419C109.207 52.3199 110.079 53.4278 110.679 54.6852C111.278 55.9426 111.59 57.3179 111.592 58.711C111.659 59.8821 111.483 61.0544 111.076 62.1545C110.668 63.2545 110.038 64.2587 109.225 65.104Z" fill="#051C4E"/>
<path d="M129.542 48.9449L128.2 49.0569C126.945 49.1885 125.727 49.5661 124.617 50.1682C123.507 50.7703 122.527 51.5851 121.732 52.566C120.937 53.547 120.344 54.6749 119.985 55.8854C119.626 57.0959 119.509 58.3652 119.64 59.621C119.696 60.1578 119.796 60.6889 119.94 61.2089C120.619 63.3012 121.97 65.1103 123.784 66.3544C125.598 67.5985 127.772 68.2076 129.968 68.0869C131.349 68.0699 132.71 67.7591 133.961 67.1751C135.212 66.591 136.324 65.7472 137.223 64.6997C138.123 63.6523 138.789 62.4253 139.177 61.1004C139.565 59.7755 139.666 58.3831 139.474 57.0159C138.786 52.4489 134.462 48.9639 129.542 48.9449ZM134.854 65.272C133.787 66.3794 132.379 67.0982 130.856 67.3144C129.333 67.5305 127.782 67.2316 126.448 66.465C125.334 65.7763 124.369 64.8701 123.612 63.8005C122.856 62.7308 122.322 61.5196 122.044 60.2393C121.765 58.9589 121.748 57.6356 121.992 56.3483C122.237 55.061 122.738 53.8362 123.466 52.7469C124.509 51.2053 126.122 50.1412 127.95 49.7887C129.778 49.4361 131.671 49.824 133.212 50.867C133.44 51.0207 133.658 51.1876 133.866 51.367C136.14 53.212 137.389 55.895 137.389 59.867C137.233 61.9181 136.331 63.8411 134.854 65.2729V65.272Z" fill="#051C4E"/>
<path d="M39.0271 65.123C36.5481 60.123 34.1061 55.095 31.6651 50.1C31.5531 49.857 31.3861 49.485 31.2171 49.466C30.2281 49.41 29.2601 49.429 28.2721 49.429C28.4857 49.5873 28.7253 49.7071 28.9801 49.783C29.2962 49.8873 29.5625 50.1049 29.7277 50.3939C29.893 50.6828 29.9454 51.0227 29.8751 51.348L23.3511 65.699C23.1758 66.1903 22.8945 66.6371 22.5273 67.0076C22.1601 67.3781 21.7158 67.6633 21.2261 67.843H26.5941C26.5611 67.7916 26.5171 67.7482 26.4652 67.716C26.4133 67.6838 26.3548 67.6636 26.2941 67.657C25.9952 67.6294 25.7083 67.5256 25.4609 67.3555C25.2135 67.1854 25.014 66.9547 24.8812 66.6854C24.7485 66.4161 24.6871 66.1173 24.7028 65.8175C24.7185 65.5177 24.8109 65.2269 24.9711 64.973C26.3011 61.9783 27.6431 58.99 28.9971 56.008C29.5381 54.815 30.0971 53.641 30.7121 52.318L35.3341 61.712C34.2531 61.712 33.3211 61.749 32.4081 61.693C31.4951 61.637 31.4011 61.935 31.3461 62.662H33.2851C34.1051 62.681 35.0931 62.42 35.6851 62.793C36.2771 63.166 36.4851 64.172 36.8221 64.899C37.4931 66.316 37.1391 67.137 35.6481 67.788H41.7051C41.0928 67.5634 40.5365 67.2088 40.0742 66.7488C39.612 66.2888 39.2547 65.7341 39.0271 65.123Z" fill="#051C4E"/>
<path d="M9.02112 51.162C9.42147 51.7263 9.75915 52.3326 10.0281 52.97C10.8281 54.592 11.6281 56.213 12.4881 57.97C12.7481 57.429 12.8981 56.981 13.1401 56.591C13.2706 56.3603 13.3375 56.099 13.3342 55.834C13.3309 55.5689 13.2574 55.3094 13.1211 55.082C12.5801 54.075 12.1141 53.032 11.6121 52.007C11.3903 51.6726 11.31 51.2639 11.3887 50.8703C11.4674 50.4768 11.6987 50.1304 12.0321 49.907C12.1225 49.8469 12.219 49.7966 12.3201 49.757L13.0661 49.421H7.26611C7.88759 49.9634 8.47379 50.5449 9.02112 51.162Z" fill="#051C4E"/>
<path d="M165.5 65.253V65.122C165.09 60.5 164.719 55.878 164.345 51.255C164.289 50.655 164.233 50.081 164.159 49.486H163.991L156.573 64.434L148.819 49.411C148.684 49.5603 148.605 49.7513 148.595 49.952L147.365 65.534C147.291 66.484 147.179 67.416 146.005 67.678H149.845C149.609 67.6339 149.384 67.5418 149.185 67.4073C148.985 67.2728 148.816 67.0988 148.686 66.8961C148.557 66.6934 148.471 66.4664 148.433 66.229C148.395 65.9916 148.406 65.7489 148.466 65.516C148.726 62.329 148.986 59.142 149.266 55.955L149.378 54.688H149.527L156.181 67.623L162.574 54.688C162.984 58.099 163.226 61.435 163.45 64.771C163.586 65.3925 163.479 66.0427 163.15 66.5872C162.82 67.1317 162.295 67.529 161.681 67.697H167.481C166.227 66.726 165.966 66.8 165.5 65.253Z" fill="#051C4E"/>
<path d="M169.991 54.119H169.471V50.119H168.056V49.658H171.398V50.119H169.986L169.991 54.119ZM174.047 54.119L172.535 50.167H172.511C172.54 50.4803 172.554 50.8523 172.554 51.283V54.119H172.075V49.6609H172.856L174.268 53.338H174.292L175.716 49.6609H176.49V54.119H175.97V51.2419C175.97 50.9126 175.984 50.5549 176.013 50.1689H175.989L174.466 54.115L174.047 54.119Z" fill="#051C4E"/>
</svg>
