<svg width="412" height="33" viewBox="0 0 412 33" fill="none" xmlns="http://www.w3.org/2000/svg">
<path d="M28.1747 15.0323V28.566C26.3559 29.7149 24.367 30.5775 22.2792 31.1227C20.1947 31.6972 18.0417 31.9939 15.8774 32.0049C13.6793 32.0302 11.4997 31.6066 9.47555 30.761C7.58545 29.9735 5.87578 28.818 4.44881 27.3636C3.02184 25.9093 1.90689 24.186 1.17064 22.2967C-0.390213 18.2274 -0.390213 13.7356 1.17064 9.66621C1.91235 7.77788 3.02748 6.05405 4.45109 4.59496C5.87814 3.14809 7.58726 2.00103 9.47555 1.22297C11.5034 0.391456 13.6815 -0.0242585 15.8774 0.0010935C18.1619 -0.00690015 20.4246 0.439232 22.5304 1.31291C24.6463 2.19239 26.5183 3.55811 27.9904 5.29625L25.6508 7.37839C24.4771 5.93824 22.9762 4.79095 21.2695 4.0294C19.5752 3.27594 17.7368 2.88994 15.8783 2.89746C14.0969 2.87454 12.3305 3.22137 10.6938 3.91552C9.16467 4.56711 7.7861 5.51926 6.64225 6.71377C5.49839 7.90829 4.61324 9.32009 4.04079 10.8632C2.81742 14.166 2.81742 17.7892 4.04079 21.092C4.61323 22.6353 5.49837 24.0472 6.64221 25.2419C7.78606 26.4366 9.16463 27.3888 10.6938 28.0406C12.3306 28.7346 14.097 29.0814 15.8783 29.0587C17.461 29.0597 19.0387 28.8851 20.5817 28.5382C22.1292 28.1906 23.6305 27.6666 25.0553 26.9767V17.9697H16.6582V15.0275L28.1747 15.0323Z" fill="#051C4E"/>
<path d="M56.0253 28.4751V31.4174H35.8828V0.54834H55.6072V3.49073H39.0032V14.2179H54.3288V17.1603H39.0032V28.476L56.0253 28.4751Z" fill="#051C4E"/>
<path d="M88.0514 0.548256V31.4174H85.0687L66.3899 5.79856H66.2988C66.2988 6.40265 66.3065 7.05134 66.322 7.74474L66.3676 9.89485C66.3825 10.6342 66.3903 11.3658 66.3909 12.0898V31.4183H63.2705V0.549307H66.2066L84.9271 26.1671H85.0183C85.0183 25.5929 85.0105 24.9518 84.995 24.2438C84.9795 23.5357 84.9643 22.8114 84.9494 22.0708C84.9339 21.3314 84.9261 20.5994 84.9261 19.8748V0.546387L88.0514 0.548256Z" fill="#051C4E"/>
<path d="M96.2173 31.4174V0.54834H99.3377V31.4174H96.2173Z" fill="#051C4E"/>
<path d="M119.067 32.0048C117.369 32.0284 115.682 31.7447 114.088 31.1676C112.665 30.6582 111.373 29.847 110.303 28.7912C109.233 27.7354 108.41 26.4607 107.894 25.0572C107.306 23.4704 107.018 21.7908 107.045 20.1017V0.54834H110.165V19.9209C110.04 22.3465 110.86 24.7273 112.459 26.5748C113.988 28.2333 116.19 29.0626 119.066 29.0626C120.284 29.1417 121.505 28.9604 122.645 28.531C123.785 28.1016 124.818 27.4343 125.673 26.5748C127.27 24.7271 128.091 22.3464 127.967 19.9209V0.54834H131.087V20.1017C131.113 21.7908 130.826 23.4703 130.238 25.0572C129.722 26.4608 128.9 27.7356 127.829 28.7915C126.759 29.8473 125.467 30.6584 124.044 31.1676C122.451 31.7445 120.764 32.0283 119.067 32.0048Z" fill="#051C4E"/>
<path d="M159.487 23.4516C159.489 24.5542 159.271 25.6465 158.845 26.6656C158.402 27.7113 157.718 28.641 156.848 29.3812C155.845 30.2222 154.683 30.8604 153.43 31.2595C151.844 31.758 150.185 31.995 148.52 31.9609C146.454 31.9583 144.401 31.6298 142.44 30.9878C140.545 30.3956 138.768 29.4846 137.187 28.2952L139.068 25.7605C140.415 26.7162 141.88 27.4994 143.427 28.0913C145.046 28.7341 146.774 29.0645 148.519 29.0645C151.18 29.0645 153.152 28.5439 154.436 27.5029C155.043 27.0427 155.534 26.4493 155.868 25.7696C156.202 25.09 156.372 24.3429 156.362 23.5875C156.372 22.8486 156.223 22.116 155.927 21.4374C155.595 20.7371 155.1 20.1243 154.482 19.649C153.674 19.0306 152.777 18.5349 151.82 18.1784C150.507 17.6772 149.157 17.2761 147.782 16.9784C144.172 16.1945 141.573 15.0556 139.982 13.5616C139.223 12.8846 138.618 12.0566 138.207 11.1322C137.796 10.2078 137.587 9.20796 137.596 8.19846C137.588 7.09327 137.814 5.99856 138.262 4.98532C138.718 3.97313 139.409 3.08142 140.28 2.38272C141.28 1.59273 142.425 1.001 143.653 0.640246C145.201 0.190306 146.81 -0.0232982 148.424 0.00682178C150.434 0.0058826 152.431 0.319123 154.341 0.93494C156.205 1.52249 157.969 2.38445 159.572 3.49165L157.691 6.02639C156.381 5.10662 154.954 4.3609 153.447 3.80842C151.842 3.20558 150.139 2.89871 148.422 2.90319C145.852 2.90319 143.925 3.40111 142.641 4.39687C142.051 4.80556 141.568 5.34724 141.233 5.97698C140.898 6.60673 140.72 7.30628 140.714 8.01754C140.711 8.72714 140.875 9.42777 141.194 10.064C141.512 10.7003 141.976 11.2549 142.549 11.6842C143.772 12.68 145.852 13.5092 148.789 14.172C152.644 15.0472 155.389 16.2542 157.025 17.7928C157.817 18.5111 158.446 19.3868 158.87 20.3621C159.295 21.3375 159.505 22.3903 159.487 23.4516Z" fill="#051C4E"/>
<path d="M200.781 0.548256V31.4174H197.799L179.125 5.79856H179.034C179.034 6.40265 179.041 7.05134 179.057 7.74474C179.072 8.43813 179.088 9.15488 179.103 9.89485C179.118 10.6342 179.126 11.3658 179.126 12.0898V31.4183H176.005V0.549307H178.941L197.662 26.1671H197.753C197.753 25.5929 197.745 24.9518 197.73 24.2438C197.714 23.5357 197.699 22.8114 197.684 22.0708C197.669 21.3314 197.661 20.5994 197.661 19.8748V0.546387L200.781 0.548256Z" fill="#051C4E"/>
<path d="M229.09 28.4751V31.4174H208.948V0.54834H228.677V3.49073H212.068V14.2179H227.394V17.1603H212.068V28.476L229.09 28.4751Z" fill="#051C4E"/>
<path d="M256.848 3.49073H246.8V31.4174H243.682V3.49073H233.586V0.54834H256.848V3.49073Z" fill="#051C4E"/>
<path d="M300.666 0.54834L291.076 31.4174H288.14L282.635 14.3528C282.389 13.5995 282.136 12.7849 281.877 11.9091C281.618 11.0332 281.366 10.1721 281.121 9.32563C280.875 8.48105 280.646 7.67378 280.432 6.90384C280.218 6.13389 280.035 5.44753 279.882 4.84471H279.791C279.637 5.44881 279.461 6.13517 279.263 6.90384C279.065 7.67251 278.843 8.47978 278.598 9.32563C278.353 10.1709 278.1 11.032 277.84 11.9091C277.58 12.7862 277.328 13.6008 277.084 14.3528L271.578 31.4174H268.642L259.053 0.54834H262.448L267.082 15.9824C267.694 17.9739 268.26 19.9515 268.78 21.9149C269.299 23.8784 269.743 25.5831 270.11 27.0293H270.202C270.415 26.2753 270.645 25.453 270.89 24.5625C271.136 23.672 271.388 22.7742 271.647 21.869C271.905 20.9638 272.158 20.0736 272.404 19.1984C272.651 18.3232 272.896 17.5389 273.139 16.8455L278.37 0.55126H281.351L286.582 16.8455C286.795 17.5402 287.032 18.3245 287.293 19.1984C287.555 20.0724 287.813 20.9626 288.069 21.869C288.328 22.7748 288.58 23.6726 288.826 24.5625C289.072 25.4524 289.301 26.2746 289.515 27.0293H289.607C289.974 25.5806 290.417 23.8758 290.937 21.9149C291.457 19.954 292.023 17.9764 292.635 15.9824L297.269 0.54834H300.666Z" fill="#051C4E"/>
<path d="M320.023 0.00582455C322.206 -0.016547 324.37 0.406902 326.379 1.24966C328.269 2.0369 329.978 3.1922 331.405 4.64642C332.832 6.10063 333.947 7.82394 334.683 9.71311C336.242 13.7499 336.242 18.2111 334.683 22.2478C333.938 24.1403 332.823 25.8704 331.403 27.3402C329.978 28.8004 328.269 29.9624 326.379 30.7571C322.293 32.416 317.709 32.416 313.623 30.7571C311.733 29.9628 310.024 28.8008 308.599 27.3402C307.178 25.8707 306.064 24.1406 305.319 22.2478C303.76 18.2111 303.76 13.7499 305.319 9.71311C306.055 7.82389 307.17 6.10052 308.597 4.6463C310.024 3.19208 311.733 2.0368 313.623 1.24966C315.647 0.404046 317.826 -0.0193951 320.023 0.00582455ZM320.023 29.0634C321.79 29.0834 323.542 28.7366 325.164 28.0454C326.693 27.3936 328.072 26.4414 329.216 25.2468C330.36 24.0521 331.245 22.64 331.817 21.0967C333.041 17.794 333.041 14.1707 331.817 10.8679C331.245 9.3248 330.36 7.91291 329.216 6.71839C328.072 5.52387 326.693 4.57179 325.164 3.92025C323.529 3.24784 321.774 2.90173 320.002 2.90173C318.231 2.90173 316.476 3.24784 314.841 3.92025C313.312 4.57184 311.933 5.52399 310.789 6.71851C309.645 7.91302 308.76 9.32483 308.188 10.8679C306.964 14.1706 306.964 17.7941 308.188 21.0967C308.76 22.64 309.645 24.0521 310.789 25.2468C311.933 26.4414 313.312 27.3936 314.841 28.0454C316.477 28.7393 318.243 29.0861 320.023 29.0634Z" fill="#051C4E"/>
<path d="M345.676 18.3362V31.4174H342.556V0.548259H355.771C357.234 0.5247 358.691 0.739115 360.083 1.18273C361.262 1.56192 362.348 2.17836 363.272 2.99307C364.14 3.77115 364.822 4.72932 365.269 5.79856C365.743 6.96354 365.977 8.21004 365.957 9.46525C366.019 11.4577 365.36 13.4067 364.099 14.9642C362.796 16.4963 361.011 17.5554 359.029 17.9735L366.828 31.4163H363.067L355.634 18.3353L345.676 18.3362ZM345.676 15.3938H355.724C357.606 15.5214 359.471 14.9752 360.977 13.8553C361.594 13.3042 362.076 12.6235 362.39 11.8637C362.704 11.1038 362.841 10.2842 362.79 9.46525C362.839 8.64307 362.702 7.82041 362.388 7.05712C362.074 6.29383 361.593 5.60898 360.977 5.05219C359.477 3.91795 357.609 3.36272 355.724 3.49065H345.676V15.3938Z" fill="#051C4E"/>
<path d="M376.141 31.4174H373.025V0.54834H376.146V16.1183H376.237L393.168 0.54834H397.526L382.297 14.4897L398.035 31.4174H393.767L380.048 16.4809L376.149 19.9209L376.141 31.4174Z" fill="#051C4E"/>
<path d="M405.931 21.3771C406.61 21.3728 407.283 21.507 407.906 21.7713C409.123 22.2786 410.091 23.2354 410.602 24.4371C410.869 25.0548 411.005 25.7201 411.001 26.3919C411.006 27.0615 410.87 27.7248 410.602 28.34C410.088 29.5385 409.121 30.4926 407.906 31.0001C407.28 31.26 406.607 31.3937 405.928 31.3937C405.248 31.3937 404.575 31.26 403.949 31.0001C402.73 30.4952 401.76 29.5406 401.245 28.34C400.978 27.7247 400.842 27.0614 400.847 26.3919C400.843 25.7202 400.978 25.0549 401.245 24.4371C401.758 23.2333 402.728 22.276 403.949 21.7713C404.575 21.5073 405.25 21.3731 405.931 21.3771ZM405.931 30.8413C406.533 30.8442 407.129 30.7243 407.682 30.4891C408.765 30.0384 409.627 29.1884 410.084 28.12C410.32 27.5727 410.441 26.9842 410.441 26.3895C410.441 25.7949 410.32 25.2062 410.084 24.659C409.624 23.5942 408.763 22.7472 407.682 22.2965C407.127 22.0638 406.531 21.9439 405.928 21.9439C405.325 21.9439 404.729 22.0638 404.174 22.2965C403.097 22.7504 402.239 23.5967 401.779 24.659C401.543 25.2063 401.422 25.7949 401.422 26.3895C401.422 26.9842 401.543 27.5727 401.779 28.12C402.236 29.1858 403.095 30.0351 404.174 30.4891C404.729 30.7255 405.327 30.8455 405.931 30.8413ZM408.215 25.2321C408.224 25.5803 408.113 25.9212 407.899 26.1986C407.682 26.4713 407.379 26.6656 407.038 26.7516L408.439 29.1696H407.627L406.296 26.8483H404.686V29.1141H404V23.6017H406.367C406.614 23.5994 406.859 23.6343 407.095 23.7051C407.309 23.7689 407.509 23.8722 407.684 24.0093C407.852 24.145 407.985 24.3177 408.072 24.5136C408.171 24.7403 408.22 24.9853 408.215 25.2321ZM406.366 26.1986C406.658 26.2083 406.946 26.1314 407.192 25.9776C407.298 25.8827 407.383 25.7669 407.441 25.6378C407.499 25.5087 407.529 25.369 407.529 25.2278C407.529 25.0866 407.499 24.9471 407.441 24.818C407.383 24.6888 407.298 24.5731 407.192 24.4782C406.944 24.3288 406.657 24.2543 406.366 24.2638H404.685V26.1976L406.366 26.1986Z" fill="#051C4E"/>
</svg>
