<svg width="331" height="30" viewBox="0 0 331 30" fill="none" xmlns="http://www.w3.org/2000/svg">
<g opacity="0.999184">
<path fill-rule="evenodd" clip-rule="evenodd" d="M243.127 29.3801C241.575 26.0538 240.244 23.0597 239.026 20.1788C236.588 14.412 231.485 3.87977 230.268 1.331C230.157 1.10956 230.379 0.77747 230.6 0.88813L237.142 2.32734C237.252 2.32734 237.363 2.32734 237.363 2.44056C238.138 4.21436 241.796 11.8632 243.127 14.968C243.238 15.0788 243.349 15.1895 243.459 15.1895C243.681 15.1895 243.794 15.0788 243.794 14.968C245.344 11.0858 247.563 5.21077 248.338 3.21553C248.449 2.77266 248.892 2.55128 249.337 2.55128H254.658C255.102 2.55128 255.434 2.88337 255.655 3.21553C256.653 5.32149 259.869 12.306 261.087 15.0787C261.2 15.1895 261.309 15.3002 261.422 15.3002C261.643 15.3002 261.754 15.1895 261.754 15.0787C263.527 10.5322 266.408 3.54762 266.852 2.55128C266.965 2.55128 266.965 2.44056 267.075 2.44056C267.851 2.21662 272.175 1.22028 273.728 0.88813C273.949 0.77747 274.171 0.99885 274.06 1.22028C272.729 4.54651 265.19 22.2847 263.859 25.611L262.418 29.3801C262.196 29.6014 262.086 29.7122 261.864 29.7122C261.532 29.7122 261.2 29.6014 261.087 29.2694C259.645 26.0538 254.548 14.5227 252.773 10.7536C252.663 10.5322 252.439 10.5322 252.331 10.7536C251.443 12.9728 247.45 22.2847 246.121 25.611L244.458 29.4907C244.348 29.7122 244.126 29.8229 243.905 29.8229C243.57 29.8229 243.238 29.7122 243.127 29.3801L243.127 29.3801ZM66.6309 29.2694C65.0781 25.9431 63.7471 22.949 62.5293 20.0681C60.0889 14.3013 54.9883 3.76905 53.7686 1.22028C53.6582 0.99884 53.8789 0.66419 54.1035 0.77747L60.9746 2.43805C61.085 2.43805 61.1982 2.43805 61.1982 2.55127C61.9736 4.32507 65.6318 11.9739 66.9629 15.0787C67.0732 15.1895 67.1836 15.3002 67.2949 15.3002C67.5166 15.3002 67.6269 15.1895 67.6269 15.0787C69.1797 11.199 71.3984 5.32148 72.1738 3.21552C72.2842 2.77265 72.7266 2.55127 73.1699 2.55127H78.2695C78.7129 2.55127 79.0469 2.88336 79.2685 3.21552C80.2676 5.32148 83.4805 12.306 84.7012 15.0787C84.8115 15.1895 84.9219 15.3002 85.0332 15.3002C85.2568 15.3002 85.3652 15.1895 85.3652 15.0787C87.1387 10.5322 90.0225 3.54761 90.4648 2.55127C90.5762 2.55127 90.5762 2.43805 90.6865 2.43805C91.4639 2.21661 95.7891 1.22028 97.3389 0.88812C97.5605 0.77746 97.7842 0.99884 97.7842 0.99884C96.4531 4.32507 88.915 22.0633 87.584 25.3896L85.9189 29.2694C85.7002 29.4907 85.5889 29.6014 85.3652 29.6014C85.0332 29.6014 84.7012 29.4907 84.5898 29.1586C83.1484 25.9431 78.0488 14.412 76.2744 10.6429C76.164 10.4215 75.9424 10.4215 75.832 10.6429C74.9433 12.8595 70.9531 22.174 69.6221 25.5002L67.959 29.3801C67.8506 29.6014 67.6269 29.7122 67.4053 29.7122C67.0732 29.7122 66.7412 29.6014 66.6309 29.2693L66.6309 29.2694ZM198.007 13.9692C198.007 8.31555 201.109 0.11066 211.31 0.11066C221.51 0.11066 224.614 8.31556 224.614 13.9692C224.614 19.7335 221.51 27.8276 211.31 27.8276C201.109 27.8276 198.007 19.7335 198.007 13.9692ZM204.214 13.9692C204.214 15.9644 205.1 22.0634 211.31 22.0634C217.517 22.0634 218.404 15.9644 218.404 13.9692C218.404 11.9739 217.517 5.875 211.31 5.875C205.1 5.875 204.214 11.9739 204.214 13.9692ZM310.09 24.9442C309.758 24.8335 309.647 24.3907 309.758 24.0586L311.866 20.1788C311.977 19.8442 312.42 19.7335 312.752 19.8442C315.301 20.9538 317.631 21.8419 319.847 21.8419C321.843 21.8419 323.506 20.843 323.506 19.512C323.506 17.8489 321.51 17.074 318.959 16.2965C315.079 14.968 310.203 13.5263 310.203 7.98346C310.203 2.99408 313.97 0 319.072 0C320.735 0 324.28 0.22137 328.716 2.32733C329.049 2.55127 329.159 2.99408 329.049 3.32623L327.274 7.31671C327.164 7.6488 326.721 7.76202 326.389 7.6488C324.726 6.98455 321.51 5.875 319.404 5.875C317.741 5.875 316.3 6.43103 316.3 7.87274C316.521 9.53583 319.183 10.2001 322.177 11.3097C325.946 12.6382 330.047 14.5227 330.047 19.1799C330.047 23.8372 325.946 27.4955 320.068 27.4955C316.41 27.4955 313.308 26.6074 310.09 24.9442L310.09 24.9442ZM123.836 24.9442C123.504 24.8335 123.393 24.3907 123.504 24.0586L125.612 20.1788C125.723 19.8442 126.166 19.7335 126.498 19.8442C129.049 20.9538 131.376 21.8419 133.593 21.8419C135.588 21.8419 137.251 20.843 137.251 19.512C137.251 17.8489 135.256 17.074 132.705 16.2965C128.825 14.968 123.949 13.5263 123.949 7.98346C123.949 2.99408 127.718 0 132.818 0C134.481 0 138.026 0.22137 142.462 2.32733C142.794 2.55127 142.905 2.99408 142.794 3.32623L141.02 7.31671C140.91 7.6488 140.467 7.76202 140.135 7.6488C138.472 6.98455 135.256 5.875 133.15 5.875C131.487 5.875 130.045 6.43103 130.045 7.87274C130.267 9.53583 132.929 10.2001 135.923 11.3097C139.692 12.6382 143.793 14.5227 143.793 19.1799C143.793 23.8372 139.692 27.4955 133.814 27.4955C130.156 27.4955 127.054 26.6074 123.836 24.9442L123.836 24.9442ZM282.707 27.3848C282.373 27.3848 282.041 27.0527 282.041 26.718V1.22028C282.041 0.88813 282.373 0.55353 282.707 0.55353H299.89C300.225 0.55353 300.557 0.88812 300.557 1.22028V5.65357C300.557 5.98823 300.225 6.32032 299.89 6.32032H288.14V11.4204H297.119C297.451 11.4204 297.784 11.7525 297.784 12.0846V16.4097C297.784 16.7419 297.451 17.074 297.119 17.074H288.14V21.7312H299.89C300.225 21.7312 300.557 22.0634 300.557 22.3955V26.718C300.557 27.0527 300.225 27.3848 299.89 27.3848L282.707 27.3848ZM184.148 27.3848C183.816 27.3848 183.481 27.0527 183.481 26.718V17.074H173.505V26.718C173.505 27.0527 173.171 27.3848 172.839 27.3848H168.073C167.738 27.3848 167.406 27.0527 167.406 26.718V1.22028C167.406 0.88813 167.738 0.55353 168.073 0.55353H172.839C173.171 0.55353 173.505 0.88812 173.505 1.22028V11.3097H183.481V1.22028C183.481 0.88813 183.816 0.55353 184.148 0.55353H188.916C189.359 0.55353 189.691 0.88812 189.58 1.22028V26.718C189.58 27.0527 189.246 27.3848 188.916 27.3848H184.148ZM107.761 27.3848C107.429 27.3848 107.097 27.0527 107.097 26.718V1.22028C107.097 0.88813 107.429 0.55353 107.761 0.55353H112.528C112.972 0.55353 113.304 0.88812 113.192 1.22028V26.718C113.192 27.0527 112.86 27.3848 112.528 27.3848H107.761ZM26.4971 27.3848C26.165 27.3848 25.8301 27.0527 25.8301 26.718V1.22028C25.8301 0.88813 26.165 0.55353 26.4971 0.55353H43.6816C44.0137 0.55353 44.3457 0.88812 44.3457 1.22028V5.65357C44.3457 5.98823 44.0137 6.32032 43.6816 6.32032H31.9287V11.4204H40.9092C41.2412 11.4204 41.5732 11.7525 41.5732 12.0846V16.4097C41.5732 16.7419 41.2412 17.074 40.9092 17.074H31.9287V21.7312H43.6816C44.0137 21.7312 44.3457 22.0634 44.3457 22.3955V26.718C44.3457 27.0527 44.0137 27.3848 43.6816 27.3848L26.4971 27.3848ZM0.66406 27.3848C0.33203 27.3848 0 27.0527 0 26.718V1.22028C0 0.88813 0.33203 0.55353 0.66406 0.55353H5.54297C5.875 0.55353 6.20996 0.88812 6.20996 1.22028V21.7312H15.1895C15.5215 21.7312 15.8535 21.9527 15.8535 22.3955V26.718C15.8535 27.0527 15.5215 27.3848 15.1895 27.3848L0.66406 27.3848Z" fill="#051C4E"/>
</g>
</svg>
