<svg xmlns="http://www.w3.org/2000/svg" width="1117" height="270" viewBox="0 0 1117 270" fill="none"><path d="M16 118.994H43.0394V2.00552H16V118.994Z" fill="url(#paint0_linear_104_235)"></path><path d="M165.389 2.00552V73.0345L107.305 2.00552H84.9389V118.994H111.644V47.9655L169.896 118.994H192.095V2.00552H165.389Z" fill="url(#paint1_linear_104_235)"></path><path d="M322.205 23.732V2.00552H233.91V118.994H260.949V76.3771H315.028V54.6505H260.949V23.732H322.205Z" fill="url(#paint2_linear_104_235)"></path><path d="M354.682 118.994H440.307V96.9337H381.721V2.00552H354.682V118.994Z" fill="url(#paint3_linear_104_235)"></path><path d="M520.028 121C553.243 121 572.938 101.948 572.938 67.5193V2.00552H546.233V66.5166C546.233 88.7445 536.719 97.9365 520.195 97.9365C503.838 97.9365 494.157 88.7445 494.157 66.5166V2.00552H467.118V67.5193C467.118 101.948 486.813 121 520.028 121Z" fill="url(#paint4_linear_104_235)"></path><path d="M640.702 97.2679V70.1934H694.948V49.1354H640.702V23.732H702.125V2.00552H613.83V118.994H704.295V97.2679H640.702Z" fill="url(#paint5_linear_104_235)"></path><path d="M820.432 2.00552V73.0345L762.347 2.00552H739.981V118.994H766.687V47.9655L824.938 118.994H847.137V2.00552H820.432Z" fill="url(#paint6_linear_104_235)"></path><path d="M944.867 121C965.23 121 982.088 113.646 993.104 100.109L975.745 84.0649C967.9 93.2569 958.053 97.9365 946.369 97.9365C924.504 97.9365 908.981 82.5608 908.981 60.5C908.981 38.4392 924.504 23.0635 946.369 23.0635C958.053 23.0635 967.9 27.7431 975.745 36.768L993.104 20.7238C982.088 7.35359 965.23 0 945.034 0C908.647 0 881.608 25.2362 881.608 60.5C881.608 95.7638 908.647 121 944.867 121Z" fill="url(#paint7_linear_104_235)"></path><path d="M1052.41 97.2679V70.1934H1106.65V49.1354H1052.41V23.732H1113.83V2.00552H1025.53V118.994H1116V97.2679H1052.41Z" fill="url(#paint8_linear_104_235)"></path><path d="M90.0368 268.243H114.925L69.1015 165.757H45.6772L0 268.243H24.3026L33.3795 246.282H80.96L90.0368 268.243ZM40.9924 228.273L57.2429 189.036L73.4935 228.273H40.9924Z" fill="url(#paint9_linear_104_235)"></path><path d="M210.291 165.757V227.981L159.343 165.757H139.725V268.243H163.15V206.019L214.244 268.243H233.715V165.757H210.291Z" fill="url(#paint10_linear_104_235)"></path><path d="M272.13 268.243H318.685C352.211 268.243 375.196 248.039 375.196 217C375.196 185.961 352.211 165.757 318.685 165.757H272.13V268.243ZM295.847 248.771V185.229H317.514C337.864 185.229 351.186 197.381 351.186 217C351.186 236.619 337.864 248.771 317.514 248.771H295.847Z" fill="url(#paint11_linear_104_235)"></path><path d="M462.879 268.243H486.596V165.757H462.879V268.243Z" fill="url(#paint12_linear_104_235)"></path><path d="M640.596 268.243L640.303 165.757H620.832L583.06 229.445L544.703 165.757H525.085V268.243H547.338V208.069L577.35 257.409H588.038L618.196 206.751L618.343 268.243H640.596Z" fill="url(#paint13_linear_104_235)"></path><path d="M723.437 165.757H679.078V268.243H702.795V239.986H723.437C750.814 239.986 767.943 225.785 767.943 202.945C767.943 179.959 750.814 165.757 723.437 165.757ZM722.12 220.66H702.795V185.083H722.12C736.614 185.083 743.934 191.671 743.934 202.945C743.934 214.072 736.614 220.66 722.12 220.66Z" fill="url(#paint14_linear_104_235)"></path><path d="M870.464 268.243H895.353L849.529 165.757H826.105L780.428 268.243H804.73L813.807 246.282H861.388L870.464 268.243ZM821.42 228.273L837.671 189.036L853.921 228.273H821.42Z" fill="url(#paint15_linear_104_235)"></path><path d="M967.768 270C985.629 270 1000.42 263.558 1010.08 251.699L994.852 237.644C987.971 245.696 979.333 249.796 969.085 249.796C949.907 249.796 936.291 236.326 936.291 217C936.291 197.674 949.907 184.204 969.085 184.204C979.333 184.204 987.971 188.304 994.852 196.21L1010.08 182.155C1000.42 170.442 985.629 164 967.914 164C935.999 164 912.282 186.108 912.282 217C912.282 247.892 935.999 270 967.768 270Z" fill="url(#paint16_linear_104_235)"></path><path d="M1060.49 268.243H1084.21V185.083H1117V165.757H1027.7V185.083H1060.49V268.243Z" fill="url(#paint17_linear_104_235)"></path><defs><linearGradient id="paint0_linear_104_235" x1="2025.01" y1="503.13" x2="1316.74" y2="-877.125" gradientUnits="userSpaceOnUse"><stop stop-color="#FBCB00"></stop><stop offset="0.177464" stop-color="#F49038"></stop><stop offset="0.34579" stop-color="#EF3125"></stop><stop offset="0.491181" stop-color="#FC7F9F"></stop><stop offset="0.655172" stop-color="#C299DD"></stop><stop offset="0.817734" stop-color="#5DB1C9"></stop><stop offset="1" stop-color="#064578"></stop></linearGradient><linearGradient id="paint1_linear_104_235" x1="2025.01" y1="503.13" x2="1316.74" y2="-877.125" gradientUnits="userSpaceOnUse"><stop stop-color="#FBCB00"></stop><stop offset="0.177464" stop-color="#F49038"></stop><stop offset="0.34579" stop-color="#EF3125"></stop><stop offset="0.491181" stop-color="#FC7F9F"></stop><stop offset="0.655172" stop-color="#C299DD"></stop><stop offset="0.817734" stop-color="#5DB1C9"></stop><stop offset="1" stop-color="#064578"></stop></linearGradient><linearGradient id="paint2_linear_104_235" x1="2025.01" y1="503.13" x2="1316.74" y2="-877.125" gradientUnits="userSpaceOnUse"><stop stop-color="#FBCB00"></stop><stop offset="0.177464" stop-color="#F49038"></stop><stop offset="0.34579" stop-color="#EF3125"></stop><stop offset="0.491181" stop-color="#FC7F9F"></stop><stop offset="0.655172" stop-color="#C299DD"></stop><stop offset="0.817734" stop-color="#5DB1C9"></stop><stop offset="1" stop-color="#064578"></stop></linearGradient><linearGradient id="paint3_linear_104_235" x1="2025.01" y1="503.13" x2="1316.74" y2="-877.125" gradientUnits="userSpaceOnUse"><stop stop-color="#FBCB00"></stop><stop offset="0.177464" stop-color="#F49038"></stop><stop offset="0.34579" stop-color="#EF3125"></stop><stop offset="0.491181" stop-color="#FC7F9F"></stop><stop offset="0.655172" stop-color="#C299DD"></stop><stop offset="0.817734" stop-color="#5DB1C9"></stop><stop offset="1" stop-color="#064578"></stop></linearGradient><linearGradient id="paint4_linear_104_235" x1="2025.01" y1="503.13" x2="1316.74" y2="-877.125" gradientUnits="userSpaceOnUse"><stop stop-color="#FBCB00"></stop><stop offset="0.177464" stop-color="#F49038"></stop><stop offset="0.34579" stop-color="#EF3125"></stop><stop offset="0.491181" stop-color="#FC7F9F"></stop><stop offset="0.655172" stop-color="#C299DD"></stop><stop offset="0.817734" stop-color="#5DB1C9"></stop><stop offset="1" stop-color="#064578"></stop></linearGradient><linearGradient id="paint5_linear_104_235" x1="2025.01" y1="503.13" x2="1316.74" y2="-877.125" gradientUnits="userSpaceOnUse"><stop stop-color="#FBCB00"></stop><stop offset="0.177464" stop-color="#F49038"></stop><stop offset="0.34579" stop-color="#EF3125"></stop><stop offset="0.491181" stop-color="#FC7F9F"></stop><stop offset="0.655172" stop-color="#C299DD"></stop><stop offset="0.817734" stop-color="#5DB1C9"></stop><stop offset="1" stop-color="#064578"></stop></linearGradient><linearGradient id="paint6_linear_104_235" x1="2025.01" y1="503.13" x2="1316.74" y2="-877.125" gradientUnits="userSpaceOnUse"><stop stop-color="#FBCB00"></stop><stop offset="0.177464" stop-color="#F49038"></stop><stop offset="0.34579" stop-color="#EF3125"></stop><stop offset="0.491181" stop-color="#FC7F9F"></stop><stop offset="0.655172" stop-color="#C299DD"></stop><stop offset="0.817734" stop-color="#5DB1C9"></stop><stop offset="1" stop-color="#064578"></stop></linearGradient><linearGradient id="paint7_linear_104_235" x1="2025.01" y1="503.13" x2="1316.74" y2="-877.125" gradientUnits="userSpaceOnUse"><stop stop-color="#FBCB00"></stop><stop offset="0.177464" stop-color="#F49038"></stop><stop offset="0.34579" stop-color="#EF3125"></stop><stop offset="0.491181" stop-color="#FC7F9F"></stop><stop offset="0.655172" stop-color="#C299DD"></stop><stop offset="0.817734" stop-color="#5DB1C9"></stop><stop offset="1" stop-color="#064578"></stop></linearGradient><linearGradient id="paint8_linear_104_235" x1="2025.01" y1="503.13" x2="1316.74" y2="-877.125" gradientUnits="userSpaceOnUse"><stop stop-color="#FBCB00"></stop><stop offset="0.177464" stop-color="#F49038"></stop><stop offset="0.34579" stop-color="#EF3125"></stop><stop offset="0.491181" stop-color="#FC7F9F"></stop><stop offset="0.655172" stop-color="#C299DD"></stop><stop offset="0.817734" stop-color="#5DB1C9"></stop><stop offset="1" stop-color="#064578"></stop></linearGradient><linearGradient id="paint9_linear_104_235" x1="2040.06" y1="604.759" x2="1474.64" y2="-672.474" gradientUnits="userSpaceOnUse"><stop stop-color="#FBCB00"></stop><stop offset="0.177464" stop-color="#F49038"></stop><stop offset="0.34579" stop-color="#EF3125"></stop><stop offset="0.491181" stop-color="#FC7F9F"></stop><stop offset="0.655172" stop-color="#C299DD"></stop><stop offset="0.817734" stop-color="#5DB1C9"></stop><stop offset="1" stop-color="#064578"></stop></linearGradient><linearGradient id="paint10_linear_104_235" x1="2040.06" y1="604.759" x2="1474.64" y2="-672.474" gradientUnits="userSpaceOnUse"><stop stop-color="#FBCB00"></stop><stop offset="0.177464" stop-color="#F49038"></stop><stop offset="0.34579" stop-color="#EF3125"></stop><stop offset="0.491181" stop-color="#FC7F9F"></stop><stop offset="0.655172" stop-color="#C299DD"></stop><stop offset="0.817734" stop-color="#5DB1C9"></stop><stop offset="1" stop-color="#064578"></stop></linearGradient><linearGradient id="paint11_linear_104_235" x1="2040.06" y1="604.759" x2="1474.64" y2="-672.474" gradientUnits="userSpaceOnUse"><stop stop-color="#FBCB00"></stop><stop offset="0.177464" stop-color="#F49038"></stop><stop offset="0.34579" stop-color="#EF3125"></stop><stop offset="0.491181" stop-color="#FC7F9F"></stop><stop offset="0.655172" stop-color="#C299DD"></stop><stop offset="0.817734" stop-color="#5DB1C9"></stop><stop offset="1" stop-color="#064578"></stop></linearGradient><linearGradient id="paint12_linear_104_235" x1="2040.06" y1="604.759" x2="1474.64" y2="-672.474" gradientUnits="userSpaceOnUse"><stop stop-color="#FBCB00"></stop><stop offset="0.177464" stop-color="#F49038"></stop><stop offset="0.34579" stop-color="#EF3125"></stop><stop offset="0.491181" stop-color="#FC7F9F"></stop><stop offset="0.655172" stop-color="#C299DD"></stop><stop offset="0.817734" stop-color="#5DB1C9"></stop><stop offset="1" stop-color="#064578"></stop></linearGradient><linearGradient id="paint13_linear_104_235" x1="2040.06" y1="604.759" x2="1474.64" y2="-672.474" gradientUnits="userSpaceOnUse"><stop stop-color="#FBCB00"></stop><stop offset="0.177464" stop-color="#F49038"></stop><stop offset="0.34579" stop-color="#EF3125"></stop><stop offset="0.491181" stop-color="#FC7F9F"></stop><stop offset="0.655172" stop-color="#C299DD"></stop><stop offset="0.817734" stop-color="#5DB1C9"></stop><stop offset="1" stop-color="#064578"></stop></linearGradient><linearGradient id="paint14_linear_104_235" x1="2040.06" y1="604.759" x2="1474.64" y2="-672.474" gradientUnits="userSpaceOnUse"><stop stop-color="#FBCB00"></stop><stop offset="0.177464" stop-color="#F49038"></stop><stop offset="0.34579" stop-color="#EF3125"></stop><stop offset="0.491181" stop-color="#FC7F9F"></stop><stop offset="0.655172" stop-color="#C299DD"></stop><stop offset="0.817734" stop-color="#5DB1C9"></stop><stop offset="1" stop-color="#064578"></stop></linearGradient><linearGradient id="paint15_linear_104_235" x1="2040.06" y1="604.759" x2="1474.64" y2="-672.474" gradientUnits="userSpaceOnUse"><stop stop-color="#FBCB00"></stop><stop offset="0.177464" stop-color="#F49038"></stop><stop offset="0.34579" stop-color="#EF3125"></stop><stop offset="0.491181" stop-color="#FC7F9F"></stop><stop offset="0.655172" stop-color="#C299DD"></stop><stop offset="0.817734" stop-color="#5DB1C9"></stop><stop offset="1" stop-color="#064578"></stop></linearGradient><linearGradient id="paint16_linear_104_235" x1="2040.06" y1="604.759" x2="1474.64" y2="-672.474" gradientUnits="userSpaceOnUse"><stop stop-color="#FBCB00"></stop><stop offset="0.177464" stop-color="#F49038"></stop><stop offset="0.34579" stop-color="#EF3125"></stop><stop offset="0.491181" stop-color="#FC7F9F"></stop><stop offset="0.655172" stop-color="#C299DD"></stop><stop offset="0.817734" stop-color="#5DB1C9"></stop><stop offset="1" stop-color="#064578"></stop></linearGradient><linearGradient id="paint17_linear_104_235" x1="2040.06" y1="604.759" x2="1474.64" y2="-672.474" gradientUnits="userSpaceOnUse"><stop stop-color="#FBCB00"></stop><stop offset="0.177464" stop-color="#F49038"></stop><stop offset="0.34579" stop-color="#EF3125"></stop><stop offset="0.491181" stop-color="#FC7F9F"></stop><stop offset="0.655172" stop-color="#C299DD"></stop><stop offset="0.817734" stop-color="#5DB1C9"></stop><stop offset="1" stop-color="#064578"></stop></linearGradient></defs></svg>