<svg width="183" height="45" viewBox="0 0 183 45" fill="none" xmlns="http://www.w3.org/2000/svg">
<path d="M9.71599 19.7035C10.987 19.7063 12.2454 19.4518 13.4155 18.9555C14.5856 18.4592 15.6431 17.7312 16.5245 16.8154L15.323 15.588C13.8367 17.0789 11.8212 17.922 9.71599 17.9334C4.50946 17.9334 1.86728 14.4192 1.86728 9.94934C1.86728 5.72433 4.50946 1.80281 9.71599 1.80281C10.7343 1.80081 11.7428 2.00204 12.6823 2.39471C13.6218 2.78739 14.4736 3.3636 15.1876 4.08961L16.3372 2.92083C15.5112 1.98709 14.4898 1.24661 13.3455 0.751953C12.2012 0.2573 10.9621 0.0205975 9.71599 0.0586447C3.23012 0.0518756 -0.0257941 4.76765 0.000153872 9.97417C0.0261019 15.289 3.25606 19.7035 9.71599 19.7035Z" fill="#051C4E"/>
<path d="M30.4586 19.7543C36.7832 19.7543 39.8834 14.9032 39.9093 9.91552C39.9353 4.81843 36.7888 0.0248198 30.4586 0C24.3992 0 20.9819 4.52173 20.9819 9.89071C20.9819 14.9032 24.1025 19.7543 30.4586 19.7543ZM30.4586 1.79606C35.5557 1.822 38.0365 5.63974 38.0365 9.91891C38.0106 14.0085 35.5546 17.9549 30.4586 17.9549C25.3627 17.9549 22.9066 14.0853 22.8491 9.91891C22.7972 5.41524 25.4394 1.79606 30.4586 1.79606Z" fill="#051C4E"/>
<path d="M60.3237 19.3956H61.4416V0.329468H59.5746V9.48347L59.6873 15.808L47.5911 0.329468H46.4155V19.3956H48.2894V9.69895L48.2308 4.05808L60.3237 19.3956Z" fill="#051C4E"/>
<path d="M75.4606 17.8748C74.2295 17.9472 73.0022 17.6779 71.9145 17.0965C70.8269 16.5152 69.9211 15.6444 69.2974 14.5805L67.6694 15.483C69.1101 18.5291 72.3141 19.7081 75.4606 19.7081C78.8519 19.7081 82.9066 18.5393 82.9348 14.2296C82.9348 10.1682 79.2005 9.3266 75.5125 8.66775C72.6052 8.15104 70.2022 7.54973 70.2022 5.31481C70.2022 2.5113 73.167 1.8265 75.4606 1.8265C77.4372 1.85244 79.7308 2.45264 80.8229 4.24869L82.4022 3.34615C80.7449 0.729912 77.9923 0.019165 75.4347 0.019165C72.2826 0.019165 68.2831 1.29851 68.335 5.30353C68.335 9.01184 71.8042 9.7993 75.3298 10.4266C78.2371 10.9433 81.0666 11.5954 81.0406 14.1868C81.035 17.2475 77.7531 17.8748 75.4606 17.8748Z" fill="#051C4E"/>
<path d="M103.457 15.588C101.971 17.0791 99.955 17.9222 97.8494 17.9335C92.6428 17.9335 90.0006 14.4192 90.0006 9.94936C90.0006 5.72435 92.6428 1.80282 97.8494 1.80282C98.8677 1.80076 99.8761 2.00197 100.816 2.39464C101.755 2.78732 102.607 3.36356 103.321 4.08962L104.47 2.92084C103.645 1.98704 102.623 1.24652 101.479 0.751865C100.335 0.257207 99.0954 0.020535 97.8494 0.0586602C91.3635 0.0586602 88.1075 4.77443 88.1335 9.97418C88.1594 15.2913 91.3894 19.7024 97.8494 19.7024C99.1204 19.7052 100.379 19.4507 101.549 18.9544C102.719 18.458 103.776 17.7301 104.658 16.8143L103.457 15.588Z" fill="#051C4E"/>
<path d="M112.637 0.329468H110.77V19.4058H112.637V0.329468Z" fill="#051C4E"/>
<path d="M138.076 9.92223C138.102 4.82514 134.956 0.0315337 128.626 0.00671387C122.566 0.00671387 119.149 4.52843 119.149 9.89741C119.149 14.9099 122.269 19.7622 128.626 19.7622C134.95 19.7498 138.051 14.8986 138.076 9.92223ZM128.626 17.9582C123.529 17.9582 121.074 14.0886 121.016 9.92223C120.964 5.42646 123.611 1.79938 128.626 1.79938C133.723 1.82533 136.203 5.64306 136.203 9.92223C136.178 14.0051 133.723 17.9593 128.626 17.9593V17.9582Z" fill="#051C4E"/>
<path d="M159.215 11.9643V0.329468H157.35V11.9643C157.35 15.9434 154.682 17.8241 151.854 17.8241C151.09 17.8465 150.329 17.7083 149.622 17.4183C148.915 17.1283 148.276 16.6931 147.747 16.1407C147.219 15.5884 146.812 14.9313 146.554 14.2118C146.295 13.4924 146.191 12.7267 146.247 11.9643V0.329468H144.376V11.9643C144.376 17.1133 147.793 19.593 151.85 19.593C155.907 19.593 159.215 17.1122 159.215 11.9643Z" fill="#051C4E"/>
<path d="M173.072 8.66211C170.165 8.14541 167.762 7.54409 167.762 5.30918C167.762 2.50566 170.727 1.82086 173.02 1.82086C174.997 1.84681 177.29 2.447 178.381 4.24305L179.961 3.34051C178.305 0.729915 175.552 0.019165 172.993 0.019165C169.841 0.019165 165.843 1.29851 165.895 5.30353C165.895 9.01184 169.364 9.7993 172.889 10.4266C175.796 10.9433 178.625 11.5954 178.6 14.1868C178.6 17.2328 175.318 17.8624 173.019 17.8624C171.788 17.9347 170.561 17.6653 169.474 17.084C168.386 16.5026 167.481 15.6319 166.857 14.5681L165.228 15.4706C166.669 18.5167 169.873 19.6957 173.019 19.6957C176.41 19.6957 180.465 18.5269 180.493 14.2172C180.488 10.1614 176.754 9.32096 173.072 8.66211Z" fill="#051C4E"/>
<path d="M10.2216 42.0866C4.78267 42.0866 2.01751 38.5723 2.01751 34.1025C1.96516 33.0139 2.14198 31.9264 2.53653 30.9104C2.93108 29.8945 3.53457 28.9727 4.30793 28.2048C5.08129 27.4369 6.00729 26.8398 7.02599 26.4525C8.04469 26.0651 9.13338 25.8959 10.2216 25.9559C12.3525 25.9449 14.4037 26.7653 15.9392 28.2427L17.1407 27.0739C16.2579 26.1315 15.1838 25.3886 13.9905 24.895C12.7972 24.4014 11.5122 24.1684 10.2216 24.2118C3.44466 24.2118 0.0409552 28.9275 0.0680314 34.1273C0.0939794 39.4444 3.47286 43.8555 10.2216 43.8555C12.8797 43.8716 15.4356 42.833 17.3291 40.9674L16.0757 39.74C14.497 41.2433 12.4015 42.0833 10.2216 42.0866Z" fill="#051C4E"/>
<path d="M32.3448 24.1599C26.3045 24.1599 22.894 28.6816 22.894 34.0506C22.894 39.0631 26.0078 43.9154 32.3448 43.9154C38.6558 43.9154 41.7436 39.0642 41.7695 34.0765C41.7955 28.9794 38.6569 24.1859 32.3448 24.1599ZM32.3448 42.1182C27.2612 42.1182 24.8119 38.2485 24.7612 34.0822C24.7093 29.5864 27.3447 25.9594 32.3448 25.9594C37.4283 25.9853 39.9035 29.803 39.9035 34.0822C39.8776 38.165 37.4295 42.1182 32.3448 42.1182Z" fill="#051C4E"/>
<path d="M165.196 24.1599C159.155 24.1599 155.745 28.6816 155.745 34.0506C155.745 39.0631 158.859 43.9154 165.196 43.9154C171.507 43.9154 174.594 39.0642 174.62 34.0765C174.646 28.9794 171.501 24.1859 165.196 24.1599ZM165.196 42.1182C160.112 42.1182 157.663 38.2485 157.611 34.0822C157.559 29.5864 160.195 25.9594 165.196 25.9594C170.279 25.9853 172.754 29.803 172.754 34.0822C172.728 38.165 170.28 42.1182 165.196 42.1182Z" fill="#051C4E"/>
<path d="M56.8807 24.4836H48.5796V43.5599H50.4332V37.2094H56.8807C65.1818 37.1835 65.1818 24.4836 56.8807 24.4836ZM56.8807 35.4134H50.4332V26.2887H56.8807C62.6885 26.2887 62.6885 35.4134 56.8807 35.4134Z" fill="#051C4E"/>
<path d="M76.2219 34.0246L69.9966 24.4836H67.7402V24.5412L75.2472 35.8782V43.5588H77.1978V35.8782L84.8141 24.5412V24.4836H82.5273L76.2219 34.0246Z" fill="#051C4E"/>
<path d="M143.549 42.0866C138.11 42.0866 135.345 38.5723 135.345 34.1025C135.293 33.0139 135.47 31.9264 135.864 30.9104C136.259 29.8945 136.862 28.9727 137.636 28.2048C138.409 27.4369 139.335 26.8398 140.354 26.4525C141.372 26.0651 142.461 25.8959 143.549 25.9559C145.68 25.945 147.731 26.7654 149.267 28.2427L150.468 27.0739C149.586 26.1315 148.512 25.3886 147.319 24.895C146.126 24.4014 144.841 24.1684 143.55 24.2118C136.773 24.2118 133.37 28.9275 133.397 34.1273C133.421 39.4444 136.801 43.8555 143.55 43.8555C146.208 43.8716 148.764 42.8329 150.658 40.9674L149.405 39.74C147.826 41.2436 145.729 42.0835 143.549 42.0866Z" fill="#051C4E"/>
<path d="M116.491 33.2043H114.235C114.031 35.1895 113.416 37.1105 112.43 38.8452C111.344 37.6049 109.798 35.8112 107.792 33.4638L107.818 33.3803C110.583 31.9513 111.967 30.235 111.972 28.2313C111.996 27.6778 111.902 27.1254 111.694 26.6116C111.487 26.0977 111.172 25.6344 110.77 25.2529C109.939 24.5261 108.87 24.1284 107.766 24.1349C107.242 24.109 103.704 24.1022 102.398 26.6925C100.926 29.5998 103.188 31.705 104.541 32.92L104.516 33.0035C102.055 34.4182 100.821 36.2921 100.821 38.6444C100.804 39.3467 100.933 40.045 101.198 40.6953C101.464 41.3457 101.861 41.9341 102.365 42.4237C102.945 42.96 103.626 43.3757 104.368 43.6469C105.11 43.918 105.898 44.0391 106.687 44.0032C108.738 44.0308 110.719 43.2625 112.215 41.8597C113.152 42.875 113.739 43.5 113.991 43.746H116.937L113.785 40.3411C115.299 38.2416 116.232 35.7799 116.491 33.2043ZM105.27 26.6801C105.61 26.2716 106.067 25.978 106.58 25.8398C107.093 25.7015 107.636 25.7253 108.135 25.9078C108.634 26.0903 109.064 26.4226 109.366 26.8592C109.669 27.2958 109.829 27.8152 109.825 28.3464C109.825 29.6641 108.621 30.9239 106.215 32.1258C105.261 31.2121 104.678 29.9797 104.574 28.6634C104.551 27.9389 104.798 27.2315 105.267 26.679L105.27 26.6801ZM107.098 42.1643C106.577 42.1818 106.059 42.093 105.574 41.903C105.089 41.7131 104.648 41.4262 104.277 41.0598C103.913 40.6946 103.626 40.2585 103.436 39.7785C103.246 39.2985 103.157 38.7846 103.173 38.2687C103.199 37.4557 103.441 36.6643 103.873 35.9753C104.305 35.2863 104.913 34.7245 105.634 34.3471C106.951 35.9108 108.726 37.9328 110.957 40.4133C110.486 40.9758 109.894 41.4252 109.226 41.7283C108.557 42.0313 107.829 42.1803 107.096 42.1643H107.098Z" fill="#051C4E"/>
<path d="M182.302 41.4604H181.003V43.9154H182.302V41.4604Z" fill="#101028"/>
</svg>
