<svg width="139" height="138" viewBox="0 0 139 138" fill="none" xmlns="http://www.w3.org/2000/svg">
<path d="M39.6424 48.6777C41.173 48.2011 42.6546 47.7617 44.1163 47.2652C44.3884 47.1709 44.7614 46.8683 44.7787 46.6359C44.7946 46.4461 44.8013 46.2523 44.8092 46.0598H44.8172V45.9111C44.8464 45.007 44.8172 44.0777 44.8331 43.163H44.8172V42.4236L27.7461 42.4329V46.0664H27.7554C27.7965 46.4833 28.0408 46.6837 28.4935 46.8391C29.7494 47.2612 30.9707 47.7843 32.2293 48.1985C32.7616 48.3339 33.1586 48.7786 33.2342 49.3229C35.9823 61.2935 38.7423 73.2628 41.5142 85.2281C42.9055 91.2433 42.6188 89.8653 44.0353 95.8712C44.103 96.1035 44.2238 96.3159 44.3871 96.4925L48.0113 86.7933C44.6712 71.6485 43.0038 63.9022 39.6424 48.6777Z" fill="white"/>
<path d="M100.295 48.6777C98.7641 48.2011 97.2825 47.7617 95.8209 47.2652C95.5487 47.1709 95.1757 46.8683 95.1584 46.6359C95.1425 46.4461 95.1358 46.2523 95.1279 46.0598H95.1199V45.9111C95.0907 45.007 95.1199 44.0777 95.104 43.163H95.1199V42.4236L112.191 42.4329V46.0664H112.179C112.138 46.4833 111.894 46.6837 111.441 46.8391C110.185 47.2612 108.964 47.7843 107.705 48.1985C107.173 48.3339 106.776 48.7786 106.7 49.3229C103.952 61.2935 101.192 73.2628 98.4202 85.2281C97.0289 91.2433 97.3157 89.8653 95.8992 95.8712C95.8315 96.1035 95.7107 96.3159 95.5474 96.4925L91.9258 86.7933C95.2659 71.6485 96.9333 63.9022 100.295 48.6777Z" fill="white"/>
<path d="M99.5684 100.31C99.6029 99.693 99.3321 99.4713 98.7957 99.324C97.2703 98.9005 95.7662 98.3987 94.2329 97.9991C93.666 97.8809 93.2147 97.4534 93.066 96.8945C90.371 89.5903 87.6615 82.2887 84.936 74.9911C81.017 64.4516 77.106 53.9094 73.2017 43.3659C72.9494 42.6862 72.6494 42.3968 71.894 42.4353C70.5359 42.515 69.1752 42.515 67.8184 42.4353C66.9024 42.3729 66.5559 42.7207 66.2519 43.5518C59.7548 61.3385 53.2404 79.1185 46.7115 96.8892C46.5641 97.4468 46.1181 97.8756 45.5539 98.0004C43.7869 98.4757 42.0332 99.0346 40.3047 99.5457V103.343H59.1826C59.1826 102.291 59.1468 101.291 59.1946 100.297C59.2238 99.6612 58.9875 99.3983 58.3755 99.2364C56.6642 98.7837 54.9756 98.2526 53.2803 97.7575C53.2789 97.6353 53.2882 97.5132 53.3095 97.3937C54.2998 94.5766 55.2942 91.7609 56.2899 88.9491L59.3313 80.3637H59.3008C62.7471 70.6221 66.1815 60.915 69.7195 50.9198C73.2694 60.8632 76.733 70.5623 80.2351 80.3637H61.7541L59.8769 85.6488C60.5009 85.6488 61.1275 85.6581 61.7541 85.6581C68.2605 85.6581 74.7655 85.6488 81.2746 85.6806C81.6357 85.6806 82.2224 85.9169 82.3233 86.1864C83.7452 89.9939 85.1019 93.8265 86.4879 97.6951C86.1958 97.7986 85.9595 97.8929 85.7153 97.9619C84.1301 98.4146 82.5384 98.8447 80.9626 99.3266C80.7143 99.4036 80.3559 99.6851 80.3453 99.8908C80.2842 101.041 80.3161 102.195 80.3161 103.349H99.5551C99.5551 102.303 99.5139 101.306 99.5697 100.312" fill="white"/>
<path d="M69.9297 138C31.822 138 0.929688 107.108 0.929688 69C0.929688 30.8924 31.822 0 69.9297 0C108.037 0 138.93 30.8924 138.93 69C138.887 107.09 108.02 137.958 69.9297 138ZM69.9297 7.2299C35.8153 7.2299 8.15959 34.8857 8.15959 69C8.15959 103.114 35.8153 130.77 69.9297 130.77C104.044 130.77 131.7 103.114 131.7 69C131.663 34.9003 104.028 7.26707 69.9297 7.2299Z" fill="white"/>
</svg>
