<svg width="396" height="96" viewBox="0 0 396 96" fill="none" xmlns="http://www.w3.org/2000/svg">
<path d="M70.8019 71.7886L87.3682 64.679L87.3863 64.7051L90.307 63.4189L88.3283 60.6391L47.9634 3.95142L47.585 3.40592L45.6405 0.609985L45.6103 0.652256L45.5801 0.609985L43.7524 3.263L0.929688 63.435L2.16561 63.9563L22.8986 72.8454L15.8031 95.39L20.2677 93.4656L64.5659 74.4798L69.3707 89.5767L54.1068 82.8113L50.2481 84.478L70.506 93.1335L74.5318 94.8706L73.3885 91.348L48.1466 15.109L46.7959 20.2319L63.5937 71.4101L45.9505 79.0331L31.3428 72.5776L30.2377 75.9291L41.7415 80.8507L21.4735 89.6029L46.8362 7.59277L85.4036 61.9193L69.7572 68.7753L70.8019 71.7886ZM6.18741 61.724L42.5285 10.5477L23.9916 69.4335L6.18741 61.724Z" fill="white"/>
<path d="M151.828 46.8112V23.2964H155.355C156.619 23.264 157.883 23.387 159.117 23.6627C160.002 23.8757 160.822 24.299 161.508 24.8966C162.186 25.5213 162.721 26.2848 163.076 27.135C163.467 27.9966 163.673 28.9306 163.68 29.8766C163.69 30.6879 163.521 31.4914 163.187 32.2307C162.853 32.97 162.361 33.6271 161.746 34.156C162.953 34.551 163.993 35.339 164.701 36.3944C165.543 37.6705 165.918 39.1984 165.762 40.7193C165.607 42.2403 164.93 43.6607 163.847 44.7399C163.115 45.4915 162.21 46.0514 161.21 46.3704C159.9 46.6931 158.553 46.8413 157.205 46.8112H151.828ZM155.377 33.3931H156.488C157.532 33.4832 158.571 33.1699 159.391 32.5175C159.715 32.175 159.965 31.7687 160.123 31.3244C160.282 30.88 160.347 30.4076 160.313 29.937C160.345 29.4738 160.278 29.009 160.115 28.5742C159.952 28.1394 159.697 27.7447 159.368 27.4168C158.596 26.7943 157.617 26.4866 156.627 26.5553H155.379L155.377 33.3931ZM155.377 43.4738H157.569C158.82 43.5766 160.068 43.243 161.102 42.5297C161.482 42.2161 161.787 41.8202 161.993 41.3719C162.198 40.9235 162.3 40.4343 162.289 39.9412C162.297 39.4571 162.198 38.9773 162.001 38.5353C161.803 38.0933 161.512 37.6999 161.146 37.3827C159.985 36.5795 158.575 36.2176 157.17 36.3622H155.373L155.377 43.4738Z" fill="white"/>
<path d="M183.802 23.2968V37.4616C183.686 39.0033 184.031 40.5447 184.792 41.89C185.288 42.5212 185.92 43.0316 186.642 43.3825C187.364 43.7334 188.156 43.9158 188.958 43.9158C189.761 43.9158 190.553 43.7334 191.274 43.3825C191.996 43.0316 192.628 42.5212 193.124 41.89C193.893 40.5476 194.238 39.0038 194.114 37.4616V23.2968H197.663V38.4359C197.703 39.5591 197.518 40.6789 197.121 41.7302C196.724 42.7815 196.121 43.7432 195.348 44.5591C194.515 45.408 193.52 46.0823 192.423 46.5426C191.326 47.0029 190.149 47.24 188.959 47.24C187.769 47.24 186.592 47.0029 185.495 46.5426C184.398 46.0823 183.403 45.408 182.57 44.5591C181.797 43.7431 181.195 42.7814 180.797 41.7302C180.4 40.6789 180.216 39.559 180.255 38.4359V23.2968H183.802Z" fill="white"/>
<path d="M213.277 46.8135V21.6984L230.427 39.6395V23.2966H233.976V48.2427L216.828 30.3479V46.8115L213.277 46.8135Z" fill="white"/>
<path d="M249.59 46.8119V23.2971H254.523C256.417 23.2334 258.308 23.4698 260.127 23.9975C261.62 24.4665 262.988 25.2628 264.133 26.3285C265.298 27.4729 266.221 28.8403 266.846 30.349C267.471 31.8578 267.786 33.477 267.772 35.1101C267.758 36.7432 267.414 38.3567 266.763 39.8543C266.112 41.3519 265.165 42.7029 263.98 43.8267C262.829 44.8757 261.47 45.67 259.991 46.1577C258.192 46.6595 256.327 46.8809 254.461 46.8139L249.59 46.8119ZM253.139 43.4765H254.737C256.08 43.5104 257.42 43.3414 258.712 42.9753C260.356 42.4199 261.777 41.3497 262.765 39.9234C263.752 38.497 264.254 36.7904 264.195 35.0565C264.239 33.8863 264.03 32.7204 263.584 31.6378C263.137 30.5553 262.463 29.5814 261.607 28.7822C259.673 27.2219 257.218 26.4542 254.739 26.6344H253.141L253.139 43.4765Z" fill="white"/>
<path d="M314.148 46.8135V21.6984L331.296 39.6395V23.2966H334.845V48.2427L317.697 30.3479V46.8115L314.148 46.8135Z" fill="white"/>
<path d="M368.052 24.5629V28.7658C366.308 27.1709 364.048 26.2571 361.686 26.1913C360.541 26.1698 359.406 26.3907 358.353 26.8397C357.3 27.2886 356.355 27.9553 355.578 28.796C354.761 29.6327 354.119 30.6242 353.69 31.7123C353.261 32.8005 353.054 33.9633 353.08 35.1326C353.055 36.2874 353.263 37.4355 353.692 38.5078C354.121 39.5801 354.763 40.5546 355.578 41.3727C356.367 42.1969 357.319 42.8485 358.372 43.2864C359.426 43.7244 360.559 43.9391 361.7 43.917C362.792 43.9499 363.879 43.7438 364.884 43.3131C365.414 43.0869 365.921 42.8112 366.4 42.4898C366.974 42.1062 367.526 41.6895 368.052 41.2418V45.5213C366.108 46.6456 363.902 47.2392 361.655 47.2423C360.057 47.269 358.471 46.9709 356.992 46.3661C355.513 45.7612 354.172 44.8623 353.05 43.7238C351.905 42.6153 351 41.2839 350.389 39.8118C349.779 38.3398 349.477 36.7582 349.501 35.1649C349.482 32.2218 350.538 29.373 352.47 27.1534C353.615 25.7619 355.062 24.6502 356.702 23.9033C358.341 23.1564 360.13 22.794 361.931 22.8438C364.089 22.8565 366.203 23.4503 368.052 24.5629Z" fill="white"/>
<path d="M395.485 26.6321H386.059V32.2824H395.205V35.6178H386.053V43.4681H395.479V46.8035H382.504V23.2968H395.479L395.485 26.6321Z" fill="white"/>
<path d="M127.682 21.8217L116.047 46.814H119.871L122.206 41.7254L123.984 37.768H123.96L127.615 29.7727L130.121 35.5176L131.101 37.766L132.551 41.1014L135.019 46.812H138.901L127.682 21.8217Z" fill="white"/>
<path d="M290.002 21.8217L278.367 46.814H282.192L284.527 41.7254L286.304 37.768H286.29L289.945 29.7727L292.452 35.5176L293.432 37.766L294.881 41.1014L297.349 46.812H301.232L290.002 21.8217Z" fill="white"/>
<path d="M132.392 56.6519L118.266 86.9865H122.907L125.742 80.8089L127.899 76.0041H127.881L132.31 66.2958L135.351 73.2705L136.543 76.002L138.302 80.052L141.313 86.9865H146.028L132.392 56.6519Z" fill="white"/>
<path d="M155.508 87.2883L161.526 56.5491L171.341 78.7717L181.509 56.5491L186.915 87.2883H182.487L179.727 70.0296L171.273 88.6027L163.05 70.0095L159.976 87.2863L155.508 87.2883Z" fill="white"/>
<path d="M209.427 75.6775V87.288H205.113V58.6865H210.003C211.828 58.6272 213.653 58.7949 215.437 59.1857C216.671 59.5193 217.794 60.1711 218.696 61.0758C219.505 61.8623 220.142 62.8082 220.565 63.8537C220.989 64.8991 221.191 66.0212 221.158 67.1488C221.212 68.3163 221.003 69.481 220.548 70.5575C220.094 71.6341 219.404 72.5953 218.529 73.3707C216.53 74.986 214.004 75.8041 211.438 75.6674L209.427 75.6775ZM209.427 71.6779H211.037C215 71.6779 216.981 70.1534 216.981 67.1045C216.981 64.1522 214.938 62.6761 210.852 62.6761H209.427V71.6779Z" fill="white"/>
<path d="M242.044 58.6869V83.2223H250.452V87.2783H237.73V58.6869H242.044Z" fill="white"/>
<path d="M270.991 58.6869V87.2702H266.676V58.6869H270.991Z" fill="white"/>
<path d="M304.272 62.753H294.308V69.623H303.919V73.6791H294.308V87.2904H290V58.6869H304.272V62.753Z" fill="white"/>
<path d="M325.728 58.6869V87.2702H321.414V58.6869H325.728Z" fill="white"/>
<path d="M386.426 75.1038L395.283 87.2879H390.005L381.839 75.5848H381.06V87.2879H376.746V58.6864H381.802C384.694 58.4348 387.585 59.1868 389.987 60.8161C390.894 61.5806 391.616 62.5415 392.097 63.6261C392.579 64.7107 392.807 65.8904 392.765 67.0762C392.809 68.9663 392.194 70.8128 391.024 72.2978C389.875 73.7517 388.244 74.747 386.426 75.1038ZM381.054 71.8267H382.424C386.511 71.8267 388.554 70.2647 388.554 67.1407C388.554 64.2152 386.566 62.7525 382.592 62.7525H381.054V71.8267Z" fill="white"/>
<path d="M360.512 62.753H349.048V69.623H360.178V73.6791H349.048V83.2344H360.512V87.2904H344.734V58.6869H360.512V62.753Z" fill="white"/>
</svg>
