<svg width="629" height="130" viewBox="0 0 629 130" fill="none" xmlns="http://www.w3.org/2000/svg">
<path d="M615.446 77.888C614.273 77.3799 613.219 76.6341 612.35 75.6979C611.485 74.7805 610.84 73.678 610.466 72.4743L614.416 71.6365C614.798 72.5404 615.457 73.3009 616.297 73.8097C617.127 74.3522 618.096 74.644 619.088 74.6499C619.704 74.6046 620.308 74.4636 620.88 74.2322C621.452 74.0073 621.986 73.698 622.465 73.3147C622.936 72.9329 623.321 72.4565 623.596 71.9165C623.882 71.3686 624.029 70.7593 624.024 70.1418C624.039 69.6293 623.925 69.1215 623.693 68.664C623.475 68.2199 623.174 67.8216 622.806 67.4905C622.398 67.1371 621.948 66.8339 621.468 66.5874C620.977 66.3267 620.469 66.1 619.947 65.9089C619.463 65.735 618.932 65.5692 618.353 65.4114C617.143 65.0875 615.976 64.6197 614.877 64.0182C613.86 63.4437 612.958 62.6864 612.217 61.7846C611.692 61.1543 611.283 60.4366 611.008 59.6646C610.721 58.875 610.576 58.0413 610.58 57.2016C610.574 56.0766 610.796 54.9621 611.233 53.9249C611.657 52.9108 612.278 51.9901 613.059 51.2157C613.842 50.4324 614.771 49.8098 615.794 49.3829C616.837 48.9467 617.957 48.7241 619.088 48.7286C620.115 48.7238 621.133 48.908 622.092 49.2719C623.031 49.6268 623.9 50.1451 624.658 50.8028C625.921 51.878 626.829 53.3088 627.263 54.9077L623.333 55.7359C623.109 55.1081 622.746 54.5387 622.271 54.0698C621.865 53.65 621.378 53.3164 620.84 53.089C620.302 52.8617 619.724 52.7452 619.139 52.7466C618.547 52.7445 617.961 52.8637 617.417 53.0967C616.875 53.3222 616.383 53.6502 615.966 54.0626C615.549 54.4786 615.216 54.9704 614.984 55.5114C614.75 56.0502 614.63 56.6313 614.631 57.2185C614.628 57.6291 614.694 58.0372 614.827 58.4259C614.944 58.7708 615.112 59.0963 615.325 59.3917C615.547 59.6886 615.811 59.952 616.109 60.1741C616.403 60.4049 616.715 60.6116 617.042 60.7922C617.391 60.9742 617.75 61.1354 618.118 61.2751C618.532 61.4417 618.895 61.5722 619.199 61.6688L620.278 62.0092C620.693 62.138 621.008 62.2418 621.226 62.3207C621.93 62.5673 622.615 62.8677 623.272 63.219C623.931 63.571 624.554 63.9859 625.132 64.4577C625.703 64.9168 626.219 65.4411 626.668 66.0199C627.109 66.5973 627.457 67.2402 627.698 67.9251C627.954 68.6426 628.083 69.3994 628.078 70.1611C628.082 71.3114 627.826 72.4477 627.331 73.4861C626.853 74.5106 626.176 75.4305 625.34 76.1929C624.495 76.953 623.521 77.5572 622.465 77.9774C621.399 78.415 620.258 78.6405 619.105 78.6414C617.846 78.6478 616.599 78.3912 615.446 77.888ZM292.057 77.818C290.629 77.2278 289.34 76.3452 288.275 75.227C287.176 74.161 286.303 72.8848 285.709 71.4747C285.142 70.0548 284.86 68.5381 284.877 67.01V48.958H288.853V66.993C288.848 67.9953 289.043 68.9884 289.426 69.9148C289.819 70.8392 290.391 71.6776 291.107 72.3826C291.811 73.1141 292.66 73.6899 293.601 74.0728C294.528 74.4595 295.524 74.6542 296.529 74.6451C297.525 74.645 298.511 74.4506 299.432 74.0728C300.362 73.683 301.203 73.1079 301.904 72.3826C302.638 71.6853 303.223 70.8466 303.623 69.9172C304.006 68.9885 304.201 67.9927 304.194 66.9882V48.9531H308.17V67.0076C308.187 68.5357 307.904 70.0525 307.338 71.4723C306.734 72.8778 305.862 74.1524 304.769 75.2246V75.2439C303.691 76.3361 302.405 77.2021 300.987 77.7914C299.576 78.3701 298.064 78.6607 296.539 78.6462C295.01 78.6619 293.492 78.3806 292.07 77.818H292.057ZM567.906 77.4968C566.088 76.7417 564.443 75.6262 563.069 74.2177C561.651 72.8523 560.533 71.2078 559.785 69.3884C559.042 67.5797 558.673 65.6396 558.701 63.685C558.677 61.7286 559.047 59.7873 559.789 57.9767C560.552 56.1558 561.668 54.5037 563.074 53.116C564.453 51.709 566.097 50.588 567.911 49.8176C569.73 49.0727 571.682 48.7031 573.648 48.731C575.607 48.7065 577.552 49.076 579.365 49.8176C581.177 50.6017 582.82 51.7283 584.203 53.1353C585.612 54.5119 586.735 56.1532 587.506 57.9646C588.254 59.7813 588.631 61.7284 588.617 63.6922C588.633 65.6563 588.256 67.6038 587.506 69.4198C586.741 71.235 585.618 72.8775 584.203 74.2491C582.819 75.6513 581.169 76.765 579.351 77.5258C577.534 78.2573 575.592 78.6265 573.633 78.6124C571.674 78.6176 569.732 78.2386 567.918 77.4968H567.906ZM569.43 53.4999C568.111 54.071 566.916 54.8909 565.909 55.9146C564.875 56.9212 564.053 58.1228 563.49 59.4497C562.955 60.7804 562.686 62.2028 562.699 63.6367C562.681 65.071 562.95 66.4945 563.49 67.8237C564.043 69.156 564.867 70.3596 565.909 71.3588C566.9 72.3956 568.1 73.2104 569.43 73.7493C570.767 74.2925 572.199 74.5674 573.643 74.5582C575.075 74.5673 576.493 74.2924 577.818 73.7493C579.145 73.1947 580.348 72.3821 581.358 71.3588C582.392 70.3529 583.214 69.151 583.777 67.8237C584.341 66.5003 584.624 65.0747 584.609 63.6367C584.619 62.1991 584.336 60.7746 583.777 59.4497C583.202 58.1349 582.391 56.9367 581.382 55.9146C580.359 54.8927 579.151 54.0734 577.823 53.4999C576.499 52.9555 575.079 52.6797 573.648 52.6886C572.204 52.681 570.774 52.9576 569.437 53.5024L569.43 53.4999ZM204.974 77.4968C203.156 76.7422 201.511 75.6276 200.137 74.2201C198.719 72.8545 197.601 71.2101 196.852 69.3908C196.108 67.5807 195.738 65.6391 195.764 63.6826C195.741 61.7271 196.111 59.7869 196.852 57.9767C197.616 56.1562 198.732 54.5043 200.137 53.116C201.516 51.7094 203.16 50.5884 204.974 49.8176C206.288 49.2822 207.673 48.9429 209.086 48.8107H210.667C211.676 48.8093 212.682 48.9015 213.674 49.0859C214.632 49.2861 215.567 49.5839 216.465 49.9746C217.358 50.3732 218.219 50.8423 219.038 51.3774C219.512 51.6994 219.947 52.0214 220.342 52.3433L217.514 55.1661C216.717 54.512 215.831 53.9731 214.883 53.5651C213.559 53.0219 212.14 52.7469 210.708 52.7562C209.271 52.7482 207.846 53.0231 206.515 53.5651C205.198 54.14 204.003 54.9594 202.993 55.9798C201.969 56.9883 201.156 58.1899 200.601 59.5148H200.579C200.044 60.8455 199.776 62.268 199.789 63.7019C199.772 65.1423 200.041 66.5718 200.579 67.9082C201.145 69.2282 201.967 70.4231 202.998 71.424C203.989 72.4617 205.189 73.2773 206.52 73.8169C207.851 74.3592 209.276 74.6349 210.713 74.6282C212.157 74.6333 213.588 74.3577 214.927 73.8169C215.88 73.4291 216.768 72.8955 217.558 72.2353L220.366 75.0604C219.948 75.4051 219.512 75.7275 219.06 76.0263C218.253 76.58 217.391 77.05 216.489 77.4292C215.594 77.8202 214.659 78.1117 213.7 78.2985C212.711 78.4994 211.704 78.5989 210.694 78.5955C208.738 78.6059 206.798 78.2326 204.986 77.4968H204.974ZM493.167 78.4048H488.003V48.8976H504.74V52.8069H491.941V61.7025H501.538V65.6095H491.941V74.4978H504.74V78.4072L493.167 78.4048ZM444.087 78.3251L458.311 52.8431H444.641V48.9531H464.979L450.675 74.4568H464.602V78.3202L444.087 78.3251ZM417.122 78.3251V48.9555H421.06V78.3275L417.122 78.3251ZM377.358 78.3251V48.9555H381.293V74.464H394.097V78.3275L377.358 78.3251ZM350.115 78.3251L341.73 58.4162V58.4427L341.718 58.4162C341.291 59.4078 340.86 60.4373 340.427 61.5045L333.265 78.3251H329.052L341.704 48.6827L354.346 78.3275L350.115 78.3251ZM250.054 78.3251V52.8431H242.201V48.9531H261.847V52.8431H253.994V78.3275L250.054 78.3251ZM168.132 78.3251L159.751 58.4186L159.739 58.4452V58.4186C159.312 59.4086 158.881 60.4381 158.448 61.507L151.291 78.3275H147.078L159.72 48.6827L172.362 78.3275L168.132 78.3251ZM106.379 60.7802C105.608 58.5855 104.097 56.727 102.103 55.5235C99.6296 54.0661 97.3035 52.3727 95.1572 50.4672C93.7507 49.3976 92.054 48.7758 90.2884 48.6827C88.0398 47.3766 85.8832 45.9188 83.8334 44.3194C82.827 43.4668 81.6379 42.8563 80.3579 42.535C79.6637 42.238 76.6816 39.5601 75.2934 38.8647C73.9051 38.1693 71.4236 38.7657 70.0281 38.6667C68.601 38.2841 67.2552 37.646 66.0566 36.7833C65.9952 35.7596 65.9952 34.7331 66.0566 33.7094C66.5192 32.9159 66.8224 32.0399 66.9491 31.1305C66.9491 31.1305 67.3482 32.024 68.0424 30.5365C68.7365 29.0491 68.0424 28.6531 67.3482 28.1557C66.9492 23.5944 64.4195 22.7034 63.0723 22.7034C61.7252 22.7034 59.2024 23.5968 58.7961 28.1557C58.102 28.6531 57.4055 29.0491 58.102 30.5365C58.7986 32.024 59.1953 31.1305 59.1953 31.1305C59.3222 32.0399 59.6254 32.9158 60.0878 33.7094C60.1492 34.7331 60.1492 35.7596 60.0878 36.7833C58.8891 37.6458 57.5433 38.284 56.1163 38.6667C54.7256 38.7657 52.2465 38.1693 50.851 38.8647C49.4555 39.5601 46.4806 42.2452 45.7865 42.535C44.5064 42.8563 43.3173 43.4668 42.311 44.3194C40.2612 45.9188 38.1046 47.3766 35.8559 48.6827C34.0902 48.7752 32.3934 49.3971 30.9872 50.4672C28.8409 52.3727 26.5147 54.0661 24.0411 55.5235C22.0497 56.7292 20.5387 58.5869 19.7652 60.7802C19.7138 61.2413 19.7575 61.7081 19.8939 62.1517C20.0304 62.5952 20.2567 63.0062 20.5585 63.359C20.7568 63.656 21.7506 63.161 22.3456 62.4656L22.9431 61.7702L23.2404 62.7626C23.2404 62.7626 23.8379 62.8616 24.4329 61.7702C25.0279 60.6788 24.7305 59.1913 25.5238 58.3896C27.8497 56.9872 30.3122 55.8246 32.8737 54.9198C35.9856 53.9433 38.9323 52.5041 41.6145 50.6507C43.8217 48.9533 46.2224 47.5228 48.7663 46.3888C49.5565 45.8697 50.5099 45.6575 51.4462 45.7924C51.7118 48.0624 52.2459 50.293 53.0375 52.4375C54.4733 54.3466 55.3658 56.6075 55.6206 58.9812C55.4247 61.1544 52.8416 65.6264 52.9383 69.5937C52.737 73.9194 53.1046 78.2528 54.0316 82.4831C55.0738 85.994 55.8698 89.5732 56.4139 93.1945C56.5135 95.0444 56.5135 96.8984 56.4139 98.7483C55.5349 100.864 55.4643 103.227 56.2155 105.391C57.507 109.856 58.6003 111.44 58.5012 115.902C58.6204 118.338 58.3856 120.778 57.8044 123.146C57.4078 124.237 56.8104 124.933 57.8044 126.22C58.7757 127.302 59.84 128.298 60.985 129.195C61.3817 129.591 62.1749 129.393 62.4724 127.41C62.753 125.706 62.8855 123.982 62.8689 122.255C62.8689 120.273 61.8773 118.785 62.0756 116.701C62.2739 114.617 61.4784 108.769 61.5775 107.48C62.1986 105.32 62.4993 103.081 62.47 100.835C61.9647 96.8532 61.6668 92.8483 61.5775 88.8361C61.8678 86.3297 62.6247 78.2961 62.6658 75.8476H63.4641C63.5076 78.3009 64.2645 86.3297 64.5547 88.8361C64.4644 92.8483 64.1657 96.8532 63.6598 100.835C63.6308 103.081 63.9323 105.319 64.5547 107.477C64.6539 108.767 63.8583 114.617 64.0567 116.699C64.255 118.78 63.261 120.27 63.261 122.253C63.2451 123.979 63.3777 125.704 63.6575 127.408C63.955 129.39 64.7506 129.581 65.1473 129.192C66.2925 128.295 67.3568 127.3 68.3278 126.217C69.3219 124.928 68.7245 124.235 68.3278 123.144C67.7483 120.775 67.5145 118.335 67.6337 115.9C67.5346 111.435 68.6253 109.851 69.9168 105.389C70.668 103.225 70.5973 100.861 69.7184 98.7458C69.6184 96.896 69.6184 95.042 69.7184 93.1921C70.2621 89.5707 71.0581 85.9915 72.1007 82.4807C73.0272 78.2503 73.3948 73.917 73.1939 69.5913C73.2931 65.624 70.71 61.1593 70.5117 58.9788C70.7652 56.6048 71.6578 54.3435 73.0947 52.4351C73.8853 50.2904 74.4187 48.0599 74.6837 45.7899C75.6207 45.6545 76.5751 45.8667 77.3659 46.3864C79.9087 47.5227 82.3091 48.9532 84.5177 50.6483C87.2019 52.4983 90.1481 53.9372 93.2585 54.9174C95.8191 55.8244 98.2815 56.9869 100.608 58.3872C101.404 59.1817 101.104 60.6691 101.702 61.7678C102.299 62.8664 102.892 62.7602 102.892 62.7602L103.189 61.7678L103.787 62.4632C104.382 63.1562 105.376 63.6536 105.574 63.3566C105.881 63.0068 106.113 62.5974 106.254 62.154C106.396 61.7107 106.444 61.243 106.396 60.7802H106.379ZM38.6471 43.1266L63.0747 0.884521L87.5023 43.1266C86.8614 42.6775 86.2931 42.2525 85.9231 41.9337C84.7536 40.8949 83.3647 40.1324 81.8597 39.7026L81.7218 39.6616C81.4316 39.4539 80.8464 38.9927 80.4063 38.645C79.3566 37.8119 78.4857 37.1431 77.719 36.636L63.0723 11.3062L48.4277 36.636C47.661 37.1431 46.7928 37.8095 45.7431 38.645C45.3005 38.9927 44.7199 39.4539 44.4272 39.6616L44.287 39.7026C42.7825 40.1319 41.3945 40.8945 40.2263 41.9337C39.8732 42.2549 39.3 42.6775 38.6615 43.1266H38.6471ZM56.963 34.9868C56.7211 35.1244 56.4792 35.2427 56.2713 35.3345L56.8396 34.3541C56.8783 34.4459 56.9097 34.5425 56.9556 34.6342C56.9725 34.7574 56.975 34.8733 56.9775 34.9868H56.963ZM69.8781 35.3369C69.675 35.2451 69.4403 35.1244 69.1864 34.9868C69.1864 34.8733 69.1864 34.7453 69.1864 34.6342C69.1864 34.5232 69.2613 34.4459 69.3024 34.3541L69.8781 35.3369ZM7.27077 120.072L13.5301 109.25H0.40918L26.1695 64.7088C26.5925 64.2918 26.9496 63.813 27.2288 63.289C27.4517 62.8735 27.6254 62.4335 27.7463 61.9778L28.8154 60.1209C30.1746 59.4738 32.2738 58.6045 33.5823 58.0661L34.0951 57.8536C34.6659 57.6121 35.2706 57.3707 35.8946 57.1413L36.7629 56.8008L9.44992 104.039H16.5436L47.4168 50.6507C47.944 50.373 48.4639 50.1098 48.9355 49.8732C49.1929 51.335 49.6615 52.7519 50.3264 54.0795L50.5682 54.4851C50.6673 54.6493 50.8099 54.8932 50.9744 55.1661L22.7108 104.039H30.3778L49.7846 70.475C49.7846 70.958 49.7989 71.4264 49.8038 71.9238C49.7739 74.7197 49.9357 77.5143 50.2877 80.2882L36.625 103.911H52.6676C52.7799 104.711 52.9488 105.503 53.173 106.28C53.5068 107.434 53.8259 108.392 54.1113 109.247H19.7023L16.5291 114.733H55.3303C55.3424 115.081 55.3473 115.443 55.3303 115.842C55.2892 117.674 55.2311 119.056 55.1464 120.07L7.27077 120.072ZM112.622 109.25L118.881 120.072H70.9929C70.9083 119.058 70.8505 117.679 70.8069 115.844C70.8069 115.446 70.8069 115.083 70.8069 114.736H109.611L106.437 109.25H72.0644C72.3497 108.395 72.6668 107.436 73.0006 106.282C73.2254 105.505 73.3943 104.714 73.506 103.913H89.5483L75.8859 80.293C76.237 77.5215 76.3985 74.7293 76.3695 71.9359C76.3695 71.4336 76.3697 70.9531 76.3866 70.4871L95.7931 104.051H103.46L75.1965 55.1781C75.3562 54.9077 75.5013 54.6638 75.6004 54.4996L75.8422 54.0916C76.5073 52.7641 76.976 51.3472 77.2331 49.8852C77.7168 50.1267 78.2221 50.3851 78.7518 50.6627L109.625 104.051H116.719L89.4057 56.8153L90.274 57.1558C90.8955 57.3972 91.5026 57.6387 92.0734 57.8681L92.5886 58.0806C93.8947 58.6142 95.994 59.4883 97.3508 60.1355L98.4198 61.9875C98.5421 62.4438 98.7166 62.8845 98.9398 63.3011C99.2186 63.8253 99.5758 64.3041 99.9991 64.7209L125.759 109.262L112.622 109.25Z" fill="white"/>
</svg>
