<svg width="220" height="46" viewBox="0 0 220 46" fill="none" xmlns="http://www.w3.org/2000/svg">
<path d="M9.26399 33.4101L7.70029 45.3464H0.701172L7.88638 0.719543H17.6107L25.075 45.3434H17.8898L16.1371 33.4071H9.26399V33.4101ZM15.3177 27.0803C14.2942 19.4989 13.3218 12.3077 12.8086 7.25946H12.5565C12.3584 10.9361 11.0198 20.4954 10.1314 27.0803H15.3177Z" fill="white"/>
<path d="M36.5911 25.3905V45.3434H29.709V0.719543H39.2442C46.0333 0.719543 50.04 3.43875 50.04 11.4703V13.1721C50.04 20.0271 47.2278 21.7709 45.499 22.4792C48.1012 23.7008 49.5898 25.5796 49.5898 31.6333C49.5898 35.391 49.5238 42.6362 49.998 45.3434H43.3561C42.7618 42.6482 42.8879 35.322 42.8879 32.0775C42.8879 26.6331 42.1855 25.3875 38.1938 25.3875H36.5911V25.3905ZM36.5911 19.706H38.1668C41.8104 19.706 43.149 18.3374 43.149 13.4812V11.9505C43.149 8.50201 42.4347 6.39808 38.5329 6.39808H36.5881V19.706H36.5911Z" fill="white"/>
<path d="M63.3723 0.719543V45.3434H56.4902V0.719543H63.3723Z" fill="white"/>
<path d="M103.617 28.743C103.617 21.1617 103.702 11.7194 103.834 6.60217H103.768C102.741 14.3456 100.271 32.4227 98.3411 45.3434H91.8492C90.4056 33.7523 87.9145 14.7028 86.891 6.54214H86.756C86.891 11.7435 87.1011 21.84 87.1011 29.5174V45.3434H80.8613V0.719543H91.1139C92.8517 12.0616 94.6405 24.7753 95.2407 31.0301H95.3068C96.0331 24.6972 98.4522 11.4193 100.238 0.719543H110.145V45.3434H103.602L103.617 28.743Z" fill="white"/>
<path d="M134.168 24.9583H124.354V39.0166H135.663L134.792 45.3434H117.48V0.719543H134.714V7.10639H124.363V18.6315H134.177L134.168 24.9583Z" fill="white"/>
<path d="M147.194 0.719543V45.3434H140.314V0.719543H147.194Z" fill="white"/>
<path d="M159.417 32.2096V34.9708C159.417 38.2903 160.408 40.1361 163.028 40.1361C165.711 40.1361 166.407 37.594 166.407 34.7007C166.407 29.9016 165.375 28.4159 160.588 24.6372C155.8 20.8616 153.219 18.4215 153.219 11.8155C153.219 5.9359 155.005 -0.00374744 163.055 0.00825791C171.29 0.0142606 172.563 5.88788 172.563 10.729V13.1121H165.741V10.9121C165.741 7.80573 165.216 5.9269 162.929 5.9269C160.69 5.9269 160.104 7.87176 160.104 10.8281C160.104 13.9795 160.699 15.5222 164.627 18.3945C171.302 23.3317 173.352 26.1979 173.352 33.6623C173.352 39.9891 171.134 45.9918 162.806 45.9918C154.549 45.9918 152.541 40.7304 152.541 34.8508V32.2036L159.417 32.2096Z" fill="white"/>
<path d="M195.549 24.9583H185.734V39.0166H197.043L196.173 45.3434H178.861V0.719543H196.095V7.10639H185.743V18.6315H195.558L195.549 24.9583Z" fill="white"/>
<path d="M201.691 0.719543H208.57V39.1907H219.798L219.21 45.3374H201.691V0.719543Z" fill="white"/>
</svg>
