<svg width="160" height="86" viewBox="0 0 160 86" fill="none" xmlns="http://www.w3.org/2000/svg">
<g clip-path="url(#clip0_2594_943)">
<path d="M98.7296 29.7988L98.0916 29.5392C96.0818 29.5269 94.0719 29.4492 92.0579 29.4411L91.8582 29.0997C90.7289 29.0138 89.2572 29.3041 88.2543 28.7664C86.7683 28.7971 85.2843 28.6438 83.8024 28.6724C83.6964 28.0407 82.3918 28.4087 81.8985 28.2922C81.5214 28.7685 80.916 29.0302 80.4757 29.4554C79.4993 29.3266 78.5474 29.5658 77.5608 29.486C76.5742 30.2915 74.6112 29.7927 73.4004 29.7886C73.009 29.7927 72.7338 30.0012 72.585 30.4203C71.9042 29.8581 71.3701 29.3859 70.7321 30.2833C69.9555 30.361 69.2196 30.0952 68.4552 30.2281C67.9374 30.6963 67.3076 30.9907 66.7817 31.4506C66.4412 31.4588 66.1029 31.4547 65.7625 31.4384C64.9817 32.3767 64.888 32.2602 63.6507 32.1723C63.6894 32.5893 63.7281 33.0023 63.773 33.4132C63.2287 33.3498 62.6763 33.3232 62.1198 33.3314C62.1443 33.7198 62.1402 34.1062 62.1157 34.4905C61.9078 34.4987 61.6958 34.5028 61.4879 34.5028C61.7121 33.82 60.5115 32.6486 59.8694 33.0329C59.7043 33.914 59.7919 34.7849 59.743 35.6701C59.156 35.7048 58.8033 35.9931 58.3059 36.267C58.3019 37.5243 57.1298 37.5529 57.3296 38.9737C57.9166 39.0289 58.4466 38.9614 58.9195 38.7774L59.1621 37.7083C59.69 38.8838 60.2975 38.5219 61.3208 38.4872C61.2351 37.925 61.3554 37.6469 61.6897 37.651C62.7517 36.9948 64.4599 37.7614 65.3813 36.9478C66.1762 36.9478 66.9712 36.866 67.7723 36.866C67.7682 37.5979 67.6398 38.3154 67.6154 39.0514C68.6427 38.2296 69.5906 38.5526 70.8055 38.4892C71.2397 39.1495 71.6086 38.9614 72.2935 38.9185C72.5014 38.6834 72.7094 38.4463 72.9132 38.203C73.6857 38.1826 74.2015 37.9515 74.8293 38.5444C75.237 38.6262 75.6202 38.481 75.981 38.113C77.0043 38.2623 77.999 38.1376 79.0223 38.0783L79.0692 38.8878C79.8051 38.9655 80.5267 38.9819 81.2625 38.9471C81.3379 38.4177 81.7293 38.1764 82.0575 37.8146C84.1469 37.8228 86.2464 37.6572 88.3338 37.7676C89.2551 38.3972 90.7635 37.9454 91.8602 38.1253C92.1925 37.8739 92.5268 37.6224 92.8549 37.3669C93.4889 37.4609 94.0882 37.4262 94.6569 37.2606C94.7629 37.6572 94.979 38.2459 95.4682 38.2459C95.5579 37.5693 95.5151 36.9028 95.4763 36.2261C95.6883 35.991 95.9146 35.7866 96.1653 35.6128C96.2937 36.5635 96.2632 37.3464 96.73 38.2214C97.902 38.4136 97.9836 37.5611 99.0374 37.7348L99.6327 37.1502C99.9466 37.4691 100.15 37.8228 100.244 38.2112C101.123 38.1008 102.78 38.6405 103.257 37.7246L103.818 37.8064C103.652 37.2994 103.724 36.9335 104.025 36.7106C104.025 37.3239 104.025 37.9372 104.013 38.5505C104.535 38.5464 105.051 38.5342 105.569 38.5199C106.41 37.5488 108.151 36.59 108.1 35.1958C108.547 33.3968 106.92 31.5058 106.357 29.8193C103.815 29.8806 101.274 29.8029 98.7296 29.7988Z" fill="white"/>
<path d="M105.931 59.4352C105.582 59.3923 105.233 59.3575 104.885 59.3207C104.732 58.2086 105.213 57.2499 104.308 56.4015C103.827 57.0843 102.745 57.2151 102.761 58.041C102.612 57.5299 102.412 57.2826 102.153 57.303L102.162 56.8349C101.758 56.886 101.354 56.933 100.951 56.98C100.981 56.5589 101.018 56.1398 101.049 55.7228C100.543 55.7739 100.042 55.8045 99.5361 55.8127C99.2507 55.1483 98.8043 55.4284 98.2152 55.3057C97.7871 55.0154 97.5405 54.5984 96.9962 54.5677C96.5254 54.1936 96.1258 53.7316 95.6672 53.337C95.4246 53.5149 95.1882 53.6989 94.9537 53.8829C93.798 53.8113 92.7991 53.6621 91.6311 53.8481L91.5211 53.3759C90.3959 53.1715 89.8863 53.7541 88.916 53.8236C88.7386 52.9588 87.2384 53.9851 87.1528 53.057C86.0704 53.0958 85.0063 52.967 83.928 53.0181C83.6222 52.6522 83.3552 52.1697 82.815 52.2168C80.9417 52.09 79.0338 52.3537 77.1523 52.3067C75.8131 53.1122 73.579 52.184 72.2785 53.0345C67.69 53.0651 63.1056 53.2082 58.5131 53.1367C57.5265 54.2284 57.2513 55.8638 56.4604 57.1211C55.9325 58.1821 56.4299 59.0223 56.7927 59.9933C57.5449 60.6291 58.2583 61.314 58.9086 62.056C59.5282 62.1542 60.2763 62.146 60.8919 62.009L61.0244 60.7865C61.2874 61.2383 61.585 61.6676 61.9213 62.0724C62.6185 62.0724 63.3115 62.052 64.0107 62.0601C64.2777 61.7106 64.4816 61.3283 64.6181 60.9235C65.1155 60.7947 65.3662 60.9358 65.3785 61.3487C65.727 61.3324 66.0715 61.318 66.4201 61.3017L66.5424 61.7371C67.0214 61.7494 67.4984 61.7412 67.9774 61.7126C68.0794 61.0359 68.1385 60.3838 68.1262 59.701C68.4035 59.6622 68.6827 59.6294 68.96 59.6029C68.9477 60.1691 68.9131 60.7354 68.854 61.2996C69.4369 61.5204 69.6856 61.3589 70.026 60.8683C71.1614 61.1075 71.6405 60.6291 72.4783 61.6901C73.7156 61.6983 74.9549 61.6186 76.1963 61.6697C76.6815 61.2996 77.0382 61.2731 77.6313 61.2812C79.2152 61.4182 80.8174 61.3446 82.4033 61.3957C82.7722 61.7494 83.0821 62.1337 83.3899 62.5344C83.9973 62.5385 84.6047 62.5385 85.2122 62.5344C85.306 62.2114 85.4751 61.9211 85.7218 61.6574C86.741 61.7433 87.7276 61.7944 88.7468 61.6615L88.8997 62.1215C89.8944 62.1889 91.7371 61.5041 92.3364 62.514C92.8501 62.4506 93.641 62.8513 93.586 62.0376C94.4666 62.0642 95.2901 62.1869 96.1809 62.0458L96.4479 62.886C96.9229 62.144 96.6314 61.2628 96.6354 60.4349C97.5201 60.4349 98.3987 60.5249 99.2813 60.5494L99.4811 60.8867C100.731 60.993 102.247 60.6618 103.289 61.4141L103.309 62.1419C103.823 62.1419 104.337 62.1337 104.852 62.1215L104.907 61.6186C105.786 61.6942 105.617 61.5429 105.684 62.4792C106.22 62.5181 106.762 62.5467 107.298 62.5549C107.596 61.4039 106.424 61.3712 106.35 60.3041C106.134 60.0771 105.998 59.7869 105.931 59.4352Z" fill="white"/>
<path d="M144.835 32.9941C144.495 32.4196 144.087 32.6874 143.539 32.6752C143.708 32.8285 143.879 32.9818 144.061 33.1229C143.9 33.9754 144.393 34.3576 144.489 35.1304C145.219 36.6779 145.828 37.9004 146.813 39.2987C147.938 40.5764 149.563 41.9441 150.131 43.5305C150.751 43.5979 150.696 43.5693 151.028 44.0845C151.224 42.6698 150.005 41.9155 149.491 40.5049C147.661 38.1294 146.764 35.2817 144.835 32.9941Z" fill="white"/>
<path d="M114.741 49.5265C114.592 50.105 114.792 50.5057 114.35 50.9677C114.996 51.164 115.628 50.6488 115.791 51.5258C115.866 50.7408 115.383 50.3626 115.383 49.6123C115.171 49.5817 114.955 49.5531 114.741 49.5265Z" fill="white"/>
<path d="M139.63 67.9008C139.187 68.5181 139.14 69.8469 138.16 69.5669C138.129 70.1986 138.113 70.8241 138.18 71.4579C137.326 72.1488 138.274 72.8725 137.385 73.5717C137.206 74.3976 137.824 74.5652 138.244 75.1192C138.078 76.7731 138.219 78.3656 137.871 79.9683C137.777 80.6552 138.286 81.0539 138.16 81.7878C138.427 81.7755 138.692 81.7633 138.959 81.7571C139.053 81.1397 138.802 80.0399 139.295 79.6351C139.393 76.8181 139.444 74.0194 139.363 71.2023C140.052 70.4868 139.681 68.8003 139.63 67.9008Z" fill="white"/>
<path d="M159.436 43.831C159.522 42.5922 158.454 42.0668 158.476 40.8872C158.005 40.8708 157.532 40.8749 157.057 40.9138C157.096 41.8644 156.407 42.2017 156.607 43.2402L155.502 43.275C155.149 42.3755 154.503 41.523 155.502 40.7441C155.494 40.1308 155.341 39.5134 155.384 38.9042C155.914 38.5076 156.285 38.1151 156.599 37.5243C154.695 34.1532 152.779 30.9293 150.718 27.6523C149.88 26.5647 149.511 25.3095 148.425 24.3916L148.314 23.7477C146.5 21.3027 145.222 18.4345 143.326 16.0569C143.194 15.2821 142.595 14.677 142.299 13.9513C141.938 13.3625 141.751 12.5489 140.952 12.4896C140.905 12.0419 140.874 11.5901 140.862 11.1342C140.569 10.6661 140.212 10.2736 139.839 9.87289C139.564 9.83813 139.29 9.80543 139.015 9.77885C138.744 9.51513 138.479 9.24937 138.216 8.97748C138.177 8.7526 138.145 8.52977 138.118 8.3049C138.948 8.36418 138.667 6.9209 138.589 6.40777C137.939 5.64933 137.574 4.32053 137.183 3.43738C136.498 2.62375 136.553 1.61386 135.901 0.722534C135.493 1.0762 135.081 1.42169 134.665 1.759C133.23 3.99548 131.887 6.26263 130.409 8.52569C130.244 9.08378 130.189 9.2923 129.673 9.62144C129.555 10.2511 129.184 10.6068 128.807 11.0913C128.744 11.7905 128.65 11.9315 128.136 12.369C127.698 13.7203 126.44 15.0654 126.42 16.523C125.346 17.3755 125.28 18.3466 124.644 19.4587C121.522 26.1661 118.517 33.1454 113.692 38.8756C112.748 40.2596 111.487 40.8361 111.495 42.7353L111.177 42.9704C111.207 43.8862 110.816 44.5506 110.369 45.3131C110.331 46.2208 110.294 47.1285 110.268 48.0362C110.573 48.0362 110.879 48.0198 111.193 47.9932L111.158 47.1571C111.57 47.1571 111.978 47.1326 112.385 47.0856C112.918 46.505 113.737 45.9428 114.004 45.1905C114.336 45.1557 114.671 45.1271 115.007 45.1005C115.082 44.5772 114.866 43.9414 115.394 43.6225C116.44 42.7312 115.989 41.7438 116.839 40.7216C117.219 40.2964 117.435 40.092 117.528 39.4991C118.356 39.0862 118.297 38.2132 119.41 38.4729C119.41 38.9676 119.379 39.4623 119.343 39.9591C118.727 40.3046 119.155 41.3574 118.735 41.9012C118.672 42.1915 118.633 42.4858 118.621 42.7864C119.029 42.8497 119.444 42.8804 119.858 42.8845C119.893 43.2545 119.634 43.9659 119.777 44.3421C119.993 43.9639 120.113 43.5632 120.133 43.14C121.059 43.5244 121.069 42.8681 121.697 42.4123C122.382 42.0157 122.274 41.0487 121.923 40.4599C121.74 41.662 120.941 41.4453 120.686 42.6964C120.18 41.247 120.678 41.0978 121.463 40.092C121.791 40.0674 122.117 40.0613 122.443 40.0674C123.267 40.9915 123.089 40.9363 124.402 40.8259C124.461 40.4477 124.488 40.0674 124.488 39.6831C124.769 39.6442 125.052 39.6115 125.333 39.5768C125.274 40.002 125.258 40.4211 125.291 40.8381L124.875 40.8974C124.871 42.0341 123.413 41.7826 123.638 43.138C123.285 43.2484 122.902 43.2831 122.486 43.2484C121.357 44.336 120.323 45.4992 119.398 46.7728C119.373 47.2552 119.436 47.7479 119.495 48.2263C119.797 48.2345 120.095 48.2263 120.392 48.2099C120.388 47.2757 121.047 47.6293 121.497 46.9322C121.917 46.3619 122.406 45.7854 122.637 45.1087C123.052 44.5342 123.401 44.3421 123.283 43.553C123.648 43.5612 124.015 43.5734 124.384 43.5836C124.388 42.9152 124.854 42.5942 124.916 41.9523C126.522 40.4231 127.419 38.0313 128.676 36.1832C128.88 35.3144 128.897 34.7563 130.016 34.8238C129.812 36.1607 130.236 37.9127 129.667 39.0882C129.718 46.2474 129.441 53.4434 129.612 60.5944L129.28 60.7273C129.259 63.1314 129.225 65.5457 129.151 67.9498L128.917 68.189C128.811 70.7873 128.738 73.3836 128.799 75.9901L129.147 75.986C129.296 75.5056 128.837 74.1502 129.555 74.2095C129.504 73.2937 129.594 72.3819 129.529 71.4701L130.383 71.372C130.222 72.2449 130.552 73.772 130.022 74.4262C129.946 76.1475 129.946 77.8648 129.991 79.5902C130.128 80.0072 130.36 80.4426 130.57 80.827C131.347 80.9926 131.805 81.6018 132.564 81.6713C132.708 80.8965 132.733 80.2362 132.556 79.4634C132.07 79.3919 131.573 79.3735 131.07 79.4041C131.031 78.6927 131.015 77.9813 131.07 77.2699C131.885 77.3843 132.684 77.231 133.495 77.3455C133.522 78.0917 133.406 78.889 133.554 79.6249C133.797 79.9541 133.934 80.3629 133.962 80.8597C134.463 81.0212 135.615 81.1827 135.738 81.6938C135.711 80.1932 135.733 78.6089 135.949 77.1268C136.451 76.5482 135.856 75.7244 136.592 75.248C136.502 74.5714 136.638 74.2177 136.995 74.187C136.918 73.3816 137.266 72.8112 136.567 72.2102C136.744 71.0899 136.594 70.0289 136.602 68.9086C137.115 68.2258 137.281 67.3488 137.868 66.7396C138.436 66.7232 139.129 66.9359 139.67 66.7703C139.708 66.4002 139.835 66.0875 140.047 65.8319C140.136 61.9927 140.11 58.5889 140.191 54.7313L140.395 54.4246C140.463 47.752 140.54 41.061 140.556 34.3842C140.564 33.8895 140.54 33.3989 140.475 32.9144L141.306 33.0288C141.294 32.0271 141.533 30.6309 140.942 29.7825C140.937 28.9729 140.866 28.1716 140.84 27.3661L141.576 27.4847C143.123 29.6925 145.051 31.7634 146.594 33.9835C147.049 34.4824 147.291 34.6091 147.273 35.3512C147.672 35.3205 148.076 35.2796 148.476 35.2244C147.974 36.6739 149.941 37.9556 150.023 39.1352C150.72 39.6933 149.745 40.1962 151.077 40.0981C150.948 41.2449 151.825 41.0691 152.206 42.0238C152.257 42.4491 152.304 42.8681 152.346 43.2934C152.711 43.6981 153.082 44.0906 153.451 44.4872C153.455 44.8143 153.476 45.1353 153.514 45.4542C154.495 45.8978 155.367 47.0569 155.932 47.9421C156.254 47.9421 156.57 47.9299 156.892 47.9074C157.118 48.488 157.41 48.7762 157.767 48.7721C157.818 49.0154 157.885 49.2525 157.962 49.4876C158.197 49.0706 157.885 48.6822 158.492 48.5493C157.924 47.3697 158.211 45.8181 157.396 44.6753C157.286 44.0109 157.235 43.3465 157.239 42.6821C158.203 42.5288 158.535 43.6061 158.623 44.3687C159.461 45.1067 159.387 45.399 159.528 46.4784C159.728 46.0348 159.507 45.17 159.958 44.9615C159.257 44.755 160.131 44.1765 159.436 43.831ZM121.018 33.3948C120.928 33.9365 120.912 34.4721 120.967 35.0016C120.555 34.9853 120.148 34.9934 119.734 35.0261C119.832 34.1185 119.756 32.9859 121.018 33.3948ZM123.733 33.6217C123.079 34.513 122.79 35.9481 121.77 36.8987C121.077 37.4364 120.682 38.3011 119.701 38.1948C119.51 37.005 120.818 36.5083 120.504 35.3532C121.546 35.4595 122.374 33.9427 123.334 33.7648C123.256 33.3559 123.22 32.9348 123.224 32.5075L123.784 32.4769C123.772 32.8592 123.758 33.2415 123.733 33.6217ZM123.334 27.2005L123.216 26.992C123.843 26.3746 123.411 25.7531 124.396 25.8124C124.779 26.5852 124.149 27.2843 123.334 27.2005ZM129.732 17.8171C129.451 18.1442 129.227 18.4897 129.058 18.8577C128.782 18.9047 128.509 18.9476 128.234 18.9844C128.228 18.3752 129.117 17.1098 129.732 17.8171ZM127.949 21.92C129.288 21.3497 128.964 23.811 127.979 23.0751C127.906 22.6744 127.898 22.2941 127.949 21.92ZM129.902 27.3947C129.579 27.6503 129.294 27.9283 129.039 28.239C128.725 28.239 128.416 28.2267 128.104 28.2084C128.112 27.8976 128.128 27.5869 128.151 27.2802C128.734 27.0758 129.675 26.7814 129.887 26.1559C129.91 26.5688 129.916 26.9818 129.902 27.3947ZM135.034 60.116C135.026 60.7559 135.014 61.3937 134.996 62.0295C134.655 62.0499 134.315 62.0724 133.972 62.1051C133.691 62.4588 133.493 62.839 133.381 63.2561C133.189 63.2397 133.002 63.2213 132.812 63.2009C132.719 62.6939 132.284 62.4159 132.378 61.8884C132.213 61.0053 133.045 60.8867 133.177 60.1078C133.799 60.0404 134.41 60.0649 135.034 60.116ZM130.429 23.8764C130.391 23.5146 130.354 23.1528 130.323 22.7889C130.731 22.8052 131.139 22.8134 131.547 22.8154C131.508 23.1609 131.461 23.5064 131.41 23.8519C131.084 23.8683 130.76 23.8764 130.429 23.8764ZM131.224 44.9206C131.84 44.845 132.452 44.8061 133.069 44.8613C133.022 45.0535 132.967 45.2498 132.904 45.4399C132.207 45.5769 131.96 46.0654 131.212 45.9039C131.214 45.5728 131.218 45.2457 131.224 44.9206ZM135.85 72.2736L134.608 72.3676C134.608 71.9547 134.6 71.5417 134.592 71.1267C134.209 70.679 133.632 70.6463 133.194 70.2313C133.151 71.2616 132.509 71.8218 132.653 72.8766C132.904 74.0358 132.735 75.1724 132.818 76.3418L131.404 76.3029C131.659 73.4061 131.612 70.4787 131.506 67.5798L132.313 67.4858C132.339 68.371 131.977 69.2541 132.992 69.663C133.059 69.4033 133.124 69.1396 133.179 68.878C133.752 68.6653 134.366 68.5958 135.02 68.6613C135.581 69.2868 135.146 70.5625 135.831 70.8732C135.854 71.3352 135.86 71.8034 135.85 72.2736ZM136.657 62.5242C136.363 62.5488 136.07 62.5672 135.778 62.5876C135.829 62.1746 135.868 61.7617 135.901 61.3467C136.164 61.2792 136.426 61.2179 136.687 61.1668C136.675 61.6165 136.663 62.0724 136.657 62.5242ZM136.675 44.939C136.608 44.2828 136.6 43.6307 136.651 42.9826C137.173 42.2283 137.419 42.5104 138.214 42.5472C137.784 43.3915 137.197 44.1152 136.675 44.939ZM139.837 64.5011L138.591 64.4254C138.579 64.0636 138.575 63.6977 138.587 63.3338C138.055 62.8186 138.184 62.3034 138.116 61.6329C138.387 61.6533 138.661 61.6799 138.932 61.7085C138.777 63.1539 140.061 62.9924 139.837 64.5011ZM145.993 28.4189L142.874 25.4669C142.764 24.9988 142.768 24.6022 142.886 24.2771C143.473 24.273 143.905 24.4182 144.174 24.7064C145.151 24.5408 144.939 26.3848 145.53 26.8877C145.483 27.4642 146.388 28.0346 145.993 28.4189ZM148.074 35.0997C147.905 34.8238 147.899 34.4783 148.054 34.0592C148.944 34.0817 149.112 35.1345 148.074 35.0997ZM150.801 32.6629C150.339 32.3726 150.198 31.9678 150.377 31.4445L149.915 31.4016C149.919 31.099 149.923 30.7965 149.923 30.4898C150.186 30.5716 150.449 30.6431 150.718 30.7065C150.706 31.0806 150.691 31.4527 150.675 31.8227C151.313 31.7205 151.435 32.2868 151.81 32.6711C152.787 34.282 154.334 36.7188 154.725 38.4749C153.539 36.7945 151.961 34.4128 150.801 32.6629Z" fill="white"/>
<path d="M28.4878 13.3727L28.8996 13.7979C28.924 14.5094 28.7426 15.3414 28.9546 16.0222C29.295 16.061 29.6395 16.1244 29.9861 16.2102C30.037 16.6232 30.0492 17.0443 30.0207 17.4675C30.7138 17.6413 30.4997 16.3595 30.1145 16.198C29.9738 15.2147 30.0676 14.1577 30.0431 13.1642C30.2164 10.7785 30.0187 8.43775 29.9657 6.05613C29.4133 5.28951 29.8882 3.87893 29.3929 2.99579C29.4235 3.75423 29.2563 4.09563 28.8874 4.03226C28.6957 6.17061 28.8017 8.39074 28.922 10.5311C28.0761 11.1362 28.5429 12.461 28.4878 13.3727Z" fill="white"/>
<path d="M23.7805 15.1247L24.3798 15.4661C25.509 14.7935 25.2726 14.1291 25.4173 13.0722C25.6049 13.0641 25.7944 13.0641 25.9779 13.0722L26.1511 13.7632L27.3457 13.9043C27.3966 12.8392 27.4313 11.7557 27.3375 10.6947C26.5466 10.0855 27.1683 9.48037 26.6281 8.84459C26.5853 8.13316 26.5058 7.41356 26.5221 6.69805L26.2041 6.5202C26.1776 5.99685 26.1613 5.47555 26.1491 4.95221C25.6273 4.97879 25.1116 5.03398 24.606 5.12598C24.4185 5.96619 24.602 6.77165 24.178 7.50352C24.1107 8.24151 24.2717 8.9652 23.7499 9.55396C23.8661 11.4511 23.4197 13.2664 23.7805 15.1247Z" fill="white"/>
<path d="M6.03097 36.3181C6.17977 35.484 6.47331 35.0527 6.52427 34.1614C6.27354 34.8421 6.10028 34.7317 5.43983 34.6949C5.39295 35.0956 5.23599 35.6292 5.43983 35.9992C5.6396 36.0933 5.83936 36.1996 6.03097 36.3181Z" fill="white"/>
<path d="M35.4579 53.0386C36.7972 51.2743 37.8245 49.3568 38.8397 47.4004C39.4512 46.8423 39.3105 46.045 40.1014 45.8017C40.3053 44.7571 41.0697 43.7186 41.7077 42.8783C41.7383 42.6105 41.7627 42.3448 41.7831 42.077C41.5569 42.0688 41.3286 42.0688 41.1023 42.0688C40.2319 44.1438 38.4075 45.1455 37.2477 46.9895C36.4099 48.1281 35.8167 49.5673 35.1664 50.8041C35.1236 51.7323 34.5243 52.0614 34.6528 53.1347C34.9218 53.106 35.1929 53.0733 35.4579 53.0386Z" fill="white"/>
<path d="M50.0222 40.235C49.5839 40.9342 49.3006 41.6742 49.1722 42.447C48.683 42.9151 48.3303 43.7554 47.5312 43.5898L47.7514 44.7325C48.2447 44.9329 48.683 44.8981 49.1966 44.847C49.2354 44.152 49.6002 43.6368 49.9998 43.095C50.1445 42.1567 50.1526 41.2061 50.0222 40.235Z" fill="white"/>
<path d="M21.7046 6.35874C22.2346 6.31989 22.7625 6.29536 23.2945 6.28105C23.3964 5.62891 23.4128 4.98904 23.3414 4.3594C22.1775 4.09568 21.9899 4.85412 21.0645 5.25481C20.987 5.88445 20.8953 6.51206 20.7832 7.13762C21.195 7.07833 21.6067 7.03131 22.0205 6.99656L21.7046 6.35874Z" fill="white"/>
<path d="M48.9514 37.1747C48.1707 37.3403 47.498 36.9539 47.6855 38.0824C47.3125 38.0701 46.9415 38.066 46.5685 38.0701C45.7878 38.9941 45.2517 39.9488 44.2019 40.6316C44.1856 41.3042 44.0449 41.4167 43.5904 41.8501C43.148 42.5308 42.8973 43.1359 42.9116 43.9884C42.3857 44.6794 41.7048 44.9513 41.7089 45.9182L40.9995 45.9939C40.9873 47.0385 40.3574 47.7029 39.7663 48.4655C39.6909 49.7697 39.5074 50.9166 39.3933 52.1984C39.1262 52.2413 38.8674 52.2618 38.6065 52.2536L38.6105 51.3623L37.5791 51.3868C36.0625 53.9442 33.8101 56.0233 32.2038 58.503L31.5067 58.5153C31.5189 58.8097 31.5067 59.1041 31.4761 59.3964C31.26 58.9569 31.0052 58.3477 31.5862 58.0635C31.5148 56.1971 32.1936 54.8417 32.0795 52.967L31.2213 53.0999C31.2804 46.3251 31.1438 39.5195 31.1438 32.7447L30.9053 32.1314C30.889 28.8891 30.834 25.4751 30.783 22.1899C30.0696 22.6662 29.5681 23.026 29.6497 23.9316C29.4234 24.1402 29.187 24.3405 28.9485 24.5286C28.8465 23.6373 28.7691 22.4883 29.1788 21.6727C29.4458 20.8386 29.8963 21.2945 30.3896 21.7626C30.5079 20.8938 30.5262 20.029 30.4447 19.1725C29.8291 19.1643 29.2135 19.2358 28.5999 19.244C28.2208 18.3793 27.6643 17.5902 27.2912 16.7254C27.3177 15.9547 27.3972 15.1963 27.3687 14.4276C26.2598 14.1087 26.0478 15.8545 26.0478 16.6396C25.7298 16.9973 25.1774 17.5718 24.7004 17.6924C24.4742 17.0954 23.9911 16.7806 23.565 16.3288L22.9882 17.0014C22.98 18.3139 22.8047 19.5875 22.9413 20.904L22.6559 20.8917C22.6437 20.1844 22.7272 19.4812 22.7069 18.7738L21.8956 18.7697C21.9425 18.6205 22.0607 18.4283 22.2441 18.1994C22.2482 15.5745 22.3033 12.9618 22.1809 10.3369C21.6958 9.54374 21.9098 8.7853 21.8548 7.8858C21.4471 7.92056 21.0354 7.93691 20.6277 7.93282C20.7846 8.7158 20.3219 9.97714 20.9457 10.5618C21.0517 11.909 21.0231 13.2767 21.0945 14.628C20.8173 14.6116 20.5421 14.5768 20.275 14.5257C20.3138 13.4443 20.2322 12.3731 20.2506 11.2916L19.423 11.3775C19.7124 12.3056 19.1763 14.0024 19.7919 14.6872C19.7654 17.3408 19.9754 19.9922 19.902 22.6417L20.3219 22.8727C20.1425 28.2635 20.381 33.7259 20.3219 39.1332C20.4585 39.3499 20.5563 39.5727 20.6155 39.8098C20.5808 43.7513 20.642 47.6886 20.646 51.6301C19.9917 51.1742 19.6391 50.5609 19.423 49.8147C18.2978 47.7683 17.3968 46.0695 16.0616 44.156C15.4848 43.7758 15.2463 42.8129 14.9996 42.171C14.6714 42.1444 14.3412 42.124 14.013 42.1158C13.5422 40.4231 12.3008 38.7999 10.8433 37.7778C10.6007 37.9781 10.3378 38.1314 10.0565 38.2337C9.89953 39.8323 12.3049 41.11 12.9021 42.4306C13.5442 42.3754 13.7725 42.6739 14.3005 42.9295C14.3249 43.6715 14.8957 43.8106 15.4257 44.1744L15.6601 45.3499C14.7978 45.0596 14.0457 45.1618 13.1712 45.1884L13.1916 45.9775C12.2947 46.2535 11.8483 45.1925 11.2327 44.708C11.1939 44.432 11.1613 44.1581 11.1389 43.8821C11.9726 44.0232 12.0134 43.741 12.0827 44.7468C12.6392 44.892 13.0652 44.8695 13.3526 44.6692C12.9368 44.0252 12.1887 43.5141 11.9074 42.8109C11.1389 42.7598 10.3826 42.8272 9.61619 42.8538C9.55708 43.739 9.66308 44.6017 9.70996 45.4787C10.242 45.7547 9.98718 46.7278 10.1217 47.247C9.73442 47.2164 9.34509 47.1878 8.95779 47.1714C8.91498 46.6215 8.45634 46.4559 8.15873 46.0389C8.06904 45.2763 7.44529 45.0494 7.00703 44.4586C6.96015 44.0232 6.91326 43.5857 6.86638 43.1461C6.32212 42.4041 5.5618 42.1363 5.7106 41.0875C4.67713 40.5376 4.13083 39.634 3.27674 38.8899C2.92817 38.8817 2.57961 38.8817 2.23511 38.8981C2.282 37.8166 1.76016 38.1008 0.957031 37.9863C1.01207 39.4091 0.948878 40.6071 1.80705 41.8255C1.74793 43.0092 2.68968 43.7942 2.64891 45.0249C3.37458 45.3152 3.5662 45.953 4.03299 46.5152C7.78978 50.7081 10.56 56.1787 13.0142 61.2077C13.2649 61.9395 13.3934 62.3913 13.9193 63.0026C13.9621 63.8428 14.6205 64.4684 14.8508 65.282C15.2626 65.9382 15.4297 66.7008 15.9128 67.3181C15.8863 68.2054 16.4612 68.4936 17.0258 69.0476C17.2337 69.8367 17.4029 71.004 17.9655 71.5867C20.1915 76.1414 23.459 80.8065 26.1028 85.2774C26.3332 85.2611 26.5656 85.2427 26.7959 85.21C26.9916 83.3987 28.5836 81.6345 28.873 79.8416C29.2563 79.304 29.9045 78.9687 29.5743 78.2021C28.6774 77.3843 29.1747 76.6259 29.8556 75.9104C30.1532 75.8634 30.4467 75.8204 30.7443 75.7836C31.0073 75.4463 31.2723 75.1152 31.5719 74.8044C31.5841 74.3649 31.5719 73.9213 31.5413 73.4756C32.0897 73.5104 32.3608 73.3857 32.3485 73.1015C33.9793 70.0125 36.3887 66.3042 38.2192 63.2377C39.0651 62.1256 39.3749 60.9664 40.335 59.9218C41.7415 57.6976 43.1399 55.3998 44.5117 53.2185C45.378 51.6893 46.2872 49.9966 47.2615 48.5574C47.3512 47.6232 46.6154 47.3738 46.0548 46.785C46.0854 46.278 46.1363 45.767 46.2077 45.26C45.2557 44.7101 45.7735 43.2095 46.3565 42.5594C46.9762 42.4061 47.445 42.3754 48.0524 42.0831C47.8873 41.0691 48.825 40.094 48.8332 39.1127C48.8393 38.4667 48.929 37.8228 48.9514 37.1747ZM11.5914 52.8035C10.6945 52.6113 10.3888 51.4788 10.4479 50.6692C10.8311 50.6692 11.2163 50.6815 11.5996 50.704C11.5751 51.4154 11.7239 52.0962 11.5914 52.8035ZM11.1613 50.3401C11.6465 49.3813 10.0015 48.4818 10.5151 47.7929C11.7137 47.7622 12.9449 49.0931 13.3709 50.1357C13.7073 50.7326 14.0762 51.0781 13.9356 51.8324C14.1741 52.0635 14.4289 52.2842 14.7041 52.4846C14.7204 52.92 14.7204 53.3534 14.7081 53.7889C14.4921 53.7725 14.278 53.7541 14.066 53.7255C13.9213 52.7933 14.062 52.3313 13.5218 51.4972C12.3599 51.765 12.1601 50.0682 11.1613 50.3401ZM14.9772 61.0482C14.7611 59.885 13.7358 59.5579 13.9356 58.2823C14.3005 58.4315 14.6755 58.5542 15.0649 58.6441C15.2667 59.515 15.283 60.1794 14.9772 61.0482ZM18.308 62.9658L18.524 62.7102L18.7585 62.4424C20.2465 62.2973 19.7267 63.3379 19.4373 64.2353C19.0724 64.1719 18.7116 64.0942 18.3549 64.0104L18.308 62.9658ZM20.2282 68.5774C19.8205 68.2831 19.4556 67.9253 19.0683 67.6023C19.0438 67.2793 19.0296 66.9583 19.0296 66.6353C19.6024 66.7498 19.8409 67.1853 20.2404 67.5675C20.2506 67.9008 20.2465 68.2381 20.2282 68.5774ZM19.5025 58.0206C20.1609 57.994 20.54 58.2557 20.6501 58.8056C20.0549 59.2983 19.1193 58.914 19.5025 58.0206ZM22.3359 41.1509C22.2584 40.7625 22.183 40.3679 22.1157 39.9754C22.5234 40.0265 22.927 40.0776 23.3347 40.1328C23.4162 40.8238 23.088 40.8524 23.8667 41.1305C23.3571 41.1918 22.8495 41.1979 22.3359 41.1509ZM22.9739 38.7938C23.6017 38.4647 23.3225 38.158 23.3938 37.5917L23.4285 37.5366C23.8993 37.9413 24.307 38.019 24.1969 38.7509C24.5761 39.1945 25.3813 38.9349 25.9214 39.1209C24.8737 39.3478 24.04 38.7979 22.9739 38.7938ZM26.3556 23.3899C26.0886 23.6413 25.8297 23.8969 25.5749 24.1606C25.7522 24.688 25.7787 25.2523 25.6524 25.8574C25.2141 25.8696 24.7697 25.8819 24.3315 25.888C23.3245 25.3851 22.8271 24.1749 23.349 23.1855C23.5018 22.5538 23.1879 22.3514 23.9992 22.5088C24.3315 23.3306 24.5475 23.6802 25.4179 24.0972C25.7441 23.488 26.0927 22.8788 26.3434 22.2389C26.5187 22.5292 26.8917 23.1548 27.2403 23.2141C27.3177 23.5759 27.4665 23.8969 27.6745 24.181C27.3381 24.5224 27.2403 24.919 27.0792 25.3524C27.0262 24.5327 26.7857 23.8764 26.3556 23.3899ZM27.7234 43.2729C27.2382 42.723 27.3279 42.2037 27.2729 41.5209C28.5652 41.5414 28.4837 42.2998 28.5734 43.3138C28.288 43.3056 28.0047 43.2933 27.7234 43.2729ZM35.9586 59.3576C36.036 60.2959 35.3593 60.5474 35.029 61.3058C34.4929 61.3651 33.9548 61.408 33.4187 61.4428L33.486 60.6639C34.1566 59.9218 34.7212 59.1634 35.3083 58.362C35.6875 57.8509 36.034 57.3214 36.3418 56.7592C36.5701 57.8448 36.4417 58.7095 35.9586 59.3576ZM41.3318 53.9667C41.3787 52.7565 42.6568 51.6689 43.2683 50.6222C43.5781 50.0478 43.8798 49.4672 44.1815 48.8845L44.2121 50.4362C43.3804 51.4502 42.6914 53.7337 41.3318 53.9667Z" fill="white"/>
</g>
<defs>
<clipPath id="clip0_2594_943">
<rect width="159" height="84.5549" fill="white" transform="translate(0.957031 0.722534)"/>
</clipPath>
</defs>
</svg>
