<svg width="244" height="122" viewBox="0 0 244 122" fill="none" xmlns="http://www.w3.org/2000/svg">
<path d="M12.5736 100.599C12.8946 101.049 13.2799 101.435 13.7294 101.757C14.7568 102.529 16.0411 102.979 17.3895 102.979C18.0959 102.979 18.8022 102.851 19.5085 102.593C20.7286 102.078 21.6918 101.113 22.1413 99.8907C22.3981 99.2473 22.5265 98.6038 22.5265 97.896C22.5265 96.9308 22.2697 96.0299 21.6918 95.3221C21.1139 94.6787 20.4075 94.0995 19.637 93.7135C18.8022 93.263 17.9032 92.877 16.94 92.5552C15.9769 92.2335 15.0779 91.7831 14.2431 91.2039C13.4083 90.6892 12.702 89.9814 12.1883 89.1449C11.6104 88.1153 11.2893 86.9571 11.3535 85.7988C11.3535 84.898 11.5462 83.9328 11.8672 83.0963C12.1883 82.2598 12.7662 81.552 13.4083 80.9729C14.1147 80.3294 14.9494 79.879 15.8484 79.6216C16.8758 79.2999 17.9674 79.1068 19.0591 79.1068C20.0222 79.1068 21.0496 79.2355 22.0128 79.4929C22.8476 79.7503 23.6181 80.2007 24.3245 80.7798C24.1318 81.1659 23.9392 81.6163 23.8108 82.0667C23.6824 82.5172 23.5539 83.0963 23.3613 83.7398H22.9118C22.7834 83.3537 22.5907 83.0319 22.4623 82.6459C22.2697 82.2598 21.9486 81.8737 21.6276 81.552C21.2423 81.2302 20.857 80.9085 20.4075 80.7155C19.8938 80.4581 19.3159 80.3937 18.738 80.3937C18.0959 80.3937 17.518 80.5224 16.94 80.7155C16.4263 80.9085 15.9126 81.2302 15.4632 81.6163C15.0779 82.0024 14.6926 82.5172 14.5 83.0319C14.2431 83.6111 14.1789 84.1902 14.1789 84.8336C14.1789 85.7988 14.4357 86.6997 15.0137 87.4719C15.5916 88.1153 16.2979 88.6944 17.0685 89.0805C17.9032 89.5309 18.8022 89.917 19.7654 90.2387C20.6644 90.5605 21.5633 91.0109 22.4623 91.5257C23.2971 92.0405 24.0034 92.6839 24.5171 93.4561C25.095 94.3569 25.4161 95.4508 25.3519 96.5447C25.3519 97.5742 25.1593 98.6681 24.774 99.6333C24.3887 100.599 23.8108 101.435 23.1044 102.143C22.3339 102.915 21.3707 103.43 20.3433 103.816C19.1875 104.202 17.9032 104.395 16.6832 104.395C15.4631 104.395 14.2431 104.266 13.1515 103.816C12.3167 103.494 11.5462 103.044 10.8398 102.465C11.0325 102.014 11.1609 101.499 11.2893 100.985C11.3535 100.534 11.4178 99.9551 11.5462 99.3116H11.9957C12.1883 99.762 12.4452 100.212 12.7662 100.599" fill="white"/>
<path d="M49.6238 84.129C49.6238 82.6491 49.4954 81.1047 49.4312 79.5604C49.7522 79.5604 50.0091 79.6248 50.3302 79.6891C50.9081 79.7535 51.486 79.7535 51.9997 79.6891C52.3207 79.6891 52.5776 79.6248 52.8987 79.5604C52.8344 81.1047 52.7702 82.6491 52.706 84.129C52.706 85.609 52.6418 87.1533 52.6418 88.6976V94.8105C52.6418 96.3549 52.6418 97.8992 52.706 99.4435C52.706 100.988 52.8344 102.468 52.8987 103.883C52.385 103.883 51.807 103.819 51.1649 103.819C50.5228 103.819 49.9449 103.819 49.4312 103.883C49.4954 102.403 49.5596 100.923 49.6238 99.4435C49.6238 97.8992 49.688 96.4192 49.688 94.8105V91.5932C48.4038 91.5932 47.1837 91.5932 45.9637 91.5932C44.7437 91.5932 43.5236 91.5932 42.2394 91.5932C40.9551 91.5932 39.7351 91.5932 38.515 91.5932C37.295 91.5932 36.075 91.5932 34.7907 91.5932V94.8105C34.7907 96.3549 34.7907 97.8992 34.8549 99.4435C34.8549 100.988 34.9833 102.468 35.0476 103.883C34.5339 103.883 33.9559 103.819 33.3138 103.819C32.6717 103.819 32.0938 103.819 31.5801 103.883C31.6443 102.403 31.7085 100.923 31.7727 99.4435C31.7727 97.8992 31.8369 96.4192 31.8369 94.8105V88.6976C31.8369 87.1533 31.8369 85.609 31.7727 84.129C31.7727 82.6491 31.6443 81.1047 31.5801 79.5604C31.9011 79.5604 32.158 79.6248 32.4791 79.6891C33.057 79.7535 33.6349 79.7535 34.1486 79.6891C34.4696 79.6891 34.7265 79.6248 35.0476 79.5604C34.9833 81.1047 34.9191 82.6491 34.8549 84.129C34.8549 85.609 34.7907 87.1533 34.7907 88.6976V89.9202H38.515C39.7351 89.9846 40.9551 90.0489 42.2394 90.0489C43.5236 90.0489 44.7437 90.0489 45.9637 90.0489H49.688V88.762C49.688 87.2177 49.688 85.6733 49.6238 84.1934" fill="white"/>
<path d="M79.7374 91.0772C79.7374 87.7312 79.7374 85.1574 79.7374 83.2913C79.7374 82.0044 79.7374 80.7818 79.5447 79.4949C79.8016 79.4949 80.0584 79.5592 80.3153 79.6236C80.5721 79.6236 80.7648 79.6236 81.0216 79.6236C81.4069 79.6236 81.728 79.5592 82.1132 79.4305C82.049 80.267 81.9848 81.2322 81.9206 82.3905C81.8564 83.5487 81.7922 84.7713 81.728 86.0582C81.728 87.3452 81.6637 88.6964 81.5995 90.1121C81.5353 91.5277 81.5353 92.8146 81.4711 94.1659C81.4711 95.6459 81.2143 97.0615 80.7648 98.4127C80.3153 99.571 79.6732 100.665 78.7742 101.63C77.8752 102.531 76.8478 103.174 75.6278 103.625C74.2793 104.075 72.8024 104.333 71.3897 104.268C67.858 104.268 65.2895 103.496 63.6842 101.887C62.0789 100.279 61.3084 97.7693 61.3084 94.2946C61.3084 93.2007 61.3084 92.1711 61.3726 91.3346C61.3726 90.4981 61.4368 89.5973 61.4368 88.6964C61.4368 86.7017 61.4368 84.9643 61.3726 83.42C61.3726 81.8757 61.3084 80.5888 61.2441 79.4949C61.501 79.4949 61.8221 79.5592 62.1431 79.6236C62.4642 79.6236 62.7852 79.6236 63.0421 79.6236C63.2989 79.6236 63.5558 79.6236 63.8126 79.6236C64.0695 79.6236 64.3263 79.5592 64.5832 79.4949C64.5832 80.0097 64.519 80.7175 64.4548 81.554C64.3906 82.3905 64.3263 83.3557 64.3263 84.3852C64.3263 85.4791 64.2621 86.573 64.1979 87.7956C64.1337 89.0182 64.1979 90.3051 64.1979 91.6564C64.1979 92.4285 64.1979 93.265 64.1979 94.1659C64.1979 95.0024 64.3263 95.8389 64.4548 96.6754C64.5832 97.4475 64.84 98.2841 65.1611 98.9919C65.4822 99.6997 65.9317 100.407 66.5096 100.922C67.1517 101.501 67.9222 101.952 68.757 102.209C69.8486 102.531 70.9402 102.724 72.0961 102.66C73.1877 102.66 74.3435 102.531 75.3709 102.08C76.2057 101.759 76.912 101.244 77.5541 100.601C78.132 99.9571 78.5815 99.2493 78.9026 98.4771C79.2237 97.6406 79.4805 96.8041 79.6089 95.9676C79.7374 95.1311 79.8016 94.2302 79.8658 93.3294C79.8658 92.4285 79.8658 91.6564 79.8658 90.9486" fill="white"/>
<path d="M101.892 94.6801C98.81 91.3984 95.7278 88.1168 92.7099 84.8351C92.7099 85.4786 92.7098 86.3794 92.6456 87.4733C92.6456 88.5672 92.6456 90.1115 92.6456 92.0419C92.6456 92.5567 92.6456 93.1358 92.6456 93.9079C92.6456 94.6158 92.6456 95.3879 92.6456 96.2244C92.6456 97.0609 92.6456 97.8331 92.6456 98.6696C92.6456 99.5061 92.6456 100.278 92.7099 100.986C92.7741 101.694 92.7098 102.337 92.7741 102.852C92.8383 103.367 92.7741 103.753 92.8383 103.946C92.453 103.946 92.0035 103.882 91.6182 103.882C91.1687 103.882 90.7193 103.882 90.334 103.946C90.334 103.689 90.4624 103.303 90.4624 102.659C90.4624 102.016 90.5908 101.243 90.5908 100.343C90.5908 99.4417 90.7193 98.4765 90.7193 97.447C90.7193 96.4175 90.8477 95.3879 90.8477 94.3584C90.8477 93.3288 90.9119 92.2993 90.9119 91.3341C90.9119 90.3689 90.9119 89.468 90.9119 88.6959C90.9119 86.4438 90.9119 84.449 90.9119 82.8404C90.9119 81.2317 90.9119 80.0091 90.8477 79.1726H91.4256C92.8383 80.7169 94.3794 82.3899 96.0489 84.1916C97.7184 85.9933 99.3237 87.7307 100.929 89.468C102.534 91.2054 104.075 92.8784 105.552 94.4227C107.029 95.967 108.249 97.254 109.341 98.3479V93.5219C109.341 91.0124 109.341 88.6315 109.341 86.2507C109.341 83.8699 109.212 81.6821 109.084 79.623C109.469 79.7517 109.855 79.8161 110.304 79.8161C110.689 79.8161 111.075 79.7517 111.46 79.623C111.46 80.1378 111.332 80.91 111.332 81.9395C111.332 82.969 111.203 84.0629 111.139 85.2855C111.139 86.4438 111.01 87.602 111.01 88.7602C111.01 89.9185 110.946 90.8193 110.946 91.4628V93.5862C110.946 94.3584 110.946 95.2592 110.946 96.0957V98.7339C110.946 99.6348 110.946 100.471 111.01 101.243C111.075 102.016 111.01 102.659 111.01 103.238V104.396H110.497C107.8 101.243 104.91 98.0261 101.828 94.7445" fill="white"/>
<path d="M131.176 94.6801C128.093 91.3984 125.011 88.1168 121.993 84.8351C121.993 85.4786 121.993 86.3794 121.929 87.4733C121.929 88.5672 121.929 90.1115 121.929 92.0419C121.929 92.5567 121.929 93.1358 121.929 93.9079V96.2244C121.929 96.9966 121.993 97.8331 121.993 98.6696C121.993 99.5061 121.993 100.278 122.058 100.986C122.122 101.694 122.058 102.337 122.122 102.852C122.186 103.367 122.122 103.753 122.186 103.946C121.801 103.946 121.351 103.882 120.966 103.882C120.516 103.882 120.067 103.882 119.682 103.946C119.682 103.689 119.81 103.303 119.81 102.659C119.81 102.016 119.938 101.243 119.938 100.343C119.938 99.4417 120.067 98.4765 120.067 97.447C120.067 96.4175 120.195 95.3879 120.195 94.3584C120.195 93.3288 120.26 92.2993 120.26 91.3341C120.26 90.3689 120.26 89.468 120.26 88.6959C120.26 86.4438 120.26 84.449 120.26 82.8404C120.26 81.2317 120.26 80.0091 120.195 79.1726H120.773C122.186 80.7169 123.727 82.3899 125.397 84.1916C127.066 85.9933 128.671 87.7307 130.277 89.468C131.882 91.2054 133.423 92.8784 134.9 94.4227C136.377 95.967 137.597 97.254 138.689 98.3479V93.5219C138.689 91.0124 138.689 88.6315 138.689 86.2507C138.689 83.8699 138.56 81.6821 138.432 79.623C138.817 79.7517 139.202 79.8161 139.652 79.8161C140.037 79.8161 140.422 79.7517 140.743 79.623C140.743 80.1378 140.615 80.91 140.615 81.9395C140.615 82.969 140.487 84.0629 140.422 85.2855C140.422 86.4438 140.294 87.602 140.294 88.7602C140.294 89.9185 140.23 90.8193 140.23 91.4628V93.5862C140.23 94.3584 140.23 95.2592 140.23 96.0957V98.7339C140.23 99.6348 140.23 100.471 140.294 101.243C140.294 102.016 140.294 102.659 140.294 103.238V104.396H139.78C137.083 101.243 134.194 98.0261 131.111 94.7445" fill="white"/>
<path d="M168.094 103.881C168.094 103.881 167.452 103.816 167.131 103.816H165.268C165.268 103.816 164.626 103.816 164.305 103.881C164.113 103.366 163.92 102.658 163.663 101.886C163.406 101.114 163.085 100.342 162.7 99.4409C162.379 98.6044 161.994 97.7679 161.673 96.8671C161.351 95.9662 160.966 95.1941 160.709 94.4219C159.939 94.4219 159.168 94.4219 158.398 94.4219C157.627 94.4219 156.857 94.4219 156.086 94.4219C155.38 94.4219 154.609 94.4219 153.903 94.4219C153.196 94.4219 152.49 94.4219 151.72 94.4219C150.949 96.288 150.307 98.0253 149.665 99.6983C149.023 101.371 148.573 102.723 148.316 103.816C147.417 103.752 146.583 103.752 145.684 103.816C147.61 99.6983 149.472 95.5802 151.27 91.462C153.068 87.3438 154.93 83.2256 156.792 78.9788H157.434C158.012 80.33 158.59 81.81 159.297 83.4187C160.003 85.0273 160.645 86.636 161.351 88.2447C162.058 89.8533 162.7 91.5263 163.406 93.0706C164.113 94.6793 164.755 96.1593 165.333 97.5749C165.911 98.9262 166.488 100.213 166.938 101.307C167.452 102.401 167.837 103.237 168.094 103.816M152.426 92.8133C153.068 92.8133 153.646 92.8133 154.352 92.8133C154.994 92.8133 155.637 92.8133 156.279 92.8133C156.921 92.8133 157.627 92.8133 158.269 92.8133C158.911 92.8133 159.618 92.8133 160.26 92.8133L156.343 83.8047L152.49 92.8133H152.426Z" fill="white"/>
<path d="M173.937 88.6976C173.937 87.1533 173.937 85.609 173.872 84.129C173.872 82.6491 173.744 81.1047 173.68 79.5604C174.386 79.5604 175.028 79.6248 175.734 79.6891C176.441 79.7535 177.083 79.6891 177.789 79.6891C178.496 79.6891 179.138 79.6891 179.844 79.6248C180.486 79.6248 181.193 79.5604 181.899 79.5604C182.862 79.5604 183.825 79.6248 184.724 79.8822C185.559 80.0752 186.33 80.3969 187.1 80.8474C187.742 81.2978 188.32 81.8769 188.705 82.5847C189.54 84.3864 189.476 86.4455 188.513 88.1829C187.999 88.955 187.421 89.6628 186.651 90.2419C185.944 90.7567 185.11 91.2071 184.275 91.4645C183.504 91.7219 182.798 91.9149 181.963 92.0436C182.22 92.4297 182.605 92.8801 183.119 93.5236C183.633 94.1671 184.146 94.8749 184.788 95.647C185.431 96.4192 186.008 97.1914 186.715 98.0279C187.357 98.8644 187.999 99.6365 188.641 100.409C189.283 101.181 189.861 101.889 190.375 102.532C190.889 103.176 191.338 103.626 191.659 104.012C191.338 104.012 190.953 103.948 190.568 103.948H188.449C188.128 103.948 187.742 103.948 187.421 104.012C187.036 103.497 186.522 102.789 185.816 101.76C185.11 100.795 184.275 99.7009 183.44 98.5426C182.541 97.3844 181.706 96.2905 180.743 95.1323C179.844 94.0384 179.009 93.0732 178.239 92.301H176.89V94.8749C176.89 96.4192 176.89 97.9635 176.955 99.5078C177.019 101.052 177.083 102.532 177.147 103.948C176.633 103.948 176.056 103.883 175.413 103.883C174.771 103.883 174.193 103.883 173.68 103.948C173.744 102.468 173.808 100.988 173.872 99.5078C173.872 97.9635 173.937 96.4835 173.937 94.8749V88.762V88.6976ZM176.826 90.7567C177.211 90.8211 177.532 90.8854 177.918 90.8854C178.303 90.8854 178.752 90.8854 179.202 90.8854C179.973 90.8854 180.743 90.8211 181.514 90.628C182.284 90.4993 182.991 90.1776 183.697 89.7272C184.339 89.2767 184.917 88.762 185.366 88.0542C185.816 87.282 186.073 86.3168 186.008 85.416C186.008 84.6438 185.88 83.8073 185.495 83.0995C185.174 82.5204 184.724 82.0056 184.146 81.6839C183.633 81.3621 182.991 81.1047 182.348 80.976C181.706 80.8474 181.128 80.783 180.486 80.783C179.651 80.783 178.945 80.783 178.431 80.783C177.918 80.783 177.404 80.8474 177.083 80.9117C177.083 82.1986 176.955 83.4856 176.955 84.7725C176.955 86.0594 176.89 87.3464 176.955 88.5689V90.628L176.826 90.7567Z" fill="white"/>
<path d="M216.83 103.882C216.83 103.882 216.188 103.818 215.867 103.818H214.005C214.005 103.818 213.363 103.818 213.042 103.882C212.849 103.368 212.656 102.66 212.399 101.888C212.143 101.115 211.822 100.343 211.436 99.5067C211.115 98.6702 210.73 97.8337 210.409 96.9329C210.024 96.0964 209.703 95.2599 209.446 94.4877C208.675 94.4877 207.905 94.4877 207.134 94.4877C206.363 94.4877 205.593 94.4877 204.822 94.4877C204.116 94.4877 203.345 94.4877 202.639 94.4877C201.933 94.4877 201.226 94.4877 200.456 94.4877C199.685 96.3538 199.043 98.0911 198.401 99.7641C197.759 101.437 197.309 102.788 197.053 103.882C196.154 103.818 195.319 103.818 194.42 103.882C196.346 99.7641 198.208 95.6459 200.006 91.5278C201.804 87.4096 203.667 83.2914 205.529 79.0446H206.171C206.749 80.3958 207.327 81.8758 208.033 83.4845C208.739 85.0931 209.381 86.7018 210.088 88.3104C210.794 89.9191 211.436 91.5921 212.143 93.1364C212.849 94.7451 213.491 96.2251 214.069 97.6407C214.647 98.992 215.225 100.279 215.674 101.373C216.188 102.467 216.573 103.303 216.83 103.882ZM201.162 92.879C201.804 92.879 202.382 92.879 203.089 92.879C203.731 92.879 204.373 92.879 205.015 92.879C205.657 92.879 206.363 92.879 207.006 92.879C207.648 92.879 208.354 92.879 208.996 92.879L205.079 83.8705L201.226 92.879H201.162Z" fill="white"/>
<path d="M240.335 84.129C240.335 82.6491 240.206 81.1047 240.142 79.5604C240.463 79.5604 240.72 79.6248 241.041 79.6891C241.619 79.7535 242.197 79.7535 242.711 79.6891C243.032 79.6891 243.289 79.6248 243.61 79.5604C243.545 81.1047 243.481 82.6491 243.417 84.129C243.417 85.609 243.353 87.1533 243.353 88.6976V94.8105C243.353 96.3549 243.353 97.8992 243.417 99.4435C243.417 100.988 243.545 102.468 243.61 103.883C243.096 103.883 242.518 103.819 241.876 103.819C241.234 103.819 240.656 103.819 240.142 103.883C240.206 102.403 240.271 100.923 240.335 99.4435C240.335 97.8992 240.399 96.4192 240.399 94.8105V91.5932C239.115 91.5932 237.895 91.5932 236.675 91.5932C235.455 91.5932 234.235 91.5932 232.95 91.5932C231.666 91.5932 230.446 91.5932 229.226 91.5932C228.006 91.5932 226.786 91.5932 225.502 91.5932V94.8105C225.502 96.3549 225.502 97.8992 225.566 99.4435C225.566 100.988 225.694 102.468 225.759 103.883C225.245 103.883 224.667 103.819 224.025 103.819C223.383 103.819 222.805 103.819 222.291 103.883C222.355 102.403 222.419 100.923 222.484 99.4435C222.484 97.8992 222.548 96.4192 222.548 94.8105V88.6976C222.548 87.1533 222.548 85.609 222.484 84.129C222.484 82.6491 222.355 81.1047 222.291 79.5604C222.612 79.5604 222.869 79.6248 223.19 79.6891C223.768 79.7535 224.346 79.7535 224.86 79.6891C225.181 79.6891 225.437 79.6248 225.759 79.5604C225.694 81.1047 225.63 82.6491 225.566 84.129C225.566 85.609 225.502 87.1533 225.502 88.6976V89.9202H229.226C230.446 89.9846 231.666 90.0489 232.95 90.0489C234.235 90.0489 235.455 90.0489 236.675 90.0489H240.399V88.762C240.399 87.2177 240.399 85.6733 240.335 84.1934" fill="white"/>
<path d="M22.2033 62.0563C19.1853 58.7746 16.1673 55.5573 13.1493 52.34C13.1493 52.9834 13.1493 53.8843 13.0851 54.9782C13.0209 56.0721 13.0851 57.552 13.0851 59.4824C13.0851 59.9972 13.0851 60.5763 13.0851 61.2841C13.0851 61.9919 13.0851 62.7641 13.0851 63.5363C13.0851 64.3084 13.0851 65.1449 13.0851 65.9814C13.0851 66.8179 13.0851 67.5257 13.1493 68.2335C13.1493 68.9414 13.1493 69.5205 13.2135 70.0996C13.2135 70.6144 13.2135 71.0004 13.2777 71.1935C12.8925 71.1935 12.443 71.1291 12.0577 71.1291C11.6082 71.1291 11.2229 71.1291 10.7734 71.1935C10.7734 70.9361 10.9019 70.55 10.9019 69.9066C10.9019 69.2631 11.0303 68.5553 11.0303 67.6544C11.0303 66.7536 11.1587 65.8527 11.1587 64.8232C11.1587 63.7936 11.2871 62.7641 11.2871 61.7346C11.2871 60.705 11.3514 59.6755 11.3514 58.7103C11.3514 57.7451 11.3514 56.8442 11.3514 56.0721C11.3514 53.8199 11.3514 51.8896 11.3514 50.2809C11.3514 48.6722 11.3514 47.4496 11.2871 46.6775H11.8651C13.2777 48.2218 14.8188 49.8948 16.4241 51.6322C18.0295 53.3695 19.6348 55.1069 21.2401 56.8442C22.8454 58.5816 24.3223 60.1902 25.7992 61.7346C27.2119 63.2789 28.4961 64.5658 29.5877 65.6597V60.8981C29.5877 58.4529 29.5877 56.0721 29.5877 53.7556C29.5877 51.4391 29.4593 49.2513 29.3309 47.1923C29.7162 47.321 30.1014 47.3853 30.4867 47.3853C30.872 47.3853 31.2573 47.321 31.5783 47.1923C31.5783 47.707 31.4499 48.4792 31.4499 49.5087C31.4499 50.5383 31.3215 51.6322 31.2573 52.7904C31.2573 53.9486 31.1288 55.1069 31.1288 56.2008C31.1288 57.2947 31.0646 58.1955 31.0646 58.9033V61.0267C31.0646 61.7989 31.0646 62.6354 31.0646 63.5363C31.0646 64.3728 31.0646 65.2736 31.0646 66.1745C31.0646 67.0753 31.0646 67.8475 31.0646 68.6196C31.0646 69.3918 31.0646 70.0353 31.0646 70.6144V71.7726H30.5509C27.854 68.684 25.0286 65.531 22.0106 62.2493" fill="white"/>
<path d="M58.2283 58.5178C58.2283 55.2361 58.2283 52.6623 58.2283 50.8606C58.2283 49.638 58.2283 48.4154 58.0357 47.1285C58.2925 47.1285 58.5494 47.1928 58.742 47.2572C58.9989 47.2572 59.1915 47.2572 59.4484 47.2572C59.8336 47.2572 60.1547 47.1928 60.4758 47.0641C60.4115 47.9006 60.3473 48.8658 60.2831 49.9597C60.2189 51.1179 60.1547 52.2762 60.0905 53.5631C60.0905 54.85 60.0263 56.2013 59.9621 57.5526C59.9621 58.9039 59.8979 60.2551 59.8336 61.5421C59.8336 62.9577 59.5768 64.3733 59.1273 65.7246C58.742 66.8828 58.0357 67.9767 57.2009 68.8776C56.3662 69.7784 55.2745 70.4219 54.1187 70.808C52.7703 71.2584 51.3576 71.5158 49.9449 71.4514C46.4774 71.4514 43.9089 70.6793 42.3678 69.0706C40.7625 67.4619 39.9919 64.9524 39.9919 61.5421C39.9919 60.4482 39.9919 59.483 40.0562 58.6465C40.1204 57.81 40.1204 56.9091 40.1204 56.0083C40.1204 54.0779 40.1204 52.3405 40.0562 50.7962C40.0562 49.2519 39.9919 48.0293 39.9277 46.9354C40.1846 46.9354 40.5056 46.9998 40.8267 47.0641C41.1478 47.0641 41.4046 47.0641 41.7257 47.0641C41.9825 47.0641 42.2394 47.0641 42.4962 47.0641C42.7531 47.0641 43.0099 46.9998 43.2668 46.9354C43.2668 47.4502 43.2026 48.0937 43.1384 48.9302C43.1384 49.7667 43.0099 50.6675 43.0099 51.7614C43.0099 52.791 42.9457 53.9492 42.8815 55.1718C42.8815 56.3944 42.8815 57.6169 42.8815 58.9682C42.8815 59.7404 42.8815 60.5769 42.8815 61.4134C42.8815 62.2499 43.0099 63.0864 43.1384 63.9229C43.2668 64.6951 43.5236 65.4672 43.8447 66.2394C44.1658 66.9472 44.6153 67.5906 45.1932 68.1698C45.8353 68.7489 46.6058 69.1993 47.3764 69.4567C48.4038 69.7784 49.5596 69.9715 50.6512 69.9071C51.7429 69.9071 52.8345 69.7784 53.8619 69.328C54.6966 69.0063 55.403 68.4915 56.0451 67.848C56.623 67.2046 57.0725 66.4967 57.3293 65.7246C57.6504 64.9524 57.843 64.1159 58.0357 63.2151C58.1641 62.3786 58.2283 61.4777 58.2925 60.6412C58.2925 59.8047 58.2925 58.9682 58.2925 58.2604" fill="white"/>
<path d="M68.8871 67.9118C69.2081 68.3622 69.5934 68.7483 70.0429 69.0701C70.5566 69.4561 71.0703 69.7135 71.6482 69.9066C72.2903 70.1639 72.9967 70.2283 73.703 70.2283C74.4094 70.2283 75.1157 70.0996 75.7578 69.8422C76.3357 69.5848 76.9136 69.1987 77.2989 68.7483C77.7484 68.2979 78.0695 67.7188 78.2621 67.1397C78.519 66.4962 78.5832 65.8527 78.5832 65.1449C78.5832 64.2441 78.3263 63.3432 77.7484 62.5711C77.1705 61.9276 76.4642 61.4128 75.6936 61.0267C74.8588 60.5763 73.9599 60.1902 73.0609 59.8685C72.1619 59.5468 71.2629 59.0964 70.4282 58.5816C69.5934 58.0668 68.9513 57.359 68.3734 56.5868C67.7955 55.6216 67.4744 54.4634 67.5386 53.3052C67.5386 52.4043 67.7312 51.5035 68.0523 50.6026C68.3734 49.8305 68.8871 49.1227 69.5934 48.5435C70.2998 47.9644 71.1345 47.4496 71.9693 47.1923C72.9967 46.8705 74.0241 46.6775 75.1157 46.6775C76.0789 46.6775 77.0421 46.8062 78.0053 47.0636C78.84 47.321 79.6106 47.7714 80.2527 48.2862C80.0601 48.6722 79.8674 49.1227 79.739 49.5731C79.6106 50.0235 79.4822 50.6026 79.2895 51.2461H78.84C78.7116 50.86 78.519 50.5383 78.3905 50.1522C78.1979 49.7661 77.941 49.38 77.5558 49.0583C77.1705 48.7366 76.7852 48.4148 76.3357 48.2218C75.822 47.9644 75.2441 47.9001 74.6662 47.9001C74.0241 47.9001 73.4462 48.0288 72.8683 48.2218C72.3546 48.4148 71.8409 48.7366 71.4556 49.1227C71.0703 49.5087 70.7492 49.9592 70.4924 50.4739C70.2355 51.053 70.1713 51.6322 70.1713 52.2113C70.1713 53.1765 70.4282 54.0773 71.0061 54.7851C71.584 55.4286 72.2903 55.9434 73.0609 56.3938C73.8957 56.8442 74.7946 57.2303 75.6936 57.552C76.5926 57.8738 77.4916 58.3242 78.3263 58.7746C79.1611 59.225 79.8032 59.8685 80.3811 60.6407C80.959 61.5415 81.2801 62.6354 81.2159 63.7293C81.2159 64.7588 81.0233 65.7884 80.638 66.7536C80.2527 67.7188 79.6748 68.5553 78.9685 69.2631C78.1979 69.9709 77.2989 70.55 76.2715 70.9361C75.1157 71.3222 73.8957 71.5152 72.6756 71.5152C71.4556 71.5152 70.2998 71.3865 69.1439 70.9361C68.3092 70.6144 67.6028 70.1639 66.8965 69.6492C67.0891 69.1987 67.2175 68.684 67.346 68.1692C67.4102 67.7188 67.4744 67.204 67.6028 66.4962H68.0523C68.245 66.9466 68.5018 67.397 68.8229 67.7831" fill="white"/>
<path d="M88.0843 67.9118C88.4054 68.3622 88.7907 68.7483 89.2402 69.0701C89.7539 69.4561 90.2676 69.7135 90.8455 69.9066C91.4876 70.1639 92.1939 70.2283 92.9003 70.2283C93.6066 70.2283 94.313 70.0996 94.9551 69.8422C95.533 69.5848 96.0467 69.1987 96.4962 68.7483C96.9457 68.2979 97.2667 67.7188 97.4594 67.1397C97.7162 66.4962 97.8447 65.8527 97.7804 65.1449C97.7804 64.2441 97.5236 63.3432 96.9457 62.5711C96.3678 61.9276 95.6614 61.4128 94.8909 61.0267C94.0561 60.5763 93.1571 60.1902 92.2582 59.8685C91.3592 59.5468 90.4602 59.0964 89.6254 58.5816C88.7907 58.0668 88.1486 57.359 87.5706 56.5868C86.9927 55.6216 86.6717 54.4634 86.7359 53.3052C86.7359 52.4043 86.9285 51.5035 87.2496 50.6026C87.5706 49.8305 88.0843 49.1227 88.7907 48.5435C89.497 47.9644 90.3318 47.4496 91.1665 47.1923C92.1939 46.8705 93.2214 46.6775 94.313 46.6775C95.2762 46.6775 96.2393 46.8062 97.2025 47.0636C98.0373 47.321 98.8078 47.7714 99.45 48.2862C99.2573 48.6722 99.0647 49.1227 98.9363 49.5731C98.8078 50.0235 98.6794 50.6026 98.4868 51.2461H98.0373C97.9089 50.86 97.7162 50.5383 97.5878 50.1522C97.3952 49.7661 97.1383 49.38 96.753 49.0583C96.3678 48.7366 95.9825 48.4148 95.533 48.2218C95.0193 47.9644 94.4414 47.9001 93.8635 47.9001C93.2213 47.9001 92.6434 48.0288 92.0655 48.2218C91.5518 48.4148 91.0381 48.7366 90.6528 49.1227C90.2676 49.5087 89.9465 49.9592 89.6897 50.4739C89.497 51.053 89.3686 51.6322 89.3686 52.2113C89.3686 53.1765 89.6254 54.0773 90.2034 54.7851C90.7813 55.4286 91.4876 55.9434 92.2582 56.3938C93.0929 56.8442 93.9919 57.2303 94.8909 57.552C95.7899 57.8738 96.6888 58.3242 97.5236 58.7746C98.3584 59.225 99.0005 59.8685 99.5784 60.6407C100.156 61.5415 100.477 62.6354 100.413 63.7293C100.413 64.7588 100.221 65.7884 99.8352 66.7536C99.45 67.7188 98.8721 68.5553 98.1657 69.2631C97.3952 69.9709 96.4962 70.55 95.4688 70.9361C94.313 71.3222 93.0929 71.5152 91.8729 71.5152C90.6528 71.5152 89.497 71.3865 88.3412 70.9361C87.5064 70.6144 86.8001 70.1639 86.0938 69.6492C86.2864 69.1987 86.4148 68.684 86.5432 68.1692C86.6075 67.7188 86.6717 67.204 86.8001 66.4962H87.2496C87.4422 66.9466 87.6991 67.397 88.0201 67.7831" fill="white"/>
<path d="M107.286 56.1372C107.286 54.5929 107.286 53.1129 107.222 51.5686C107.158 50.0243 107.094 48.6086 107.029 47.0643C107.607 47.0643 108.249 47.1287 108.891 47.193C109.534 47.2574 110.112 47.193 110.754 47.193C111.332 47.193 111.974 47.193 112.616 47.1287C113.258 47.0643 113.836 47.0643 114.478 47.0643C115.441 47.0643 116.34 47.1287 117.303 47.3217C118.138 47.4504 118.909 47.7078 119.615 48.1582C120.257 48.5443 120.835 49.0591 121.22 49.7025C121.67 50.4747 121.862 51.3112 121.798 52.1477C121.862 53.692 121.284 55.172 120.193 56.2015C118.973 57.2311 117.496 57.9389 115.955 58.2606C117.689 58.2606 119.422 58.8397 120.835 59.8049C122.119 60.8988 122.761 62.5075 122.633 64.1805C122.633 65.3387 122.376 66.497 121.862 67.4622C121.349 68.363 120.642 69.0708 119.743 69.5856C118.844 70.1647 117.881 70.5508 116.918 70.7438C115.891 70.9369 114.863 71.0656 113.836 71.0656C113.258 71.0656 112.744 71.0656 112.166 71.0656C111.588 71.0656 111.01 71.0656 110.497 71.0656H108.827C108.249 71.0656 107.671 71.0656 107.158 71.1299C107.222 69.6499 107.286 68.17 107.35 66.69C107.35 65.21 107.415 63.7301 107.415 62.1857V56.1372H107.286ZM112.038 57.8745C112.873 57.8745 113.643 57.8102 114.478 57.6171C115.249 57.4885 115.955 57.1667 116.597 56.7806C117.239 56.3946 117.753 55.8798 118.138 55.2363C118.523 54.4642 118.716 53.6277 118.716 52.7912C118.716 52.019 118.588 51.1825 118.202 50.4747C117.881 49.8956 117.432 49.4452 116.854 49.1234C116.276 48.8017 115.698 48.6086 115.056 48.48C114.414 48.3513 113.707 48.3513 113.001 48.3513C112.423 48.3513 111.909 48.3513 111.46 48.3513C111.01 48.3513 110.689 48.4156 110.368 48.48C110.368 49.5738 110.304 50.7321 110.24 51.826C110.24 52.9199 110.176 54.0137 110.176 55.172V57.8102H112.038V57.8745ZM110.176 62.7649C110.176 63.9231 110.176 65.1457 110.24 66.3039C110.24 67.4622 110.304 68.6204 110.368 69.843C110.818 69.843 111.332 69.9073 111.909 69.9717C112.487 70.036 113.129 69.9717 113.772 69.9717C114.478 69.9717 115.249 69.843 115.891 69.5856C116.533 69.3282 117.175 68.9421 117.689 68.4274C118.202 67.9126 118.652 67.2691 118.909 66.5613C119.23 65.7892 119.358 64.8883 119.358 64.0518C119.358 63.2153 119.23 62.3788 118.844 61.6066C118.459 60.9632 117.945 60.4484 117.303 60.1267C116.533 59.7406 115.698 59.4832 114.863 59.3545C113.836 59.2258 112.744 59.1615 111.717 59.1615H110.176V62.7649Z" fill="white"/>
<path d="M148.316 71.1291C148.316 71.1291 147.674 71.0648 147.417 71.0648H145.555C145.555 71.0648 144.913 71.0648 144.656 71.1291C144.463 70.6144 144.271 69.9709 144.014 69.1988C143.757 68.4266 143.436 67.6544 143.115 66.8179C142.794 65.9814 142.409 65.1449 142.088 64.3084C141.766 63.4719 141.381 62.6354 141.124 61.8633C140.354 61.8633 139.647 61.8633 138.877 61.8633C138.106 61.8633 137.336 61.8633 136.565 61.8633C135.859 61.8633 135.153 61.8633 134.446 61.8633C133.74 61.8633 133.034 61.8633 132.327 61.8633C131.557 63.665 130.915 65.4023 130.272 67.0753C129.63 68.7483 129.245 70.0996 128.924 71.1291C128.089 71.0648 127.19 71.0648 126.355 71.1291C128.218 67.0753 130.08 63.0215 131.878 58.9677C133.676 54.9138 135.474 50.86 137.272 46.6775H137.914C138.492 48.0288 139.07 49.5087 139.712 51.053C140.354 52.5974 140.996 54.206 141.702 55.8147C142.409 57.4233 143.051 59.032 143.757 60.5763C144.463 62.185 145.041 63.665 145.683 65.0162C146.261 66.3675 146.839 67.5901 147.289 68.684C147.738 69.7779 148.124 70.55 148.445 71.1291M132.969 60.2546C133.547 60.2546 134.189 60.2546 134.832 60.2546C135.474 60.2546 136.116 60.2546 136.694 60.2546C137.336 60.2546 137.978 60.2546 138.62 60.2546C139.262 60.2546 139.904 60.2546 140.546 60.2546L136.694 51.3748L132.905 60.2546H132.969Z" fill="white"/>
<path d="M171.178 58.5178C171.178 55.2361 171.178 52.6623 171.178 50.8606C171.178 49.638 171.178 48.4154 170.985 47.1285C171.242 47.1285 171.499 47.1928 171.691 47.2572C171.948 47.2572 172.141 47.2572 172.398 47.2572C172.783 47.2572 173.104 47.1928 173.425 47.0641C173.361 47.9006 173.297 48.8658 173.232 49.9597C173.168 51.1179 173.104 52.2762 173.04 53.5631C173.04 54.85 172.975 56.2013 172.911 57.5526C172.911 58.9039 172.847 60.2551 172.783 61.5421C172.783 62.9577 172.526 64.3733 172.077 65.7246C171.691 66.8828 170.985 67.9767 170.15 68.8776C169.315 69.7784 168.224 70.4219 167.068 70.808C165.719 71.2584 164.307 71.5158 162.894 71.4514C159.427 71.4514 156.858 70.6793 155.317 69.0706C153.712 67.4619 152.941 64.9524 152.941 61.5421C152.941 60.4482 152.941 59.483 153.005 58.6465C153.005 57.81 153.07 56.9091 153.07 56.0083C153.07 54.0779 153.07 52.3405 153.005 50.7962C153.005 49.2519 152.941 48.0293 152.877 46.9354C153.134 46.9354 153.455 46.9998 153.776 47.0641C154.097 47.0641 154.354 47.0641 154.675 47.0641C154.932 47.0641 155.189 47.0641 155.445 47.0641C155.702 47.0641 155.959 46.9998 156.216 46.9354C156.216 47.4502 156.152 48.0937 156.088 48.9302C156.023 49.7667 155.959 50.6675 155.959 51.7614C155.959 52.791 155.895 53.9492 155.831 55.1718C155.767 56.3944 155.831 57.6169 155.831 58.9682C155.831 59.7404 155.831 60.5769 155.831 61.4134C155.831 62.2499 155.959 63.0864 156.088 63.9229C156.216 64.6951 156.473 65.4672 156.794 66.2394C157.115 66.9472 157.564 67.5906 158.142 68.1698C158.785 68.7489 159.555 69.1993 160.326 69.4567C161.353 69.7784 162.509 69.9715 163.6 69.9071C164.692 69.9071 165.784 69.7784 166.811 69.328C167.646 69.0063 168.352 68.4915 168.93 67.848C169.508 67.2046 169.958 66.4967 170.214 65.7246C170.535 64.9524 170.728 64.1159 170.921 63.2151C171.049 62.3786 171.113 61.4777 171.178 60.6412C171.178 59.8047 171.178 58.9682 171.178 58.2604" fill="white"/>
<path d="M188.967 56.3279C190.636 59.4809 192.306 62.6338 194.104 65.9155C194.361 65.4651 194.682 64.8216 195.131 63.9851C195.581 63.1486 196.094 62.1834 196.672 61.1539C197.25 60.06 197.892 58.9017 198.534 57.6792C199.177 56.4566 199.883 55.1697 200.589 53.8827C201.296 52.5958 201.938 51.3732 202.644 50.0863C203.35 48.8637 203.928 47.7055 204.506 46.6116H204.956C205.213 48.8637 205.469 50.9871 205.662 53.1106C205.855 55.1697 206.112 57.2287 206.368 59.2878C206.625 61.2826 206.818 63.2773 207.075 65.2721C207.332 67.2668 207.588 69.1972 207.845 71.1276C207.588 71.1276 207.332 71.0632 207.011 71.0632H205.341C205.341 71.0632 204.763 71.0632 204.506 71.1276C204.249 68.0389 203.993 65.0147 203.736 62.1191C203.479 59.2235 203.158 56.2635 202.773 53.1749H202.708C201.103 56.1349 199.498 59.0304 197.957 61.926C196.415 64.8216 194.939 67.8459 193.526 70.9989H193.205C191.792 68.0389 190.379 65.1434 188.838 62.1834C187.297 59.2235 185.756 56.1992 184.279 53.1749H184.215C184.022 54.6549 183.894 56.1992 183.701 57.8722C183.509 59.5452 183.316 61.2182 183.188 62.8912C182.995 64.5642 182.867 66.1086 182.738 67.5242C182.61 68.9398 182.546 70.1624 182.546 71.1276C181.711 71.0632 180.94 71.0632 180.105 71.1276C180.427 69.2615 180.748 67.2668 181.069 65.1434C181.39 63.0199 181.711 60.9608 182.032 58.8374C182.353 56.714 182.61 54.5905 182.867 52.5314C183.123 50.4724 183.316 48.4776 183.509 46.6116H184.087C185.692 49.8932 187.297 53.1106 188.967 56.2635" fill="white"/>
<path d="M32.6091 37.9901C32.6091 37.9901 31.967 37.9258 31.7102 37.9258H29.848C29.848 37.9258 29.2059 37.9258 28.949 37.9901C28.7564 37.4753 28.5638 36.8319 28.3069 36.0597C28.0501 35.2876 27.729 34.5154 27.4079 33.6789C27.0869 32.8424 26.7016 32.0059 26.3805 31.1694C26.0595 30.3329 25.6742 29.4964 25.4173 28.7242C24.6468 28.7242 23.9404 28.7242 23.1699 28.7242C22.3993 28.7242 21.6288 28.7242 20.8582 28.7242C20.1519 28.7242 19.4456 28.7242 18.7392 28.7242C18.0329 28.7242 17.3265 28.7242 16.6202 28.7242C15.8497 30.5259 15.2075 32.2633 14.5654 33.9363C13.9233 35.6093 13.4738 36.9606 13.2169 37.9901C12.3822 37.9258 11.4832 37.9258 10.6484 37.9901C12.5106 33.9363 14.3728 29.8825 16.1707 25.8286C17.9687 21.7748 19.7666 17.721 21.5646 13.5385H22.2067L24.0047 17.914C24.6468 19.4583 25.2889 21.067 25.9952 22.6757C26.7016 24.2843 27.3437 25.893 28.0501 27.4373C28.7564 29.0459 29.3343 30.5259 29.9764 31.8772C30.5543 33.2285 31.1323 34.4511 31.5817 35.5449C32.0312 36.6388 32.4807 37.411 32.7376 37.9901M17.2623 27.1156C17.8402 27.1156 18.4824 27.1156 19.1245 27.1156C19.7666 27.1156 20.4088 27.1156 20.9867 27.1156C21.6288 27.1156 22.2709 27.1156 22.913 27.1156C23.5552 27.1156 24.1973 27.1156 24.8394 27.1156L20.9867 18.2357L17.1981 27.1156H17.2623Z" fill="white"/>
<path d="M38.2571 18.4945C38.2571 17.0145 38.1287 15.5345 38.0645 13.9902C38.3855 13.9902 38.6424 14.0546 38.9634 14.1189C39.5413 14.1833 40.055 14.1833 40.633 14.1189C40.8898 14.1189 41.2109 14.0546 41.5319 13.9902C41.4677 15.5345 41.4035 17.0145 41.3393 18.4945C41.3393 19.9745 41.2751 21.4544 41.2751 22.9987C41.2751 25.9587 41.2751 28.4682 41.2751 30.656C41.2751 32.8437 41.2751 34.7098 41.3393 36.4471C43.0088 36.4471 44.5499 36.4471 46.091 36.4471C47.6963 36.4471 49.3659 36.2541 50.9712 36.0611C50.8428 36.3828 50.7785 36.7689 50.7785 37.0906C50.7785 37.4123 50.8428 37.7341 50.9712 38.0558C49.8796 38.0558 48.8522 37.9915 47.7606 37.9915H41.3393C40.3119 37.9915 39.2203 37.9915 38.1287 38.0558C38.1929 36.5758 38.2571 35.1602 38.3213 33.6803C38.3855 32.2003 38.3855 30.656 38.3855 29.1117V23.0631C38.3855 21.5188 38.3855 20.0388 38.3213 18.5588" fill="white"/>
<path d="M59.1262 15.7919C58.5482 15.7919 57.9061 15.7919 57.1998 15.7919C56.5577 15.7919 55.8513 15.7919 55.2092 15.8563C54.5671 15.8563 53.9249 15.9206 53.2828 15.985C52.6407 15.985 52.127 16.1137 51.6133 16.178C51.7417 15.7919 51.8059 15.4702 51.8059 15.0841C51.8059 14.698 51.7417 14.3763 51.6133 13.9902C53.1544 13.9902 54.6313 14.0546 56.1082 14.1189C57.5851 14.1833 59.0619 14.1189 60.603 14.1189C62.1441 14.1189 63.621 14.1189 65.0979 14.1189C66.5748 14.1189 68.0517 14.0546 69.5928 13.9902C69.4644 14.3763 69.4644 14.698 69.4002 15.0841C69.4002 15.4702 69.4644 15.7919 69.5928 16.178C69.0791 16.1137 68.5654 16.0493 67.9233 15.985C67.2812 15.9206 66.639 15.9206 65.9969 15.8563C65.3548 15.8563 64.6484 15.8563 64.0063 15.7919C63.3642 15.7919 62.7221 15.7919 62.0799 15.7919C62.0157 18.1728 61.9515 20.6179 61.9515 23.0631V29.0473C61.9515 30.5916 61.9515 32.0716 62.0157 33.6159C62.0799 35.1602 62.1441 36.5758 62.2084 37.9915C61.6947 37.9915 61.1167 37.9271 60.4746 37.9271C59.8325 37.9271 59.3188 37.9271 58.7409 37.9915C58.8051 36.5115 58.8693 35.0959 58.9335 33.6159C58.9335 32.1359 58.9977 30.5916 58.9977 29.0473V23.0631C58.9977 20.6179 58.9977 18.2371 58.8693 15.7919" fill="white"/>
<path d="M82.5664 23.1257C84.2359 26.2787 85.9055 29.4317 87.7034 32.7134C87.9603 32.2629 88.2813 31.6195 88.7308 30.783C89.1803 29.9465 89.694 28.9813 90.2719 27.9517C90.8498 26.8578 91.492 25.6996 92.1341 24.477C92.7762 23.2544 93.4826 21.9675 94.1889 20.6806C94.8952 19.3936 95.5374 18.1711 96.2437 16.8841C96.95 15.6615 97.528 14.5033 98.1059 13.4094H98.5553C98.8122 15.6616 99.069 17.785 99.2617 19.9084C99.4543 22.0318 99.7112 24.0266 99.968 26.0857C100.225 28.0804 100.418 30.0752 100.674 32.0699C100.931 34.0646 101.188 35.995 101.445 37.9254C101.188 37.9254 100.931 37.8611 100.61 37.8611H98.9406C98.9406 37.8611 98.3627 37.8611 98.1059 37.9254C97.849 34.8368 97.5922 31.8125 97.3353 28.9169C97.0785 26.0213 96.7574 23.0614 96.3721 19.9728H96.3079C94.7026 22.9327 93.0973 25.8283 91.5562 28.7239C90.0151 31.6195 88.5382 34.6438 87.1255 37.8611H86.8044C85.3918 34.9011 83.9791 32.0056 82.438 29.0456C80.8969 26.0857 79.3558 23.0614 77.8789 20.0371H77.8147C77.622 21.5171 77.4936 23.0614 77.301 24.7344C77.1083 26.4074 76.9157 28.0804 76.7873 29.7534C76.5946 31.4264 76.4662 32.9707 76.3378 34.3864C76.2094 35.8663 76.1452 37.0246 76.1452 37.9898C75.3104 37.9254 74.5398 37.9254 73.7051 37.9898C74.0261 36.1237 74.3472 34.129 74.6683 32.0056C74.9893 29.8821 75.3104 27.823 75.6315 25.6996C75.9525 23.5762 76.2094 21.4527 76.4662 19.3936C76.7231 17.3346 76.9157 15.3398 77.1083 13.4738H77.6863C79.2916 16.7554 80.8969 19.9728 82.5664 23.1257Z" fill="white"/>
<path d="M127.511 37.9901C127.511 37.9901 126.869 37.9258 126.613 37.9258H124.75C124.75 37.9258 124.108 37.9258 123.851 37.9901C123.659 37.4753 123.466 36.8319 123.209 36.0597C122.952 35.2876 122.631 34.5154 122.31 33.6789C121.989 32.8424 121.604 32.0059 121.283 31.1694C120.962 30.3329 120.577 29.4964 120.32 28.7242C119.549 28.7242 118.843 28.7242 118.072 28.7242C117.302 28.7242 116.531 28.7242 115.761 28.7242C115.054 28.7242 114.348 28.7242 113.642 28.7242C112.935 28.7242 112.229 28.7242 111.523 28.7242C110.752 30.5259 110.11 32.2633 109.468 33.9363C108.826 35.6093 108.44 36.9606 108.119 37.9901C107.285 37.9258 106.386 37.9258 105.551 37.9901C107.413 33.9363 109.275 29.8825 111.073 25.8286C112.871 21.7748 114.669 17.721 116.467 13.5385H117.109L118.907 17.914C119.549 19.4583 120.191 21.067 120.898 22.6757C121.604 24.2843 122.246 25.893 122.952 27.4373C123.659 29.0459 124.237 30.5259 124.879 31.8772C125.457 33.2285 126.035 34.4511 126.484 35.5449C126.934 36.6388 127.319 37.411 127.64 37.9901M112.165 27.1156C112.743 27.1156 113.385 27.1156 114.027 27.1156C114.669 27.1156 115.311 27.1156 115.889 27.1156C116.531 27.1156 117.173 27.1156 117.815 27.1156C118.458 27.1156 119.1 27.1156 119.742 27.1156L115.889 18.2357L112.1 27.1156H112.165Z" fill="white"/>
<path d="M144.338 28.9173C141.32 25.6356 138.302 22.4183 135.284 19.2009C135.284 19.8444 135.284 20.7453 135.22 21.8391C135.22 22.933 135.22 24.413 135.22 26.3434C135.22 26.8582 135.22 27.4373 135.22 28.1451C135.22 28.8529 135.22 29.6251 135.22 30.3972C135.22 31.1694 135.22 32.0059 135.22 32.8424C135.22 33.6789 135.22 34.3867 135.284 35.0945C135.348 35.8023 135.284 36.3814 135.348 36.9606C135.412 37.5397 135.348 37.8614 135.412 38.0545C135.027 38.0545 134.578 37.9901 134.192 37.9901C133.743 37.9901 133.358 37.9901 132.908 38.0545C132.908 37.7971 133.037 37.411 133.037 36.7675C133.037 36.1241 133.165 35.4162 133.165 34.5154C133.165 33.6145 133.293 32.7137 133.293 31.6842C133.293 30.6546 133.422 29.6251 133.422 28.5955C133.422 27.566 133.422 26.5364 133.486 25.5712C133.55 24.606 133.486 23.7052 133.486 22.933C133.486 20.6809 133.486 18.7505 133.486 17.1419C133.486 15.5332 133.486 14.3106 133.422 13.5385H134C135.412 15.0828 136.954 16.7558 138.559 18.4931C140.164 20.2305 141.77 21.9678 143.375 23.7052C144.98 25.4425 146.457 27.0512 147.934 28.5955C149.347 30.1398 150.631 31.4268 151.722 32.5207V27.759C151.722 25.3139 151.722 22.933 151.722 20.6166C151.722 18.3001 151.594 16.1123 151.466 14.0532C151.851 14.1819 152.236 14.2463 152.621 14.2463C153.007 14.2463 153.392 14.1819 153.713 14.0532C153.713 14.568 153.585 15.3402 153.585 16.3697C153.585 17.3992 153.456 18.4931 153.392 19.6514C153.392 20.8096 153.264 21.9678 153.264 23.0617C153.264 24.1556 153.199 25.0565 153.199 25.7643V27.8877C153.199 28.6599 153.199 29.4964 153.199 30.3972C153.199 31.2981 153.199 32.1346 153.199 33.0354C153.199 33.9363 153.199 34.7084 153.199 35.4806C153.199 36.2528 153.199 36.8962 153.199 37.4753V38.6336H152.686C149.989 35.5449 147.163 32.392 144.145 29.1103" fill="white"/>
<path d="M92.4525 121.189V120.61C92.4525 120.61 93.0304 120.61 93.2873 120.546C93.4157 120.546 93.4799 120.546 93.6083 120.417C93.6726 120.353 93.7368 120.224 93.7368 120.095C93.7368 119.902 93.7368 119.13 93.801 117.843C93.801 116.942 93.801 115.977 93.801 115.012C93.801 113.146 93.801 112.181 93.801 112.116C93.801 112.116 93.6083 112.116 93.2873 112.116C92.6452 112.116 92.0672 112.116 91.5535 112.116C91.4251 112.116 91.2325 112.116 91.1041 112.181C91.1041 112.181 91.0398 112.245 91.0398 112.31C91.0398 112.31 91.0398 112.76 90.9114 113.596H90.2693C90.2693 112.696 90.2693 111.923 90.2051 111.216H90.2693C91.7462 111.216 93.2231 111.216 94.6357 111.216C96.0484 111.216 97.6537 111.216 99.3875 111.087V111.216C99.3875 111.859 99.3233 112.631 99.2591 113.532H98.6811C98.6811 113.082 98.6811 112.631 98.5527 112.245C98.5527 112.181 98.4243 112.116 98.2959 112.116C97.5253 112.052 96.7548 111.988 96.0484 112.052C95.9842 112.052 95.92 112.052 95.8558 112.052C95.8558 112.181 95.8558 112.31 95.8558 112.438V117.264C95.8558 118.68 95.8558 119.516 95.8558 119.838C95.8558 120.16 95.92 120.353 96.0484 120.417C96.4337 120.482 96.819 120.546 97.2043 120.546V121.125C96.4979 121.125 95.7916 121.125 94.9568 121.125C93.9294 121.125 93.0946 121.125 92.4525 121.125" fill="white"/>
<path d="M100.994 121.191V120.612C100.994 120.612 101.636 120.612 101.957 120.483C101.957 120.483 102.022 120.419 102.086 120.354C102.15 119.968 102.214 119.582 102.214 119.196C102.214 118.167 102.214 117.394 102.214 116.815C102.214 116.043 102.214 115.014 102.214 113.791C102.214 113.212 102.214 112.697 102.086 112.118C102.086 112.118 102.086 111.989 101.957 111.989C101.636 111.925 101.379 111.861 101.058 111.861V111.282C102.022 111.282 102.664 111.282 102.985 111.282H106.581C107.159 111.217 107.736 111.282 108.25 111.475C108.571 111.603 108.892 111.861 109.085 112.182C109.278 112.504 109.406 112.955 109.406 113.341C109.406 113.855 109.213 114.435 108.892 114.821C108.443 115.335 107.801 115.721 107.159 115.979L108.7 118.295L109.855 120.033C109.855 120.033 110.177 120.419 110.369 120.547C110.562 120.612 110.69 120.676 110.883 120.612V121.191H110.433C109.213 121.191 108.443 121.191 108.122 121.191C107.736 120.547 107.094 119.582 106.26 118.295L104.783 116.043C104.783 116.043 104.847 115.85 104.911 115.786C105.04 115.786 105.168 115.786 105.361 115.786C105.874 115.786 106.324 115.593 106.645 115.271C107.094 114.885 107.351 114.306 107.287 113.727C107.287 113.212 107.159 112.762 106.773 112.375C106.324 112.054 105.81 111.861 105.232 111.925C105.04 111.925 104.718 111.925 104.333 111.925V114.048L104.205 116.751C104.205 117.33 104.205 118.102 104.269 119.067C104.269 119.454 104.269 119.84 104.397 120.29C104.397 120.354 104.462 120.419 104.526 120.419C104.847 120.483 105.168 120.547 105.489 120.547V121.127C104.654 121.127 103.884 121.127 103.242 121.127C102.535 121.127 101.765 121.127 100.994 121.127" fill="white"/>
<path d="M112.295 121.191V120.612C112.68 120.612 113.065 120.612 113.387 120.419C113.515 120.226 113.579 120.033 113.515 119.84C113.515 119.196 113.515 118.038 113.515 116.301C113.515 115.657 113.515 114.692 113.515 113.469C113.515 113.019 113.515 112.504 113.515 112.054C113.515 111.989 113.451 111.925 113.387 111.861C113.001 111.796 112.68 111.732 112.295 111.732V111.153C113.258 111.153 114.029 111.153 114.542 111.153C115.441 111.153 116.276 111.153 116.982 111.153V111.732C116.597 111.732 116.212 111.732 115.891 111.861C115.762 111.989 115.698 112.118 115.762 112.311C115.762 112.761 115.762 113.727 115.762 115.078C115.762 116.944 115.762 118.231 115.762 118.939C115.762 119.389 115.762 119.84 115.891 120.226C115.891 120.29 116.019 120.354 116.083 120.354C116.405 120.419 116.726 120.483 117.047 120.483V121.062H116.212C115.698 121.062 115.184 121.062 114.799 121.062H112.359L112.295 121.191Z" fill="white"/>
<path d="M118.654 120.547C118.654 120.547 119.232 120.547 119.489 120.419C119.617 120.29 119.745 120.097 119.81 119.904C120.131 119.26 120.452 118.424 120.901 117.33L123.406 111.153H124.433L127.644 118.81C127.836 119.389 128.093 119.904 128.414 120.419C128.671 120.547 128.992 120.612 129.313 120.612V121.255C128.543 121.255 127.836 121.255 127.13 121.255C126.295 121.255 125.525 121.255 124.754 121.255V120.612C125.075 120.612 125.396 120.612 125.717 120.547C125.781 120.547 125.846 120.419 125.846 120.354C125.781 120.033 125.653 119.711 125.525 119.454L125.075 118.231C124.497 118.231 123.855 118.231 123.084 118.231C122.442 118.231 121.864 118.231 121.351 118.231L121.03 119.003C121.03 119.003 120.837 119.518 120.709 119.968C120.709 120.033 120.709 120.161 120.709 120.226C120.709 120.354 120.709 120.419 120.837 120.483C121.158 120.547 121.479 120.612 121.864 120.612V121.255C121.415 121.255 120.837 121.255 120.131 121.255C119.424 121.255 118.975 121.255 118.525 121.255V120.612L118.654 120.547ZM123.341 113.598L121.864 117.266C122.314 117.266 122.763 117.266 123.341 117.266C123.919 117.266 124.433 117.266 124.947 117.266L123.406 113.598H123.341Z" fill="white"/>
<path d="M131.239 121.191V120.805C131.239 120.805 131.752 120.547 132.009 120.354C132.009 119.067 132.073 117.716 132.073 116.301C132.073 115.207 132.073 114.177 132.073 113.212C132.073 112.826 132.073 112.375 131.945 111.989C131.945 111.925 131.881 111.861 131.816 111.861C131.495 111.796 131.11 111.732 130.789 111.732V111.153C131.688 111.153 132.587 111.153 133.358 111.153C134.128 111.153 134.834 111.153 135.541 111.153V111.732C135.156 111.732 134.77 111.732 134.385 111.925C134.321 111.989 134.257 112.054 134.257 112.182C134.257 112.311 134.257 113.083 134.257 114.499V117.974C134.257 118.617 134.257 119.389 134.257 120.226C134.899 120.226 135.348 120.226 135.605 120.226C136.376 120.226 137.146 120.226 137.852 120.033C137.981 119.582 138.109 119.067 138.238 118.488H138.88C138.751 119.196 138.687 120.033 138.559 121.062C138.109 121.062 137.66 121.062 137.339 121.062H133.614C133.101 121.062 132.33 121.062 131.303 121.062" fill="white"/>
<path d="M144.789 120.547C144.789 120.547 145.366 120.547 145.623 120.419C145.752 120.29 145.88 120.097 145.944 119.904C146.265 119.26 146.587 118.424 147.036 117.33L149.54 111.153H150.568L153.778 118.81C153.971 119.389 154.228 119.904 154.549 120.419C154.806 120.547 155.127 120.612 155.448 120.612V121.255C154.677 121.255 153.971 121.255 153.265 121.255C152.43 121.255 151.659 121.255 150.889 121.255V120.612C151.21 120.612 151.531 120.612 151.852 120.547C151.916 120.547 151.98 120.419 151.98 120.354C151.916 120.033 151.788 119.711 151.659 119.454L151.21 118.231C150.632 118.231 149.99 118.231 149.219 118.231C148.577 118.231 147.999 118.231 147.486 118.231L147.164 119.003C147.164 119.003 146.972 119.518 146.843 119.968C146.843 120.033 146.843 120.161 146.843 120.226C146.843 120.354 146.843 120.419 146.972 120.483C147.293 120.547 147.614 120.612 147.999 120.612V121.255C147.55 121.255 146.972 121.255 146.265 121.255C145.559 121.255 145.11 121.255 144.66 121.255V120.612L144.789 120.547ZM149.476 113.598L147.999 117.266C148.449 117.266 148.898 117.266 149.476 117.266C150.054 117.266 150.568 117.266 151.081 117.266L149.54 113.598H149.476Z" fill="white"/>
<path d="M158.912 121.189V120.61C158.912 120.61 159.489 120.61 159.746 120.546C159.875 120.546 159.939 120.546 160.067 120.417C160.132 120.353 160.196 120.224 160.196 120.095C160.196 119.902 160.196 119.13 160.26 117.843C160.26 116.942 160.26 115.977 160.26 115.012C160.26 113.146 160.26 112.181 160.26 112.116C160.26 112.116 160.067 112.116 159.746 112.116C159.104 112.116 158.526 112.116 158.013 112.116C157.884 112.116 157.691 112.116 157.563 112.181C157.563 112.181 157.499 112.245 157.499 112.31C157.499 112.31 157.499 112.76 157.37 113.596H156.728C156.728 112.696 156.728 111.923 156.664 111.216H156.728C158.205 111.216 159.682 111.216 161.095 111.216C162.507 111.216 164.113 111.216 165.846 111.087V111.216C165.846 111.859 165.782 112.631 165.718 113.532H165.14C165.14 113.082 165.14 112.631 165.012 112.245C165.012 112.181 164.883 112.116 164.755 112.116C163.984 112.052 163.214 111.988 162.507 112.052C162.443 112.052 162.379 112.052 162.315 112.052C162.315 112.181 162.315 112.31 162.315 112.438V117.264C162.315 118.68 162.315 119.516 162.315 119.838C162.315 120.16 162.379 120.353 162.507 120.417C162.893 120.482 163.278 120.546 163.663 120.546V121.125C162.957 121.125 162.251 121.125 161.416 121.125C160.388 121.125 159.554 121.125 158.912 121.125" fill="white"/>
<path d="M169.378 121.189V120.61C169.378 120.61 169.956 120.61 170.213 120.546C170.341 120.546 170.406 120.546 170.534 120.417C170.598 120.353 170.663 120.224 170.663 120.095C170.663 119.902 170.663 119.13 170.727 117.843C170.727 116.942 170.727 115.977 170.727 115.012C170.727 113.146 170.727 112.181 170.727 112.116C170.727 112.116 170.534 112.116 170.213 112.116C169.571 112.116 168.993 112.116 168.479 112.116C168.351 112.116 168.158 112.116 168.03 112.181C168.03 112.181 167.966 112.245 167.966 112.31C167.966 112.31 167.966 112.76 167.837 113.596H167.195C167.195 112.696 167.195 111.923 167.131 111.216H167.195C168.672 111.216 170.149 111.216 171.562 111.216C172.974 111.216 174.58 111.216 176.313 111.087V111.216C176.313 111.859 176.249 112.631 176.185 113.532H175.607C175.607 113.082 175.607 112.631 175.478 112.245C175.478 112.181 175.35 112.116 175.222 112.116C174.451 112.052 173.681 111.988 172.974 112.052C172.91 112.052 172.846 112.052 172.782 112.052C172.782 112.181 172.782 112.31 172.782 112.438V117.264C172.782 118.68 172.782 119.516 172.782 119.838C172.782 120.16 172.846 120.353 172.974 120.417C173.359 120.482 173.745 120.546 174.13 120.546V121.125C173.424 121.125 172.717 121.125 171.883 121.125C170.855 121.125 170.02 121.125 169.378 121.125" fill="white"/>
<path d="M183.379 121.384C181.903 121.512 180.49 120.998 179.334 120.032C178.371 119.067 177.857 117.716 177.921 116.3C177.921 115.335 178.114 114.37 178.628 113.469C179.077 112.697 179.719 112.053 180.49 111.667C181.453 111.217 182.545 111.024 183.572 111.024C184.599 111.024 185.627 111.217 186.526 111.603C187.296 111.989 187.874 112.568 188.324 113.276C188.773 114.048 188.966 114.949 188.966 115.914C188.966 116.944 188.773 117.909 188.26 118.81C187.81 119.582 187.168 120.29 186.333 120.676C185.434 121.126 184.407 121.384 183.315 121.319M183.572 120.547C184.471 120.547 185.306 120.161 185.884 119.453C186.526 118.488 186.847 117.394 186.719 116.236C186.783 115.013 186.462 113.791 185.755 112.761C184.407 111.41 182.224 111.474 180.939 112.761C180.297 113.662 179.976 114.82 180.105 115.914C180.105 116.815 180.233 117.716 180.554 118.488C181.004 119.775 182.224 120.611 183.572 120.483" fill="white"/>
<path d="M190.828 121.191V120.612C190.828 120.612 191.47 120.612 191.791 120.483C191.791 120.483 191.856 120.419 191.92 120.354C191.984 119.968 192.048 119.582 192.048 119.196C192.048 118.167 192.048 117.394 192.048 116.815C192.048 116.043 192.048 115.014 192.048 113.791C192.048 113.212 192.048 112.697 191.92 112.118C191.92 112.118 191.92 111.989 191.791 111.989C191.47 111.925 191.213 111.861 190.892 111.861V111.282C191.856 111.282 192.498 111.282 192.819 111.282H196.415C196.993 111.217 197.57 111.282 198.084 111.475C198.405 111.603 198.726 111.861 198.919 112.182C199.112 112.504 199.24 112.955 199.24 113.341C199.24 113.855 199.047 114.435 198.726 114.821C198.277 115.335 197.635 115.721 196.993 115.979L198.534 118.295L199.689 120.033C199.689 120.033 200.011 120.419 200.203 120.547C200.396 120.612 200.524 120.676 200.717 120.612V121.191H200.267C199.047 121.191 198.277 121.191 197.956 121.191C197.57 120.547 196.928 119.582 196.094 118.295L194.617 116.043C194.617 116.043 194.681 115.85 194.745 115.786C194.874 115.786 195.002 115.786 195.195 115.786C195.708 115.786 196.158 115.593 196.479 115.271C196.928 114.885 197.185 114.306 197.121 113.727C197.121 113.212 196.993 112.762 196.607 112.375C196.158 112.054 195.644 111.861 195.066 111.925C194.874 111.925 194.552 111.925 194.167 111.925V114.048L194.039 116.751C194.039 117.33 194.039 118.102 194.103 119.067C194.103 119.454 194.103 119.84 194.231 120.29C194.231 120.354 194.296 120.419 194.36 120.419C194.681 120.483 195.002 120.547 195.323 120.547V121.127C194.488 121.127 193.718 121.127 193.076 121.127C192.369 121.127 191.599 121.127 190.828 121.127" fill="white"/>
<path d="M202.066 121.191V120.612C202.387 120.612 202.773 120.612 203.094 120.483C203.158 120.483 203.222 120.354 203.222 120.29C203.286 119.904 203.351 119.518 203.351 119.067C203.351 117.909 203.351 117.073 203.351 116.494V113.469C203.351 113.019 203.351 112.568 203.286 112.054C203.286 111.989 203.222 111.925 203.158 111.925C202.837 111.796 202.452 111.796 202.066 111.732V111.153C202.837 111.153 203.351 111.153 203.736 111.153C204.121 111.153 204.571 111.153 205.084 111.153C206.176 112.568 207.396 114.113 208.809 115.721C209.708 116.815 210.542 117.716 211.185 118.424V115.593C211.185 114.499 211.185 113.598 211.185 112.826C211.185 112.568 211.185 112.247 211.056 111.989C211.056 111.989 210.992 111.861 210.928 111.861C210.607 111.861 210.286 111.796 209.9 111.732V111.153C210.414 111.153 210.928 111.153 211.441 111.153C212.148 111.153 212.79 111.153 213.368 111.153V111.732C213.047 111.732 212.726 111.732 212.405 111.861C212.405 111.861 212.276 111.861 212.276 111.989C212.276 111.989 212.212 112.118 212.212 112.182C212.212 112.568 212.148 112.89 212.212 113.276V119.003C212.212 119.775 212.212 120.547 212.212 121.32V121.448C211.57 121.32 211.12 121.255 210.864 121.255C209.644 119.904 208.167 118.167 206.433 116.108C205.534 115.078 204.828 114.177 204.314 113.469V116.236C204.314 117.008 204.314 117.909 204.314 119.003C204.314 119.454 204.314 119.904 204.442 120.354C204.442 120.354 204.442 120.419 204.571 120.483C204.892 120.547 205.277 120.612 205.598 120.612V121.191C204.828 121.191 204.25 121.191 203.929 121.191C203.672 121.191 203.094 121.191 202.131 121.191" fill="white"/>
<path d="M215.481 121.189V120.803C215.481 120.803 215.931 120.545 216.188 120.417C216.316 119.644 216.316 118.1 216.316 115.719C216.316 114.111 216.316 113.017 216.316 112.502C216.316 112.309 216.316 112.116 216.188 111.987C215.866 111.858 215.481 111.794 215.16 111.794V111.215C216.252 111.215 217.151 111.215 217.793 111.215H221.71C222.095 111.215 222.48 111.215 222.801 111.215C222.673 111.987 222.609 112.695 222.545 113.403H221.967C221.967 113.017 221.967 112.631 221.902 112.309C221.902 112.309 221.774 112.245 221.581 112.18C221.004 112.051 220.361 112.051 219.783 112.051C219.398 112.051 218.884 112.051 218.371 112.051C218.371 113.531 218.242 114.69 218.242 115.591C218.756 115.591 219.206 115.591 219.655 115.591C220.04 115.591 220.426 115.591 220.875 115.526C220.939 115.526 221.003 115.397 221.068 115.333C221.068 115.011 221.132 114.754 221.196 114.432H221.838C221.838 115.269 221.838 115.784 221.838 116.041V117.65H221.26C221.26 117.264 221.26 116.942 221.132 116.556C221.132 116.491 221.004 116.427 220.939 116.427C220.426 116.363 219.848 116.363 219.334 116.363C219.077 116.363 218.756 116.363 218.435 116.363C218.435 116.62 218.435 116.877 218.435 117.135C218.435 118.486 218.435 119.516 218.499 120.288H219.912C220.682 120.288 221.389 120.288 222.095 120.159C222.224 119.709 222.352 119.194 222.416 118.679H222.994C222.866 119.516 222.801 120.288 222.801 121.124C222.352 121.124 221.967 121.124 221.581 121.124C221.325 121.124 220.811 121.124 220.04 121.124C219.334 121.124 218.628 121.124 218.05 121.124C217.279 121.124 216.444 121.124 215.545 121.124" fill="white"/>
<path d="M227.042 121.191V120.612C227.363 120.612 227.748 120.612 228.069 120.483C228.198 120.419 228.262 120.29 228.262 120.161C228.262 120.161 228.262 119.647 228.262 118.746V118.231C228.262 117.845 228.262 117.394 228.198 117.008C227.877 116.365 227.491 115.721 227.106 115.078C226.464 114.048 226.015 113.341 225.629 112.955C225.372 112.633 225.116 112.311 224.794 112.118C224.666 112.118 224.602 112.054 224.473 112.054H224.152V111.475C224.923 111.346 225.693 111.153 226.528 110.96C226.785 111.089 226.978 111.217 227.17 111.41C227.556 111.861 227.877 112.311 228.198 112.826C228.647 113.534 229.161 114.563 229.803 115.915L230.381 114.885C230.895 113.984 231.601 112.697 232.5 111.089H233.656V111.475C233.656 111.475 232.949 112.44 232.243 113.534C231.152 115.207 230.574 116.236 230.445 116.494C230.317 116.88 230.317 117.201 230.317 117.588C230.317 118.681 230.317 119.518 230.381 119.968C230.381 120.226 230.445 120.354 230.574 120.419C230.959 120.547 231.344 120.547 231.665 120.547V121.127C230.959 121.127 230.253 121.127 229.546 121.127C228.776 121.127 227.877 121.127 226.978 121.127" fill="white"/>
<path d="M235.646 118.167H236.288C236.288 118.553 236.288 119.003 236.353 119.389C236.481 119.582 236.609 119.775 236.738 119.84C236.995 120.033 237.316 120.226 237.637 120.29C238.022 120.419 238.407 120.483 238.793 120.483C239.371 120.483 239.948 120.29 240.398 119.968C240.783 119.646 241.04 119.132 240.976 118.617C240.976 118.231 240.847 117.78 240.591 117.459C240.141 117.137 239.627 116.944 239.05 116.88C238.279 116.815 237.508 116.622 236.802 116.365C236.417 116.172 236.096 115.85 235.903 115.528C235.646 115.078 235.582 114.627 235.582 114.177C235.582 113.341 235.903 112.504 236.545 111.925C237.38 111.217 238.472 110.895 239.563 110.96C240.077 110.96 240.526 110.96 241.04 111.088C241.49 111.153 241.875 111.281 242.324 111.474V111.668C242.324 111.668 242.324 112.182 242.26 112.504C242.26 112.761 242.26 113.147 242.196 113.791H241.554C241.554 113.405 241.554 112.954 241.425 112.568C241.233 112.311 241.04 112.182 240.719 112.054C240.334 111.861 239.884 111.796 239.435 111.796C238.857 111.796 238.343 111.925 237.894 112.247C237.508 112.568 237.316 113.019 237.38 113.469C237.38 113.727 237.444 114.048 237.573 114.241C237.701 114.499 237.958 114.627 238.215 114.756C238.793 114.949 239.371 115.078 239.948 115.142C240.526 115.142 241.04 115.335 241.554 115.464C242.003 115.657 242.324 115.914 242.581 116.3C242.838 116.751 242.966 117.266 242.966 117.78C242.966 118.746 242.581 119.711 241.811 120.29C240.912 120.998 239.82 121.384 238.664 121.319C238.151 121.319 237.573 121.319 237.059 121.126C236.545 120.998 236.032 120.805 235.582 120.547C235.646 120.226 235.71 119.968 235.775 119.646C235.775 119.26 235.775 118.746 235.775 118.102" fill="white"/>
<path d="M1.33503 0.798462H0.0507812V121.191H1.33503V0.798462Z" fill="white"/>
</svg>
