<svg width="326" height="98" viewBox="0 0 326 98" fill="none" xmlns="http://www.w3.org/2000/svg">
<path d="M27.5976 37.4884L23.3301 26.5454H9.55009L5.30643 37.4884H1.27734L14.8666 2.96692H18.2281L31.7458 37.4884H27.5976ZM22.0665 22.9455L18.0851 12.2887C17.6083 10.9536 17.0361 9.28472 16.4878 7.32978C16.0825 8.99863 15.6056 10.6675 15.0096 12.2887L10.9567 22.9455H22.0665Z" fill="white"/>
<path d="M51.1031 37.4914V20.8028C51.2462 19.0863 50.7455 17.3698 49.6727 16.0347C48.4568 14.9142 46.8118 14.342 45.1668 14.485C42.9734 14.2943 40.8039 15.1049 39.2542 16.6784C37.8238 18.7764 37.1563 21.3035 37.3708 23.8306V37.3722H33.4609V11.7195H36.6794L37.2755 15.2003H37.4662C38.2768 13.9129 39.445 12.8639 40.8277 12.244C42.3297 11.5288 43.9509 11.1712 45.5959 11.195C48.123 11.0043 50.6501 11.8149 52.6051 13.436C54.3455 15.391 55.2037 17.9896 54.9892 20.5883V37.4199L51.1031 37.4914Z" fill="white"/>
<path d="M78.2629 37.4914V20.8028C78.4298 19.0863 77.9053 17.3698 76.8086 16.0347C75.6166 14.9619 74.0431 14.4374 72.4458 14.5566C70.2524 14.3658 68.0829 15.1764 66.5333 16.7499C65.1028 18.8479 64.4353 21.375 64.6498 23.9021V37.4437H60.5254V11.7195H63.6962L64.4353 15.2003H64.626C65.4366 13.9129 66.6048 12.8639 67.9875 12.244C69.4657 11.5288 71.1107 11.1712 72.7557 11.195C75.2828 11.0043 77.8099 11.8149 79.7649 13.436C81.5053 15.391 82.3635 17.9896 82.149 20.5883V37.4199L78.2629 37.4914Z" fill="white"/>
<path d="M117.862 28.3337C118.005 31.1231 116.766 33.7933 114.548 35.486C111.95 37.2979 108.803 38.18 105.632 38.0131C102.366 38.18 99.1235 37.6555 96.0957 36.4396V32.5059C97.5977 33.1257 99.1473 33.6026 100.721 33.9363C102.342 34.2701 103.987 34.437 105.656 34.437C107.778 34.58 109.876 34.0555 111.664 32.935C112.999 31.9575 113.762 30.3602 113.69 28.7152C113.738 27.69 113.476 26.6649 112.975 25.7828C112.355 24.9007 111.545 24.1855 110.591 23.6848C108.946 22.8027 107.253 22.0875 105.489 21.4914C102.914 20.7047 100.578 19.3219 98.6705 17.4147C97.2401 15.6981 96.5248 13.5048 96.6202 11.2876C96.5248 8.83199 97.6454 6.47176 99.6003 4.96979C101.889 3.30093 104.678 2.44266 107.515 2.58571C110.782 2.53803 114.048 3.18173 117.052 4.46913L115.741 8.04525C113.142 6.90089 110.329 6.30487 107.468 6.25719C105.704 6.16182 103.963 6.63864 102.509 7.61611C101.317 8.49822 100.649 9.92867 100.721 11.4068C100.673 12.4319 100.912 13.4333 101.365 14.3392C101.913 15.1975 102.676 15.9127 103.582 16.4134C105.108 17.2716 106.705 17.963 108.35 18.5352C111.115 19.2981 113.666 20.7047 115.812 22.5881C117.219 24.1616 117.958 26.2358 117.862 28.3337Z" fill="white"/>
<path d="M139.507 37.4891V20.8006C139.65 19.0841 139.149 17.3675 138.077 16.0324C136.861 14.9119 135.24 14.3397 133.594 14.4828C131.377 14.2921 129.208 15.1027 127.658 16.7C126.228 18.798 125.56 21.3251 125.775 23.8522V37.3461H121.889V0.893555H125.775V11.9557C125.775 13.0285 125.727 14.1252 125.608 15.198H125.822C126.633 13.9345 127.777 12.9331 129.112 12.2656C130.591 11.5504 132.236 11.1689 133.881 11.1928C136.455 10.9782 139.03 11.7888 141.033 13.4338C142.773 15.3887 143.631 17.9874 143.417 20.586V37.4176L139.507 37.4891Z" fill="white"/>
<path d="M148.733 4.73056C148.662 4.01534 148.9 3.30012 149.377 2.75178C149.854 2.32264 150.474 2.10808 151.117 2.13192C151.713 2.13192 152.309 2.34649 152.738 2.77562C153.239 3.30012 153.478 4.01534 153.43 4.73056C153.478 5.44579 153.239 6.16101 152.738 6.68551C152.309 7.11464 151.713 7.35305 151.117 7.32921C150.497 7.32921 149.925 7.11464 149.472 6.68551C148.972 6.16101 148.709 5.44579 148.733 4.73056ZM152.953 37.4878H149.019V11.7159H152.929V37.4878H152.953Z" fill="white"/>
<path d="M170.785 37.9421C169.211 37.9421 167.638 37.6322 166.184 37.0124C164.801 36.4163 163.609 35.4627 162.703 34.2707H162.417C162.607 35.7011 162.703 37.1316 162.703 38.562V49.0519H158.793V11.7173H161.964L162.512 15.198H162.703C163.585 13.8868 164.801 12.814 166.207 12.1226C167.638 11.4789 169.211 11.169 170.785 11.1928C173.836 11.0259 176.769 12.3372 178.7 14.6974C180.726 17.5583 181.704 21.0152 181.489 24.5198C181.704 28.0482 180.703 31.529 178.652 34.3899C176.745 36.7501 173.813 38.0852 170.785 37.9421ZM170.189 14.5543C168.043 14.3636 165.921 15.1742 164.467 16.7477C163.108 18.798 162.488 21.2536 162.655 23.7092V24.5675C162.417 27.2853 163.06 30.0032 164.467 32.3396C165.921 34.0084 168.067 34.9144 170.284 34.7236C172.406 34.7713 174.409 33.6985 175.553 31.8866C176.888 29.6694 177.508 27.0946 177.341 24.5198C177.508 21.9211 176.864 19.3225 175.458 17.1292C174.242 15.4365 172.263 14.4828 170.189 14.5543Z" fill="white"/>
<path d="M197.894 37.9423C196.321 37.9423 194.747 37.6562 193.293 37.0125C191.91 36.4165 190.718 35.4629 189.812 34.2708H189.526C189.717 35.7013 189.812 37.1317 189.812 38.5622V49.0521H185.902V11.7175H189.073L189.622 15.1982H189.812C190.694 13.9108 191.91 12.8618 193.317 12.1704C194.747 11.5267 196.321 11.2168 197.894 11.2407C200.946 11.0738 203.878 12.385 205.809 14.7452C207.836 17.6061 208.813 21.063 208.599 24.5676C208.813 28.0961 207.812 31.5768 205.762 34.4377C203.854 36.798 200.922 38.0854 197.894 37.9423ZM197.322 14.5545C195.2 14.3638 193.102 15.1744 191.648 16.7479C190.289 18.7982 189.645 21.2538 189.836 23.7094V24.5676C189.598 27.2855 190.241 30.0033 191.648 32.3397C193.078 34.0086 195.248 34.9145 197.441 34.7238C199.563 34.7477 201.542 33.6748 202.662 31.8868C204.045 29.6457 204.689 27.0471 204.546 24.4246C204.713 21.826 204.069 19.2273 202.662 17.034C201.399 15.3651 199.396 14.4353 197.322 14.5545Z" fill="white"/>
<path d="M208.908 11.7168H213.104L218.731 26.4027C219.684 28.7629 220.471 31.1947 221.115 33.6741H221.305C221.496 32.8636 221.925 31.5046 222.593 29.5735C223.26 27.6424 225.358 21.6822 228.958 11.7168H233.154L222.068 41.0409C221.329 43.4012 220.018 45.523 218.23 47.2157C216.704 48.4554 214.797 49.0991 212.842 49.0514C211.626 49.0514 210.41 48.8607 209.242 48.5746V45.523C210.196 45.7137 211.149 45.8091 212.127 45.8091C214.845 45.8091 217.229 43.9257 217.872 41.2794L219.303 37.6079L208.908 11.7168Z" fill="white"/>
<path d="M260.788 37.488L249.106 6.99567H248.867C249.082 9.37974 249.201 12.2883 249.201 15.6022V37.488H245.506V3.10962H251.514L262.409 31.4563H262.6L273.614 3.10962H279.598V37.488H275.593V15.3399C275.593 12.789 275.712 10.0234 275.927 7.04335H275.736L263.982 37.488H260.788Z" fill="white"/>
<path d="M314.044 19.9669C314.378 24.7589 312.709 29.4794 309.419 32.984C305.771 36.2025 300.98 37.8236 296.14 37.4899H286.604V3.11147H297.141C301.719 2.82538 306.224 4.44655 309.61 7.54585C312.733 10.9074 314.33 15.3895 314.044 19.9669ZM309.824 20.1099C310.087 16.4146 308.871 12.767 306.439 9.97761C303.697 7.52201 300.074 6.28229 296.402 6.56838H290.609V34.0329H295.377C299.287 34.319 303.149 33.0555 306.129 30.5045C308.728 27.6913 310.063 23.9245 309.824 20.1099Z" fill="white"/>
<path d="M15.439 97.2577H0.919922V71.2236H15.439V73.8938H3.9477V82.2857H14.7476V84.9559H3.9477V94.4922H15.439V97.2577Z" fill="white"/>
<path d="M39.0614 71.2236H42.3276L32.8628 97.2577H29.8827L20.5371 71.2236H23.7556L29.7396 88.0552C30.4072 89.891 30.9555 91.7982 31.3608 93.7055C31.79 91.7505 32.3621 89.8433 33.0535 87.9599L39.0614 71.2236Z" fill="white"/>
<path d="M63.2593 97.2577H48.7402V71.2236H63.2593V73.8938H51.768V82.2857H62.5679V84.9559H51.768V94.4922H63.2593V97.2577Z" fill="white"/>
<path d="M73.6567 86.4353V97.259H70.6289V71.2249H77.7811C80.3083 71.0103 82.8354 71.654 84.9334 73.0606C86.5545 74.4195 87.4367 76.446 87.3174 78.5678C87.4367 81.8817 85.1956 84.8141 81.9771 85.5532L89.1293 97.259H85.5532L79.2354 86.4353H73.6567ZM73.6567 83.8128H77.805C79.4977 83.9797 81.1904 83.5267 82.5731 82.5492C83.6221 81.5718 84.1705 80.1652 84.0751 78.7347C84.1943 77.3281 83.6221 75.9453 82.5493 75.0156C81.0712 74.1334 79.3785 73.7282 77.6619 73.8712H73.6567V83.8128Z" fill="white"/>
<path d="M101.721 84.3361L108.659 71.319H111.925L103.247 87.2446V97.3531H100.172V87.2923L91.5176 71.2236H94.8314L101.721 84.3361Z" fill="white"/>
<path d="M130.83 97.2577V71.2236H133.858V94.5161H145.325V97.2577H130.83Z" fill="white"/>
<path d="M151.883 97.2577V71.2236H154.911V97.2577H151.883Z" fill="white"/>
<path d="M166.969 97.2577H163.941V71.2236H178.46V73.8938H166.969V83.4301H177.745V86.1241H166.969V97.2577Z" fill="white"/>
<path d="M199.466 97.2577H184.971V71.2236H199.466V73.8938H187.975V82.2857H198.798V84.9559H187.975V94.4922H199.466V97.2577Z" fill="white"/>
<path d="M243.265 97.2577H240.285L235.016 79.8063C234.778 79.0434 234.491 78.0659 234.182 76.8977C233.991 76.2064 233.824 75.4911 233.705 74.7759C233.395 76.5163 232.99 78.2328 232.465 79.9255L227.411 97.2577H224.383L217.445 71.2236H220.664L224.764 87.2923C225.289 89.3188 225.718 91.3452 226.028 93.4194C226.338 91.2737 226.791 89.128 227.411 87.0539L232.179 71.2236H235.374L240.285 87.1969C240.905 89.2473 241.381 91.3214 241.715 93.4194C242.025 91.3452 242.454 89.2949 243.003 87.2685L247.103 71.2236H250.298L243.265 97.2577Z" fill="white"/>
<path d="M271.156 97.2577H256.637V71.2236H271.156V73.8938H259.664V82.2857H270.464V84.9559H259.664V94.4922H271.156V97.2577Z" fill="white"/>
<path d="M278.498 97.2577V71.2236H281.526V94.5161H293.017V97.2577H278.498Z" fill="white"/>
<path d="M299.572 97.2577V71.2236H302.6V94.5161H314.091V97.2577H299.572Z" fill="white"/>
<path d="M319.527 94.4205C319.527 93.9199 319.67 93.443 319.909 93.0139C320.147 92.5848 320.505 92.2272 320.934 91.9888C321.363 91.7265 321.84 91.6073 322.341 91.6073C322.841 91.6073 323.318 91.7265 323.747 91.9649C324.176 92.2033 324.534 92.5609 324.772 92.9901C325.035 93.4192 325.154 93.9199 325.154 94.4205C325.154 94.8973 325.035 95.3741 324.796 95.8033C324.558 96.2324 324.2 96.59 323.771 96.8284C323.342 97.0907 322.841 97.2099 322.341 97.2099C321.84 97.2099 321.339 97.0907 320.91 96.8284C320.481 96.59 320.147 96.2324 319.909 95.8033C319.67 95.3741 319.527 94.8973 319.527 94.4205ZM319.933 94.4205C319.933 94.8496 320.028 95.2549 320.243 95.6126C320.457 95.994 320.767 96.2801 321.149 96.4947C321.506 96.7092 321.911 96.8284 322.341 96.8284C322.77 96.8284 323.199 96.7092 323.556 96.4947C323.914 96.2801 324.224 95.9702 324.439 95.6126C324.653 95.2549 324.772 94.8496 324.772 94.4205C324.772 93.9914 324.653 93.5622 324.439 93.2046C324.224 92.8232 323.938 92.5371 323.556 92.3225C322.817 91.8934 321.911 91.8934 321.172 92.3225C320.791 92.5371 320.505 92.8232 320.29 93.2046C320.052 93.5622 319.933 93.9914 319.933 94.4205ZM323.485 93.7291C323.485 93.9199 323.437 94.1106 323.318 94.2536C323.223 94.4205 323.056 94.5397 322.889 94.6112L323.771 96.0655H323.151L322.364 94.7543H321.864V96.0655H321.315V92.7517H322.293C322.603 92.7278 322.937 92.7993 323.199 92.9901C323.39 93.1808 323.509 93.443 323.485 93.7291ZM321.864 94.3013H322.269C322.436 94.3013 322.627 94.2536 322.746 94.1344C322.96 93.9437 322.984 93.6099 322.794 93.3954L322.746 93.3477C322.603 93.2523 322.412 93.2046 322.245 93.2285H321.84V94.3013H321.864Z" fill="white"/>
<path d="M25.8574 55.9421H0.919922V58.4693H25.8574V55.9421Z" fill="white"/>
<path d="M72.5634 55.9421H25.8594V58.4693H72.5634V55.9421Z" fill="white"/>
<path d="M158.962 55.9421H83.959V58.4693H158.962V55.9421Z" fill="white"/>
<path d="M233.987 55.9421H158.984V58.4693H233.987V55.9421Z" fill="white"/>
<path d="M250.25 55.9421H233.99V58.4693H250.25V55.9421Z" fill="white"/>
<path d="M314.068 55.9421H250.246V58.4693H314.068V55.9421Z" fill="white"/>
<path d="M83.9842 55.9421H72.5645V58.4693H83.9842V55.9421Z" fill="white"/>
</svg>
