<svg width="176" height="126" viewBox="0 0 176 126" fill="none" xmlns="http://www.w3.org/2000/svg">
<path d="M134.336 55.9184C133.827 53.1702 133.007 50.4897 131.892 47.9265H130.396L130.181 48.783C131.473 52.006 132.318 55.3897 132.693 58.8421L134.336 55.9184ZM76.0193 95.2983C75.2045 94.1774 74.9995 90.1001 74.8981 87.5517C74.7956 85.6156 74.6941 77.7665 74.6941 66.9619V54.1187C74.6941 46.0666 74.6941 37.1981 74.7956 33.733C74.7956 32.9653 74.9393 32.4842 75.325 32.1268C73.9618 32.2177 73.2306 32.388 72.3947 32.8649C72.3578 33.1028 72.3356 33.3428 72.3271 33.5839C72.2246 37.0723 72.2246 45.9968 72.2246 54.1018V67.0275C72.2246 77.9018 72.3271 85.8006 72.4296 87.7494C72.5321 90.3147 72.7371 94.4174 73.5582 95.5457C73.6956 95.7445 73.8477 95.9327 74.0147 96.1082C75.2901 96.7744 76.7621 97.5653 78.2542 97.9026C77.1943 97.3041 76.4536 95.9369 76.0172 95.2993M121.787 92.365C117.95 96.2848 110.179 101.831 97.2074 103.769C111.485 102.191 119.894 96.2605 123.927 92.1387C128.391 87.5961 132.666 80.6236 134.32 71.6589L132.224 71.7996C130.552 80.7949 126.269 87.8034 121.785 92.365M123.017 37.6856C124.493 39.2273 125.822 40.9022 126.989 42.6903C127.686 42.6956 128.416 42.7368 129.116 42.796C127.951 41.0143 126.624 39.3447 125.15 37.8093C117.329 29.6303 106.578 27.2078 96.455 26.4908C105.944 27.4192 115.74 30.0776 123.017 37.6856Z" fill="white"/>
<path d="M129.473 72.5589C129.22 72.4574 129.251 69.4829 129.251 69.4829L128.83 66.961C128.83 66.961 128.947 64.842 129.149 64.3376C129.335 63.8734 130.684 62.2175 130.9 61.9531C130.683 56.5667 129.506 51.9459 127.8 48.0451H126.309C126.309 48.0451 126.245 49.757 126.044 49.959C125.842 50.161 124.208 50.567 124.208 50.567L121.267 51.4077C121.267 51.4077 119.251 51.1222 118.847 50.769C118.444 50.4158 117.067 48.8678 117.067 48.4649C117.067 48.062 118.541 46.938 120.109 45.7622C121.889 44.4267 123.437 43.5723 123.789 43.4211C124.01 43.3259 124.784 43.3502 125.327 43.382C124.099 41.4384 122.679 39.6239 121.087 37.9659C110.013 26.3895 93.0488 26.3895 80.3503 26.3895C74.2552 26.3895 67.8558 26.694 64.7068 26.694C61.8621 26.694 55.4626 26.3895 50.0787 26.3895C48.5549 26.3895 47.8438 26.5925 47.8438 27.3031C47.8438 28.0136 48.4535 28.2177 49.5704 28.2177C50.9928 28.2177 52.7194 28.3192 53.532 28.5222C56.8839 29.2328 57.6965 30.8581 57.9005 34.3105C58.0526 36.7436 58.0907 38.9514 58.1002 46.3924C58.5493 46.5394 58.9942 46.7033 59.1865 46.8312C59.6398 47.1336 59.7106 48.264 59.6092 48.466C59.5077 48.6679 58.7828 49.3542 58.7828 49.3542C58.7828 49.3542 59.7413 50.2117 59.8924 50.5649C60.0435 50.9181 60.7494 52.9356 60.6986 53.1883C60.6479 53.441 59.0851 53.6927 59.0851 53.6927L58.1023 55.3909V55.8879L58.6676 56.4536C58.6676 56.4536 59.5891 56.8713 59.8913 57.2244C60.1935 57.5776 61.0009 59.2927 61.0009 59.6459C61.0009 59.9991 59.5077 61.0766 59.5077 61.0766L59.9283 61.9161C59.9283 61.9161 60.7684 62.9249 60.7684 63.1776C60.7684 63.4303 59.2869 66.556 58.9847 66.4048C58.8452 66.335 58.4679 66.1563 58.1034 65.9861V73.7104C58.1034 83.0526 58.1034 91.0751 57.5951 95.3396C57.1882 98.2845 56.681 100.519 54.649 100.925C53.4485 101.196 52.2217 101.332 50.9917 101.331C49.7722 101.331 49.3665 101.635 49.3665 102.143C49.3665 102.854 50.0776 103.158 51.3985 103.158C53.4306 103.158 56.0713 102.955 58.4077 102.955C60.8455 102.854 63.0805 102.854 64.1985 102.854C66.7378 102.854 70.2936 103.158 74.1538 103.463C78.0139 103.767 82.1784 104.072 85.8357 104.072C104.629 104.072 115.194 96.8623 119.867 92.0892C124.196 87.684 128.348 80.9811 130.084 72.3897C129.789 72.5113 129.549 72.5885 129.473 72.5579M108.793 91.9877C102.699 97.2683 95.7899 99.2996 85.4289 99.2996C77.4032 99.2996 73.4415 97.1668 72.1206 95.2381C71.308 94.1204 71.1051 90.059 71.0037 87.5201C70.9023 85.5914 70.8008 77.7719 70.8008 67.0075V54.2119C70.8008 46.1894 70.8008 37.3558 70.9023 33.9023C70.9023 32.7846 71.2076 32.2771 72.1217 31.871C72.9343 31.465 76.693 31.1605 78.7251 31.1605C86.6483 31.1605 98.2299 32.3797 107.575 41.3158C111.944 45.4788 117.328 53.8058 117.328 66.7019C117.328 77.1618 115.296 86.4014 108.794 91.9866" fill="white"/>
<path d="M85.3789 113.368C85.3789 113.408 85.381 113.448 85.3789 113.368V113.368ZM92.07 116.06C90.8294 115.54 88.2838 115.392 88.0101 117.218C87.9541 117.593 88.2701 118.096 88.6378 118.182C88.7308 118.203 88.9591 118.362 88.7424 118.437C88.5554 118.502 88.2447 118.35 88.0905 118.263C87.2916 117.813 86.9217 116.925 86.6523 116.085C86.48 115.55 86.4853 114.966 86.3648 114.415C86.2993 114.114 85.772 114.096 85.7752 113.945C85.7815 113.678 85.9242 112.855 85.7308 112.687C85.3324 112.339 85.3768 113.246 85.3789 113.368C85.3832 113.576 85.5068 113.959 85.1581 114.044C84.8569 114.117 84.7988 114.401 84.7512 114.618C84.6075 115.269 84.5896 115.766 84.3994 116.413C84.2556 116.956 83.9767 117.455 83.5889 117.862C83.4705 117.981 82.492 118.784 82.3367 118.345C82.2701 118.155 82.6452 118.099 82.735 118.057C82.976 117.944 83.1545 117.573 83.1144 117.31C83.0277 116.746 82.6928 116.175 82.1528 115.932C81.1426 115.48 79.4117 115.294 78.6329 116.296C78.2451 116.795 78.038 117.045 78.113 117.754C78.169 118.28 78.6815 118.635 79.156 118.311C79.7688 117.891 78.7956 117.805 78.6318 117.451C78.3898 116.923 78.9045 116.437 79.3366 116.264C79.8407 116.064 80.35 116.222 80.8414 116.401C81.4849 116.635 81.597 117.041 81.8115 117.621C81.8802 117.807 81.7269 118.071 81.6107 118.202C81.3317 118.515 81.1341 118.333 80.7865 118.368C80.2201 118.424 81.3053 118.962 81.5135 118.977C82.3874 119.04 83.3342 118.703 83.9143 118.018C84.5653 117.277 84.9816 116.36 85.1116 115.382C85.1824 114.858 85.5469 115.001 85.92 115.038C86.0394 115.05 86.1482 116.072 86.1989 116.229C86.5117 117.205 87.0644 118.016 87.914 118.598C88.5691 119.048 89.9524 119.772 90.4533 118.706C90.728 118.122 90.3222 118.299 90.0211 118.338C89.6396 118.387 89.3511 117.866 89.3036 117.555C89.238 117.127 89.6322 116.684 89.982 116.508C90.1806 116.407 90.6635 116.144 91.1422 116.177C91.6727 116.212 93.4184 116.921 92.5128 117.756C92.33 117.926 91.585 118.058 92.1863 118.454C92.5519 118.694 92.9703 118.406 93.15 118.058C93.561 117.262 92.7474 116.346 92.0669 116.06M85.7213 120.216C85.7414 119.996 85.4909 119.972 85.436 120.179C85.3345 120.561 85.3599 120.941 85.176 121.319C84.9827 121.675 84.7597 122.014 84.5082 122.331C84.0771 122.913 83.6797 123.563 84.0284 124.305C84.3127 124.908 84.4575 124.385 84.6361 124.189C84.9119 123.884 85.2891 124.322 85.1137 124.615C84.8643 125.032 84.9245 125.277 85.2246 125.647C85.4846 125.966 85.5469 126.172 85.8312 125.803C86.0404 125.531 86.4969 125.239 86.2655 124.838C86.1651 124.663 85.9094 124.051 86.4377 124.198C86.7083 124.274 86.647 124.697 86.8182 124.709C87.0496 124.724 87.2525 123.731 87.2525 123.731C87.2546 122.99 86.2919 122.132 86.0098 121.469C85.8502 121.094 85.6843 120.631 85.7213 120.215M82.1274 107.418C82.0957 107.463 82.0207 107.935 82.2278 107.729C82.8132 107.145 83.1725 108.172 83.5233 108.4C83.6713 108.508 83.852 108.564 84.0358 108.557C84.2451 108.485 84.2335 108.396 84.3782 108.367C84.541 108.369 84.8115 108.851 84.8918 108.959C85.2437 109.423 85.3884 110.198 85.4064 110.769C85.4191 110.93 85.5596 111.05 85.7202 111.038C85.7868 111.032 85.8492 111.005 85.8978 110.959C86.0161 110.837 86.0172 110.406 86.0425 110.245C86.1112 109.795 86.1693 109.207 86.4409 108.833C86.7516 108.406 86.7917 108.404 87.1922 108.636C87.4258 108.771 87.6783 108.658 87.8094 108.441C88.0904 107.971 88.5079 107.433 89.1081 107.88C89.3247 108.042 89.4039 107.682 89.2391 107.546C89.014 107.338 88.7382 107.193 88.4392 107.124C87.7893 107.013 87.2324 107.488 86.8161 107.913C86.592 108.142 86.3353 108.429 86.2232 108.736C86.1081 109.053 85.7826 108.849 85.9432 108.655C86.3004 108.226 86.331 107.569 86.1186 107.078C85.7308 106.18 85.4476 106.473 85.1929 107.172C85.0577 107.481 85.0439 107.829 85.1549 108.148C85.2162 108.331 85.5026 108.652 85.4592 108.843C85.3789 109.195 84.5621 107.882 84.4543 107.765C84.0728 107.348 83.7442 107.046 83.1704 107.053H83.1588C82.8175 107.1 82.3557 107.099 82.1253 107.418M89.945 122.411C89.6153 122.686 89.6935 122.799 89.1831 122.615C88.7932 122.475 88.7393 122.181 88.492 121.903C88.2764 121.66 87.6403 121.705 88.0186 121.261C88.2891 120.944 88.6907 121.438 88.8386 121.144C89.1989 120.432 88.1211 119.804 87.6361 119.589C87.3 119.441 86.8065 119.818 86.7928 120.159C86.7844 120.387 87.2081 120.735 87.0961 120.884C86.7896 121.289 86.3617 120.337 86.2549 120.219C86.0457 119.99 86.0457 120.338 86.1133 120.474C86.703 121.658 87.7438 123.236 89.2866 123.131C89.6607 123.121 89.7442 122.995 90.0073 122.731C90.1331 122.605 90.1912 122.204 89.9439 122.411M84.8685 120.249C84.766 120.37 84.3793 121.341 84.0559 120.949C83.9386 120.806 84.3476 120.439 84.3296 120.212C84.3021 119.873 83.7939 119.516 83.4642 119.678C82.9886 119.911 81.9383 120.584 82.3282 121.282C82.4878 121.568 82.8692 121.058 83.1524 121.363C83.5487 121.792 82.9104 121.774 82.7054 122.024C82.4698 122.313 82.4286 122.609 82.045 122.765C81.542 122.971 81.616 122.854 81.2757 122.593C81.02 122.397 81.095 122.794 81.226 122.915C81.5008 123.168 81.5885 123.291 81.9636 123.286C83.5085 123.327 84.4828 121.707 85.0228 120.498C85.0852 120.359 85.0714 120.011 84.8706 120.249M102.746 107.58C102.301 105.867 100.089 104.994 98.5086 105.488C98.0521 105.621 97.6167 105.817 97.2152 106.071C96.859 106.295 96.5621 106.713 96.168 106.856C95.6512 107.044 96.0264 106.315 95.9947 106.196C95.8816 105.762 95.1408 106.128 94.957 106.289C94.4529 106.729 94.5227 107.186 94.6928 107.764C94.7277 107.881 94.7097 108.831 94.9115 108.752C95.0098 108.714 95.3427 108.311 95.3501 108.563C95.3701 109.198 95.3701 109.248 94.772 109.269C94.1401 109.29 94.2035 108.994 94.0662 108.441C93.9605 108.014 93.7914 107.461 93.4797 107.134C92.889 106.513 92.3363 105.929 91.4328 105.784C90.5494 105.641 89.6523 105.398 88.9242 106.065C88.6315 106.333 88.7541 106.652 89.0943 106.367C89.3078 106.188 90.5684 106.019 90.8284 106.092C91.0418 106.146 91.25 106.216 91.454 106.298C91.8619 106.492 92.2296 106.762 92.536 107.093C93.1436 107.768 93.3856 108.714 93.411 109.597C93.4089 109.569 93.4057 109.779 93.411 109.7C93.3856 110.351 93.3053 110.876 92.9799 111.46C91.9897 113.239 90.3402 114.151 88.4867 113.036C87.802 112.625 87.504 111.458 87.821 110.769C87.9858 110.412 88.3927 110.031 88.8143 110.031C88.9527 110.031 89.6967 110.357 89.3078 110.46C89.0563 110.528 88.92 110.318 88.6664 110.52C88.5131 110.637 88.3948 110.793 88.324 110.973C88.2215 111.352 88.3472 111.756 88.6463 112.01C89.3722 112.638 90.2409 112.315 90.7682 111.62C92.0626 109.917 89.6079 107.672 87.9647 108.833C87.1468 109.41 86.4747 109.966 86.3035 111.041C86.1757 111.847 86.2824 112.701 86.7072 113.398C87.6561 114.958 90.1267 115.485 91.6917 114.626C92.6829 114.081 94.0778 111.872 94.1528 111.012C94.1982 110.486 93.9869 110.157 94.6864 110.141C94.9126 110.136 95.3606 110.021 95.4589 110.309C95.5149 110.511 95.5952 110.707 95.6977 110.89C95.9439 111.276 96.1574 111.513 96.6086 111.668C96.8495 111.75 97.6442 111.711 97.5565 111.284C97.5005 111.01 96.9193 111.021 96.7206 110.83C95.0309 109.214 97.0556 106.978 98.5276 106.213C99.4142 105.751 100.917 106.032 101.625 106.684C102.001 107.033 102.374 107.449 102.471 107.953C102.646 108.864 101.969 109.86 101.873 109.958C101.231 110.622 100.026 110.783 99.4797 109.859C99.2208 109.457 99.2208 108.941 99.4797 108.539C99.6371 108.29 100.138 107.982 100.425 108.221C100.632 108.392 100.09 108.681 100.095 108.923C100.102 109.377 100.599 109.521 100.956 109.354C101.814 108.954 101.062 107.388 100.189 107.604C100.189 107.604 98.6322 107.803 98.7495 109.19C98.8171 109.998 99.4512 110.605 100.15 110.878C100.947 111.19 101.807 110.901 102.303 110.196C102.408 110.048 103.083 108.872 102.747 107.58M85.8238 118.237C85.7741 117.681 85.7213 116.732 85.7224 116.151C85.7224 116.137 85.7224 116.129 85.7224 116.127C85.697 115.214 85.3726 115.442 85.3884 116.183C85.4001 116.736 85.3081 117.647 85.3176 118.2C85.3219 118.41 85.3155 118.625 85.5142 118.637C85.7128 118.65 85.8407 118.431 85.8238 118.237ZM85.0841 118.776C85.0471 118.711 84.8854 118.262 84.7449 118.544C84.5061 119.022 85.1147 119.453 85.492 119.51C85.8967 119.571 86.5498 119.278 86.498 118.745C86.4325 118.075 86.0499 118.968 85.66 119.021C85.4339 119.051 85.2056 118.99 85.0841 118.777M85.3483 111.893C85.3588 112.32 85.9781 112.25 85.9707 111.837C85.9622 111.429 85.3409 111.542 85.3483 111.893ZM79.4962 114.627C81.0612 115.486 83.5307 114.958 84.4807 113.399C84.9045 112.703 85.0122 111.848 84.8844 111.042C84.7132 109.967 84.0411 109.411 83.2232 108.834C81.58 107.674 79.1253 109.919 80.4187 111.621C80.9471 112.316 81.8157 112.639 82.5406 112.011C82.8386 111.756 82.9643 111.353 82.8618 110.974C82.791 110.795 82.6737 110.638 82.5205 110.521C82.2669 110.319 82.1295 110.528 81.8791 110.461C81.4892 110.357 82.2342 110.032 82.3715 110.032C82.7932 110.032 83.2 110.413 83.3648 110.77C83.6818 111.459 83.3828 112.626 82.6991 113.037C80.8446 114.152 79.1951 113.24 78.206 111.461C77.8816 110.877 77.8002 110.353 77.7759 109.701C77.7759 109.688 77.7738 109.668 77.7738 109.637C77.7738 109.658 77.7759 109.679 77.7759 109.701C77.7801 109.78 77.7769 109.569 77.7748 109.598C77.8002 108.715 78.0422 107.769 78.6498 107.094C78.9562 106.762 79.324 106.492 79.7319 106.3C79.9358 106.216 80.144 106.147 80.3574 106.093C80.6163 106.02 81.877 106.188 82.0915 106.368C82.4318 106.653 82.5543 106.334 82.2616 106.066C81.5346 105.399 80.6375 105.642 79.753 105.785C78.8495 105.93 78.2958 106.514 77.7061 107.135C77.3955 107.463 77.2253 108.016 77.1197 108.442C76.9823 108.995 77.0457 109.291 76.4138 109.27C75.8157 109.25 75.8167 109.199 75.8358 108.564C75.8432 108.312 76.176 108.715 76.2743 108.753C76.4751 108.832 76.4582 107.884 76.493 107.765C76.6632 107.187 76.7329 106.73 76.2289 106.29C76.045 106.129 75.3042 105.763 75.1912 106.197C75.1595 106.316 75.5357 107.045 75.0189 106.857C74.6248 106.714 74.3278 106.296 73.9717 106.072C73.5702 105.817 73.1348 105.622 72.6794 105.49C71.0985 104.995 68.8657 105.863 68.4419 107.581C68.3384 107.967 68.3035 108.369 68.3405 108.766C68.4081 109.356 68.7812 110.048 68.8868 110.196C69.3835 110.901 70.2426 111.19 71.0404 110.878C71.7378 110.604 72.3719 109.998 72.4405 109.19C72.5578 107.803 71.0003 107.604 71.0003 107.604C70.1285 107.388 69.3761 108.954 70.2331 109.354C70.5902 109.521 71.088 109.377 71.0943 108.923C71.0985 108.681 70.5575 108.392 70.7635 108.221C71.0499 107.982 71.5519 108.29 71.7093 108.539C71.9693 108.941 71.9693 109.457 71.7093 109.859C71.163 110.783 69.9583 110.622 69.3159 109.958C69.2207 109.86 68.6913 109.239 68.666 108.658C68.6184 107.546 69.2176 107.006 69.5642 106.684C70.2711 106.032 71.7738 105.752 72.6614 106.213C74.1334 106.978 76.157 109.214 74.4684 110.83C74.2687 111.021 73.6875 111.01 73.6325 111.284C73.5459 111.712 74.3395 111.751 74.5804 111.668C75.0316 111.513 75.244 111.276 75.4913 110.89C75.5938 110.707 75.6741 110.512 75.7301 110.309C75.8284 110.021 76.2764 110.136 76.5025 110.141C77.2021 110.157 76.9897 110.486 77.0362 111.012C77.1112 111.873 78.5061 114.081 79.4973 114.626" fill="white"/>
<path d="M95.7882 17.1181C96.3028 16.4953 96.7667 15.8334 97.1777 15.1387L96.0767 16.5334L95.7882 17.1181ZM98.5335 8.04032C98.3602 7.8521 97.797 7.8521 97.6226 8.04032C97.6776 7.50104 97.3479 7.35301 97.1017 7.1172C96.6103 7.05905 96.4909 7.37733 96.1908 7.51267C95.9393 6.23004 94.6448 7.56554 94.1091 6.72174C93.3672 7.48518 92.3887 6.41615 91.7663 7.24938C91.6311 6.72914 90.7751 7.02521 90.7244 7.3805C90.7635 7.03261 90.4528 7.04107 90.2035 6.98503C89.9076 7.12566 89.73 7.38473 89.6825 7.77597C89.9129 7.8944 90.0629 8.09425 90.3334 8.17144C90.5078 7.78443 91.4609 7.35406 90.9833 7.1172C91.1788 7.13941 91.4641 7.07068 91.5043 7.24938C91.5645 7.5444 90.754 7.46932 90.9833 8.30361C91.518 8.62401 91.704 8.15875 92.0252 7.90814C91.8614 8.3089 91.9259 8.42098 92.1552 8.69908C92.673 8.51827 93.5966 8.14394 93.587 9.09455C93.0587 9.26585 92.934 8.82174 93.1971 8.56691C92.3761 8.60392 92.7417 9.58201 93.4571 9.48896C93.8163 9.45724 93.754 8.99938 93.978 8.8302C93.9907 9.16963 94.4853 9.01947 94.499 9.35784C93.8734 9.29652 93.6441 9.63488 93.3271 9.88549C94.0171 11.6397 92.431 13.2523 91.8952 14.6311C91.7441 14.5782 91.6099 14.4873 91.5043 14.3678C92.1806 13.0418 93.6156 11.8967 93.0661 9.75437C91.7991 8.04984 87.8956 8.31207 86.6878 6.98609C87.8163 7.21872 88.4863 7.62793 89.6814 7.51373C89.6878 7.11192 89.4067 7.00089 89.2915 6.72279C88.8054 6.58216 88.9195 7.05059 88.5106 6.98609C88.4018 6.01645 87.4919 7.38579 87.3387 6.4595C88.3595 5.20965 87.2721 3.36976 86.0368 3.16463C86.0294 2.9965 85.8709 2.9817 85.9069 2.7681C85.9576 2.61584 86.0474 2.48049 86.1668 2.37263C86.8262 2.10828 87.1221 2.88865 87.4687 2.50481C87.1474 2.1104 87.2003 1.46221 87.3387 0.922931C86.9551 0.895438 86.4764 1.44423 86.1668 1.05511C86.1087 0.469304 86.5198 0.35722 86.6867 -0.000183105H84.475C84.7096 0.333957 85.0129 0.598308 84.996 1.18622C84.4497 1.25601 84.2679 0.95571 83.8241 0.922931C84.0006 1.4897 83.9541 2.10299 83.6941 2.63698C84.2214 2.59997 84.4084 2.21719 85.126 2.37263C85.2623 2.7459 85.2623 2.92142 85.126 3.29575C83.4574 3.24076 83.1837 5.61358 83.6941 6.59168C83.5176 7.27264 82.7262 6.02914 82.6522 6.98714C82.1492 6.72914 81.531 6.60013 81.4803 7.38261C82.519 7.8098 83.3982 7.10663 84.6039 6.98714C82.8413 8.45271 79.1534 7.97053 77.9657 10.0187C77.5049 12.3535 79.7473 13.2787 79.3986 14.6322C78.6515 13.4246 77.2059 11.6217 77.8357 9.8876C77.5197 9.63806 77.2894 9.29863 76.6649 9.35996C76.6765 9.02159 77.1731 9.17174 77.1858 8.83231C77.4289 9.02582 77.339 9.55558 77.8368 9.49108C78.2816 9.54712 78.2277 9.09561 78.4877 8.96343C78.4222 8.7805 78.2795 8.63669 78.0978 8.56796C77.8294 8.72552 78.3746 9.28277 77.5768 9.09561C77.5662 8.145 78.4898 8.51932 79.0076 8.70014C79.3299 8.51509 79.238 8.24651 79.1376 7.9092C79.4313 8.00648 79.4229 8.41147 79.7885 8.43685C79.8995 8.34802 80.0379 8.3015 80.1795 8.30467C80.2154 7.8299 80.2112 7.39319 79.6585 7.51373C79.8128 7.32446 80.3486 7.26418 79.6585 7.25044C80.263 6.82007 80.3718 8.01811 80.8304 8.17249C81.1538 8.10376 81.2943 7.85104 81.4814 7.64485C81.3503 7.38261 81.2573 7.08231 80.9614 6.98609C80.6201 6.94908 80.4014 7.03473 80.4394 7.38156C79.5328 6.52823 78.2806 7.445 77.1858 6.72279C76.6458 6.616 76.6966 7.10663 76.4049 7.25044C76.1302 6.74394 74.9371 6.65829 74.9731 7.51373C74.6983 7.39636 74.5884 7.11192 74.1922 7.11826C73.8117 7.25995 73.5106 7.48201 73.5412 8.04138C72.0291 7.43866 72.6969 9.31766 72.1094 10.0187V12.1272C72.8956 14.6692 73.7283 17.1657 75.233 18.9813C75.4127 19.3979 75.2615 19.4222 75.233 19.9033C75.2689 20.081 75.4116 20.1518 75.5659 20.21L77.3581 19.8388L79.314 19.4529L80.6476 18.6429L81.4475 17.8329L81.9812 17.023L82.7811 18.3733L83.3147 18.9136L84.9157 19.1832L86.5166 18.9136L87.8502 18.6429L88.9174 18.1026L89.1837 17.023L89.4511 17.5633L90.5173 18.644L92.1182 19.4539H94.2528L95.8759 19.6887C95.8273 19.4476 95.7903 19.2795 95.9308 18.9823C97.424 17.1551 98.2725 14.6745 99.0545 12.1282V10.0198C98.6857 9.55875 98.7322 8.67688 98.5335 8.04243M94.238 9.49214C94.5656 9.52386 94.7769 9.88126 94.4979 10.1509C93.9833 10.1054 93.9188 9.75649 94.238 9.49214ZM93.586 11.4695C93.8586 11.4134 93.9315 11.5594 94.108 11.6017C94.0953 11.94 93.5987 11.7899 93.586 12.1293C93.2045 12.0172 93.7561 11.7973 93.586 11.4705M92.3834 14.8627L92.6508 14.5931L92.9171 14.8627V15.403H92.3834V14.8627ZM91.8942 15.8196C91.6332 15.6008 91.2887 15.4654 91.2433 15.0287C91.6913 15.0594 91.8107 15.421 91.8942 15.8196ZM86.8177 13.9734C87.4243 12.308 87.55 9.01313 86.4268 7.38367C87.9791 8.61555 88.0731 12.3165 86.8177 13.9734ZM87.0481 14.8616L86.7818 15.1313L86.2482 15.4009L86.5145 15.1313L86.7808 14.5909L87.0481 14.8606V14.8616ZM84.1633 2.01629L84.0217 1.44106L85.2982 1.58487C85.3722 1.41674 85.4028 1.23275 85.388 1.04982C85.3468 0.787583 85.2697 0.531691 85.1566 0.290603H86.0072L85.7293 1.6462L86.8579 1.29725V2.01629L85.8657 2.00994L85.724 2.59046V3.02188H85.4408L85.4345 1.94544L84.1654 2.01523L84.1633 2.01629ZM84.1633 6.18457L83.8801 5.46554V4.89666L84.5891 3.89001L85.2982 3.60239H86.0072L86.5747 4.03381L86.9995 4.60904L87.2827 5.32173L86.9995 6.04077L86.2905 6.616L85.4398 6.7598H84.7307L84.1633 6.18457ZM85.2549 13.3136C85.2084 13.0852 85.2549 12.8483 85.3848 12.6548H85.7758C85.9058 12.8483 85.9534 13.0852 85.9069 13.3136C85.5064 13.4056 85.6564 13.4056 85.2549 13.3136ZM85.6459 15.1588C85.2337 15.1334 85.3436 14.1849 85.5159 13.9713C85.928 13.9967 85.817 14.9452 85.6459 15.1588ZM85.6459 12.3905C85.0689 12.3852 84.9917 11.5583 85.5159 11.4684C85.8413 11.4462 85.9238 11.6714 86.0358 11.8639C86.058 12.1938 85.8361 12.2763 85.6459 12.3905ZM85.6459 11.2041C84.2256 10.9365 86.1679 9.23942 86.0358 10.9408C85.8646 10.9873 85.8318 11.1734 85.6459 11.2041ZM85.7758 7.77703C85.4747 7.73261 85.1661 7.69243 85.2559 7.25044C85.4451 7.11826 85.6818 7.07068 85.9079 7.11826C85.9544 7.34666 85.9079 7.58458 85.7769 7.77703M85.9079 8.17249V8.70014H85.387C84.9822 8.33639 85.5497 7.76222 85.9079 8.17249ZM86.0379 9.22673C86.0675 9.69621 85.8509 9.91615 85.387 9.88549C84.8459 9.37371 85.5328 8.67793 86.0379 9.22673ZM84.6483 14.8606L84.9146 15.4009L84.381 15.1313L84.1147 14.8616H84.6483V14.8606ZM84.475 13.9724C82.9703 12.5131 83.2862 8.76676 84.605 7.38261C84.0196 8.83866 83.3433 12.1219 84.475 13.9724ZM79.9195 15.0276C79.9438 15.4908 79.4799 15.4612 79.3996 15.8186C79.1259 15.6177 79.5359 15.0002 79.9195 15.0276ZM78.2457 14.8616V14.592H78.512L78.7783 14.8616V15.402H78.2446V14.8616H78.2457ZM77.5768 11.4695C77.469 11.8417 77.7596 11.811 77.7068 12.1282C77.4764 12.0098 77.3264 11.81 77.0558 11.7328C77.0875 11.5001 77.2799 11.4325 77.5768 11.4684M76.7948 9.49108C76.966 9.5376 76.9998 9.72371 77.1858 9.75543C77.0727 9.94788 76.9903 10.1731 76.6649 10.1509C76.5634 10.0335 76.5243 9.85377 76.5349 9.62431C76.686 9.64546 76.7663 9.59576 76.7948 9.49214M76.0805 17.8287L75.3714 17.2535L74.3792 15.9592L73.3869 13.6594L73.1037 12.0785L73.6712 11.2157L73.5296 9.77869L73.9554 12.2224L76.2242 16.8221L75.5152 16.2468L76.3669 17.54L76.0837 17.8277L76.0805 17.8287ZM77.0558 16.4784C75.9949 16.3145 74.2714 12.9731 74.0622 11.2051C73.6934 8.0953 75.2964 7.79394 78.4877 8.04138C74.9255 8.61238 73.9713 12.5639 76.7959 15.0276C76.3721 15.7118 77.1562 16.2162 77.0569 16.4773M77.3179 13.1825C77.7628 13.1264 78.0597 13.2216 77.9678 13.7101C77.6455 14.021 77.1509 13.7619 77.3179 13.1825ZM78.0988 15.6864C78.1295 16.3145 77.6148 15.919 77.3179 15.8175C77.4363 15.3396 77.7015 15.7372 78.0988 15.6864ZM77.3179 17.1361C77.2989 16.7216 77.6518 16.6835 77.9678 16.6095C77.9467 16.7628 77.9963 16.8443 78.0988 16.8728C78.084 17.2091 77.6624 17.134 77.3179 17.1361ZM78.5141 18.3733H77.9805L78.2468 17.5633H78.513V18.3733H78.5141ZM78.8797 17.4005C78.1844 17.3846 78.0312 16.0766 78.4887 15.6875C79.238 15.6452 79.6437 17.1023 78.8797 17.4005ZM79.2707 17.5316C79.686 17.4184 79.6733 17.7388 79.9206 17.7959C79.8191 18.0983 79.1154 17.9239 79.2707 17.5316ZM79.5307 16.7406C79.3943 16.25 79.9703 16.4826 80.0516 16.213C80.4521 16.4594 79.9005 16.839 79.5307 16.7406ZM80.0527 14.2335L79.0604 12.364L78.493 10.927L78.7762 9.92144L80.3359 9.0586L80.0516 10.0642L80.4775 11.5023L81.4697 13.8021L80.0516 14.2335H80.0527ZM82.0034 16.7406C81.7318 16.7967 81.6589 16.6508 81.4835 16.6085C81.5712 16.4953 81.6166 16.3557 81.6134 16.213H82.0034V16.7406ZM81.9822 13.7799C81.6145 12.5396 80.5271 11.0582 80.8325 9.75437C81.1432 8.42627 82.8181 8.366 83.8262 7.64485C84.27 8.19364 83.2144 8.70754 83.0453 9.6222C82.8244 10.8192 83.4141 12.6866 83.5831 13.7799C82.8466 13.6921 82.4926 13.6372 81.9822 13.7799ZM83.5652 15.8175C83.9012 15.5437 84.6399 15.7054 84.7371 16.0819C84.6726 16.7258 83.8896 16.3832 83.5652 16.2141V15.8175ZM83.9562 18.0592C83.8632 17.3444 84.5448 16.877 84.9981 17.1361C84.8755 17.6712 84.7012 18.1533 83.9562 18.0592ZM85.649 18.718C85.0995 18.4727 85.3986 18.0423 85.519 17.5316C85.8382 17.65 85.872 18.4536 85.649 18.718ZM85.779 17.2683H85.519C84.6916 17.1922 84.9431 15.5807 85.519 15.4231C86.2693 15.4379 86.4046 17.0082 85.779 17.2683ZM87.2108 18.0592C86.4944 18.165 85.9861 17.521 86.3 17.005C86.7533 17.2059 87.2985 17.3116 87.2108 18.0592ZM86.4299 16.3452C86.2418 15.6674 87.4285 15.4421 87.6018 15.9497C87.568 16.5154 86.8294 16.5144 86.4299 16.3452ZM87.5839 13.5272C88.332 11.7518 88.2306 8.84183 87.0798 7.64485C88.2316 8.23382 90.0206 8.41675 90.3334 9.75437C90.6441 11.0782 89.6476 12.3302 89.2926 13.6002C88.7832 13.4574 88.3204 13.4394 87.5828 13.5272M89.1615 16.7406V16.213C89.767 16.0946 89.8294 16.9119 89.1615 16.7406ZM89.8368 13.5156L90.829 11.5033V10.2091L90.5458 9.20346L91.3965 9.49108L92.3887 10.0663V11.3606L91.8213 12.7986L90.9706 14.0918L89.8368 13.5166V13.5156ZM90.9833 16.2141C91.1788 16.4128 91.7262 16.2532 91.6342 16.7417C91.2538 16.7322 90.9009 16.6941 90.9833 16.2141ZM91.2443 17.927C91.3637 17.6965 91.4874 17.4692 91.8952 17.5316C91.9555 17.944 91.6173 17.9535 91.2443 17.927ZM92.5462 15.6864C92.7174 15.7329 92.7512 15.918 92.9372 15.9497C92.9646 16.637 92.8706 17.2006 92.4162 17.3994C91.3775 17.2059 91.9026 15.9423 92.5462 15.6864ZM92.6518 18.3722V17.8319H92.9181L93.1844 18.3722H92.6518ZM93.0671 17.0039C93.1538 16.8908 93.2003 16.7512 93.1971 16.6085C93.5131 16.6825 93.8671 16.7216 93.848 17.1351C93.5268 17.153 93.2204 17.1551 93.0671 17.0039ZM93.0671 15.6864C93.3715 15.6452 93.6039 15.4284 93.848 15.6864C93.7413 15.9825 92.9879 16.3008 93.0671 15.6864ZM93.717 13.8412C93.4845 13.8582 93.4433 13.6795 93.1971 13.7101C93.1062 13.2227 93.4032 13.1275 93.848 13.1825C93.8956 13.4109 93.848 13.6488 93.717 13.8412ZM94.108 16.4773C93.68 16.3875 94.9481 15.7731 94.368 15.0276C97.0013 12.7997 96.5089 8.54364 92.6762 8.17355C95.4638 7.75059 97.4261 7.85316 97.1017 11.074C96.9949 12.1272 96.4634 13.2375 95.9298 14.2367C95.3327 15.3565 94.7653 16.6434 94.108 16.4784M98.3465 11.8946C98.2704 12.6559 98.1066 13.4056 97.8604 14.1289C97.4483 15.3428 96.921 16.5144 96.2859 17.6267C96.921 16.5133 97.4483 15.3417 97.8604 14.1289C97.3215 15.2783 96.4486 16.3367 95.767 17.1615L95.3676 17.9715L95.3169 17.7156C95.2598 17.7875 95.1996 17.8615 95.1499 17.9281C95.2017 17.8594 95.2577 17.7864 95.3158 17.7124L95.2249 17.2524L94.8001 17.1086L96.3599 14.3773L97.0689 12.9403L97.4937 11.9337L97.3521 9.49002L97.7473 10.6912C97.798 10.2387 97.5973 9.69727 97.3627 9.49002C97.6691 9.76177 98.3613 10.3159 98.0612 10.7832C98.2228 11.1322 98.319 11.5086 98.3465 11.8924V11.8946ZM88.9164 19.1843H85.7156L81.4475 19.4539L75.9907 20.5061C76.0012 20.524 76.0086 20.5441 76.015 20.5642C75.7497 22.8112 76.9121 23.6106 77.7068 24.7822C80.3496 24.2271 84.0439 23.9913 87.7297 23.9913C89.5483 23.9913 92.1119 25.1682 93.3271 24.7822C93.736 24.6521 94.8033 23.3103 95.0189 22.6737C95.2218 22.0763 95.1626 21.2737 95.0189 20.8286C95.0897 20.4796 95.3454 20.3178 95.6265 20.1814L92.9181 19.7246L88.9164 19.1854V19.1843ZM79.313 22.6959L77.1784 23.5059L76.9121 23.2363L78.7793 22.6959V21.6153L78.513 21.0749H77.4458L76.3785 21.3446V21.0749L78.7793 20.5346L79.313 21.6153V22.6959ZM79.5793 20.265L80.3792 19.9953V20.5357L79.5793 20.8064V20.266V20.265ZM80.6465 22.6959L80.3803 22.4252V21.8849L80.9139 22.1546L80.6476 22.6949L80.6465 22.6959ZM81.9801 19.9943H82.78V20.5346L82.2464 20.8053L81.7128 20.5346L81.9801 19.9943ZM82.5138 22.4252L82.2475 22.1556L82.5138 21.886L83.0474 22.1556L82.5138 22.4252ZM87.5987 22.5416C86.7586 23.0026 84.7329 22.8397 83.6941 22.6737C83.2408 22.1873 83.1774 20.8286 83.4331 20.0376C84.6198 19.548 86.5578 19.5132 87.7286 20.0376C87.9696 20.7419 87.9093 21.9896 87.5987 22.5426M88.9153 22.4263L88.649 22.697L88.3817 22.1567H88.649L88.9153 21.887V22.4274V22.4263ZM89.449 20.5357H88.9153L88.3817 19.9953L88.9153 19.7257L89.449 20.266V20.5357ZM90.7836 22.4263V22.697L90.2499 22.1567L90.7836 21.887V22.4274V22.4263ZM91.5835 20.8064H91.3172L90.7836 20.266H91.3172L91.5835 20.5357V20.8064ZM94.518 21.3467L92.6508 20.8064L92.1172 21.6163L92.3834 22.4263L92.9171 22.697H93.9833V23.2373L92.1161 22.9666L91.8488 22.1567V21.3467L92.6497 20.5367L94.7843 21.0771L94.5169 21.3467H94.518ZM97.9185 12.5121V13.1C97.9819 12.6517 97.9608 12.1949 97.8562 11.7539L97.9185 12.5121ZM83.5631 20.303C83.5134 20.8709 83.4553 22.0245 83.8241 22.5437C84.9104 22.6209 86.2408 22.5659 87.3387 22.5437C87.7075 22.0245 87.6483 20.8709 87.5997 20.303C86.5884 19.9181 84.5743 19.9181 83.5641 20.303M85.7304 6.29137L86.4701 5.99213V5.09333L86.0263 4.34469L85.4345 4.19454L84.9896 4.49378L84.5458 4.94318V5.69182L84.9896 6.29137H85.7304Z" fill="white"/>
<path d="M145.79 51.8009L147.895 49.6946L150 47.5882L147.473 49.2737L145.79 51.802V51.8009ZM146.632 61.0712L150.842 64.8631L150.422 63.1776L146.632 61.0712ZM148.789 33.6707C149.149 32.6989 149.812 32.8227 150.566 32.8819C150.95 32.9115 151.348 32.7539 151.739 32.681C151.727 32.5742 151.714 32.4663 151.701 32.3585C150.165 32.4367 148.629 32.516 147.093 32.5943C146.711 33.068 146.33 33.5406 145.944 34.0186C146.517 34.0767 147.046 34.2131 147.557 34.1592C147.995 34.1137 148.683 33.9541 148.788 33.6707M57.7363 47.2414C57.7289 47.2319 57.7215 47.2213 57.713 47.2118C57.6887 47.215 57.6644 47.216 57.6412 47.2192L57.6877 47.2361C57.7035 47.2382 57.7194 47.2404 57.7363 47.2414ZM55.6546 50.2772C55.6746 50.2719 55.6958 50.2656 55.7158 50.2603C55.7084 50.2529 55.7021 50.2455 55.6947 50.2381C55.681 50.2508 55.6672 50.2635 55.6546 50.2762M34.7338 27.2142C34.7412 27.2036 34.7496 27.192 34.7581 27.1814C34.5436 27.1677 34.2413 27.1476 33.9402 27.1275C33.9222 27.1529 33.9043 27.1708 33.8863 27.1941C33.9085 27.1825 33.9328 27.1729 33.955 27.1603C34.2139 27.1793 34.4738 27.1962 34.7338 27.2152M20.7059 93.3992C20.8105 93.3083 20.9173 93.2163 21.0282 93.1201C21.025 93.1148 21.0208 93.1074 21.0176 93.1021C20.9141 93.2015 20.8095 93.3009 20.7059 93.4003M53.5475 52.1478C53.856 52.0219 54.1678 51.894 54.4805 51.7661C54.3981 51.7206 54.3146 51.6762 54.2322 51.6307L55.6546 50.2793C54.6031 50.5659 53.4957 50.6346 53.5475 52.1488M58.6736 48.2237L58.2107 47.2975C58.0522 47.2784 57.8948 47.2594 57.7363 47.2435C57.9952 47.5851 58.2541 47.9266 58.513 48.2682C58.5668 48.2555 58.6197 48.2385 58.6736 48.2237ZM56.7091 53.1417C56.7187 53.1343 56.7261 53.128 56.7345 53.1206C56.7239 53.1132 56.7123 53.1058 56.7018 53.0984C56.7039 53.1132 56.707 53.1269 56.7091 53.1428M17.9933 95.8968C17.9902 95.9021 17.9891 95.9084 17.9859 95.9137H17.9923L17.9933 95.8968ZM35.726 39.1206C35.6616 38.7526 35.3847 37.5958 35.3657 37.4848C36.2871 36.5881 37.2921 36.605 38.2748 35.648C37.1325 35.3562 36.2702 35.6523 35.8084 35.5338C35.0307 36.1133 34.5362 35.9653 34.3259 36.1218C34.7391 37.1168 35.1491 38.1033 35.5591 39.0899C35.6151 39.1005 35.6711 39.11 35.7271 39.1195M147.088 32.5953H147.095C147.107 32.5816 147.117 32.5668 147.129 32.553L147.088 32.5964M35.0571 65.285L28.7412 70.7623L34.2149 67.3913L35.0571 65.285ZM57.3199 57.1366C56.5168 55.3062 57.9962 54.1209 58.5362 52.5803C58.8268 52.65 59.1259 52.7219 59.6384 52.8457C59.4482 52.3392 59.3224 52.0019 59.1967 51.6698L59.1903 51.6667C59.2379 51.8951 59.2854 52.1277 59.3615 52.4978C58.8353 52.3476 58.4506 52.2387 57.9434 52.0928L56.7324 53.1185C56.9649 53.2792 57.2248 53.441 57.4615 53.6313C56.912 54.75 55.9494 54.5925 54.8462 53.7445C54.7542 53.902 54.6634 54.0585 54.5714 54.2161C54.9973 54.3937 55.4231 54.5713 55.849 54.75C55.7845 54.9235 55.7201 55.0969 55.6556 55.2703C54.805 55.3105 53.9532 55.3517 53.0709 55.3929C53.0984 55.0874 53.1184 54.8568 53.1501 54.4836C52.8532 54.8738 52.6514 55.1392 52.3735 55.5029C52.2255 55.2407 52.1251 55.063 52.0247 54.8865C51.9465 54.9837 51.8684 55.081 51.7912 55.1783C52.0797 55.4056 52.3671 55.633 52.7243 55.9153C51.9022 56.3562 50.9955 56.8109 50.1216 57.3227C49.4802 57.6981 48.8831 58.1485 48.2364 58.5853C48.2142 58.4816 48.1487 58.1813 48.08 57.863C47.9036 58.3463 47.7282 58.8242 47.464 59.5496C46.6038 58.5102 45.1582 58.3854 45.1582 56.9188C45.1582 56.7686 45.6147 56.6174 46.0342 56.3605C45.9381 55.2565 46.7 54.7532 47.9892 54.5671C49.9969 54.2784 52.1029 51.6519 52.1843 49.628C52.2097 49.0009 52.4908 48.3834 52.9187 47.8357C52.8289 48.9639 52.7391 50.0932 52.6493 51.2204C52.8004 51.2564 52.9525 51.2902 53.1037 51.3262C53.1649 49.9198 52.7401 48.3009 54.4573 47.5608C54.5799 49.2642 54.5619 50.3005 56.4143 49.9928C56.1914 50.1059 55.9568 50.1958 55.7148 50.2593L56.1491 50.7012C56.1142 51.2976 55.8955 51.9701 56.1005 52.4671C56.2019 52.7124 56.4302 52.9049 56.6996 53.0942C56.5887 52.3413 56.3351 51.7587 56.5211 51.4171C56.6986 51.0914 57.3897 50.8429 57.8039 50.9032C58.2921 50.9741 58.7306 51.3864 59.1882 51.6635C59.1861 51.655 59.185 51.6455 59.1829 51.636C59.1871 51.6466 59.1903 51.6571 59.1945 51.6667C59.204 51.673 59.2146 51.6793 59.2241 51.6857C59.0582 51.3727 58.8913 51.0565 58.6894 50.6695L57.5271 49.8944L57.4732 49.7845H57.1921C57.1265 49.6502 57.061 49.517 56.9966 49.3827C57.3326 49.1638 57.6771 48.9565 58.0026 48.7228C58.1716 48.5843 58.3302 48.4342 58.477 48.2734H58.5172L58.5108 48.2639C58.5013 48.2671 58.4908 48.2703 58.4813 48.2724H57.1551C57.1308 48.3231 57.06 48.6256 56.874 48.817C56.5982 49.1014 56.1332 49.5719 55.943 49.4937C55.4813 49.2938 55.1082 48.9343 54.8916 48.4796C54.7965 48.2534 55.1727 47.5745 55.4506 47.4931C56.147 47.289 56.9036 47.2879 57.6391 47.216L55.9113 46.5657C56.036 46.3902 56.2241 46.128 56.5232 45.7071C55.9018 45.6014 55.4348 45.4111 54.9983 45.4671C53.4862 45.6595 51.5344 48.1064 51.639 49.6312C51.7373 51.0544 51.172 52.1573 49.9885 52.8689C48.824 53.57 47.5834 54.141 46.3502 54.7828C45.7479 52.5781 45.2047 50.6219 44.6891 48.6583C44.6341 48.449 44.6595 48.1349 44.7831 47.9742C45.9909 46.4061 46.0342 44.6688 45.6179 42.8394C45.5429 42.5085 45.6211 42.1447 45.5915 41.8C45.5207 40.9604 45.4298 40.123 45.3432 39.2855C45.3305 39.1629 45.2998 39.0423 45.2787 38.9292C45.6073 38.7642 45.9117 38.6119 46.3048 38.4153C44.8317 37.3991 44.7091 35.8902 44.483 34.3792C44.3921 33.7701 43.9166 33.2192 43.6165 32.6418C43.8891 33.8293 44.1353 35.0231 44.4418 36.2021C44.6151 36.8672 44.8898 37.5059 45.2259 38.4629C44.613 38.0431 44.1628 37.7343 43.7127 37.4255H42.7923C43.1991 37.9024 43.7253 38.3909 44.0719 38.9852C44.222 39.2432 44.6954 40.0521 43.6366 39.9464C44.147 40.9478 44.7873 41.9047 45.1371 42.96C45.638 44.471 45.2322 45.816 43.9726 47.3588C43.775 46.1904 43.6091 45.2123 43.4442 44.2342C43.3703 44.2469 43.2963 44.2585 43.2213 44.2712C43.2783 44.5789 43.3365 44.8866 43.3597 45.0124C42.4488 44.747 41.5073 44.2796 40.5446 44.2289C38.1343 44.103 38.3118 42.8553 38.7651 41.191C38.9384 40.5533 39.3463 39.9802 39.5492 39.5742C40.0437 39.718 40.5541 39.866 41.0645 40.0141C40.9747 39.865 40.8849 39.7148 40.7951 39.5657L40.8173 39.5414C41.0814 39.7148 41.3456 39.8882 41.6087 40.0606L41.633 40.0722C41.8 40.0775 41.967 40.0828 42.1339 40.0891C42.2216 40.0849 42.3093 40.0849 42.397 40.0891C42.0113 39.645 41.7081 38.9884 41.222 38.798C40.0406 38.3349 39.4044 37.7766 40.105 36.5056C40.7782 36.9772 41.4576 37.4541 42.2945 38.042C41.5749 36.9169 41.0392 35.9579 39.788 35.61C39.4245 35.5085 39.2639 34.6805 38.9712 34.1095C39.4499 34.0418 39.9201 33.9763 40.3914 33.9097C40.402 33.787 40.4125 33.6644 40.4231 33.5427C39.6665 33.473 38.9078 33.4222 38.1565 33.3175C37.981 33.2932 37.8321 33.0807 37.6714 32.9548C37.794 32.8036 37.9155 32.6524 38.2008 32.3003C37.5235 32.5255 37.0501 32.6831 36.5767 32.8406C37.0955 31.8847 37.5975 30.7057 38.931 31.0864C39.9074 31.3656 40.757 32.0878 41.8898 32.7423L40.6376 32.8924C41.4471 33.4402 42.0536 33.8515 42.6602 34.2628C42.4404 33.4994 42.1751 32.7444 42.0219 31.9683C41.9532 31.6193 42.1086 31.227 42.1614 30.8538C41.334 30.1369 40.5055 29.4199 39.657 28.6861C39.732 28.6406 39.9782 28.4905 40.291 28.2991C39.116 27.4606 37.9958 26.9763 36.6443 27.2935C36.4118 27.3474 36.155 27.3104 35.9109 27.2956C35.5168 27.2713 35.1237 27.2417 34.7306 27.2131C34.1441 28.0368 33.5407 28.8849 32.9374 29.734C33.0304 29.7985 33.1244 29.864 33.2184 29.9285C35.4069 27.6985 37.1769 27.1148 38.5739 28.1045C37.7634 28.2356 36.9032 28.3752 36.0451 28.5148C37.0733 28.611 38.1026 28.7072 39.1318 28.8035C38.0106 29.4791 36.8979 30.0523 36.0525 28.7062C35.4967 29.421 34.9409 30.1347 34.3851 30.8495C35.0159 30.5714 35.6468 30.2933 36.2787 30.0152C36.533 30.6448 36.1966 31.4509 35.2695 32.4335C34.8035 32.4758 34.3375 32.5181 33.695 32.5763C33.788 31.9609 33.8747 31.3867 33.9613 30.8115C33.7743 31.4586 33.6242 32.1205 33.3843 32.7486C33.2808 33.0193 32.9923 33.2181 32.7884 33.4497C32.6975 33.179 32.5897 32.9136 32.5221 32.6376C32.4249 32.2485 32.3583 31.853 32.0539 31.4491C31.9441 31.7769 31.8331 32.1047 31.6894 32.5308C31.1684 31.3613 30.7806 30.121 29.3519 30.0861C30.191 31.2101 31.0501 32.3606 32.0909 33.7532C30.3273 33.6506 28.7147 33.5576 27.1022 33.4634C27.0821 33.5829 27.062 33.7035 27.042 33.824C27.7362 33.9699 28.4305 34.1148 29.5009 34.339C28.2582 34.6308 27.3273 34.8508 26.3963 35.0696C26.4037 35.1754 26.4101 35.2822 26.4174 35.389H27.9719C27.6506 36.3364 27.2892 37.4044 26.9268 38.4724L27.1814 38.5178C27.2596 38.3402 27.3389 38.1615 27.4403 37.9331C27.5323 38.0801 27.602 38.1414 27.6094 38.2112C27.732 39.3045 27.1857 40.0077 26.334 40.6221C25.198 41.4426 24.1328 42.3626 23.148 43.1503C23.223 42.905 23.3805 42.3932 23.5368 41.8825C22.4791 42.9674 22.3576 43.6114 22.7813 45.8858C20.7429 44.4721 21.6221 41.4659 23.2642 40.1399C23.7419 39.7539 24.3061 39.461 24.7309 39.0264C25.1621 38.5855 25.4696 38.024 25.831 37.5154L25.5097 37.2849C25.2413 37.6867 24.9729 38.0875 24.5207 38.7642C24.5957 38.1763 24.6284 37.9183 24.6612 37.6592C24.118 38.8361 23.5168 39.8385 22.0448 39.9168C23.4217 33.768 25.1198 32.4166 30.5175 33.1727L28.1283 31.4248C28.1737 31.3317 28.2181 31.2387 28.2625 31.1467C28.6746 31.1128 29.0856 31.0779 29.4978 31.043L29.5083 30.8146H27.1741C26.9838 30.4699 26.7894 30.1168 26.5464 29.679C28.0015 28.6427 29.5337 28.2452 31.3386 29.0393C30.8451 28.6776 30.3526 28.316 29.6098 27.7704C31.2012 27.5515 32.7905 28.6523 33.8842 27.1941C32.0857 28.1045 29.8877 26.6453 28.0627 28.4239C27.0377 29.422 25.1652 29.5468 24.7257 31.3349C24.7383 31.3285 24.75 31.3211 24.7637 31.3137C24.7595 31.3264 24.7552 31.3402 24.751 31.3529C25.9874 31.1287 27.2776 30.6275 28.4706 32.2527C27.2227 31.9376 26.2695 31.6976 25.3174 31.4565C25.2931 31.5316 25.2688 31.6088 25.2445 31.6838L26.1564 32.2358C25.4865 32.7782 24.9275 33.2308 24.3695 33.6823L24.0124 33.5554C24.2586 32.8205 24.5048 32.0846 24.751 31.3497C24.7394 31.3518 24.7288 31.3539 24.7183 31.356C24.7204 31.3476 24.7235 31.3402 24.7257 31.3317C22.3586 32.516 21.7605 34.8137 21.0948 37.1369H22.1811C21.8038 38.2471 21.4551 39.2728 21.1064 40.3017C21.3135 40.3334 21.6813 40.3894 22.124 40.4571C21.9888 40.6961 21.9053 40.8462 21.8208 40.9943C20.4248 43.4189 20.8443 45.1858 23.0613 46.9443C23.4523 47.2552 23.6446 48.0683 23.6045 48.6266C23.4692 50.5373 23.7429 52.2535 25.4284 53.4156C26.5083 54.16 26.5675 54.9732 25.8257 55.9629C25.7866 56.0147 25.8204 56.1215 25.8204 56.2156C26.0846 56.3087 26.3403 56.3996 26.3741 56.4112C26.3741 58.2775 26.3065 59.9853 26.3953 61.6856C26.4682 63.0866 26.0074 64.1821 24.9528 65.0481C22.2001 67.3067 19.4484 69.5664 16.6756 71.7986C15.1571 73.0209 13.9482 72.9913 12.3928 71.7869C12.2427 71.6706 12.1001 71.548 11.9606 71.42L10.6545 69.8519C9.05461 67.3152 8.80734 63.8215 10.3301 61.1685C11.0698 59.8806 12.0398 58.7217 12.9423 57.5331C14.801 55.0852 16.7961 52.7167 17.4808 49.6015C17.9595 47.4265 16.9451 44.8665 15.1603 43.6769C13.4336 42.5254 10.9916 42.4281 9.48047 43.6938C8.27688 44.7005 6.94859 44.9997 5.47976 45.1139C2.55161 45.3423 0.503702 49.7866 2.19021 52.2176C2.21452 52.2546 2.24199 52.2895 2.27158 52.3212C3.00283 53.0519 3.35365 53.8608 2.6837 54.878C3.36633 54.3218 3.47095 50.9836 2.87708 50.0562C2.82424 50.7657 2.7788 51.3896 2.73231 52.0135C2.60022 52.0124 2.46707 52.0114 2.33393 52.0103C2.3762 51.2849 2.27052 50.5088 2.49983 49.849C2.75555 49.1109 3.31561 48.4796 3.85559 47.6221C3.35999 47.9425 3.02185 48.1614 2.64988 48.4003C2.90455 46.1333 4.46214 45.1076 7.2022 45.5739C6.34098 45.7462 5.73654 45.8679 4.86264 46.0434C6.54281 46.3172 7.77071 46.2686 8.86229 45.0737C10.3649 43.4284 12.3547 43.0922 14.1406 43.9095C15.8926 44.7121 16.9345 46.5012 16.8458 48.6435C16.7274 51.4954 15.2617 53.8037 13.4072 55.725C11.9912 57.1916 10.9398 58.7978 9.96022 60.534C8.63933 62.8751 8.45546 65.7174 9.25539 68.1727L8.95 67.8058L10.2128 71.1768C10.2128 71.1768 11.1955 72.8623 12.3177 73.2832C13.44 73.704 13.7211 73.7051 14.8443 73.7051C15.9676 73.7051 19.0543 70.7549 19.0543 70.7549L18.1518 71.3196C19.2064 70.5455 20.2727 69.7832 21.0853 68.6539C21.8651 67.5711 23.279 66.944 24.4139 66.1203C26.1786 64.8387 27.6126 63.4282 27.1043 60.9221C26.9152 59.9884 27.0462 58.9913 27.0198 58.0238C26.986 56.7929 27.3833 55.818 28.5414 55.3189C29.5242 57.1747 31.9726 56.2939 33.229 57.6939H32.1057L32.5263 58.5366L31.6841 60.2221L32.9183 59.8097C32.9395 59.8859 32.9606 59.9599 32.9807 60.0286C33.0853 60.0677 33.1878 60.1058 33.2903 60.1439L33.7891 60.643L32.1047 61.9066H33.3495C33.3368 61.9658 33.3241 62.025 33.3114 62.0853C34.0332 62.2661 34.757 62.449 35.5443 62.6467L35.893 63.1702H34.2086L35.707 63.3066C35.3213 63.3647 34.9229 63.4239 34.4664 63.4927C35.2938 63.6407 36.1381 63.5128 36.9508 63.4197L38.8402 63.5921L38.4766 63.3732C39.2216 63.4609 39.9043 63.7845 40.477 64.6526C40.5182 64.401 40.5689 64.089 40.6397 63.6513C41.0487 64.0171 41.3541 64.291 41.5105 64.4316C40.9462 65.3865 40.4654 66.2007 39.9571 67.0625C39.6971 66.6004 39.5133 66.2747 39.1994 65.7164C38.2949 67.8841 36.3822 68.1706 34.7708 68.7067C34.8067 68.9668 34.8384 69.2026 34.8743 69.4585C35.2854 69.3496 35.6922 69.2428 36.098 69.135C36.1339 69.2048 36.1709 69.2735 36.2058 69.3433C34.6228 70.5033 33.0399 71.6622 31.4569 72.8221C31.3956 72.7661 31.3333 72.7111 31.272 72.6561C31.6883 72.1274 32.1057 71.5977 32.6087 70.959C30.5502 71.6505 30.1276 72.9332 30.6538 75.9246C30.359 76.2947 30.0895 76.6859 30.0631 77.0951C30.0071 77.9305 30.024 78.769 30.1117 79.6012C30.2248 80.5719 30.1825 81.5542 29.987 82.5111L28.7359 78.3386V83.816L27.8937 84.6587L27.0515 82.9743L26.2093 85.9234L25.7887 85.5025V87.8383C25.4115 88.0593 25.0152 88.2698 24.5988 88.4675C23.7883 88.8524 23.0222 89.0427 22.143 87.9007C22.3924 88.7181 22.5351 89.1865 22.6513 89.5683C23.1512 89.6349 23.5538 89.6888 23.6975 89.7078C22.7549 90.6034 21.7764 91.5329 20.6605 92.5924C21.1022 92.5491 21.3082 92.529 21.75 92.4856C21.4562 92.7394 21.23 92.935 21.024 93.1137C21.2057 93.4415 21.5925 93.9152 21.4995 94.0485C21.2364 94.4207 20.764 94.6448 20.5559 94.795C20.8866 95.8513 21.5851 96.9214 21.4287 97.8477C21.1952 99.2287 21.5132 99.9689 22.9018 100.408C21.1138 100.884 20.5559 100.67 19.6809 99.0648C19.6408 99.8325 19.6165 100.316 19.5953 100.725C20.018 100.888 20.5083 101.077 21.0229 101.275C20.3139 101.449 19.5774 101.415 19.2825 101.76C18.9486 102.151 19.012 102.881 18.9169 103.384C18.5206 102.916 18.0758 102.389 17.6309 101.863C17.3974 100.803 17.1638 99.7447 16.8827 98.4716C17.1511 97.8446 17.5654 96.8749 17.9807 95.9032C17.6372 95.8556 17.2938 95.8091 17.0782 95.7794C17.1828 94.8722 17.2779 94.0527 17.4069 92.9308C17.0412 93.8497 16.8014 94.4545 16.5721 95.0308C16.5721 94.1606 16.7665 93.3601 16.5309 92.7161C16.0712 91.4578 16.4495 90.8879 17.6309 90.4195C19.2952 89.7575 20.372 88.5891 20.298 86.6107C20.2758 85.9974 20.5252 85.3725 20.6499 84.7528C20.7566 84.7581 20.8634 84.7634 20.9701 84.7687C21.1138 85.5163 21.2586 86.2628 21.4023 87.0104C21.5481 86.9882 21.6929 86.967 21.8377 86.9448C21.378 83.688 19.9271 80.5602 20.5358 77.1586C21.1434 73.7653 21.9941 70.5614 24.6527 68.104C22.7306 68.6539 21.8461 70.1353 21.1519 72.1063C21.042 71.5469 20.9912 71.2921 20.9384 71.0203C20.689 72.3252 20.447 73.5898 20.204 74.8524C20.1089 74.845 20.0127 74.8376 19.9176 74.8312C19.7517 74.0667 19.5858 73.3022 19.3502 72.2194C19.0067 73.1425 18.9592 74.0064 18.5365 74.275C17.0497 75.2182 15.4076 75.9066 13.571 75.6454C10.7422 75.2425 9.27335 73.1658 8.41847 70.8067C6.87039 66.538 7.50548 62.393 10.0426 58.6233C11.4396 56.5476 13.0374 54.6084 14.4777 52.5602C15.4477 51.1813 16.1515 49.6798 16.0458 47.9076C15.8683 44.9532 13.0574 43.1408 10.5583 44.6539C8.99016 45.6035 7.80981 47.1949 6.45616 48.4987C6.60727 48.6541 6.75944 48.8106 6.91055 48.966C7.66504 48.2005 8.41847 47.4339 9.1233 46.7191C10.4252 50.3766 9.28815 52.6003 6.22157 52.1414C8.16169 51.6518 8.33816 51.5334 8.78515 50.4305C7.40192 51.7629 6.43397 51.9257 5.19867 51.0576L7.67032 50.4803C7.22967 50.3142 6.85243 50.3851 6.47307 50.4411C4.06165 50.7975 3.91054 51.0111 4.09547 53.5055C4.12611 53.9147 4.06905 54.4159 3.85242 54.7416C3.35048 55.4976 2.5495 55.763 1.8098 55.1825C0.850303 54.4307 1.04474 53.552 1.85841 52.686C1.45263 52.8858 0.957031 53.1565 0.957031 53.4241C0.960201 54.1198 0.960201 55.0503 1.37866 55.4448C1.78338 55.8265 2.85806 55.9333 3.36316 55.6562C3.91794 55.3517 4.28673 54.5111 4.4949 53.8301C4.66081 53.2855 4.4632 52.631 4.41776 51.8707C4.88483 52.0209 5.08983 52.0251 5.1955 52.1298C6.25327 53.1809 7.4315 53.0519 8.58332 52.4016C9.85877 51.6804 10.6175 50.5818 10.4357 49.0454C10.3544 48.3538 10.1219 47.6802 9.95599 46.9993C9.78375 46.2908 9.90104 45.7484 10.6101 45.3392C11.671 44.7259 12.7087 44.453 13.8246 45.1425C14.9468 45.8361 15.7658 47.4614 15.3484 48.8085C14.8877 50.2952 14.2705 51.7851 13.4336 53.0878C12.2269 54.9689 10.7221 56.6544 9.41178 58.4732C6.91055 61.9457 6.41706 65.8443 7.36388 69.9101C8.49561 74.7699 11.9817 77.2104 16.2086 76.2418C17.0941 76.0388 17.9289 75.6147 18.8313 75.2764C18.9264 75.5228 19.0997 75.7966 19.1356 76.0885C19.3449 77.8163 19.3797 79.58 19.7496 81.2697C20.1173 82.9489 20.3266 84.4356 19.8225 86.2279C19.3111 88.0488 18.6517 89.3705 16.9694 90.1572C15.9021 90.6563 15.7404 91.4356 15.9919 92.5512C16.1673 93.3284 15.9645 94.1923 15.9306 95.0181C15.8049 95.0234 15.6791 95.0287 15.5544 95.034C16.0405 95.5807 16.5266 96.1252 17.1469 96.8231C16.9662 97.0959 16.627 97.4893 16.4241 97.945C16.2445 98.35 16.0247 98.8946 16.1589 99.2498C16.5161 100.195 17.056 101.072 17.5231 101.975C17.596 102.606 17.8179 103.263 17.7133 103.863C17.7017 103.928 17.6964 103.991 17.688 104.055L18.1624 104.173C18.1624 104.115 18.1603 104.059 18.1614 103.999C18.8155 104.109 19.3502 104.197 20.2927 104.355C19.9514 103.768 19.6894 103.436 19.5615 103.06C19.4527 102.739 19.44 102.394 19.5277 102.066C19.5784 101.898 20.0053 101.676 20.148 101.739C20.4808 101.886 20.8972 102.14 21.0007 102.444C21.1455 102.874 21.0377 103.387 21.0377 103.865C22.3016 103.322 22.3798 103.347 22.7739 104.483C23.0402 104.317 23.3414 104.204 23.5379 103.992C24.0895 103.4 24.5682 103.091 25.0036 104.096C25.0247 104.145 25.3185 104.075 25.5013 104.053C25.5044 104.043 25.5076 104.034 25.5108 104.024C25.3502 103.728 25.2276 103.396 25.0067 103.155C24.8081 102.938 24.9941 102.015 24.2364 102.658C24.1381 102.437 23.9469 102.208 23.9638 101.996C23.9838 101.732 24.1159 101.406 24.3125 101.25C24.4403 101.15 24.8303 101.227 25.0004 101.358C25.9451 102.09 25.8447 103.042 25.5108 104.024C25.515 104.032 25.5192 104.041 25.5235 104.049L25.5013 104.053L25.4939 104.074C25.7295 104.085 25.9018 103.653 26.13 103.605V100.884L23.4914 100.092L22.738 98.9601C22.4611 99.0796 22.1832 99.2001 21.9021 99.3217C22.329 97.4089 20.9109 95.643 22.18 93.7883C22.7158 93.0038 24.3178 90.9778 25.0289 90.2418C27.285 87.9102 30.2554 86.1105 30.5883 82.3166C30.7331 80.6712 31.5393 79.0841 32.1078 77.2728C32.7028 77.3457 33.4139 77.4335 33.8324 77.4853C34.2709 78.6981 34.6661 79.6741 34.9779 80.6765C35.5136 82.4012 35.0624 84.0148 34.0057 85.3534C33.1889 86.3876 33.285 87.2272 33.9212 88.2031C34.2287 88.6747 34.4622 89.196 34.7929 89.6486C35.5348 90.6658 36.5175 91.2041 37.868 91.0687C37.7782 90.7705 37.7074 90.5411 37.6059 90.2048L38.7398 90.2915L40.6429 90.0536H40.7179C41.2252 89.545 41.6838 89.0882 42.1477 88.642C42.2871 88.5077 42.6147 88.3438 42.6887 88.4019C43.961 89.4202 45.3136 88.6504 46.5172 88.404C47.7926 88.1418 49.4686 88.4548 50.2283 86.8158C50.2717 86.7228 50.7144 86.8158 50.9712 86.8222C50.9712 86.8169 50.9712 86.8137 50.9701 86.8095C50.9659 86.8 50.9627 86.7915 50.9585 86.782C50.9627 86.7735 50.9638 86.7661 50.967 86.7577C50.9226 86.0048 50.3731 86.3294 49.9536 86.3284C49.3946 86.3262 48.6116 86.4976 48.3241 86.2047C47.7387 85.6062 47.9786 84.829 48.49 84.1871L48.4826 84.185L48.4731 84.1554C47.0762 84.4525 47.7525 85.6918 47.5675 86.4944C47.5316 86.6498 48.5281 87.0442 49.066 87.4968L46.9599 87.0379C47.0339 87.2018 47.1797 87.5201 47.5062 88.2412L45.452 87.6734C45.1688 87.9007 44.8328 88.2634 44.4196 88.4569C44.2547 88.5341 43.7031 88.2486 43.6979 88.1122C43.6831 87.7516 43.869 87.3826 43.9789 87.0083C43.5721 87.0083 43.0522 87.0992 42.5799 86.9903C41.3107 86.6985 40.3069 86.8602 39.4784 88.0297C38.8169 88.9613 37.7021 88.9782 36.7458 88.3121C36.4414 88.0995 36.1149 87.9198 35.6288 87.6216C35.6447 88.4263 35.279 89.1178 36.4647 89.1241C36.6993 89.1252 36.9296 89.9405 37.161 90.3814C37.0712 90.4755 36.9814 90.5686 36.8916 90.6627C36.3865 90.2598 35.7693 89.9394 35.4027 89.4361C34.8574 88.7044 34.4315 87.8912 34.141 87.0263C33.9867 86.5398 34.2699 85.9128 34.3903 85.1219C34.8447 85.6886 35.0973 86.0027 35.3446 86.3104C35.4143 84.866 35.4809 83.4829 35.5601 81.8503C36.0578 82.2954 36.3527 82.5598 36.6475 82.8231C36.7447 82.767 36.843 82.7099 36.9412 82.6539C36.1477 81.1513 35.3551 79.653 34.5636 78.1567C36.173 78.2286 37.5721 78.5882 38.7767 78.2509C39.7067 77.9897 40.3935 76.8561 41.0772 75.9975C38.1374 77.978 35.6425 78.2033 34.7782 76.448C35.1945 76.3285 35.6108 76.208 36.0282 76.0874C35.1734 75.9573 34.309 75.8654 33.4721 75.6644C32.9923 75.5492 32.1818 75.2309 32.1797 75.0004C32.1755 74.183 32.1744 72.9638 32.6742 72.6107C33.2047 72.2353 33.7341 71.8493 34.2699 71.4761L35.9014 72.4552L36.322 70.7697H38.8486L38.0064 69.927H43.0585L41.6003 69.301C41.8528 69.357 42.1096 69.4258 42.3717 69.5114C42.9677 69.707 43.6767 69.6552 44.3203 69.5897C45.6993 69.4501 46.83 69.9058 47.185 70.885C47.6457 72.156 47.0814 73.1732 46.1399 73.8944C45.4076 74.4558 44.4714 74.7519 43.6366 75.1611L44.5337 75.417C44.0434 75.8421 43.682 76.4247 43.2699 76.4617C41.8814 76.5876 41.7546 77.6376 41.4767 78.5987C41.3562 79.0175 41.484 79.6265 41.2315 79.8687C39.638 81.3945 38.9849 83.337 38.8063 85.4454C39.5281 85.2784 40.3692 85.0542 39.5809 83.3581C41.2801 84.3806 42.6063 85.2773 44.4428 84.7222C44.1068 84.5593 43.9219 84.4695 43.8225 84.4208C44.7271 83.6806 45.6443 82.9288 46.5626 82.1759C46.6133 82.2552 46.664 82.3335 46.7158 82.4117C46.1019 83.3232 45.4879 84.2347 44.874 85.1462C44.9046 85.1927 44.9342 85.2403 44.9649 85.2868C45.2998 84.996 45.6919 84.7507 45.9582 84.4071C46.5954 83.5823 47.5591 83.9852 48.3326 83.6986C48.3801 83.8509 48.4266 84.0042 48.4731 84.1565C48.4911 84.1522 48.5048 84.148 48.5228 84.1438C48.5112 84.1586 48.5017 84.1734 48.49 84.1882L50.1026 84.5329L50.0582 84.4874C50.0677 84.4843 50.0772 84.4811 50.0867 84.4779C49.8712 83.8604 48.4541 83.6129 49.2826 82.8707C49.7412 82.4593 50.9416 82.8305 51.7965 82.9362C52.0364 82.9658 52.2371 83.3052 52.6144 83.6457C51.6676 83.5358 50.9807 83.4543 50.2928 83.374C50.2727 83.4501 50.2516 83.5252 50.2315 83.6003C50.4724 83.7018 50.7144 83.8022 51.3315 84.0613C50.7292 84.2633 50.4048 84.3722 50.0867 84.4779C50.0941 84.4959 50.1015 84.5149 50.1068 84.534H50.1026C50.7049 85.1536 51.3696 85.7468 50.968 86.7598C50.968 86.7778 50.9712 86.7936 50.9712 86.8116C51.0399 86.9713 51.1022 87.1193 51.1688 87.2779C51.3886 86.4563 51.4087 85.5152 51.8747 84.9336C52.1177 84.6302 52.6545 84.5625 53.2125 84.4821L52.8955 83.5315C52.8955 83.5315 52.8881 83.5241 52.8849 83.521C52.5045 83.1128 52.1737 82.6581 51.7944 82.1876C52.0501 82.2288 52.3175 82.2732 52.5869 82.3176C52.5933 80.6628 51.7098 79.8623 50.2188 80.3551C49.1019 80.7241 47.5284 80.133 46.9578 81.772C45.3801 81.4125 45.0124 82.9605 44.0455 83.541C43.3819 83.9386 42.3294 83.8128 41.4735 83.7166C40.9652 83.6584 40.5013 83.2037 40.0184 82.9278C40.0068 82.8421 39.956 82.7131 39.9941 82.6761C41.2569 81.4474 42.3759 80.1478 42.5091 78.2625C42.5238 78.0552 42.8229 77.8543 43.0131 77.6767C44.2717 76.5019 45.545 75.343 46.7982 74.1629C47.6521 73.3593 48.0526 72.4098 47.782 71.2001C47.4777 69.8424 46.3639 69.2143 45.2956 69.191C43.5975 69.154 41.9014 68.6771 40.1103 68.6655L40.1061 68.6634L40.0945 68.6655C39.2512 68.6528 38.4101 68.7733 37.6038 69.0218L37.1579 69.0853L36.9296 69.228C37.8933 68.1886 38.5971 67.4315 39.3759 66.5919C39.4467 66.9662 39.5133 67.3088 39.6369 67.9602C40.3439 67.0191 40.8004 66.1446 41.4936 65.5451C42.6834 64.5194 45.1022 64.6019 46.5351 65.562C47.9078 66.4819 49.3196 67.2094 51.061 66.9916C51.9666 66.8785 52.8891 66.8774 54.1614 66.8108L55.5637 65.6878C55.7803 65.4383 56.0392 65.231 56.3298 65.0745L56.4714 64.9603L57.6824 64.4761C57.7109 64.4232 57.7384 64.3693 57.7638 64.3164L58.1748 64.4549C58.3344 64.7764 58.4939 65.0967 58.6598 65.4309C60.2248 63.6989 59.8455 62.0694 57.4267 60.9665C58.2625 60.4188 58.9705 59.9535 59.7821 59.4217C59.5993 58.0491 59.2051 57.6547 57.3146 57.1429M40.2181 29.6092C41.2547 29.8482 41.4312 30.7332 41.3498 31.8435C40.9515 31.6859 40.608 31.5506 40.1441 31.3677C40.459 31.1805 40.6239 31.0832 40.7898 30.9838C40.4971 30.5556 39.1656 31.1678 39.8176 29.6663C38.8898 30.1749 38.0962 30.6095 37.3037 31.0441C37.8733 29.5151 39.0124 29.3311 40.217 29.6092M21.9402 36.66C21.8387 36.6135 21.7362 36.5659 21.6348 36.5193C22.1473 35.3128 22.6608 34.1063 23.1733 32.8998L23.6024 33.0267C24.1825 34.7873 22.6302 35.5148 21.9402 36.66ZM23.2103 103.782C22.7549 103.405 22.2455 103.144 21.9919 102.728C21.7616 102.314 21.7003 101.827 21.8218 101.369C21.882 101.181 22.6703 101.01 22.9726 101.156C23.8866 101.596 23.9035 102.884 23.2103 103.782ZM26.596 87.3361L28.2878 85.8536C27.7838 86.413 27.2163 86.9099 26.596 87.3361ZM29.5802 83.8181L29.9215 82.7956C29.8338 83.1445 29.7197 83.4861 29.5802 83.8181ZM52.1452 81.4664H49.1124C50.5263 80.5126 51.2005 80.5581 52.1452 81.4664ZM49.9441 81.5637C50.0011 81.7075 50.0582 81.8513 50.1153 81.9962C49.2371 82.4509 48.3601 82.9055 47.4819 83.3602C47.4006 83.1932 47.3181 83.0261 47.2368 82.8601C48.1392 82.4276 49.0416 81.9962 49.9441 81.5637ZM57.9096 61.9615C58.0396 61.8949 58.1695 61.8294 58.2995 61.7627C58.6387 62.5008 58.9769 63.2389 59.3023 63.9463H57.5387C57.656 63.3182 57.7838 62.6393 57.9106 61.9615M56.5295 54.8896V57.0002C55.961 56.9198 55.3978 56.8405 54.4784 56.7115C55.2667 56.0105 55.8279 55.5124 56.5295 54.8886M53.7768 55.9745L54.1181 56.2177C53.9131 56.4747 53.7535 56.8892 53.4967 56.9611C51.9582 57.3925 51.4055 58.1813 51.6655 59.7421C51.7363 60.1724 51.9075 60.6112 51.8641 61.0289C51.7912 61.7268 51.4414 62.2217 50.6278 61.8283C49.9282 61.491 49.2519 61.105 48.5978 60.7582C49.328 57.9064 51.8166 57.2413 53.7778 55.9745M45.1329 52.041C45.4214 53.5488 45.6412 54.6972 45.8609 55.8476C45.7479 55.799 45.6359 55.7503 45.5239 55.7028C45.116 56.2135 44.7102 56.7232 44.3055 57.2307C43.9832 57.0795 43.6397 56.8014 43.2752 56.7707C42.6559 56.72 42.2269 56.7369 42.1846 55.8709C42.1625 55.4289 41.5612 55.0144 41.0867 54.417C41.5337 54.0744 42.0473 53.681 42.4869 53.3458C42.3823 53.3627 42.2755 53.3426 42.1846 53.2908C41.9786 53.1428 41.8222 52.926 41.6457 52.7378C41.9363 52.6744 42.3442 52.4576 42.4985 52.575C43.0818 53.0159 43.5827 53.5658 44.1713 54.1283C44.4407 53.5435 44.6922 52.9979 45.1339 52.0399M43.1441 49.7644C42.4583 49.5244 41.781 49.2875 41.1036 49.0506C41.7038 49.7147 42.3041 50.3787 43.0332 51.1845C43.1832 51.028 43.477 50.7213 43.7676 50.4168C44.6056 51.2754 44.7398 52.0262 44.2146 53.0148C43.2635 52.3973 42.1878 51.8877 41.3868 51.0988C40.9567 50.6759 41.0011 49.7707 40.831 49.0824C39.4319 47.2277 37.5319 47.6602 35.5601 48.0429C37.85 45.9799 40.3343 45.9218 42.5471 47.7194C42.2576 47.3271 41.968 46.9358 41.6838 46.552C43.402 46.7814 43.8384 47.823 43.1441 49.7644ZM33.4393 47.0405C32.8866 46.8893 32.2938 46.866 31.7623 46.6672C31.5193 46.5763 31.3829 46.202 31.2826 46.0688C33.4213 44.6465 35.4957 45.0991 37.5848 45.299C36.7796 46.6736 34.8859 47.4392 33.4393 47.0405ZM42.844 45.8129H38.1934L38.2104 45.5073C38.5157 45.5464 38.8211 45.5855 39.1381 45.6268C38.8465 45.2323 38.5918 44.8887 38.3372 44.544C39.9465 44.9416 41.9099 44.1126 42.844 45.8118M28.0036 37.6148C28.1272 37.4202 28.2244 37.1855 28.3512 36.9952C29.5009 37.2807 30.4784 37.4488 31.664 37.6962C31.6788 37.803 31.4823 39.2802 31.5679 39.9062C31.9694 38.5686 32.3382 37.3431 32.7059 36.1186C32.4692 36.2328 32.166 36.1841 31.9673 36.2793C31.812 36.0604 31.5182 36.2645 31.4622 36.2793C30.3907 36.5606 29.4735 36.6082 28.4083 36.9138C28.458 36.8482 28.5161 36.7911 28.5826 36.7446C29.2685 36.273 29.1448 35.8257 28.4284 35.076C29.3889 34.7662 30.2005 34.5092 31.0089 34.2428C31.9419 33.9361 32.8845 33.6538 33.8007 33.3038C34.478 33.0447 37.067 33.4233 37.4569 34.0926C38.13 35.2462 39.5862 35.9177 39.3358 37.7121C39.229 38.4766 39.0927 38.945 38.6658 39.5816C38.1332 40.3736 37.6904 41.3538 37.9536 42.4778C38.0899 43.0604 38.1152 43.8736 37.8025 44.2913C37.5562 44.6201 36.7151 44.5641 36.1392 44.5567C35.9342 44.5546 35.7641 44.1115 35.521 44.0163C35.1575 43.8746 34.7443 43.862 34.2202 43.7721C34.4421 43.3502 34.607 43.0361 34.7729 42.7231C33.899 42.5402 33.024 42.3573 32.1512 42.1743C32.1395 42.0739 32.129 41.9734 32.1163 41.874C32.3773 41.8201 32.6394 41.7662 32.9004 41.7133C32.6542 41.7524 32.409 41.7916 32.1628 41.8307L33.0293 41.3104C33.863 41.1825 34.7454 41.0154 35.1702 41.0154C34.9958 41.2808 34.7264 41.6901 34.458 42.0993C35.1057 41.8444 35.7535 41.5896 36.2945 41.3771C35.6647 40.805 35.2008 40.3842 34.9493 40.1568C34.8342 40.2583 34.5953 40.6094 34.2752 40.7183C34.142 40.7638 33.9465 40.8272 33.7193 40.8981L33.7922 40.8547L32.95 40.4339L32.2917 41.3115C32.0402 41.3771 31.8204 41.4289 31.6693 41.4532C31.8268 41.4532 32.0117 41.4405 32.2103 41.4204L31.8659 41.8804L31.3248 41.966C31.3259 42.1405 31.328 42.3139 31.3301 42.4884C32.2315 42.831 33.1318 42.9092 34.2625 43.3396C33.4065 43.9814 32.8888 44.7586 32.2706 45.0716C30.9053 45.7642 29.9923 45.079 30.043 43.5278C30.0842 42.2558 29.4354 41.2819 28.7285 40.2562C28.2371 39.5414 28.216 38.503 27.9846 37.6085L28.0057 37.618L28.0036 37.6148ZM27.4213 49.0305C27.5069 49.1839 27.5693 49.3488 27.6062 49.5201C27.7024 50.1281 27.7616 50.5934 28.458 51.0216C29.3287 51.5577 28.9546 53.994 28.0744 54.5988C27.6306 54.9034 27.1645 55.1741 26.9712 55.2957C26.6542 54.3123 26.2346 53.2179 25.9567 52.0896C25.7073 51.0766 25.6122 50.0256 25.4421 48.9491C24.155 49.591 24.9592 50.8408 24.9719 51.949C23.652 50.292 23.9532 47.7606 25.6313 45.5792C25.4379 45.2905 25.254 45.0135 25.0775 44.7491C24.9634 45.2334 24.8472 45.723 24.7309 46.2136L24.5111 46.1893C24.471 45.8679 24.4298 45.5453 24.3886 45.2239C24.341 45.2197 24.2935 45.2154 24.2459 45.2112C24.2153 45.7262 24.1846 46.2422 24.1413 46.9707C23.2632 43.9201 24.174 42.1617 27.303 40.7373C27.1149 41.2153 26.9659 41.5917 26.8169 41.9703C26.8592 41.9978 26.9014 42.0252 26.9426 42.0527C27.2353 41.7197 27.5281 41.3866 27.8208 41.0524L28.1378 41.0768V43.3925C28.2054 43.4178 28.273 43.4422 28.3417 43.4675C28.5594 43.0129 28.7771 42.5582 29.0793 41.929C29.2452 42.7538 29.5517 43.4157 29.4544 44.0121C29.3276 44.7956 28.8828 45.5284 28.4632 46.5562C29.167 45.9916 29.6129 45.6342 30.0293 45.299C30.1529 45.3719 30.21 45.3846 30.2227 45.4163C31.5668 48.7144 34.3777 48.5589 37.1853 48.3549C39.0135 48.2216 39.9708 48.6298 40.4643 49.8807C40.5235 50.0298 40.5034 50.2106 40.5446 50.6124C40.1336 50.2444 39.8821 50.0182 39.4615 49.6407C39.6792 51.1591 41.9173 52.1034 40.4009 53.7741C39.88 51.7121 38.6077 50.9677 35.8666 51.305C37.2456 51.5694 38.6034 51.433 39.0473 52.6035L34.329 51.7259C33.4256 51.5577 32.5136 51.4245 31.6196 51.2162C28.2456 50.4305 27.1254 48.5875 28.0955 44.9299C27.2375 46.4547 26.7482 47.6517 27.4213 49.0316M56.1258 64.2054C55.589 64.456 54.9835 64.5818 55.0057 65.5239C55.0279 66.5031 54.0568 66.3625 53.3879 66.3212C52.8257 66.2863 52.2773 66.0748 51.7162 65.9839C51.1825 65.8771 50.6309 65.9046 50.111 66.0664C50.334 66.1647 50.558 66.2631 50.7852 66.3625C50.7282 66.4132 50.6732 66.5052 50.614 66.5073C48.6591 66.6004 46.5848 65.3051 45.6824 63.3531C45.6105 63.6449 45.5619 63.8427 45.4826 64.1641C44.6732 63.4726 43.1082 64.0097 42.8852 62.3612V63.1955C42.4372 63.0729 42.0673 62.9714 41.6986 62.8709C41.6616 62.9418 41.6256 63.0126 41.5887 63.0835L44.2273 64.309C44.1744 64.4285 44.1205 64.5469 44.0677 64.6664C42.8525 64.1356 41.6373 63.6058 40.421 63.076C40.4538 62.9449 40.4865 62.8128 40.5193 62.6806L39.8377 63.2019C39.6158 62.6203 39.4319 62.1402 39.2121 61.5661C39.9307 61.5206 40.5182 61.4846 41.4819 61.4254C39.2628 60.5806 36.3579 62.0144 35.7482 58.6487C35.7609 60.497 36.694 61.4096 38.5696 61.564C38.4925 62.0091 38.4154 62.4511 38.2833 63.2177C37.3724 62.4395 36.6042 61.7839 35.8465 61.1378C35.8328 61.1769 35.7651 61.3641 35.6711 61.6285L35.5252 61.5312C34.9779 60.7868 34.4749 60.1026 34.0511 59.5274L34.0427 59.465C34.4104 58.6476 34.9958 57.7076 35.2072 56.6893C35.315 56.1649 34.7338 55.4955 34.2435 54.9943L34.5795 57.6759C33.6327 57.1461 32.7662 56.6439 31.8828 56.1765C31.4189 55.9312 30.9064 55.78 30.4456 55.5304C29.4079 54.97 28.9377 54.2129 29.7852 53.0339C29.9458 53.1682 30.1117 53.3077 30.4467 53.589C30.3558 52.8393 30.284 52.2546 30.1994 51.5609C32.5295 51.9775 34.8563 52.2979 37.1346 52.8287C39.099 53.2866 40.514 54.5819 41.6109 56.5244C40.5478 56.3372 39.6612 56.1807 38.7746 56.0242C38.7345 56.0781 38.6943 56.131 38.6531 56.1849C39.3368 56.4493 40.0099 56.9082 40.7052 56.9442C43.2075 57.0721 45.0335 58.4161 46.8405 59.9472C47.8264 60.7825 48.9391 61.547 50.1174 62.0567C51.6179 62.7049 51.9275 62.4427 52.4717 60.8269L53.4207 60.9211C53.3721 60.3596 53.1787 59.7632 53.3055 59.244C53.5644 58.1803 54.2407 57.4887 55.3132 57.5448V60.4896C55.0121 60.1174 54.7733 59.8224 54.4108 59.3741C54.4393 59.8615 54.4584 60.1946 54.4953 60.8555C54.1741 60.385 54.0156 60.1523 53.8708 59.9398C53.7599 60.2834 53.6415 60.6461 53.5232 61.0099C53.2136 61.7659 52.9029 62.5209 52.5933 63.277C52.645 63.3309 52.6979 63.3848 52.7507 63.4387C53.0762 62.9608 53.5041 62.523 53.7007 61.9975C53.9955 61.2097 54.3981 60.8206 55.272 61.0173C55.439 61.0553 55.663 60.7846 55.8511 60.7984C56.203 60.8248 56.6605 60.8439 56.874 61.0627C57.6792 61.8865 57.1857 63.7137 56.1269 64.2064M57.2903 59.5612C57.5598 59.52 57.8282 59.4777 58.1336 59.4312C57.6454 60.478 56.8307 60.4918 56.1142 60.0286C55.7803 59.814 55.5848 59.0928 55.6482 58.6466C55.6979 58.2955 56.1871 57.8673 56.5728 57.7298C57.6179 57.3565 58.5975 57.9424 59.1734 59.059C58.5764 59.0865 57.9191 59.1171 57.2608 59.1488C57.2703 59.2863 57.2808 59.4238 57.2914 59.5612M22.4252 82.1453L21.583 79.617L22.4252 85.0944V82.1453ZM142 71.1906L143.262 69.5051L139.473 72.0333L141.998 71.1906H142ZM44.7408 70.3478L40.1093 70.7687H42.6348L44.7398 70.3478H44.7408ZM158.42 65.2913L156.315 64.0277L159.683 67.3987L158.42 65.2924V65.2913ZM145.611 37.0343L148.574 34.6107H146.17C146.668 34.8317 147.002 35.021 146.423 35.5994C146.049 35.9737 145.876 36.55 145.611 37.0343ZM36.1033 76.0578C36.0779 76.0652 36.0525 76.0726 36.0272 76.0789C36.0652 76.0853 36.1043 76.0906 36.1434 76.0959L36.1033 76.0578ZM171.435 58.0534C170.115 56.3541 168.599 54.8071 167.307 53.0889C166.691 52.2387 166.242 51.2786 165.984 50.2593C165.389 47.9827 166.863 45.6162 169.049 45.2281C169.435 45.1594 169.889 45.4734 170.311 45.6098C170.07 45.9049 169.839 46.2094 169.581 46.4907C169.499 46.5805 169.349 46.6091 169.23 46.662C168.04 47.1949 167.55 48.1973 167.55 49.4165C167.55 50.6357 168.199 51.379 169.453 51.7703C168.947 50.475 169.648 49.8733 170.661 49.4292C174.062 47.9372 174.445 45.6849 171.71 43.3005C173.442 40.4909 172.634 37.7956 169.583 36.4369C168.287 35.8606 167.748 34.892 167.682 33.5554C167.664 33.1959 167.637 32.8375 167.605 32.3014C165.704 35.5021 164.411 37.5017 167.56 39.8903C167.83 40.0944 168.107 40.4053 168.19 40.7172C168.336 41.2586 168.333 41.8402 168.392 42.4049C168.265 42.4197 168.138 42.4345 168.012 42.4493C167.923 41.284 167.841 40.0468 166.519 39.6419C165.579 39.3542 164.608 39.4822 163.976 40.4381C164.256 40.3175 164.533 40.1917 164.815 40.0786C166.345 39.4674 167.567 40.1558 167.469 41.7768C167.401 42.9124 166.879 44.0206 166.56 45.1414C166.42 45.0991 166.281 45.0558 166.142 45.0135C166.276 44.5789 166.422 44.1475 166.54 43.7086C166.732 42.9864 166.75 42.3848 165.814 42.1077C165.463 42.0041 165.217 41.5452 164.923 41.2481C165.028 41.1011 165.134 40.9541 165.241 40.8071L166.973 41.8159C166.729 40.7098 165.645 40.1959 164.425 40.8283C164.085 41.0048 163.794 41.2755 163.48 41.5039C163.351 42.0538 163.223 42.6026 163.134 42.978C164.019 42.72 164.842 42.1849 165.298 42.407C166.276 42.8828 166.193 43.8926 165.739 44.8157C165.718 44.8549 165.695 44.8929 165.669 44.9278C163.685 47.6855 164.123 50.5416 165.622 53.2401C166.701 55.1836 168.103 56.9621 169.489 58.7143C171.581 61.3609 172.712 64.3217 172.787 67.6863C172.84 70.0972 172.51 72.4298 171.13 74.4854C169.62 76.7356 167.268 76.9735 165.524 74.9095C164.797 74.0477 164.301 72.8697 164.04 71.7552C163.077 67.6419 161.22 64.2233 157.398 62.0884C156.165 61.399 155.634 60.2253 155.503 58.8084C155.233 55.9026 156.028 53.1904 157.013 50.4771V52.2726C158.41 51.4488 158.584 51.0883 158.52 49.223C158.945 48.9639 159.371 48.7049 159.988 48.3295L158.474 47.9055C158.464 47.7585 158.454 47.6115 158.444 47.4645C159.024 47.399 159.603 47.3324 160.086 47.2774C160.913 46.221 161.975 45.1509 161.353 43.5712C161.223 43.4168 161.092 43.2624 160.879 43.0097C160.84 43.4496 160.81 43.7795 160.777 44.1411C160.68 44.084 160.584 44.0586 160.577 44.0195C160.367 42.7474 160.457 41.5674 161.518 40.6993L161.939 40.7733C161.829 41.5378 161.718 42.3023 161.607 43.0668C163.043 41.9015 162.004 40.6443 161.577 39.3775C162.151 39.3511 162.566 39.3331 163.002 39.313C162.35 38.0494 161.727 36.844 161.108 35.6449L162.211 35.3689L160.106 34.1042H160.949L159.685 32.8406L158.842 33.2615V31.576H159.685L160.527 32.4187V30.7332L157.884 30.0723L158.379 30.0459C158.374 29.993 158.369 29.9402 158.364 29.8873C158.049 29.8503 157.732 29.8122 157.377 29.771C157.518 29.5595 157.608 29.4263 157.699 29.292C156.712 29.4686 155.727 29.7446 154.738 29.7678C154.406 29.7752 154.06 29.1387 153.721 28.7971C152.945 29.9412 152.661 28.8447 152.251 28.0189C152.144 28.4302 152.074 28.6988 151.998 28.9917C150.202 28.5624 151.047 26.9773 150.357 25.6862C151.055 25.9728 151.447 26.1335 151.792 26.2742C151.621 26.9319 151.481 27.4701 151.341 28.0072C151.437 28.04 151.533 28.0717 151.629 28.1045C152.104 27.4859 152.578 26.8663 153.236 26.0087V27.8222C154.055 27.4172 154.863 27.0186 155.861 26.5248C155.594 27.469 155.397 28.1637 155.177 28.9399C156.028 28.8891 156.661 28.8521 157.294 28.814C156.791 28.6491 156.288 28.4841 155.592 28.2547C155.957 27.6393 156.285 27.0852 156.733 26.3302C155.639 26.4973 154.718 26.6379 153.759 26.7849C153.721 26.5554 153.671 26.327 153.61 26.1029C153.536 25.8671 153.416 25.645 153.287 25.3468C153.134 25.5171 153.026 25.6471 152.908 25.7645C152.758 25.9125 152.598 26.0521 152.527 26.1177C151.658 25.8047 150.885 25.5276 149.98 25.203C150.147 25.9887 150.258 26.5152 150.369 27.0408C149.743 26.6019 149.245 26.0997 148.966 25.4959C148.693 24.9027 148.64 24.208 148.422 23.2605L146.886 25.5953C146.892 25.6196 146.898 25.6439 146.905 25.6683C146.891 25.6556 146.877 25.6418 146.864 25.6291C146.998 26.2921 147.132 26.9562 147.266 27.6202C146.045 27.3474 145.991 27.1909 146.423 25.2115C146.568 25.3489 146.716 25.4885 146.865 25.6291C146.872 25.6175 146.879 25.6069 146.887 25.5953C146.748 25.0719 146.611 24.5485 146.472 24.024L146.124 24.0367C145.967 24.7462 145.81 25.4568 145.633 26.2583C143.3 22.5616 141.663 18.572 138.499 15.5711C138.716 16.73 138.991 17.8625 139.454 18.9114C141.223 22.9275 143.031 26.9266 144.878 30.9088C145.268 31.7494 145.137 32.2538 144.391 32.7793C142.886 33.8388 141.427 34.965 139.963 36.0816C139.265 36.6145 139.136 37.2955 139.032 38.2091C138.868 39.645 139.813 40.4286 140.38 41.3697C140.906 42.2441 141.925 42.8215 142.834 43.6251C142.803 43.8271 142.741 44.231 142.679 44.6339C142.793 44.6952 142.908 44.7576 143.022 44.82C143.688 43.8144 144.354 42.8088 145.061 41.7419C144.892 41.5219 144.645 41.2015 144.226 40.6612C145.436 40.3218 146.416 39.9062 147.427 39.8047C148.387 39.7085 148.975 40.2816 148.468 41.3062C148.024 42.2008 147.6 43.2 146.889 43.8472C145.316 45.281 143.537 46.4864 141.907 47.8611C141.352 48.3284 140.978 48.3105 140.428 47.9361C139.416 47.2478 138.363 46.6197 137.329 45.9651C136.277 45.3011 135.181 44.6973 134.189 43.9518C133.294 43.2793 132.429 42.7559 131.307 43.2846C130.381 43.7213 127.708 44.2659 125.981 44.7629L125.162 44.2162L122.744 45.2535C122.826 45.1657 122.906 45.078 122.988 44.9913C122.74 45.0611 122.493 45.1372 122.244 45.2017L121.853 45.9842H121.202C121.437 46.0222 121.673 46.1026 121.908 46.1565C122.128 45.9197 122.347 45.6828 122.567 45.4459L126.426 45.06L126.21 44.9162C126.417 44.9236 126.623 44.932 126.83 44.9394C127.891 44.7914 129.096 44.5863 129.991 44.3177C130.322 44.157 130.636 43.9645 130.928 43.7425C131.876 43.0224 132.959 43.3121 133.906 44.2352C134.694 45.004 135.695 45.5601 136.628 46.1703C137.733 46.8914 138.886 47.5396 139.973 48.2861C140.254 48.4796 140.366 48.9227 140.316 49.3319C139.363 48.7821 138.41 48.2322 137.457 47.6813C137.323 47.7881 137.187 47.8949 137.053 48.0017C139.453 48.9364 140.254 50.4485 138.931 52.5855C136.311 50.292 134.112 47.547 134.543 47.0659L131.739 45.2186C131.804 45.373 131.944 45.7061 131.994 45.8245C130.468 45.9736 128.849 46.1322 127.251 46.2876C127.277 46.3299 127.367 46.478 127.458 46.626C127.393 46.7117 127.328 46.7962 127.264 46.8808C126.783 46.534 126.302 46.1872 125.79 45.8182C123.945 45.9461 124.807 47.4413 124.66 48.6605C123.751 48.376 122.892 48.1074 121.869 47.787C122.031 47.399 122.215 46.9602 122.411 46.4896C122.291 46.4314 122.073 46.3236 121.853 46.2157C121.866 46.202 121.879 46.1882 121.891 46.1745C121.446 46.2295 121.009 46.2824 120.716 46.3183C120.43 46.8481 120.189 47.2954 119.949 47.7395H119.968C119.959 47.7469 119.948 47.7532 119.94 47.7596C119.935 47.767 119.931 47.7743 119.927 47.7818C120.053 47.7722 120.178 47.768 120.303 47.7521C120.743 47.695 121.181 47.6348 121.62 47.5756V48.9438C122.159 48.8656 122.773 48.7778 123.379 48.6901C122.596 49.9706 121.388 50.1747 119.709 49.3023C120.029 49.0221 120.346 48.745 120.76 48.3824C120.179 48.4892 119.739 48.5695 119.298 48.6509C119.226 48.5494 119.153 48.449 119.082 48.3475C119.367 48.1508 119.652 47.9541 119.939 47.7574C119.942 47.7511 119.946 47.7447 119.949 47.7373H119.34L118.309 48.5114C118.615 48.6383 118.889 48.91 119.104 49.462C119.534 50.5701 122.428 50.438 123.575 49.555C123.957 49.26 124.468 49.131 125.16 48.8159V49.5328L125.283 49.4165V47.0395H126.339L128.601 47.2657C128.86 47.0691 129.159 46.9327 129.477 46.8671C131.178 46.4325 132.529 46.626 133.739 47.9805C135.404 49.8437 137.169 51.6159 138.856 53.4579C139.058 53.6778 139.074 54.0923 139.121 54.4244C139.237 55.2439 139.322 56.0676 139.437 57.0425C138.388 57.1186 137.236 57.2349 136.081 57.2783C134.39 57.3439 133.488 58.0555 133.479 59.6881C133.47 61.3789 132.54 62.5399 131.367 63.4186C130.18 64.309 129.898 65.506 129.851 66.7368C129.812 67.7096 130.31 68.6919 130.439 69.6869C130.494 70.1088 130.216 70.5741 129.947 71.5205C130.777 71.1694 131.318 70.94 131.858 70.7116C131.873 70.7835 131.888 70.8543 131.902 70.9262C132.388 70.8353 133.209 70.8723 133.3 70.6323C133.668 69.6542 134.107 68.5513 133.977 67.5668C133.718 65.6149 133.822 63.7887 134.75 62.0609C135.399 60.8534 136.467 60.238 137.858 60.2179C138.298 60.2115 138.736 60.1777 139.175 60.1544C140.633 60.0751 141.861 60.1365 142.922 61.5946C143.712 62.6816 145.235 63.2431 146.45 64.0087C147.213 64.4898 148.01 64.9149 148.858 65.4034C146.47 66.3942 144.263 67.2697 142.088 68.2224C139.808 69.2217 138.13 70.9505 136.718 72.948C136.048 73.8965 136.095 75.3715 136.979 76.1054C138.087 77.0221 138.581 78.0267 138.073 79.4679L138.36 79.6265C138.791 79.2342 139.224 78.8419 139.832 78.2879C140.919 79.3558 142.142 80.5264 143.316 81.7435C143.521 81.956 143.695 82.5407 143.585 82.6486C143.349 82.8791 142.885 83.0652 142.572 82.9975C140.91 82.637 139.242 82.2658 137.623 81.7509C136.617 81.4305 135.751 81.3268 134.71 81.7117C134.101 81.937 133.244 81.6557 132.553 81.4315C132.141 81.2983 131.836 80.8352 131.245 80.3086C131.349 81.1534 131.418 81.7181 131.489 82.3018C131.256 82.2679 131.023 82.2341 130.791 82.2013L130.244 82.7491C130.287 82.8548 130.33 82.9595 130.374 83.0642C130.028 83.2894 129.697 83.6563 129.333 83.6954C129.047 83.725 128.72 83.3475 128.445 83.1731C127.632 85.0405 129.326 87.5423 131.857 87.6681C132.749 87.7125 133.683 87.7199 134.484 87.1172C134.584 87.0432 134.87 87.2198 134.88 87.2388C135.558 87.1521 136.032 87.1457 136.477 87.0231C137.334 86.7862 138.165 86.4447 139.027 86.2311C139.195 86.2025 139.367 86.248 139.5 86.3548L141.306 86.2036C141.169 86.0185 141.037 85.8367 140.89 85.6453C141.944 86.0006 142.904 86.267 143.816 86.6488C144.621 86.9861 145.333 87.6258 146.158 87.8098C146.883 87.9716 147.915 87.9409 148.425 87.5222C148.875 87.1542 148.908 86.1306 148.898 85.4C148.891 84.9284 148.526 84.4271 148.23 84.0021C147 82.233 146.146 80.3667 146.253 78.1303C146.286 77.4578 145.992 76.7694 145.771 75.7279C147.549 75.0744 149.387 74.3977 151.299 73.6945C151.508 76.1519 151.695 78.2731 151.867 80.3963C152.057 82.7543 152.995 84.7592 154.933 86.1201C156.325 87.0982 156.113 88.0995 154.195 88.7371C154.992 89.0036 155.479 89.305 155.965 89.305C157.516 89.3028 158.405 90.0938 158.426 91.8248C158.648 91.5213 158.784 91.3362 158.92 91.1512C158.216 89.9627 157.513 88.7741 156.786 87.5444C156.599 87.8605 156.454 88.1069 156.291 88.384C156.196 88.2782 156.108 88.2074 156.117 88.1873C156.437 87.5666 156.407 87.0749 156.101 86.6223L155.052 83.8234L154.631 84.2442L153.789 80.8732L153.368 82.1368L152.525 80.4513V80.5074C152.523 80.4746 152.519 80.4439 152.517 80.4111C152.49 79.9459 152.592 79.4743 152.635 79.0058L152.603 79.046C152.751 77.774 152.898 76.5019 153.047 75.2299C152.95 75.214 152.853 75.1981 152.756 75.1823C152.595 75.5513 152.435 75.9203 152.273 76.2894C152.15 73.4407 152.003 70.5963 153.562 67.9655C153.372 68.1791 153.182 68.3927 152.994 68.6042C152.716 67.5499 152.446 66.5264 152.177 65.5038C152.044 65.5282 151.911 65.5535 151.778 65.5779C151.82 65.8856 151.872 66.1912 151.898 66.4999C151.917 66.7294 151.902 66.962 151.902 67.1227C151.994 67.8693 152.078 68.5661 152.164 69.2629C152.107 69.2872 152.05 69.3126 151.993 69.3369C151.396 68.3144 150.752 67.3152 150.212 66.2641C149.494 64.8631 148.381 63.9992 146.975 63.3309C145.423 62.5949 143.973 61.6412 142.479 60.7825C142.535 60.5563 142.59 60.3289 142.646 60.1026L146.362 59.9155L149.156 60.2263L147.471 59.3836L147.786 59.2271C147.925 59.243 148.062 59.2599 148.2 59.2757C148.207 59.2165 148.213 59.1573 148.219 59.0981C148.189 59.0843 148.158 59.0695 148.127 59.0558L148.314 58.9627L147.581 58.23C147.959 58.2828 148.337 58.3368 148.714 58.3896C148.729 58.3378 148.742 58.286 148.756 58.2342C148.673 58.1961 148.589 58.1581 148.506 58.12H149.156L148.605 57.2931H149.37C149.373 57.2498 149.374 57.2053 149.378 57.163C149.051 57.1028 148.726 57.0436 148.399 56.9843L148.314 56.8564H149.577L149.478 56.5571H149.839C149.844 56.4937 149.848 56.4303 149.852 56.3668C149.699 56.334 149.544 56.3002 149.381 56.2653L149.178 55.6552C149.24 55.634 149.305 55.6139 149.367 55.5928H150.42L152.525 55.172L151.083 54.8114L150.855 54.7099L151.262 53.4865L151.058 53.6398C151.124 53.5002 151.197 53.3458 151.28 53.1724C150.517 53.6895 150.074 54.0892 149.556 54.3229C147.932 55.0567 146.956 56.3161 146.287 57.9275C146.062 58.47 145.534 58.8877 145.145 59.3624C145.043 59.2789 144.941 59.1954 144.839 59.1118C144.874 58.9194 144.91 58.728 144.95 58.5091C144.861 58.5239 144.759 58.5133 144.744 58.5451C144.223 59.6384 143.275 59.741 142.218 59.7156C140.575 59.6765 138.931 59.705 137.293 59.4164C137.712 59.4164 138.138 59.4618 138.551 59.4079C139.979 59.2197 141.463 59.1795 142.807 58.728C143.797 58.3949 142.463 58.101 142.603 58.0544C141.523 58.3304 140.455 58.746 139.357 58.8528C137.38 59.0452 137.38 58.9733 136.063 60.3162C135.945 60.4378 135.668 60.404 135.464 60.4431C134.004 61.8526 133.29 63.5413 133.49 65.5937C133.511 65.819 133.386 66.0727 133.284 66.2916C132.991 66.9239 132.676 67.5446 132.3 68.3134C132.158 68.2203 131.783 67.9761 131.335 67.6832C131.189 67.8925 131.018 68.14 130.621 68.712C130.56 67.5647 130.489 66.7685 130.48 65.9723C130.469 64.881 131.076 64.2603 131.901 63.5339C132.964 62.597 133.628 61.2076 134.538 59.9059C134.375 59.8499 134.562 59.9144 134.75 59.9778C134.014 58.3484 134.373 57.9973 136.165 57.807C138.603 57.5469 141.01 57.0076 142.954 56.6703C143.666 54.4508 144.203 52.779 144.666 51.3367C143.738 52.0019 143.279 52.9239 142.965 55.338C142.54 54.4878 142.246 53.8988 141.951 53.3088C141.89 53.3321 141.829 53.3543 141.768 53.3775C142.063 54.1177 142.358 54.8579 142.695 55.7059C141.548 55.8022 141.733 54.7236 141.224 54.2065C141.377 54.768 141.53 55.3284 141.684 55.8899C141.594 55.9491 141.504 56.0084 141.414 56.0676C141.189 55.6171 140.784 55.172 140.772 54.7152C140.715 52.7642 141.101 50.9741 142.919 49.7972C143.468 49.4419 143.902 48.9068 144.278 48.3411C142.992 49.1839 141.484 49.7718 140.748 51.2151C139.877 52.926 139.779 54.6919 140.462 56.6016C140.297 56.3235 140.069 56.0644 139.975 55.763C138.946 52.4798 140.381 49.2727 143.477 47.3419C144.981 46.404 146.338 45.1922 147.631 43.9656C148.689 42.9611 149.472 41.7165 149.282 40.2361C150.623 39.9125 151.886 39.607 153.098 39.3141C151.853 40.3292 151.774 42.6956 149.174 43.0911C149.563 43.2518 149.719 43.3153 149.732 43.3206C149.196 44.0026 148.63 44.7206 148.066 45.4396C148.127 45.4861 148.189 45.5327 148.249 45.5792C149.352 44.6095 150.512 43.697 151.537 42.6512C152.234 41.9406 152.801 41.081 153.314 40.2213C153.8 39.4071 154.139 38.5051 154.507 37.7206C154.401 37.7956 154.133 37.9849 153.799 38.2218C153.634 37.748 153.474 37.2912 153.223 36.5701C152.959 38.3719 152.073 39.2855 150.491 39.3384C148.988 39.3881 147.342 39.7138 146.52 37.9077C145.988 38.0505 145.447 38.1943 144.575 38.428C145.432 38.6447 145.956 38.7758 146.626 38.945C145.671 39.4875 144.796 39.9845 143.858 40.5163C144.079 41.0429 144.261 41.4765 144.463 41.9586L143.451 42.0369V43.8926C143.192 43.1271 143.221 42.2907 142.03 42.4228C141.903 42.4376 141.727 42.0157 141.814 41.6319L140.439 41.0175C140.442 40.8769 140.444 40.7352 140.447 40.5935C141.709 40.6411 142.38 38.9926 143.888 39.6577C144.014 39.7127 144.318 39.3627 144.539 39.2009C144.298 39.0064 144.04 38.6341 143.82 38.6564C143.406 38.6976 143.012 38.9609 142.615 39.1396C142.018 39.4082 141.443 39.7518 140.82 39.9284C140.496 40.0204 139.999 39.939 139.739 39.7328C139.287 39.3754 139.653 36.9021 140.172 36.5077C141.604 35.4218 143.011 34.2946 144.509 33.3091C145.194 32.8586 146.074 32.7063 146.867 32.4187L146.826 32.4631C147.41 31.8752 147.92 31.1594 148.609 30.747C149.007 30.5091 149.696 30.7607 150.53 30.8083L148.512 25.7359C149.63 27.5621 151.414 28.9282 152.194 31.2101C152.301 30.6338 152.389 30.1612 152.477 29.6885C156.422 30.3663 159.124 35.4884 158.341 40.9065H156.772C158.794 42.205 157.953 43.5574 157.237 44.7195C156.791 45.4438 155.897 45.8911 155.204 46.4621C155.102 46.3384 154.999 46.2147 154.898 46.0899C155.449 45.6817 156 45.2725 156.39 44.9828C155.624 45.1361 154.717 45.3159 153.809 45.4967C153.807 45.4988 153.805 45.5009 153.803 45.503L153.801 45.5062C154.436 46.6799 155.101 46.8449 157.005 46.2496C156.864 46.5636 156.75 46.8153 156.637 47.0669C156.738 47.1145 156.839 47.1611 156.94 47.2076C157.293 46.4135 157.647 45.6194 158 44.8263C158.402 46.4114 157.914 47.2985 156.198 48.1074C154.366 48.9713 154.207 49.1299 153.813 50.55C153.228 49.3478 153.654 48.5663 154.479 48.0292C154.419 47.1061 153.063 46.6514 153.799 45.5062L153.795 45.4988L153.806 45.4967C153.835 45.4618 153.888 45.4237 153.88 45.4047C153.854 45.3476 153.821 45.2937 153.78 45.245C153.58 45.65 153.134 46.1227 153.224 46.4473C153.659 48.0239 153.056 49.425 152.767 50.7816C152.921 50.7816 153.359 50.7213 153.38 50.7911C153.506 51.2405 153.604 51.6973 153.676 52.1583C154.126 52.1012 154.76 52.023 155.302 51.9543C155.015 54.1336 154.653 56.1458 154.509 58.1739C154.361 60.2644 155.225 61.9901 157.092 63.0137C160.58 64.9286 162.377 67.9581 163.37 71.7045C163.749 73.1298 164.467 74.6271 165.462 75.6877C167.215 77.5572 169.661 77.2611 171.318 75.2944C172.737 73.6088 173.279 71.5681 173.446 69.4469C173.781 65.194 172.644 61.3863 169.894 58.0544C168.472 56.3319 167.106 54.5375 165.948 52.6331C164.935 50.9677 164.471 49.0718 165.012 47.0701C165.49 45.299 169.155 43.2064 170.925 43.7118C172.039 44.0301 172.788 44.729 172.938 45.8932C173.095 47.1103 172.563 48.0376 171.469 48.5938C170.879 48.9163 170.221 49.0919 169.549 49.1056C170.093 48.8117 170.637 48.5188 171.166 48.2333C169.467 47.7014 169.119 48.0176 168.615 50.5913C167.725 49.1257 168.198 47.8219 169.904 47.0321C170.673 46.6757 171.601 46.4801 171.639 45.4375C171.325 45.3719 170.957 45.4058 170.835 45.2493C170.065 44.2553 169.237 44.2479 168.2 44.8485C165.502 46.4082 164.585 49.5328 166.297 52.3561C167.335 54.068 168.686 55.6108 170.022 57.1186C173.204 60.7085 174.862 64.8197 174.534 69.6499C174.355 72.2617 173.661 74.7551 171.59 76.4734C170.596 77.2981 169.151 78.0616 167.944 78.0108C166.653 77.958 165.017 77.6376 164.23 76.1128C164.069 75.8008 163.751 75.5714 163.506 75.3028C163.508 75.2996 163.44 75.4773 163.373 75.656L163.206 75.6708V73.8415C162.947 74.441 162.836 74.6948 162.725 74.9486C162.664 74.9317 162.602 74.9147 162.541 74.8978C162.591 74.2412 162.639 73.5856 162.688 72.9289C162.629 72.9194 162.569 72.911 162.509 72.9004C162.42 73.3308 162.332 73.7601 162.243 74.1904C161.766 72.0703 162.345 69.8339 161.05 67.9052C161.328 69.0303 161.363 70.203 161.15 71.3428L159.676 75.399L158.248 72.1814C158.177 71.88 158.108 71.5797 158.041 71.2783C157.875 71.3206 157.707 71.3629 157.54 71.4052C157.791 72.3463 158.039 73.2885 158.285 74.2317L158.835 79.1919L160.3 81.7561C160.564 82.6845 160.834 83.6108 161.12 84.5329C161.551 85.9287 162.619 87.1637 163.542 88.3596C164.175 89.1802 164.393 89.7565 163.895 90.8118C163.462 91.7264 163.586 92.9171 163.532 93.9893C163.51 94.4365 163.666 94.8933 163.488 95.4072C163.212 94.4661 162.936 93.5251 162.659 92.585L162.338 92.677C162.856 94.6512 163.373 96.6264 163.889 98.6017C163.794 98.6418 163.699 98.6831 163.603 98.7233C163.266 98.4092 162.93 98.0962 162.445 97.6436C161.142 99.4719 159.286 99.9107 156.895 99.4571C157.753 99.0532 158.44 98.7296 159.128 98.406C159.109 98.3479 159.091 98.2897 159.073 98.2305C158.253 98.3341 157.433 98.4378 156.312 98.5795C156.625 98.24 156.687 98.1078 156.764 98.0983C160.414 97.65 162.259 95.1418 161.457 91.4335C161.199 90.2386 160.44 89.1538 159.926 88.0118C159.721 87.555 159.555 87.0802 159.271 86.9596L157.552 86.4341C157.822 87.151 158.014 87.6797 158.219 88.201C158.544 89.03 158.879 89.8548 159.21 90.6817C159.35 90.2006 159.489 89.7195 159.657 89.1368C161.244 90.6034 160.894 92.4211 160.693 94.1764C160.635 94.6797 160.344 95.1619 160.131 95.6409C159.664 96.6878 159.086 97.0695 157.909 96.3769C157.882 96.361 157.853 96.3462 157.827 96.3304L156.505 96.6243C156.291 96.8273 156.138 97.0875 156.066 97.374L156.022 97.743C156.031 98.6302 156.701 99.5776 156.647 100.546C156.846 100.557 157.047 100.568 157.448 100.591C156.867 101.232 156.363 101.788 155.81 102.4C156.392 103.444 157.242 104.06 158.52 103.712C160.44 103.191 162.645 102.969 162.669 100.057C162.746 100.127 162.821 100.19 162.896 100.249L163.345 99.7997L163.28 99.7119C163.651 99.3313 164.02 99.1103 164.131 98.7973C164.271 98.4018 164.23 97.9313 164.213 97.4946C164.147 95.8027 164.02 94.1119 164.005 92.4211C163.999 91.9294 164.196 91.3785 164.458 90.9524C165.033 90.0208 165.033 89.1051 164.21 88.459C162.063 86.7757 161.504 84.3457 160.875 81.9158C160.233 79.4373 160.365 77.0359 161.336 74.7752C162.28 75.7437 163.099 76.8012 164.122 77.5942C166.676 79.5758 169.899 79.396 172.101 77.0295C173.118 75.9383 174.013 74.5552 174.463 73.1436C176.233 67.6017 174.93 62.5674 171.426 58.0544M134.613 86.1158C132.791 87.5782 130.603 87.317 129.024 85.4697C130.311 85.2086 131.518 84.9633 132.679 84.7285C132.894 85.1219 133.186 85.6601 133.579 86.3812C133.955 85.7743 134.155 85.4528 134.353 85.1324C134.491 85.1451 134.626 85.1578 134.762 85.1705C134.719 85.493 134.797 85.9678 134.613 86.1148M149.717 66.9007C150.146 67.5415 150.079 68.0416 149.594 68.5397C149.176 68.9711 148.716 69.3613 148.131 69.9037C148.009 69.1963 147.922 68.6877 147.835 68.1801C147.507 69.0292 148.14 70.1987 146.664 70.5836C146.641 70.1712 146.619 69.7736 146.597 69.3771C146.557 69.3718 146.516 69.3655 146.476 69.3602C146.309 70.0369 146.142 70.7137 145.958 71.4581L146.808 71.2551C148.074 70.3838 149.341 69.5125 150.667 68.5999C151.555 69.4194 151.311 69.4533 150.418 70.6767C149.673 71.6981 148.547 71.6241 147.705 72.2892C147.892 71.9043 148.079 71.5194 148.407 70.8385C147.657 71.6378 147.134 72.194 146.613 72.7492C146.541 72.6931 146.469 72.636 146.398 72.58C146.544 72.2279 146.692 71.8758 146.839 71.5236C146.033 72.3389 145.227 73.1542 144.42 73.9684L146.264 73.3519C146.856 73.1933 147.449 73.0336 148.18 72.838C147.378 74.3078 147.057 74.5182 146.31 74.1841L145.403 75.2383C144.954 75.0934 144.529 74.957 144.105 74.8206C145.313 76.2418 145.309 77.9749 145.588 79.708C145.849 81.3311 146.748 82.8643 147.456 84.3965C147.837 85.2202 148.506 85.9371 147.833 87.2621C147.224 86.8634 146.662 86.4912 146.095 86.1253C145.903 86.0006 145.7 85.8906 145.503 85.7732C145.461 86.0175 145.419 86.2607 145.33 86.7788C144.572 86.1243 143.888 85.5353 143.205 84.9463C143.22 85.0944 143.242 85.3175 143.267 85.5575C141.993 85.2287 140.753 84.9083 139.447 84.571C139.451 84.5519 139.401 84.7592 139.303 85.1631C138.833 84.8015 138.439 84.498 138.046 84.1956C137.996 84.222 137.944 84.2485 137.892 84.2738C138.146 84.7031 138.399 85.1324 138.768 85.7552C137.869 85.8948 136.806 86.0619 135.673 86.2374C135.389 85.1515 135.219 84.1406 133.767 84.7095C133.453 84.8321 132.834 84.1702 132.285 83.8255C132.397 83.7525 132.758 83.5157 133.11 83.2862C132.678 82.8009 132.215 82.2796 131.752 81.7593C133.061 82.6 134.276 82.6338 135.661 82.066C136.128 81.8746 136.822 82.2119 137.405 82.3356C139.193 82.7152 140.961 83.2556 142.767 83.4512C144.277 83.614 144.631 82.84 143.826 81.4971C143.491 80.9367 143.002 80.4682 142.653 79.9163C142.225 79.2416 141.867 78.5216 141.53 77.9135C141.521 77.9368 141.387 78.2826 141.211 78.7309C140.725 78.0203 140.368 77.4388 141.766 77.0993C141.659 77.0042 141.551 76.909 141.445 76.8138C140.848 76.8561 140.112 77.1363 139.686 76.8857C139.039 76.5051 138.606 75.7575 138.106 75.1939C137.67 76.4268 139.958 77.3944 138.953 78.6283C138.489 77.8226 137.958 76.9862 137.516 76.1054C137.147 75.3684 136.883 74.5795 136.572 73.8119C136.678 73.759 136.783 73.7061 136.888 73.6533L137.423 73.9102C137.813 71.9001 139.271 70.6915 140.872 69.8403C143.258 68.5703 145.807 67.606 148.283 66.502C148.886 66.2335 149.305 66.2853 149.716 66.9017M131.255 68.4529C133.627 69.1952 133.759 69.3993 132.741 70.59L131.814 68.7258C131.494 69.5854 131.272 70.1818 131.05 70.7782C130.928 70.738 130.807 70.6968 130.685 70.6566C130.876 69.9238 131.065 69.1921 131.257 68.454M141.226 22.5553C140.972 21.3963 140.767 20.4584 140.562 19.5216C140.724 19.4867 140.887 19.4528 141.05 19.4179C142.013 20.2427 142.01 21.2155 141.226 22.5553ZM142.803 24.8435C141.723 23.8538 141.729 22.8926 142.475 21.8616C143.729 22.6758 142.872 23.7279 142.803 24.8435ZM143.903 24.4152C145.535 25.5329 143.942 26.7574 143.889 27.9269C143.063 26.7785 142.904 25.6133 143.903 24.4152ZM145.201 26.6168C146.691 27.8539 145.518 29.2159 145.438 30.6656C144.04 29.3078 144.475 27.9924 145.201 26.6168ZM146.54 30.877C146.374 30.9532 146.477 31.6109 146.448 32.1174C146.32 32.1258 146.095 32.1406 145.869 32.1554C146.037 31.1995 146.205 30.2426 146.42 29.0181C147.209 29.8905 147.602 30.3864 146.539 30.877M149.371 29.8313C148.139 29.2603 147.479 27.6519 147.694 25.5118C148.249 26.9424 148.835 28.4524 149.371 29.8313ZM158.122 33.8557C157.645 33.1621 157.47 32.2781 156.759 31.705C156.655 31.6214 156.803 31.226 156.833 30.9881C156.483 30.8876 156.024 30.7586 155.567 30.6285C155.576 30.4847 155.586 30.3399 155.595 30.195C156.183 30.1633 156.771 30.1326 157.359 30.1009L158.413 31.1562L157.993 32.8417L159.256 34.1063L160.098 34.9491L160.424 35.6047C159.21 36.0097 158.544 35.8056 158.56 35.0041C158.572 34.4595 158.385 34.2417 158.123 33.8579M160.25 39.203C159.101 39.8618 159.222 39.0042 159.213 38.3201C159.205 37.655 159.211 36.9899 159.211 36.31C160.261 36.1302 161.157 37.0272 161.9 39.0011C161.352 38.4005 160.805 37.7999 160.161 37.0925C160.217 38.4491 161.783 39.2739 160.91 40.6178C160.337 41.5018 159.491 41.8656 158.164 41.6552C160.198 41.0281 160.41 40.7511 160.25 39.203ZM156.954 48.67C157.545 49.3552 158.841 49.7485 157.735 51.1887C157.323 50.3904 156.933 49.6322 156.542 48.873C156.679 48.8053 156.817 48.7387 156.954 48.67ZM170.839 43.2677C171.113 42.5592 171.334 41.9872 171.554 41.4151C171.487 41.3823 171.421 41.3506 171.353 41.3178C171.244 41.4796 171.135 41.6414 170.781 42.1691C171.1 40.3144 170.852 38.9662 169.282 37.9437C171.313 40.99 170.752 43.1302 168.019 43.476C169.934 41.9808 169.949 41.9681 168.352 40.0268C167.966 39.5573 167.456 39.1914 166.993 38.7885C166.03 37.9511 165.823 36.9391 166.38 35.6734C166.276 37.6296 167.551 38.5665 169.067 39.3764C168.634 37.5662 166.376 36.4443 167.027 34.0767C167.437 34.8254 167.707 35.5381 168.166 36.0943C168.606 36.6283 168.926 37.1527 169.978 37.2035C171.288 37.2669 171.815 38.8118 172.093 40.0828C172.362 41.3136 172.068 42.4038 170.84 43.2677M157.588 103.201C158.11 102.57 158.549 102.134 158.859 101.621C159.001 101.387 158.889 100.999 158.892 100.682C158.699 100.84 158.525 101.041 158.306 101.146C158.134 101.228 157.906 101.192 157.703 101.208C157.65 101.097 157.599 100.987 157.546 100.876C157.934 100.674 158.335 100.28 158.705 100.307C159.856 100.394 160.944 100.467 161.674 99.3069C162.976 101.557 160.833 103.017 157.588 103.2" fill="white"/>
<path d="M98.9692 104.882C90.5958 105.187 82.1854 105.014 73.811 105.262C72.4859 105.302 71.1935 105.351 69.767 105.184C60.7215 105.196 64.3904 106.692 73.9748 106.48C81.4214 106.315 88.867 106.102 96.3147 106.002C98.3278 105.975 102.203 105.609 102.203 105.306C102.203 105.002 98.9692 104.881 98.9692 104.881M68.0498 25.1765C68.5063 25.3658 69.0114 25.1438 69.4859 25.1438C79.4401 25.1448 89.3954 24.8583 99.3464 25.3267C99.3464 25.3267 102.199 25.0919 102.199 24.7885C102.199 24.485 98.2665 23.9774 96.1996 23.9732C88.0206 23.9563 79.8406 23.9563 71.6617 23.9722C62.8244 23.9922 65.93 25.5276 68.0509 25.1765" fill="white"/>
</svg>
