<svg width="654" height="128" viewBox="0 0 654 128" fill="none" xmlns="http://www.w3.org/2000/svg">
<mask id="mask0_2676_2930" style="mask-type:luminance" maskUnits="userSpaceOnUse" x="0" y="0" width="654" height="128">
<path d="M653.161 0.623291H0.388672V127.623H653.161V0.623291Z" fill="white"/>
</mask>
<g mask="url(#mask0_2676_2930)">
<path d="M50.2028 127.623L48.9329 119.25C48.3134 115.838 48.0144 112.376 48.0399 108.909C48.0885 107.162 48.34 105.426 48.7891 103.737C50.0758 100.251 51.9925 97.0307 54.4437 94.2375C57.7917 90.8447 61.9549 87.2187 64.1885 84.554C66.0969 82.1237 67.4372 79.2973 68.1114 76.2817C68.6241 73.3879 68.7949 70.4438 68.6203 67.51L72.6492 73.0492C73.8465 70.9469 74.6002 68.6215 74.8639 66.2166C75.698 60.8541 72.5078 53.9649 72.4301 53.4937C72.957 53.6773 73.4638 53.9141 73.9427 54.2005L76.3977 55.3786C77.5192 55.9158 78.6478 56.4388 79.7622 56.9972C80.3296 51.2195 80.4312 45.4056 80.0662 39.6117C79.5208 34.4346 77.4176 29.5448 74.0346 25.5882C71.2214 22.1248 69.7418 20.8313 66.587 20.075C65.2856 19.7007 63.9044 19.7048 62.6052 20.0868C57.7823 21.8609 55.8739 24.9709 53.4448 26.7074L55.7514 28.2765C55.7514 28.2765 56.3781 28.8443 58.6164 27.7676C61.5238 26.3728 60.3787 26.8676 63.4181 25.4115C67.2302 23.5856 71.1437 25.5246 72.0131 31.1627C72.0683 31.3962 72.0601 31.6402 71.9895 31.8696C71.8905 31.9942 71.7738 32.1038 71.6432 32.1947C68.7957 34.217 66.16 36.5219 63.7762 39.0745C63.4542 39.6738 63.255 40.3313 63.1903 41.0085C63.1256 41.6858 63.1966 42.3691 63.3992 43.0185C65.588 50.4284 66.2053 48.6543 66.2053 59.2473C66.2053 65.1869 64.0566 67.7975 62.862 70.6413C62.3245 72.9136 62.0634 75.2426 62.0845 77.5776C61.231 81.9814 58.7172 85.8887 55.0634 88.491C51.9204 91.1958 42.5196 98.3747 41.0871 99.5057C38.9522 101.071 37.4546 103.356 36.8697 105.938C36.6635 110.416 38.049 114.823 40.7808 118.378C43.6762 121.697 46.8273 124.784 50.2051 127.611" fill="white"/>
<path d="M58.6028 124.459C57.9549 113.995 60.7233 109.241 64.5119 105.869C66.004 104.408 67.8241 103.326 69.8201 102.712C67.5589 104.666 65.7482 107.087 64.5129 109.808C63.2776 112.529 62.647 115.486 62.6647 118.474C62.5939 119.888 62.8495 121.298 63.4117 122.597C63.974 123.895 64.8277 125.047 65.9067 125.962C66.0949 123.783 66.5702 121.638 67.3203 119.584C68.4017 116.966 70.005 114.595 72.0325 112.617L72.3553 119.113C72.3 120.397 72.5213 121.678 73.0042 122.869C73.4872 124.06 74.2204 125.133 75.1543 126.016C75.1213 125.981 74.8668 124.419 74.8551 124.313C74.7721 121.546 75.6926 118.843 77.4468 116.703C78.262 115.468 81.9233 111.423 82.7103 109.981C83.9428 107.994 84.5594 105.687 84.482 103.351C84.482 102.484 84.5904 97.0104 84.482 96.928C86.3278 98.4783 87.5256 100.664 87.8394 103.054C88.2895 106.967 88.6287 109.328 88.6287 109.328C89.4824 107.457 90.1226 105.495 90.5372 103.48C90.9011 101.439 91.1371 99.3761 91.244 97.3049L93.0252 104.39C93.1995 105.332 93.4728 106.981 93.5954 107.9C95.209 103.466 95.9909 98.7717 95.902 94.0535C95.9373 94.0535 95.8831 94.0535 95.9208 94.0535C96.3971 95.3337 96.7521 96.6558 96.9811 98.0023C97.2167 99.555 97.3156 100.978 97.3156 100.978C97.2567 100.742 97.9659 99.5173 98.3052 98.2474C98.7412 96.5862 98.9994 94.8834 99.0756 93.1677C99.2453 90.2343 98.7269 83.6679 98.7269 82.5888C99.8705 83.7355 100.825 85.0564 101.554 86.5023C102.382 88.3587 103.091 90.2663 103.675 92.2134C104.18 87.9281 104.138 83.5957 103.55 79.321C103.022 76.1567 100.214 66.796 100.214 66.796C101.686 67.7078 102.976 68.8864 104.016 70.2712C105.72 73.0424 107.038 76.0321 107.937 79.1584C107.937 68.556 107.951 56.613 101.116 47.7494C98.0438 43.8299 94.0448 40.7361 89.4793 38.7468L90.8929 63.0569C89.5654 60.1835 88.0658 57.3927 86.4022 54.6999C86.4022 54.6999 85.3656 57.8193 85.1535 58.578C85.0768 58.8506 85.0458 59.134 85.0616 59.4168L86.1171 81.3731L85.9569 81.3613C85.9569 81.3613 80.0667 69.6775 79.7039 69.7034C78.0028 73.082 76.092 74.5758 76.1698 77.6764C76.2004 78.8544 76.1957 80.0136 76.2145 81.1775C76.2538 84.1619 76.2946 87.1392 76.337 90.1095C76.3637 92.1231 76.392 94.1384 76.4219 96.1552L70.1547 83.1684C70.1547 83.1684 61.2699 93.2643 58.2423 96.5698C49.0159 106.642 53.8247 116.891 55.2972 120.168C55.9888 121.874 57.1395 123.354 58.6216 124.445" fill="white"/>
<path d="M4.63281 66.445C7.08641 68.3278 9.9905 69.5349 13.0558 69.9461C17.6502 69.9461 22.5956 64.7368 22.5956 64.7368C21.2314 67.6442 18.39 75.7633 16.4698 77.667C15.6755 78.339 14.6639 78.6991 13.6236 78.6801C12.1752 78.4009 10.8015 77.8209 9.59126 76.9776C8.38104 76.1342 7.36124 75.0463 6.59779 73.7842C5.5199 71.4686 4.85491 68.9824 4.63281 66.4379" fill="white"/>
<path d="M113.688 64.5084V54.9003L119.227 57.492C118.522 53.9516 117.38 50.5122 115.829 47.2525C113.815 43.6263 111.557 40.1407 109.072 36.8197V36.6218L117.844 43.2683C117.844 43.2683 114.474 33.8039 109.996 29.325C107.41 26.7059 104.501 24.4287 101.337 22.5489C102.783 22.5721 104.224 22.7298 105.641 23.0201C107.239 23.433 108.812 23.9357 110.354 24.5257C107.839 21.3642 105.009 18.467 101.907 15.8788C95.2683 11.0305 87.373 8.1978 79.1662 7.71973C67.4635 7.71973 65.1074 13.9516 65.1074 13.9516L68.6415 15.0848C76.6836 17.7403 84.0932 22.0221 90.4094 27.664C100.949 37.9514 108.923 50.5724 113.688 64.5084Z" fill="white"/>
<path d="M77.5888 3.42019C77.5888 3.42019 63.0023 -0.712381 57.449 1.06411C55.0717 1.82512 53.0384 4.98699 51.5729 10.3918C51.5729 10.3918 48.8281 6.3865 46.2081 6.02602C42.5326 5.52653 38.2563 7.59046 37.4459 9.79575C36.8663 11.379 39.0268 12.4487 39.0739 13.9849C38.8105 15.4849 38.1457 16.8855 37.15 18.038C36.1544 19.1904 34.8652 20.0516 33.4193 20.5301C29.7485 21.6351 27.8448 21.1521 25.9741 21.9131C25.3492 22.1861 24.7662 22.5462 24.2424 22.9828C23.1894 23.8403 22.3477 24.9286 21.7826 26.1635C20.9254 28.0394 19.7816 29.7706 18.3922 31.295C15.7699 34.0799 8.21627 38.5306 4.83293 40.9503C3.52228 41.8352 2.29234 42.8341 1.15744 43.9354C0.755289 44.4221 0.513356 45.0212 0.464754 45.6506C0.464754 46.4069 1.4496 46.5577 1.4496 46.5577C1.4496 46.5577 5.08739 46.4164 6.26308 46.5577C6.47277 46.5813 6.94399 46.7509 6.80026 47.1962C4.97238 49.4282 3.02084 51.5559 0.95482 53.5694C0.95482 53.5694 0.38936 53.9158 0.38936 55.5203C0.382613 55.7617 0.425561 56.0019 0.515538 56.2261C0.605515 56.4502 0.740601 56.6535 0.91241 56.8232C4.26015 59.5056 7.90258 61.798 11.7692 63.6558C12.614 63.963 13.5272 64.0309 14.4081 63.8521C15.2891 63.6734 16.1035 63.2549 16.7618 62.6427C17.764 61.3433 18.6914 59.9879 19.5396 58.5832C20.4067 57.0117 21.5022 55.4802 22.4305 53.9111C22.8546 53.2043 23.1374 52.0592 26.5655 52.733C27.5951 52.9357 28.2854 51.7718 28.3349 51.1827C28.3564 50.1348 28.3225 49.0864 28.2336 48.0421L28.1912 46.0959C28.1623 45.7584 28.2505 45.4211 28.441 45.1409C28.6315 44.8607 28.9127 44.6547 29.2373 44.5574C32.5711 43.3299 35.4903 42.2932 37.5943 41.273C39.9809 40.2612 42.1175 38.7397 43.8544 36.8153C44.8961 35.0017 45.7216 33.0723 46.3142 31.0665C47.3524 33.8268 48.1786 36.6624 48.7857 39.5484C49.542 44.2064 49.4666 50.2898 46.8231 54.3658L43.9769 58.7646C45.5354 58.0568 46.9983 57.1552 48.331 56.081C49.9103 54.6559 51.3792 53.1129 52.7251 51.4655C52.5555 52.875 52.2942 54.272 51.9428 55.6475C50.9781 58.8415 49.2275 61.7424 46.8513 64.0846C44.4178 66.5161 41.5271 68.4418 38.3459 69.751C39.0527 70.3306 44.5424 68.3562 44.5518 68.3374C42.8379 72.1974 40.0767 75.4998 36.5812 77.8701C31.485 82.0144 25.4345 86.7007 22.6002 93.2412C20.6302 97.6631 19.4347 102.391 19.066 107.217C18.9278 113.15 20.2149 119.03 22.8193 124.363C22.8193 124.363 24.0115 119.438 25.1 116.451C26.0728 113.781 27.2317 111.183 28.5681 108.676C30.9242 112.816 36.2772 121.67 40.987 125.64C38.631 120.379 31.7983 105.547 31.8431 104.164C31.8761 103.158 43.1711 92.426 44.3091 91.4411C49.6185 86.2392 54.1425 80.2921 57.7388 73.787C59.4587 70.4555 62.7172 66.6669 61.1245 52.7637C60.3344 45.0868 57.8935 37.6715 53.9691 31.0264C52.6753 28.8548 51.6162 26.5517 50.8096 24.1561C50.5588 23.3879 50.5754 22.5575 50.8567 21.8C51.3656 20.9212 56.6291 15.7991 56.6291 15.7991L62.1682 10.5803C64.6096 8.51336 67.4804 7.0156 70.5724 6.19566C73.7531 5.51475 76.227 5.01762 77.405 4.78201C77.5025 4.75991 77.5946 4.71854 77.6758 4.66033C77.757 4.60212 77.8258 4.52826 77.878 4.44307C77.9303 4.35789 77.965 4.26312 77.98 4.16433C77.9951 4.06554 77.9903 3.96474 77.9658 3.86785C77.954 3.76468 77.9119 3.66732 77.8448 3.58806C77.7777 3.50881 77.6886 3.44885 77.5888 3.42019ZM22.1737 34.3509L24.3177 30.4727C24.4409 30.3072 24.5078 30.1065 24.5086 29.9002L24.3201 28.1355C24.3202 28.1002 24.3277 28.0652 24.3423 28.033C24.3569 28.0008 24.3781 27.9721 24.4046 27.9487C24.4311 27.9253 24.4623 27.9078 24.496 27.8974C24.5298 27.8869 24.5654 27.8838 24.6005 27.8881C24.6005 27.8881 28.5116 28.0648 29.831 28.2345C30.8323 28.3593 33.8764 29.0285 33.8764 29.0285L22.3716 34.4757C22.3505 34.4856 22.3273 34.49 22.304 34.4886C22.2808 34.4871 22.2582 34.4798 22.2385 34.4674C22.2188 34.455 22.2026 34.4378 22.1912 34.4174C22.1799 34.397 22.1739 34.3742 22.1737 34.3509Z" fill="white"/>
<path d="M299.482 70.7143V61.0543C294.843 58.8832 289.793 57.728 284.672 57.6663C276.468 57.6663 261.582 59.2472 261.582 79.2716C261.582 99.2959 275.137 99.5339 283.482 99.5339C286.826 99.7131 290.172 99.2268 293.327 98.1033C296.481 96.9797 299.381 95.2413 301.859 92.9887C301.966 92.8852 302.051 92.761 302.109 92.6237C302.166 92.4864 302.195 92.3388 302.194 92.19C302.194 90.6656 302.194 85.6801 302.194 81.703C302.194 79.9996 305.492 79.2763 305.492 79.2763H290.237C290.237 79.2763 293.7 79.8936 293.7 81.703C293.7 83.5125 293.7 88.3707 293.7 91.33C293.7 93.6484 288.738 96.6335 283.569 96.6335C277.707 96.6335 270.846 95.3848 270.846 79.2786C270.846 63.0075 279.469 60.5053 284.747 60.5053C290.025 60.5053 299.487 65.1633 299.487 70.726" fill="white"/>
<path d="M148.84 58.7408H166.93C166.93 58.7408 163.455 59.5183 163.455 61.8037C163.455 64.5532 170.664 82.1673 170.664 82.1673L181.321 56.9855L193.04 81.8422L198.624 61.7966C198.767 61.3109 198.742 60.7913 198.554 60.3213C198.366 59.8512 198.026 59.4581 197.587 59.2049C196.96 58.8813 196.262 58.7193 195.556 58.7337H208.595C208.595 58.7337 204.314 58.8209 203.4 61.7966C200.603 70.9264 191.619 100.363 191.619 100.363L179.259 72.988L168.167 100.377L153.623 61.8484C153.195 60.9358 152.52 60.1611 151.675 59.612C150.83 59.0628 149.848 58.761 148.84 58.7408Z" fill="white"/>
<path d="M221.472 99.4092H208.594C208.594 99.4092 212.451 99.9652 215.033 93.8653C217.615 87.7654 230.764 56.9973 230.764 56.9973C230.764 56.9973 242.309 83.1781 248.671 96.0353C249.185 97.02 249.95 97.8511 250.89 98.4437C251.829 99.0364 252.909 99.3695 254.019 99.4092L234.464 99.421C234.464 99.421 238.617 99.1005 238.617 96.1437C238.617 93.1868 227.937 71.8029 227.937 71.8029L218.192 95.2201C218.01 95.7208 217.958 96.26 218.041 96.7864C218.125 97.3129 218.342 97.8093 218.671 98.2287C219 98.6481 219.43 98.9766 219.922 99.1832C220.413 99.3898 220.949 99.4675 221.479 99.4092" fill="white"/>
<path d="M342.889 67.3591L342.868 57.7745C337.87 57.4 332.851 57.4 327.853 57.7745C325.353 58.1231 323.085 59.4213 321.518 61.3994C319.951 63.3774 319.206 65.8831 319.439 68.3958C319.439 82.2966 346.814 86.7002 338.698 94.8169C337.615 95.8186 336.344 96.5957 334.959 97.1032C333.574 97.6107 332.102 97.8386 330.628 97.7738C330.628 97.7738 320.968 97.8327 320.968 86.2619C319.555 88.2474 318.882 90.6646 319.064 93.0946C319.269 97.4062 324.413 100.365 331.368 100.365C338.323 100.365 346.485 95.6392 346.485 87.0866C346.485 76.4842 326.529 72.1301 326.529 65.9525C326.529 61.2238 331.189 60.3898 334.454 60.3898C335.944 60.3428 337.421 60.6809 338.741 61.3714C340.062 62.0619 341.182 63.0815 341.994 64.3315L342.889 67.3591Z" fill="white"/>
<path d="M397.251 70.8155V63.8086C397.251 63.8086 394.469 57.777 382.512 57.777C370.555 57.777 362.002 64.9913 362.002 79.3139C362.002 93.6366 371.876 100.382 382.512 100.382C393.147 100.382 398.99 89.603 398.99 89.603V82.2355C398.99 82.2355 396.764 97.9435 382.512 97.9435C368.26 97.9435 366.104 85.1547 366.104 79.3823C366.104 73.6099 368.535 59.7749 382.512 59.7749C396.488 59.7749 397.251 70.8155 397.251 70.8155Z" fill="white"/>
<path d="M610.091 96.0023L592.892 56.9973L576.672 96.0023C576.403 97.0137 575.796 97.9027 574.952 98.5222C574.109 99.1418 573.079 99.4547 572.033 99.4092H583.09C579.021 99.4092 579.672 97.0696 580.093 96.0023C581.271 93.0454 584.417 85.6002 584.417 85.6002H600.002C601.483 88.9676 602.699 92.4455 603.638 96.0023C603.638 96.4813 603.538 96.955 603.344 97.3929C603.15 97.8307 602.866 98.2229 602.511 98.5441C602.155 98.8652 601.736 99.1082 601.281 99.2572C600.826 99.4062 600.344 99.458 599.868 99.4092H614.4C611.41 99.4092 610.098 96.0023 610.098 96.0023M585.489 82.9637L592.475 65.8326C592.475 65.8326 595.773 74.6609 598.999 82.9637H585.489Z" fill="white"/>
<path d="M638.507 58.7407H625.646C625.646 58.7407 629.672 59.9188 629.672 62.7673C629.672 65.6158 629.684 87.6782 629.684 95.9881C629.684 98.1698 627.092 99.395 624.932 99.395H648.796L653.165 89.384C653.165 89.384 649.006 96.9541 646.711 96.9541H634.264V62.5552C634.344 61.4956 634.829 60.5076 635.619 59.797C636.409 59.0864 637.443 58.708 638.505 58.7407" fill="white"/>
<path d="M463.484 58.7407H482.988C482.988 58.7407 491.451 58.2977 491.451 70.8133C491.451 82.5466 474.902 80.0962 474.902 80.0962V79.6038C474.902 79.6038 487.071 79.764 487.071 70.8133C487.071 61.8625 484.315 60.4041 473.015 60.4041C473.015 60.4041 473.027 87.1409 473.027 95.9621C473.027 99.0745 477.47 99.4043 477.47 99.4043H464.057C464.057 99.4043 468.647 99.1994 468.647 95.9974V62.8191C468.656 62.0892 468.414 61.3783 467.963 60.8046C467.426 60.1392 466.743 59.6067 465.967 59.2487C465.19 58.8907 464.339 58.7169 463.484 58.7407Z" fill="white"/>
<path d="M519.751 58.7407H506.01C506.01 58.7407 510.59 59.768 510.59 62.5104C510.59 70.8557 510.571 87.6216 510.571 95.9904C510.571 98.7093 505.986 99.3973 505.986 99.3973H519.751C519.751 99.3973 514.954 98.6434 514.954 95.9904C514.954 87.9609 514.972 70.8204 514.972 62.5481C514.972 59.8386 519.753 58.7336 519.753 58.7336" fill="white"/>
<path d="M566.402 58.5358L557.953 58.8326H541.058L532.611 58.5358V64.6451C532.611 64.6451 532.611 60.6115 535.389 60.6115H547.306V96.0022C547.306 99.2348 542.717 99.4091 542.717 99.4091H556.273C556.273 99.4091 551.681 99.2348 551.684 96.0022C551.684 87.5533 551.684 60.6138 551.684 60.6138H562.854C566.4 60.6138 566.4 64.6451 566.4 64.6451L566.402 58.5358Z" fill="white"/>
<path d="M448.857 95.9904L431.657 56.9855L415.438 95.9904C415.17 96.8911 414.644 97.6936 413.925 98.2989C413.206 98.9043 412.326 99.2861 411.393 99.3973H421.856C417.787 99.3973 418.437 97.0577 418.859 95.9904C420.025 93.0359 423.182 85.5907 423.182 85.5907L424.25 82.9519L431.231 65.8231C431.231 65.8231 434.529 74.6514 437.76 82.9519L438.77 85.5907C440.251 88.9573 441.466 92.4345 442.406 95.9904C442.419 96.4561 442.335 96.9195 442.158 97.3504C441.98 97.7813 441.714 98.17 441.377 98.4914C441.04 98.8127 440.639 99.0595 440.2 99.2156C439.761 99.3716 439.294 99.4336 438.829 99.3973H453.164C450.174 99.3973 448.861 95.9904 448.861 95.9904" fill="white"/>
<path d="M411.39 99.3973H410.799C410.996 99.4143 411.193 99.4143 411.39 99.3973Z" fill="white"/>
</g>
</svg>
