<svg width="189" height="71" viewBox="0 0 189 71" fill="none" xmlns="http://www.w3.org/2000/svg">
<mask id="mask0_2616_665" style="mask-type:luminance" maskUnits="userSpaceOnUse" x="0" y="0" width="189" height="71">
<path d="M188.806 0.0383301H0.234375V70.2083H188.806V0.0383301Z" fill="white"/>
</mask>
<g mask="url(#mask0_2616_665)">
<path d="M89.0864 37.6479V0.038208H80.1727V37.6479C80.1045 39.5001 80.3148 41.3521 80.7967 43.1418C80.9497 43.7034 81.2161 44.2276 81.5796 44.6822C81.9431 45.1368 82.3959 45.512 82.9101 45.7847C84.2719 46.3473 85.7418 46.5998 87.2132 46.5239H89.0875L89.0864 37.6479Z" fill="#FEFEFE"/>
<path d="M180.976 23.9856H164.075L164.056 20.9567H180.976V23.9856ZM184.735 36.2383C183.938 39.8961 183.659 40.5595 181.677 41.7343C179.696 42.9092 177.09 43.4956 173.857 43.4956H160.327V33.7597H160.322V14.6674H160.329V3.06767H173.704C180.223 3.06767 183.482 5.83798 183.482 11.3786H185.516V5.67292C185.513 1.91645 183.295 0.038208 178.863 0.038208H151.488V46.5234H179.566C181.393 46.5234 182.776 46.1594 183.716 45.4315C184.753 44.5634 185.536 43.4318 185.984 42.1558L186.614 36.8006L184.735 36.2383Z" fill="#FEFEFE"/>
<path d="M108.796 26.4212L107.824 27.3816V46.5989H98.9141V0.0378124H100.712C102.199 -0.0375493 103.684 0.227407 105.053 0.812511C105.571 1.0875 106.028 1.46348 106.397 1.9182C106.766 2.37291 107.041 2.89712 107.204 3.45981C107.688 5.23966 107.898 7.08273 107.828 8.92583V22.4719L122.535 7.44358C124.428 5.34217 126.584 3.49265 128.948 1.94044C131.117 0.635066 133.612 -0.0249475 136.142 0.0378124H140.99V2.22488C138.508 2.17244 136.036 2.54165 133.679 3.31677C131.47 4.14101 129.476 5.45592 127.849 7.16242L120.801 14.3618L120.788 14.3509L108.796 26.4212ZM139.464 42.6129C137.045 41.1439 134.801 39.4038 132.777 37.4264L117.387 22.9419L111.436 28.9042L121.988 38.8404C125.429 42.0845 128.582 44.3065 131.45 45.5064C134.194 46.6816 137.145 47.2942 140.13 47.3081C141.98 47.3395 143.824 47.1017 145.605 46.6022V45.0473C143.886 44.8606 141.839 44.0491 139.465 42.6129" fill="#FEFEFE"/>
<path d="M42.143 54.8933L38.026 64.4272H35.3912L9.53683 10.4751V64.4272H5.05078V0.038208H15.8764L39.2975 48.9152L42.143 54.8933ZM60.5599 0.038208L41.8443 43.4213L44.6183 49.1647L60.6593 12.0403V47.8435C60.6593 55.3226 62.1055 60.6884 64.9979 63.9407C66.6068 65.7484 68.9107 67.0013 71.778 67.8049V0.038208H60.5599Z" fill="#FEFEFE"/>
<path d="M186.613 50.8105H80.1719V52.0673H186.613V50.8105Z" fill="white"/>
<path d="M80.1719 67.6005V56.2732H85.4676C87.9303 56.2732 89.2717 57.9372 89.2717 59.9245C89.2717 61.8937 87.9139 63.5747 85.4676 63.5747H82.5817V67.6005H80.1719ZM86.8117 59.9245C86.8141 59.7113 86.7716 59.4999 86.687 59.3042C86.6023 59.1084 86.4774 58.9328 86.3203 58.7885C86.1632 58.6443 85.9775 58.5348 85.7752 58.4672C85.573 58.3995 85.3588 58.3752 85.1465 58.3958H82.5806V61.4531H85.1465C85.3585 61.4721 85.572 61.4467 85.7735 61.3784C85.975 61.3102 86.1601 61.2006 86.3168 61.0567C86.4736 60.9128 86.5985 60.7378 86.6837 60.5428C86.769 60.3479 86.8125 60.1373 86.8117 59.9245Z" fill="white"/>
<path d="M100.574 67.6005L98.3489 63.5747H96.5817V67.6005H94.1719V56.2732H99.4676C101.828 56.2732 103.271 57.8188 103.271 59.9245C103.319 60.6869 103.097 61.4419 102.644 62.0568C102.19 62.6718 101.535 63.1075 100.793 63.2875L103.339 67.6005H100.574ZM100.812 59.9245C100.811 59.709 100.766 59.496 100.678 59.2992C100.59 59.1024 100.462 58.9263 100.302 58.7822C100.142 58.6381 99.953 58.5293 99.748 58.4627C99.5431 58.3961 99.3265 58.3734 99.1122 58.3958H96.5817V61.4531H99.1122C99.3265 61.4756 99.5431 61.4528 99.748 61.3863C99.953 61.3197 100.142 61.2109 100.302 61.0668C100.462 60.9227 100.59 60.7465 100.678 60.5498C100.766 60.353 100.811 60.14 100.812 59.9245Z" fill="white"/>
<path d="M108.488 67.5984V56.2711H116.503V58.3949H110.9V60.7877H116.384V62.9104H110.9V65.4763H116.503V67.599L108.488 67.5984Z" fill="white"/>
<path d="M121.254 61.9441C121.254 58.4637 123.885 56.085 127.281 56.085C128.251 56.0571 129.209 56.3017 130.047 56.7911C130.884 57.2805 131.568 57.995 132.02 58.8535L129.949 59.8723C129.693 59.3834 129.31 58.9725 128.841 58.6827C128.372 58.3928 127.833 58.2348 127.281 58.2251C126.325 58.27 125.423 58.6815 124.762 59.3741C124.101 60.0666 123.732 60.9871 123.732 61.9444C123.732 62.9017 124.101 63.8222 124.762 64.5148C125.423 65.2073 126.325 65.6188 127.281 65.6637C127.833 65.6574 128.374 65.5008 128.844 65.2106C129.314 64.9204 129.696 64.5076 129.949 64.0166L132.02 65.0173C131.568 65.8764 130.884 66.5923 130.047 67.0842C129.21 67.5761 128.252 67.8245 127.281 67.8016C123.885 67.8016 121.254 65.4245 121.254 61.9425" fill="white"/>
<path d="M136.327 61.9442C136.315 60.7707 136.652 59.6202 137.296 58.6389C137.94 57.6576 138.86 56.8897 139.941 56.4329C141.022 55.9761 142.215 55.8509 143.367 56.0733C144.519 56.2957 145.579 56.8557 146.413 57.682C147.246 58.5083 147.815 59.5636 148.047 60.714C148.279 61.8643 148.164 63.0577 147.716 64.1425C147.269 65.2273 146.509 66.1545 145.533 66.8063C144.557 67.4581 143.409 67.8052 142.236 67.8033C141.456 67.8341 140.678 67.704 139.95 67.4211C139.223 67.1382 138.561 66.7086 138.007 66.1589C137.453 65.6093 137.017 64.9515 136.728 64.2263C136.439 63.5012 136.303 62.7244 136.327 61.9442ZM145.684 61.9442C145.684 59.8215 144.325 58.2257 142.236 58.2257C140.146 58.2257 138.807 59.8215 138.807 61.9442C138.807 64.0504 140.148 65.6643 142.236 65.6643C144.323 65.6643 145.684 64.0504 145.684 61.9442Z" fill="white"/>
<path d="M153.266 67.6005V56.2732H158.561C161.024 56.2732 162.365 57.9372 162.365 59.9245C162.365 61.8937 161.008 63.5747 158.561 63.5747H155.674V67.6005H153.266ZM159.905 59.9245C159.908 59.7113 159.865 59.4999 159.781 59.3042C159.696 59.1084 159.571 58.9328 159.414 58.7885C159.257 58.6443 159.071 58.5348 158.869 58.4672C158.667 58.3995 158.453 58.3752 158.24 58.3958H155.674V61.4531H158.24C158.452 61.4721 158.666 61.4467 158.867 61.3784C159.069 61.3102 159.254 61.2006 159.411 61.0567C159.567 60.9128 159.692 60.7378 159.777 60.5428C159.863 60.3479 159.906 60.1373 159.905 59.9245Z" fill="white"/>
<path d="M169.678 56.2711H167.266V67.5984H169.678V56.2711Z" fill="white"/>
<path d="M174.78 61.9442C174.768 60.7707 175.106 59.6202 175.749 58.6389C176.393 57.6576 177.313 56.8897 178.394 56.4329C179.475 55.9761 180.668 55.8509 181.82 56.0733C182.972 56.2957 184.032 56.8557 184.866 57.682C185.699 58.5083 186.268 59.5636 186.5 60.714C186.732 61.8643 186.617 63.0577 186.169 64.1425C185.722 65.2273 184.962 66.1545 183.986 66.8063C183.01 67.4581 181.862 67.8052 180.689 67.8033C179.909 67.8341 179.131 67.704 178.403 67.4211C177.676 67.1382 177.014 66.7086 176.46 66.1589C175.906 65.6093 175.471 64.9515 175.182 64.2263C174.893 63.5012 174.756 62.7244 174.78 61.9442ZM184.138 61.9442C184.138 59.8215 182.778 58.2257 180.689 58.2257C178.6 58.2257 177.26 59.8215 177.26 61.9442C177.26 64.0504 178.601 65.6643 180.689 65.6643C182.777 65.6643 184.138 64.0504 184.138 61.9442Z" fill="white"/>
</g>
</svg>
