<svg width="389" height="136" viewBox="0 0 389 136" fill="none" xmlns="http://www.w3.org/2000/svg">
<mask id="mask0_2594_435" style="mask-type:luminance" maskUnits="userSpaceOnUse" x="0" y="0" width="389" height="136">
<path d="M388.752 0H0.179688V136H388.752V0Z" fill="white"/>
</mask>
<g mask="url(#mask0_2594_435)">
<path d="M71.8772 136.001C71.6506 135.441 71.068 135.532 70.6396 135.392C69.2734 135.008 67.9971 134.357 66.8847 133.475C65.7724 132.594 64.8462 131.501 64.16 130.259C63.4738 129.017 63.0412 127.65 62.8873 126.24C62.7335 124.829 62.8615 123.402 63.2639 122.041C64.1208 119.286 66.0289 116.98 68.5746 115.622C71.1204 114.264 74.0986 113.964 76.8639 114.788C77.7967 115.065 78.747 115.279 79.7085 115.429C80.8562 115.617 82.0338 115.44 83.0753 114.922C84.1168 114.405 84.9696 113.574 85.5135 112.546C86.0616 111.603 86.2915 110.508 86.169 109.424C86.0465 108.341 85.5782 107.325 84.8335 106.528C84.1069 105.658 83.1193 105.044 82.017 104.779C80.9146 104.514 79.7562 104.612 78.7135 105.057C76.7512 106.042 74.5544 106.464 72.3668 106.276C70.6292 105.97 69.0422 105.096 67.8547 103.792C66.6672 102.487 65.9462 100.825 65.8048 99.066C65.7172 97.3053 66.2235 95.5662 67.2424 94.1277C68.2613 92.6891 69.7339 91.6343 71.4239 91.1327C71.8296 91.008 72.2467 90.9061 72.6615 90.8177C77.7705 89.6503 79.7516 87.1728 79.5658 82.0365C79.0661 79.0342 78.914 75.9844 79.1124 72.9472C79.7865 69.4063 81.7373 66.2361 84.5946 64.0386C87.4518 61.8412 91.0165 60.7694 94.6119 61.0268C98.2363 61.2556 101.642 62.8393 104.152 65.4635C106.663 68.0877 108.094 71.5603 108.162 75.1912C108.162 75.5494 108.151 75.9098 108.144 76.2679C108.034 76.9139 108.059 77.5757 108.216 78.2117C108.374 78.8477 108.661 79.4443 109.06 79.9641C109.459 80.4839 109.961 80.9158 110.535 81.2326C111.109 81.5494 111.741 81.7444 112.394 81.8054C114.265 82.2017 115.996 83.0879 117.412 84.3733C118.828 85.6586 119.877 87.297 120.452 89.1208C121.026 90.9446 121.106 92.8884 120.683 94.7532C120.26 96.618 119.349 98.3369 118.043 99.7341C116.738 101.131 115.085 102.157 113.253 102.705C111.421 103.254 109.476 103.306 107.618 102.856C105.759 102.406 104.053 101.471 102.675 100.145C101.297 98.8198 100.295 97.152 99.7731 95.3125C98.472 90.9378 97.5064 90.1988 92.8235 90.0991C90.5064 89.9565 88.186 90.3201 86.0235 91.1644C84.4806 91.7959 83.2354 92.99 82.5397 94.505C81.8441 96.02 81.7501 97.7427 82.2767 99.3244C82.7806 100.545 83.7267 101.53 84.9257 102.083C86.1248 102.635 87.4883 102.715 88.7435 102.305C89.6142 102.041 90.463 101.71 91.2821 101.315C92.9936 100.49 94.923 100.232 96.791 100.577C98.6589 100.922 100.369 101.853 101.673 103.234C102.921 104.549 103.718 106.229 103.946 108.028C104.175 109.827 103.823 111.652 102.942 113.237C102.013 114.891 100.58 116.204 98.8532 116.988C97.1259 117.771 95.1938 117.982 93.338 117.591C92.9799 117.526 92.6285 117.412 92.2704 117.349C91.3493 117.062 90.3714 117.007 89.4239 117.19C88.4765 117.372 87.5888 117.786 86.8401 118.394C86.0913 119.003 85.5047 119.787 85.1324 120.677C84.7602 121.567 84.6139 122.536 84.7065 123.496C84.8141 125.29 84.5882 127.089 84.0402 128.8C83.4375 130.389 82.471 131.815 81.2181 132.963C79.9652 134.111 78.4608 134.95 76.8254 135.412C76.2768 135.584 75.5741 135.394 75.182 135.997L71.8772 136.001Z" fill="white"/>
<path d="M60.1892 54.6968C60.18 57.1921 59.3073 59.6074 57.7195 61.5324C56.1316 63.4574 53.9264 64.7735 51.4784 65.2571C48.868 65.7839 46.1556 65.3863 43.8062 64.1325C41.4568 62.8786 39.6168 60.8465 38.6014 58.3846C37.971 56.6367 37.2376 54.9277 36.4051 53.2665C35.2887 50.9041 33.3904 49.0001 31.0315 47.8766C28.6725 46.7531 25.9978 46.4791 23.4601 47.1011C21.7872 47.4172 20.1324 47.8228 18.5029 48.3161C16.9978 48.7988 15.4121 48.9791 13.837 48.8469C12.2619 48.7146 10.7285 48.2722 9.32501 47.5453C7.92147 46.8183 6.67548 45.8212 5.65867 44.611C4.64186 43.4009 3.8743 42.0017 3.40012 40.4938C2.50957 37.5455 2.82246 34.3645 4.2704 31.6461C5.71834 28.9278 8.18357 26.8932 11.1272 25.9871C12.6284 25.495 14.2121 25.3045 15.7872 25.4264C17.3624 25.5483 18.8979 25.9803 20.3055 26.6975C21.7132 27.4147 22.9652 28.403 23.9897 29.6056C25.0142 30.8082 25.791 32.2014 26.2753 33.7052C26.7905 35.3021 27.4153 36.8614 28.1453 38.3722C29.2219 40.9261 31.1864 43.0041 33.6758 44.2223C36.1652 45.4406 39.0114 45.7168 41.6886 44.9999C43.2436 44.7234 44.7668 44.2678 46.3081 43.9187C47.9477 43.54 49.6511 43.5312 51.2946 43.8928C52.9381 44.2545 54.4804 44.9775 55.8095 46.0096C57.1387 47.0416 58.2214 48.3567 58.9789 49.8593C59.7365 51.362 60.1499 53.0144 60.1892 54.6968ZM26.91 27.9954C28.4775 28.2235 30.0751 28.1279 31.6042 27.7144C36.668 26.8077 39.669 28.621 41.1242 33.4717C41.3146 34.1018 41.4552 34.7478 41.6773 35.3666C42.2819 37.0671 43.4843 38.4898 45.0603 39.3693C46.6363 40.2488 48.4783 40.5252 50.243 40.147C51.6553 39.8789 52.9575 39.2013 53.9875 38.1985C55.0174 37.1957 55.7295 35.9121 56.0352 34.5075C56.3409 33.1028 56.2265 31.6393 55.7065 30.2992C55.1864 28.9591 54.2835 27.8016 53.1104 26.9709C50.3768 24.8334 50.54 22.3015 53.4866 20.4701C54.0012 20.1505 54.5452 19.8739 55.0416 19.5294C57.3548 17.96 58.9535 15.5396 59.489 12.796C60.0244 10.0525 59.4532 7.20847 57.8998 4.88447C56.3308 2.57699 53.9507 0.944698 51.2329 0.312191C48.5152 -0.320316 45.6589 0.0933546 43.2322 1.47091C41.6002 2.38997 40.2394 3.72303 39.2868 5.33575C38.3343 6.94848 37.8238 8.78383 37.8068 10.6568C37.7898 12.5297 38.2669 14.374 39.1899 16.0038C40.113 17.6335 41.4495 18.9911 43.0645 19.9397C44.2265 20.4606 45.214 21.305 45.9092 22.3719C47.0085 24.5411 45.9704 26.2002 43.5541 26.1096C42.3342 26.1221 41.1359 25.788 40.0985 25.1459C39.0612 24.5039 38.2276 23.5803 37.6948 22.4829C37.0715 21.1228 36.5943 19.7004 36.2713 18.2397C35.7344 16.3568 34.5268 14.7357 32.8765 13.6821C31.2262 12.6286 29.2474 12.2155 27.3135 12.5209C25.4773 12.7826 23.793 13.6858 22.5591 15.0705C21.3252 16.4552 20.6213 18.232 20.5722 20.086C20.5231 21.9401 21.1318 23.7517 22.2906 25.1998C23.4494 26.6479 25.0835 27.6391 26.9032 27.9977L26.91 27.9954Z" fill="white"/>
<path d="M107.988 48.8587C106.026 48.9199 104.079 48.4984 102.319 47.6313C100.558 46.7642 99.037 45.478 97.8896 43.8856C96.6592 42.0956 95.2179 40.4602 93.5966 39.0146C91.949 37.4975 89.8778 36.5191 87.6595 36.2101C85.4413 35.9011 83.1815 36.2761 81.182 37.2851C79.915 37.8563 78.7454 38.6315 77.5259 39.307C75.9557 40.2072 74.1154 40.5159 72.3374 40.1775C70.5594 39.8392 68.9611 38.8759 67.8314 37.4619C66.6727 36.0871 66.0937 34.3158 66.2168 32.522C66.3399 30.7283 67.1553 29.0526 68.491 27.8489C71.7346 25.036 71.347 22.0939 67.7248 19.689C65.6568 18.4129 64.0994 16.4545 63.3217 14.1522C62.5441 11.8499 62.595 9.34824 63.4658 7.0795C64.3249 4.83009 65.8988 2.92493 67.9455 1.65653C69.9922 0.388125 72.3988 -0.173385 74.7955 0.0582838C77.1922 0.289952 79.4466 1.30199 81.2126 2.93893C82.9785 4.57587 84.1582 6.74716 84.5707 9.11948C84.616 9.34615 84.6296 9.59554 84.675 9.83128C85.3391 13.1927 87.395 14.3283 90.6522 13.1406C91.6627 12.6838 92.7569 12.4414 93.8658 12.4286C94.9747 12.4158 96.0742 12.633 97.0949 13.0664C98.1157 13.4998 99.0356 14.14 99.7966 14.9467C100.558 15.7534 101.143 16.709 101.516 17.7533C102.183 19.6818 102.066 21.7946 101.192 23.6384C100.319 25.4822 98.7569 26.91 96.8424 27.6155C94.9275 28.3576 92.8013 28.339 90.8996 27.5635C88.998 26.7881 87.4651 25.3144 86.6152 23.4448C86.5081 23.2277 86.4245 22.9998 86.3659 22.7649C85.2756 17.4518 80.502 18.4015 77.8772 21.2802C77.5091 21.619 77.2151 22.0302 77.0136 22.4882C76.8121 22.9461 76.7076 23.4407 76.7065 23.941C76.7054 24.4413 76.8079 24.9364 77.0074 25.3952C77.2069 25.8539 77.4992 26.2665 77.8659 26.6069C79.0972 27.936 80.4099 29.1873 81.7963 30.3536C83.5473 31.9428 85.7597 32.9316 88.1117 33.1763C90.4636 33.4209 92.8322 32.9085 94.8727 31.7137C96.8158 30.5995 98.6526 29.3097 100.36 27.8603C102.253 26.4061 104.537 25.55 106.92 25.4014C109.302 25.2528 111.675 25.8186 113.734 27.0262C115.772 28.1973 117.408 29.9578 118.428 32.0763C119.447 34.1947 119.801 36.572 119.444 38.8956C119.087 41.2193 118.035 43.3804 116.427 45.0951C114.819 46.8098 112.729 47.9978 110.433 48.5028C109.626 48.6688 108.809 48.7876 107.988 48.8587ZM76.184 65.0314C78.3017 64.9965 80.3617 64.3363 82.1051 63.1337C83.8485 61.9311 85.1974 60.2399 85.9822 58.2728C86.7669 56.3056 86.9526 54.1503 86.5157 52.078C86.0788 50.0056 85.0388 48.1087 83.5267 46.6257C82.0146 45.1428 80.0978 44.1401 78.0173 43.7437C75.9368 43.3473 73.7856 43.5749 71.8341 44.3979C69.8826 45.2208 68.218 46.6025 67.0496 48.369C65.8813 50.1355 65.2614 52.208 65.2678 54.3259C65.3048 57.1902 66.4735 59.9235 68.5187 61.9293C70.5639 63.935 73.3195 65.0502 76.184 65.0314ZM122.85 61.7515C122.806 59.7393 121.973 57.8249 120.531 56.4213C119.089 55.0176 117.152 54.2371 115.14 54.2481C113.127 54.2591 111.199 55.0608 109.772 56.4801C108.345 57.8995 107.533 59.8228 107.512 61.8354C107.555 63.8476 108.388 65.7619 109.831 67.1656C111.273 68.5693 113.21 69.3497 115.222 69.3387C117.235 69.3277 119.162 68.5261 120.589 67.1067C122.016 65.6874 122.828 63.764 122.85 61.7515Z" fill="white"/>
<path d="M46.9947 136.001C46.5957 135.45 45.9225 135.493 45.3695 135.308C43.5859 134.775 41.9741 133.782 40.6962 132.428C39.4183 131.075 38.5195 129.408 38.09 127.597C37.6606 125.786 37.7158 123.894 38.25 122.11C38.7841 120.327 39.7785 118.716 41.1331 117.439C41.9289 116.7 42.6855 115.919 43.3997 115.1C46.5731 111.222 46.6501 108.527 43.4859 104.658C41.6944 102.772 40.7089 100.261 40.7387 97.6604C40.8209 96.5586 41.1308 95.4858 41.6489 94.5099C42.167 93.534 42.882 92.6762 43.7487 91.9909C44.6154 91.3055 45.6149 90.8074 46.6839 90.5282C47.753 90.249 48.8683 90.1946 49.9595 90.3686C51.0049 90.5102 52.0114 90.8599 52.9194 91.3969C53.8275 91.9339 54.6188 92.6474 55.2465 93.4953C55.8742 94.3432 56.3257 95.3083 56.5743 96.3336C56.8228 97.3588 56.8635 98.4235 56.6937 99.4648C56.3532 101.238 55.5332 102.884 54.3228 104.225C50.7097 108.445 50.848 111.988 54.8713 115.909C57.1419 117.721 58.7604 120.222 59.4817 123.036C59.9888 125.694 59.4778 128.446 58.0502 130.745C56.6225 133.044 54.3826 134.722 51.7751 135.446C51.2809 135.595 50.6417 135.446 50.3017 136.001H46.9947ZM35.8313 63.2026C33.6117 62.0299 31.1281 61.4469 28.6185 61.5096C26.1089 61.5724 23.6575 62.2786 21.4992 63.5608C17.9632 65.4262 16.1181 64.506 15.4608 60.7252C15.1698 58.7465 14.1183 56.9594 12.53 55.744C10.9418 54.5286 8.94201 53.9807 6.95606 54.2169C4.9701 54.4531 3.15464 55.4548 1.89578 57.0088C0.636921 58.5629 0.0339902 60.5467 0.215202 62.5385C0.32874 63.6295 0.678651 64.6828 1.24061 65.6249C1.80257 66.567 2.56307 67.3753 3.46918 67.9936C4.37529 68.6119 5.40524 69.0254 6.48738 69.2052C7.56951 69.385 8.67782 69.3268 9.7352 69.0347C13.7404 67.924 15.1525 70.8752 14.6992 73.636C14.2945 75.8611 14.458 78.1524 15.1743 80.2976C15.8907 82.4427 17.1368 84.3723 18.7973 85.9078C20.3906 87.3833 21.8138 89.0323 23.0405 90.8242C23.9003 91.9891 24.4326 93.3629 24.582 94.803C24.7315 96.2431 24.4928 97.697 23.8905 99.0137C23.023 100.667 21.9214 102.187 20.6197 103.527C19.8682 104.371 19.2946 105.357 18.9332 106.428C18.5717 107.499 18.4299 108.631 18.5163 109.758C18.6026 110.885 18.9153 111.983 19.4356 112.986C19.9559 113.989 20.6732 114.877 21.5445 115.597C23.2139 117.042 25.3611 117.815 27.5688 117.766C29.7764 117.716 31.8868 116.848 33.4899 115.329C35.0917 113.795 36.0449 111.706 36.1532 109.491C36.2616 107.275 35.5169 105.103 34.0724 103.42C33.0167 102.306 32.2455 100.954 31.8244 99.4778C31.4034 98.0019 31.3448 96.4461 31.6539 94.9428C32.7272 91.9013 34.7782 89.3011 37.486 87.5488C39.3674 86.2081 40.9093 84.4462 41.9888 82.4037C43.0683 80.3612 43.6555 78.0946 43.7035 75.7848C43.7023 73.1606 42.9637 70.5895 41.5718 68.3648C40.1799 66.1401 38.1908 64.3514 35.8313 63.2026ZM19.5997 94.1766C19.6656 92.3511 19.1849 90.5474 18.2191 88.9969C17.2533 87.4464 15.8464 86.2196 14.1789 85.4739C12.5113 84.7281 10.6591 84.4973 8.8595 84.8111C7.05993 85.1249 5.39507 85.9689 4.07832 87.235C2.76156 88.5011 1.8529 90.1316 1.46883 91.9175C1.08475 93.7034 1.24277 95.5633 1.9226 97.2588C2.60243 98.9543 3.77311 100.408 5.28458 101.434C6.79604 102.46 8.57942 103.011 10.4061 103.017C11.5983 103.071 12.7891 102.882 13.906 102.461C15.0229 102.041 16.0426 101.398 16.9032 100.571C17.7638 99.744 18.4472 98.7508 18.9119 97.6515C19.3767 96.5523 19.613 95.37 19.6065 94.1766H19.5997ZM60.0892 78.1944C60.1337 76.7877 59.7581 75.3996 59.0102 74.2073C58.2623 73.0151 57.1762 72.0728 55.8903 71.5007C54.6045 70.9285 53.1773 70.7525 51.791 70.9952C50.4046 71.2378 49.1221 71.888 48.107 72.8628C47.0919 73.8377 46.3903 75.0928 46.0917 76.4682C45.7932 77.8436 45.9113 79.2768 46.4309 80.5847C46.9506 81.8926 47.8482 83.016 49.0092 83.8116C50.1702 84.6071 51.5419 85.0386 52.9492 85.051C53.868 85.0696 54.7815 84.907 55.6375 84.5725C56.4934 84.2379 57.2751 83.738 57.9377 83.1012C58.6004 82.4645 59.1311 81.7033 59.4994 80.8614C59.8678 80.0194 60.0667 79.1132 60.0847 78.1944H60.0892Z" fill="white"/>
<path d="M175.917 52.6676C174.711 52.6676 173.285 52.2007 172.36 52.8943C171.517 53.5335 172.233 54.9343 171.971 55.9611C171.971 56.0019 171.878 56.0269 171.807 56.0745C171.297 56.1493 171.127 55.6778 170.839 55.4171C169.314 54.0004 167.481 52.9548 165.486 52.3614C163.49 51.768 161.384 51.6428 159.332 51.9956C157.28 52.3484 155.337 53.1698 153.654 54.3957C151.971 55.6216 150.593 57.2192 149.628 59.0642C148.432 61.4564 147.723 64.0625 147.542 66.731C147.362 69.3996 147.713 72.0774 148.576 74.6089C149.184 76.9705 150.46 79.107 152.25 80.7627C154.041 82.4184 156.27 83.5234 158.672 83.9454C161.095 84.5404 163.637 84.432 166.001 83.6331C168.364 82.8341 170.451 81.3777 172.016 79.4347C172.016 81.0214 172.1 82.0822 172 83.1362C171.979 84.846 171.359 86.4943 170.249 87.7949C169.139 89.0954 167.608 89.9661 165.923 90.2558C162.677 90.8914 159.315 90.5327 156.276 89.2267C154.936 88.6895 154.032 86.5883 152.577 87.4134C151.407 88.0684 150.872 89.8115 150.054 91.0717C149.996 91.1774 149.929 91.2775 149.852 91.371C148.903 92.3683 149.236 93.0279 150.285 93.7781C154.874 96.8707 160.449 98.1456 165.925 97.3549C167.499 97.1995 169.053 96.8874 170.565 96.4234C173.445 95.7401 176.004 94.0899 177.814 91.7482C179.625 89.4064 180.577 86.5148 180.514 83.5555C180.627 74.7654 180.559 65.9729 180.568 57.1805C180.575 52.6563 180.57 52.6381 175.917 52.6676ZM169.273 75.561C167.867 76.4852 166.214 76.9639 164.532 76.9345C162.849 76.9052 161.214 76.3692 159.841 75.3965C158.467 74.4238 157.419 73.0595 156.833 71.482C156.247 69.9044 156.15 68.1867 156.555 66.5532C156.639 64.9718 157.221 63.4575 158.219 62.2277C159.216 60.9979 160.578 60.1157 162.108 59.7079C163.813 59.2101 165.628 59.2306 167.322 59.7669C171.057 60.9206 172.045 62.2353 172.045 66.0387V68.1898C171.972 69.0833 171.98 69.9816 172.07 70.8735C172.524 73.2852 171.141 74.5704 169.273 75.57V75.561ZM213.215 54.6873C209.82 52.4332 205.737 51.4564 201.69 51.9308C197.643 52.4053 193.896 54.3 191.115 57.278C188.365 60.4955 186.876 64.6017 186.926 68.8339C186.975 73.0661 188.558 77.1365 191.382 80.2892C197.169 86.1962 208.307 87.0892 215.912 82.2612C217.816 81.0531 217.818 81.0508 216.501 79.1378C215.887 78.247 215.214 77.3901 214.656 76.4676C214.149 75.6244 213.7 75.4137 212.814 76.0823C210.85 77.4336 208.559 78.2343 206.181 78.4011C204.157 78.6977 202.091 78.3169 200.305 77.3179C198.52 76.3189 197.114 74.7577 196.308 72.8772C195.925 71.8096 195.916 71.2656 197.371 71.3042C200.841 71.3926 204.316 71.3336 207.797 71.3314C211.392 71.3314 214.985 71.3314 218.58 71.3314C219.19 71.3314 220.013 71.5852 220.04 70.5085C220.198 64.2231 218.68 58.5927 213.215 54.6963V54.6873ZM210.311 65.5491C208.128 65.4698 205.941 65.5287 203.756 65.5287C201.571 65.5287 199.386 65.5015 197.201 65.54C196.192 65.5582 195.757 65.3632 196.067 64.2186C196.515 62.607 197.49 61.1921 198.837 60.1998C200.183 59.2075 201.823 58.6951 203.495 58.7445C205.221 58.5602 206.958 58.9735 208.417 59.9152C209.875 60.857 210.966 62.2703 211.508 63.9194C211.816 65.0278 211.683 65.6194 210.311 65.5605V65.5491ZM256.719 83.0024C256.719 84.3171 256.247 84.6345 255.021 84.5733C253.255 84.4789 251.485 84.4789 249.719 84.5733C248.384 84.6503 248.101 84.1199 248.112 82.9208C248.169 77.4151 248.128 71.9093 248.142 66.4036C248.142 63.8287 248.142 61.1314 245.293 59.9437C243.905 59.3666 242.389 59.1674 240.9 59.3665C239.41 59.5656 238 60.1558 236.813 61.077C236.103 61.5151 235.528 62.1405 235.151 62.8843C234.774 63.6282 234.61 64.4616 234.676 65.293C234.823 71.1546 234.676 77.0207 234.762 82.8845C234.78 84.2604 234.34 84.6503 232.996 84.5733C231.183 84.469 229.34 84.5188 227.513 84.5573C226.629 84.5777 226.182 84.3783 226.187 83.3741C226.216 73.5005 226.216 63.627 226.187 53.7534C226.187 52.892 226.516 52.6019 227.37 52.62C229.258 52.6586 231.155 52.7198 233.037 52.6019C234.447 52.5135 234.898 53.0099 234.748 54.3314C234.593 54.9936 234.692 55.6899 235.025 56.2829C236.653 54.7369 238.586 53.5464 240.699 52.7871C242.812 52.0277 245.061 51.7161 247.301 51.8721C248.548 51.82 249.791 52.0281 250.953 52.4829C252.115 52.9378 253.17 53.6295 254.05 54.5141C254.93 55.3986 255.616 56.4566 256.065 57.6208C256.514 58.7851 256.716 60.03 256.658 61.2764C256.746 68.5411 256.655 75.7831 256.719 83.0228V83.0024ZM312.617 53.8327C312.59 63.6987 312.59 73.5655 312.617 83.4331C312.617 84.4621 312.121 84.6027 311.257 84.5891C309.369 84.5551 307.479 84.5188 305.59 84.6004C304.391 84.6526 303.934 84.2604 304.04 83.0727C304.197 82.3474 304.097 81.5901 303.757 80.9307C302.139 82.4449 300.231 83.6159 298.149 84.3728C296.066 85.1297 293.852 85.457 291.639 85.3349C285.746 85.0878 282.217 81.6651 282.167 75.9032C282.103 68.668 282.183 61.4306 282.119 54.1954C282.108 52.8671 282.607 52.5792 283.819 52.6381C285.522 52.7352 287.23 52.7352 288.933 52.6381C290.293 52.552 290.705 52.9645 290.687 54.3291C290.61 59.8892 290.653 65.4517 290.655 71.0118C290.655 75.051 291.669 76.8462 294.361 77.6078C296.058 77.9754 297.822 77.8832 299.471 77.3409C301.12 76.7985 302.594 75.8257 303.741 74.5228C304.048 73.9377 304.16 73.2698 304.061 72.6165C304.061 66.5781 304.119 60.5375 304.029 54.4968C304.006 52.9646 304.496 52.5316 305.987 52.6336C307.746 52.7538 309.519 52.6926 311.284 52.6495C312.182 52.6246 312.619 52.8308 312.617 53.8327ZM346.889 74.5364C347.036 76.4464 346.574 78.3538 345.57 79.9851C344.566 81.6164 343.071 82.8877 341.3 83.6167C338.641 84.8578 335.727 85.452 332.795 85.3507C328.082 85.4353 323.455 84.0868 319.526 81.4838C318.497 80.7811 318.166 80.1237 318.973 79.0153C319.957 77.6553 320.467 75.5927 321.765 74.9195C323.125 74.21 324.417 76.2546 325.873 76.8824C328.569 78.1805 331.553 78.7695 334.54 78.5938C335.453 78.5371 336.341 78.2677 337.131 77.8072C337.588 77.5676 337.965 77.1996 338.215 76.7485C338.465 76.2974 338.577 75.7829 338.539 75.2686C338.473 74.2304 337.705 73.7136 336.85 73.3351C335.259 72.7258 333.607 72.2917 331.922 72.0408C329.827 71.6709 327.764 71.1405 325.75 70.4542C323.92 69.9771 322.299 68.9081 321.139 67.4137C319.98 65.9194 319.347 64.0835 319.34 62.1921C319.245 60.3306 319.742 58.487 320.76 56.9256C321.779 55.3643 323.265 54.1657 325.007 53.5018C328.203 52.1094 331.705 51.5634 335.174 51.9163C338.642 52.2692 341.962 53.5092 344.813 55.5169C345.473 55.9362 345.774 56.4235 345.239 57.1352C345.142 57.2873 345.053 57.4447 344.974 57.6067C344.19 58.9667 343.723 60.8458 342.539 61.5167C341.198 62.2783 340.046 60.2678 338.625 59.7623C336.109 58.6513 333.322 58.3045 330.61 58.7649C329.705 58.9182 328.877 59.3661 328.253 60.0388C328.007 60.2465 327.821 60.515 327.712 60.8174C327.603 61.1198 327.576 61.4455 327.633 61.7619C327.689 62.0782 327.828 62.3741 328.035 62.6199C328.242 62.8657 328.51 63.0527 328.813 63.1623C330.367 63.8647 332.021 64.3234 333.715 64.5223C336.053 64.9294 338.349 65.5423 340.579 66.3537C342.355 66.8831 343.92 67.9576 345.053 69.4252C346.185 70.8928 346.828 72.6792 346.889 74.5319V74.5364ZM273.748 53.9415C273.717 63.7441 273.717 73.5459 273.748 83.347C273.748 84.2763 273.44 84.6208 272.484 84.5959C270.475 84.546 268.463 84.5211 266.457 84.5959C265.262 84.6457 265.049 84.1425 265.058 83.1089C265.099 78.2673 265.076 73.428 265.076 68.5864C265.076 63.8038 265.117 59.0234 265.049 54.243C265.031 52.9918 265.4 52.5589 266.69 52.6246C268.571 52.7221 270.464 52.6903 272.357 52.6246C273.336 52.6065 273.753 52.8829 273.748 53.9369V53.9415ZM388.609 73.1855C388.11 76.5604 386.408 79.6412 383.816 81.8598C381.224 84.0784 377.918 85.2852 374.506 85.2578C373.615 85.3235 372.795 85.353 371.997 85.353C369.245 85.4171 366.509 84.9021 363.968 83.8411C361.528 82.8338 359.438 81.1296 357.961 78.9413C356.483 76.7531 355.683 74.1779 355.661 71.5376C355.274 66.6484 355.332 61.6346 355.389 56.7839C355.419 54.184 355.45 47.2979 355.414 44.6459C355.414 43.8911 355.414 43.134 355.414 42.3792C355.414 41.3819 355.428 40.3506 355.398 39.3238H355.439C356.003 39.3102 356.488 39.2966 356.906 39.2966C357.239 39.2889 357.572 39.3056 357.903 39.3464C357.988 40.1618 358.017 40.9819 357.991 41.8012V52.2279C357.991 57.754 357.991 63.2801 357.991 68.8063C357.95 70.8366 358.256 72.859 358.898 74.7857C359.556 76.8664 360.763 78.7307 362.393 80.1817C364.023 81.6328 366.015 82.6168 368.157 83.0297C369.496 83.3329 370.865 83.485 372.237 83.4829C373.341 83.4821 374.443 83.3804 375.529 83.1792C382.401 81.9053 386.374 76.9255 386.429 69.5203C386.499 60.1408 386.492 47.5926 386.404 39.7952C386.4 39.6264 386.407 39.4576 386.427 39.2898C386.552 39.2925 386.678 39.3015 386.803 39.317C387.434 39.3829 388.068 39.4154 388.702 39.4144V43.2473C388.702 50.3851 388.723 61.723 388.75 68.8607V69.0715C388.822 70.4427 388.775 71.8177 388.612 73.181L388.609 73.1855ZM274.503 44.2764C274.463 45.6148 273.907 46.8857 272.95 47.8222C271.993 48.7588 270.71 49.2882 269.371 49.2994C268.029 49.2863 266.745 48.7468 265.796 47.7968C264.848 46.8468 264.31 45.5623 264.299 44.2198C264.371 42.9128 264.943 41.6838 265.896 40.7864C266.849 39.8889 268.11 39.3916 269.419 39.3971C270.728 39.4026 271.985 39.9106 272.93 40.816C273.875 41.7215 274.437 42.9554 274.499 44.2629L274.503 44.2764Z" fill="white"/>
</g>
</svg>
