<svg width="585" height="42" viewBox="0 0 585 42" fill="none" xmlns="http://www.w3.org/2000/svg">
<g opacity="0.999184">
<path fill-rule="evenodd" clip-rule="evenodd" d="M19.7856 1.83834C26.5247 1.83834 33.0049 4.57929 33.0049 12.3203C33.0049 16.9985 30.2152 22.2537 23.9076 22.882C26.2551 23.6511 28.3436 25.8585 29.5768 27.806C29.7457 28.0761 33.0799 33.3624 35.1732 35.9729C37.5697 39.0245 39.1544 40.1443 42.0508 40.1876V40.745H36.6393C30.5596 40.745 26.1386 39.4298 23.5866 34.9838C22.2343 32.6287 19.7279 27.1252 18.9544 25.4635C17.8757 23.1435 16.6342 21.9657 15.1915 21.7181V21.1893H16.8892C19.8774 21.1583 22.9161 19.6329 23.9076 14.7641C24.0377 14.0875 24.1602 13.193 24.1135 12.0732C23.8906 6.75734 21.2087 4.37917 17.5583 4.29051C16.0839 4.22677 14.0394 4.28842 13.3419 4.27162V36.6949C13.3786 38.631 14.9562 40.19 16.9125 40.1894H17.605L17.6134 40.745H0.714361L0.72302 40.1894H1.42654C3.36294 40.1894 4.93578 38.6447 4.98482 36.7213V5.88487C4.9481 3.94896 3.36949 2.39001 1.43021 2.3929H0.721693L0.711994 1.84019L19.7856 1.83834ZM90.0844 21.2924C90.0844 33.7816 81.5668 41.5226 68.2172 41.5226C54.8678 41.5226 46.3504 33.7816 46.3504 21.2924C46.3504 8.80241 54.8678 1.06063 68.2172 1.06063C81.5668 1.06063 90.0844 8.80241 90.0844 21.2924ZM80.9614 21.291C80.9614 10.2525 76.0514 3.39758 68.215 3.39758C60.3803 3.39758 55.469 10.2525 55.469 21.291C55.469 32.3291 60.3803 39.1835 68.215 39.1835C76.0514 39.1835 80.9614 32.3291 80.9614 21.291ZM127.993 40.7463H99.2168L99.2254 40.1905H99.9292C101.875 40.1905 103.452 38.6318 103.489 36.6956V5.88879C103.452 3.95289 101.873 2.39394 99.9279 2.39394H99.2254L99.2157 1.83834H116.1L116.092 2.39394H115.389C113.443 2.39394 111.865 3.95289 111.827 5.88879V38.3703H119.124C124.675 38.3703 128.279 34.9205 130.002 29.4045H130.558L127.993 40.7463ZM172.927 36.9645C174.13 39.2388 176.033 40.1876 177.671 40.1876H178.136V40.7434H160.427V40.1923H160.915C162.351 40.1923 163.912 38.9282 163.064 36.7037L160.328 29.836H147.285L144.442 36.7037C143.529 38.9282 145.133 40.1931 146.568 40.1931H147.057V40.7439H135.139V40.1884H135.639C137.218 40.1884 139.135 39.265 140.316 37.0568L153.169 8.00383C153.564 7.15838 155.766 2.34038 155.902 0.722412H156.402L172.927 36.9645ZM159.395 27.4934L153.958 13.8456L148.263 27.4934H159.395ZM228.51 1.83736L228.502 2.39295H227.476C225.617 2.39295 224.106 3.87111 224.046 5.71572V34.4335C224.046 38.6214 224.688 41.5242 224.688 41.5242H224.183L196.099 14.7825V36.8389C196.143 38.6974 197.661 40.1913 199.53 40.1913H200.556L200.564 40.7472H183.717L183.724 40.1913H184.751C186.625 40.1913 188.146 38.689 188.182 36.8237V7.95015C188.182 3.81812 187.535 1.00713 187.535 1.00713H188.083L216.122 27.7381V5.76293C216.088 3.89733 214.567 2.39425 212.692 2.39425H211.667L211.658 1.83866L228.51 1.83736ZM257.298 1.84097C270.428 1.84097 278.609 9.28999 278.609 21.3083C278.609 33.3049 270.428 40.7455 257.298 40.7455H237.132L237.142 40.1894H237.844C239.788 40.1894 241.365 38.6344 241.405 36.7017V5.56954C241.405 3.78185 239.704 2.3892 237.865 2.3892H237.161L237.153 1.83834L257.298 1.84097ZM249.748 38.3806H256.623C264.589 38.3806 269.547 31.8411 269.547 21.3103C269.547 10.7465 264.568 4.18676 256.623 4.18676H249.749L249.748 38.3806ZM335.571 10.2479V9.66213C335.577 6.41673 333.544 4.32345 330.292 4.2151H320.789V20.3862H328.158C330.886 20.3345 332.878 18.3301 332.871 15.623V15.1417L333.414 15.1346V27.9795L332.871 27.9729V27.4916C332.878 24.8075 330.918 22.8147 328.228 22.7305H320.791V36.6968C320.827 38.6325 322.406 40.1914 324.351 40.1914H325.054L325.063 40.7475H308.177L308.187 40.1914H308.889C310.834 40.1914 312.413 38.6325 312.45 36.6968V5.70741C312.45 3.85519 310.783 2.39119 308.898 2.39119H308.194L308.186 1.83849H329.495C331.891 1.81698 335.094 1.26244 336.128 0.827508V10.2539L335.571 10.2479ZM366.056 1.83834C372.795 1.83834 379.276 4.57929 379.276 12.3203C379.276 16.9985 376.486 22.2537 370.178 22.882C372.526 23.6511 374.614 25.8585 375.848 27.806C376.017 28.0761 379.351 33.3624 381.444 35.9729C383.84 39.0245 385.425 40.1443 388.322 40.1876V40.745H382.91C376.831 40.745 372.409 39.4298 369.857 34.9838C368.505 32.6287 365.999 27.1252 365.226 25.4635C364.147 23.1435 362.905 21.9657 361.462 21.7181V21.1893H363.16C366.148 21.1583 369.187 19.6329 370.178 14.7641C370.309 14.0875 370.431 13.193 370.384 12.0732C370.161 6.75734 367.479 4.37917 363.829 4.29051C362.355 4.22677 360.31 4.28842 359.613 4.27162V36.6949C359.649 38.631 361.227 40.19 363.183 40.1894H363.876L363.884 40.745H346.985L346.994 40.1894H347.697C349.634 40.1894 351.207 38.6447 351.256 36.7213V5.88487C351.219 3.94896 349.64 2.39001 347.701 2.3929H346.993L346.983 1.84019L366.056 1.83834ZM427.142 36.9645C428.344 39.2388 430.248 40.1876 431.885 40.1876H432.35V40.7434H414.642V40.1923H415.129C416.565 40.1923 418.126 38.9282 417.278 36.7037L414.542 29.836H401.499L398.657 36.7037C397.744 38.9282 399.347 40.1931 400.782 40.1931H401.271V40.7439H389.353V40.1884H389.854C391.433 40.1884 393.349 39.265 394.53 37.0568L407.383 8.00383C407.779 7.15838 409.98 2.34038 410.116 0.722412H410.617L427.142 36.9645ZM413.605 27.4939L408.168 13.846L402.473 27.4939H413.605ZM460.824 20.7998C464.129 22.9463 466.051 25.8604 465.814 30.0158C465.477 37.256 460.017 41.5223 451.13 41.5223C446.145 41.5223 441.475 40.238 439.446 38.1479C438.527 35.8248 439.31 31.1374 440.764 28.7128H441.253C440.807 34.5074 445.066 39.2879 451.733 39.1801C456.566 39.0917 459.417 36.4134 459.413 32.9314C459.417 30.6771 457.957 29.1735 454.97 27.1911L445.286 20.7649C441.461 18.2272 439.561 14.842 439.966 10.791C440.439 5.03632 444.656 1.06063 451.667 1.06063C453.455 1.06063 456.697 1.30904 459.236 1.6309H462.727L461.998 9.80053H461.463C461.455 5.94157 458.329 3.40286 453.628 3.40286C449.252 3.40286 446.488 5.76425 446.353 8.74837C446.218 10.9371 447.896 12.403 450.225 13.9158L460.824 20.7998ZM492.833 40.7438H475.949L475.958 40.1882H476.661C478.606 40.1882 480.185 38.6287 480.222 36.6931V5.86076C480.174 3.93535 478.6 2.3882 476.662 2.3882H475.96L475.95 1.83261H492.833L492.825 2.3882H492.121C490.188 2.3882 488.617 3.92906 488.561 5.8487V36.6931C488.598 38.6287 490.177 40.1882 492.122 40.1882H492.825L492.833 40.7438ZM531.746 40.7459H502.968L502.977 40.1901H503.68C505.626 40.1901 507.204 38.6314 507.241 36.6952V5.70845C507.115 3.85544 505.574 2.39066 503.688 2.39066H502.985L502.977 1.83821H524.284C526.68 1.81671 529.885 1.26243 530.919 0.827508V10.5448L530.358 10.5364V9.88322C530.365 6.53841 528.262 4.35357 524.928 4.21376H515.577V20.3849H522.945C525.675 20.3332 527.667 18.3291 527.658 15.6217V15.1403L528.201 15.133V27.9782L527.658 27.9716V27.4902C527.665 24.806 525.707 22.8131 523.015 22.7292H515.576V38.3699H522.873C528.425 38.3699 532.029 34.9201 533.751 29.4041H534.308L531.746 40.7459ZM562.62 1.83643C569.359 1.83643 575.84 4.57738 575.84 12.3184C575.84 16.9966 573.05 22.2518 566.742 22.8801C569.09 23.6492 571.179 25.8566 572.411 27.804C572.581 28.0742 575.915 33.3605 578.008 35.971C580.405 39.0226 581.989 40.1424 584.886 40.1857V40.7431H579.474C573.394 40.7431 568.973 39.4279 566.421 34.9818C565.069 32.6267 562.563 27.1233 561.791 25.4616C560.711 23.1416 559.469 21.9638 558.026 21.7162V21.1874H559.724C562.712 21.1564 565.751 19.631 566.742 14.7621C566.872 14.0856 566.995 13.1911 566.948 12.0713C566.725 6.75543 564.044 4.37726 560.393 4.2886C558.919 4.22486 556.874 4.28651 556.177 4.26971V36.693C556.213 38.6291 557.791 40.1881 559.747 40.1875H560.44L560.448 40.7431H543.549L543.558 40.1875H544.261C546.198 40.1875 547.771 38.6428 547.82 36.7194V5.88296C547.783 3.94705 546.204 2.3881 544.265 2.39098H543.556L543.547 1.83828L562.62 1.83643Z" fill="white"/>
</g>
</svg>
