<svg width="528" height="110" viewBox="0 0 528 110" fill="none" xmlns="http://www.w3.org/2000/svg">
<path d="M187.74 54.088V53.9648C187.74 41.8337 178.38 32.5353 164.833 32.5353H148.021V75.6406H164.833C178.38 75.6406 187.74 66.219 187.74 54.088ZM177.826 54.2111C177.826 61.8469 172.591 67.0811 164.833 67.0811H157.505V41.0948H164.833C172.591 41.0948 177.826 46.4522 177.826 54.088V54.2111Z" fill="white"/>
<path d="M236.524 75.6406L225.994 60.2458C231.475 58.2137 235.231 53.8416 235.231 46.8832V46.7601C235.231 37.8927 229.135 32.5353 218.974 32.5353H199.269V75.6406H208.752V61.8469H216.203L225.44 75.6406H236.524ZM225.625 47.3759C225.625 51.009 222.977 53.4722 218.359 53.4722H208.752V41.0948H218.174C222.792 41.0948 225.625 43.1885 225.625 47.2527V47.3759Z" fill="white"/>
<path d="M255.469 75.6406V65.7879H245.494V75.6406H255.469Z" fill="white"/>
<path d="M323.202 47.5606V47.4374C323.202 38.6316 316.983 32.5353 306.699 32.5353H289.088V75.6406H298.571V62.709H305.776C315.443 62.709 323.202 57.5364 323.202 47.5606ZM313.596 47.7453C313.596 51.4401 310.825 54.2727 306.083 54.2727H298.571V41.0948H305.899C310.64 41.0948 313.596 43.3732 313.596 47.6222V47.7453Z" fill="white"/>
<path d="M377.205 54.088V53.9648C377.205 41.7106 367.66 31.7964 354.359 31.7964C341.058 31.7964 331.39 41.8337 331.39 54.088V54.2111C331.39 66.4653 340.935 76.3795 354.236 76.3795C367.537 76.3795 377.205 66.3422 377.205 54.088ZM367.291 54.2111C367.291 61.6006 361.995 67.6353 354.359 67.6353C346.724 67.6353 341.305 61.4774 341.305 54.088V53.9648C341.305 46.5753 346.6 40.5406 354.236 40.5406C361.872 40.5406 367.291 46.6985 367.291 54.088V54.2111Z" fill="white"/>
<path d="M431.802 75.6406V32.5353H421.58L410.249 50.7627L398.919 32.5353H388.696V75.6406H397.995V47.6837L410.003 65.9111H410.249L422.38 47.499V75.6406H431.802Z" fill="white"/>
<path d="M479.351 47.5606V47.4374C479.351 38.6316 473.131 32.5353 462.848 32.5353H445.236V75.6406H454.719V62.709H461.924C471.592 62.709 479.351 57.5364 479.351 47.5606ZM469.744 47.7453C469.744 51.4401 466.973 54.2727 462.232 54.2727H454.719V41.0948H462.047C466.789 41.0948 469.744 43.3732 469.744 47.6222V47.7453Z" fill="white"/>
<path d="M527.115 75.6406L508.641 32.2274H499.897L481.423 75.6406H491.091L495.032 65.9727H513.259L517.201 75.6406H527.115ZM509.873 57.5979H498.419L504.146 43.6195L509.873 57.5979Z" fill="white"/>
<g clip-path="url(#clip0_1441_1640)">
<path d="M4.76795 65.7903C10.5189 71.9183 19.5525 71.8548 20.3668 71.8421H53.3711L53.3711 38.3028H29.0822C28.0644 38.2647 18.9036 38.074 13.318 44.4309C10.5443 47.5967 9.18295 51.7414 9.22112 56.8142C10.6843 59.1282 12.6946 60.5903 14.6285 61.5057C13.5343 55.4157 14.3232 50.7752 16.9951 47.7111C21.1683 42.918 28.8023 43.2358 28.8659 43.2358H48.3963L48.3963 66.9091H20.2522C20.1759 66.9091 12.6946 67.0616 8.34321 62.3956C5.79854 59.6622 4.75523 55.6954 5.23871 50.6099C5.7222 45.6006 7.74521 41.6466 11.2314 38.8495C19.6034 32.1493 33.8026 33.8021 33.9426 33.8148L34.0952 33.8403H47.6583C59.4656 33.8403 62.6973 23.987 62.7609 18.7489V0.28833L48.409 0.28833V24.9151C48.409 24.9151 53.3456 24.0506 53.3456 18.5709V5.22132L57.8242 5.22132V18.698C57.7988 19.7406 57.3408 28.8946 47.6583 28.8946H34.3879C32.5684 28.6911 17.7457 27.3053 8.15236 34.9718C3.58468 38.6334 0.950951 43.7444 0.327508 50.1267C-0.308659 56.6998 1.17997 61.9761 4.76795 65.7903Z" fill="white"/>
<path d="M47.8995 81.5302C47.6833 81.5302 34.3746 81.4539 26.6898 81.4539C17.0836 81.4539 12.1215 75.7199 11.918 75.4656L11.9689 75.4275C19.2593 76.8133 28.4837 76.559 28.5219 76.559C35.3416 76.559 47.2252 76.6099 52.5436 76.6226C52.5436 76.6226 51.7802 76.9404 49.9226 78.8094C48.5739 80.1571 47.9123 81.5174 47.9123 81.5174L47.8995 81.5302Z" fill="url(#paint0_linear_1441_1640)"/>
<path d="M53.3585 0.28833V18.5709C53.3585 24.0506 48.46 24.9151 48.4219 24.9151V0.28833L53.3585 0.28833Z" fill="url(#paint1_linear_1441_1640)"/>
<path d="M28.904 43.2358C28.8277 43.2358 21.2064 42.918 17.0331 47.7111C14.3612 50.7751 13.5597 55.4157 14.6666 61.5056C12.7199 60.5902 10.7096 59.1281 9.25919 56.8142C9.20829 51.7541 10.5697 47.5967 13.3561 44.4309C18.9289 38.074 28.1024 38.252 29.1203 38.3028L28.9295 43.2358H28.904Z" fill="url(#paint2_linear_1441_1640)"/>
</g>
<g clip-path="url(#clip1_1441_1640)">
<path d="M106.568 44.4563C100.817 38.3282 91.7835 38.3918 90.9692 38.4045L57.9649 38.4045L57.9649 71.9437L82.2537 71.9437C83.2716 71.9819 92.4324 72.1726 98.0179 65.8157C100.792 62.6499 102.153 58.5052 102.115 53.4323C100.652 51.1184 98.6414 49.6563 96.7074 48.7409C97.8016 54.8309 97.0128 59.4714 94.3409 62.5355C90.1676 67.3286 82.5336 67.0108 82.47 67.0108L62.9397 67.0108L62.9397 43.3375L91.0837 43.3375C91.16 43.3375 98.6414 43.1849 102.993 47.8509C105.537 50.5844 106.581 54.5512 106.097 59.6367C105.614 64.646 103.591 68.6 100.105 71.397C91.7326 78.0973 77.5333 76.4445 77.3934 76.4317L77.2407 76.4063L63.6776 76.4063C51.8704 76.4063 48.6387 86.2596 48.575 91.4977L48.575 109.958L62.927 109.958L62.927 85.3315C62.927 85.3315 57.9903 86.196 57.9903 91.6757L57.9903 105.025L53.5117 105.025L53.5117 91.5485C53.5371 90.506 53.9952 81.352 63.6776 81.352L76.9481 81.352C78.7675 81.5554 93.5902 82.9413 103.184 75.2748C107.751 71.6132 110.385 66.5022 111.008 60.1198C111.645 53.5468 110.156 48.2705 106.568 44.4563Z" fill="white"/>
<path d="M63.4364 28.7164C63.6527 28.7164 76.9613 28.7927 84.6462 28.7927C94.2523 28.7927 99.2144 34.5267 99.418 34.7809L99.3671 34.8191C92.0766 33.4333 82.8522 33.6876 82.814 33.6876C75.9943 33.6876 64.1107 33.6367 58.7924 33.624C58.7924 33.624 59.5558 33.3061 61.4134 31.4372C62.7621 30.0895 63.4237 28.7291 63.4237 28.7291L63.4364 28.7164Z" fill="url(#paint3_linear_1441_1640)"/>
<path d="M57.9774 109.958L57.9774 91.6757C57.9774 86.196 62.8759 85.3315 62.9141 85.3315L62.9141 109.958L57.9774 109.958Z" fill="url(#paint4_linear_1441_1640)"/>
<path d="M82.4319 67.0108C82.5083 67.0108 90.1295 67.3286 94.3028 62.5355C96.9747 59.4715 97.7763 54.8309 96.6693 48.7409C98.616 49.6563 100.626 51.1184 102.077 53.4324C102.128 58.4925 100.766 62.6499 97.9798 65.8157C92.407 72.1726 83.2335 71.9946 82.2156 71.9438L82.4065 67.0108L82.4319 67.0108Z" fill="url(#paint5_linear_1441_1640)"/>
</g>
<defs>
<linearGradient id="paint0_linear_1441_1640" x1="56.9574" y1="78.5628" x2="27.0671" y2="78.6095" gradientUnits="userSpaceOnUse">
<stop/>
<stop offset="1" stop-color="white"/>
</linearGradient>
<linearGradient id="paint1_linear_1441_1640" x1="50.9369" y1="-3.36734" x2="37.0294" y2="2.82767" gradientUnits="userSpaceOnUse">
<stop stop-color="white" stop-opacity="0"/>
<stop offset="1"/>
</linearGradient>
<linearGradient id="paint2_linear_1441_1640" x1="19.5222" y1="39.907" x2="-1.5195" y2="61.207" gradientUnits="userSpaceOnUse">
<stop stop-color="white"/>
<stop offset="1"/>
</linearGradient>
<linearGradient id="paint3_linear_1441_1640" x1="54.3785" y1="31.6838" x2="84.2689" y2="31.6371" gradientUnits="userSpaceOnUse">
<stop/>
<stop offset="1" stop-color="white"/>
</linearGradient>
<linearGradient id="paint4_linear_1441_1640" x1="60.399" y1="113.614" x2="74.3065" y2="107.419" gradientUnits="userSpaceOnUse">
<stop stop-color="white" stop-opacity="0"/>
<stop offset="1"/>
</linearGradient>
<linearGradient id="paint5_linear_1441_1640" x1="91.8137" y1="70.3396" x2="112.855" y2="49.0395" gradientUnits="userSpaceOnUse">
<stop stop-color="white"/>
<stop offset="1"/>
</linearGradient>
<clipPath id="clip0_1441_1640">
<rect width="110.96" height="109.67" fill="white" transform="translate(0.1875 0.28833)"/>
</clipPath>
<clipPath id="clip1_1441_1640">
<rect width="110.96" height="109.67" fill="white" transform="translate(111.148 109.958) rotate(-180)"/>
</clipPath>
</defs>
</svg>
