<svg width="325" height="65" viewBox="0 0 325 65" fill="none" xmlns="http://www.w3.org/2000/svg">
<path d="M19.2672 64.1233V57.487H320.798V64.1233H19.2672ZM0.953125 58.6936V49.6944C2.30416 49.8955 3.6552 49.5436 4.75604 48.7894C5.65673 47.8845 6.05704 46.5773 5.95696 45.3205V14.0997H15.2641V45.3205C15.2641 50.1971 14.1132 53.7164 11.7614 55.8782C9.20946 57.9395 5.95696 58.9953 2.65443 58.7439C2.10401 58.7439 1.55359 58.7439 0.953125 58.6936ZM275.564 41.5498C272.461 38.4328 270.76 34.1594 270.91 29.7352C270.66 20.8868 277.565 13.4964 286.372 13.2451C286.722 13.2451 287.072 13.2451 287.423 13.2451C291.676 13.1445 295.779 14.8538 298.681 17.9709C301.734 21.0879 303.385 25.311 303.235 29.685C303.235 30.9418 303.135 32.1987 302.885 33.4556H280.818C281.868 36.3715 284.32 37.8295 288.273 37.8295C290.525 37.93 292.677 37.0754 294.228 35.4666L301.684 39.7902C298.581 44.1139 293.477 46.5773 288.123 46.2254C283.47 46.4265 278.966 44.7674 275.564 41.5498ZM280.618 26.5176H293.978C293.327 23.4509 290.525 21.3393 287.373 21.5907C284.22 21.289 281.318 23.4006 280.618 26.5176ZM192.8 41.5498C189.698 38.4328 187.997 34.1594 188.147 29.7352C187.896 20.8868 194.802 13.4964 203.608 13.2451C203.959 13.2451 204.309 13.2451 204.659 13.2451C208.913 13.1445 213.016 14.8538 215.918 17.9709C218.97 21.0879 220.622 25.311 220.471 29.685C220.471 30.9418 220.371 32.1987 220.121 33.4556H198.054C199.105 36.3715 201.557 37.8295 205.51 37.8295C207.762 37.93 209.913 37.0754 211.465 35.4666L218.92 39.7902C215.818 44.1139 210.714 46.5271 205.36 46.2254C200.706 46.4265 196.203 44.7674 192.8 41.5498ZM197.854 26.5176H211.214C210.564 23.4509 207.762 21.3393 204.609 21.5907C201.457 21.289 198.555 23.4006 197.854 26.5176ZM126.449 42.4548V45.3707H117.142V1.63154H126.449V17.0659C128.801 14.4516 132.204 13.044 135.706 13.2451C139.76 13.2451 143.562 15.0047 146.214 18.0714C149.117 21.2388 150.668 25.4116 150.568 29.7352C150.668 34.0589 149.117 38.282 146.214 41.4493C143.562 44.5161 139.76 46.2254 135.706 46.1751C132.204 46.3762 128.801 44.9685 126.449 42.3542V42.4548ZM128.501 24.205C127.1 25.7132 126.349 27.7242 126.449 29.7352C126.349 31.7965 127.1 33.8075 128.501 35.3158C129.952 36.7234 131.853 37.4273 133.855 37.377C135.807 37.4273 137.758 36.7234 139.159 35.3158C140.61 33.8578 141.361 31.8468 141.261 29.7352C141.361 27.674 140.61 25.663 139.159 24.205C137.758 22.7973 135.857 22.0934 133.855 22.1437C131.853 22.0934 129.952 22.7973 128.501 24.205ZM86.819 41.4996C83.6665 38.4328 81.9652 34.1594 82.0153 29.7855C82.0653 20.6355 89.521 13.2451 98.628 13.2953C102.931 13.2953 107.084 15.0549 110.137 18.1217C113.289 21.1885 114.991 25.4116 114.941 29.7855C114.84 38.9858 107.385 46.3762 98.2277 46.2757C93.9744 46.2757 89.8713 44.5161 86.819 41.5498V41.4996ZM93.424 24.4564C92.0229 25.8641 91.3224 27.7745 91.3724 29.7855C91.3224 31.7462 92.0229 33.707 93.424 35.1147C96.2762 37.8798 100.78 37.8798 103.632 35.1147C105.033 33.707 105.733 31.7965 105.683 29.7855C105.733 27.8248 105.033 25.8641 103.632 24.4564C100.78 21.6912 96.2762 21.6912 93.424 24.4564ZM57.7467 41.4996C54.6443 38.3825 52.993 34.1594 53.0931 29.7855C52.8929 20.8868 59.8983 13.4964 68.7551 13.2953C69.0053 13.2953 69.3055 13.2953 69.5557 13.2953C72.4579 13.2953 75.2601 14.0494 77.762 15.4571C80.2139 16.8146 82.2154 18.8256 83.6165 21.2388L75.4603 25.9646C74.3594 23.652 71.9576 22.2443 69.4056 22.4454C67.5042 22.3951 65.7028 23.0989 64.3517 24.4564C63.0007 25.8641 62.3002 27.7242 62.3502 29.685C62.3002 31.6457 63.0007 33.5059 64.3517 34.9136C65.6527 36.271 67.5042 36.9748 69.4056 36.9246C71.9576 37.1759 74.3594 35.7682 75.4603 33.4053L83.6165 38.0809C82.2655 40.5443 80.2639 42.6056 77.812 43.963C75.3101 45.421 72.4579 46.1249 69.5557 46.1249C65.1523 46.2254 60.849 44.5161 57.7467 41.399V41.4996ZM21.8191 41.4996C18.9169 38.282 17.3657 34.1092 17.4658 29.7855C17.3657 25.4619 18.9169 21.289 21.8191 18.1217C24.4712 15.0549 28.2741 13.2953 32.3272 13.2953C35.8299 13.0942 39.2325 14.5019 41.5843 17.1162V14.15H50.8914V45.3707H41.5843V42.4548C39.2325 45.0691 35.8299 46.4768 32.3272 46.2757C28.3241 46.2757 24.4712 44.5663 21.8191 41.5498V41.4996ZM28.8245 24.205C27.4234 25.7132 26.6728 27.7242 26.7729 29.7352C26.6728 31.7965 27.4234 33.8075 28.8245 35.3158C30.2256 36.7234 32.1771 37.4776 34.1786 37.377C36.1801 37.4776 38.0816 36.7234 39.5327 35.3158C40.9338 33.8075 41.6843 31.7965 41.5843 29.7352C41.6843 27.674 40.9338 25.663 39.5327 24.205C38.1316 22.7973 36.1801 22.0432 34.1786 22.1437C32.1771 22.0432 30.2756 22.7973 28.8245 24.205ZM305.437 45.3707V14.0997H314.744V19.6802C315.294 17.7698 316.495 16.161 318.196 15.1052C319.948 13.9992 321.999 13.4462 324.051 13.4964V24.1044C321.849 23.7022 319.547 24.1044 317.646 25.311C315.644 26.5679 314.493 28.8806 314.744 31.2435V45.3707H305.437ZM259.902 45.3707V27.0204C260.002 25.663 259.601 24.3055 258.751 23.2498C257.9 22.3448 256.699 21.8421 255.448 21.8923C254.097 21.8421 252.746 22.3951 251.896 23.4509C250.995 24.7077 250.544 26.216 250.645 27.7745V45.3707H241.337V27.0204C241.438 25.663 241.037 24.3055 240.187 23.2498C239.336 22.3448 238.135 21.8421 236.884 21.8923C235.533 21.8421 234.182 22.3951 233.331 23.4509C232.431 24.7077 231.98 26.216 232.08 27.7745V45.3707H222.773V14.0997H232.08V16.9654C234.032 14.3511 237.184 12.9434 240.387 13.1948C243.639 12.9937 246.742 14.6025 248.543 17.3173C250.645 14.5019 254.047 12.9434 257.55 13.1948C260.802 13.0942 263.905 14.3511 266.106 16.7643C268.358 19.3283 269.509 22.6967 269.359 26.1154V45.2702H260.052L259.902 45.3707ZM164.228 45.3707V39.1367L175.987 22.8978H164.879V14.15H188.497V20.3841L176.738 36.6229H189.097V45.3707H164.228ZM6.60746 9.72581C5.55665 8.67003 4.95619 7.21206 5.00623 5.75408C5.00623 4.29611 5.55665 2.83814 6.60746 1.83264C7.65827 0.72659 9.05934 0.123291 10.5605 0.123291C12.0616 0.123291 13.4627 0.72659 14.4635 1.83264C15.5643 2.83814 16.1648 4.29611 16.1648 5.75408C16.1648 7.26233 15.5643 8.72031 14.4635 9.72581C13.4127 10.7816 12.0116 11.3849 10.5605 11.3346C9.05934 11.3346 7.65827 10.7816 6.60746 9.72581Z" fill="white"/>
</svg>
