<svg width="196" height="99" viewBox="0 0 196 99" fill="none" xmlns="http://www.w3.org/2000/svg">
<path d="M0.8125 25.5336H12.7545C15.6653 25.4707 18.5762 25.9233 21.3378 26.8412C26.7366 28.5889 30.8167 33.0901 32.0856 38.6726C32.7075 41.3256 32.919 44.0665 32.6951 46.7824C32.5832 49.1461 32.0731 51.4722 31.2148 53.6725C29.4857 58.048 25.9404 61.4428 21.5244 62.9641C19.4967 63.7185 17.3696 64.1837 15.2051 64.3346C13.7123 64.4478 12.2071 64.5106 10.7393 64.5106C7.56718 64.5358 4.3951 64.5106 1.22301 64.5106H0.837379L0.8125 25.5084V25.5336ZM7.30595 32.3608V57.3816C7.30595 57.6959 7.41791 57.7462 7.67914 57.7337C9.17189 57.7085 10.6398 57.6959 12.1076 57.6834C14.3467 57.7337 16.5859 57.3816 18.7006 56.6272C22.0717 55.4956 24.7089 52.8175 25.7912 49.3976C26.5375 47.0338 26.6868 44.5066 26.2017 42.0674C25.6916 38.7732 23.7262 35.8814 20.8526 34.2343C18.7877 33.0524 16.4739 32.4111 14.098 32.386C12.2196 32.3231 10.3412 32.386 8.47527 32.386H7.31839L7.30595 32.3608Z" fill="white"/>
<path d="M53.2943 25.2692C53.5306 25.2692 53.5804 25.3446 53.655 25.5332L67.2639 64.548H59.5016C59.3026 64.5732 59.1284 64.4474 59.0911 64.2463C57.9715 61.3418 56.8644 58.4374 55.7946 55.533C55.7573 55.3444 55.5707 55.2061 55.3841 55.2312H41.9991C41.8001 55.2061 41.6135 55.3444 41.5637 55.5581C40.4815 58.4626 39.4117 61.367 38.3295 64.2588C38.2673 64.4348 38.2051 64.548 37.9812 64.548H30.082C30.2935 63.9193 30.505 63.3158 30.7164 62.7123C34.8091 50.9563 38.9017 39.2003 42.9819 27.4443C43.1809 26.8785 43.3799 26.3127 43.5416 25.7469C43.6287 25.5206 43.6412 25.3069 44.1014 25.3069L53.3067 25.2692H53.2943ZM48.6294 31.7695C47.0123 37.2138 45.3703 42.746 43.7158 48.2908H53.6426C51.9632 42.7334 50.2715 37.2138 48.617 31.7695H48.6294Z" fill="white"/>
<path d="M75.9714 64.5484H68.6445V25.5462H76.3695C76.6059 25.5336 76.8298 25.6719 76.9293 25.8857C81.3578 33.9451 85.7987 42.0046 90.2396 50.064L90.4511 50.4287V25.5588H97.7531V64.561H90.0033C89.7794 64.5862 89.5679 64.4604 89.4808 64.2467C85.0523 56.0238 80.6238 47.8134 76.1705 39.6031C76.1207 39.5025 76.0461 39.4019 75.959 39.3265V64.5484H75.9714Z" fill="white"/>
<path d="M105.266 25.4335H112.556V57.0678H128.093C128.416 57.0678 128.516 57.1306 128.503 57.4827V64.4608H105.254V25.446L105.266 25.4335Z" fill="white"/>
<path d="M164.705 44.3936C164.817 49.5989 162.901 54.6282 159.368 58.4128C156.445 61.5938 152.526 63.6558 148.272 64.2719C140.224 65.4538 132.3 61.38 128.53 54.0876C127.199 51.5352 126.44 48.7188 126.304 45.8395C125.794 36.6107 131.79 28.2998 140.634 25.9612C150.934 23.2831 161.433 29.5571 164.083 39.9678C164.207 40.433 164.307 40.9108 164.394 41.3886C164.605 42.5453 164.655 43.7272 164.729 44.3936H164.705ZM132.909 44.8839C132.934 51.9375 138.606 57.6206 145.585 57.5955C152.564 57.5704 158.186 51.8369 158.161 44.7834C158.137 37.7298 152.464 32.0466 145.485 32.0718C142.201 32.0844 139.042 33.392 136.691 35.718C134.253 38.1321 132.884 41.4389 132.897 44.8839H132.909Z" fill="white"/>
<path d="M166.259 25.4957H173.548V42.3187H173.61C173.822 42.0547 174.046 41.8032 174.257 41.5392L187.157 25.6215C187.244 25.5209 187.356 25.458 187.493 25.4454H195.678L182.206 42.6582L195.691 64.4728H187.605C187.393 64.4854 187.194 64.3722 187.095 64.1836L176.683 47.5995L176.509 47.3229C176.285 47.5366 176.073 47.7378 175.862 47.9264C175.165 48.5676 174.481 49.2215 173.784 49.8501C173.623 49.9884 173.536 50.2022 173.548 50.4159V64.4728H166.246V25.5083L166.259 25.4957Z" fill="white"/>
<path d="M84.6568 17.8892H82.1937V2.31091H76.5586V0.123169H90.2919V2.31091H84.6568V17.8892Z" fill="white"/>
<path d="M92.793 0.123169H95.256V7.55396H104.138V0.123169H106.626V17.8892H104.138V9.75428H95.256V17.8892H92.793V0.123169Z" fill="white"/>
<path d="M111.397 15.6763H120.577V17.8892H108.934V0.123169H120.204V2.31091H111.384V7.6294H119.681V9.76685H111.384V15.6763H111.397Z" fill="white"/>
<path d="M61.5298 76.921C60.3729 75.3997 58.5692 74.5195 56.6659 74.5698C54.4392 74.5698 51.802 75.8146 51.802 78.6687C51.802 81.5228 54.0909 82.1641 56.9147 83.0819C60.2609 84.1506 64.2416 85.4331 64.2416 90.4624C64.2416 95.4917 60.0495 98.1195 55.6086 98.1195C52.4613 98.2075 49.451 96.8622 47.3984 94.4607L50.1103 92.1472C51.3791 93.9955 53.4565 95.1019 55.6832 95.1019C58.0094 95.1019 60.7088 93.7943 60.7088 90.7893C60.7088 87.7843 57.9596 86.9042 54.7875 85.9109C51.6154 84.9176 48.2941 83.4465 48.2941 78.8196C48.2941 73.8029 52.7599 71.6277 56.8525 71.6277C59.527 71.5648 62.1144 72.6084 64.0053 74.5195L61.5173 76.9462L61.5298 76.921Z" fill="white"/>
<path d="M66.7305 72.2568H70.2135V82.7932H82.8148V72.2568H86.3352V97.4788H82.8148V85.9365H70.2135V97.4788H66.7305V72.2568Z" fill="white"/>
<path d="M124.197 92.3489H124.272L130.118 72.2568H133.962L139.772 92.3489H139.846L145.344 72.2568H149.039L141.7 97.4788H138.067L132.009 77.2107H131.935L125.877 97.4788H122.257L114.93 72.2568H118.699L124.197 92.3489Z" fill="white"/>
<path d="M114.7 84.7672C114.7 91.7831 109.065 97.4788 102.123 97.4788C95.182 97.4788 89.5469 91.7831 89.5469 84.7672C89.5469 77.7513 95.182 72.0557 102.123 72.0557C109.065 72.0557 114.687 77.7513 114.687 84.7672H114.7ZM102.136 75.5259C97.0852 75.5259 92.9926 79.6499 92.9926 84.7546C92.9926 89.8594 97.0728 93.996 102.123 93.996C107.174 93.996 111.266 89.872 111.266 84.7672C111.266 79.6625 107.174 75.5259 102.136 75.5259Z" fill="white"/>
<path d="M195.691 7.604H129.289V9.21338H195.691V7.604Z" fill="white"/>
<path d="M67.2149 7.604H0.8125V9.21338H67.2149V7.604Z" fill="white"/>
<path d="M195.705 83.5848H154.02V85.1942H195.705V83.5848Z" fill="white"/>
<path d="M42.4975 83.5848H0.8125V85.1942H42.4975V83.5848Z" fill="white"/>
<path d="M151.546 44.2176L143.112 39.2889C142.739 39.0877 142.278 39.226 142.079 39.6032C142.017 39.7164 141.992 39.8295 141.992 39.9553V49.8001C141.992 50.2276 142.34 50.5671 142.763 50.5545C142.888 50.5545 143.012 50.5168 143.112 50.4665L151.546 45.5378C151.907 45.324 152.031 44.8588 151.819 44.4942C151.757 44.381 151.658 44.2805 151.546 44.2176Z" fill="white"/>
</svg>
