<svg width="345" height="105" viewBox="0 0 345 105" fill="none" xmlns="http://www.w3.org/2000/svg">
<path d="M256.205 43.1892C260.606 43.1892 264.175 39.6208 264.175 35.2189C264.175 30.8171 260.606 27.2487 256.205 27.2487C251.803 27.2487 248.234 30.8171 248.234 35.2189C248.234 39.6208 251.803 43.1892 256.205 43.1892Z" fill="#FEFEFE"/>
<path d="M231.931 23.2651C235.594 23.2651 238.562 20.2964 238.562 16.6344C238.562 12.9723 235.594 10.0037 231.931 10.0037C228.269 10.0037 225.301 12.9723 225.301 16.6344C225.301 20.2964 228.269 23.2651 231.931 23.2651Z" fill="#FEFEFE"/>
<path d="M209.933 9.1113C210.86 6.0489 209.129 2.81464 206.067 1.88738C203.005 0.960116 199.77 2.69098 198.843 5.75338C197.916 8.81578 199.647 12.05 202.709 12.9773C205.771 13.9046 209.006 12.1737 209.933 9.1113Z" fill="#FEFEFE"/>
<path d="M176.135 10.2381C178.798 10.2381 180.957 8.07903 180.957 5.41572C180.957 2.75242 178.798 0.593384 176.135 0.593384C173.472 0.593384 171.312 2.75242 171.312 5.41572C171.312 8.07903 173.472 10.2381 176.135 10.2381Z" fill="#FEFEFE"/>
<path d="M152.685 13.7045C153.381 11.6164 152.252 9.35962 150.164 8.66368C148.076 7.96775 145.819 9.09625 145.123 11.1843C144.427 13.2723 145.556 15.5291 147.644 16.2251C149.732 16.921 151.989 15.7925 152.685 13.7045Z" fill="#FEFEFE"/>
<path d="M125.2 27.9878C126.92 27.9878 128.315 26.5934 128.315 24.8733C128.315 23.1533 126.92 21.7589 125.2 21.7589C123.48 21.7589 122.086 23.1533 122.086 24.8733C122.086 26.5934 123.48 27.9878 125.2 27.9878Z" fill="#FEFEFE"/>
<path d="M106.479 41.4831C108.051 41.4831 109.326 40.2086 109.326 38.6366C109.326 37.0645 108.051 35.79 106.479 35.79C104.907 35.79 103.633 37.0645 103.633 38.6366C103.633 40.2086 104.907 41.4831 106.479 41.4831Z" fill="#FEFEFE"/>
<path d="M13.614 72.5257C11.9061 72.5257 10.1982 72.2578 8.6912 71.588C7.18422 71.0187 5.84468 70.081 4.60561 68.9424C3.467 67.8038 2.52932 66.3973 1.85955 64.6894C1.18978 62.9815 0.921875 61.0726 0.921875 58.9963C0.921875 55.9489 1.39071 53.2028 2.42886 50.5573C3.467 47.9117 4.907 45.6344 6.61491 43.5247C8.32283 41.5489 10.3991 39.9079 12.7768 38.7693C15.1545 37.5302 17.6996 36.9609 20.3787 36.9609C22.3545 36.9609 24.0624 37.1619 25.6029 37.6307C27.1099 38.0995 28.3489 38.6688 29.2866 39.3386L30.6261 37.7312H32.535L29.9899 49.787H27.9471V48.8493C27.9471 47.5098 27.8466 46.3042 27.6792 45.1656C27.4782 43.9265 27.1099 42.8884 26.4401 41.9507C25.8708 41.013 25.1005 40.2428 24.0624 39.774C23.1247 39.2047 21.7852 38.9368 20.2782 38.9368C18.3024 38.9368 16.494 39.5061 14.7861 40.5442C13.0782 41.5823 11.6717 43.0223 10.4326 44.7303C9.19353 46.4382 8.25585 48.5145 7.48561 50.9926C6.71538 53.4708 6.34701 56.0159 6.34701 58.5945C6.34701 62.0103 7.18422 64.7564 8.82515 66.8326C10.5331 68.9089 12.7098 69.9471 15.5563 69.9471C17.934 69.9471 20.0103 69.2773 22.0196 67.8708C23.9954 66.4643 25.6364 64.6559 26.8419 62.2782L28.5499 63.2159C26.574 66.6317 24.2968 69.1099 21.8187 70.4159C19.575 71.7555 16.7284 72.5257 13.614 72.5257Z" fill="#FEFEFE"/>
<path d="M42.178 69.1105L41.8096 70.6175C40.4031 71.1868 39.164 71.6557 38.2933 71.8566C37.4561 72.0575 36.6858 72.225 36.0161 72.225C34.777 72.225 33.7389 71.9571 33.1696 71.2873C32.4998 70.6175 32.2319 69.7803 32.2319 68.8091C32.2319 68.4408 32.2319 68.0389 32.3323 67.6705C32.4328 67.3022 32.5333 66.8333 32.6003 66.1636L35.1454 55.9161C35.2458 55.3468 35.4133 54.7775 35.5137 54.1077C35.6142 53.4379 35.7147 52.9691 35.7147 52.5003C35.7147 51.663 35.5137 50.9933 35.2458 50.6919C34.9779 50.424 34.4086 50.223 33.4375 50.223C33.0691 50.223 32.6002 50.3235 32.0309 50.424C31.4616 50.5244 30.9928 50.6249 30.6914 50.6919L31.0598 49.1849C32.2989 48.6156 33.4375 48.2472 34.3751 47.9458C35.3128 47.6444 36.1835 47.5775 36.7528 47.5775C38.0924 47.5775 39.03 47.8454 39.5993 48.5151C40.1686 49.1849 40.4366 49.9216 40.4366 50.9933C40.4366 51.2612 40.4366 51.663 40.3361 52.1319C40.2356 52.6007 40.1352 53.0696 40.0682 53.6389L37.5231 63.7859C37.3221 64.4556 37.2551 65.0249 37.1547 65.5943C37.0542 66.1636 36.9538 66.6324 36.9538 67.1012C36.9538 68.0389 37.1547 68.6082 37.5231 69.0101C37.8914 69.4119 38.5612 69.4789 39.4989 69.4789C39.7668 69.4789 40.2691 69.4789 40.8384 69.3784C41.4077 69.278 41.8766 69.1775 42.178 69.1105ZM43.8859 38.5356C43.8859 39.4732 43.618 40.2435 43.0487 40.9132C42.4793 41.583 41.7091 41.9514 40.8719 41.9514C40.0347 41.9514 39.3649 41.6835 38.7956 41.0137C38.2263 40.3439 37.9584 39.6072 37.9584 38.837C37.9584 37.9998 38.2263 37.2295 38.7956 36.5597C39.3649 35.89 40.1352 35.6221 40.8719 35.6221C41.8096 35.6221 42.4793 35.89 43.0487 36.5597C43.5845 37.0286 43.8859 37.6984 43.8859 38.5356Z" fill="#FEFEFE"/>
<path d="M64.3823 51.4618C64.3823 51.9307 64.2818 52.3995 64.1813 52.8683C64.0809 53.4376 63.9134 53.806 63.612 54.2079C63.3441 54.6767 63.0427 54.9781 62.6744 55.1455C62.306 55.3465 61.8372 55.5139 61.2679 55.5139C60.4306 55.5139 59.7609 55.313 59.359 54.8441C58.8902 54.3753 58.6892 53.9065 58.6892 53.4376C58.6892 52.9688 58.7897 52.3995 59.0576 51.7297C59.3255 51.1604 59.5264 50.4906 59.8278 49.9213C59.6269 49.9213 59.359 50.0218 58.8902 50.1223C58.4213 50.2227 57.9525 50.3902 57.2827 50.6916C56.613 50.9595 55.9432 51.4618 55.2064 52.0311C54.4362 52.6004 53.599 53.4376 52.7283 54.4088L48.8436 71.5884H44.3562L47.8725 56.1167C47.9729 55.7483 48.0734 55.179 48.2408 54.4088C48.4418 53.6386 48.4418 53.0693 48.4418 52.7009C48.4418 51.8637 48.2408 51.1939 47.9729 50.8925C47.705 50.5911 47.0352 50.4237 46.1645 50.4237C45.7962 50.4237 45.3943 50.5241 44.825 50.6246C44.2557 50.7251 43.8873 50.8255 43.5859 50.8925L43.9543 49.3855C45.1934 48.8162 46.332 48.4478 47.2697 48.1465C48.2073 47.8451 49.078 47.7781 49.7478 47.7781C50.9869 47.7781 51.9246 48.1465 52.4939 48.8162C53.0632 49.486 53.3311 50.5241 53.3311 51.9306H53.2306C55.1395 50.3232 56.546 49.1846 57.4837 48.5148C58.4213 47.8451 59.4595 47.5771 60.5311 47.5771C60.9999 47.5771 61.5692 47.6776 62.0381 47.7781C62.5069 47.8785 62.8753 48.1465 63.2772 48.4479C63.6455 48.8162 63.8465 49.2181 64.0474 49.5865C64.2818 49.9213 64.3823 50.5911 64.3823 51.4618Z" fill="#FEFEFE"/>
<path d="M72.355 72.3252C69.6089 72.3252 67.3317 71.488 65.7242 69.847C64.1168 68.2396 63.2461 65.8619 63.2461 62.9149C63.2461 60.9391 63.514 59.0302 64.1838 57.2219C64.7531 55.4135 65.5903 53.806 66.7289 52.3995C67.8675 50.993 69.207 49.8544 70.915 48.8832C72.6229 48.046 74.4312 47.5437 76.5075 47.5437C78.7847 47.5437 80.4927 48.0125 81.7317 48.9502C82.9708 49.8879 83.5401 51.127 83.5401 52.567C83.5401 53.7056 83.2722 54.6433 82.7699 55.4135C82.301 56.2507 81.4303 56.6526 80.3922 56.6526C79.555 56.6526 78.8852 56.4516 78.4833 55.9828C78.0145 55.514 77.8136 55.0451 77.8136 54.5763C77.8136 54.1074 78.0145 53.3372 78.2824 52.5C78.6508 51.6628 78.9522 50.8925 79.1196 50.4237C78.9187 49.9549 78.5503 49.6535 77.981 49.486C77.4117 49.2851 76.7419 49.2181 76.0722 49.2181C73.8954 49.2181 71.9866 50.4572 70.4796 53.0023C68.8722 55.5474 68.1019 58.5949 68.1019 62.3121C68.1019 64.5893 68.5708 66.3977 69.6089 67.7038C70.647 69.0433 71.9866 69.6796 73.6945 69.6796C75.2015 69.6796 76.6415 69.3112 77.8806 68.4405C79.1196 67.5698 80.2582 66.4647 81.2964 64.9242L82.6359 65.9624C81.4973 67.6703 80.0908 69.1773 78.182 70.4163C76.4071 71.7559 74.4312 72.3252 72.355 72.3252Z" fill="#FEFEFE"/>
<path d="M96.8058 35.0189L90.1751 63.752C89.9742 64.3213 89.9072 64.9911 89.8068 65.5604C89.7063 66.1297 89.6058 66.699 89.6058 67.0674C89.6058 68.0051 89.8068 68.5744 90.1751 68.9762C90.5435 69.3446 91.2133 69.4451 92.1509 69.4451C92.4189 69.4451 92.9212 69.4451 93.5575 69.3446C94.2272 69.2441 94.6961 69.1437 94.964 69.0767L94.5956 70.5837C93.1891 71.153 92.0505 71.5214 91.2802 71.8228C90.51 72.0907 89.6728 72.1911 88.6347 72.1911C87.3956 72.1911 86.3574 71.9232 85.6877 71.2534C85.0179 70.5837 84.75 69.7465 84.75 68.7753C84.75 68.4069 84.75 68.0051 84.8505 67.6367C84.9509 67.2683 85.0514 66.7995 85.1184 66.1297L90.9119 40.9799C91.0123 40.511 91.1128 40.1427 91.1128 39.9417C91.1128 39.7408 91.2133 39.4729 91.2133 39.1715C91.2133 38.6022 91.1128 38.1334 90.9454 37.832C90.7444 37.5641 90.4765 37.2627 90.1082 37.1622C89.7398 36.9613 89.3379 36.8943 88.8691 36.8943C88.4002 36.7938 87.8309 36.7938 87.3621 36.6933L87.7305 35.2868L96.6384 34.7175L96.8058 35.0189Z" fill="#FEFEFE"/>
<path d="M107.612 69.1105L107.243 70.6175C105.837 71.1868 104.598 71.6557 103.727 71.8566C102.89 72.0575 102.119 72.225 101.45 72.225C100.211 72.225 99.1724 71.9571 98.6031 71.2873C97.9334 70.6175 97.6655 69.7803 97.6655 68.8091C97.6655 68.4408 97.6655 68.0389 97.7659 67.6705C97.8664 67.3022 97.9669 66.8333 98.0338 66.1636L100.579 56.0165C100.679 55.4472 100.847 54.8779 100.947 54.2082C101.048 53.5384 101.148 53.0696 101.148 52.6007C101.148 51.7635 100.947 51.0937 100.679 50.7923C100.412 50.5244 99.8422 50.3235 98.8711 50.3235C98.5027 50.3235 98.0338 50.424 97.4645 50.5244C96.8952 50.6249 96.4264 50.7254 96.125 50.7923L96.4934 49.2854C97.7324 48.7161 98.8711 48.3477 99.8087 48.0463C100.746 47.7784 101.617 47.6779 102.186 47.6779C103.526 47.6779 104.464 47.9458 105.033 48.6156C105.602 49.2854 105.87 50.0221 105.87 51.0937C105.87 51.3617 105.87 51.7635 105.77 52.2323C105.669 52.7012 105.569 53.17 105.502 53.7393L102.957 63.8863C102.756 64.5561 102.689 65.1254 102.588 65.6947C102.488 66.264 102.387 66.7329 102.387 67.2017C102.387 68.1394 102.588 68.7087 102.957 69.1105C103.325 69.4789 103.995 69.5794 104.932 69.5794C105.2 69.5794 105.703 69.5794 106.272 69.4789C106.875 69.278 107.243 69.1775 107.612 69.1105ZM109.319 38.5356C109.319 39.4732 109.052 40.2435 108.482 40.9132C107.913 41.583 107.143 41.9514 106.306 41.9514C105.468 41.9514 104.799 41.6835 104.229 41.0137C103.66 40.3439 103.392 39.6072 103.392 38.837C103.392 37.9998 103.66 37.2295 104.229 36.5597C104.799 35.89 105.569 35.6221 106.306 35.6221C107.243 35.6221 107.913 35.89 108.482 36.5597C109.052 37.0286 109.319 37.6984 109.319 38.5356Z" fill="#FEFEFE"/>
<path d="M134.475 68.9093L134.107 70.4163C132.7 70.9856 131.562 71.354 130.792 71.6554C130.021 71.9568 129.184 72.0237 128.313 72.0237C127.074 72.0237 126.036 71.7558 125.467 71.0861C124.797 70.4163 124.529 69.5791 124.529 68.6079C124.529 68.2395 124.529 67.8377 124.63 67.4693C124.73 67.1009 124.831 66.5316 124.898 65.9623L127.275 57.0544C127.476 56.3846 127.543 55.7149 127.644 55.1455C127.744 54.5762 127.845 54.1074 127.845 53.806C127.845 52.7679 127.577 51.8972 127.074 51.2609C126.605 50.5911 125.835 50.3232 124.797 50.3232C123.859 50.3232 122.721 50.5911 121.582 51.2609C120.343 51.9307 119.205 52.7679 118.166 54.0069L114.081 71.5549H109.627L113.244 56.0832C113.344 55.7148 113.444 55.1455 113.612 54.3753C113.813 53.6051 113.813 53.0358 113.813 52.5669C113.813 51.7297 113.612 51.06 113.344 50.7586C113.076 50.4907 112.406 50.2897 111.536 50.2897C111.167 50.2897 110.765 50.3902 110.196 50.4906C109.627 50.5911 109.258 50.6916 108.957 50.7586L109.325 49.2516C110.564 48.6823 111.703 48.3139 112.641 48.0125C113.578 47.7111 114.449 47.6441 115.119 47.6441C116.358 47.6441 117.296 48.0125 117.865 48.6823C118.434 49.352 118.702 50.2897 118.702 51.5288H118.903C120.611 50.1223 122.118 49.0506 123.458 48.4144C124.697 47.7446 126.204 47.3762 127.811 47.3762C129.318 47.3762 130.557 47.8451 131.428 48.7158C132.265 49.553 132.767 50.792 132.767 52.232C132.767 52.5 132.767 53.0023 132.667 53.739C132.566 54.5093 132.466 55.1455 132.298 55.9158L130.323 63.5846C130.122 64.0535 130.055 64.7232 129.954 65.393C129.854 66.0628 129.753 66.5316 129.753 66.9C129.753 67.8377 129.954 68.407 130.323 68.8088C130.691 69.0767 131.361 69.2777 132.298 69.2777C132.566 69.2777 133.069 69.1772 133.638 69.0767C133.738 69.1102 134.207 69.0098 134.475 68.9093Z" fill="#FEFEFE"/>
<path d="M150.889 68.4394L150.688 68.3389C150.42 68.6068 149.918 68.9082 149.348 69.3771C148.779 69.8459 148.109 70.2143 147.54 70.6162C146.77 71.085 146.033 71.3864 145.363 71.6543C144.593 71.9222 143.756 72.0227 142.885 72.0227C140.608 72.0227 138.799 71.1855 137.56 69.5445C136.321 67.9371 135.652 65.6599 135.652 62.8133C135.652 60.8375 136.02 58.9287 136.69 57.0198C137.46 55.111 138.398 53.5035 139.637 52.097C140.876 50.6905 142.282 49.5519 143.99 48.6812C145.698 47.844 147.406 47.4421 149.315 47.4421C150.453 47.4421 151.592 47.6431 152.53 47.911C153.568 48.1789 154.338 48.5807 155.008 48.9491L159.361 47.8105L159.629 48.1789L155.644 67.0664C155.075 69.9129 154.238 72.2906 153.266 74.2664C152.329 76.2422 151.19 77.7827 149.951 78.9213C148.712 80.0599 147.306 80.8971 145.765 81.4664C144.258 81.9353 142.45 82.2367 140.541 82.2367C139.201 82.2367 138.163 82.1362 137.326 81.9687C136.489 81.8013 135.819 81.4999 135.35 81.1315C134.881 80.7632 134.58 80.3613 134.412 79.9929C134.212 79.6246 134.145 79.1557 134.145 78.7539C134.145 77.9836 134.345 77.4143 134.814 76.9455C135.283 76.4766 135.852 76.1752 136.623 76.1752C137.192 76.1752 137.661 76.3762 138.13 76.6441C138.498 77.0125 138.9 77.4143 139.168 77.7827C139.436 78.1511 139.737 78.7204 139.938 79.2897C140.206 79.859 140.407 80.3278 140.507 80.6292H141.278C142.115 80.6292 143.086 80.4283 144.124 80.0599C145.162 79.6915 146.033 79.0218 146.87 78.1511C147.707 77.2134 148.478 75.9743 149.248 74.4673C149.851 72.8934 150.42 70.8841 150.889 68.4394ZM154.037 53.1687C154.037 52.6998 153.936 52.231 153.836 51.8291C153.735 51.3603 153.467 50.8914 153.066 50.4896C152.697 50.1212 152.295 49.8198 151.726 49.5519C151.157 49.351 150.487 49.1835 149.65 49.1835C148.411 49.1835 147.272 49.5519 146.133 50.3221C145.095 51.0924 144.057 52.1305 143.186 53.3696C142.349 54.6087 141.679 56.0152 141.211 57.7231C140.742 59.431 140.44 61.1389 140.44 62.9473C140.44 63.885 140.541 64.7557 140.641 65.4924C140.742 66.2627 141.01 66.9994 141.311 67.5687C141.679 68.138 142.081 68.6068 142.651 68.9752C143.22 69.3436 143.89 69.4441 144.827 69.4441C145.966 69.4441 147.004 69.1761 148.143 68.5064C149.281 67.8366 150.319 66.9994 151.257 66.0282L154.037 53.1687Z" fill="#FEFEFE"/>
<path d="M187.052 71.3863H171.781V69.6784C172.25 69.6784 172.819 69.5779 173.69 69.4775C174.527 69.377 175.097 69.2765 175.398 69.2096C175.967 69.0086 176.336 68.7407 176.537 68.3723C176.805 68.004 176.905 67.5351 176.905 66.8654V42.3853C176.905 41.816 176.805 41.3471 176.637 40.9788C176.436 40.6104 176.068 40.309 175.398 40.0411C174.929 39.8402 174.36 39.6727 173.59 39.4718C172.819 39.2709 172.25 39.2039 171.781 39.2039V37.496H187.052V39.2039C186.583 39.2039 186.014 39.3043 185.244 39.4048C184.574 39.5053 183.904 39.6057 183.435 39.7732C182.866 39.9741 182.397 40.242 182.196 40.7109C181.995 41.1797 181.928 41.6485 181.928 42.1174V66.6979C181.928 67.2672 182.029 67.6356 182.297 68.1044C182.565 68.5733 182.966 68.8747 183.435 69.0421C183.804 69.1426 184.272 69.31 185.043 69.4105C185.813 69.6114 186.449 69.6114 186.952 69.6784V71.3863H187.052Z" fill="#FEFEFE"/>
<path d="M214.748 71.3875H203.161V69.78C203.53 69.78 203.932 69.6795 204.4 69.6795C204.869 69.6795 205.171 69.5791 205.438 69.4786C205.907 69.2777 206.209 69.1102 206.376 68.7084C206.577 68.34 206.644 67.8712 206.644 67.3019V55.246C206.644 53.5381 206.276 52.299 205.505 51.3614C204.735 50.4237 203.798 50.0218 202.659 50.0218C201.822 50.0218 201.051 50.1223 200.382 50.3902C199.712 50.6581 199.042 50.9595 198.473 51.3279C197.904 51.6962 197.535 52.0981 197.234 52.4665C196.966 52.8348 196.665 53.2367 196.564 53.5046V67.0674C196.564 67.6367 196.665 68.0051 196.932 68.407C197.133 68.7754 197.502 69.0767 197.971 69.2442C198.339 69.4451 198.64 69.5121 199.009 69.6126C199.377 69.713 199.779 69.713 200.248 69.8135V71.4209H188.661V69.847C189.029 69.847 189.431 69.7465 189.799 69.7465C190.168 69.7465 190.57 69.6461 190.838 69.5456C191.306 69.3447 191.608 69.1772 191.775 68.7754C191.976 68.407 192.043 67.9381 192.043 67.3688V52.7679C192.043 52.1986 191.943 51.7297 191.675 51.2609C191.474 50.792 191.105 50.4237 190.737 50.1223C190.469 49.9213 190.067 49.8544 189.699 49.7539C189.331 49.6534 188.862 49.553 188.359 49.553V47.9455L196.229 47.3762L196.598 47.7446V51.1604H196.698C197.066 50.792 197.535 50.3232 198.105 49.8209C198.674 49.2516 199.243 48.8832 199.712 48.4813C200.281 48.113 201.051 47.8116 201.788 47.5437C202.625 47.2758 203.496 47.1753 204.534 47.1753C206.812 47.1753 208.519 47.8451 209.558 49.2516C210.596 50.6581 211.165 52.5669 211.165 54.8442V67.0674C211.165 67.6367 211.265 68.1056 211.433 68.407C211.634 68.7754 211.902 68.9763 212.371 69.1772C212.739 69.3781 213.141 69.4451 213.308 69.5456C213.576 69.6461 213.978 69.6461 214.447 69.7465V71.354L214.748 71.3875Z" fill="#FEFEFE"/>
<path d="M232.197 59.7983C232.867 60.3676 233.336 61.0374 233.704 61.7741C234.072 62.5443 234.273 63.482 234.273 64.5202C234.273 66.6969 233.436 68.5053 231.795 69.8448C230.188 71.2513 228.011 71.9211 225.432 71.9211C224.093 71.9211 222.787 71.6532 221.648 71.1509C220.51 70.6486 219.672 70.2132 219.17 69.8113L218.701 71.3183H216.893L216.625 63.1471H218.232C218.333 63.8169 218.601 64.4867 219.07 65.3239C219.438 66.1611 220.007 66.9313 220.577 67.6011C221.246 68.2709 221.916 68.9406 222.854 69.4095C223.691 69.8783 224.662 70.1797 225.801 70.1797C227.308 70.1797 228.547 69.8113 229.317 69.1416C230.154 68.4718 230.556 67.4337 230.556 66.0941C230.556 65.4244 230.456 64.855 230.188 64.3862C229.92 63.9174 229.518 63.4485 229.049 63.1471C228.48 62.7788 227.911 62.4774 227.14 62.2095C226.37 61.9416 225.533 61.6402 224.595 61.3722C223.825 61.1713 222.988 60.8029 222.117 60.4346C221.179 60.0662 220.409 59.5974 219.739 59.095C219.07 58.5257 218.5 57.856 218.032 57.0187C217.563 56.1815 217.362 55.2104 217.362 54.1722C217.362 52.2634 218.132 50.5555 219.539 49.2494C220.945 47.9099 222.854 47.2736 225.332 47.2736C226.27 47.2736 227.241 47.3741 228.179 47.642C229.116 47.9099 229.886 48.2113 230.556 48.4792L231.126 47.2401H232.833L233.202 54.842H231.594C231.226 53.1341 230.556 51.7945 229.418 50.6559C228.279 49.6178 226.939 49.0485 225.332 49.0485C223.992 49.0485 222.954 49.3164 222.285 49.9862C221.514 50.6559 221.146 51.3927 221.146 52.3638C221.146 53.1341 221.246 53.7034 221.514 54.1722C221.782 54.6411 222.184 55.0094 222.653 55.4113C223.122 55.6792 223.691 56.0811 224.461 56.2485C225.232 56.5164 226.069 56.8178 227.107 57.1862C228.145 57.5546 229.183 57.9564 230.054 58.3248C230.791 58.7601 231.561 59.229 232.197 59.7983Z" fill="#FEFEFE"/>
<path d="M250.311 70.3135C249.272 70.7824 248.335 71.0838 247.364 71.3517C246.426 71.6196 245.287 71.8205 243.948 71.8205C241.972 71.8205 240.632 71.3517 239.762 70.3135C238.991 69.3758 238.523 67.9358 238.523 66.1275V50.0865H234.27V47.8093H238.623V40.5088H242.977V47.8093H249.708V50.0865H242.977V63.2809C242.977 64.2186 242.977 65.0893 243.077 65.7591C243.177 66.4289 243.345 66.9982 243.546 67.467C243.814 67.9358 244.216 68.3042 244.684 68.5051C245.153 68.7731 245.924 68.8735 246.761 68.8735C247.129 68.8735 247.698 68.8735 248.569 68.7731C249.339 68.6726 249.909 68.5721 250.177 68.5051V70.3135H250.311Z" fill="#FEFEFE"/>
<path d="M264.069 71.3864H252.683V69.779C253.052 69.779 253.453 69.6785 253.822 69.6785C254.19 69.6785 254.592 69.5781 254.86 69.4776C255.329 69.2767 255.63 69.1092 255.798 68.7074C255.999 68.339 256.066 67.8701 256.066 67.3008V52.7668C256.066 52.298 255.965 51.8292 255.697 51.3603C255.496 50.992 255.128 50.5901 254.759 50.3222C254.492 50.1213 253.989 49.9538 253.42 49.8534C252.851 49.7529 252.281 49.6524 251.812 49.5854V47.978L260.151 47.4087L260.52 47.7771V66.9325C260.52 67.5018 260.62 67.9706 260.787 68.339C260.988 68.7074 261.357 69.0088 261.826 69.1762C262.194 69.3771 262.495 69.4441 262.864 69.5446C263.132 69.645 263.533 69.7455 264.002 69.7455V71.3864H264.069Z" fill="#FEFEFE"/>
<path d="M280.584 70.3135C279.546 70.7824 278.608 71.0838 277.637 71.3517C276.699 71.6196 275.561 71.8205 274.221 71.8205C272.245 71.8205 270.906 71.3517 270.035 70.3135C269.265 69.3758 268.796 67.9358 268.796 66.1275V50.0865H264.543V47.8093H268.896V40.5088H273.25V47.8093H279.981V50.0865H273.35V63.2809C273.35 64.2186 273.35 65.0893 273.451 65.7591C273.551 66.4289 273.719 66.9982 273.92 67.467C274.188 67.9358 274.589 68.3042 275.058 68.5051C275.527 68.7731 276.297 68.8735 277.135 68.8735C277.503 68.8735 278.072 68.8735 278.943 68.7731C279.713 68.6726 280.283 68.5721 280.55 68.5051L280.584 70.3135Z" fill="#FEFEFE"/>
<path d="M307.242 70.8841L299.573 71.4535L299.204 71.0851V68.1381H299.003C298.635 68.5065 298.166 68.9753 297.664 69.3772C297.195 69.846 296.626 70.2144 296.056 70.6162C295.286 71.0851 294.65 71.3865 293.98 71.5539C293.31 71.7549 292.373 71.9223 291.134 71.9223C289.057 71.9223 287.45 71.2525 286.378 69.846C285.34 68.5065 284.771 66.5306 284.771 63.8851V52.6999C284.771 52.1306 284.67 51.6618 284.503 51.2934C284.302 50.925 283.934 50.5232 283.565 50.2553C283.297 50.0543 282.895 49.9873 282.527 49.8869C282.058 49.7864 281.69 49.6859 281.188 49.6859V48.0785L289.057 47.5092L289.426 47.8776V64.2869C289.426 65.9948 289.794 67.2339 290.564 68.1716C291.335 69.0088 292.272 69.5111 293.31 69.5111C294.148 69.5111 294.918 69.4107 295.688 69.1427C296.358 68.8748 296.927 68.5734 297.396 68.2051C297.865 67.8367 298.233 67.5353 298.535 67.1669C298.802 66.7986 299.104 66.3967 299.305 66.1288V52.566C299.305 51.9967 299.204 51.6283 298.936 51.1594C298.735 50.7911 298.367 50.3892 297.999 50.1213C297.731 49.9204 297.228 49.8534 296.76 49.7529C296.291 49.6525 295.521 49.6525 294.851 49.6525V48.045L303.39 47.4757L303.759 47.8441V66.5306C303.759 67.1 303.859 67.5688 304.127 67.9372C304.328 68.3055 304.696 68.6069 305.065 68.8748C305.333 69.0758 305.735 69.1427 306.103 69.2432C306.471 69.3437 306.94 69.3437 307.442 69.3437V70.9511H307.242V70.8841Z" fill="#FEFEFE"/>
<path d="M322.717 70.3135C321.679 70.7824 320.741 71.0838 319.77 71.3517C318.832 71.6196 317.693 71.8205 316.354 71.8205C314.378 71.8205 313.039 71.3517 312.168 70.3135C311.331 69.2754 310.929 67.9358 310.929 66.1275V50.0865H306.676V47.8093H311.029V40.5088H315.383V47.8093H322.114V50.0865H315.383V63.2809C315.383 64.2186 315.383 65.0893 315.483 65.7591C315.584 66.4289 315.751 66.9982 315.952 67.467C316.22 67.9358 316.622 68.3042 317.091 68.5051C317.56 68.7731 318.33 68.8735 319.167 68.8735C319.535 68.8735 320.105 68.8735 320.975 68.7731C321.746 68.6726 322.315 68.5721 322.583 68.5051V70.3135H322.717Z" fill="#FEFEFE"/>
<path d="M344.077 65.7603C343.139 67.6691 341.8 69.1761 340.092 70.2142C338.484 71.3528 336.475 71.9221 334.399 71.9221C332.49 71.9221 330.883 71.5538 329.376 70.884C327.969 70.2142 326.831 69.2765 325.859 68.1379C324.922 66.9993 324.252 65.6598 323.783 64.1528C323.314 62.6458 323.113 61.0384 323.113 59.3305C323.113 57.8235 323.381 56.283 323.884 54.8765C324.352 53.3695 325.123 52.03 326.06 50.8914C326.998 49.7528 328.036 48.8151 329.476 48.1453C330.816 47.4755 332.323 47.1072 334.031 47.1072C335.738 47.1072 337.245 47.3751 338.484 47.9444C339.724 48.5137 340.661 49.2839 341.431 50.1211C342.202 50.9584 342.671 52.03 343.039 53.2356C343.407 54.4746 343.608 55.7807 343.608 57.2207V58.8281H328.036C328.036 60.3351 328.237 61.7751 328.505 63.0142C328.773 64.2533 329.275 65.3919 329.911 66.3296C330.581 67.2672 331.318 67.937 332.39 68.5063C333.428 69.0756 334.566 69.2765 336.006 69.2765C337.413 69.2765 338.652 68.9082 339.69 68.2384C340.728 67.5686 341.666 66.3296 342.637 64.6216L344.077 65.7603ZM338.752 56.7519C338.752 55.9146 338.652 54.9435 338.551 53.9053C338.351 52.8672 338.183 51.9965 337.781 51.3602C337.413 50.59 336.944 50.0207 336.274 49.5518C335.604 49.083 334.868 48.8821 333.796 48.8821C332.088 48.8821 330.749 49.5518 329.61 50.9584C328.471 52.3649 327.902 54.2737 327.802 56.7519H338.752Z" fill="#FEFEFE"/>
<path d="M162.371 42.2529V47.2762H161.433V42.2529H159.625V41.4827H164.246V42.2529H162.371ZM170.743 47.2762V42.4873L168.801 47.2762H168.165L166.222 42.4873V47.2762H165.285V41.4827H166.792L168.499 45.8697L170.207 41.4827H171.714V47.2762H170.743Z" fill="#FEFEFE"/>
<path d="M1.45312 86.2901V84.6157H13.509V86.2901H8.4857V99.652H6.4764V86.2901H1.45312Z" fill="#FEFEFE"/>
<path d="M12.4091 91.9499C12.6435 91.2467 12.9784 90.6439 13.4138 90.1415C13.8491 89.6392 14.4184 89.2374 15.0882 88.936C15.758 88.6346 16.4947 88.5006 17.3654 88.5006C18.2361 88.5006 19.0063 88.6346 19.6426 88.936C20.2789 89.2374 20.8482 89.6392 21.2835 90.1415C21.7189 90.6439 22.0873 91.2467 22.2882 91.9499C22.5226 92.6532 22.6231 93.3899 22.6231 94.1937C22.6231 94.9974 22.5226 95.7341 22.2882 96.4374C22.0538 97.1406 21.7189 97.7434 21.2835 98.2457C20.8482 98.7481 20.2789 99.1499 19.6426 99.4513C19.0063 99.7527 18.2361 99.8867 17.3654 99.8867C16.4947 99.8867 15.758 99.7527 15.0882 99.4513C14.4184 99.1499 13.8826 98.7481 13.4138 98.2457C12.9784 97.7434 12.61 97.1406 12.4091 96.4374C12.1747 95.7341 12.0742 94.9974 12.0742 94.1937C12.0742 93.4234 12.1747 92.6532 12.4091 91.9499ZM14.2175 95.9685C14.3849 96.4709 14.6193 96.9062 14.9542 97.2411C15.2556 97.576 15.624 97.8439 16.0259 98.0448C16.4277 98.2123 16.8966 98.3127 17.3319 98.3127C17.8007 98.3127 18.2361 98.2123 18.638 98.0448C19.0398 97.8774 19.4082 97.6095 19.7096 97.2411C20.011 96.9062 20.2454 96.4709 20.4463 95.9685C20.6138 95.4662 20.7142 94.8634 20.7142 94.1937C20.7142 93.5239 20.6138 92.9546 20.4463 92.4188C20.2789 91.9164 20.0445 91.4811 19.7096 91.1127C19.4082 90.7778 19.0398 90.5099 18.638 90.309C18.2361 90.1415 17.7673 90.0411 17.3319 90.0411C16.8631 90.0411 16.4277 90.1415 16.0259 90.309C15.624 90.4764 15.2556 90.7443 14.9542 91.1127C14.6528 91.4476 14.4184 91.8829 14.2175 92.4188C14.05 92.9211 13.9496 93.5239 13.9496 94.1937C13.9831 94.8634 14.05 95.4662 14.2175 95.9685Z" fill="#FEFEFE"/>
<path d="M24.6318 91.9499C24.8662 91.2467 25.2011 90.6439 25.6364 90.1415C26.0718 89.6392 26.6411 89.2374 27.3108 88.936C27.9806 88.6346 28.7174 88.5006 29.5881 88.5006C30.4588 88.5006 31.229 88.6346 31.8653 88.936C32.5015 89.2374 33.0709 89.6392 33.5062 90.1415C33.9416 90.6439 34.3099 91.2467 34.5109 91.9499C34.7453 92.6532 34.8457 93.3899 34.8457 94.1937C34.8457 94.9974 34.7453 95.7341 34.5109 96.4374C34.2764 97.1406 33.9416 97.7434 33.5062 98.2457C33.0709 98.7481 32.5015 99.1499 31.8653 99.4513C31.229 99.7527 30.4588 99.8867 29.5881 99.8867C28.7174 99.8867 27.9806 99.7527 27.3108 99.4513C26.6411 99.1499 26.1053 98.7481 25.6364 98.2457C25.2011 97.7434 24.8327 97.1406 24.6318 96.4374C24.3973 95.7341 24.2969 94.9974 24.2969 94.1937C24.2969 93.4234 24.4308 92.6532 24.6318 91.9499ZM26.4736 95.9685C26.6411 96.4709 26.8755 96.9062 27.2104 97.2411C27.5118 97.576 27.8801 97.8439 28.282 98.0448C28.6839 98.2123 29.1527 98.3127 29.5881 98.3127C30.0569 98.3127 30.4922 98.2123 30.8941 98.0448C31.296 97.8774 31.6643 97.6095 31.9657 97.2411C32.2671 96.9062 32.5015 96.4709 32.7025 95.9685C32.8699 95.4662 32.9704 94.8634 32.9704 94.1937C32.9704 93.5239 32.8699 92.9546 32.7025 92.4188C32.535 91.9164 32.3006 91.4811 31.9657 91.1127C31.6643 90.7778 31.296 90.5099 30.8941 90.309C30.4922 90.1415 30.0234 90.0411 29.5881 90.0411C29.1192 90.0411 28.6839 90.1415 28.282 90.309C27.8801 90.4764 27.5118 90.7443 27.2104 91.1127C26.909 91.4476 26.6746 91.8829 26.4736 92.4188C26.3062 92.9211 26.2057 93.5239 26.2057 94.1937C26.2057 94.8634 26.3062 95.4662 26.4736 95.9685Z" fill="#FEFEFE"/>
<path d="M39.031 84.5834V99.6532H37.2227V84.5834H39.031Z" fill="#FEFEFE"/>
<path d="M43.3196 97.2077C43.487 97.4756 43.7214 97.71 43.9893 97.8775C44.2572 98.0449 44.5586 98.1454 44.927 98.2124C45.2619 98.2793 45.6303 98.3128 45.9986 98.3128C46.2666 98.3128 46.568 98.2793 46.8693 98.2458C47.1707 98.2123 47.4721 98.1119 47.74 98.0114C48.008 97.911 48.2089 97.7435 48.3763 97.5091C48.5438 97.2747 48.6442 97.0068 48.6442 96.6719C48.6442 96.203 48.4768 95.8682 48.1084 95.6337C47.74 95.3993 47.3047 95.1984 46.8024 95.0644C46.2666 94.9305 45.6972 94.7965 45.0945 94.6626C44.4917 94.5286 43.8889 94.3612 43.3865 94.1602C42.8507 93.9258 42.4154 93.6244 42.0805 93.2561C41.7121 92.8542 41.5447 92.3184 41.5447 91.6151C41.5447 91.0793 41.6786 90.6105 41.9131 90.2086C42.1475 89.8067 42.4824 89.5053 42.8507 89.2374C43.2526 89.003 43.6879 88.8021 44.1568 88.7016C44.6256 88.5677 45.1279 88.5342 45.5968 88.5342C46.1996 88.5342 46.7689 88.6012 47.3047 88.7016C47.8405 88.8021 48.2759 89.003 48.6777 89.2374C49.0796 89.5053 49.4145 89.8402 49.6489 90.3091C49.8833 90.7444 50.0173 91.3137 50.0842 91.95H48.2759C48.2424 91.6151 48.1419 91.3137 48.008 91.0793C47.8405 90.8449 47.6396 90.6774 47.4052 90.51C47.1707 90.3761 46.9028 90.2756 46.6014 90.2086C46.3 90.1416 46.0321 90.1081 45.7307 90.1081C45.4628 90.1081 45.1949 90.1416 44.927 90.1751C44.6591 90.2086 44.3912 90.2756 44.1903 90.4095C43.9559 90.51 43.7884 90.644 43.6545 90.8449C43.5205 91.0123 43.4535 91.2468 43.4535 91.5147C43.4535 91.8161 43.554 92.084 43.7884 92.2849C44.0228 92.4858 44.2907 92.6533 44.6256 92.7872C44.9605 92.9212 45.3289 93.0216 45.7642 93.1221C46.1996 93.2226 46.6014 93.323 47.0368 93.39C47.4721 93.4905 47.941 93.6244 48.3428 93.7584C48.7782 93.8923 49.1466 94.0933 49.4814 94.3277C49.8163 94.5621 50.0842 94.8635 50.2852 95.1984C50.4861 95.5333 50.5866 96.0021 50.5866 96.5044C50.5866 97.1742 50.4526 97.71 50.1847 98.1454C49.9168 98.5807 49.5484 98.9491 49.1131 99.1835C48.6777 99.4514 48.1754 99.6524 47.6061 99.7528C47.0368 99.8533 46.501 99.9203 45.9652 99.9203C45.3624 99.9203 44.7931 99.8533 44.2238 99.7193C43.6545 99.5854 43.1856 99.3844 42.7838 99.083C42.3484 98.7817 42.0135 98.4133 41.7791 97.9444C41.5112 97.4756 41.3772 96.9063 41.3438 96.2365H43.1521C43.0517 96.6049 43.1521 96.9398 43.3196 97.2077Z" fill="#FEFEFE"/>
<path d="M57.5117 90.3422V88.7683H59.3536V87.1273C59.3536 86.2566 59.6215 85.5534 60.1238 85.118C60.6261 84.6492 61.3964 84.4482 62.3675 84.4482C62.535 84.4482 62.7359 84.4482 62.9369 84.4817C63.1713 84.5152 63.3387 84.5487 63.5062 84.6157V86.1896C63.3387 86.1227 63.1713 86.0892 63.0038 86.0892C62.8364 86.0557 62.6355 86.0557 62.5015 86.0557C62.0661 86.0557 61.7313 86.1562 61.4968 86.3236C61.2624 86.491 61.1285 86.8259 61.1285 87.2948V88.8017H63.2382V90.3757H61.1285V99.652H59.3201V90.3422H57.5117Z" fill="#FEFEFE"/>
<path d="M64.7177 91.9499C64.9521 91.2467 65.287 90.6439 65.7224 90.1415C66.1577 89.6392 66.727 89.2374 67.3968 88.936C68.0665 88.6346 68.8033 88.5006 69.674 88.5006C70.5447 88.5006 71.3149 88.6346 71.9512 88.936C72.5875 89.2374 73.1568 89.6392 73.5921 90.1415C74.0275 90.6439 74.3959 91.2467 74.5968 91.9499C74.8312 92.6532 74.9317 93.3899 74.9317 94.1937C74.9317 94.9974 74.8312 95.7341 74.5968 96.4374C74.3624 97.1406 74.0275 97.7434 73.5921 98.2457C73.1568 98.7481 72.5875 99.1499 71.9512 99.4513C71.3149 99.7527 70.5447 99.8867 69.674 99.8867C68.8033 99.8867 68.0665 99.7527 67.3968 99.4513C66.727 99.1499 66.1912 98.7481 65.7224 98.2457C65.287 97.7434 64.9186 97.1406 64.7177 96.4374C64.4833 95.7341 64.3828 94.9974 64.3828 94.1937C64.3828 93.4234 64.5168 92.6532 64.7177 91.9499ZM66.5596 95.9685C66.727 96.4709 66.9614 96.9062 67.2963 97.2411C67.5977 97.576 67.9661 97.8439 68.3679 98.0448C68.7698 98.2123 69.2386 98.3127 69.674 98.3127C70.1428 98.3127 70.5782 98.2123 70.98 98.0448C71.3819 97.8774 71.7503 97.6095 72.0517 97.2411C72.3531 96.9062 72.5875 96.4709 72.7884 95.9685C72.9559 95.4662 73.0563 94.8634 73.0563 94.1937C73.0563 93.5239 72.9559 92.9546 72.7884 92.4188C72.621 91.9164 72.3866 91.4811 72.0517 91.1127C71.7503 90.7778 71.3819 90.5099 70.98 90.309C70.5782 90.1415 70.1093 90.0411 69.674 90.0411C69.2052 90.0411 68.7698 90.1415 68.3679 90.309C67.9661 90.4764 67.5977 90.7443 67.2963 91.1127C66.9949 91.4476 66.7605 91.8829 66.5596 92.4188C66.3921 92.9211 66.2917 93.5239 66.2917 94.1937C66.2917 94.8634 66.3921 95.4662 66.5596 95.9685Z" fill="#FEFEFE"/>
<path d="M78.8485 88.7351V91.0458H78.882C79.3174 90.1751 79.8532 89.5053 80.4895 89.07C81.1258 88.6346 81.9295 88.4672 82.9006 88.4672V90.376C82.1974 90.376 81.5611 90.4765 81.0588 90.6774C80.5565 90.8783 80.1546 91.1462 79.8197 91.5481C79.5183 91.9165 79.2839 92.3853 79.1499 92.9211C79.016 93.4569 78.949 94.0932 78.949 94.7965V99.6523H77.1406V88.7351H78.8485Z" fill="#FEFEFE"/>
<path d="M101.053 84.5834V86.2578H92.6477V91.0466H100.484V92.7211H92.6477V97.9788H101.12V99.6532H90.6719V84.5834H101.053Z" fill="#FEFEFE"/>
<path d="M102.526 88.7351H104.837L107.449 92.5528L110.162 88.7351H112.305L108.554 93.7584L112.774 99.6524H110.463L107.416 95.1314L104.368 99.6524H102.191L106.277 93.9258L102.526 88.7351Z" fill="#FEFEFE"/>
<path d="M119.1 88.734V90.308H116.924V97.0726C116.924 97.2736 116.957 97.441 116.991 97.575C117.024 97.7089 117.091 97.8094 117.192 97.8764C117.292 97.9433 117.426 97.9768 117.593 98.0103C117.761 98.0438 117.995 98.0438 118.263 98.0438H119.1V99.6178H117.727C117.259 99.6178 116.857 99.5843 116.522 99.5173C116.187 99.4503 115.919 99.3499 115.718 99.1824C115.517 99.015 115.35 98.7806 115.249 98.4792C115.149 98.1778 115.115 97.7759 115.115 97.2401V90.308H113.273V88.734H115.115V85.4521H116.924V88.734H119.1Z" fill="#FEFEFE"/>
<path d="M122.817 88.7351V91.0458H122.851C123.286 90.1751 123.822 89.5053 124.458 89.07C125.095 88.6346 125.898 88.4672 126.869 88.4672V90.376C126.166 90.376 125.53 90.4765 125.028 90.6774C124.525 90.8783 124.123 91.1462 123.788 91.5481C123.487 91.9165 123.253 92.3853 123.119 92.9211C122.985 93.4569 122.918 94.0932 122.918 94.7965V99.6523H121.109V88.7351H122.817Z" fill="#FEFEFE"/>
<path d="M138.023 99.6188C137.721 99.8197 137.286 99.8867 136.75 99.8867C136.281 99.8867 135.913 99.7528 135.645 99.4849C135.377 99.217 135.243 98.8151 135.243 98.2123C134.741 98.8151 134.171 99.217 133.535 99.4849C132.899 99.7528 132.162 99.8867 131.425 99.8867C130.923 99.8867 130.454 99.8198 130.019 99.7193C129.583 99.6188 129.182 99.4179 128.88 99.1835C128.545 98.9491 128.311 98.6477 128.11 98.2458C127.909 97.8439 127.809 97.3751 127.809 96.8393C127.809 96.2365 127.909 95.7007 128.11 95.3323C128.311 94.9304 128.612 94.629 128.947 94.3611C129.282 94.1267 129.684 93.9258 130.119 93.7918C130.555 93.6579 131.023 93.5574 131.492 93.4904C131.995 93.39 132.463 93.323 132.899 93.256C133.334 93.2225 133.736 93.1221 134.071 93.0551C134.406 92.9546 134.674 92.8207 134.875 92.6532C135.076 92.4858 135.176 92.2179 135.176 91.883C135.176 91.4811 135.109 91.1797 134.942 90.9453C134.808 90.7109 134.607 90.51 134.372 90.4095C134.138 90.309 133.87 90.2086 133.602 90.1416C133.301 90.1081 133.033 90.0746 132.731 90.0746C131.961 90.0746 131.325 90.2086 130.823 90.51C130.32 90.8114 130.052 91.3472 129.985 92.1509H128.177C128.21 91.4811 128.344 90.9118 128.612 90.443C128.88 89.9741 129.215 89.6058 129.617 89.3044C130.052 89.003 130.521 88.802 131.057 88.6681C131.593 88.5341 132.162 88.4672 132.798 88.4672C133.301 88.4672 133.77 88.5006 134.272 88.5676C134.741 88.6346 135.21 88.7686 135.578 89.003C135.98 89.2039 136.281 89.5388 136.516 89.9072C136.75 90.309 136.884 90.8114 136.884 91.4476V97.0402C136.884 97.4756 136.917 97.777 136.951 97.9779C136.984 98.1788 137.152 98.2793 137.453 98.2793C137.621 98.2793 137.788 98.2458 137.989 98.1788V99.6188H138.023ZM135.109 93.9928C134.875 94.1602 134.573 94.2942 134.238 94.3611C133.87 94.4281 133.502 94.4951 133.1 94.5621C132.698 94.5955 132.296 94.6625 131.894 94.7295C131.492 94.7965 131.124 94.897 130.789 95.0309C130.454 95.1649 130.186 95.3658 129.985 95.6337C129.784 95.9016 129.684 96.2365 129.684 96.7053C129.684 97.0067 129.751 97.2411 129.851 97.4421C129.985 97.643 130.119 97.8104 130.32 97.9444C130.521 98.0783 130.722 98.1788 130.99 98.2123C131.258 98.2793 131.526 98.3128 131.794 98.3128C132.397 98.3128 132.899 98.2458 133.301 98.0783C133.736 97.9109 134.071 97.71 134.339 97.4756C134.607 97.2411 134.808 96.9732 134.942 96.6718C135.076 96.3704 135.143 96.1025 135.143 95.8681V93.9928H135.109Z" fill="#FEFEFE"/>
<path d="M139.561 91.9499C139.796 91.2467 140.131 90.6439 140.566 90.1415C141.001 89.6392 141.571 89.2374 142.241 88.936C142.91 88.6346 143.647 88.5006 144.518 88.5006C145.388 88.5006 146.159 88.6346 146.795 88.936C147.431 89.2374 148.001 89.6392 148.436 90.1415C148.871 90.6439 149.24 91.2467 149.441 91.9499C149.675 92.6532 149.775 93.3899 149.775 94.1937C149.775 94.9974 149.675 95.7341 149.441 96.4374C149.206 97.1406 148.871 97.7434 148.436 98.2457C148.001 98.7481 147.431 99.1499 146.795 99.4513C146.159 99.7527 145.388 99.8867 144.518 99.8867C143.647 99.8867 142.91 99.7527 142.241 99.4513C141.571 99.1499 141.035 98.7481 140.566 98.2457C140.131 97.7434 139.762 97.1406 139.561 96.4374C139.327 95.7341 139.227 94.9974 139.227 94.1937C139.227 93.4234 139.327 92.6532 139.561 91.9499ZM141.37 95.9685C141.537 96.4709 141.772 96.9062 142.107 97.2411C142.408 97.576 142.776 97.8439 143.178 98.0448C143.58 98.2123 144.049 98.3127 144.484 98.3127C144.953 98.3127 145.388 98.2123 145.79 98.0448C146.192 97.8774 146.561 97.6095 146.862 97.2411C147.163 96.9062 147.398 96.4709 147.599 95.9685C147.766 95.4662 147.867 94.8634 147.867 94.1937C147.867 93.5239 147.766 92.9546 147.599 92.4188C147.431 91.9164 147.197 91.4811 146.862 91.1127C146.561 90.7778 146.192 90.5099 145.79 90.309C145.388 90.1415 144.92 90.0411 144.484 90.0411C144.015 90.0411 143.58 90.1415 143.178 90.309C142.776 90.4764 142.408 90.7443 142.107 91.1127C141.805 91.4476 141.571 91.8829 141.37 92.4188C141.202 92.9211 141.102 93.5239 141.102 94.1937C141.135 94.8634 141.202 95.4662 141.37 95.9685Z" fill="#FEFEFE"/>
<path d="M153.661 88.7351V91.0458H153.695C154.13 90.1751 154.666 89.5053 155.302 89.07C155.938 88.6346 156.742 88.4672 157.713 88.4672V90.376C157.01 90.376 156.374 90.4765 155.871 90.6774C155.369 90.8783 154.967 91.1462 154.632 91.5481C154.331 91.9165 154.096 92.3853 153.962 92.9211C153.828 93.4569 153.762 94.0932 153.762 94.7965V99.6523H151.953V88.7351H153.661Z" fill="#FEFEFE"/>
<path d="M166.79 99.6532V98.1797H166.756C166.455 98.7825 165.986 99.2178 165.35 99.4857C164.713 99.7537 164.01 99.8876 163.273 99.8876C162.436 99.8876 161.699 99.7202 161.063 99.4188C160.427 99.1174 159.924 98.682 159.489 98.1797C159.087 97.6439 158.752 97.0411 158.551 96.3713C158.35 95.6681 158.25 94.9648 158.25 94.1611C158.25 93.3908 158.35 92.6541 158.551 91.9508C158.752 91.2476 159.054 90.6448 159.489 90.1425C159.891 89.6401 160.427 89.2048 161.063 88.9034C161.699 88.602 162.403 88.4345 163.24 88.4345C163.508 88.4345 163.809 88.468 164.144 88.535C164.479 88.602 164.78 88.7025 165.115 88.8364C165.45 88.9704 165.751 89.1378 166.019 89.3722C166.321 89.6066 166.555 89.8746 166.756 90.176H166.79V84.5834H168.598V99.6532H166.79ZM160.326 95.802C160.46 96.2709 160.661 96.7062 160.929 97.1081C161.197 97.4764 161.565 97.7778 162.001 98.0123C162.436 98.2467 162.938 98.3471 163.508 98.3471C164.11 98.3471 164.613 98.2132 165.048 97.9788C165.484 97.7443 165.818 97.443 166.086 97.0411C166.354 96.6392 166.555 96.2039 166.656 95.735C166.79 95.2327 166.823 94.7304 166.823 94.228C166.823 93.6922 166.756 93.1899 166.622 92.6876C166.488 92.1853 166.287 91.7499 166.019 91.3815C165.751 91.0132 165.383 90.7118 164.948 90.4773C164.512 90.2429 163.977 90.1425 163.374 90.1425C162.771 90.1425 162.269 90.2764 161.833 90.5108C161.398 90.7453 161.063 91.0801 160.829 91.4485C160.561 91.8504 160.393 92.2857 160.293 92.788C160.192 93.2904 160.125 93.8262 160.125 94.362C160.125 94.7974 160.192 95.2997 160.326 95.802Z" fill="#FEFEFE"/>
<path d="M171.576 86.7936V84.5834H173.385V86.7936H171.576ZM173.351 88.7359V99.6532H171.543V88.7359H173.351Z" fill="#FEFEFE"/>
<path d="M177.937 88.735V90.4764H177.97C178.707 89.1704 179.913 88.5006 181.52 88.5006C182.223 88.5006 182.826 88.6011 183.328 88.802C183.797 89.0029 184.199 89.2708 184.5 89.6392C184.802 90.0076 185.003 90.4094 185.137 90.8783C185.271 91.3471 185.304 91.9164 185.304 92.4857V99.6523H183.496V92.2848C183.496 91.615 183.295 91.0792 182.893 90.6774C182.491 90.2755 181.955 90.0746 181.252 90.0746C180.716 90.0746 180.214 90.175 179.812 90.3425C179.41 90.5099 179.075 90.7443 178.807 91.0457C178.54 91.3471 178.339 91.7155 178.205 92.1174C178.071 92.5192 178.004 92.9881 178.004 93.4904V99.6523H176.195V88.735H177.937Z" fill="#FEFEFE"/>
<path d="M197.796 99.6188C197.495 99.8197 197.059 99.8867 196.523 99.8867C196.055 99.8867 195.686 99.7528 195.418 99.4849C195.15 99.217 195.016 98.8151 195.016 98.2123C194.514 98.8151 193.945 99.217 193.309 99.4849C192.639 99.7528 191.936 99.8867 191.199 99.8867C190.696 99.8867 190.228 99.8198 189.792 99.7193C189.357 99.6188 188.955 99.4179 188.654 99.1835C188.319 98.9491 188.084 98.6477 187.883 98.2458C187.682 97.8439 187.582 97.3751 187.582 96.8393C187.582 96.2365 187.682 95.7007 187.883 95.3323C188.084 94.9304 188.386 94.629 188.721 94.3611C189.056 94.1267 189.457 93.9258 189.893 93.7918C190.328 93.6579 190.797 93.5574 191.266 93.4904C191.768 93.39 192.237 93.323 192.672 93.256C193.108 93.2225 193.509 93.1221 193.844 93.0551C194.179 92.9546 194.447 92.8207 194.648 92.6532C194.849 92.4858 194.949 92.2179 194.949 91.883C194.949 91.4811 194.883 91.1797 194.715 90.9453C194.581 90.7109 194.38 90.51 194.146 90.4095C193.911 90.309 193.643 90.2086 193.376 90.1416C193.074 90.1081 192.806 90.0746 192.505 90.0746C191.735 90.0746 191.098 90.2086 190.596 90.51C190.094 90.8114 189.826 91.3472 189.759 92.1509H187.95C187.984 91.4811 188.118 90.9118 188.386 90.443C188.654 89.9741 188.989 89.6058 189.39 89.3044C189.826 89.003 190.295 88.802 190.83 88.6681C191.366 88.5341 191.936 88.4672 192.572 88.4672C193.074 88.4672 193.543 88.5006 194.045 88.5676C194.514 88.6346 194.983 88.7686 195.351 89.003C195.72 89.2374 196.055 89.5388 196.289 89.9072C196.523 90.309 196.657 90.8114 196.657 91.4476V97.0402C196.657 97.4756 196.691 97.777 196.724 97.9779C196.758 98.1788 196.925 98.2793 197.227 98.2793C197.394 98.2793 197.562 98.2458 197.763 98.1788V99.6188H197.796ZM194.883 93.9928C194.648 94.1602 194.347 94.2942 194.012 94.3611C193.643 94.4281 193.275 94.4951 192.873 94.5621C192.471 94.5955 192.069 94.6625 191.668 94.7295C191.266 94.7965 190.897 94.897 190.562 95.0309C190.228 95.1649 189.96 95.3658 189.759 95.6337C189.558 95.9016 189.457 96.2365 189.457 96.7053C189.457 97.0067 189.524 97.2411 189.625 97.4421C189.759 97.643 189.893 97.8104 190.094 97.9444C190.295 98.0783 190.496 98.1788 190.763 98.2123C191.031 98.2793 191.299 98.3128 191.567 98.3128C192.17 98.3128 192.672 98.2458 193.074 98.0783C193.509 97.9109 193.844 97.71 194.112 97.4756C194.38 97.2411 194.581 96.9732 194.715 96.6718C194.849 96.3704 194.916 96.1025 194.916 95.8681V93.9928H194.883Z" fill="#FEFEFE"/>
<path d="M201.212 88.7351V91.0458H201.245C201.681 90.1751 202.216 89.5053 202.853 89.07C203.489 88.6346 204.293 88.4672 205.264 88.4672V90.376C204.561 90.376 203.924 90.4765 203.422 90.6774C202.92 90.8783 202.518 91.1462 202.183 91.5481C201.882 91.9165 201.647 92.3853 201.513 92.9211C201.379 93.4569 201.312 94.0932 201.312 94.7965V99.6523H199.504V88.7351H201.212Z" fill="#FEFEFE"/>
<path d="M211.027 101.125C210.826 101.661 210.625 102.096 210.391 102.464C210.19 102.833 209.956 103.134 209.721 103.369C209.487 103.603 209.185 103.77 208.884 103.871C208.583 103.971 208.248 104.038 207.846 104.038C207.645 104.038 207.411 104.038 207.21 104.005C207.009 103.971 206.808 103.938 206.607 103.871V102.23C206.774 102.297 206.942 102.364 207.143 102.397C207.344 102.431 207.511 102.464 207.645 102.464C208.013 102.464 208.315 102.364 208.549 102.196C208.784 102.029 208.984 101.761 209.118 101.46L209.855 99.6178L205.535 88.7676H207.544L210.726 97.6755H210.759L213.807 88.7676H215.716L211.027 101.125Z" fill="#FEFEFE"/>
<path d="M232.791 86.7264C232.021 86.1906 231.117 85.9227 230.045 85.9227C229.141 85.9227 228.37 86.0902 227.734 86.425C227.098 86.7599 226.562 87.2288 226.16 87.7981C225.758 88.3674 225.423 89.0037 225.256 89.7404C225.055 90.4771 224.955 91.2474 224.955 92.0176C224.955 92.8883 225.055 93.692 225.256 94.4623C225.457 95.2325 225.758 95.9023 226.16 96.4716C226.562 97.0409 227.098 97.5097 227.768 97.8446C228.404 98.1795 229.174 98.3469 230.078 98.3469C230.748 98.3469 231.317 98.2465 231.853 98.0121C232.356 97.7776 232.824 97.4762 233.193 97.1079C233.561 96.706 233.863 96.2706 234.063 95.7348C234.264 95.199 234.398 94.6297 234.432 93.9934H236.441C236.24 95.9023 235.604 97.3758 234.465 98.4139C233.36 99.4521 231.82 99.9879 229.911 99.9879C228.739 99.9879 227.734 99.7869 226.863 99.3851C225.993 98.9832 225.256 98.4474 224.687 97.7441C224.117 97.0409 223.682 96.2037 223.381 95.266C223.079 94.2948 222.945 93.2902 222.945 92.1851C222.945 91.0799 223.113 90.0418 223.414 89.1041C223.716 88.133 224.184 87.2957 224.787 86.5925C225.39 85.8892 226.127 85.3199 227.031 84.8846C227.935 84.4827 228.94 84.2483 230.112 84.2483C230.916 84.2483 231.652 84.3488 232.356 84.5497C233.059 84.7506 233.695 85.0855 234.231 85.4874C234.767 85.8892 235.236 86.3915 235.604 87.0278C235.972 87.6306 236.207 88.3339 236.307 89.1376H234.298C234.063 88.066 233.561 87.2623 232.791 86.7264Z" fill="#FEFEFE"/>
<path d="M238.52 91.9499C238.754 91.2467 239.089 90.6439 239.524 90.1415C239.96 89.6392 240.529 89.2374 241.199 88.936C241.869 88.6346 242.605 88.5006 243.476 88.5006C244.347 88.5006 245.117 88.6346 245.753 88.936C246.423 89.2374 246.959 89.6392 247.394 90.1415C247.829 90.6439 248.198 91.2467 248.399 91.9499C248.6 92.6532 248.734 93.3899 248.734 94.1937C248.734 94.9974 248.633 95.7341 248.399 96.4374C248.164 97.1406 247.829 97.7434 247.394 98.2457C246.959 98.7481 246.389 99.1499 245.753 99.4513C245.083 99.7527 244.347 99.8867 243.476 99.8867C242.605 99.8867 241.869 99.7527 241.199 99.4513C240.529 99.1499 239.993 98.7481 239.524 98.2457C239.089 97.7434 238.721 97.1406 238.52 96.4374C238.285 95.7341 238.185 94.9974 238.185 94.1937C238.151 93.4234 238.285 92.6532 238.52 91.9499ZM240.328 95.9685C240.495 96.4709 240.73 96.9062 241.065 97.2411C241.366 97.576 241.735 97.8439 242.136 98.0448C242.538 98.2123 243.007 98.3127 243.442 98.3127C243.878 98.3127 244.347 98.2123 244.749 98.0448C245.15 97.8774 245.519 97.6095 245.82 97.2411C246.122 96.9062 246.356 96.4709 246.557 95.9685C246.724 95.4662 246.825 94.8634 246.825 94.1937C246.825 93.5239 246.724 92.9546 246.557 92.4188C246.389 91.9164 246.155 91.4811 245.82 91.1127C245.485 90.7443 245.15 90.5099 244.749 90.309C244.347 90.1415 243.878 90.0411 243.442 90.0411C243.007 90.0411 242.538 90.1415 242.136 90.309C241.735 90.4764 241.366 90.7443 241.065 91.1127C240.763 91.4476 240.529 91.8829 240.328 92.4188C240.161 92.9211 240.06 93.5239 240.06 94.1937C240.06 94.8634 240.161 95.4662 240.328 95.9685Z" fill="#FEFEFE"/>
<path d="M252.687 88.735V90.4764H252.72C253.457 89.1704 254.663 88.5006 256.27 88.5006C256.973 88.5006 257.576 88.6011 258.078 88.802C258.547 89.0029 258.949 89.2708 259.25 89.6392C259.552 90.0076 259.753 90.4094 259.887 90.8783C260.021 91.3471 260.054 91.9164 260.054 92.4857V99.6523H258.246V92.2848C258.246 91.615 258.045 91.0792 257.643 90.6774C257.241 90.2755 256.705 90.0746 256.002 90.0746C255.466 90.0746 254.964 90.175 254.562 90.3425C254.16 90.5099 253.825 90.7443 253.557 91.0457C253.29 91.3471 253.089 91.7155 252.955 92.1174C252.821 92.5192 252.754 92.9881 252.754 93.4904V99.6523H250.945V88.735H252.687Z" fill="#FEFEFE"/>
<path d="M264.542 88.735V90.4764H264.576C265.312 89.1704 266.518 88.5006 268.125 88.5006C268.829 88.5006 269.431 88.6011 269.934 88.802C270.403 89.0029 270.805 89.2708 271.106 89.6392C271.407 90.0076 271.608 90.4094 271.742 90.8783C271.876 91.3471 271.91 91.9164 271.91 92.4857V99.6523H270.101V92.2848C270.101 91.615 269.9 91.0792 269.498 90.6774C269.097 90.2755 268.561 90.0746 267.858 90.0746C267.322 90.0746 266.819 90.175 266.418 90.3425C266.016 90.5099 265.681 90.7443 265.413 91.0457C265.145 91.3471 264.944 91.7155 264.81 92.1174C264.676 92.5192 264.609 92.9881 264.609 93.4904V99.6523H262.801V88.735H264.542Z" fill="#FEFEFE"/>
<path d="M282.426 98.949C281.623 99.5518 280.584 99.8867 279.345 99.8867C278.475 99.8867 277.704 99.7528 277.068 99.4514C276.432 99.1835 275.896 98.7816 275.461 98.2793C275.025 97.777 274.69 97.1742 274.489 96.4709C274.255 95.7676 274.155 94.9974 274.121 94.1602C274.121 93.323 274.255 92.5862 274.489 91.883C274.724 91.1797 275.092 90.6104 275.561 90.0746C276.03 89.5723 276.566 89.1704 277.202 88.9025C277.838 88.6346 278.508 88.4672 279.245 88.4672C280.216 88.4672 281.02 88.6681 281.656 89.07C282.292 89.4718 282.795 89.9741 283.196 90.6104C283.598 91.2132 283.866 91.9165 284 92.6197C284.134 93.3565 284.201 94.0597 284.168 94.696H275.996C275.996 95.1649 276.03 95.6337 276.164 96.069C276.298 96.5044 276.499 96.8728 276.767 97.2077C277.035 97.5425 277.403 97.8104 277.838 98.0114C278.274 98.2123 278.776 98.3128 279.379 98.3128C280.149 98.3128 280.752 98.1453 281.254 97.777C281.756 97.4086 282.058 96.9063 282.225 96.1695H284C283.766 97.4086 283.263 98.3463 282.426 98.949ZM281.991 91.95C281.823 91.5816 281.623 91.2467 281.321 90.9788C281.053 90.7109 280.718 90.4765 280.35 90.309C279.982 90.1416 279.58 90.0746 279.111 90.0746C278.642 90.0746 278.24 90.1416 277.872 90.309C277.503 90.4765 277.169 90.6774 276.901 90.9788C276.633 91.2467 276.432 91.5816 276.264 91.95C276.097 92.3183 276.03 92.7202 275.996 93.1555H282.259C282.259 92.7202 282.158 92.3518 281.991 91.95Z" fill="#FEFEFE"/>
<path d="M292.67 90.6439C292.235 90.2755 291.599 90.0746 290.862 90.0746C290.226 90.0746 289.69 90.2085 289.221 90.4429C288.786 90.6774 288.451 91.0122 288.183 91.3806C287.915 91.7825 287.748 92.2178 287.614 92.7536C287.513 93.256 287.446 93.7918 287.446 94.3611C287.446 94.8634 287.513 95.3657 287.614 95.8346C287.748 96.3034 287.915 96.7388 288.183 97.1071C288.451 97.4755 288.752 97.7769 289.188 98.0113C289.623 98.2458 290.092 98.3462 290.628 98.3462C291.498 98.3462 292.202 98.1118 292.704 97.643C293.206 97.1741 293.508 96.5378 293.608 95.6671H295.45C295.249 97.0067 294.747 98.0448 293.943 98.7816C293.139 99.5183 292.034 99.8867 290.628 99.8867C289.79 99.8867 289.054 99.7527 288.417 99.4848C287.781 99.2169 287.245 98.8485 286.81 98.3462C286.375 97.8439 286.073 97.2746 285.839 96.5713C285.604 95.8681 285.504 95.1313 285.504 94.3276C285.504 93.5239 285.604 92.7536 285.805 92.0504C286.006 91.3471 286.341 90.7108 286.776 90.2085C287.212 89.6727 287.748 89.2708 288.384 88.9694C289.02 88.6681 289.79 88.5006 290.628 88.5006C291.23 88.5006 291.833 88.5676 292.369 88.735C292.905 88.869 293.374 89.1034 293.809 89.4048C294.211 89.7062 294.579 90.1081 294.847 90.5769C295.115 91.0457 295.283 91.615 295.35 92.2513H293.508C293.441 91.5481 293.139 91.0122 292.67 90.6439Z" fill="#FEFEFE"/>
<path d="M302.284 88.734V90.308H300.107V97.0726C300.107 97.2736 300.141 97.441 300.174 97.575C300.208 97.7089 300.275 97.8094 300.375 97.8764C300.476 97.9433 300.61 97.9768 300.777 98.0103C300.944 98.0438 301.179 98.0438 301.447 98.0438H302.284V99.6178H300.911C300.442 99.6178 300.04 99.5843 299.705 99.5173C299.371 99.4503 299.103 99.3499 298.902 99.1824C298.701 99.015 298.533 98.7806 298.433 98.4792C298.332 98.1778 298.299 97.7759 298.299 97.2401V90.308H296.457V88.734H298.299V85.4521H300.107V88.734H302.284Z" fill="#FEFEFE"/>
<path d="M304.496 86.7936V84.5834H306.304V86.7936H304.496ZM306.304 88.7359V99.6532H304.496V88.7359H306.304Z" fill="#FEFEFE"/>
<path d="M308.948 91.9499C309.183 91.2467 309.517 90.6439 309.953 90.1415C310.388 89.6392 310.957 89.2374 311.627 88.936C312.297 88.6346 313.034 88.5006 313.904 88.5006C314.775 88.5006 315.545 88.6346 316.182 88.936C316.851 89.2374 317.387 89.6392 317.823 90.1415C318.258 90.6439 318.626 91.2467 318.827 91.9499C319.028 92.6532 319.162 93.3899 319.162 94.1937C319.162 94.9974 319.062 95.7341 318.827 96.4374C318.593 97.1406 318.258 97.7434 317.823 98.2457C317.387 98.7481 316.818 99.1499 316.182 99.4513C315.512 99.7527 314.775 99.8867 313.904 99.8867C313.034 99.8867 312.297 99.7527 311.627 99.4513C310.957 99.1499 310.422 98.7481 309.953 98.2457C309.517 97.7434 309.149 97.1406 308.948 96.4374C308.714 95.7341 308.613 94.9974 308.613 94.1937C308.613 93.4234 308.714 92.6532 308.948 91.9499ZM310.79 95.9685C310.957 96.4709 311.192 96.9062 311.527 97.2411C311.828 97.576 312.197 97.8439 312.598 98.0448C313 98.2123 313.469 98.3127 313.904 98.3127C314.34 98.3127 314.809 98.2123 315.211 98.0448C315.612 97.8774 315.981 97.6095 316.282 97.2411C316.584 96.9062 316.818 96.4709 317.019 95.9685C317.186 95.4662 317.287 94.8634 317.287 94.1937C317.287 93.5239 317.186 92.9546 317.019 92.4188C316.851 91.9164 316.617 91.4811 316.282 91.1127C315.947 90.7443 315.612 90.5099 315.211 90.309C314.809 90.1415 314.34 90.0411 313.904 90.0411C313.469 90.0411 313 90.1415 312.598 90.309C312.197 90.4764 311.828 90.7443 311.527 91.1127C311.225 91.4476 310.991 91.8829 310.79 92.4188C310.623 92.9211 310.522 93.5239 310.522 94.1937C310.522 94.8634 310.589 95.4662 310.79 95.9685Z" fill="#FEFEFE"/>
<path d="M323.112 88.735V90.4764H323.146C323.883 89.1704 325.088 88.5006 326.696 88.5006C327.399 88.5006 328.002 88.6011 328.504 88.802C328.973 89.0029 329.375 89.2708 329.676 89.6392C329.978 90.0076 330.179 90.4094 330.312 90.8783C330.446 91.3471 330.48 91.9164 330.48 92.4857V99.6523H328.672V92.2848C328.672 91.615 328.471 91.0792 328.069 90.6774C327.667 90.2755 327.131 90.0746 326.428 90.0746C325.892 90.0746 325.39 90.175 324.988 90.3425C324.586 90.5099 324.251 90.7443 323.983 91.0457C323.715 91.3471 323.514 91.7155 323.38 92.1174C323.246 92.5192 323.179 92.9881 323.179 93.4904V99.6523H321.371V88.735H323.112Z" fill="#FEFEFE"/>
<path d="M332.226 85.3187V88.5001H331.623V85.3187H330.484V84.8164H333.364V85.3187H332.226ZM337.517 88.4667V85.4192H337.483L336.278 88.4667H335.91L334.704 85.4192H334.67V88.4667H334.068V84.8164H335.005L336.11 87.5959L337.182 84.8164H338.12V88.4667H337.517Z" fill="#FEFEFE"/>
</svg>
