<svg width="524" height="156" viewBox="0 0 524 156" fill="none" xmlns="http://www.w3.org/2000/svg">
<mask id="mask0_1492_4864" style="mask-type:luminance" maskUnits="userSpaceOnUse" x="209" y="0" width="107" height="98">
<path fill-rule="evenodd" clip-rule="evenodd" d="M209.684 0H315.868V97.2115H209.684V0Z" fill="white"/>
</mask>
<g mask="url(#mask0_1492_4864)">
<mask id="mask1_1492_4864" style="mask-type:luminance" maskUnits="userSpaceOnUse" x="209" y="0" width="107" height="98">
<path fill-rule="evenodd" clip-rule="evenodd" d="M214.897 36.0829L229.691 10.4738L259.822 62.5932L245.027 88.2023L214.897 36.0829ZM265.034 62.5932L295.165 10.4738L309.98 36.0829L279.849 88.2024L265.034 62.5932ZM248.275 33.5796L262.428 9.07158L276.601 33.5796L262.428 58.0874L248.275 33.5796ZM262.427 0.0615234L245.668 29.0745L229.691 1.46315L209.684 36.0824L245.027 97.212L262.427 67.0977L279.848 97.212L315.191 36.0824L295.164 1.46315L279.207 29.0745L262.427 0.0615234Z" fill="white"/>
</mask>
<g mask="url(#mask1_1492_4864)">
<path fill-rule="evenodd" clip-rule="evenodd" d="M209.684 0.000183105H315.868V97.2117H209.684V0.000183105Z" fill="url(#paint0_linear_1492_4864)"/>
</g>
</g>
<path d="M42.6525 129.217C42.6516 129.189 42.6429 129.161 42.6271 129.138C42.6113 129.114 42.5891 129.094 42.5628 129.082C42.5448 129.056 42.5201 129.035 42.491 129.02C42.4618 129.006 42.4293 129 42.3966 129.001H37.2471C37.2152 129.004 37.1841 129.012 37.1556 129.026C37.1271 129.039 37.1017 129.058 37.081 129.082C37.0624 129.099 37.0478 129.12 37.0381 129.144C37.0283 129.167 37.0237 129.192 37.0245 129.217V151.355H32.1076C31.683 151.355 31.2662 151.247 30.9002 151.043C30.5343 150.839 30.2325 150.546 30.0262 150.194L24.5727 141.043V129.217C24.5723 129.189 24.5643 129.162 24.5494 129.139C24.5346 129.115 24.5134 129.095 24.4879 129.082C24.47 129.056 24.4453 129.035 24.4161 129.02C24.387 129.006 24.3545 129 24.3218 129.001H19.2005C19.1638 129.001 19.1274 129.008 19.0937 129.022C19.06 129.036 19.0296 129.056 19.0045 129.082C18.9859 129.099 18.9713 129.12 18.9616 129.144C18.9519 129.167 18.9473 129.192 18.9481 129.217V141.043L13.4929 150.194C13.2865 150.546 12.9848 150.839 12.6188 151.043C12.2529 151.247 11.836 151.355 11.4115 151.355H6.4912V129.217C6.49102 129.19 6.48326 129.163 6.46869 129.139C6.45412 129.115 6.43324 129.095 6.40814 129.082C6.394 129.058 6.37354 129.038 6.34878 129.024C6.32402 129.01 6.29581 129.002 6.26694 129.001H1.12074C1.084 129.001 1.04764 129.008 1.01391 129.022C0.98019 129.036 0.94983 129.056 0.924729 129.082C0.906102 129.099 0.891487 129.12 0.881776 129.144C0.872066 129.167 0.867463 129.192 0.86825 129.217V155.757C0.866765 155.823 0.886435 155.889 0.924729 155.946C0.98285 155.982 1.0512 156 1.12074 155.999H12.3401C13.6053 156.006 14.8491 155.689 15.9397 155.081C17.0574 154.458 17.9794 153.563 18.6108 152.489L21.767 147.198L24.9232 152.489C25.5494 153.558 26.4608 154.451 27.566 155.081C28.6678 155.687 29.9201 156.004 31.1939 155.999H42.3966C42.4267 156.001 42.4568 155.997 42.4854 155.988C42.5139 155.979 42.5402 155.964 42.5628 155.946C42.5897 155.921 42.6111 155.892 42.6256 155.859C42.6402 155.827 42.6476 155.792 42.6475 155.757L42.6525 129.217Z" fill="url(#paint1_linear_1492_4864)"/>
<path d="M56.7122 129.244C56.7133 129.213 56.7061 129.182 56.6913 129.154C56.6765 129.127 56.6545 129.103 56.6275 129.086C56.6097 129.059 56.5844 129.036 56.5543 129.021C56.5242 129.006 56.4904 128.999 56.4564 129.001H51.3069C51.275 129.003 51.2438 129.011 51.2153 129.025C51.1868 129.039 51.1614 129.058 51.1408 129.081C51.101 129.125 51.0807 129.181 51.0843 129.239V155.782C51.0866 155.838 51.1062 155.893 51.1408 155.939C51.1893 155.972 51.2471 155.991 51.3069 155.993H56.4564C56.4865 155.995 56.5166 155.991 56.5451 155.982C56.5737 155.972 56.5999 155.958 56.6225 155.939C56.6715 155.899 56.7019 155.843 56.7072 155.782L56.7122 129.244Z" fill="url(#paint2_linear_1492_4864)"/>
<path d="M105.299 151.599C105.298 151.571 105.29 151.544 105.276 151.521C105.261 151.497 105.239 151.477 105.214 151.464C105.2 151.44 105.179 151.42 105.155 151.406C105.13 151.392 105.102 151.384 105.073 151.383H73.1791C72.8598 151.388 72.5429 151.331 72.2479 151.215C71.953 151.099 71.6864 150.927 71.4648 150.709C71.2391 150.492 71.0609 150.235 70.9403 149.952C70.8197 149.67 70.7592 149.368 70.7621 149.063V129.244C70.7632 129.213 70.756 129.182 70.7412 129.154C70.7264 129.127 70.7044 129.103 70.6774 129.086C70.6595 129.06 70.6347 129.039 70.6056 129.025C70.5765 129.011 70.544 129.004 70.5113 129.006H65.3618C65.3299 129.008 65.2988 129.016 65.2702 129.03C65.2417 129.044 65.2164 129.063 65.1956 129.086C65.156 129.13 65.1358 129.186 65.1392 129.244V148.278C65.1191 149.293 65.3147 150.301 65.7142 151.243C66.1138 152.184 66.7091 153.04 67.4648 153.759C68.2043 154.482 69.0923 155.054 70.074 155.439C71.0556 155.825 72.1102 156.015 73.1724 155.999H105.066C105.092 156 105.118 155.995 105.143 155.986C105.167 155.977 105.189 155.963 105.207 155.945C105.256 155.905 105.286 155.849 105.292 155.788L105.299 151.599Z" fill="url(#paint3_linear_1492_4864)"/>
<path d="M145.847 129.001C146.908 128.984 147.961 129.178 148.939 129.568C149.916 129.959 150.798 130.538 151.527 131.269C152.292 131.977 152.896 132.826 153.302 133.763C153.709 134.7 153.908 135.707 153.889 136.72V148.275C153.907 149.293 153.707 150.303 153.301 151.245C152.895 152.187 152.291 153.041 151.527 153.756C150.794 154.48 149.911 155.053 148.934 155.438C147.956 155.824 146.905 156.014 145.847 155.996H113.953C113.894 155.994 113.836 155.975 113.787 155.942C113.749 155.886 113.729 155.82 113.731 155.753V129.244C113.727 129.186 113.747 129.13 113.787 129.086C113.808 129.063 113.833 129.044 113.862 129.03C113.89 129.016 113.921 129.008 113.953 129.006L145.847 129.001ZM148.266 135.932C148.27 135.631 148.21 135.333 148.09 135.054C147.969 134.776 147.79 134.524 147.563 134.313C147.346 134.088 147.081 133.908 146.785 133.787C146.49 133.666 146.171 133.606 145.849 133.61H119.359V151.383H145.845C146.165 151.388 146.482 151.331 146.777 151.215C147.072 151.099 147.338 150.927 147.56 150.709C147.785 150.492 147.964 150.235 148.084 149.952C148.205 149.67 148.265 149.368 148.262 149.063L148.266 135.932Z" fill="url(#paint4_linear_1492_4864)"/>
<path d="M167.947 135.932C167.942 135.631 168.002 135.333 168.123 135.054C168.244 134.776 168.423 134.524 168.65 134.313C168.867 134.087 169.132 133.908 169.427 133.787C169.723 133.666 170.042 133.606 170.364 133.61H202.258C202.288 133.612 202.318 133.609 202.346 133.599C202.375 133.59 202.401 133.576 202.424 133.557C202.473 133.517 202.503 133.46 202.508 133.399V129.244C202.51 129.213 202.502 129.182 202.488 129.154C202.473 129.127 202.451 129.103 202.424 129.086C202.406 129.06 202.381 129.039 202.352 129.025C202.323 129.011 202.29 129.004 202.258 129.006H170.364C169.299 128.991 168.242 129.184 167.26 129.575C166.278 129.965 165.391 130.544 164.656 131.274C163.899 131.985 163.302 132.834 162.901 133.77C162.499 134.706 162.303 135.71 162.322 136.72V148.275C162.303 149.29 162.5 150.299 162.901 151.241C163.302 152.182 163.899 153.038 164.656 153.756C165.396 154.479 166.284 155.051 167.265 155.436C168.247 155.822 169.302 156.012 170.364 155.996H202.258C202.288 155.998 202.318 155.994 202.346 155.985C202.375 155.976 202.401 155.961 202.424 155.942C202.451 155.918 202.472 155.888 202.486 155.856C202.501 155.823 202.509 155.788 202.508 155.753V151.599C202.508 151.571 202.5 151.544 202.485 151.521C202.47 151.497 202.449 151.477 202.424 151.464C202.406 151.438 202.381 151.417 202.352 151.403C202.323 151.389 202.29 151.382 202.258 151.383H170.364C170.045 151.388 169.728 151.331 169.433 151.215C169.138 151.099 168.871 150.927 168.65 150.709C168.424 150.492 168.246 150.235 168.125 149.952C168.004 149.67 167.944 149.368 167.947 149.063V144.822H198.229C198.259 144.824 198.29 144.82 198.318 144.811C198.347 144.802 198.373 144.787 198.395 144.768C198.422 144.744 198.444 144.715 198.458 144.682C198.473 144.65 198.48 144.615 198.48 144.579V140.421C198.481 140.39 198.474 140.359 198.459 140.331C198.444 140.304 198.423 140.28 198.395 140.263C198.377 140.237 198.353 140.216 198.324 140.202C198.294 140.188 198.262 140.181 198.229 140.183H167.947V135.932Z" fill="url(#paint5_linear_1492_4864)"/>
<path d="M251.122 139.422C251.143 140.902 250.708 142.355 249.868 143.603C249.028 144.85 247.822 145.837 246.397 146.441L246.51 146.657L250.98 155.674C250.998 155.747 250.988 155.824 250.952 155.89C250.935 155.925 250.907 155.954 250.871 155.974C250.836 155.993 250.795 156.002 250.754 155.999H245.047C245 155.998 244.954 155.985 244.915 155.961C244.875 155.937 244.843 155.903 244.823 155.863L240.492 147.142H216.592V155.782C216.586 155.843 216.556 155.899 216.507 155.939C216.484 155.958 216.458 155.973 216.43 155.982C216.401 155.991 216.371 155.995 216.341 155.993H211.191C211.131 155.991 211.074 155.972 211.025 155.939C210.991 155.893 210.971 155.838 210.969 155.782V129.244C210.965 129.186 210.985 129.13 211.025 129.086C211.046 129.061 211.073 129.04 211.104 129.026C211.134 129.011 211.167 129.003 211.201 129.001H243.115C244.171 128.987 245.218 129.181 246.191 129.571C247.163 129.962 248.039 130.54 248.763 131.269C249.527 131.977 250.131 132.826 250.537 133.763C250.942 134.701 251.141 135.707 251.122 136.72V139.422ZM216.592 142.5H243.107C243.422 142.504 243.734 142.446 244.025 142.33C244.315 142.214 244.577 142.042 244.794 141.826C245.023 141.611 245.203 141.354 245.324 141.071C245.445 140.788 245.504 140.485 245.497 140.179V135.932C245.502 135.631 245.442 135.333 245.321 135.054C245.2 134.776 245.021 134.524 244.794 134.313C244.577 134.096 244.315 133.925 244.025 133.809C243.734 133.693 243.422 133.635 243.107 133.639H216.592V142.5Z" fill="url(#paint6_linear_1492_4864)"/>
<path d="M329.459 129.217C329.459 129.189 329.451 129.162 329.436 129.138C329.421 129.115 329.4 129.095 329.374 129.081C329.356 129.055 329.332 129.034 329.302 129.02C329.273 129.006 329.241 129 329.208 129.001H324.059C324.027 129.003 323.996 129.011 323.967 129.025C323.939 129.039 323.913 129.058 323.893 129.081C323.874 129.099 323.859 129.12 323.85 129.144C323.84 129.167 323.835 129.192 323.836 129.217V151.355H318.916C318.491 151.355 318.075 151.247 317.709 151.043C317.343 150.839 317.041 150.546 316.834 150.194L311.379 141.041V129.217C311.379 129.189 311.371 129.162 311.356 129.138C311.341 129.115 311.32 129.095 311.295 129.081C311.276 129.055 311.252 129.034 311.223 129.02C311.194 129.006 311.161 129 311.128 129.001H306.01C305.973 129.001 305.937 129.008 305.903 129.022C305.869 129.035 305.838 129.056 305.813 129.081C305.794 129.099 305.78 129.12 305.77 129.144C305.76 129.167 305.756 129.192 305.756 129.217V141.043L300.301 150.195C300.095 150.547 299.793 150.84 299.428 151.044C299.062 151.248 298.646 151.356 298.221 151.356H293.301V129.217C293.301 129.189 293.293 129.162 293.278 129.138C293.263 129.115 293.242 129.095 293.216 129.081C293.202 129.057 293.181 129.037 293.156 129.023C293.131 129.009 293.103 129.001 293.074 129.001H287.924C287.887 129.001 287.85 129.008 287.816 129.022C287.782 129.035 287.752 129.056 287.726 129.081C287.708 129.099 287.693 129.12 287.684 129.144C287.674 129.167 287.669 129.192 287.67 129.217V155.756C287.669 155.823 287.688 155.889 287.726 155.945C287.785 155.982 287.854 156 287.924 155.999H299.143C300.409 156.006 301.652 155.689 302.743 155.08C303.861 154.457 304.783 153.563 305.414 152.489L308.57 147.198L311.726 152.489C312.353 153.557 313.264 154.451 314.369 155.08C315.471 155.687 316.723 156.004 317.997 155.999H329.217C329.247 156.001 329.277 155.997 329.305 155.988C329.334 155.979 329.36 155.964 329.383 155.945C329.41 155.921 329.431 155.892 329.445 155.859C329.46 155.827 329.467 155.792 329.467 155.756L329.459 129.217Z" fill="url(#paint7_linear_1492_4864)"/>
<path d="M370.032 129.001C371.093 128.984 372.146 129.178 373.124 129.568C374.102 129.959 374.983 130.538 375.712 131.269C376.477 131.977 377.081 132.826 377.487 133.763C377.894 134.7 378.093 135.707 378.074 136.72V148.275C378.092 149.293 377.892 150.303 377.486 151.245C377.08 152.187 376.476 153.041 375.712 153.756C374.979 154.48 374.096 155.053 373.119 155.438C372.141 155.824 371.091 156.014 370.032 155.996H345.934C344.876 156.01 343.827 155.819 342.85 155.434C341.873 155.048 340.99 154.477 340.255 153.756C339.49 153.041 338.887 152.187 338.48 151.245C338.074 150.303 337.875 149.293 337.893 148.275V136.72C337.873 135.707 338.071 134.701 338.477 133.764C338.882 132.826 339.486 131.977 340.25 131.269C340.981 130.54 341.864 129.962 342.842 129.572C343.82 129.181 344.873 128.987 345.934 129.001H370.032ZM372.451 135.932C372.455 135.631 372.396 135.333 372.275 135.054C372.154 134.776 371.975 134.524 371.748 134.313C371.531 134.088 371.266 133.908 370.971 133.787C370.675 133.666 370.356 133.606 370.034 133.61H345.934C345.613 133.609 345.294 133.67 344.999 133.791C344.704 133.912 344.439 134.09 344.22 134.313C343.993 134.524 343.814 134.776 343.693 135.054C343.573 135.333 343.513 135.631 343.517 135.932V149.053C343.514 149.358 343.575 149.66 343.695 149.943C343.816 150.225 343.994 150.483 344.22 150.7C344.443 150.915 344.71 151.086 345.005 151.202C345.299 151.318 345.615 151.376 345.934 151.374H370.032C370.352 151.379 370.668 151.322 370.963 151.206C371.258 151.09 371.525 150.917 371.747 150.7C371.972 150.483 372.151 150.225 372.271 149.943C372.392 149.66 372.452 149.358 372.449 149.053L372.451 135.932Z" fill="url(#paint8_linear_1492_4864)"/>
<path d="M426.692 139.422C426.714 140.902 426.278 142.355 425.438 143.603C424.599 144.85 423.392 145.837 421.968 146.441L422.081 146.657L426.551 155.674C426.569 155.747 426.559 155.824 426.523 155.89C426.505 155.925 426.477 155.954 426.442 155.974C426.406 155.993 426.366 156.002 426.325 155.999H420.617C420.57 155.998 420.525 155.985 420.485 155.961C420.445 155.937 420.414 155.903 420.393 155.863L416.062 147.142H392.162V155.782C392.157 155.843 392.126 155.899 392.077 155.939C392.055 155.958 392.028 155.972 392 155.982C391.971 155.991 391.941 155.995 391.911 155.993H386.762C386.702 155.991 386.644 155.972 386.596 155.939C386.561 155.893 386.541 155.838 386.539 155.782V129.244C386.535 129.186 386.556 129.13 386.596 129.086C386.616 129.063 386.642 129.044 386.67 129.03C386.699 129.016 386.73 129.008 386.762 129.006H418.675C419.731 128.991 420.779 129.186 421.751 129.576C422.723 129.967 423.599 130.545 424.323 131.274C425.089 131.981 425.694 132.828 426.102 133.765C426.509 134.701 426.71 135.707 426.692 136.72V139.422ZM392.162 142.5H418.677C418.992 142.504 419.305 142.446 419.595 142.33C419.886 142.214 420.148 142.042 420.365 141.826C420.593 141.611 420.773 141.354 420.894 141.071C421.015 140.788 421.074 140.485 421.067 140.179V135.932C421.072 135.631 421.012 135.333 420.891 135.054C420.771 134.776 420.591 134.524 420.365 134.313C420.148 134.096 419.886 133.925 419.595 133.809C419.305 133.693 418.992 133.635 418.677 133.639H392.162V142.5Z" fill="url(#paint9_linear_1492_4864)"/>
<path d="M475.277 151.599C475.277 151.572 475.269 151.545 475.254 151.521C475.24 151.497 475.219 151.477 475.194 151.464C475.18 151.439 475.159 151.419 475.134 151.405C475.109 151.391 475.08 151.384 475.051 151.383H443.167C442.848 151.388 442.531 151.331 442.236 151.215C441.941 151.099 441.675 150.927 441.453 150.709C441.227 150.492 441.049 150.235 440.928 149.952C440.808 149.67 440.747 149.368 440.75 149.063V129.244C440.751 129.213 440.744 129.182 440.729 129.154C440.715 129.127 440.693 129.103 440.666 129.086C440.648 129.06 440.623 129.039 440.594 129.025C440.564 129.011 440.532 129.004 440.499 129.006H435.35C435.318 129.008 435.287 129.016 435.258 129.03C435.23 129.044 435.204 129.063 435.184 129.086C435.144 129.13 435.124 129.186 435.127 129.244V148.278C435.108 149.294 435.305 150.302 435.706 151.244C436.107 152.185 436.704 153.041 437.461 153.759C438.201 154.482 439.089 155.054 440.07 155.439C441.052 155.825 442.107 156.015 443.169 155.999H475.053C475.079 156 475.106 155.996 475.13 155.987C475.155 155.977 475.177 155.963 475.196 155.945C475.244 155.905 475.273 155.849 475.279 155.788L475.277 151.599Z" fill="url(#paint10_linear_1492_4864)"/>
<path d="M515.827 129.001C516.888 128.984 517.941 129.178 518.918 129.568C519.896 129.959 520.778 130.538 521.506 131.269C522.272 131.977 522.876 132.827 523.282 133.765C523.688 134.703 523.887 135.709 523.867 136.723V148.278C523.885 149.296 523.686 150.306 523.28 151.248C522.874 152.19 522.271 153.045 521.506 153.759C520.773 154.483 519.89 155.055 518.913 155.441C517.936 155.826 516.885 156.016 515.827 155.999H483.933C483.873 155.998 483.815 155.979 483.767 155.945C483.726 155.89 483.705 155.824 483.707 155.756V129.244C483.705 129.215 483.709 129.186 483.719 129.159C483.73 129.132 483.746 129.107 483.767 129.086C483.787 129.063 483.813 129.043 483.841 129.03C483.87 129.016 483.901 129.008 483.933 129.006L515.827 129.001ZM518.242 135.932C518.247 135.631 518.187 135.333 518.066 135.054C517.945 134.776 517.766 134.524 517.539 134.313C517.323 134.087 517.058 133.908 516.763 133.787C516.467 133.666 516.149 133.606 515.827 133.61H489.337V151.383H515.827C516.146 151.389 516.463 151.332 516.757 151.216C517.052 151.1 517.318 150.927 517.539 150.709C517.765 150.492 517.943 150.235 518.064 149.952C518.185 149.67 518.245 149.368 518.242 149.063V135.932Z" fill="url(#paint11_linear_1492_4864)"/>
<defs>
<linearGradient id="paint0_linear_1492_4864" x1="209.684" y1="97.332" x2="209.946" y2="97.332" gradientUnits="userSpaceOnUse">
<stop stop-color="white"/>
<stop offset="1" stop-color="white"/>
</linearGradient>
<linearGradient id="paint1_linear_1492_4864" x1="483.706" y1="156" x2="483.787" y2="156" gradientUnits="userSpaceOnUse">
<stop stop-color="white"/>
<stop offset="1" stop-color="white"/>
</linearGradient>
<linearGradient id="paint2_linear_1492_4864" x1="483.706" y1="156" x2="483.787" y2="156" gradientUnits="userSpaceOnUse">
<stop stop-color="white"/>
<stop offset="1" stop-color="white"/>
</linearGradient>
<linearGradient id="paint3_linear_1492_4864" x1="483.706" y1="156" x2="483.787" y2="156" gradientUnits="userSpaceOnUse">
<stop stop-color="white"/>
<stop offset="1" stop-color="white"/>
</linearGradient>
<linearGradient id="paint4_linear_1492_4864" x1="483.706" y1="156" x2="483.787" y2="156" gradientUnits="userSpaceOnUse">
<stop stop-color="white"/>
<stop offset="1" stop-color="white"/>
</linearGradient>
<linearGradient id="paint5_linear_1492_4864" x1="483.706" y1="156" x2="483.787" y2="156" gradientUnits="userSpaceOnUse">
<stop stop-color="white"/>
<stop offset="1" stop-color="white"/>
</linearGradient>
<linearGradient id="paint6_linear_1492_4864" x1="483.706" y1="156" x2="483.787" y2="156" gradientUnits="userSpaceOnUse">
<stop stop-color="white"/>
<stop offset="1" stop-color="white"/>
</linearGradient>
<linearGradient id="paint7_linear_1492_4864" x1="483.706" y1="156" x2="483.787" y2="156" gradientUnits="userSpaceOnUse">
<stop stop-color="white"/>
<stop offset="1" stop-color="white"/>
</linearGradient>
<linearGradient id="paint8_linear_1492_4864" x1="483.706" y1="156" x2="483.787" y2="156" gradientUnits="userSpaceOnUse">
<stop stop-color="white"/>
<stop offset="1" stop-color="white"/>
</linearGradient>
<linearGradient id="paint9_linear_1492_4864" x1="483.706" y1="156" x2="483.787" y2="156" gradientUnits="userSpaceOnUse">
<stop stop-color="white"/>
<stop offset="1" stop-color="white"/>
</linearGradient>
<linearGradient id="paint10_linear_1492_4864" x1="483.706" y1="156" x2="483.787" y2="156" gradientUnits="userSpaceOnUse">
<stop stop-color="white"/>
<stop offset="1" stop-color="white"/>
</linearGradient>
<linearGradient id="paint11_linear_1492_4864" x1="483.706" y1="156" x2="483.787" y2="156" gradientUnits="userSpaceOnUse">
<stop stop-color="white"/>
<stop offset="1" stop-color="white"/>
</linearGradient>
</defs>
</svg>
