<svg width="445" height="33" viewBox="0 0 445 33" fill="none" xmlns="http://www.w3.org/2000/svg">
<path d="M331.337 0.281007C332.647 0.0657251 333.956 0.225193 335.289 0.145459C338.352 -0.0459024 341.555 1.00659 343.778 3.11156C345.894 5.16072 346.808 8.12683 346.841 11.0052V20.8125C346.866 23.2364 346.314 25.6922 344.947 27.7095C343.136 30.4045 339.801 31.8875 336.566 32.0231C334.252 31.9992 331.864 32.2623 329.633 31.5128C326.875 30.7553 324.487 28.8178 323.368 26.2583C321.894 23.1328 322.281 19.5766 322.223 16.2278C322.281 12.5919 321.803 8.62915 323.697 5.31222C325.146 2.50558 328.176 0.839144 331.321 0.273033L331.337 0.281007ZM333.116 6.91487C331.082 7.18597 330.053 9.23513 330.053 11.0371C330.028 14.3222 330.053 17.5594 330.053 20.8444C330.053 22.2477 330.415 23.8105 331.609 24.7274C333.281 25.9155 335.759 25.9155 337.48 24.8072C338.896 23.7308 339.011 21.8171 339.093 20.2225C339.151 17.5833 339.118 14.9122 339.093 12.2969C339.011 10.5986 338.896 8.58131 337.397 7.49693C336.121 6.71554 334.557 6.50026 333.108 6.9069L333.116 6.91487Z" fill="white"/>
<path d="M0.355469 0.416299H12.8537C15.6119 0.416299 18.5594 1.06214 20.6507 2.91994C22.9313 4.99303 23.6312 8.33388 22.9313 11.2521C22.4867 13.0541 21.0706 14.4335 19.4816 15.4302C20.4284 16.1319 21.4823 16.7777 22.1821 17.7186C23.8535 19.7677 24.0428 22.5664 23.5488 25.0461C23.1619 27.1192 21.9351 29.0886 20.0167 30.1411C17.7032 31.5125 14.9532 31.8394 12.335 31.8394H0.437802C0.355469 21.3544 0.355469 10.8933 0.355469 0.408325V0.416299ZM7.97956 6.88272V12.7352C9.5933 12.7352 11.24 12.791 12.8537 12.7113C13.9981 12.6555 15.1343 11.8501 15.2496 10.686C15.4966 9.3146 15.2249 7.40099 13.5782 7.01827C11.7669 6.69136 9.84853 6.90664 7.98779 6.88272H7.97956ZM7.95486 25.3491C9.8156 25.3252 11.6846 25.5086 13.5206 25.1896C16.5834 24.7591 16.6657 19.7438 13.7182 19.074C11.8575 18.6196 9.88146 18.9146 7.98779 18.8588C7.93016 21.0435 7.98779 23.1724 7.96309 25.3571L7.95486 25.3491Z" fill="white"/>
<path d="M33.891 0.438854C37.4232 0.414934 40.9882 0.438854 44.5203 0.438854C47.5255 0.438854 50.753 0.845497 53.2559 2.59167C55.8988 4.42555 56.9609 7.74248 56.7633 10.7564C56.9033 13.0209 56.3434 15.3411 54.952 17.2228C54.1204 18.379 52.8936 19.1604 51.6916 19.8939C53.8652 23.9364 56.2858 27.8195 58.5417 31.8381C55.6765 31.862 52.8113 31.8939 49.9379 31.8381C48.2418 28.4972 46.5128 25.1564 44.8167 21.8076C44.3474 20.6195 42.816 21.2175 41.8115 21.082C41.6469 21.5125 41.5316 21.975 41.5645 22.4295C41.5892 25.5869 41.5645 28.7364 41.5892 31.8939C39.0287 31.8939 36.4681 31.9178 33.8828 31.8939C33.9075 21.3531 33.8828 10.8999 33.8828 0.438854H33.891ZM41.6551 6.88136C41.5728 9.49663 41.6304 12.0561 41.6304 14.6714C43.0218 14.6714 44.438 14.7272 45.8294 14.6155C47.1962 14.5358 48.5876 13.6747 48.8922 12.2953C49.3368 10.597 49.1722 8.30859 47.3608 7.39165C45.6071 6.55445 43.5488 6.93717 41.6551 6.88136Z" fill="white"/>
<path d="M67.2656 0.416299C69.8262 0.496033 72.4115 0.360485 75.005 0.496033C74.9473 10.9571 75.005 21.3863 74.9803 31.8394C72.395 31.8634 69.8015 31.8394 67.2409 31.8394C67.2162 22.7817 67.2409 13.7 67.2409 4.6422C67.2162 3.18307 67.1586 1.78772 67.2656 0.408325V0.416299Z" fill="white"/>
<path d="M94.3465 0.438594C96.8247 0.414674 99.2701 0.414674 101.724 0.438594C105.173 10.9236 108.598 21.3528 112.048 31.8378C109.323 31.8378 106.622 31.8617 103.864 31.8139C103.197 29.7647 102.777 27.6119 101.913 25.6664C99.657 25.7222 97.434 25.6903 95.1534 25.6903C94.7335 25.7143 94.0666 25.6106 93.9842 26.1448C93.3173 28.0026 92.8398 29.9481 92.2305 31.8298C89.53 31.8538 86.8294 31.8538 84.1289 31.8298C87.4963 21.3209 90.9791 10.8837 94.3465 0.430621V0.438594ZM95.7626 19.2H100.464C99.6817 16.1302 98.9078 13.1083 98.0186 10.0625C97.3187 13.1083 96.2072 16.0983 95.7626 19.2Z" fill="white"/>
<path d="M121.17 0.41702C123.426 0.44094 125.706 0.361206 127.929 0.44094C128.489 0.895423 128.794 1.62898 129.181 2.21901C132.466 7.17846 135.693 12.2176 138.954 17.1771C139.151 11.5957 138.896 5.99042 139.118 0.409046C141.597 0.432966 144.042 0.385126 146.52 0.432966C146.495 10.8941 146.545 21.3472 146.52 31.8083H139.728C136.278 26.498 132.853 21.1319 129.461 15.7977C129.214 15.3911 128.901 15.0402 128.596 14.6655C128.431 20.3505 128.571 26.0913 128.538 31.7843C126.06 31.8083 123.615 31.8083 121.161 31.7843C121.161 21.3551 121.137 10.8941 121.161 0.409046L121.17 0.41702Z" fill="white"/>
<path d="M159.195 2.62548C161.451 0.632135 164.596 -0.0137099 167.576 0.201572C171.446 -0.0695236 175.143 1.38961 178.321 3.35904C177.234 5.19292 176.263 7.07464 175.011 8.80486C172.533 7.29789 169.61 6.26932 166.63 6.62015C165.518 6.77962 164.316 7.45736 164.184 8.6135C163.937 9.76964 165.016 10.6387 165.963 11.0932C168.219 12.1138 170.639 12.5763 172.895 13.573C175.736 14.6813 178.379 16.9138 178.938 19.9357C179.408 22.6865 179.243 25.7563 177.605 28.1563C175.324 31.3138 171.034 32.3343 167.222 32.0633C163.106 32.3583 159.096 30.8513 155.613 28.7782C156.395 26.9204 157.367 25.1105 158.149 23.2527C159.565 23.5237 160.85 24.3051 162.266 24.656C164.546 25.3018 167 26.0274 169.363 25.2779C170.557 24.9271 171.619 23.9065 171.586 22.6387C171.668 21.2912 170.474 20.2387 169.305 19.7284C166.16 18.3012 162.546 17.9264 159.73 15.8454C157.672 14.4181 156.56 11.9384 156.585 9.4826C156.56 7.0268 157.252 4.36368 159.203 2.63346L159.195 2.62548Z" fill="white"/>
<path d="M188.975 0.46259C191.535 0.382856 194.071 0.43867 196.632 0.43867C196.656 4.18616 196.632 7.93366 196.656 11.6812C196.574 12.5184 198.023 12.622 198.27 11.9523C200.361 8.12502 202.444 4.29779 204.478 0.470563C207.286 0.446643 210.068 0.446643 212.884 0.470563C210.159 5.23865 207.376 9.98282 204.593 14.7589C204.149 15.3489 204.84 15.9469 205.038 16.4811C207.845 21.5761 210.579 26.7269 213.362 31.814C210.554 31.8937 207.771 31.8379 204.956 31.8379C202.617 27.5243 200.394 23.1309 198.081 18.8173H196.714C196.516 23.1549 196.689 27.5243 196.632 31.8379C194.096 31.8618 191.568 31.8379 189.032 31.8379C188.917 21.3529 189.032 10.9237 188.975 0.46259Z" fill="white"/>
<path d="M222.38 0.416299H232.4C235.685 0.392378 239.275 0.711314 241.917 2.7844C243.951 4.32326 244.923 6.77109 245.178 9.20298C245.425 11.9219 245.095 14.8402 243.424 17.0966C242.56 18.2847 241.333 19.1458 240.032 19.8475C242.313 23.8342 244.626 27.8288 246.932 31.7916C244.091 31.8155 241.201 31.7916 238.361 31.8155C236.467 28.2275 234.713 24.5916 232.77 21.0355C231.848 21.0116 230.909 21.0355 229.987 21.1152C230.012 24.6714 229.987 28.2275 229.987 31.8155C227.451 31.8394 224.924 31.8155 222.363 31.8155C222.199 30.4919 222.166 29.1763 222.199 27.8527C222.174 22.0322 222.199 16.2116 222.174 10.383C222.421 7.098 222.059 3.74918 222.396 0.408325L222.38 0.416299ZM230.037 6.88272V14.6727C231.453 14.6727 232.902 14.7285 234.376 14.6169C235.825 14.4814 237.183 13.4289 237.356 11.9777C237.496 10.4947 237.603 8.69268 236.245 7.71993C234.433 6.45216 232.095 6.96245 230.037 6.88272Z" fill="white"/>
<path d="M262.902 0.442126C264.433 0.0354831 265.989 0.226844 267.554 0.171031C270.896 0.0115629 274.453 1.24744 276.602 3.8069C278.413 5.87998 279.08 8.68661 279.08 11.3577V21.165C279.08 23.4055 278.553 25.6699 277.302 27.6075C275.351 30.6772 271.481 32.2719 267.842 32.1124C266.006 32.0885 264.112 32.2719 262.334 31.7058C259.938 31.0839 257.682 29.7125 256.323 27.6633C254.907 25.5902 254.463 22.9989 254.43 20.5191V11.6288C254.487 8.87798 255.097 5.99161 256.933 3.83879C258.464 2.06072 260.662 0.952423 262.918 0.442126H262.902ZM265.438 6.90855C264.351 7.06802 263.379 7.76968 262.902 8.71054C262.202 10.1139 262.235 11.6766 262.26 13.2155C262.284 15.751 262.235 18.3344 262.284 20.87C262.342 22.353 262.729 23.9716 264.038 24.8885C265.734 25.9091 268.048 25.8613 269.744 24.8327C270.938 23.9158 271.275 22.3291 271.3 20.87C271.325 17.9358 271.3 14.9696 271.3 11.9717C271.3 10.4647 271.16 8.81419 269.991 7.71386C268.797 6.63745 266.986 6.71719 265.429 6.90855H265.438Z" fill="white"/>
<path d="M289.757 0.415935H299.802C302.609 0.360121 305.59 0.392015 308.15 1.70762C312.382 3.73287 313.881 9.57736 311.238 13.3249C310.595 14.2418 309.599 14.7521 308.842 15.5654C310.842 16.6737 312.489 18.4996 312.851 20.764C313.411 23.8099 312.827 27.4218 310.266 29.471C307.986 31.3288 304.898 31.7912 301.975 31.8391C297.883 31.863 293.791 31.8391 289.699 31.8391C289.757 21.3541 289.757 10.893 289.757 0.407962V0.415935ZM297.381 6.88236C297.356 8.85178 297.356 10.7893 297.381 12.7587C298.937 12.7348 300.468 12.7827 302.033 12.7348C303.12 12.7109 304.256 12.1129 304.536 11.0365C305.038 9.55344 304.593 7.36873 302.782 6.99398C301.028 6.75478 299.192 6.91425 297.381 6.88236ZM297.381 25.3727C299.242 25.3487 301.135 25.5321 303.004 25.2132C305.54 24.7587 305.927 21.1707 304.231 19.6318C302.23 18.3082 299.67 19.0418 297.381 18.8265C297.323 21.0112 297.381 23.1959 297.381 25.3727Z" fill="white"/>
<path d="M357.443 0.414812C359.757 0.470626 362.062 0.279264 364.376 0.494546C368.105 5.94037 371.555 11.5696 375.285 17.0473C375.45 11.4978 375.203 5.97227 375.425 0.414812C377.903 0.438732 380.348 0.414812 382.827 0.438732C382.802 10.8998 382.827 21.3529 382.827 31.814C380.571 31.838 378.348 31.814 376.067 31.814C372.617 26.4798 369.192 21.1137 365.8 15.7476C365.553 15.341 365.273 14.9902 364.969 14.6154C364.829 20.3563 364.944 26.0732 364.911 31.814H357.451C357.451 27.341 357.476 22.8679 357.451 18.3629C357.229 16.529 357.534 14.6952 357.476 12.8374C357.451 8.73903 357.451 4.56098 357.451 0.414812H357.443Z" fill="white"/>
<path d="M400.192 0.442383H407.874C407.874 7.76993 407.898 15.0496 407.849 22.3852C407.767 25.3513 406.985 28.6682 404.342 30.4702C401.756 32.328 398.356 32.1685 395.326 32.033C394.215 31.9532 393.153 31.6024 392.041 31.3313C392.263 29.2822 392.206 27.2091 392.65 25.1838C394.602 25.3991 396.742 26.0768 398.636 25.2077C400.11 24.4503 400.052 22.5367 400.192 21.1413C400.217 14.2124 400.167 7.33937 400.192 0.442383Z" fill="white"/>
<path d="M427.301 0.43998C429.779 0.43998 432.224 0.41606 434.702 0.4639C438.094 10.9489 441.577 21.3542 444.945 31.8392C442.244 31.8631 439.576 31.8631 436.843 31.8392C436.201 29.9814 435.731 28.0359 435.089 26.1781C434.925 25.5562 434.118 25.7236 433.64 25.6917C431.524 25.7475 429.408 25.6359 427.243 25.7156C426.683 25.9867 426.716 26.6884 426.494 27.1987C426.024 28.7615 425.572 30.3243 425.102 31.887C422.377 31.887 419.676 31.9429 416.951 31.8631C420.483 21.3542 423.851 10.8931 427.309 0.432007L427.301 0.43998ZM430.948 10.0081C430.166 13.0778 429.277 16.0997 428.585 19.2014C430.174 19.2253 431.755 19.2014 433.319 19.2014C433.121 17.6147 432.595 16.0997 432.208 14.5688C431.763 13.0619 431.508 11.4991 430.956 10.016L430.948 10.0081Z" fill="white"/>
</svg>
