<svg width="380" height="110" viewBox="0 0 380 110" fill="none" xmlns="http://www.w3.org/2000/svg">
<path d="M17.0582 88.0783H10.7459V103.985H7.75537V88.0783H1.43359V85.4991H17.0582V88.0783Z" fill="white"/>
<path d="M37.14 85.4991V103.975H34.121V95.9095H25.0169V103.975H22.0264V85.4991H25.0169V93.3398H34.121V85.4991H37.14Z" fill="white"/>
<path d="M57.7335 101.406V103.985H43.9922V85.5088H57.3455V88.0879H46.9827V93.4057H55.0837V95.9286H46.9827V101.415H57.743L57.7335 101.406Z" fill="white"/>
<path d="M84.2507 86.1468C85.4526 86.7658 86.4653 87.7037 87.2792 88.9792L85.0173 91.0237C84.4968 89.9077 83.8438 89.0917 83.0583 88.5853C82.2728 88.0788 81.2318 87.8256 79.9258 87.8256C78.6198 87.8256 77.6451 88.0788 76.9353 88.5946C76.2255 89.1105 75.8753 89.767 75.8753 90.5642C75.8753 91.3145 76.216 91.9053 76.9069 92.3461C77.5977 92.7869 78.828 93.1621 80.5977 93.481C82.2539 93.7811 83.5694 94.1562 84.5536 94.6158C85.5284 95.0754 86.2476 95.6381 86.6924 96.3227C87.1372 97.0074 87.3643 97.8515 87.3643 98.855C87.3643 99.9335 87.052 100.89 86.4463 101.706C85.8312 102.531 84.97 103.16 83.8627 103.601C82.7555 104.041 81.4779 104.257 80.0205 104.257C76.2728 104.257 73.6324 103.01 72.0898 100.506L74.1813 98.4048C74.7775 99.5209 75.5441 100.346 76.4905 100.871C77.4274 101.397 78.6009 101.659 79.9921 101.659C81.317 101.659 82.358 101.434 83.1056 100.975C83.8627 100.515 84.2413 99.8679 84.2413 99.0332C84.2413 98.3579 83.9006 97.8233 83.2192 97.4107C82.5378 96.998 81.3548 96.6322 79.6608 96.3227C77.9668 96.0038 76.6135 95.6099 75.6104 95.1504C74.6072 94.6814 73.869 94.1093 73.4148 93.4153C72.9605 92.7213 72.7334 91.8866 72.7334 90.8924C72.7334 89.8514 73.0173 88.8948 73.604 88.0413C74.1813 87.1785 75.0141 86.5032 76.1025 85.9967C77.1908 85.4903 78.4589 85.2371 79.9164 85.2371C81.6104 85.2371 83.0583 85.5466 84.2602 86.1656L84.2507 86.1468Z" fill="white"/>
<path d="M106.699 101.406V103.985H92.958V85.5088H106.311V88.0879H95.9485V93.4057H104.05V95.9286H95.9485V101.415H106.709L106.699 101.406Z" fill="white"/>
<path d="M124.065 86.362C125.38 87.131 126.383 88.2283 127.093 89.6633C127.803 91.0982 128.153 92.7864 128.153 94.7278C128.153 96.6692 127.803 98.3574 127.093 99.7923C126.383 101.227 125.371 102.334 124.065 103.094C122.749 103.863 121.206 104.238 119.437 104.238C117.667 104.238 116.134 103.853 114.828 103.094C113.522 102.334 112.519 101.227 111.809 99.7923C111.099 98.3574 110.749 96.6692 110.749 94.7278C110.749 92.7864 111.099 91.0982 111.809 89.6633C112.519 88.2283 113.522 87.1217 114.828 86.362C116.134 85.5929 117.667 85.2178 119.437 85.2178C121.206 85.2178 122.749 85.6023 124.065 86.362ZM115.358 89.6352C114.374 90.845 113.872 92.5426 113.872 94.7278C113.872 96.9131 114.364 98.6106 115.358 99.8205C116.342 101.03 117.705 101.64 119.437 101.64C121.169 101.64 122.56 101.03 123.544 99.8205C124.528 98.6106 125.03 96.9131 125.03 94.7278C125.03 92.5426 124.538 90.845 123.544 89.6352C122.56 88.4253 121.188 87.8157 119.437 87.8157C117.686 87.8157 116.342 88.4253 115.358 89.6352Z" fill="white"/>
<path d="M155.107 86.1468C156.309 86.7658 157.322 87.7037 158.136 88.9792L155.874 91.0237C155.353 89.9077 154.7 89.0917 153.915 88.5853C153.129 88.0788 152.088 87.8256 150.782 87.8256C149.476 87.8256 148.502 88.0788 147.792 88.5946C147.082 89.1105 146.732 89.767 146.732 90.5642C146.732 91.3145 147.072 91.9053 147.763 92.3461C148.454 92.7869 149.684 93.1621 151.454 93.481C153.11 93.7811 154.426 94.1562 155.41 94.6158C156.385 95.0754 157.104 95.6381 157.549 96.3227C157.994 97.0074 158.221 97.8515 158.221 98.855C158.221 99.9335 157.908 100.89 157.303 101.706C156.688 102.531 155.826 103.16 154.719 103.601C153.612 104.041 152.334 104.257 150.877 104.257C147.129 104.257 144.489 103.01 142.946 100.506L145.038 98.4048C145.634 99.5209 146.401 100.346 147.347 100.871C148.284 101.397 149.457 101.659 150.849 101.659C152.173 101.659 153.214 101.434 153.962 100.975C154.719 100.515 155.098 99.8679 155.098 99.0332C155.098 98.3579 154.757 97.8233 154.076 97.4107C153.394 96.998 152.211 96.6322 150.517 96.3227C148.823 96.0038 147.47 95.6099 146.467 95.1504C145.464 94.6814 144.725 94.1093 144.271 93.4153C143.817 92.7213 143.59 91.8866 143.59 90.8924C143.59 89.8514 143.874 88.8948 144.46 88.0413C145.038 87.1785 145.871 86.5032 146.959 85.9967C148.047 85.4903 149.315 85.2371 150.773 85.2371C152.467 85.2371 153.915 85.5466 155.117 86.1656L155.107 86.1468Z" fill="white"/>
<path d="M176.088 86.362C177.403 87.131 178.407 88.2283 179.116 89.6633C179.826 91.0982 180.176 92.7864 180.176 94.7278C180.176 96.6692 179.826 98.3574 179.116 99.7923C178.407 101.227 177.394 102.334 176.088 103.094C174.772 103.863 173.23 104.238 171.46 104.238C169.69 104.238 168.157 103.853 166.851 103.094C165.545 102.334 164.542 101.227 163.832 99.7923C163.123 98.3574 162.772 96.6692 162.772 94.7278C162.772 92.7864 163.123 91.0982 163.832 89.6633C164.542 88.2283 165.545 87.1217 166.851 86.362C168.157 85.5929 169.69 85.2178 171.46 85.2178C173.23 85.2178 174.772 85.6023 176.088 86.362ZM167.381 89.6352C166.397 90.845 165.895 92.5426 165.895 94.7278C165.895 96.9131 166.388 98.6106 167.381 99.8205C168.366 101.03 169.728 101.64 171.46 101.64C173.192 101.64 174.583 101.03 175.567 99.8205C176.552 98.6106 177.053 96.9131 177.053 94.7278C177.053 92.5426 176.561 90.845 175.567 89.6352C174.583 88.4253 173.211 87.8157 171.46 87.8157C169.709 87.8157 168.366 88.4253 167.381 89.6352Z" fill="white"/>
<path d="M204.865 103.975H202.13V93.2835L202.328 88.1908H202.3L196.688 103.985H194.199L188.587 88.1908H188.559L188.786 93.2835V103.975H186.022V85.4991H190.461L194.18 96.1909L195.467 100.59H195.524L196.84 96.1909L200.53 85.4991H204.884V103.975H204.865Z" fill="white"/>
<path d="M230.597 103.975H227.862V93.2835L228.061 88.1908H228.033L222.421 103.985H219.932L214.32 88.1908H214.291L214.518 93.2835V103.975H211.755V85.4991H216.193L219.913 96.1909L221.2 100.59H221.256L222.572 96.1909L226.263 85.4991H230.616V103.975H230.597Z" fill="white"/>
<path d="M251.22 101.406V103.985H237.479V85.5088H250.832V88.0879H240.469V93.4057H248.57V95.9286H240.469V101.415H251.229L251.22 101.406Z" fill="white"/>
<path d="M269.797 101.406V103.985H256.643V85.5088H259.633V101.415H269.807L269.797 101.406Z" fill="white"/>
<path d="M277.757 103.975H274.767V85.4991H277.757V103.975Z" fill="white"/>
<path d="M298.378 101.406V103.985H284.637V85.5088H297.99V88.0879H287.627V93.4057H295.728V95.9286H287.627V101.415H298.388L298.378 101.406Z" fill="white"/>
<path d="M310.72 96.5848H306.755V103.975H303.793V85.4991H311.307C313.304 85.4991 314.875 85.9868 316.03 86.9716C317.184 87.947 317.761 89.3069 317.761 91.042C317.761 92.3644 317.421 93.4711 316.739 94.3621C316.058 95.253 315.093 95.8814 313.853 96.2566L318.85 103.985H315.414L310.72 96.5942V96.5848ZM306.755 94.0901H311.061C312.272 94.0901 313.172 93.8462 313.768 93.3491C314.364 92.8521 314.657 92.0924 314.657 91.0701C314.657 90.0478 314.364 89.2788 313.768 88.7911C313.172 88.294 312.272 88.0502 311.061 88.0502H306.755V94.0994V94.0901Z" fill="white"/>
<path d="M46.8873 59.0218V59.1156C47.0671 59.8472 46.7075 60.3067 46.3384 60.5787C45.7895 61.3103 44.6065 61.8542 43.7832 62.3138L41.6823 63.3173C41.4078 63.6831 41.0482 63.6831 40.4993 63.7769C38.2185 64.6866 38.7674 64.5084 36.2122 65.6057L35.209 65.9715C32.474 66.7968 32.1996 67.1626 29.1901 67.6128C28.6412 67.6128 28.0071 67.8848 27.3636 67.9785C24.6286 68.6163 21.9787 68.8977 19.3289 68.9821C18.78 69.0759 18.4204 68.9821 18.1459 68.9821C17.7768 68.8883 17.3226 68.8883 17.0481 68.9821C15.4961 69.0759 14.1238 68.7945 12.392 68.3443L9.65695 67.6128C7.19637 66.703 5.36987 65.1462 3.72318 63.4955C2.62538 62.0324 1.71686 60.2974 1.2626 58.7405C0.902983 57.4744 0.713708 56.2833 0.713708 55.0922C0.61907 54.4544 1.08279 51.8002 1.34778 51.2469C2.35094 49.418 2.99447 47.683 4.0828 46.0323C4.35725 45.9385 4.45189 45.7603 4.45189 45.4883C4.82097 45.3945 4.82097 45.1226 5.09542 44.7568L6.00394 44.0252C6.27839 43.5657 6.63801 43.1061 7.0071 42.656C7.10173 42.4684 7.37618 42.1964 7.55599 42.112C7.83044 41.9244 7.92508 41.7462 8.2847 41.6524C8.91877 41.6524 9.10805 41.2867 9.46767 40.9209C9.46767 40.8271 9.46767 40.6489 9.56231 40.5551C9.93139 39.7298 10.6601 39.1858 11.4834 38.82C11.9377 38.7263 12.392 38.4543 12.4866 38.0885C12.4866 37.9947 12.5812 37.8165 12.6664 37.8165C13.7642 37.2726 14.6727 36.7192 15.5907 35.8001L17.597 34.7028C18.3257 34.337 19.1491 33.6993 19.9724 33.1459C19.9724 33.1459 19.8778 32.8739 19.7926 32.8739C19.6128 32.6019 19.2437 32.4144 18.7895 32.2362C17.2374 31.4108 16.4141 30.3135 15.5907 28.8505C15.1365 27.7531 14.7674 27.2092 14.9566 26.1025C14.5876 25.4647 14.862 24.9114 14.5024 24.1798C14.2279 22.2572 15.0513 20.5221 15.9598 19.059C16.7831 17.596 17.9661 16.2267 19.3384 15.0356C19.9724 14.4916 20.8904 13.8445 21.6191 13.3005C21.8936 13.1223 21.6191 12.8409 21.8936 12.9347C22.2626 12.9347 22.6223 12.9347 22.6223 12.8409C22.6223 12.6534 22.6223 12.569 22.8021 12.4752C22.8021 12.1094 22.8967 12.2032 23.1712 12.1094C23.2658 11.9312 23.5403 11.2841 23.4456 11.5654L23.5403 11.6592C24.0892 11.4716 24.6381 11.1997 25.0923 10.9277C25.6412 10.5619 26.4646 10.2899 27.0134 10.1024C28.2911 9.4646 29.3888 9.00504 30.7516 8.63927C30.9314 8.46108 31.2059 8.54548 31.2059 8.46108C32.9378 7.63575 34.6696 7.17619 36.5908 6.72601C36.9598 6.45403 37.5939 6.45403 37.963 6.36024C38.6917 6.08825 39.6097 5.90068 40.2438 5.72248C40.5182 5.72248 40.698 5.90068 40.7927 5.81627C40.9725 5.4505 41.8905 5.81627 42.1649 5.6287C42.6192 5.6287 43.0734 5.4505 43.3479 5.26293C44.7201 5.07535 45.9977 5.16914 47.5498 5.44112L48.3731 5.80689C49.7454 6.72601 50.6539 7.26998 51.2028 8.73306C51.3826 9.4646 51.023 9.73658 50.3794 9.55839C50.0103 9.4646 49.6507 9.4646 49.3763 9.19262C48.922 8.64865 48.3731 8.55486 47.8242 8.46108C46.6413 8.36729 45.3636 8.2735 44.4457 8.55486C41.616 8.82685 38.7863 9.38019 36.3258 10.3837C34.6791 10.7495 33.3163 11.3872 32.0387 11.8468C29.0292 13.1317 26.0198 14.3134 23.5497 16.236C21.6286 17.3334 20.2658 18.984 18.8084 20.8129C18.0797 21.6382 17.6254 22.8293 17.1617 23.8328C17.0671 24.4706 16.9819 25.2959 16.9819 25.8493C16.8021 26.7684 17.1617 27.5843 17.5308 28.5034C17.5308 28.7754 17.8052 28.8692 17.8999 28.963C18.3541 29.235 18.903 29.6007 19.4519 29.7883C20.3604 30.0603 21.2784 30.5199 22.1869 30.5199H23.0955C24.0986 30.7918 25.1018 30.5199 25.6507 30.1541C26.1996 29.8821 27.2974 29.9665 27.7516 29.7883C28.3005 29.6945 28.6601 29.5163 29.3037 29.4226L31.5844 28.8786C32.1333 28.7848 32.493 28.6066 32.862 28.6066C33.4109 28.6066 33.6854 28.5128 34.2343 28.3346C34.6885 28.2408 34.963 28.0626 35.6065 27.9688H36.1554C36.9788 27.7907 38.1617 27.6969 39.2595 27.6031C39.6286 27.6031 39.8084 27.6031 40.0829 27.5093C40.6318 27.2373 41.3605 27.3217 42.3636 27.1435C42.5435 27.1435 42.7327 27.2373 42.9977 27.4155C43.5466 27.5937 43.7264 27.7813 44.2753 28.0533C44.7296 28.5128 44.9094 28.7848 45.0987 29.2444C45.3731 29.5163 45.3731 29.7039 45.1933 29.7883C45.1933 29.9665 45.1933 30.2479 45.0135 30.4261C44.9188 30.7918 44.4646 30.7918 44.0103 30.8856C43.1018 31.2514 42.0987 31.3452 41.0955 31.6172C39.1744 32.0767 37.2627 32.5269 35.1617 32.6207C33.0608 33.0803 30.6948 32.9865 28.4993 33.2585C27.5907 33.0803 26.9472 33.8024 26.3983 33.718C25.4898 33.6242 24.9409 34.1776 24.392 34.6371C22.3857 35.7344 20.5592 36.8318 18.6475 38.0229C17.0008 39.0264 15.4582 40.1237 13.9062 41.4086C13.7264 41.5024 13.7264 41.5868 13.6317 41.6806L9.89354 45.1601C9.16483 45.9854 8.34149 46.7169 7.61278 47.8143C6.60962 49.0991 5.60646 50.3747 4.96293 52.0253C4.41403 53.3008 3.95977 54.7733 3.86513 56.3208C3.86513 56.5928 3.68532 56.7803 3.68532 57.0523C3.59069 58.6092 3.95977 60.0723 4.50867 61.3478C4.68848 61.8073 5.1522 62.4451 5.60646 62.9046C6.33517 63.3642 7.15852 64.002 8.16167 64.3677C8.34148 64.3677 8.71057 64.4615 8.89038 64.5459C10.2626 65.0899 11.2658 65.3713 12.5434 65.465C14.7295 65.737 16.9251 65.9246 18.9314 65.9246C19.8399 65.9246 20.6633 65.6526 21.4866 65.5588C22.0355 65.465 22.8589 65.3713 23.3983 65.3713C24.0418 65.465 24.5813 65.3713 25.1302 65.0993C25.7642 64.8273 26.3131 64.6397 27.0513 64.9211C27.3258 65.0149 27.5056 64.9211 27.78 65.0149C28.0545 64.7429 28.4141 64.5553 28.8778 64.4709C29.3321 64.2927 30.0608 64.1051 30.8841 64.1051C31.433 64.0113 31.7075 63.8331 32.1617 63.7394C33.4393 63.2798 34.0734 62.8202 34.7169 62.7358C34.8967 62.5576 35.5403 62.2763 35.8999 62.1919C36.7232 61.9199 37.3573 61.5541 38.1807 61.4603C38.9094 60.9164 39.4583 61.0946 40.0072 60.4568C40.187 60.091 40.8305 60.1848 41.2848 59.9972C41.739 59.8097 41.6539 59.3595 42.1933 59.2657C42.7422 59.2657 43.1018 58.8061 43.3763 58.6279C43.7453 58.2622 44.2848 57.9902 44.9283 57.8964C45.1081 58.0746 45.1081 57.9902 45.3826 57.8964C46.2911 57.7182 46.84 57.8026 46.9346 59.0875L46.8873 59.0218Z" fill="white"/>
<path d="M69.4204 37.9016C69.3257 37.8078 69.1459 37.9016 68.7863 37.8078C68.5118 37.714 67.8778 37.714 67.2342 37.9016C66.6853 38.0798 65.9566 38.5394 65.3131 38.9051C64.2153 39.5429 63.4014 40.5464 62.3983 41.3717C61.5749 41.9157 60.8462 42.741 59.474 44.4761C59.1049 45.2077 58.4708 46.033 58.0166 46.7645C57.9219 47.0365 57.8367 47.2241 57.5623 47.4023C56.8336 48.5934 56.5591 49.8689 56.1049 51.2476C56.1049 51.4351 56.0102 51.7071 56.0102 51.9791C55.8304 52.4387 55.1017 52.7106 54.7326 52.5231C54.0986 52.3449 53.5497 52.0635 53.0008 51.6039C52.5465 51.332 52.5465 51.06 52.7263 50.6004C53.0008 49.9627 53.1806 49.3155 53.5497 48.6778C53.9188 47.9462 54.1837 47.0365 54.373 46.1174C55.0071 43.9228 55.3762 41.6344 55.9251 39.4397C56.1049 38.802 56.1049 38.1548 56.1995 37.6109C56.474 36.6074 56.5686 35.6882 56.5686 34.7785C56.5686 34.4127 56.7484 34.1407 57.1175 34.047C57.4866 33.9532 57.7516 33.9532 58.026 34.1407C58.4803 34.3189 58.9345 34.6003 59.3036 34.8723C59.7579 35.1443 60.0323 35.4162 59.8525 35.8758C59.7579 37.1607 59.4834 38.4362 59.3036 39.7211C59.209 39.7211 59.3036 39.8149 59.3036 39.8993C59.3036 39.8993 59.3983 39.9931 59.3983 39.8993C60.127 39.3553 60.4014 39.1677 60.8557 38.6144C61.9535 37.4233 63.8651 36.7855 65.4172 36.326C66.1459 35.9602 66.9693 35.9602 67.7926 36.1478C68.5213 36.326 69.25 36.5136 69.7989 37.1513C69.8936 37.2451 69.8935 37.4233 69.9787 37.6109C70.0734 37.7047 69.7989 37.8829 69.6096 37.8829H69.4298L69.4204 37.9016Z" fill="white"/>
<path d="M74.7108 51.9878C72.8843 51.0687 72.1556 50.6185 71.6067 48.5083C71.1524 47.5048 70.9726 46.4075 71.2376 45.1226L72.0609 42.1964C72.6098 41.0991 73.3385 39.8142 73.7076 38.7169C73.8023 38.7169 73.613 38.5387 73.7076 38.4449C73.8023 38.2667 74.3417 38.0791 74.531 38.1729C74.9852 38.4449 75.3543 38.5387 75.7139 38.8107C75.8086 38.9045 75.8086 38.9889 75.9884 39.0827C76.7171 39.8142 76.8117 40.2738 76.1682 41.2773L74.6161 44.8412C74.2471 45.9385 73.8874 47.0358 74.0673 48.1331C74.2471 50.234 76.7171 50.234 78.449 49.962C81.9127 49.418 86.9379 47.1296 89.3985 45.1132C90.7708 43.8377 89.5783 45.1132 91.4048 43.6501C91.7739 43.2843 92.6824 42.6466 93.0515 42.2808C94.0547 41.7368 95.8812 39.6266 96.5153 40.7239C96.6951 41.1835 96.061 41.915 96.4206 42.5528L96.2408 43.0968C96.061 43.6407 95.6067 43.7345 95.0578 43.8283C94.2345 44.5598 93.5058 45.1038 92.7771 45.9291C90.4017 47.758 90.2219 47.8518 88.3954 49.0335C88.3954 49.1273 87.4868 49.3055 87.3922 49.3993C86.5689 50.309 85.5657 50.4966 83.7392 51.3219C81.9127 51.7815 79.3575 52.8788 76.9821 52.513C76.348 52.513 75.6098 52.241 74.7013 51.969L74.7108 51.9878ZM77.3606 31.5984C77.0862 31.5046 76.9915 31.3265 76.8117 31.1389C76.5373 30.6793 76.4427 30.0416 76.5373 29.4976C76.8117 28.4941 76.9064 27.575 77.6351 26.5714C77.6351 26.3839 77.7297 26.2057 77.8149 26.2994C78.184 26.1119 78.449 26.0275 78.7234 26.0275C79.2723 26.2057 79.7266 26.487 80.2755 27.031C80.8244 27.3968 80.6446 27.7625 80.5499 28.4003C80.5499 28.5785 80.3701 28.7661 80.2755 29.038C79.9064 29.4976 79.5468 30.0416 79.1777 30.7731C79.3575 30.8669 79.3575 30.9607 79.083 31.0451C78.8086 31.5046 78.449 31.7766 77.8054 31.7766C77.6256 31.6828 77.4363 31.5984 77.3512 31.5984H77.3606Z" fill="white"/>
<path d="M98.4363 51.6228C98.0672 51.6228 97.8022 51.529 97.4331 51.4446C95.9757 50.9851 95.1524 50.1597 94.329 48.7904C93.9599 48.3309 93.6949 47.7869 93.6003 47.3274C93.4205 46.5958 93.3259 45.9581 93.5057 45.2265C93.7801 44.1292 94.1397 43.1257 94.7833 42.1222C95.4173 41.2968 96.0609 40.4715 96.8842 39.74C97.2438 39.468 97.7927 39.1022 98.0672 38.5489C99.2502 37.3578 100.528 36.3542 101.995 35.7165C102.449 35.5383 102.818 35.4445 103.272 35.3507C104.001 35.3507 104.73 35.5289 105.184 36.3542C105.638 36.992 106.187 37.5453 106.556 38.2769C106.736 38.6426 106.736 39.0084 106.651 39.3742C106.566 39.74 106.376 40.0119 106.017 40.1057C105.648 40.1995 105.288 40.1057 105.108 39.8337L104.38 38.8302C104.285 38.6426 104.2 38.5582 103.925 38.5582L103.017 38.7364L101.739 39.468C100.736 40.1995 99.6382 41.0248 98.7297 42.0284L98.0956 42.8537C97.2722 43.679 96.7233 44.6825 96.1839 45.7799L95.7297 47.5149C95.635 47.9745 96.2785 48.5185 96.9126 48.706C97.3669 48.8936 98.37 49.25 98.9189 49.25C100.197 49.3438 100.745 49.522 101.928 49.25C102.837 49.0718 103.386 49.1562 104.304 49.0718C104.484 49.0718 104.853 48.8936 105.127 48.7998C106.954 48.1621 109.055 47.7963 110.872 46.8772C110.966 46.8772 111.146 46.6052 111.326 46.6052C111.875 46.5114 113.332 45.6861 113.786 45.3297L116.985 43.5946C117.439 43.407 117.809 42.8631 118.357 42.5911C119.54 41.672 120.184 41.5876 121.462 40.3965L122.19 39.7587C122.19 39.7587 122.559 39.6649 122.559 39.5711C122.559 39.5711 123.742 39.0272 123.657 40.6684C123.657 40.7622 123.752 41.128 123.563 41.2124C123.288 41.944 121.916 43.0413 121.282 43.407C120.458 44.1386 121.376 43.5946 120.458 44.2324C120.364 44.2324 120.279 44.4199 120.184 44.4199C118.263 45.6955 116.077 47.3461 112.793 48.5372C112.518 48.631 112.339 48.903 111.969 49.0812C111.515 49.3532 110.692 49.4469 110.143 49.7189C109.414 50.0847 108.686 50.4505 107.957 50.5443C107.408 50.638 106.859 51.0038 106.31 51.182C105.307 51.5478 104.398 51.6416 103.48 51.6416C102.383 51.8291 101.294 51.9136 100.291 52.0073C99.6571 51.8291 99.1082 51.6416 98.4647 51.6416L98.4363 51.6228Z" fill="white"/>
<path d="M153.829 59.6691C154.283 58.478 154.463 57.4745 155.106 56.3771L156.753 51.8941C156.848 51.6221 156.933 51.2564 156.658 51.2564C155.381 50.9844 156.289 51.0782 154.927 50.8906L152.466 50.2528C152.286 50.159 152.097 50.159 152.012 49.9808C151.103 49.6151 150.46 48.7897 150.46 47.7862C150.554 47.2423 150.554 47.0547 151.188 46.3231C151.463 45.9574 151.822 45.8636 152.286 45.7792C153.744 45.1414 155.21 44.3161 156.942 43.8565C157.946 43.5845 159.128 43.125 160.132 42.9374C160.501 42.7498 160.86 42.3934 161.04 41.9339C161.22 41.8401 161.315 41.6619 161.409 41.4743C161.684 40.2832 162.318 39.0077 162.781 37.9104L163.879 35.4438C164.608 33.6149 165.431 31.8799 166.255 30.1448C166.804 28.1284 167.532 26.2995 168.356 24.3863C168.45 24.1143 168.725 23.8423 168.725 23.4672C168.999 23.0076 169.094 22.4636 169.274 22.0041C169.274 22.0041 169.368 21.8259 169.453 21.7321C169.633 21.0943 169.823 20.4566 170.182 19.7157C170.277 19.0779 170.636 18.3464 170.816 17.6992C171.365 15.7766 171.999 13.8539 172.368 12.0251C172.368 11.7531 172.548 11.3873 172.548 11.0216C172.643 10.8434 172.368 10.562 172.274 10.562C169.898 10.9278 167.617 11.1998 165.337 11.4811C162.422 12.2127 159.592 12.6722 156.488 13.31C153.204 14.0415 149.74 14.7731 146.362 15.9642C145.179 16.4237 143.901 16.7895 142.709 17.4272C140.608 18.1588 138.781 18.9841 137.05 19.9876C135.952 20.6254 134.863 21.2725 133.86 21.6383L131.854 23.2796C131.674 23.6454 131.58 23.9173 131.21 24.2831C131.031 24.5551 130.756 24.7427 130.482 24.6489C130.207 24.3769 129.933 24.2831 129.838 24.1893C129.658 23.4578 129.204 22.7262 129.204 21.9009C129.024 21.4413 129.204 21.2632 129.479 20.9818L129.753 20.5222C131.125 19.5187 132.583 18.5058 134.04 17.6899L134.315 17.5117C135.497 17.5117 136.501 16.9677 137.513 16.3206C137.968 15.9548 138.611 15.861 139.16 15.589C140.532 14.8575 141.99 14.4917 143.362 13.8539C143.816 13.6758 144.185 13.582 144.639 13.4882C145.283 13.3944 145.822 13.2162 146.466 12.9442C146.646 12.766 146.92 12.6722 147.289 12.6722C149.021 12.1283 151.397 11.3967 153.308 10.9372C154.586 10.5714 155.958 10.5714 157.046 10.1118C158.144 10.018 159.233 9.74606 160.33 9.56787C160.879 9.47408 161.513 9.38029 162.062 9.2021C164.797 8.65813 167.267 8.37677 169.823 8.011C170.731 7.8328 171.829 7.64523 172.747 7.64523C173.296 7.55144 173.57 7.27945 173.57 6.91368C173.939 5.4506 174.479 3.98752 174.393 2.52444C174.299 2.06488 174.299 1.60532 174.393 1.06135C174.668 0.789368 174.573 0.601794 174.763 0.32981C175.217 -0.0359604 175.766 -0.0359604 176.22 0.057827C176.4 0.151614 176.494 0.32981 176.674 0.517385C176.949 0.883156 177.223 1.24893 177.583 1.4365C178.037 1.6147 178.132 2.07426 178.132 2.53381C177.952 3.35914 177.857 4.26888 177.498 5.188C177.403 5.55377 177.129 6.4635 177.223 6.82928C177.223 7.28883 177.772 7.10126 178.321 7.01685C179.873 6.92306 181.245 6.82928 182.703 6.92306C183.337 6.92306 183.98 6.74487 184.529 6.65108C185.078 6.4635 185.532 6.4635 186.081 6.55729C187.453 6.74487 188.996 6.55729 190.548 6.55729C191.002 6.4635 191.277 6.4635 191.731 6.65108C192.006 6.74487 192.365 6.74487 192.64 6.65108C193.009 6.74487 193.368 6.74487 193.737 6.65108C194.012 6.55729 194.371 6.55729 194.561 6.55729C195.838 6.82928 197.296 6.74487 198.763 6.92306C199.946 7.28883 201.498 7.28883 202.775 7.46703C204.507 7.64523 205.879 8.10478 207.517 8.65813C208.245 8.83632 208.974 8.93011 209.523 9.29588C210.801 9.66165 211.898 10.215 212.712 10.8528C214.444 11.9501 215.722 13.3194 216.365 15.1482C216.46 15.6078 216.46 16.1517 216.819 16.5175C217.454 17.9806 217.094 19.6313 216.545 21.3663C216.271 22.1916 215.816 22.8294 215.173 23.5609L211.889 26.7591C209.154 28.4098 207.876 28.9537 204.952 30.6044C202.946 31.6079 200.845 32.527 198.564 33.4368C197.286 34.0745 196.009 34.4403 194.911 35.0874C193.728 35.4532 192.535 35.7252 191.258 36.2785C190.624 36.6443 189.526 36.7381 188.797 37.1976C186.971 37.9292 185.334 38.4731 183.412 39.1203C183.318 39.1203 183.138 39.1203 182.864 39.2141C180.488 40.1332 178.302 40.6771 175.927 41.4087L172.188 42.5998C169.908 43.3313 167.901 43.8847 165.441 44.6162C165.166 44.71 164.987 44.71 164.712 44.71C163.889 45.0758 163.709 45.1696 163.34 46.1731C163.065 46.9984 162.431 48.0019 162.242 48.921C162.242 49.0148 162.242 49.2868 162.422 49.2868C163.605 49.5588 164.977 49.6526 166.16 49.9246C166.983 49.9246 167.807 50.0184 168.715 50.3841C169.349 50.6561 170.087 50.6561 170.636 50.7499C171.64 50.9375 172.548 51.1157 173.466 51.3877C173.74 51.4814 174.015 51.4814 174.11 51.5659C175.841 51.8378 177.299 52.485 178.946 52.9352C179.674 53.0289 180.403 53.3947 181.132 53.7605C182.778 54.492 184.69 54.8578 186.337 55.7769C186.971 56.0489 187.52 56.5084 188.248 56.7804C189.8 57.6058 190.983 58.6093 192.356 59.3408C192.63 59.4346 192.905 59.6128 193.084 59.8004C193.813 60.6257 194.731 61.2635 195.545 61.995C195.819 62.267 195.999 62.4546 196.094 62.7266C196.189 62.9985 196.188 63.2705 195.999 63.6457C195.905 63.8332 195.819 64.0114 195.63 63.9177L194.627 63.6457C191.892 61.8168 189.062 60.3537 186.412 58.9844L182.031 57.2494C181.662 57.0712 180.933 56.8836 180.299 56.424L178.652 56.0583L175.188 55.1391C174.46 54.7734 174.005 54.5952 173.277 54.5014C173.002 54.5014 172.728 54.5014 172.643 54.4076C171.091 53.8636 169.264 53.6761 167.532 53.3103C167.078 53.3103 166.709 53.2165 166.349 53.1321C165.526 52.8601 164.617 52.6725 163.794 52.5881C162.971 52.4944 162.242 52.4943 161.608 52.3162C161.428 52.3162 161.154 52.3162 161.059 52.4099C160.879 52.4099 160.785 52.5037 160.605 52.5881L160.236 52.9539C160.056 53.7792 159.602 54.5952 159.412 55.3361C158.958 56.0676 158.589 56.7992 158.229 57.6245C157.86 58.0841 157.86 58.628 157.681 59.2658C157.311 60.1849 157.132 61.0947 156.857 61.8262C156.857 62.3795 156.677 62.7453 156.308 63.1111C155.939 63.655 155.485 63.9364 154.936 63.655C154.567 63.5613 154.302 63.5613 153.933 63.2893C153.658 63.1955 153.479 63.0173 153.753 62.7453C153.573 62.3795 153.479 61.92 153.573 61.4698L153.848 59.7347L153.829 59.6691ZM157.387 48.696C158.021 48.7897 158.296 48.424 158.485 48.0582C158.58 47.88 158.665 47.5986 158.665 47.2329C158.845 46.7733 158.39 46.5013 158.021 46.5951C157.293 46.9609 155.012 47.2329 154.283 47.5142C154.103 47.608 153.734 47.7862 153.829 47.9738L154.378 48.3396C154.832 48.6115 156.838 48.6115 157.207 48.7053H157.387V48.696ZM214.879 18.1494V17.4179C214.425 16.2268 213.602 15.1295 212.693 14.3979C211.965 13.5726 211.141 13.1224 210.318 12.841C208.037 11.7437 205.851 11.106 203.296 10.7402C202.652 10.4682 201.838 10.3744 201.11 10.1962C200.476 10.1025 199.652 10.29 198.924 10.0087C197.466 9.83047 195.734 9.6429 194.182 9.54911C193.813 9.54911 193.359 9.45532 192.999 9.54911L190.718 9.36153C190.264 9.45532 189.715 9.45532 189.261 9.36153C188.892 9.26775 188.532 9.36153 188.163 9.36153C186.886 9.45532 185.703 9.26775 184.33 9.45532C182.324 9.45532 180.318 9.82109 178.397 9.82109C178.028 9.91488 177.668 9.99929 177.299 9.99929C177.024 9.99929 176.845 10.2713 176.476 10.637C176.476 10.909 176.381 11.2748 176.296 11.5562C176.021 12.5597 175.927 13.5726 175.387 14.6605C175.018 15.8516 174.564 17.2209 174.204 18.5902L173.835 19.5093C173.381 20.5129 173.106 21.432 172.832 22.4355C172.737 23.167 172.463 23.9924 172.103 24.8177C171.554 25.915 171.28 27.1999 170.646 28.2034C170.277 29.2069 170.192 30.3043 169.368 31.4016C169.188 31.5891 169.188 32.0393 169.094 32.1331C168.914 32.4989 168.999 32.7709 168.725 33.1366C167.996 34.1402 168.176 35.2375 167.447 36.1566C167.267 37.1601 166.539 38.2574 166.169 39.2609C166.169 39.6267 165.895 39.9925 165.895 40.3583C165.526 40.5365 165.252 40.9022 165.441 41.1836C165.715 41.5494 166.075 41.1836 166.349 41.2774C166.898 41.0054 167.258 40.8178 167.901 40.6396C169.359 40.1801 170.911 40.0019 172.283 39.1765C172.652 38.989 173.192 39.0828 173.561 38.9046C174.289 38.8108 174.744 38.5388 175.482 38.2668C176.031 38.173 176.39 38.173 176.665 38.173L177.573 37.901L179.031 37.2633C180.403 36.8975 181.586 36.438 182.864 35.8002C183.687 35.7064 184.321 35.5282 185.05 35.3406C185.419 35.1531 185.684 35.2469 185.873 35.0687C186.602 34.5247 187.425 34.6091 188.059 34.4309C188.968 33.9713 189.791 33.6994 190.889 33.4274C193.075 32.3301 195.176 31.5047 197.457 30.6888C198.185 30.323 199.103 29.9572 199.917 29.6853C200.646 29.3195 201.469 29.1413 202.293 28.5879C202.747 28.044 203.845 27.5844 204.573 27.3968C204.942 27.2187 205.482 26.9373 205.851 26.6653C206.58 26.3933 206.949 26.0276 207.498 25.9338C207.772 25.7556 208.047 25.7556 208.226 25.4742C208.321 25.2022 208.86 25.0146 209.05 24.8365C210.233 24.1049 211.236 23.0076 212.154 22.2761C213.337 21.2725 214.16 19.9876 214.709 18.7121L214.889 18.1588L214.879 18.1494Z" fill="white"/>
<path d="M215.777 51.9878C213.951 51.0687 213.222 50.6185 212.673 48.5083C212.219 47.5048 212.039 46.4075 212.304 45.1226L213.127 42.1964C213.676 41.0991 214.405 39.8142 214.774 38.7169C214.869 38.7169 214.679 38.5387 214.774 38.4449C214.869 38.2667 215.408 38.0791 215.597 38.1729C216.052 38.4449 216.421 38.5387 216.78 38.8107C216.875 38.9045 216.875 38.9889 217.055 39.0827C217.784 39.8142 217.878 40.2738 217.235 41.2773L215.683 44.8412C215.313 45.9385 214.954 47.0358 215.134 48.1331C215.313 50.234 217.784 50.234 219.515 49.962C222.979 49.418 228.004 47.1296 230.465 45.1132C231.837 43.8377 230.645 45.1132 232.471 43.6501C232.84 43.2843 233.749 42.6466 234.118 42.2808C235.121 41.7368 236.948 39.6266 237.582 40.7239C237.761 41.1835 237.127 41.915 237.487 42.5528L237.307 43.0968C237.127 43.6407 236.673 43.7345 236.124 43.8283C235.301 44.5598 234.572 45.1038 233.843 45.9291C231.468 47.758 231.288 47.8518 229.462 49.0335C229.462 49.1273 228.553 49.3055 228.459 49.3993C227.635 50.309 226.632 50.4966 224.806 51.3219C222.979 51.7815 220.424 52.8788 218.048 52.513C217.414 52.513 216.676 52.241 215.768 51.969L215.777 51.9878ZM218.427 31.5984C218.153 31.5046 218.058 31.3265 217.878 31.1389C217.604 30.6793 217.509 30.0416 217.604 29.4976C217.878 28.4941 217.973 27.575 218.701 26.5714C218.701 26.3839 218.796 26.2057 218.881 26.2994C219.25 26.1119 219.515 26.0275 219.79 26.0275C220.339 26.2057 220.793 26.487 221.342 27.031C221.891 27.3968 221.711 27.7625 221.616 28.4003C221.616 28.5785 221.437 28.7661 221.342 29.038C220.973 29.4976 220.613 30.0416 220.244 30.7731C220.424 30.8669 220.424 30.9607 220.149 31.0451C219.875 31.5046 219.515 31.7766 218.872 31.7766C218.692 31.6828 218.503 31.5984 218.418 31.5984H218.427Z" fill="white"/>
<path d="M259.669 64.6962C259.669 64.3304 259.764 63.9646 259.669 63.5989C259.669 62.8673 259.764 62.042 259.849 61.2167C260.029 59.9411 260.124 58.4781 260.398 57.0994C260.672 55.7301 261.127 54.3608 261.401 52.9821C261.401 52.8039 261.306 52.6163 261.401 52.4382C262.13 51.4346 261.77 50.8813 262.31 48.9586C262.489 48.7804 262.404 48.4991 262.584 48.1333C263.038 47.4018 263.038 46.492 263.133 45.4791C263.228 45.0196 263.228 44.56 263.502 44.1942C263.956 43.7347 263.956 43.1907 264.136 42.6374V42.3654C263.502 43.2845 262.764 44.1005 262.035 45.0196C258.846 48.8649 254.37 51.9692 249.808 54.3514C249.439 54.5296 249.079 54.811 248.71 54.8954C247.707 55.2612 246.609 55.5331 245.606 55.8145C242.691 56.2741 239.493 56.1803 237.212 54.4452C235.934 53.4417 235.385 52.2506 235.026 50.7875C234.657 50.056 234.571 49.1462 234.477 48.4991C234.382 48.2271 234.382 47.9551 234.382 47.6738C234.288 46.6702 234.477 45.7511 234.477 45.1134C234.571 44.0161 234.571 43.1907 234.571 42.3748C234.571 42.281 234.751 42.1872 234.751 42.1028C234.846 41.2775 235.3 40.2739 235.3 39.3548C235.3 38.4357 235.669 37.6198 235.849 36.7944C235.944 35.6971 236.672 34.8718 236.672 33.7745C237.401 32.2176 237.041 32.3114 237.77 30.7545C238.319 29.2914 238.773 27.6502 239.417 26.0933L240.42 23.3547L234.401 24.724C233.029 25.1836 231.666 25.9151 230.114 26.2809C229.934 26.3747 229.84 26.4591 229.745 26.4591C228.742 26.6373 227.833 26.0933 227.37 25.1742C227.275 24.9022 227.19 24.6302 227 24.4426C226.821 23.8987 227.37 22.8858 228.004 23.0733C228.827 23.2515 229.376 22.8858 230.01 22.8014C232.925 21.7978 238.499 20.6067 240.865 20.241C240.959 20.241 241.319 20.1472 241.773 20.0628C242.871 17.5962 243.6 15.1202 244.508 12.4754C244.688 11.65 245.152 10.8341 245.417 10.0088C245.966 8.73325 246.325 7.44836 246.515 6.07907C246.515 5.44131 246.969 4.88797 247.149 4.344C247.243 3.80003 247.972 3.42489 248.426 3.61246C248.881 3.88444 248.881 4.15643 249.43 4.344C250.064 4.61598 250.064 5.26312 250.064 5.90087C249.694 7.36395 249.43 9.01461 248.786 10.4777C248.057 12.119 247.329 13.8634 246.78 15.6923L245.407 19.2562L272.048 13.7696C272.228 13.6758 272.682 13.6758 272.956 13.5821C273.136 13.5821 273.136 13.6758 273.231 13.4883C273.78 11.6594 274.234 9.73677 274.688 7.90792C274.963 7.27017 274.868 6.44484 274.963 5.80708C275.057 5.16933 275.142 4.61599 274.963 3.88444C274.963 3.05912 275.512 2.69334 276.515 2.88092C276.789 2.97471 277.064 3.1529 277.423 3.1529C277.792 3.3311 277.972 3.42489 278.152 3.79066C278.426 4.06264 278.701 4.33462 278.701 4.70039C278.701 4.97238 278.606 5.25374 278.606 5.43194C278.512 6.71682 278.152 7.89854 277.783 9.18343L277.149 11.4718C277.149 11.7438 276.969 12.2972 276.969 12.5692C276.969 12.7473 277.338 12.4754 277.423 12.4754C277.603 12.4754 277.877 12.3816 278.067 12.3816C279.524 12.1096 278.436 12.2878 279.713 12.2034C282.363 11.5656 281.086 11.8376 283.092 11.5656C285.278 11.2936 287.294 11.1999 289.385 11.0217C289.934 11.1154 290.568 11.1154 291.212 11.1154C291.761 11.0217 292.215 11.2936 292.669 11.3874C292.849 11.3874 292.944 11.4812 292.944 11.6594L293.218 11.9314C293.313 12.0252 293.398 12.1096 293.313 12.2034C293.313 12.4754 292.215 12.9349 292.035 12.9349C290.578 13.3007 289.48 13.3007 288.108 13.5727C286.65 13.5727 285.193 14.0322 283.821 14.1166C282.723 14.5762 281.635 14.6606 280.442 14.942C279.344 15.3077 277.982 15.4953 276.789 15.7673C276.515 15.9455 276.24 15.9455 275.966 16.0393C275.786 16.1331 275.691 16.5833 275.597 16.7708C274.225 20.9819 270.855 31.1297 269.578 35.6127C268.48 38.5389 267.571 41.6526 266.663 44.6632C266.114 47.0454 265.385 49.24 264.931 51.6128C264.108 54.9986 263.379 58.5625 263.01 62.2202L262.65 65.6059C262.65 66.7032 262.556 68.1663 263.01 69.1698C264.382 69.076 265.565 71.1862 262.83 71.6364C262.65 71.6364 262.461 71.5426 262.376 71.5426C260.729 71.0831 260.644 70.9987 260.095 69.62C259.915 69.348 259.821 69.0667 259.915 68.8885C259.821 68.4289 259.736 67.9693 259.556 67.5192C259.556 66.6 259.376 65.6903 259.65 64.6868L259.669 64.6962ZM243.704 23.3641C242.975 25.6525 241.972 27.7533 241.329 29.948C241.149 30.3137 241.149 30.7733 240.78 31.139C240.411 31.7768 240.231 32.4239 240.051 33.2399C240.051 33.5119 239.776 33.7839 239.776 34.0652C239.048 35.3501 239.407 34.9843 239.048 36.4474C238.953 37.2727 238.594 37.9105 238.414 38.642C238.508 39.3736 238.234 39.9269 238.045 40.6585C237.136 44.6819 236.672 48.4334 237.77 51.6316C238.319 52.8227 239.048 53.4604 240.146 54.0138C240.42 54.192 241.603 54.3796 241.972 54.3796C243.429 54.4733 244.802 54.0138 246.174 53.4604C247.272 53.1885 248.549 52.5413 249.732 51.9036C253.84 49.7089 258.032 46.145 261.325 42.6655C262.054 41.934 263.152 40.4709 263.881 39.6456C264.335 38.8202 264.978 37.9105 265.792 36.6256C265.972 36.2598 266.161 36.166 266.521 35.6221C266.521 35.5283 266.795 35.8003 266.975 35.6221C266.975 35.4345 267.344 35.4345 267.524 35.6221C267.619 35.6221 267.619 35.7159 267.619 35.8941C267.619 36.2598 267.799 36.0723 267.988 36.3536C267.988 36.7194 267.534 37.179 267.534 37.3572C266.625 38.9984 265.433 40.6491 264.155 42.3842C264.25 41.5588 264.524 40.7335 264.704 39.9175C264.799 39.5518 264.978 39.2798 265.073 38.9984C265.348 38.5389 265.707 37.9949 265.622 37.3572C265.717 36.5318 265.991 35.8003 266.256 35.1625L266.53 34.3372C266.805 33.4181 266.985 32.4146 267.439 31.411C267.439 31.3172 267.439 31.2328 267.534 31.139C268.177 30.1355 268.177 28.6724 268.811 27.4813C269.18 26.2902 271.187 19.4344 271.641 18.2433C271.736 18.1495 272.095 16.874 272.01 16.874C271.281 16.7802 254.947 20.2597 243.997 22.6325L243.723 23.3641H243.704Z" fill="white"/>
<path d="M276.451 52.2606C275.079 50.8913 273.621 49.3344 273.896 47.4118C273.896 47.2336 273.991 46.1363 274.17 45.8549L274.35 45.3109C274.773 44.3356 275.259 43.3914 275.808 42.4786C276.905 40.8373 278.268 39.3742 279.82 38.0893C280.823 37.264 282.006 36.448 283.473 35.7071C283.653 35.7071 283.927 35.6133 284.202 35.4351C285.11 35.0694 286.388 35.7071 286.937 36.3542L287.306 37.2734C287.486 38.6427 287.126 39.9275 286.208 40.8373C284.836 42.3942 283.379 43.9416 281.647 45.2265C281.372 45.4985 280.918 45.6861 280.644 45.9581C280.284 46.3238 279.64 46.3238 279.091 46.4176C278.637 46.6896 278.183 46.5958 277.814 46.1456L277.445 45.8737C277.445 45.8737 277.17 45.8737 277.17 45.9675C276.621 46.7928 276.621 48.0683 276.621 48.8936C276.716 49.2594 276.896 49.5314 277.256 49.8971C277.71 50.5349 278.438 50.7225 279.082 50.7225C279.451 50.8163 279.716 50.8163 280.085 50.8163C281.088 50.7225 282.271 50.8163 283.464 50.3567C287.931 49.2594 291.404 47.5243 295.142 45.8737C297.063 44.9545 298.606 43.951 300.347 43.1257C301.445 42.4879 301.256 42.5817 302.448 41.7564C303.082 41.2124 302.817 41.4844 303.726 41.1186C303.905 40.9404 303.82 41.1186 303.905 41.4844C304 41.944 304.36 42.7599 303.905 43.1257C303.082 43.951 303.631 43.6697 302.808 44.4106C300.981 45.7799 299.155 46.6052 297.243 47.7963C295.965 48.4341 294.782 49.0812 293.685 49.5314C291.224 50.5349 288.754 51.6322 286.114 52.2793L283.464 53.0109C282.091 53.3767 281.732 53.3767 280.274 53.3767C278.997 53.1985 277.445 53.1047 276.442 52.2793L276.451 52.2606ZM284.666 38.5395C284.571 38.5395 284.391 38.6333 284.297 38.6333C282.016 39.6368 280.284 40.8279 279.366 42.9287C279.186 43.0225 279.186 43.2945 279.091 43.5665C281.098 42.3754 283.019 40.5465 284.656 38.5395H284.666Z" fill="white"/>
<path d="M316.689 37.9016C316.594 37.8078 316.414 37.9016 316.055 37.8078C315.78 37.714 315.146 37.714 314.503 37.9016C313.954 38.0798 313.225 38.5394 312.582 38.9051C311.484 39.5429 310.67 40.5464 309.667 41.3717C308.843 41.9157 308.115 42.741 306.743 44.4761C306.373 45.2077 305.739 46.033 305.285 46.7645C305.19 47.0365 305.105 47.2241 304.831 47.4023C304.102 48.5934 303.828 49.8689 303.373 51.2476C303.373 51.4351 303.279 51.7071 303.279 51.9791C303.099 52.4387 302.37 52.7106 302.001 52.5231C301.367 52.3449 300.818 52.0635 300.269 51.6039C299.815 51.332 299.815 51.06 299.995 50.6004C300.269 49.9627 300.449 49.3155 300.818 48.6778C301.187 47.9462 301.452 47.0365 301.642 46.1174C302.276 43.9228 302.645 41.6344 303.194 39.4397C303.373 38.802 303.373 38.1548 303.468 37.6109C303.743 36.6074 303.837 35.6882 303.837 34.7785C303.837 34.4127 304.017 34.1407 304.386 34.047C304.755 33.9532 305.02 33.9532 305.295 34.1407C305.749 34.3189 306.203 34.6003 306.572 34.8723C307.026 35.1443 307.301 35.4162 307.121 35.8758C307.026 37.1607 306.752 38.4362 306.572 39.7211C306.478 39.7211 306.572 39.8149 306.572 39.8993C306.572 39.8993 306.667 39.9931 306.667 39.8993C307.396 39.3553 307.67 39.1677 308.124 38.6144C309.222 37.4233 311.134 36.7855 312.686 36.326C313.414 35.9602 314.238 35.9602 315.061 36.1478C315.79 36.326 316.519 36.5136 317.067 37.1513C317.162 37.2451 317.162 37.4233 317.247 37.6109C317.342 37.7047 317.067 37.8829 316.878 37.8829H316.698L316.689 37.9016Z" fill="white"/>
<path d="M373.407 21.5724C373.398 21.6662 373.388 21.76 373.379 21.8538L373.35 22.0601C373.341 22.1445 373.332 22.2289 373.322 22.3133L373.265 22.651L373.227 22.8948C373.227 22.9698 373.199 23.0542 373.19 23.1387C373.171 23.2324 373.152 23.3262 373.123 23.4294L373.067 23.7014C373.048 23.7764 373.038 23.8608 373.01 23.9452C372.991 24.0484 372.962 24.1422 372.934 24.236L372.868 24.4798C372.849 24.5736 372.83 24.658 372.802 24.733C372.773 24.8362 372.745 24.93 372.716 25.0238L372.641 25.2582C372.612 25.352 372.584 25.4364 372.556 25.5115C372.527 25.6053 372.489 25.6897 372.461 25.7741L372.376 26.0085C372.338 26.1023 372.309 26.1867 372.272 26.2805C372.243 26.3556 372.205 26.44 372.177 26.515L372.063 26.7682C372.026 26.8526 371.997 26.937 371.95 27.0214C371.921 27.1059 371.874 27.1809 371.836 27.2653L371.742 27.4716C371.694 27.5654 371.647 27.6592 371.6 27.753C371.562 27.828 371.524 27.8937 371.486 27.9687L371.373 28.1844C371.316 28.2782 371.268 28.372 371.221 28.4564C371.183 28.5314 371.136 28.5971 371.098 28.6627L370.985 28.8597C370.928 28.9535 370.861 29.0566 370.805 29.1504C370.767 29.2161 370.72 29.2723 370.682 29.338L370.54 29.5443C370.483 29.6381 370.426 29.7225 370.36 29.8163C370.313 29.882 370.275 29.9382 370.227 29.9945L370.095 30.1727C370.029 30.2665 369.962 30.3697 369.887 30.4634L369.745 30.6323L369.612 30.8011C369.537 30.8949 369.461 30.9887 369.385 31.0824C369.338 31.1387 369.291 31.1856 369.243 31.2419L369.082 31.4201C369.007 31.5139 368.931 31.5983 368.855 31.6827C368.808 31.739 368.751 31.7858 368.704 31.8421L368.552 31.9922C368.467 32.086 368.382 32.1704 368.297 32.2642C368.249 32.3111 368.202 32.358 368.155 32.4048L367.984 32.5643C367.89 32.6487 367.805 32.7331 367.72 32.8081C367.663 32.855 367.615 32.9019 367.568 32.9394L367.388 33.0989C367.303 33.1739 367.208 33.2583 367.114 33.3333C367.067 33.3802 367.01 33.4177 366.962 33.4553L366.792 33.5866C366.688 33.671 366.584 33.7554 366.48 33.8304C366.432 33.8773 366.376 33.9148 366.328 33.9523L366.12 34.093C366.025 34.168 365.931 34.2337 365.827 34.2993C365.779 34.3462 365.713 34.3838 365.656 34.4213L365.458 34.5526C365.354 34.6182 365.259 34.6839 365.155 34.7401C365.108 34.7777 365.051 34.8058 364.994 34.8433L364.776 34.9746C364.672 35.0309 364.568 35.0965 364.464 35.1528C364.407 35.1903 364.35 35.2185 364.284 35.2466L364.085 35.3591C363.981 35.4154 363.868 35.4717 363.754 35.5373C363.697 35.5655 363.631 35.5936 363.565 35.6218L363.347 35.7343C363.243 35.7812 363.139 35.8281 363.025 35.8844C362.959 35.9125 362.893 35.9406 362.817 35.9688L362.581 36.0719C362.477 36.1094 362.382 36.1563 362.287 36.1939C362.212 36.222 362.145 36.2501 362.07 36.2783L361.833 36.3627C361.729 36.4002 361.625 36.4377 361.521 36.4752C361.445 36.5034 361.369 36.5221 361.294 36.5502L361.048 36.6253C360.943 36.6628 360.849 36.6909 360.745 36.7191C360.66 36.7472 360.574 36.766 360.499 36.7941L360.243 36.8597C360.149 36.8879 360.054 36.9066 359.95 36.9348C359.865 36.9535 359.77 36.9723 359.675 36.991L359.42 37.0567C359.325 37.0755 359.24 37.0942 359.145 37.113C359.041 37.1317 358.937 37.1505 358.833 37.1692L358.568 37.2068C358.492 37.2255 358.417 37.2349 358.331 37.2443C358.208 37.263 358.085 37.2818 357.962 37.2912L357.707 37.3193C357.641 37.3287 357.574 37.3381 357.508 37.3474C357.366 37.3568 357.224 37.3662 357.082 37.3756L356.846 37.3943C356.789 37.4037 356.732 37.4037 356.666 37.4037C356.391 37.4225 356.107 37.4318 355.824 37.4318C351.357 37.4318 347.089 35.7531 343.795 32.7143C343.596 32.5361 343.398 32.3392 343.208 32.1516L343.104 32.0391C342.943 31.8796 342.792 31.7202 342.65 31.5608C342.612 31.5232 342.584 31.4857 342.555 31.4576L342.451 31.3357C342.338 31.2044 342.224 31.0824 342.12 30.9418C342.082 30.9042 342.054 30.8574 342.016 30.8105L341.874 30.6416C341.789 30.5291 341.704 30.4259 341.619 30.3134C341.581 30.2571 341.543 30.2008 341.505 30.1539L341.372 29.9757C341.306 29.8726 341.23 29.7694 341.155 29.6569C341.117 29.6006 341.079 29.5443 341.041 29.4881L340.918 29.2911C340.852 29.1879 340.786 29.0941 340.719 28.991C340.682 28.9347 340.653 28.8784 340.615 28.8128L340.492 28.6065C340.436 28.5033 340.379 28.4001 340.313 28.297C340.284 28.2313 340.246 28.1657 340.208 28.1L340.104 27.8843C340.048 27.7905 339.991 27.6873 339.943 27.5936C339.915 27.5279 339.887 27.4622 339.849 27.3872L339.745 27.1621C339.697 27.0683 339.65 26.9652 339.612 26.8714C339.574 26.7964 339.546 26.7213 339.518 26.6463L339.423 26.4306C339.385 26.3368 339.347 26.2336 339.309 26.1398C339.281 26.0648 339.253 25.9898 339.224 25.9148L339.139 25.6803C339.101 25.5771 339.073 25.4833 339.035 25.3895C339.007 25.3051 338.988 25.2301 338.959 25.1457L338.893 24.9112C338.855 24.8174 338.827 24.7237 338.798 24.6299C338.779 24.5455 338.76 24.4704 338.742 24.386L338.675 24.1328C338.647 24.039 338.628 23.9452 338.6 23.8514C338.581 23.7764 338.571 23.7014 338.552 23.6263L338.505 23.3731C338.477 23.2793 338.458 23.1762 338.439 23.073C338.42 22.9886 338.41 22.9136 338.401 22.8292L338.363 22.5853C338.344 22.4821 338.325 22.379 338.316 22.2758C338.297 22.2008 338.287 22.1164 338.278 22.0413L338.259 21.835C338.249 21.7506 338.24 21.6568 338.23 21.5724C338.316 21.4505 338.401 21.3379 338.486 21.2254L338.713 20.9159C338.798 20.8033 338.874 20.7002 338.959 20.597C339.063 20.4657 339.167 20.3438 339.271 20.2219L339.527 19.9124C339.622 19.8092 339.707 19.6967 339.792 19.6029C339.906 19.4809 340.01 19.3684 340.114 19.2559L340.398 18.9651C340.492 18.8619 340.587 18.7588 340.691 18.665C340.795 18.5618 340.899 18.4587 341.013 18.3649L341.316 18.0835C341.42 17.9803 341.524 17.8772 341.637 17.7834C341.742 17.6896 341.855 17.5958 341.969 17.502L342.281 17.2488C342.395 17.155 342.508 17.0612 342.622 16.9674C342.735 16.883 342.858 16.7986 342.972 16.7142L343.303 16.4704C343.426 16.386 343.54 16.3016 343.663 16.2171C343.776 16.1327 343.899 16.0577 344.013 15.9921L344.372 15.767C344.495 15.6826 344.619 15.5981 344.742 15.5231C344.865 15.4575 344.988 15.3824 345.111 15.3168L345.47 15.1198C345.603 15.0448 345.726 14.9698 345.858 14.9041C345.981 14.8385 346.114 14.7822 346.237 14.7165L346.615 14.5383C346.748 14.4727 346.88 14.407 347.013 14.3414C347.145 14.2851 347.268 14.2382 347.401 14.182L347.789 14.0225C347.921 13.9662 348.063 13.91 348.196 13.8537C348.328 13.8068 348.461 13.7599 348.593 13.7224L349 13.5817C349.142 13.5348 349.275 13.4879 349.417 13.441C349.559 13.3941 349.701 13.3566 349.852 13.3191L350.259 13.2066C350.391 13.1691 350.524 13.1315 350.656 13.094C350.817 13.0565 350.969 13.0284 351.13 12.9909L351.536 12.9064C351.669 12.8783 351.792 12.8502 351.925 12.822C352.095 12.7939 352.275 12.7658 352.445 12.747L352.861 12.6814C352.975 12.6626 353.089 12.6438 353.202 12.6251C353.458 12.5969 353.713 12.5782 353.969 12.5594H354.101C354.158 12.5407 354.215 12.5407 354.272 12.5313C354.347 12.5219 354.432 12.5125 354.508 12.5125C355.379 12.4563 356.268 12.4563 357.139 12.5125C357.224 12.5125 357.309 12.5219 357.395 12.5313C357.461 12.5313 357.527 12.5501 357.584 12.5501H357.745C357.972 12.5782 358.208 12.5969 358.445 12.6251C358.54 12.6438 358.644 12.6532 358.748 12.672C358.814 12.6814 358.88 12.7001 358.947 12.7095L359.136 12.7376C359.335 12.7658 359.533 12.7845 359.723 12.822C359.836 12.8408 359.94 12.8689 360.054 12.8971L360.442 12.9721C360.622 13.0096 360.811 13.0471 360.991 13.094C361.114 13.1222 361.227 13.1597 361.341 13.1972L361.748 13.3097C361.909 13.3472 362.07 13.3941 362.231 13.441C362.354 13.4786 362.467 13.5161 362.59 13.563L362.988 13.7036C363.139 13.7505 363.29 13.7974 363.442 13.8631C363.565 13.9006 363.688 13.9569 363.802 14.0038L364.19 14.1632C364.341 14.2195 364.483 14.2851 364.634 14.3508C364.757 14.3977 364.871 14.4633 364.994 14.5196L365.354 14.6978C365.505 14.7634 365.647 14.8291 365.779 14.9041C365.902 14.9698 366.016 15.0354 366.13 15.1011L366.499 15.298C366.631 15.3731 366.764 15.4481 366.896 15.5325C367.019 15.5981 367.133 15.6732 367.237 15.7482L367.587 15.9639C367.72 16.0483 367.852 16.1327 367.975 16.2171C368.089 16.2922 368.193 16.3766 368.306 16.4516L368.637 16.6955C368.77 16.7892 368.893 16.8737 369.016 16.9768C369.12 17.0519 369.224 17.1363 369.328 17.2207L369.641 17.4833C369.764 17.5864 369.887 17.6896 370.01 17.7928C370.104 17.8772 370.208 17.971 370.303 18.0554L370.596 18.3367C370.72 18.4493 370.833 18.5524 370.956 18.665C371.041 18.7588 371.136 18.8526 371.221 18.9464L371.496 19.2371C371.619 19.359 371.732 19.4809 371.846 19.6029C371.931 19.6967 372.007 19.7904 372.082 19.8842L372.366 20.2219C372.47 20.3438 372.584 20.4657 372.679 20.597C372.764 20.7002 372.83 20.794 372.906 20.8971L373.142 21.2066C373.227 21.3286 373.322 21.4505 373.407 21.5724Z" fill="white"/>
<path d="M377.267 33.7358C377.267 45.4593 367.652 54.9881 355.822 54.9881C343.993 54.9881 334.368 45.4593 334.368 33.7358C334.368 33.3326 334.378 32.9011 334.406 32.4697C334.406 32.3853 334.406 32.3009 334.425 32.2259L334.444 32.057C334.463 31.7757 334.491 31.4943 334.52 31.213C334.529 31.1098 334.548 31.0066 334.567 30.8941L334.605 30.6221C334.633 30.4064 334.671 30.1907 334.709 29.9656C334.728 29.853 334.756 29.7405 334.775 29.628L334.822 29.4122C334.87 29.1872 334.917 28.9621 334.964 28.737C335.002 28.6057 335.04 28.4744 335.078 28.3431L335.106 28.2118C335.173 27.9867 335.229 27.7522 335.305 27.5271C335.352 27.3677 335.4 27.2176 335.456 27.0582L335.475 27.0019C335.551 26.7862 335.627 26.5611 335.703 26.336C335.769 26.1672 335.845 25.9984 335.911 25.8202C335.996 25.6045 336.091 25.3888 336.185 25.1824C336.251 25.0136 336.327 24.8542 336.403 24.6854C336.412 24.7041 336.412 24.7229 336.422 24.7416L336.45 24.8542C336.488 24.9949 336.526 25.1355 336.564 25.2762C336.602 25.4075 336.639 25.5388 336.687 25.6795C336.725 25.8202 336.772 25.9609 336.819 26.1016C336.857 26.2141 336.895 26.3266 336.933 26.4486L336.952 26.4955C336.999 26.6361 337.056 26.7768 337.103 26.9081C337.15 27.0207 337.198 27.1332 337.236 27.2458L337.255 27.2927C337.311 27.4333 337.368 27.5646 337.425 27.7053L337.595 28.0711C337.652 28.2118 337.718 28.3431 337.785 28.4744C337.841 28.5963 337.898 28.7182 337.964 28.8401L338.163 29.2341C338.229 29.3466 338.296 29.4685 338.362 29.5811C338.438 29.7124 338.513 29.8437 338.589 29.9656C338.655 30.0781 338.721 30.1907 338.797 30.3126C338.873 30.4345 338.949 30.5565 339.034 30.6784C339.1 30.7909 339.176 30.9035 339.251 31.016C339.337 31.1379 339.422 31.2505 339.507 31.3724C339.583 31.4849 339.658 31.5881 339.744 31.6913C339.829 31.8132 339.923 31.9257 340.009 32.0383C340.094 32.1508 340.179 32.254 340.255 32.3572C340.349 32.4697 340.444 32.5823 340.539 32.6948C340.624 32.7886 340.709 32.8918 340.803 32.9949C340.898 33.0981 340.993 33.2106 341.097 33.3138C341.182 33.417 341.277 33.5108 341.371 33.6045C341.466 33.7077 341.57 33.8109 341.674 33.914C341.769 34.0078 341.863 34.1016 341.958 34.1954C342.072 34.2986 342.176 34.3924 342.28 34.4955C342.384 34.5799 342.479 34.6737 342.573 34.7581C342.687 34.8519 342.8 34.9457 342.914 35.0395C343.018 35.1239 343.113 35.2083 343.217 35.2927C343.33 35.3865 343.444 35.4709 343.586 35.5835C343.68 35.6585 343.785 35.7335 343.879 35.8085C344.002 35.893 344.116 35.9774 344.239 36.0618L344.286 36.0899C344.371 36.1556 344.466 36.2212 344.561 36.2869C344.684 36.3713 344.807 36.4463 344.93 36.5307L344.977 36.5588C345.072 36.6245 345.166 36.6808 345.261 36.7464C345.393 36.8214 345.516 36.8965 345.649 36.9715L345.725 37.009C345.81 37.0653 345.895 37.1216 345.99 37.1685C346.094 37.2247 346.207 37.2904 346.321 37.3467L346.434 37.4123C346.529 37.4592 346.633 37.5155 346.728 37.5624C346.832 37.6186 346.945 37.6749 347.059 37.7218L347.21 37.7968C347.305 37.8437 347.39 37.8906 347.485 37.9281C347.598 37.975 347.712 38.0313 347.826 38.0782L347.996 38.1532C348.081 38.1907 348.166 38.2283 348.261 38.2658C348.374 38.3127 348.498 38.3596 348.621 38.3971L348.791 38.4721C348.876 38.5002 348.961 38.5378 349.046 38.5659C349.16 38.6034 349.283 38.6409 349.397 38.6784L349.567 38.7441C349.662 38.7722 349.756 38.8004 349.851 38.8379C349.974 38.866 350.087 38.9035 350.201 38.9317L350.419 38.9973C350.504 39.0255 350.589 39.0442 350.674 39.0723C350.788 39.1005 350.901 39.1286 351.015 39.1568L351.251 39.213C351.337 39.2318 351.422 39.2505 351.507 39.2693C351.621 39.2974 351.744 39.3162 351.857 39.3443L352.103 39.3912C352.179 39.41 352.264 39.4287 352.349 39.4381C352.472 39.4569 352.595 39.4756 352.718 39.4944L352.964 39.5319C353.05 39.5507 353.125 39.56 353.201 39.5694C353.333 39.5882 353.466 39.5976 353.608 39.6163L353.845 39.6444C353.92 39.6538 353.996 39.6538 354.062 39.6632C354.233 39.682 354.393 39.6913 354.564 39.7007H354.763C354.819 39.7101 354.886 39.7195 354.942 39.7195C355.52 39.7476 356.116 39.7476 356.703 39.7195C356.769 39.7195 356.826 39.7101 356.882 39.7101H357.081C357.251 39.6913 357.412 39.682 357.583 39.6632C357.649 39.6538 357.725 39.6538 357.8 39.6444L358.046 39.6163C358.179 39.5976 358.311 39.5882 358.444 39.5694C358.52 39.5694 358.595 39.5507 358.681 39.5319L358.936 39.4944C359.059 39.4756 359.173 39.4569 359.296 39.4381C359.381 39.4287 359.466 39.41 359.551 39.3912L359.778 39.3443C359.901 39.3256 360.024 39.2974 360.138 39.2693C360.233 39.2505 360.318 39.2318 360.403 39.213L360.639 39.1568C360.744 39.1286 360.857 39.1005 360.971 39.0723C361.065 39.0442 361.151 39.0255 361.236 38.9973L361.444 38.941C361.557 38.9035 361.671 38.866 361.794 38.8379C361.879 38.8097 361.974 38.7722 362.069 38.7441L362.229 38.6878C362.352 38.6503 362.475 38.6128 362.598 38.5659C362.684 38.5284 362.778 38.5002 362.863 38.4627L363.062 38.3877C363.166 38.3502 363.28 38.3033 363.384 38.2658C363.488 38.2189 363.583 38.1814 363.677 38.1345L363.81 38.0782C363.933 38.0313 364.046 37.9844 364.16 37.9281C364.255 37.8812 364.349 37.8344 364.444 37.7968L364.586 37.7312C364.69 37.6749 364.804 37.6186 364.917 37.5624C365.021 37.5155 365.116 37.4592 365.22 37.4029L365.277 37.3748C365.4 37.3091 365.532 37.2435 365.655 37.1685C365.769 37.1028 365.873 37.0465 365.987 36.9809L365.911 36.8683L366.034 36.9528C366.147 36.8871 366.261 36.8121 366.375 36.7464C366.488 36.6714 366.602 36.5964 366.725 36.5213C366.848 36.4463 366.961 36.3713 367.075 36.2869C367.179 36.2212 367.283 36.1462 367.387 36.0805L367.434 36.043C367.548 35.968 367.652 35.8836 367.756 35.8085C367.87 35.7241 367.974 35.6397 368.087 35.5647C368.201 35.4709 368.315 35.3865 368.419 35.2927C368.532 35.2083 368.627 35.1239 368.731 35.0395C368.845 34.9457 368.958 34.8519 369.062 34.7581C369.166 34.6737 369.261 34.5799 369.365 34.4861C369.469 34.3924 369.573 34.2986 369.677 34.1954C369.772 34.1016 369.876 34.0078 369.971 33.914C370.065 33.8109 370.17 33.7077 370.274 33.6045C370.368 33.5108 370.453 33.4076 370.548 33.3138C370.643 33.2106 370.747 33.0981 370.841 32.9949C370.927 32.8918 371.012 32.7886 371.106 32.6854C371.201 32.5823 371.286 32.4697 371.381 32.3572C371.466 32.254 371.551 32.1508 371.636 32.0383C371.722 31.9257 371.807 31.8132 371.892 31.7007C371.977 31.5881 372.053 31.4756 372.138 31.3724C372.223 31.2505 372.299 31.1379 372.384 31.016L372.611 30.6784C372.687 30.5565 372.772 30.4345 372.848 30.3126C372.914 30.2001 372.99 30.0781 373.056 29.9656C373.132 29.8343 373.198 29.7124 373.274 29.5904L373.472 29.2247C373.539 29.1027 373.605 28.9714 373.671 28.8401C373.737 28.7182 373.794 28.5963 373.86 28.4744C373.917 28.3431 373.983 28.2118 374.04 28.0805C374.097 27.9492 374.154 27.8272 374.211 27.7053C374.267 27.5646 374.324 27.4333 374.381 27.2927L374.409 27.227C374.447 27.1238 374.494 27.0207 374.532 26.9081C374.589 26.7674 374.636 26.6361 374.684 26.4955L374.703 26.4392C374.74 26.3266 374.788 26.2141 374.816 26.1016C374.864 25.9609 374.911 25.8202 374.958 25.6795L374.977 25.6232C375.005 25.5013 375.043 25.3888 375.072 25.2762C375.119 25.1355 375.157 24.9855 375.195 24.8448V24.7698C375.195 24.7698 375.223 24.7135 375.233 24.6854C375.308 24.8542 375.384 25.0136 375.46 25.1731C375.554 25.3888 375.64 25.6045 375.725 25.8202C375.8 25.989 375.867 26.1578 375.933 26.336C376.009 26.5517 376.084 26.7768 376.16 27.0019L376.188 27.0769C376.236 27.227 376.293 27.3677 376.33 27.5271C376.406 27.7522 376.463 27.9773 376.529 28.2118L376.558 28.3149C376.595 28.4556 376.633 28.5963 376.671 28.737C376.718 28.9433 376.766 29.159 376.813 29.3747L376.86 29.5998C376.879 29.7217 376.908 29.8437 376.927 29.9656C376.964 30.1813 377.002 30.4064 377.031 30.6221L377.069 30.8941C377.087 30.9973 377.106 31.1098 377.116 31.213C377.144 31.4756 377.173 31.7476 377.192 32.0195L377.211 32.2259C377.22 32.3103 377.229 32.3853 377.229 32.4697C377.258 32.9105 377.267 33.3326 377.267 33.7358Z" fill="white"/>
<path d="M363.753 35.5277C363.696 35.5652 363.63 35.5934 363.563 35.6215C363.63 35.5934 363.696 35.5652 363.753 35.5371C363.866 35.4714 363.98 35.4152 364.084 35.3589C363.98 35.4152 363.866 35.4714 363.753 35.5277ZM363.753 35.5277C363.696 35.5652 363.63 35.5934 363.563 35.6215C363.63 35.5934 363.696 35.5652 363.753 35.5371C363.866 35.4714 363.98 35.4152 364.084 35.3589C363.98 35.4152 363.866 35.4714 363.753 35.5277ZM363.753 35.5277C363.696 35.5652 363.63 35.5934 363.563 35.6215C363.63 35.5934 363.696 35.5652 363.753 35.5371C363.866 35.4714 363.98 35.4152 364.084 35.3589C363.98 35.4152 363.866 35.4714 363.753 35.5277ZM363.753 35.5277C363.696 35.5652 363.63 35.5934 363.563 35.6215C363.63 35.5934 363.696 35.5652 363.753 35.5371C363.866 35.4714 363.98 35.4152 364.084 35.3589C363.98 35.4152 363.866 35.4714 363.753 35.5277ZM363.753 35.5277C363.696 35.5652 363.63 35.5934 363.563 35.6215C363.63 35.5934 363.696 35.5652 363.753 35.5371C363.866 35.4714 363.98 35.4152 364.084 35.3589C363.98 35.4152 363.866 35.4714 363.753 35.5277ZM363.753 35.5277C363.696 35.5652 363.63 35.5934 363.563 35.6215C363.63 35.5934 363.696 35.5652 363.753 35.5371C363.866 35.4714 363.98 35.4152 364.084 35.3589C363.98 35.4152 363.866 35.4714 363.753 35.5277ZM363.753 35.5277C363.696 35.5652 363.63 35.5934 363.563 35.6215C363.63 35.5934 363.696 35.5652 363.753 35.5371C363.866 35.4714 363.98 35.4152 364.084 35.3589C363.98 35.4152 363.866 35.4714 363.753 35.5277Z" fill="#231F20"/>
<path d="M356.986 75.5184V57.2674C363.024 56.9767 368.674 54.4444 372.895 50.1208C377.22 45.7034 379.605 39.8792 379.605 33.7361C379.605 29.1593 378.289 24.7326 375.791 20.9436C375.819 20.5684 375.828 20.2308 375.828 19.9025C375.828 8.96691 366.857 0.0758667 355.822 0.0758667C344.787 0.0758667 335.806 8.96691 335.806 19.9025C335.806 20.2308 335.825 20.5778 335.844 20.9436C333.346 24.7326 332.03 29.1593 332.03 33.7361C332.03 39.8792 334.415 45.7034 338.74 50.1208C342.97 54.4444 348.611 56.9767 354.658 57.2674V75.5184C345.535 76.1187 338.399 83.6592 338.399 92.7284C338.399 102.248 346.216 109.995 355.822 109.995C365.428 109.995 373.235 102.248 373.235 92.7284C373.235 83.209 366.109 76.1187 356.986 75.5184ZM355.822 107.678C347.503 107.678 340.737 100.972 340.737 92.7284C340.737 84.944 346.841 78.4352 354.658 77.835V92.7941C354.658 93.4318 355.179 93.9476 355.822 93.9476C356.466 93.9476 356.986 93.4318 356.986 92.7941V77.835C364.803 78.4352 370.898 84.944 370.898 92.7284C370.898 100.972 364.131 107.678 355.822 107.678ZM355.822 2.39241C364.851 2.39241 372.327 9.00442 373.368 17.8392C368.873 12.9529 362.504 10.158 355.822 10.158C349.141 10.158 342.762 12.9529 338.267 17.8298C339.317 9.00442 346.794 2.39241 355.822 2.39241ZM338.485 21.2249L338.712 20.9154C338.797 20.8029 338.873 20.6997 338.958 20.5965C339.062 20.4652 339.166 20.3433 339.27 20.2214L339.526 19.9119C339.62 19.8087 339.705 19.6962 339.791 19.6024C339.904 19.4805 340.008 19.3679 340.112 19.2554L340.396 18.9646C340.491 18.8615 340.585 18.7583 340.69 18.6645C340.794 18.5614 340.898 18.4582 341.011 18.3644L341.314 18.083C341.418 17.9799 341.522 17.8767 341.636 17.7829C341.74 17.6891 341.854 17.5953 341.967 17.5016L342.279 17.2483C342.393 17.1545 342.507 17.0608 342.62 16.967C342.734 16.8826 342.857 16.7982 342.97 16.7137L343.302 16.4699C343.425 16.3855 343.538 16.3011 343.661 16.2167C343.775 16.1323 343.898 16.0572 344.011 15.9916L344.371 15.7665C344.494 15.6821 344.617 15.5977 344.74 15.5226C344.863 15.457 344.986 15.382 345.109 15.3163L345.469 15.1194C345.601 15.0443 345.724 14.9693 345.857 14.9036C345.98 14.838 346.112 14.7817 346.235 14.7161L346.614 14.5379C346.746 14.4722 346.879 14.4066 347.011 14.3409C347.144 14.2847 347.267 14.2378 347.399 14.1815L347.787 14.022C347.92 13.9658 348.062 13.9095 348.194 13.8532C348.327 13.8063 348.459 13.7594 348.592 13.7219L348.999 13.5812C349.141 13.5344 349.273 13.4875 349.415 13.4406C349.557 13.3937 349.699 13.3562 349.85 13.3186L350.257 13.2061C350.39 13.1686 350.522 13.1311 350.655 13.0936C350.816 13.056 350.967 13.0279 351.128 12.9904L351.535 12.906C351.668 12.8778 351.791 12.8497 351.923 12.8216C352.093 12.7934 352.273 12.7653 352.444 12.7465L352.86 12.6809C352.974 12.6621 353.087 12.6434 353.201 12.6246C353.456 12.5965 353.712 12.5777 353.967 12.559H354.1C354.157 12.5402 354.213 12.5402 354.27 12.5308C354.346 12.5214 354.431 12.5121 354.507 12.5121C355.377 12.4558 356.267 12.4558 357.138 12.5121C357.223 12.5121 357.308 12.5214 357.393 12.5308C357.459 12.5308 357.526 12.5496 357.582 12.5496H357.743C357.97 12.5777 358.207 12.5965 358.444 12.6246C358.538 12.6434 358.642 12.6528 358.746 12.6715C358.813 12.6809 358.879 12.6996 358.945 12.709L359.134 12.7372C359.333 12.7653 359.532 12.7841 359.721 12.8216C359.835 12.8403 359.939 12.8685 360.052 12.8966L360.44 12.9716C360.62 13.0091 360.81 13.0467 360.989 13.0936C361.112 13.1217 361.226 13.1592 361.339 13.1967L361.746 13.3093C361.907 13.3468 362.068 13.3937 362.229 13.4406C362.352 13.4781 362.466 13.5156 362.589 13.5625L362.986 13.7032C363.138 13.7501 363.289 13.797 363.44 13.8626C363.563 13.9001 363.687 13.9564 363.8 14.0033L364.188 14.1627C364.339 14.219 364.481 14.2847 364.633 14.3503C364.756 14.3972 364.869 14.4628 364.992 14.5191L365.352 14.6973C365.504 14.763 365.646 14.8286 365.778 14.9036C365.901 14.9693 366.015 15.035 366.128 15.1006L366.497 15.2976C366.63 15.3726 366.762 15.4476 366.895 15.532C367.018 15.5977 367.131 15.6727 367.235 15.7477L367.586 15.9634C367.718 16.0479 367.851 16.1323 367.974 16.2167C368.087 16.2917 368.191 16.3761 368.305 16.4511L368.636 16.695C368.769 16.7888 368.892 16.8732 369.015 16.9763C369.119 17.0514 369.223 17.1358 369.327 17.2202L369.639 17.4828C369.762 17.586 369.885 17.6891 370.008 17.7923C370.103 17.8767 370.207 17.9705 370.302 18.0549L370.595 18.3363C370.718 18.4488 370.832 18.552 370.955 18.6645C371.04 18.7583 371.134 18.8521 371.22 18.9459L371.494 19.2366C371.617 19.3585 371.731 19.4805 371.844 19.6024C371.929 19.6962 372.005 19.79 372.081 19.8838L372.365 20.2214C372.469 20.3433 372.582 20.4652 372.677 20.5965C372.762 20.6997 372.828 20.7935 372.904 20.8967L373.141 21.2062C373.226 21.3281 373.321 21.45 373.406 21.5719C373.396 21.6657 373.387 21.7595 373.377 21.8533L373.349 22.0596C373.34 22.144 373.33 22.2284 373.321 22.3128L373.264 22.6505L373.226 22.8943C373.226 22.9694 373.198 23.0538 373.188 23.1382C373.169 23.232 373.15 23.3258 373.122 23.4289L373.065 23.7009C373.046 23.7759 373.037 23.8603 373.008 23.9447C372.989 24.0479 372.961 24.1417 372.933 24.2355L372.866 24.4793C372.847 24.5731 372.828 24.6575 372.8 24.7326C372.772 24.8357 372.743 24.9295 372.715 25.0233L372.639 25.2578C372.611 25.3516 372.582 25.436 372.554 25.511C372.526 25.6048 372.488 25.6892 372.459 25.7736L372.374 26.0081C372.336 26.1019 372.308 26.1863 372.27 26.2801C372.242 26.3551 372.204 26.4395 372.175 26.5145L372.062 26.7677C372.024 26.8522 371.996 26.9366 371.948 27.021C371.92 27.1054 371.873 27.1804 371.835 27.2648L371.74 27.4712C371.693 27.5649 371.646 27.6587 371.598 27.7525C371.56 27.8275 371.522 27.8932 371.485 27.9682L371.371 28.1839C371.314 28.2777 371.267 28.3715 371.22 28.4559C371.182 28.531 371.134 28.5966 371.097 28.6623L370.983 28.8592C370.926 28.953 370.86 29.0562 370.803 29.1499C370.765 29.2156 370.718 29.2719 370.68 29.3375L370.538 29.5439C370.481 29.6376 370.425 29.722 370.358 29.8158C370.311 29.8815 370.273 29.9378 370.226 29.994L370.093 30.1722C370.027 30.266 369.961 30.3692 369.885 30.463L369.743 30.6318L369.611 30.8006C369.535 30.8944 369.459 30.9882 369.384 31.082C369.336 31.1382 369.289 31.1851 369.242 31.2414L369.081 31.4196C369.005 31.5134 368.929 31.5978 368.854 31.6822C368.806 31.7385 368.75 31.7854 368.702 31.8416L368.551 31.9917C368.466 32.0855 368.381 32.1699 368.295 32.2637C368.248 32.3106 368.201 32.3575 368.153 32.4044L367.983 32.5638C367.888 32.6482 367.803 32.7326 367.718 32.8077C367.661 32.8545 367.614 32.9014 367.567 32.939L367.387 33.0984C367.302 33.1734 367.207 33.2578 367.112 33.3329C367.065 33.3798 367.008 33.4173 366.961 33.4548L366.791 33.5861C366.686 33.6705 366.582 33.7549 366.478 33.8299C366.431 33.8768 366.374 33.9143 366.327 33.9519L366.119 34.0925C366.024 34.1676 365.929 34.2332 365.825 34.2989C365.778 34.3458 365.712 34.3833 365.655 34.4208L365.456 34.5521C365.352 34.6177 365.257 34.6834 365.153 34.7397C365.106 34.7772 365.049 34.8053 364.992 34.8428L364.775 34.9741C364.671 35.0304 364.567 35.0961 364.463 35.1523C364.406 35.1899 364.349 35.218 364.283 35.2461L364.084 35.3587C363.98 35.4149 363.866 35.4712 363.753 35.5369C363.696 35.565 363.63 35.5931 363.563 35.6213L363.346 35.7338C363.242 35.7807 363.138 35.8276 363.024 35.8839C362.958 35.912 362.892 35.9402 362.816 35.9683L362.579 36.0715C362.475 36.109 362.381 36.1559 362.286 36.1934C362.21 36.2215 362.144 36.2496 362.068 36.2778L361.832 36.3622C361.727 36.3997 361.623 36.4372 361.519 36.4747C361.444 36.5029 361.368 36.5216 361.292 36.5498L361.046 36.6248C360.942 36.6623 360.847 36.6905 360.743 36.7186C360.658 36.7467 360.573 36.7655 360.497 36.7936L360.242 36.8593C360.147 36.8874 360.052 36.9062 359.948 36.9343C359.863 36.9531 359.769 36.9718 359.674 36.9906L359.418 37.0562C359.324 37.075 359.239 37.0937 359.144 37.1125C359.04 37.1313 358.936 37.15 358.832 37.1688L358.567 37.2063C358.491 37.225 358.415 37.2344 358.33 37.2438C358.207 37.2626 358.084 37.2813 357.961 37.2907L357.705 37.3188C357.639 37.3282 357.573 37.3376 357.507 37.347C357.365 37.3563 357.223 37.3657 357.081 37.3751L356.844 37.3939C356.787 37.4032 356.731 37.4032 356.664 37.4032C356.39 37.422 356.106 37.4314 355.822 37.4314C351.355 37.4314 347.087 35.7526 343.794 32.7139C343.595 32.5357 343.396 32.3387 343.207 32.1511L343.103 32.0386C342.942 31.8792 342.791 31.7197 342.649 31.5603C342.611 31.5228 342.582 31.4853 342.554 31.4571L342.45 31.3352C342.336 31.2039 342.223 31.082 342.119 30.9413C342.081 30.9038 342.052 30.8569 342.015 30.81L341.873 30.6412C341.787 30.5286 341.702 30.4255 341.617 30.3129C341.579 30.2566 341.541 30.2004 341.503 30.1535L341.371 29.9753C341.305 29.8721 341.229 29.7689 341.153 29.6564C341.115 29.6001 341.078 29.5439 341.04 29.4876L340.917 29.2906C340.85 29.1875 340.784 29.0937 340.718 28.9905C340.68 28.9342 340.652 28.878 340.614 28.8123L340.491 28.606C340.434 28.5028 340.377 28.3996 340.311 28.2965C340.283 28.2308 340.245 28.1652 340.207 28.0995L340.103 27.8838C340.046 27.79 339.989 27.6869 339.942 27.5931C339.914 27.5274 339.885 27.4618 339.847 27.3867L339.743 27.1617C339.696 27.0679 339.649 26.9647 339.611 26.8709C339.573 26.7959 339.544 26.7209 339.516 26.6458L339.421 26.4301C339.384 26.3363 339.346 26.2332 339.308 26.1394C339.28 26.0643 339.251 25.9893 339.223 25.9143L339.138 25.6798C339.1 25.5766 339.071 25.4829 339.033 25.3891C339.005 25.3047 338.986 25.2296 338.958 25.1452L338.891 24.9108C338.854 24.817 338.825 24.7232 338.797 24.6294C338.778 24.545 338.759 24.47 338.74 24.3856L338.674 24.1323C338.645 24.0385 338.627 23.9447 338.598 23.851C338.579 23.7759 338.57 23.7009 338.551 23.6259L338.503 23.3726C338.475 23.2789 338.456 23.1757 338.437 23.0725C338.418 22.9881 338.409 22.9131 338.399 22.8287L338.362 22.5848C338.343 22.4817 338.324 22.3785 338.314 22.2753C338.295 22.2003 338.286 22.1159 338.276 22.0409L338.257 21.8345C338.248 21.7501 338.238 21.6563 338.229 21.5719C338.314 21.45 338.399 21.3375 338.485 21.2249ZM334.368 33.7361C334.368 33.3329 334.377 32.9014 334.406 32.47C334.406 32.3856 334.406 32.3012 334.425 32.2262L334.444 32.0574C334.462 31.776 334.491 31.4946 334.519 31.2133C334.529 31.1101 334.548 31.0069 334.567 30.8944L334.604 30.6224C334.633 30.4067 334.671 30.191 334.709 29.9659C334.727 29.8534 334.756 29.7408 334.775 29.6283L334.822 29.4126C334.869 29.1875 334.917 28.9624 334.964 28.7373C335.002 28.606 335.04 28.4747 335.078 28.3434L335.106 28.2121C335.172 27.987 335.229 27.7525 335.305 27.5274C335.352 27.368 335.399 27.2179 335.456 27.0585L335.475 27.0022C335.551 26.7865 335.627 26.5614 335.702 26.3363C335.768 26.1675 335.844 25.9987 335.91 25.8205C335.996 25.6048 336.09 25.3891 336.185 25.1827C336.251 25.0139 336.327 24.8545 336.403 24.6857C336.412 24.7044 336.412 24.7232 336.421 24.7419L336.45 24.8545C336.488 24.9952 336.526 25.1358 336.563 25.2765C336.601 25.4078 336.639 25.5391 336.686 25.6798C336.724 25.8205 336.772 25.9612 336.819 26.1019C336.857 26.2144 336.895 26.3269 336.932 26.4489L336.951 26.4958C336.999 26.6364 337.056 26.7771 337.103 26.9084C337.15 27.021 337.197 27.1335 337.235 27.2461L337.254 27.293C337.311 27.4336 337.368 27.5649 337.425 27.7056L337.595 28.0714C337.652 28.2121 337.718 28.3434 337.784 28.4747C337.841 28.5966 337.898 28.7185 337.964 28.8405L338.163 29.2344C338.229 29.3469 338.295 29.4688 338.362 29.5814C338.437 29.7127 338.513 29.844 338.589 29.9659C338.655 30.0784 338.721 30.191 338.797 30.3129C338.873 30.4348 338.948 30.5568 339.033 30.6787C339.1 30.7912 339.175 30.9038 339.251 31.0163C339.336 31.1382 339.421 31.2508 339.507 31.3727C339.582 31.4853 339.658 31.5884 339.743 31.6916C339.828 31.8135 339.923 31.9261 340.008 32.0386C340.093 32.1511 340.179 32.2543 340.254 32.3575C340.349 32.47 340.444 32.5826 340.538 32.6951C340.623 32.7889 340.709 32.8921 340.803 32.9952C340.898 33.0984 340.992 33.2109 341.097 33.3141C341.182 33.4173 341.276 33.5111 341.371 33.6048C341.466 33.708 341.57 33.8112 341.674 33.9143C341.768 34.0081 341.863 34.1019 341.958 34.1957C342.071 34.2989 342.175 34.3927 342.279 34.4958C342.384 34.5802 342.478 34.674 342.573 34.7584C342.686 34.8522 342.8 34.946 342.914 35.0398C343.018 35.1242 343.112 35.2086 343.216 35.293C343.33 35.3868 343.444 35.4712 343.585 35.5838C343.68 35.6588 343.784 35.7338 343.879 35.8088C344.002 35.8933 344.115 35.9777 344.238 36.0621L344.286 36.0902C344.371 36.1559 344.466 36.2215 344.56 36.2872C344.683 36.3716 344.806 36.4466 344.929 36.531L344.977 36.5592C345.071 36.6248 345.166 36.6811 345.261 36.7467C345.393 36.8218 345.516 36.8968 345.649 36.9718L345.724 37.0093C345.809 37.0656 345.895 37.1219 345.989 37.1688C346.093 37.225 346.207 37.2907 346.321 37.347L346.434 37.4126C346.529 37.4595 346.633 37.5158 346.727 37.5627C346.832 37.6189 346.945 37.6752 347.059 37.7221L347.21 37.7971C347.305 37.844 347.39 37.8909 347.485 37.9284C347.598 37.9753 347.712 38.0316 347.825 38.0785L347.996 38.1535C348.081 38.191 348.166 38.2286 348.261 38.2661C348.374 38.313 348.497 38.3599 348.62 38.3974L348.791 38.4724C348.876 38.5005 348.961 38.5381 349.046 38.5662C349.16 38.6037 349.283 38.6412 349.396 38.6787L349.567 38.7444C349.661 38.7725 349.756 38.8007 349.85 38.8382C349.974 38.8663 350.087 38.9038 350.201 38.932L350.418 38.9976C350.503 39.0258 350.589 39.0445 350.674 39.0727C350.787 39.1008 350.901 39.1289 351.015 39.1571L351.251 39.2133C351.336 39.2321 351.421 39.2508 351.507 39.2696C351.62 39.2977 351.743 39.3165 351.857 39.3446L352.103 39.3915C352.179 39.4103 352.264 39.429 352.349 39.4384C352.472 39.4572 352.595 39.4759 352.718 39.4947L352.964 39.5322C353.049 39.551 353.125 39.5603 353.201 39.5697C353.333 39.5885 353.466 39.5979 353.608 39.6166L353.844 39.6448C353.92 39.6541 353.996 39.6541 354.062 39.6635C354.232 39.6823 354.393 39.6916 354.563 39.701H354.762C354.819 39.7104 354.885 39.7198 354.942 39.7198C355.519 39.7479 356.116 39.7479 356.702 39.7198C356.769 39.7198 356.825 39.7104 356.882 39.7104H357.081C357.251 39.6916 357.412 39.6823 357.582 39.6635C357.649 39.6541 357.724 39.6541 357.8 39.6448L358.046 39.6166C358.179 39.5979 358.311 39.5885 358.444 39.5697C358.519 39.5697 358.595 39.551 358.68 39.5322L358.936 39.4947C359.059 39.4759 359.172 39.4572 359.295 39.4384C359.38 39.429 359.466 39.4103 359.551 39.3915L359.778 39.3446C359.901 39.3259 360.024 39.2977 360.138 39.2696C360.232 39.2508 360.317 39.2321 360.403 39.2133L360.639 39.1571C360.743 39.1289 360.857 39.1008 360.97 39.0727C361.065 39.0445 361.15 39.0258 361.235 38.9976L361.444 38.9413C361.557 38.9038 361.671 38.8663 361.794 38.8382C361.879 38.81 361.974 38.7725 362.068 38.7444L362.229 38.6881C362.352 38.6506 362.475 38.6131 362.598 38.5662C362.683 38.5287 362.778 38.5005 362.863 38.463L363.062 38.388C363.166 38.3505 363.28 38.3036 363.384 38.2661C363.488 38.2192 363.582 38.1817 363.677 38.1348L363.81 38.0785C363.933 38.0316 364.046 37.9847 364.16 37.9284C364.254 37.8816 364.349 37.8347 364.444 37.7971L364.586 37.7315C364.69 37.6752 364.803 37.6189 364.917 37.5627C365.021 37.5158 365.116 37.4595 365.22 37.4032L365.276 37.3751C365.399 37.3094 365.532 37.2438 365.655 37.1688C365.769 37.1031 365.873 37.0468 365.986 36.9812L365.91 36.8686L366.034 36.9531C366.147 36.8874 366.261 36.8124 366.374 36.7467C366.488 36.6717 366.601 36.5967 366.724 36.5216C366.847 36.4466 366.961 36.3716 367.075 36.2872C367.179 36.2215 367.283 36.1465 367.387 36.0808L367.434 36.0433C367.548 35.9683 367.652 35.8839 367.756 35.8088C367.869 35.7244 367.974 35.64 368.087 35.565C368.201 35.4712 368.314 35.3868 368.418 35.293C368.532 35.2086 368.627 35.1242 368.731 35.0398C368.844 34.946 368.958 34.8522 369.062 34.7584C369.166 34.674 369.261 34.5802 369.365 34.4864C369.469 34.3927 369.573 34.2989 369.677 34.1957C369.772 34.1019 369.876 34.0081 369.97 33.9143C370.065 33.8112 370.169 33.708 370.273 33.6048C370.368 33.5111 370.453 33.4079 370.548 33.3141C370.642 33.2109 370.746 33.0984 370.841 32.9952C370.926 32.8921 371.011 32.7889 371.106 32.6857C371.201 32.5826 371.286 32.47 371.381 32.3575C371.466 32.2543 371.551 32.1511 371.636 32.0386C371.721 31.9261 371.806 31.8135 371.892 31.701C371.977 31.5884 372.052 31.4759 372.138 31.3727C372.223 31.2508 372.298 31.1382 372.384 31.0163L372.611 30.6787C372.687 30.5568 372.772 30.4348 372.847 30.3129C372.914 30.2004 372.989 30.0784 373.056 29.9659C373.131 29.8346 373.198 29.7127 373.273 29.5907L373.472 29.225C373.538 29.1031 373.605 28.9718 373.671 28.8405C373.737 28.7185 373.794 28.5966 373.86 28.4747C373.917 28.3434 373.983 28.2121 374.04 28.0808C374.097 27.9495 374.153 27.8275 374.21 27.7056C374.267 27.5649 374.324 27.4336 374.381 27.293L374.409 27.2273C374.447 27.1241 374.494 27.021 374.532 26.9084C374.589 26.7677 374.636 26.6364 374.683 26.4958L374.702 26.4395C374.74 26.327 374.787 26.2144 374.816 26.1019C374.863 25.9612 374.91 25.8205 374.958 25.6798L374.977 25.6235C375.005 25.5016 375.043 25.3891 375.071 25.2765C375.119 25.1358 375.157 24.9858 375.194 24.8451V24.7701C375.194 24.7701 375.223 24.7138 375.232 24.6857C375.308 24.8545 375.384 25.0139 375.459 25.1734C375.554 25.3891 375.639 25.6048 375.724 25.8205C375.8 25.9893 375.866 26.1581 375.933 26.3363C376.008 26.552 376.084 26.7771 376.16 27.0022L376.188 27.0772C376.235 27.2273 376.292 27.368 376.33 27.5274C376.406 27.7525 376.463 27.9776 376.529 28.2121L376.557 28.3152C376.595 28.4559 376.633 28.5966 376.671 28.7373C376.718 28.9436 376.765 29.1593 376.813 29.375L376.86 29.6001C376.879 29.7221 376.907 29.844 376.926 29.9659C376.964 30.1816 377.002 30.4067 377.03 30.6224L377.068 30.8944C377.087 30.9976 377.106 31.1101 377.116 31.2133C377.144 31.4759 377.172 31.7479 377.191 32.0198L377.21 32.2262C377.22 32.3106 377.229 32.3856 377.229 32.47C377.257 32.9108 377.267 33.3329 377.267 33.7361C377.267 45.4596 367.652 54.9884 355.822 54.9884C343.992 54.9884 334.368 45.4596 334.368 33.7361Z" fill="white"/>
</svg>
