<svg width="383" height="44" viewBox="0 0 383 44" fill="none" xmlns="http://www.w3.org/2000/svg">
<path d="M35.8233 32.4056C34.1307 35.4982 31.7151 37.9329 28.5765 39.7095C25.4379 41.4861 21.7811 42.3734 17.6081 42.3734H0.972656V1.81653H17.6081C21.7811 1.81653 25.4379 2.67619 28.5765 4.39339C31.7151 6.11271 34.1307 8.49853 35.8233 11.553C37.5159 14.6095 38.3622 18.0843 38.3622 21.9793C38.3622 25.8743 37.5159 29.3129 35.8233 32.4056ZM23.1916 28.6825C24.8465 27.116 25.6719 24.883 25.6719 21.9793C25.6719 19.0755 24.8445 16.8425 23.1916 15.2761C21.5366 13.7096 19.3007 12.9263 16.4797 12.9263H13.4916V31.028H16.4797C19.3007 31.0322 21.5366 30.249 23.1916 28.6825Z" fill="white"/>
<path d="M55.1091 1.81653V24.6729C55.1091 26.545 55.5124 28.0245 56.3211 29.1134C57.1298 30.2023 58.4358 30.7457 60.2412 30.7457C62.0466 30.7457 63.3798 30.2023 64.2449 29.1134C65.11 28.0245 65.5426 26.545 65.5426 24.6729V1.81653H78.0051V24.6729C78.0051 28.5297 77.2152 31.824 75.6375 34.5537C74.0578 37.2855 71.8971 39.3359 69.1513 40.7114C66.4056 42.0868 63.3422 42.7724 59.9591 42.7724C56.576 42.7724 53.5774 42.0847 50.9633 40.7114C48.3492 39.3359 46.3097 37.294 44.8449 34.5813C43.378 31.8707 42.6445 28.5658 42.6445 24.6708V1.81653H55.1091Z" fill="white"/>
<path d="M112.49 36.703C111.306 38.5752 109.586 40.0546 107.331 41.1435C105.076 42.2324 102.387 42.7758 99.2672 42.7758C94.4924 42.7758 90.5535 41.6402 87.4525 39.3669C84.3515 37.0957 82.6673 33.7632 82.4061 29.3715H95.7149C95.9029 31.7021 96.9185 32.8653 98.7594 32.8653C99.3989 32.8653 99.915 32.6934 100.31 32.3495C100.705 32.0057 100.901 31.509 100.901 30.8594C100.901 29.9064 100.423 29.1507 99.4636 28.5967C98.5045 28.0427 96.954 27.4038 94.8101 26.6779C92.29 25.8373 90.1941 24.9798 88.5224 24.101C86.8486 23.2223 85.3921 21.9253 84.1509 20.206C82.9097 18.4867 82.2891 16.2537 82.2891 13.5028C82.2891 10.7519 82.9557 8.62502 84.2909 6.77197C85.6241 4.92105 87.4483 3.51588 89.7615 2.5607C92.0727 1.60764 94.6763 1.12793 97.5725 1.12793C102.347 1.12793 106.144 2.25504 108.965 4.50714C111.784 6.76136 113.326 10.0068 113.589 14.2457H100.111C99.9234 12.1082 99.0583 11.0384 97.5182 11.0384C96.9916 11.0384 96.5591 11.2019 96.2206 11.5245C95.882 11.8493 95.7128 12.3375 95.7128 12.9849C95.7128 13.8636 96.1913 14.579 97.1504 15.133C98.1096 15.687 99.6036 16.328 101.635 17.0518C104.19 17.9688 106.305 18.8751 107.979 19.773C109.651 20.6709 111.117 21.989 112.377 23.7253C113.638 25.4637 114.266 27.6882 114.266 30.3988C114.266 32.7316 113.675 34.8309 112.49 36.703Z" fill="white"/>
<path d="M155.604 1.81653V42.3734H143.085V26.562H131.187V42.3734H118.668V1.81653H131.187V16.4244H143.085V1.81653H155.604Z" fill="white"/>
<path d="M172.92 43.6233C170.115 43.6233 167.654 43.0268 165.602 41.853C163.537 40.6729 161.939 39.0469 160.852 37.0241C159.774 35.0161 159.229 32.73 159.229 30.2296C159.229 26.7188 160.167 23.7895 162.014 21.5247C163.604 19.574 165.604 18.3089 167.971 17.7507L167.926 17.6722C167.29 16.6639 166.805 15.6366 166.486 14.6198C166.16 13.5882 165.995 12.442 165.995 11.2109C165.995 9.34088 166.492 7.57274 167.472 5.95319C168.452 4.33575 169.902 3.02609 171.783 2.0603C173.641 1.10725 175.883 0.623291 178.445 0.623291C182.037 0.623291 184.885 1.42564 186.905 3.00487C188.918 4.57985 190.305 6.66002 191.03 9.18806C191.584 10.9583 191.804 12.9281 191.684 15.0401L191.641 15.8403H181.048V14.9913C181.048 14.3779 181.013 13.6923 180.94 12.9557V12.9175C180.848 11.1918 180.154 10.4574 178.614 10.4574C178.006 10.4574 177.542 10.6229 177.191 10.9647C176.846 11.3022 176.685 11.7076 176.685 12.2425C176.685 12.7774 176.792 13.2041 177.009 13.618C177.272 14.1168 177.715 14.7939 178.326 15.6323L199.082 43.2221H187.298L183.146 38.13C183.023 38.3104 182.908 38.4717 182.801 38.6139C181.897 40.138 180.57 41.3691 178.856 42.2691C177.147 43.1669 175.149 43.6233 172.92 43.6233ZM178.445 2.32139C176.146 2.32139 174.157 2.74379 172.533 3.57585C170.932 4.39731 169.708 5.49682 168.893 6.84256C168.078 8.1883 167.664 9.65928 167.664 11.2088C167.664 12.2637 167.802 13.2359 168.076 14.0998C168.354 14.9807 168.778 15.8785 169.338 16.7658L169.351 16.787L170.688 19.0497L169.415 19.2111C166.904 19.5295 164.904 20.6396 163.301 22.6051C161.707 24.5579 160.9 27.1221 160.9 30.2274C160.9 32.4413 161.379 34.4536 162.321 36.209C163.255 37.9495 164.636 39.3505 166.425 40.3714C168.224 41.4009 170.41 41.9231 172.924 41.9231C174.884 41.9231 176.625 41.5304 178.094 40.7578C179.544 39.9957 180.653 38.9663 181.397 37.6969L181.456 37.6099C181.702 37.2873 182.01 36.8288 182.367 36.2472L182.981 35.2496L188.092 41.5198H195.709L176.992 16.6533C176.315 15.7257 175.843 14.9977 175.538 14.4182C175.191 13.7623 175.016 13.03 175.016 12.2425C175.016 11.2428 175.358 10.4022 176.033 9.73994C176.7 9.08829 177.569 8.75716 178.616 8.75716C181.048 8.75716 182.465 10.1942 182.607 12.8071C182.653 13.272 182.684 13.7177 182.703 14.1422H190.046C190.065 12.5375 189.86 11.0453 189.436 9.69112L189.43 9.66989C188.807 7.48996 187.616 5.70059 185.888 4.34849C184.164 3.00487 181.661 2.32139 178.445 2.32139ZM173.03 35.4894C171.459 35.4894 170.136 34.9757 169.096 33.9654C168.045 32.9444 167.512 31.5902 167.512 29.943C167.512 28.2959 168.009 26.9841 168.991 26.0565C169.955 25.1459 171.219 24.6832 172.746 24.6832C174.274 24.6832 175.601 25.2011 176.696 26.2242C177.809 27.2664 178.376 28.5952 178.376 30.1723C178.376 31.7494 177.864 32.9869 176.857 33.9866C175.856 34.9842 174.568 35.4894 173.03 35.4894ZM172.748 26.3813C171.641 26.3813 170.786 26.6827 170.132 27.3004C169.495 27.9011 169.186 28.7671 169.186 29.9451C169.186 31.1232 169.535 32.0423 170.253 32.7406C170.983 33.4496 171.89 33.7934 173.03 33.7934C174.171 33.7934 174.999 33.4602 175.688 32.7746C176.374 32.0954 176.706 31.2442 176.706 30.1744C176.706 29.1046 176.332 28.194 175.565 27.4765C174.779 26.74 173.858 26.3813 172.748 26.3813Z" fill="white"/>
<path d="M231.682 1.81653V11.899H221.079V42.3755H208.56V11.899H198.07V1.81653H231.682Z" fill="white"/>
<path d="M247.585 11.899V16.9402H259.991V26.5068H247.585V32.2358H261.684V42.3755H235.066V1.81653H261.684V11.899H247.585Z" fill="white"/>
<path d="M286.493 42.3734L278.937 27.8228V42.3734H266.418V1.81653H285.028C288.261 1.81653 291.025 2.40025 293.318 3.56344C295.61 4.72876 297.33 6.31223 298.477 8.31811C299.624 10.324 300.197 12.5867 300.197 15.1062C300.197 17.8189 299.455 20.2239 297.969 22.3253C296.483 24.4267 294.35 25.9337 291.569 26.8507L300.253 42.3755H286.493V42.3734ZM278.935 19.3451H283.898C285.101 19.3451 286.002 19.0692 286.604 18.5152C287.206 17.9612 287.506 17.093 287.506 15.9086C287.506 14.8388 287.197 13.9982 286.577 13.3869C285.956 12.7756 285.064 12.4699 283.898 12.4699H278.935V19.3451Z" fill="white"/>
<path d="M324.282 42.3734L316.726 27.8228V42.3734H304.207V1.81653H322.817C326.05 1.81653 328.814 2.40025 331.107 3.56344C333.399 4.72876 335.119 6.31223 336.266 8.31811C337.413 10.324 337.986 12.5867 337.986 15.1062C337.986 17.8189 337.244 20.2239 335.758 22.3253C334.272 24.4267 332.139 25.9337 329.358 26.8507L338.042 42.3755H324.282V42.3734ZM316.724 19.3451H321.687C322.89 19.3451 323.791 19.0692 324.393 18.5152C324.995 17.9612 325.295 17.093 325.295 15.9086C325.295 14.8388 324.986 13.9982 324.366 13.3869C323.745 12.7756 322.853 12.4699 321.687 12.4699H316.724V19.3451Z" fill="white"/>
<path d="M367.587 36.2456H354.278L352.304 42.3757H339.164L353.77 1.81885H368.208L382.758 42.3757H369.562L367.587 36.2456ZM364.542 26.679L360.934 15.393L357.325 26.679H364.542Z" fill="white"/>
</svg>
