<svg width="508" height="46" viewBox="0 0 508 46" fill="none" xmlns="http://www.w3.org/2000/svg">
<g opacity="0.999184">
<path fill-rule="evenodd" clip-rule="evenodd" d="M374.24 45.2446C371.854 40.131 369.808 35.5278 367.936 31.0988C364.187 22.2331 356.342 6.04108 354.47 2.12266C354.3 1.78222 354.641 1.27168 354.98 1.4418L365.038 3.65441C365.208 3.65441 365.379 3.65441 365.379 3.82847C366.569 6.55547 372.193 18.3147 374.24 23.0879C374.411 23.2581 374.581 23.4283 374.75 23.4283C375.091 23.4283 375.265 23.2581 375.265 23.0879C377.648 17.1194 381.06 8.08732 382.251 5.01989C382.422 4.33903 383.102 3.99869 383.787 3.99869H391.968C392.649 3.99869 393.16 4.50923 393.5 5.01989C395.035 8.25754 399.979 18.9954 401.851 23.2581C402.025 23.4283 402.192 23.5986 402.366 23.5986C402.705 23.5986 402.876 23.4283 402.876 23.2581C405.603 16.2684 410.032 5.53044 410.713 3.99869C410.887 3.99869 410.888 3.82847 411.057 3.82847C412.249 3.48419 418.897 1.95244 421.284 1.4418C421.625 1.27168 421.966 1.61202 421.795 1.95244C419.748 7.06611 408.16 34.3364 406.113 39.4501L403.897 45.2446C403.556 45.585 403.387 45.7552 403.046 45.7552C402.535 45.7552 402.025 45.585 401.851 45.0744C399.635 40.1309 391.798 22.4033 389.07 16.6087C388.9 16.2684 388.556 16.2684 388.39 16.6087C387.025 20.0205 380.886 34.3364 378.843 39.4501L376.286 45.4147C376.116 45.7552 375.776 45.9254 375.436 45.9254C374.921 45.9254 374.411 45.7552 374.24 45.2446L374.24 45.2446ZM102.899 45.0748C100.512 39.9611 98.4652 35.358 96.593 30.929C92.8411 22.0632 84.9996 5.87125 83.1244 1.95283C82.9548 1.6124 83.2941 1.09792 83.6394 1.27207L94.2029 3.825C94.3725 3.825 94.5467 3.825 94.5467 3.99907C95.7387 6.72606 101.363 18.4853 103.409 23.2585C103.579 23.4287 103.748 23.5989 103.92 23.5989C104.26 23.5989 104.43 23.4287 104.43 23.2585C106.817 17.2938 110.228 8.25792 111.42 5.02027C111.59 4.33941 112.27 3.99907 112.952 3.99907H120.792C121.473 3.99907 121.987 4.50961 122.328 5.02027C123.863 8.25792 128.803 18.9958 130.68 23.2585C130.849 23.4287 131.019 23.5989 131.19 23.5989C131.534 23.5989 131.7 23.4287 131.7 23.2585C134.427 16.2688 138.86 5.53082 139.54 3.99907C139.712 3.99907 139.712 3.825 139.881 3.825C141.076 3.48457 147.726 1.95283 150.108 1.44218C150.449 1.27205 150.793 1.6124 150.793 1.6124C148.747 6.72606 137.158 33.9965 135.111 39.1101L132.552 45.0748C132.215 45.4151 132.044 45.5853 131.7 45.5853C131.19 45.5853 130.679 45.4151 130.508 44.9046C128.292 39.9611 120.452 22.2334 117.724 16.439C117.555 16.0986 117.214 16.0986 117.044 16.439C115.678 19.8468 109.544 34.1666 107.497 39.2803L104.94 45.245C104.774 45.5853 104.43 45.7555 104.089 45.7555C103.579 45.7555 103.068 45.5853 102.899 45.0748L102.899 45.0748ZM304.876 21.5518C304.876 12.8601 309.646 0.246063 325.327 0.246063C341.009 0.246063 345.782 12.8601 345.782 21.5518C345.782 30.4137 341.009 42.8575 325.327 42.8575C309.646 42.8575 304.876 30.4137 304.876 21.5518ZM314.415 21.5509C314.415 24.6183 315.777 33.9947 325.324 33.9947C334.866 33.9947 336.231 24.6183 336.231 21.5509C336.231 18.4834 334.866 9.10708 325.324 9.10708C315.777 9.10708 314.415 18.4834 314.415 21.5509ZM477.187 38.4232C476.677 38.253 476.507 37.5722 476.677 37.0617L479.918 31.097C480.088 30.5826 480.769 30.4123 481.28 30.5826C485.198 32.2884 488.78 33.6538 492.187 33.6538C495.256 33.6538 497.812 32.1182 497.812 30.0719C497.812 27.5151 494.744 26.3237 490.822 25.1285C484.857 23.0861 477.361 20.8696 477.361 12.3482C477.361 4.67761 483.152 0.074585 490.996 0.074585C493.553 0.074585 499.003 0.414914 505.822 3.65257C506.334 3.99685 506.504 4.67761 506.334 5.18825L503.606 11.3231C503.436 11.8337 502.755 12.0077 502.244 11.8337C499.688 10.8125 494.744 9.10667 491.507 9.10667C488.95 9.10667 486.734 9.9615 486.734 12.1779C487.073 14.7347 491.166 15.7559 495.769 17.4618C501.564 19.5042 507.868 22.4014 507.868 29.5613C507.868 36.7213 501.564 42.3455 492.528 42.3455C486.904 42.3455 482.134 40.9801 477.187 38.4232L477.187 38.4232ZM190.844 38.4232C190.333 38.253 190.162 37.5722 190.333 37.0617L193.575 31.097C193.744 30.5826 194.426 30.4123 194.936 30.5826C198.858 32.2884 202.436 33.6538 205.844 33.6538C208.911 33.6538 211.468 32.1182 211.468 30.0719C211.468 27.5151 208.4 26.3237 204.479 25.1285C198.514 23.0861 191.018 20.8696 191.018 12.3482C191.018 4.67761 196.811 0.074585 204.653 0.074585C207.21 0.074585 212.66 0.414914 219.479 3.65257C219.989 3.99685 220.16 4.67761 219.989 5.18825L217.263 11.3231C217.093 11.8337 216.411 12.0077 215.901 11.8337C213.344 10.8125 208.4 9.10667 205.163 9.10667C202.607 9.10667 200.389 9.9615 200.389 12.1779C200.73 14.7347 204.823 15.7559 209.426 17.4618C215.221 19.5042 221.525 22.4014 221.525 29.5613C221.525 36.7213 215.221 42.3455 206.184 42.3455C200.56 42.3455 195.791 40.9801 190.844 38.4232L190.844 38.4232ZM435.09 42.1758C434.577 42.1758 434.066 41.6652 434.066 41.1507V1.95104C434.066 1.4404 434.577 0.925992 435.09 0.925992H461.507C462.022 0.925992 462.532 1.44038 462.532 1.95104V8.76667C462.532 9.28117 462.022 9.79172 461.507 9.79172H443.442V17.6325H457.247C457.758 17.6325 458.27 18.143 458.27 18.6536V25.3029C458.27 25.8136 457.758 26.3241 457.247 26.3241H443.442V33.4841H461.507C462.022 33.4841 462.532 33.9947 462.532 34.5053V41.1507C462.532 41.6652 462.022 42.1758 461.507 42.1758L435.09 42.1758ZM283.566 42.1758C283.056 42.1758 282.541 41.6651 282.541 41.1507V26.3241H267.203V41.1507C267.203 41.6651 266.69 42.1758 266.179 42.1758H258.853C258.338 42.1758 257.827 41.6651 257.827 41.1507V1.95104C257.827 1.4404 258.338 0.925992 258.853 0.925992H266.179C266.69 0.925992 267.203 1.44038 267.203 1.95104V17.4623H282.541V1.95104C282.541 1.4404 283.056 0.925992 283.566 0.925992H290.896C291.577 0.925992 292.088 1.44038 291.917 1.95104V41.1507C291.917 41.6651 291.403 42.1758 290.896 42.1758H283.566ZM166.134 42.1758C165.624 42.1758 165.114 41.6651 165.114 41.1507V1.95104C165.114 1.4404 165.624 0.925992 166.134 0.925992H173.464C174.146 0.925992 174.656 1.44038 174.485 1.95104V41.1507C174.485 41.6651 173.974 42.1758 173.464 42.1758H166.134ZM41.1994 42.1758C40.689 42.1758 40.174 41.6652 40.174 41.1507V1.95104C40.174 1.4404 40.689 0.925992 41.1994 0.925992H67.6186C68.129 0.925992 68.6395 1.44038 68.6395 1.95104V8.76667C68.6395 9.28117 68.129 9.79172 67.6186 9.79172H49.5499V17.6325H63.3563C63.8667 17.6325 64.3772 18.143 64.3772 18.6536V25.3029C64.3772 25.8136 63.8667 26.3241 63.3563 26.3241H49.5499V33.4841H67.6186C68.129 33.4841 68.6395 33.9947 68.6395 34.5053V41.1507C68.6395 41.6652 68.129 42.1758 67.6186 42.1758L41.1994 42.1758ZM1.48386 42.1758C0.973402 42.1758 0.462947 41.6652 0.462947 41.1507V1.95104C0.462947 1.4404 0.973402 0.925992 1.48386 0.925992H8.98458C9.49503 0.925992 10.01 1.44038 10.01 1.95104V33.4841H23.8148C24.3253 33.4841 24.8358 33.8245 24.8358 34.5053V41.1507C24.8358 41.6652 24.3253 42.1758 23.8148 42.1758L1.48386 42.1758Z" fill="white"/>
</g>
</svg>
