<svg width="302" height="146" viewBox="0 0 302 146" fill="none" xmlns="http://www.w3.org/2000/svg">
<g clip-path="url(#clip0_1441_1635)">
<path fill-rule="evenodd" clip-rule="evenodd" d="M160.076 64.9762C158.289 68.0302 155.157 71.3906 151.449 73.357C147.512 83.1264 137.67 78.7326 132.286 78.502C131.98 78.4885 131.682 78.4858 131.389 78.4858L116.847 79.6439C116.858 79.5164 116.871 79.3889 116.882 79.2615C116.611 79.3266 116.348 79.3998 116.093 79.4757L70.512 79.8717L70.6964 71.2984L74.1162 71.3689L74.2573 64.865C74.2817 63.8724 73.3298 63.0397 72.1582 63.0126L52.3631 62.603C51.1861 62.5786 50.2098 63.376 50.1854 64.3687L50.0444 70.8726L53.4696 70.9404L52.9842 93.2619L49.5643 93.1914L49.426 99.6871C49.4043 100.683 50.3481 101.515 51.5251 101.54L71.3201 101.949C72.4917 101.974 73.4762 101.182 73.4979 100.186L73.6389 93.6904L70.2164 93.6145L70.4089 84.7076L108.054 86.6251C104.789 102.703 116.681 131.143 107.187 145.496C107.184 114.436 0.078125 151.301 0.078125 89.3156C7.8345 90.2405 13.9718 89.3156 18.311 85.7491C15.3766 84.0539 14.2945 79.7388 14.2945 76.9642C29.7151 76.9642 43.5355 33.9159 79.1986 20.1433C84.6362 14.6782 91.5681 8.89848 94.6489 8.42656C96.4741 8.1472 96.9189 10.6207 96.9813 12.3538C96.9975 12.3538 97.0165 12.3538 97.0328 12.3484C105.676 6.21339 118.366 0.984242 122.211 0.759128C126.046 0.531302 116.407 8.57302 113.693 14.9711C115.412 16.1482 122.208 26.7666 125.631 29.8341C129.051 32.8989 129.897 40.0862 132.52 43.6474C135.215 47.3089 154.864 57.8621 157.57 59.1748C160.277 60.4875 161.348 62.8065 160.076 64.9762ZM40.0696 112.017V112.736H37.2382C35.3859 112.736 33.8726 114.474 33.8726 116.601V120.219C33.8726 120.219 48.8863 123.666 88.8344 124.501C93.3092 127.856 89.0107 116.601 89.0107 116.601C89.0107 114.474 87.4973 112.736 85.6369 112.736H83.5324V112.017C83.5324 108.876 81.1811 106.308 78.3063 106.308H45.2875C42.4209 106.308 40.0668 108.876 40.0668 112.017H40.0696Z" fill="white"/>
</g>
<path d="M206.411 11.0598C208.646 11.0977 210.2 11.1356 211.185 11.1735C214.558 11.2493 215.581 12.3103 215.657 13.2956C215.657 13.4093 215.695 13.5988 215.695 13.7125C215.733 14.2809 215.809 14.4704 216.112 14.4704C216.339 14.4704 216.415 14.243 216.453 13.8641C216.453 12.8788 216.567 10.264 216.567 9.46818C216.567 8.89975 216.529 8.67237 216.263 8.67237C216.112 8.67237 215.809 8.74816 215.24 8.86185C214.672 8.93764 213.838 9.05133 212.625 9.05133H197.619C196.368 9.05133 194.928 8.97554 193.829 8.86185C192.882 8.78606 192.503 8.4071 192.2 8.4071C191.972 8.4071 191.859 8.63448 191.745 9.12712C191.669 9.43028 190.949 12.8788 190.949 13.4851C190.949 13.902 191.025 14.0914 191.29 14.0914C191.518 14.0914 191.631 13.9399 191.707 13.6367C191.783 13.3335 191.972 12.8788 192.351 12.3103C192.92 11.4766 193.829 11.2872 196.027 11.2114C197.884 11.1735 200.234 11.0977 201.674 11.0598V26.597C201.674 30.0834 201.674 33.0771 201.484 34.6687C201.37 35.7677 201.143 36.6014 200.385 36.753C200.044 36.8288 199.589 36.9046 199.021 36.9046C198.566 36.9046 198.415 37.0183 198.415 37.2077C198.415 37.473 198.68 37.5867 199.173 37.5867C200.688 37.5867 203.076 37.473 203.947 37.473C205.008 37.473 207.396 37.5867 209.897 37.5867C210.314 37.5867 210.617 37.473 210.617 37.2077C210.617 37.0183 210.428 36.9046 210.011 36.9046C209.442 36.9046 208.609 36.8288 208.078 36.753C206.941 36.6014 206.714 35.7677 206.6 34.7066C206.411 33.0771 206.411 30.0834 206.411 26.597V11.0598Z" fill="white"/>
<path d="M237.881 38.1172C247.507 38.1172 253.57 31.2581 253.57 22.58C253.57 13.902 247.696 8.4071 238.26 8.4071C226.891 8.4071 222.609 16.782 222.609 23.2622C222.609 29.9697 227.005 38.1172 237.881 38.1172ZM239.473 36.2224C232.197 36.2224 227.839 29.9697 227.839 22.0874C227.839 12.6514 232.803 10.2261 237.161 10.2261C243.376 10.2261 248.264 15.4936 248.264 23.9822C248.264 34.934 242.125 36.2224 239.473 36.2224Z" fill="white"/>
<path d="M265.094 26.597C265.094 30.0834 265.094 33.0771 264.905 34.6687C264.753 35.7677 264.564 36.6014 263.806 36.753C263.465 36.8288 263.01 36.9046 262.442 36.9046C261.987 36.9046 261.835 37.0183 261.835 37.2077C261.835 37.473 262.101 37.5867 262.593 37.5867C264.109 37.5867 266.496 37.473 267.368 37.473C268.353 37.473 270.741 37.5867 273.242 37.5867C273.659 37.5867 273.962 37.473 273.962 37.2077C273.962 37.0183 273.772 36.9046 273.355 36.9046C272.787 36.9046 271.953 36.8288 271.423 36.753C270.286 36.6014 270.059 35.7677 269.945 34.7066C269.755 33.0771 269.755 30.0834 269.755 26.597V11.4387C269.755 11.0219 269.869 10.7945 270.059 10.7187C270.4 10.605 270.968 10.5672 271.536 10.5672C272.408 10.5672 274.075 10.7945 275.44 12.0451C277.562 13.9399 277.562 16.441 277.562 17.6915C277.562 21.5569 274.606 23.9822 272.484 23.9822C271.688 23.9822 271.423 24.0959 271.423 24.399C271.423 24.6643 271.688 24.7022 271.878 24.7401C272.067 24.778 272.484 24.778 272.673 24.778C278.055 24.778 281.996 20.8368 281.996 16.1757C281.996 13.5609 281.01 12.0451 280.177 11.2114C279.305 10.3777 277.789 8.93764 273.052 8.93764C271.309 8.93764 269.111 9.05133 267.557 9.05133C266.496 9.05133 264.109 8.93764 262.1 8.93764C261.532 8.93764 261.267 9.01343 261.267 9.2787C261.267 9.54397 261.494 9.61976 261.911 9.61976C262.442 9.61976 263.086 9.65766 263.389 9.73345C264.64 9.99872 264.943 10.605 265.018 11.8935C265.094 13.1062 265.094 14.1672 265.094 19.9274V26.597Z" fill="white"/>
<path d="M196.823 72.2852C196.823 75.7716 196.823 78.7653 196.634 80.3569C196.482 81.4559 196.292 82.2896 195.535 82.4412C195.194 82.517 194.739 82.5928 194.17 82.5928C193.716 82.5928 193.564 82.7065 193.564 82.8959C193.564 83.1612 193.829 83.2749 194.322 83.2749C195.08 83.2749 196.065 83.1991 196.937 83.1991C197.846 83.1612 198.68 83.1612 199.097 83.1612C200.044 83.1612 201.37 83.2749 202.811 83.3886C204.251 83.5023 205.804 83.616 207.169 83.616C214.179 83.616 218.12 80.9254 219.864 79.1443C221.986 76.9842 223.994 73.3463 223.994 68.5714C223.994 64.0618 222.213 60.9165 220.318 58.9459C216.188 54.6258 209.859 54.6258 205.122 54.6258C202.848 54.6258 200.461 54.7395 199.286 54.7395C198.225 54.7395 195.838 54.6258 193.829 54.6258C193.261 54.6258 192.996 54.7016 192.996 54.9669C192.996 55.2322 193.223 55.308 193.64 55.308C194.17 55.308 194.815 55.3459 195.118 55.4217C196.368 55.6869 196.671 56.2933 196.747 57.5817C196.823 58.7944 196.823 59.8554 196.823 65.6156V72.2852ZM201.56 65.0092C201.56 62.0155 201.56 58.7186 201.598 57.4301C201.598 57.0133 201.712 56.8238 202.053 56.6722C202.356 56.5206 203.758 56.4069 204.516 56.4069C207.472 56.4069 211.792 56.8617 215.278 60.1965C216.908 61.7502 218.916 64.8576 218.916 69.6704C218.916 73.5736 218.158 77.0221 215.733 79.1064C213.459 81.077 210.882 81.8349 207.017 81.8349C204.023 81.8349 202.545 81.0391 202.053 80.319C201.749 79.9022 201.674 78.3864 201.636 77.439C201.598 76.719 201.56 73.801 201.56 69.7841V65.0092Z" fill="white"/>
<path d="M247.577 83.8054C257.202 83.8054 263.266 76.9463 263.266 68.2682C263.266 59.5902 257.392 54.0953 247.956 54.0953C236.587 54.0953 232.305 62.4702 232.305 68.9504C232.305 75.6579 236.701 83.8054 247.577 83.8054ZM249.169 81.9107C241.893 81.9107 237.535 75.6579 237.535 67.7756C237.535 58.3396 242.499 55.9143 246.857 55.9143C253.072 55.9143 257.96 61.1818 257.96 69.6704C257.96 80.6222 251.821 81.9107 249.169 81.9107Z" fill="white"/>
<path d="M298.718 76.5674C298.718 74.6726 298.718 73.1568 298.756 72.0199C298.794 70.6936 299.173 70.0493 300.196 69.8599C300.651 69.7841 300.916 69.7462 301.219 69.7462C301.484 69.7462 301.712 69.6704 301.712 69.443C301.712 69.1399 301.446 69.0641 300.954 69.0641C299.703 69.0641 297.695 69.1777 296.52 69.1777C295.383 69.1777 292.996 69.0641 291.025 69.0641C290.495 69.0641 290.229 69.1399 290.229 69.443C290.229 69.6704 290.457 69.7462 290.798 69.7462C291.328 69.7462 291.973 69.7841 292.276 69.8599C293.526 70.1251 293.867 70.7315 293.905 72.0199C293.943 73.1568 293.943 74.5968 293.943 76.4916V80.0538C293.943 80.698 293.792 81.1906 293.223 81.4559C292.314 81.8728 290.987 81.8728 290.002 81.8728C282.006 81.8728 276.814 75.7716 276.814 67.624C276.814 62.9629 278.179 60.1207 280.301 58.3396C282.953 56.1417 285.72 55.9901 287.804 55.9901C292.086 55.9901 295.118 57.7333 296.255 58.9459C297.24 60.007 297.43 61.2197 297.543 62.0913C297.581 62.3944 297.657 62.5839 297.922 62.5839C298.225 62.5839 298.339 62.3944 298.339 61.7881C298.339 57.0512 298.604 55.9901 298.604 55.5732C298.604 55.308 298.528 55.1564 298.074 55.1185C297.202 55.0806 295.876 54.8532 295.08 54.7016C294.322 54.5501 290.987 54.0953 288.372 54.0953C285.189 54.0953 281.817 54.3606 278.179 56.5585C274.73 58.6428 271.585 62.8871 271.585 68.9504C271.585 79.4095 279.808 83.8054 289.092 83.8054C292.048 83.8054 295.762 83.3886 298.225 82.1001C298.68 81.8349 298.718 81.7591 298.718 80.7359V76.5674Z" fill="white"/>
<path d="M201.56 111.304C201.56 105.544 201.56 104.483 201.636 103.27C201.712 101.944 202.015 101.299 203.038 101.11C203.493 101.034 204.099 100.996 204.516 100.996C204.971 100.996 205.198 100.92 205.198 100.655C205.198 100.39 204.933 100.314 204.402 100.314C202.924 100.314 200.158 100.428 199.248 100.428C198.225 100.428 195.838 100.314 194.057 100.314C193.488 100.314 193.223 100.39 193.223 100.655C193.223 100.92 193.45 100.996 193.867 100.996C194.36 100.996 194.815 101.034 195.118 101.11C196.368 101.375 196.671 101.981 196.747 103.27C196.823 104.483 196.823 105.544 196.823 111.304V117.973C196.823 121.46 196.823 124.454 196.634 126.045C196.482 127.144 196.292 127.978 195.535 128.129C195.194 128.205 194.739 128.281 194.17 128.281C193.716 128.281 193.564 128.395 193.564 128.584C193.564 128.849 193.829 128.963 194.322 128.963C196.027 128.963 197.581 128.849 199.097 128.849C203.152 128.849 206.638 129.077 210.124 129.077C212.095 129.077 212.284 128.887 212.512 128.054C212.815 126.955 213.08 124.112 213.08 123.696C213.08 123.241 213.042 123.051 212.777 123.051C212.474 123.051 212.398 123.279 212.36 123.62C212.284 124.34 211.83 125.401 211.375 125.894C210.428 126.917 208.95 126.955 206.941 126.955C203.985 126.955 203 126.689 202.356 126.121C201.56 125.439 201.56 122.824 201.56 117.973V111.304Z" fill="white"/>
<path d="M236.447 119.072C236.637 119.072 236.75 119.148 236.826 119.338L239.858 127.371C240.047 127.826 239.782 128.167 239.517 128.243C239.138 128.281 238.986 128.395 238.986 128.584C238.986 128.812 239.176 128.849 239.858 128.887C242.89 128.963 245.921 128.963 247.285 128.963C248.688 128.963 249.029 128.887 249.029 128.584C249.029 128.357 248.839 128.281 248.536 128.281C248.081 128.281 247.513 128.243 246.944 128.129C246.149 127.94 245.05 127.409 243.61 123.999C241.184 118.239 235.121 102.777 234.211 100.693C233.832 99.8214 233.567 99.4803 233.264 99.4803C232.923 99.4803 232.658 99.8972 232.203 100.996L222.691 124.795C221.933 126.689 221.213 127.978 219.47 128.205C219.167 128.243 218.712 128.281 218.371 128.281C218.068 128.281 217.841 128.357 217.841 128.584C217.841 128.887 218.068 128.963 218.561 128.963C220.531 128.963 222.615 128.849 223.032 128.849C224.207 128.849 225.837 128.963 227.049 128.963C227.466 128.963 227.693 128.887 227.693 128.584C227.693 128.357 227.58 128.281 227.125 128.281C226.973 128.281 226.746 128.281 226.557 128.281C225.382 128.281 225.041 127.788 225.041 127.106C225.041 126.651 225.23 125.742 225.609 124.795L227.656 119.376C227.731 119.148 227.807 119.072 227.997 119.072H236.447ZM228.754 117.178C228.603 117.178 228.565 117.064 228.603 116.912L232.089 107.59C232.241 107.135 232.392 107.249 232.506 107.59L235.917 116.95C235.955 117.064 235.917 117.178 235.727 117.178H228.754Z" fill="white"/>
<path d="M259.504 128.091C259.845 129.077 259.997 129.494 260.376 129.494C260.831 129.494 261.02 129.039 261.74 127.485C263.37 123.999 268.41 110.584 269.168 108.537L277.088 127.637C277.656 129.039 277.884 129.494 278.263 129.494C278.755 129.494 278.945 129.039 279.362 127.713C281.219 122.028 285.198 109.977 286.941 105.203C287.737 103.043 288.153 101.527 289.063 101.186C289.48 101.034 290.01 100.996 290.389 100.996C290.73 100.996 290.92 100.882 290.92 100.617C290.92 100.39 290.655 100.314 290.238 100.314C288.987 100.314 287.358 100.428 287.092 100.428C286.751 100.428 285.16 100.314 283.151 100.314C282.583 100.314 282.28 100.39 282.28 100.655C282.28 100.882 282.545 100.996 282.924 100.996C284.402 100.996 284.743 101.527 284.743 102.133C284.743 102.664 284.629 103.459 284.364 104.331C283.037 108.765 280.006 118.769 279.286 121.46L271.328 102.247C270.835 101.034 270.646 100.466 270.229 100.466C269.926 100.466 269.66 100.769 269.281 101.83L261.854 121.725C261.134 119.451 257.61 107.969 256.965 105.468C256.511 103.763 256.132 102.474 256.132 101.981C256.132 101.565 256.207 101.299 256.549 101.148C256.814 100.996 257.193 100.996 257.496 100.996C257.875 100.996 258.178 100.958 258.178 100.655C258.178 100.428 257.913 100.314 257.382 100.314C255.184 100.314 253.517 100.428 253.176 100.428C252.835 100.428 250.75 100.314 248.78 100.314C248.249 100.314 247.946 100.39 247.946 100.655C247.946 100.958 248.174 100.996 248.553 100.996C248.894 100.996 249.652 101.072 250.068 101.337C250.599 101.716 251.016 102.626 251.47 104.028L259.504 128.091Z" fill="white"/>
<defs>
<clipPath id="clip0_1441_1635">
<rect width="160.53" height="144.74" fill="white" transform="translate(0.078125 0.753296)"/>
</clipPath>
</defs>
</svg>
