<svg width="133" height="154" viewBox="0 0 133 154" fill="none" xmlns="http://www.w3.org/2000/svg">
<path fill-rule="evenodd" clip-rule="evenodd" d="M106.758 130.984C106.758 131.159 106.918 131.317 107.095 131.317H108.211C108.406 131.317 108.547 131.159 108.547 130.984V122.437H108.565L116.253 131.493H116.713C116.89 131.493 117.05 131.352 117.05 131.177V119.366C117.05 119.191 116.89 119.033 116.713 119.033H115.58C115.385 119.033 115.243 119.191 115.243 119.366V127.667H115.225L107.538 118.857H107.095C106.918 118.857 106.758 118.998 106.758 119.173V130.984ZM99.7111 130.984C99.7111 131.159 99.8705 131.317 100.048 131.317H101.217C101.394 131.317 101.553 131.159 101.553 130.984V119.366C101.553 119.191 101.394 119.033 101.217 119.033H100.048C99.8705 119.033 99.7111 119.191 99.7111 119.366V130.984ZM15.2497 153.429C11.707 153.429 8.89062 150.638 8.89062 147.129C8.89062 143.619 11.707 140.793 15.2497 140.793C18.7924 140.793 21.6265 143.619 21.6265 147.129C21.6265 150.638 18.7924 153.429 15.2497 153.429ZM15.2497 143.601C13.319 143.601 11.7248 145.198 11.7248 147.129C11.7248 149.041 13.319 150.621 15.2497 150.621C17.1982 150.621 18.7924 149.041 18.7924 147.129C18.7924 145.198 17.1982 143.601 15.2497 143.601ZM29.3708 153.236C29.424 153.341 29.5303 153.429 29.672 153.429H29.8491C29.9908 153.429 30.0971 153.341 30.1502 153.236L35.7122 141.425C35.8185 141.197 35.6768 140.969 35.4111 140.969H33.0552C32.9135 140.969 32.7895 141.074 32.7541 141.162L29.8314 147.567H29.7251L26.8024 141.162C26.767 141.074 26.643 140.969 26.5013 140.969H24.1454C23.8797 140.969 23.738 141.197 23.8443 141.425L29.3708 153.236ZM39.2745 153.253C39.0797 153.253 38.938 153.095 38.938 152.92V141.302C38.938 141.127 39.0797 140.969 39.2745 140.969H46.6079C46.8027 140.969 46.9444 141.127 46.9444 141.302V143.215C46.9444 143.391 46.8027 143.549 46.6079 143.549H41.7013V145.725H45.7399C45.917 145.725 46.0765 145.883 46.0765 146.058V147.971C46.0765 148.164 45.917 148.304 45.7399 148.304H41.7013V150.674H46.6079C46.8027 150.674 46.9444 150.831 46.9444 151.007V152.92C46.9444 153.095 46.8027 153.253 46.6079 153.253H39.2745ZM51.0882 152.92C51.0882 153.095 51.2299 153.253 51.4248 153.253H53.5327C53.7098 153.253 53.8692 153.095 53.8692 152.92V148.445H55.0914L57.4473 153.095C57.4827 153.165 57.589 153.253 57.7307 153.253H60.0866C60.3877 153.253 60.5117 152.972 60.3877 152.744L57.961 148.287C59.5021 147.673 60.5826 146.374 60.5826 144.76C60.5826 142.671 58.8467 140.969 56.7211 140.969H51.4248C51.2299 140.969 51.0882 141.127 51.0882 141.302V152.92ZM53.8692 146.216V143.478H56.4908C57.217 143.478 57.837 144.075 57.837 144.812C57.837 145.549 57.217 146.216 56.4908 146.216H53.8692ZM65.045 153.253C64.8678 153.253 64.7261 153.095 64.7261 152.92V141.302C64.7261 141.127 64.8678 140.969 65.045 140.969H69.367C72.7857 140.969 75.5844 143.724 75.5844 147.094C75.5844 150.498 72.7857 153.253 69.367 153.253H65.045ZM67.4894 143.549V150.656H69.1899C71.1915 150.656 72.644 149.094 72.644 147.094C72.644 145.111 71.1915 143.549 69.1899 143.549H67.4894ZM79.523 152.92C79.523 153.095 79.6647 153.253 79.8595 153.253H81.9674C82.1446 153.253 82.304 153.095 82.304 152.92V148.445H83.5262L85.8821 153.095C85.9175 153.165 86.0238 153.253 86.1655 153.253H88.5214C88.8225 153.253 88.9465 152.972 88.8225 152.744L86.3958 148.287C87.9368 147.673 89.0173 146.374 89.0173 144.76C89.0173 142.671 87.2814 140.969 85.1558 140.969H79.8595C79.6647 140.969 79.523 141.127 79.523 141.302V152.92ZM82.304 146.216V143.478H84.9255C85.6518 143.478 86.2718 144.075 86.2718 144.812C86.2718 145.549 85.6518 146.216 84.9255 146.216H82.304ZM93.4974 153.253C93.3203 153.253 93.1609 153.095 93.1609 152.92V141.302C93.1609 141.127 93.3203 140.969 93.4974 140.969H95.623C95.8001 140.969 95.9596 141.127 95.9596 141.302V152.92C95.9596 153.095 95.8001 153.253 95.623 153.253H93.4974ZM104.711 153.236C104.764 153.341 104.871 153.429 105.012 153.429H105.19C105.331 153.429 105.438 153.341 105.491 153.236L111.053 141.425C111.159 141.197 111.017 140.969 110.752 140.969H108.396C108.254 140.969 108.13 141.074 108.095 141.162L105.172 147.567H105.066L102.143 141.162C102.107 141.074 101.983 140.969 101.842 140.969H99.4859C99.2202 140.969 99.0785 141.197 99.1848 141.425L104.711 153.236ZM114.615 153.253C114.42 153.253 114.278 153.095 114.278 152.92V141.302C114.278 141.127 114.42 140.969 114.615 140.969H121.948C122.143 140.969 122.285 141.127 122.285 141.302V143.215C122.285 143.391 122.143 143.549 121.948 143.549H117.042V145.725H121.08C121.258 145.725 121.417 145.883 121.417 146.058V147.971C121.417 148.164 121.258 148.304 121.08 148.304H117.042V150.674H121.948C122.143 150.674 122.285 150.831 122.285 151.007V152.92C122.285 153.095 122.143 153.253 121.948 153.253H114.615ZM16.7283 131.379C16.5864 131.379 16.4446 131.275 16.4091 131.135L13.0576 119.449C12.9866 119.205 13.1285 119.031 13.3768 119.031H15.4515C15.5934 119.031 15.7353 119.153 15.7707 119.275L17.2958 125.17H17.3667L20.1153 119.049C20.1685 118.944 20.2749 118.857 20.4168 118.857H20.736C20.8956 118.857 21.002 118.944 21.0374 119.049L23.7861 125.17H23.857L25.382 119.275C25.4175 119.153 25.5594 119.031 25.7012 119.031H27.776C28.0243 119.031 28.1661 119.205 28.0952 119.449L24.7436 131.135C24.7082 131.275 24.5663 131.379 24.4244 131.379H24.1407C24.0166 131.379 23.8925 131.292 23.8393 131.188L20.5941 124.075H20.5409L17.3135 131.188C17.2603 131.292 17.1362 131.379 17.012 131.379H16.7283ZM32.1127 131.205C31.9176 131.205 31.7758 131.048 31.7758 130.875V119.362C31.7758 119.188 31.9176 119.031 32.1127 119.031H39.4542C39.6492 119.031 39.7911 119.188 39.7911 119.362V121.257C39.7911 121.431 39.6492 121.588 39.4542 121.588H34.5421V123.744H38.5853C38.7626 123.744 38.9222 123.901 38.9222 124.075V125.97C38.9222 126.162 38.7626 126.301 38.5853 126.301H34.5421V128.648H39.4542C39.6492 128.648 39.7911 128.805 39.7911 128.979V130.875C39.7911 131.048 39.6492 131.205 39.4542 131.205H32.1127ZM42.645 131.205H44.5956C44.9503 131.205 45.1454 130.996 45.234 130.788L45.8724 129.396H50.6958L51.3342 130.77C51.4938 131.101 51.6357 131.205 51.9549 131.205H53.9232C54.1892 131.205 54.3311 130.979 54.2247 130.753L48.6742 119.049C48.621 118.944 48.4969 118.857 48.3728 118.857H48.1955C48.0713 118.857 47.9472 118.944 47.894 119.049L42.3435 130.753C42.2372 130.979 42.379 131.205 42.645 131.205ZM46.9364 127.031L48.2664 124.162H48.2841L49.6318 127.031H46.9364ZM69.5761 131.205C69.3988 131.205 69.2392 131.048 69.2392 130.875V121.588H66.7033C66.5083 121.588 66.3664 121.431 66.3664 121.257V119.362C66.3664 119.188 66.5083 119.031 66.7033 119.031H74.5768C74.7719 119.031 74.9137 119.188 74.9137 119.362V121.257C74.9137 121.431 74.7719 121.588 74.5768 121.588H72.041V130.875C72.041 131.048 71.8814 131.205 71.7041 131.205H69.5761ZM57.3766 130.875C57.3766 131.048 57.5185 131.205 57.7135 131.205H64.3811C64.5762 131.205 64.7181 131.048 64.7181 130.875V128.979C64.7181 128.805 64.5762 128.648 64.3811 128.648H60.1607V119.362C60.1607 119.188 60.0011 119.031 59.8237 119.031H57.7135C57.5185 119.031 57.3766 119.188 57.3766 119.362V130.875ZM78.7935 131.205C78.6162 131.205 78.4566 131.048 78.4566 130.875V119.362C78.4566 119.188 78.6162 119.031 78.7935 119.031H80.9038C81.0988 119.031 81.2407 119.188 81.2407 119.362V123.744H86.3124V119.362C86.3124 119.188 86.4542 119.031 86.6493 119.031H88.7595C88.9368 119.031 89.0964 119.188 89.0964 119.362V130.875C89.0964 131.048 88.9368 131.205 88.7595 131.205H86.6493C86.4542 131.205 86.3124 131.048 86.3124 130.875V126.301H81.2407V130.875C81.2407 131.048 81.0988 131.205 80.9038 131.205H78.7935Z" fill="#FEFEFE"/>
<g clip-path="url(#clip0_2594_561)">
<path d="M24.967 75.5872L35.3414 65.2124C33.8939 61.4982 33.0887 57.4627 33.0887 53.2365C33.0887 35.0003 47.9266 20.1619 66.1621 20.1619C84.3975 20.1619 99.2354 35.0003 99.2354 53.2365C99.2354 57.4348 98.4395 61.4516 97.006 65.1519L107.217 75.3638C110.959 68.5078 112.924 60.814 112.924 52.9293C112.924 43.1968 109.968 33.86 104.378 25.9288C101.716 22.1587 98.5651 18.84 94.9674 16.0194C94.9488 16.0055 94.9302 15.9915 94.9115 15.9775C94.381 15.5633 93.841 15.163 93.2918 14.772C93.0964 14.6324 92.9009 14.4974 92.7008 14.3624C92.4262 14.1716 92.1469 13.9901 91.8676 13.8039C84.458 8.93534 75.6009 6.10077 66.0922 6.10077C48.015 6.10077 32.2929 16.3452 24.4085 31.3279C24.3247 31.4862 24.241 31.6398 24.1618 31.798C24.092 31.933 24.0269 32.0634 23.9617 32.1983C20.7968 38.6029 19.1445 45.6497 19.1445 52.9293C19.1445 60.9024 21.1505 68.6753 24.967 75.5826V75.5872Z" fill="white"/>
<path d="M24.967 75.5872L35.3414 65.2124C33.8939 61.4982 33.0887 57.4627 33.0887 53.2365C33.0887 35.0003 47.9266 20.1619 66.1621 20.1619C84.3975 20.1619 99.2354 35.0003 99.2354 53.2365C99.2354 57.4348 98.4395 61.4516 97.006 65.1519L107.217 75.3638C110.959 68.5078 112.924 60.814 112.924 52.9293C112.924 43.1968 109.968 33.86 104.378 25.9288C101.716 22.1587 98.5651 18.84 94.9674 16.0194C94.9488 16.0055 94.9302 15.9915 94.9115 15.9775C94.381 15.5633 93.841 15.163 93.2918 14.772C93.0964 14.6324 92.9009 14.4974 92.7008 14.3624C92.4262 14.1716 92.1469 13.9901 91.8676 13.8039C84.458 8.93534 75.6009 6.10077 66.0922 6.10077C48.015 6.10077 32.2929 16.3452 24.4085 31.3279C24.3247 31.4862 24.241 31.6398 24.1618 31.798C24.092 31.933 24.0269 32.0634 23.9617 32.1983C20.7968 38.6029 19.1445 45.6497 19.1445 52.9293C19.1445 60.9024 21.1505 68.6753 24.967 75.5826V75.5872Z" fill="#FEFEFE"/>
<path d="M66.1607 86.3158C60.8408 86.3158 55.8142 85.0451 51.3554 82.8017L41.1113 93.0461C48.3534 97.6029 56.9219 100.242 66.0908 100.242C75.2598 100.242 83.9353 97.5703 91.2053 92.9624L81.0171 82.7737C76.5443 85.0312 71.4991 86.3158 66.156 86.3158H66.1607Z" fill="white"/>
<path d="M66.1607 86.3158C60.8408 86.3158 55.8142 85.0451 51.3554 82.8017L41.1113 93.0461C48.3534 97.6029 56.9219 100.242 66.0908 100.242C75.2598 100.242 83.9353 97.5703 91.2053 92.9624L81.0171 82.7737C76.5443 85.0312 71.4991 86.3158 66.156 86.3158H66.1607Z" fill="#FEFEFE"/>
<path d="M23.9609 32.2077C24.0261 32.0727 24.0913 31.9377 24.1611 31.8074C24.0959 31.9424 24.0261 32.0727 23.9609 32.2077Z" fill="#EEEEEE"/>
<path d="M94.9062 15.9822C94.9062 15.9822 94.9435 16.0102 94.9621 16.0241C94.9435 16.0102 94.9249 15.9962 94.9062 15.9822Z" fill="#EEEEEE"/>
<path d="M92.6953 14.3671C92.8908 14.5021 93.0909 14.6371 93.2864 14.7767C93.0909 14.6371 92.8954 14.5021 92.6953 14.3671Z" fill="#EEEEEE"/>
<path d="M118.098 12.3657C114.701 8.01377 110.777 4.10403 106.411 0.720232L96.0836 11.0485C100.77 14.4137 104.829 18.5049 108.175 23.2478C114.324 31.9656 117.572 42.2287 117.572 52.9293C117.572 62.6804 114.836 72.1709 109.665 80.3767L108.11 82.8435L106.626 81.3588L105.806 80.5396L104.955 79.6878L94.8781 69.6109L94.0357 68.7685L93.1746 67.9074L76.4053 51.1374L76.4146 51.128L66.1984 40.9115L56.0009 51.1094L54.3347 52.799L39.1757 67.9586L38.3147 68.8197L37.4722 69.6621L27.3166 79.8181L26.4649 80.6699L25.6457 81.4891L24.0912 83.0437L22.532 80.6001C17.268 72.3431 14.4847 62.7782 14.4847 52.934C14.4847 42.1403 17.7846 31.8027 24.0307 23.043C27.405 18.3141 31.4822 14.2414 36.1737 10.9042L25.8505 0.571289C21.4662 3.94112 17.5286 7.8369 14.1171 12.1795C4.90158 23.8948 0.0332031 37.9885 0.0332031 52.934C0.0332031 66.9858 4.38961 80.4 12.6323 91.7289C15.8717 96.1832 19.6463 100.205 23.8678 103.714L35.5826 91.9989L36.3971 91.1843L37.2442 90.3372L47.2369 80.3441L48.0607 79.5203L48.9031 78.6778L66.2031 61.3772L83.4705 78.6452L84.3129 79.4877L85.1367 80.3115L95.0689 90.2441L95.9114 91.0866L96.7212 91.8965L108.38 103.556C112.588 100.032 116.344 95.997 119.569 91.5334C127.719 80.2464 132.029 66.8974 132.029 52.9293C132.029 38.0769 127.211 24.0484 118.094 12.361L118.098 12.3657Z" fill="#FEFEFE"/>
<path d="M22.0907 30.7462C22.0907 30.7462 22.081 30.7607 22.0762 30.7704C22.0762 30.7607 22.0859 30.7559 22.0907 30.7462Z" fill="#EEEEEE"/>
<path d="M24.1602 31.8027C24.2393 31.6445 24.3277 31.4909 24.4068 31.3326C24.3231 31.4909 24.2393 31.6445 24.1602 31.8027Z" fill="#EEEEEE"/>
<path d="M91.8672 13.8086C92.1464 13.9948 92.4257 14.1763 92.7003 14.3671C92.4257 14.1763 92.1464 13.9901 91.8672 13.8086Z" fill="#EEEEEE"/>
<path d="M93.2871 14.7767C93.8363 15.1677 94.3762 15.568 94.9068 15.9822C94.3762 15.568 93.8363 15.1677 93.2871 14.7767Z" fill="#EEEEEE"/>
</g>
<defs>
<clipPath id="clip0_2594_561">
<rect width="132" height="103.143" fill="white" transform="translate(0.0332031 0.571289)"/>
</clipPath>
</defs>
</svg>
