<svg width="405" height="78" viewBox="0 0 405 78" fill="none" xmlns="http://www.w3.org/2000/svg">
<path d="M102.144 29.8289C101.46 28.9986 100.655 28.3816 99.653 27.9398C98.6735 27.498 97.5268 27.2771 96.2587 27.2771C94.9906 27.2771 93.768 27.5209 92.6973 28.0388C91.5963 28.5263 90.6471 29.2423 89.8422 30.1183C89.0372 31.0248 88.3994 32.0759 87.959 33.3023C87.4958 34.5287 87.2755 35.8769 87.2755 37.3166C87.2755 38.7562 87.4958 40.1349 87.959 41.3308C88.4222 42.5572 89.0297 43.6083 89.8118 44.4919C90.5939 45.3984 91.5203 46.0839 92.5986 46.5714C93.6769 47.0589 94.8235 47.3332 96.0385 47.3332C97.4509 47.3332 98.6735 47.0361 99.7745 46.4496C100.845 45.863 101.749 45.0328 102.463 43.974L108.173 48.232C106.852 50.0677 105.196 51.4388 103.169 52.3224C101.141 53.206 99.0683 53.6478 96.9421 53.6478C94.5274 53.6478 92.2797 53.2593 90.2294 52.4976C88.1792 51.7359 86.4175 50.639 84.9064 49.2146C83.418 47.7978 82.2486 46.0535 81.4133 44.0501C80.5856 42.0164 80.168 39.7617 80.168 37.2632C80.168 34.7648 80.5856 32.5101 81.4133 30.4763C82.241 28.4425 83.418 26.7287 84.9064 25.3119C86.3947 23.8951 88.1792 22.7906 90.2294 22.0289C92.2797 21.2671 94.5274 20.8787 96.9421 20.8787C97.823 20.8787 98.7266 20.9548 99.6758 21.1224C100.625 21.2976 101.559 21.5414 102.485 21.8841C103.412 22.2269 104.293 22.7144 105.143 23.3009C106.001 23.8875 106.753 24.5958 107.414 25.4566L102.144 29.8136V29.8289Z" fill="white"/>
<path d="M112.715 21.747H119.549V33.3785H132.853V21.747H139.687V52.9242H132.853V39.457H119.549V52.9242H112.715V21.747Z" fill="white"/>
<path d="M146.891 21.747H158.926C160.513 21.747 162.002 21.8917 163.422 22.2117C164.834 22.5316 166.08 23.0419 167.158 23.7579C168.229 24.4663 169.064 25.449 169.694 26.6753C170.332 27.9017 170.643 29.4175 170.643 31.2304C170.643 33.4318 170.081 35.298 168.935 36.8367C167.788 38.3829 166.125 39.3579 163.931 39.7769L171.843 52.9242H163.642L157.15 40.4624H153.778V52.9242H146.944V21.747H146.898H146.891ZM153.748 34.6277H157.772C158.38 34.6277 159.04 34.6048 159.724 34.5515C160.407 34.4982 161.045 34.3763 161.577 34.163C162.138 33.9421 162.602 33.5994 162.966 33.1347C163.331 32.6701 163.505 32.0074 163.505 31.1542C163.505 30.3697 163.331 29.7374 163.019 29.2652C162.708 28.7929 162.29 28.4349 161.797 28.1911C161.303 27.9474 160.726 27.7722 160.088 27.6732C159.45 27.5742 158.82 27.5513 158.205 27.5513H153.74V34.6277H153.748Z" fill="white"/>
<path d="M176.113 21.747H182.947V52.9242H176.113V21.747Z" fill="white"/>
<path d="M205.438 29.3642C204.876 28.6558 204.116 28.1378 203.167 27.7951C202.218 27.4523 201.314 27.2771 200.456 27.2771C199.97 27.2771 199.454 27.3228 198.915 27.4523C198.376 27.5818 197.89 27.7494 197.426 27.9931C196.963 28.2369 196.568 28.5796 196.28 28.9757C195.984 29.3947 195.839 29.8822 195.839 30.4687C195.839 31.398 196.181 32.1369 196.887 32.6244C197.593 33.1119 198.474 33.5537 199.545 33.8964C200.616 34.2392 201.77 34.6048 202.985 34.9476C204.207 35.2904 205.354 35.8083 206.425 36.4406C207.495 37.0804 208.376 37.9564 209.082 39.038C209.789 40.1121 210.13 41.5822 210.13 43.3951C210.13 45.208 209.811 46.6248 209.151 47.9273C208.513 49.2222 207.64 50.281 206.539 51.1341C205.438 51.9873 204.169 52.6271 202.727 53.0232C201.284 53.4193 199.75 53.6326 198.14 53.6326C196.113 53.6326 194.26 53.3126 192.529 52.7033C190.797 52.0939 189.187 51.0884 187.691 49.7173L192.574 44.3548C193.28 45.2841 194.161 46.023 195.232 46.5333C196.302 47.0513 197.404 47.2951 198.55 47.2951C199.112 47.2951 199.674 47.2189 200.236 47.097C200.798 46.9751 201.307 46.7771 201.777 46.5105C202.241 46.2439 202.605 45.9011 202.879 45.505C203.144 45.0861 203.296 44.5986 203.296 44.0578C203.296 43.1285 202.932 42.3667 202.225 41.8259C201.519 41.2851 200.616 40.8205 199.515 40.432C198.444 40.0435 197.267 39.6703 195.999 39.2818C194.731 38.8933 193.584 38.3753 192.483 37.7355C191.412 37.0957 190.509 36.2425 189.772 35.1914C189.066 34.1402 188.701 32.7386 188.701 31.0019C188.701 29.2652 189.02 27.8636 189.681 26.5916C190.342 25.3195 191.222 24.2683 192.316 23.4304C193.417 22.5697 194.685 21.9375 196.097 21.5185C197.54 21.0996 199.006 20.8787 200.54 20.8787C202.294 20.8787 203.98 21.1224 205.643 21.6404C207.275 22.1279 208.771 22.9886 210.085 24.1388L205.422 29.3566L205.438 29.3642Z" fill="white"/>
<path d="M230.02 21.747H240.301C242.792 21.747 245.161 22.0136 247.378 22.5773C249.626 23.141 251.578 24.0474 253.241 25.2966C254.904 26.5458 256.24 28.1607 257.22 30.1716C258.199 32.1826 258.685 34.582 258.685 37.446C258.685 39.9673 258.222 42.1992 257.273 44.1035C256.324 46.0382 255.048 47.6302 253.438 48.9556C251.828 50.2505 249.968 51.256 247.872 51.9187C245.776 52.6042 243.551 52.9242 241.258 52.9242H230.073V21.747H230.027H230.02ZM236.854 46.579H240.415C242.002 46.579 243.468 46.4038 244.835 46.0915C246.201 45.7792 247.371 45.2308 248.373 44.4767C249.376 43.7226 250.158 42.74 250.72 41.5365C251.281 40.3101 251.578 38.8171 251.578 37.0804C251.578 35.5646 251.281 34.2163 250.72 33.089C250.158 31.9617 249.376 31.0324 248.426 30.2935C247.447 29.5622 246.331 29.0214 245.032 28.6558C243.734 28.2902 242.374 28.115 240.931 28.115H236.907V46.579H236.861H236.854Z" fill="white"/>
<path d="M264.199 21.747H276.235C277.822 21.747 279.31 21.8917 280.73 22.2117C282.15 22.5316 283.388 23.0419 284.466 23.7579C285.545 24.474 286.372 25.449 287.003 26.6753C287.633 27.9017 287.952 29.4175 287.952 31.2304C287.952 33.4318 287.39 35.298 286.243 36.8367C285.097 38.3753 283.434 39.3579 281.239 39.7769L289.152 52.9242H280.928L274.435 40.4624H271.064V52.9242H264.23L264.207 21.747H264.199ZM271.056 34.6277H275.081C275.688 34.6277 276.349 34.6048 277.032 34.5515C277.716 34.4982 278.354 34.3763 278.885 34.163C279.447 33.9421 279.91 33.5994 280.275 33.1347C280.639 32.6701 280.814 32.0074 280.814 31.1542C280.814 30.3697 280.639 29.7374 280.328 29.2652C280.017 28.7929 279.599 28.4349 279.105 28.1911C278.612 27.9474 278.035 27.7722 277.397 27.6732C276.759 27.5742 276.129 27.5513 275.514 27.5513H271.049V34.6277H271.056Z" fill="white"/>
<path d="M293.746 21.747H314.864V28.0921H300.603V33.8964H314.082V40.2415H300.603V46.5867H315.669V52.9318H293.769L293.746 21.7546V21.747Z" fill="white"/>
<path d="M329.632 39.6245L317.961 21.747H326.481L333.072 33.4013L340.058 21.747H348.191L336.52 39.6245V52.9242H329.685V39.6245H329.64H329.632Z" fill="white"/>
<path d="M351.578 21.747H372.696V28.0921H358.435V33.8964H371.914V40.2415H358.435V46.5867H373.501V52.9318H351.601L351.578 21.7546V21.747Z" fill="white"/>
<path d="M379.848 21.747H391.883C393.471 21.747 394.959 21.8917 396.379 22.2117C397.799 22.5316 399.037 23.0419 400.115 23.7579C401.193 24.474 402.021 25.449 402.651 26.6753C403.281 27.9017 403.6 29.4175 403.6 31.2304C403.6 33.4318 403.038 35.298 401.892 36.8367C400.745 38.3753 399.082 39.3579 396.888 39.7769L404.8 52.9242H396.599L390.107 40.4624H386.735V52.9242H379.901V21.747H379.855H379.848ZM386.682 34.6277H390.706C391.314 34.6277 391.975 34.6048 392.658 34.5515C393.341 34.4982 393.979 34.3763 394.511 34.163C395.073 33.9421 395.536 33.5994 395.9 33.1347C396.265 32.6701 396.44 32.0074 396.44 31.1542C396.44 30.3697 396.265 29.7374 395.954 29.2652C395.642 28.7929 395.225 28.4349 394.731 28.1911C394.237 27.9474 393.66 27.7722 393.022 27.6732C392.385 27.5742 391.754 27.5513 391.139 27.5513H386.674V34.6277H386.682Z" fill="white"/>
<path d="M27.9028 69.8953V26.0583H18.4336V78H31.616C37.258 78 41.5788 76.5298 44.5782 73.5667C45.6261 72.5384 46.4842 71.2892 47.1676 69.8724H27.9028V69.8953Z" fill="white"/>
<path d="M38.033 11.0906C39.0809 12.5074 39.6201 14.5412 39.6201 17.1387V52.3301H49.0892V17.1463C49.0892 11.6848 47.6768 7.44961 44.8672 4.48652C42.0576 1.49297 37.9115 0 32.4669 0H18.4492V8.96543H27.9184V8.94258H32.2847C35.0411 8.94258 36.9699 9.67383 38.0254 11.0982" fill="white"/>
<path d="M35.9286 15.7448C35.9286 12.637 33.0962 12.637 33.0962 12.637H16.2309C13.9376 12.637 11.8646 13.0254 9.95861 13.81C8.07541 14.5946 6.44279 15.6458 5.07595 17.0168C3.70911 18.3879 2.6612 20.0028 1.92463 21.869C1.19565 23.7276 0.800781 25.7614 0.800781 27.917V50.6163C0.800781 53.6555 1.28677 56.154 2.24356 58.1116C3.20035 60.0692 4.41531 61.6612 5.90365 62.9104C7.39199 64.1596 9.05498 65.0127 10.9078 65.5307C12.1987 65.8735 13.4972 66.0944 14.7653 66.1934V56.6415C13.277 56.4206 12.1759 55.8112 11.5153 54.7829C10.6876 53.4879 10.2699 51.8655 10.2699 49.9307V29.8518C10.2699 27.62 10.6572 25.7614 11.4394 24.3141C12.1987 22.8973 13.7098 22.1584 16.0031 22.1356H35.921V15.7448H35.9286Z" fill="white"/>
<path d="M63.2742 22.0898C62.492 20.1322 61.4441 18.4412 60.0773 17.0168C58.0042 14.8383 55.4604 13.5129 52.4609 12.9492C52.6052 13.7338 52.7267 14.6402 52.7267 15.6457V23.4609C52.9697 23.6818 53.1899 23.9027 53.4101 24.1922C54.458 25.5633 54.9972 27.1781 54.9972 29.0443V32.2055H64.4663V28.4807C64.4436 26.1574 64.0487 24.0475 63.2666 22.0898" fill="white"/>
<path d="M54.9726 46.7772V50.0374C54.9726 51.3323 54.7751 52.4368 54.4106 53.2975C54.1449 53.9374 53.8259 54.4477 53.4614 54.8895C53.4387 54.9352 53.3855 54.9657 53.3627 55.0114L53.1425 55.2323C53.0438 55.3313 52.9451 55.4075 52.8464 55.476C52.8008 55.5217 52.7476 55.5522 52.7021 55.575C51.7225 56.2377 50.6974 56.3368 50.3557 56.3368H31.5312V66.2315L50.5227 66.1858C52.2085 66.0639 53.7728 65.6678 55.2839 64.9823C57.1139 64.152 58.701 63.0247 60.0678 61.5774C61.4347 60.1606 62.4826 58.5153 63.2647 56.6795C64.0469 54.8438 64.4341 52.909 64.4341 50.8524V46.762H54.965V46.7848L54.9726 46.7772Z" fill="white"/>
</svg>
