<svg width="752" height="38" viewBox="0 0 752 38" fill="none" xmlns="http://www.w3.org/2000/svg">
<path d="M47.9549 34.5366L47.9417 33.3975L47.1796 33.1707C45.1317 32.559 43.7798 32.1512 43.1241 31.9473C43.1198 31.7362 43.1013 31.5257 43.0687 31.3171C42.9052 29.1681 42.805 27.4013 42.7417 26.0064C42.5184 19.6956 42.3831 16.1912 42.3356 15.4933L41.9059 7.84642V7.4983C41.9059 7.4983 41.9718 7.36909 42.2935 7.21351C43.4236 6.71913 44.6189 6.38967 45.8427 6.23523L46.7023 6.12451L46.7708 5.25961C46.7926 5.02912 46.8014 4.79759 46.7972 4.56611L46.8262 2.27737L45.9298 2.12971C45.6751 2.08861 45.4178 2.06651 45.1598 2.06372C45.0148 2.06372 44.3686 2.1033 43.2638 2.2035C42.0666 2.30897 40.6744 2.3617 39.1028 2.3617C37.8661 2.39862 36.7957 2.43822 35.9387 2.49359C35.6196 2.51205 35.3797 2.512 35.348 2.51991C34.7947 2.45912 34.237 2.58737 33.7658 2.8838L33.4679 3.1475C32.9986 3.98063 32.5829 4.84289 32.2234 5.72899C31.5167 7.27156 31.0103 8.43178 30.7097 9.19647C28.8376 13.8373 27.3319 17.3312 26.2455 19.5725C25.7006 20.6747 25.145 21.8674 24.579 23.1507L18.7542 10.5439L18.4695 9.87411C17.4464 7.47457 16.6237 5.63138 15.9855 4.39206C15.7106 3.85638 15.3857 3.34787 15.0152 2.87325L14.7119 2.49359L12.7844 2.39864C12.6431 2.36938 12.4986 2.35876 12.3545 2.36701L4.97137 2.11908C4.09593 2.11908 3.33648 2.14024 2.69309 2.19561L1.71746 2.2826V4.04137C1.71746 4.36042 1.73601 4.74018 1.77556 5.19636L1.87036 5.96896L3.8744 6.41983C4.71723 6.47184 5.53755 6.71341 6.27403 7.12653C6.56459 8.23729 6.65383 9.39108 6.53765 10.5333C6.53765 10.6441 6.51924 10.9394 6.4876 11.5011L5.80199 29.5768C5.78215 30.4172 5.57679 31.2429 5.20071 31.9947C4.23998 32.5977 3.13362 32.9285 1.99959 32.9519L0.994999 32.973L0.826172 36.8624L2.0049 36.7991C4.88436 36.6409 6.51396 36.5723 6.90685 36.5723C8.33917 36.549 9.77168 36.6089 11.1971 36.7516C12.2778 36.8839 13.3649 36.957 14.4535 36.9705H15.5346V33.2552L13.4251 32.7278C12.5341 32.5945 11.6934 32.231 10.9861 31.673C10.6192 31.0807 10.4605 30.3829 10.5351 29.6901L10.8251 14.7207L14.8754 23.4223L15.2603 24.3268C15.3289 24.4876 15.4476 24.7381 15.5874 25.0123C15.9064 25.7401 16.3573 26.7237 16.9348 27.9287C17.8893 29.9327 18.5723 31.4331 18.952 32.3903L20.5683 36.9362L23.9751 36.9731L24.2389 36.2875C24.5026 35.5914 24.7267 35.0298 24.8717 34.5736C25.3596 32.9546 26.2535 30.5919 27.5086 27.5595C27.6378 27.2668 27.8936 26.7105 28.2496 25.9379C28.5344 25.3894 28.7322 24.9464 28.9616 24.4322L33.4309 14.1485L33.7711 21.1124C33.7852 24.2661 33.8361 26.7333 33.924 28.5141C33.9451 28.9122 33.9453 29.3631 33.9532 30.0144C34.0117 30.67 33.9481 31.3307 33.7658 31.9631C33.5405 32.1088 33.2799 32.1908 33.0117 32.2004C32.0075 32.3407 31.02 32.5809 30.0637 32.9177L29.3755 33.1629L29.2621 36.7885L30.4197 36.7332C30.7335 36.7174 31.0789 36.6883 31.3425 36.6514C33.5918 36.4537 35.9439 36.3561 38.325 36.3561C40.0049 36.3612 41.6833 36.4546 43.3534 36.6356C45.244 36.8229 46.4149 36.9283 46.8843 36.9283H47.8757L47.9496 35.9368C47.9628 35.5756 47.9786 35.1906 47.9549 34.5366Z" fill="white"/>
<path d="M97.9497 1.91806H96.9873C96.5838 1.91476 96.1805 1.93594 95.7796 1.98139L94.6115 2.04995C92.4791 2.18531 90.9197 2.25208 89.9335 2.25032C89.7648 2.25032 89.3931 2.23448 88.8103 2.21339L80.0085 1.84692L80.0928 6.1212L81.0079 6.23724C81.2531 6.26624 81.5721 6.30054 82.023 6.31899C82.8527 6.32233 83.6778 6.44488 84.4727 6.68288V6.70928L84.6494 10.567L84.5755 11.9988L84.623 15.3133C84.623 15.4795 84.5571 17.1776 84.4279 20.471L84.4463 21.8079L84.4068 27.5589L84.4331 30.5728C84.4551 31.017 84.3869 31.461 84.2327 31.8781C83.638 32.135 83.0199 32.3337 82.3869 32.4714C81.5958 32.6586 81.0289 32.8089 80.6809 32.9065L79.9082 33.1306V36.809H80.9788C81.3189 36.809 82.0494 36.7404 83.2413 36.627C84.9632 36.4609 86.1946 36.3792 86.9883 36.3792L91.3365 36.4267C93.2297 36.6139 94.3028 36.722 94.5955 36.7827C94.8434 36.8222 95.0966 36.8485 95.4315 36.8696C95.7663 36.8907 96.1224 36.8433 96.4863 36.8064C96.6071 36.7939 96.7287 36.7885 96.8502 36.7905L97.9391 36.809L97.9602 34.8445C97.9524 34.3814 97.9172 33.9191 97.8547 33.4602L97.744 32.6507L95.3708 32.3396C94.7195 32.2736 94.0709 32.1787 93.4302 32.0548L93.4776 31.4113L93.3748 26.4304L93.5066 23.0024L93.4564 16.3945C93.4564 14.8704 93.4855 12.7028 93.5224 9.74953C93.4828 9.325 93.4564 8.7686 93.4564 8.06456C93.4492 7.70712 93.4642 7.34965 93.5013 6.99406C93.961 6.83918 94.4283 6.708 94.9015 6.60112C95.7139 6.4106 96.5158 6.17739 97.3037 5.9024L97.9602 5.67563L98.0183 4.98214C98.0578 4.49432 98.0815 4.09612 98.0815 3.79552C98.0815 3.49492 98.0815 3.1864 98.0472 2.8858L97.9497 1.91806Z" fill="white"/>
<path d="M167.623 33.387L167.069 33.1233C166.671 32.9334 166.26 32.7568 165.849 32.596L165.912 32.4351L164.704 32.1714C164.44 32.116 164.19 32.0211 164.111 32C163.927 31.8505 163.769 31.6724 163.641 31.4726L157.798 24.245L152.48 18.0853L151.069 16.5691C150.905 16.3924 150.747 16.221 150.6 16.0601C151.251 15.4141 152.416 14.3067 154.468 12.3976C156.329 10.6626 157.619 9.49704 158.307 8.95121C158.886 8.47926 159.512 8.06669 160.174 7.71977C161.424 7.16533 162.708 6.68982 164.018 6.29592C164.868 6.12716 165.442 6.00319 165.732 5.92672L166.524 5.71839L166.574 1.78418L165.413 1.86859C164.256 1.95297 163.167 2.04789 162.31 2.15072L156.277 2.25622C155.823 2.25622 155.188 2.21665 154.347 2.14018C153.424 2.0558 152.683 2.0268 152.124 2.0268H150.027L149.925 3.38216C149.91 3.91001 149.925 4.4383 149.972 4.9643L150.035 5.67622L150.716 5.89244C151.345 6.08934 151.992 6.2245 152.648 6.29592C152.959 6.32493 153.273 6.36182 153.587 6.40665C153.524 6.49103 153.458 6.57539 153.397 6.6545C151.288 8.9011 150.104 10.1351 149.903 10.3329C149.342 10.8603 148.585 11.6329 147.633 12.6323C146.528 13.7898 145.537 14.7892 144.677 15.6225L144.698 13.4181C144.717 12.8696 144.733 12.4925 144.733 12.3C144.733 11.9598 144.714 11.3797 144.688 10.5702L144.667 9.96112C144.645 9.46011 144.627 9.10413 144.627 8.86945L144.648 6.82325C144.994 6.69513 145.356 6.61528 145.724 6.58594C146.824 6.38983 147.904 6.09595 148.951 5.70784L149.532 5.49162L149.634 4.88254C149.706 4.46995 149.735 4.05117 149.721 3.63267C149.726 3.34558 149.688 3.05941 149.608 2.78362L149.402 2.06897L148.661 2.01103C148 1.95511 147.334 1.97368 146.676 2.06639C146.014 2.14813 145.075 2.19028 143.831 2.20874L141.299 2.33267C139.72 2.35697 138.141 2.28386 136.571 2.11379C135.312 1.96035 134.045 1.8838 132.777 1.88445C132.4 1.881 132.023 1.89768 131.648 1.9345L130.794 2.02157L130.446 5.12516L131.068 5.47054C131.73 5.83352 132.441 6.09995 133.178 6.26164C133.983 6.42631 134.757 6.71636 135.472 7.12123C135.693 8.20514 135.782 9.31198 135.735 10.4173C135.737 10.7112 135.716 11.0047 135.672 11.2954L135.643 11.8386L135.775 12.801C135.727 13.179 135.698 13.5592 135.688 13.9401V14.8973L135.635 16.0628L135.662 19.8204L135.635 25.1652V25.8508C135.701 26.6894 135.735 27.2695 135.735 27.6044C135.783 28.8595 135.736 30.1278 135.683 31.296C134.053 31.7897 132.476 32.4414 130.973 33.242L130.391 33.5505L130.454 36.6936L131.538 36.6567C132.925 36.6092 133.705 36.5881 133.884 36.5881L138.415 36.6092C139.124 36.5617 139.714 36.5354 140.179 36.5354C140.644 36.5198 141.11 36.5357 141.574 36.5829L146.373 36.7622C146.852 36.7622 147.456 36.7621 148.266 36.7147L149.139 36.6672L149.268 35.8023C149.307 35.5342 149.329 35.2638 149.334 34.9929C149.326 34.6894 149.294 34.3869 149.239 34.0884L149.155 33.6164L148.743 33.3527C148.043 32.9285 147.282 32.6137 146.486 32.4192C145.892 32.3058 145.323 32.0889 144.804 31.7785L144.727 29.9063L144.777 27.5806C144.74 25.4711 144.709 24.3452 144.693 24.2187C144.646 23.6913 144.616 23.0321 144.606 22.2964L149.207 27.4462L152.746 31.4858C152.957 31.7443 153.14 32.0245 153.292 32.3217C153.123 32.3897 152.945 32.4315 152.764 32.4456C151.97 32.6212 151.187 32.8413 150.417 33.1049L149.827 33.3052L149.714 33.917C149.641 34.2854 149.602 34.6596 149.598 35.035C149.607 35.3699 149.67 35.7012 149.785 36.016L150.048 36.72L151.401 36.7411C151.696 36.7411 152.248 36.7147 153.083 36.6488C154.571 36.5486 155.472 36.4879 155.794 36.4879L159.317 36.5143L159.741 36.4879L162.225 36.6172C162.741 36.6324 163.256 36.6738 163.768 36.7411L167.441 36.8096L167.602 35.9131C167.67 35.5431 167.711 35.1685 167.723 34.7924C167.723 34.6289 167.705 34.3969 167.668 33.9803L167.623 33.387Z" fill="white"/>
<path d="M229.509 25.3003C229.027 25.3124 228.545 25.3503 228.067 25.4136L227.482 25.4901L227.236 26.0174C226.543 27.5862 225.664 29.0664 224.618 30.4263C223.971 31.1053 223.14 31.5808 222.226 31.7948C220.316 32.173 218.372 32.3454 216.425 32.309C214.487 32.4516 212.538 32.2987 210.645 31.8555C210.587 31.764 210.566 31.6534 210.587 31.5469L210.637 26.0649C210.571 24.7834 210.534 23.1855 210.534 21.2632C211.721 21.1894 213.211 21.1419 215.239 21.1524C216.377 21.1002 217.518 21.1479 218.648 21.2948C218.817 21.3397 218.964 21.4425 218.957 21.4082C219.364 22.2556 219.64 23.1597 219.777 24.0899L219.898 24.6173C220.014 25.1447 220.096 25.5085 220.133 25.7115L220.299 26.5844H224.056V24.9443C224.056 24.4512 224.035 23.6891 223.98 22.6634C223.93 21.693 223.906 20.9969 223.906 20.5539C223.906 20.2902 223.906 19.921 223.94 19.4543C223.975 18.9876 223.98 17.9117 223.98 16.2901V15.971C223.98 15.1799 223.951 14.0408 223.882 12.5272L223.843 11.5279L221.28 11.4831L220.14 11.5832L219.995 12.3901C219.784 13.5708 219.508 14.7391 219.168 15.8893C219.089 16.0913 218.965 16.2719 218.804 16.4166C218.196 16.6505 217.551 16.772 216.9 16.7753C215.658 16.8887 213.53 16.9441 210.595 16.9467H210.569L210.548 10.547C210.548 8.73814 210.548 7.42493 210.574 6.61806C211.889 6.57762 213.333 6.55656 214.906 6.55481C216.678 6.60227 218.39 6.6181 219.964 6.74995L221.583 6.88441C221.928 6.86308 222.275 6.8942 222.611 6.97671C223.092 7.55965 223.514 8.18947 223.869 8.85675L224.81 10.4942C225.074 11.1798 225.275 11.6888 225.435 12.0447L225.699 12.6117L226.321 12.6618C226.652 12.697 226.985 12.7155 227.318 12.7172L229.269 12.6143L229.354 11.6941C229.375 11.4515 229.383 11.2721 229.383 11.1007L229.338 4.98322C229.379 4.22019 229.127 3.47022 228.634 2.88696L228.37 2.57312L227.964 2.5151C226.411 2.29296 224.847 2.16352 223.278 2.12748L218.73 2.17761C215.718 2.17761 212.301 2.25406 208.565 2.40172C206.089 2.50456 204.557 2.55204 203.953 2.55204C202.468 2.55002 200.984 2.46196 199.51 2.28834C198.763 2.1855 197.928 2.10115 196.928 2.05368L195.874 2.00098L195.631 6.08019L196.628 6.20411C197.073 6.25949 197.474 6.29113 197.814 6.30696C198.685 6.34743 199.552 6.46121 200.404 6.64711L201.131 6.80797L201.345 9.72695L201.316 12.6275L201.448 16.6012L201.421 19.4727L201.49 28.9074L201.461 29.7644C201.482 30.4395 201.49 30.9062 201.49 31.1963C201.497 31.5293 201.465 31.8621 201.395 32.1877C200.485 32.496 199.538 32.6831 198.579 32.7441C197.892 32.8045 197.209 32.9075 196.535 33.0526L195.694 33.2345V36.9262L200.918 36.7864C203.818 36.6255 206.292 36.5412 208.272 36.5412C212.227 36.5412 215.692 36.5992 218.579 36.7178C222.674 36.8831 225.194 36.9657 226.139 36.9657C226.788 36.9657 227.663 36.9393 228.776 36.8971L229.654 36.8602L231.142 28.3959L231.566 25.3055L229.509 25.3003Z" fill="white"/>
<path d="M337.964 19.9279C336.92 18.8126 335.666 17.9163 334.272 17.291C334.602 17.1117 334.929 16.9244 335.264 16.7267C336.228 16.0339 337.037 15.1464 337.637 14.1215C338.188 13.1159 338.469 11.985 338.454 10.8385C338.457 9.81413 338.279 8.79733 337.927 7.83522C337.568 6.87162 337.016 5.99136 336.305 5.24842C335.59 4.49907 334.748 3.88146 333.819 3.42375C333.094 3.0292 332.331 2.71102 331.54 2.47444C330.1 2.07436 328.613 1.86952 327.118 1.86535L324.178 1.8363L307.651 2.31623L307.767 6.10277L308.671 6.21881C310.029 6.39548 310.867 6.48248 311.345 6.51148C311.592 6.50376 311.838 6.53948 312.073 6.61698C312.188 7.19663 312.236 7.78773 312.215 8.3784C312.328 13.0404 312.384 15.9383 312.384 17.0273L312.442 27.7303C312.459 29.0449 312.399 30.3595 312.262 31.6671C312.229 31.8216 312.182 31.9726 312.12 32.118C311.444 32.3394 310.748 32.4974 310.042 32.5901C309.449 32.6824 308.943 32.7693 308.529 32.8537L307.706 33.0251L307.59 37.0332L308.729 36.9936C311.957 36.8802 313.926 36.7959 314.667 36.7616C317.127 36.5928 319.271 36.4979 321.014 36.4979L325.296 36.6113C326.776 36.6391 328.255 36.5509 329.721 36.3476C331.36 36.1078 332.957 35.6409 334.467 34.9606C335.725 34.327 336.854 33.4661 337.798 32.4213C338.572 31.5814 339.171 30.5953 339.559 29.5208C339.993 28.2862 340.224 26.9898 340.245 25.6815C340.229 23.5462 339.415 21.4939 337.964 19.9279ZM321.338 7.03358C321.328 6.78395 321.321 6.55279 321.317 6.34008C321.914 6.26561 322.514 6.22163 323.116 6.20827C324.814 6.07613 326.503 6.55385 327.88 7.55567C328.362 7.96595 328.743 8.48116 328.995 9.06168C329.246 9.6422 329.361 10.2726 329.331 10.9045C329.414 11.5993 329.33 12.3038 329.084 12.9591C328.839 13.6144 328.44 14.2011 327.92 14.6699C326.369 15.6135 324.56 16.0461 322.749 15.9067C322.318 15.9192 321.887 15.9095 321.457 15.8776C321.457 15.5981 321.457 15.3713 321.457 15.192L321.486 13.0667C321.481 10.4799 321.423 8.46014 321.338 7.03623V7.03358ZM321.536 31.8755L321.481 20.1809C321.863 20.1462 322.247 20.1374 322.63 20.1546C324.282 20.0772 325.936 20.2814 327.519 20.7585C328.579 21.21 329.465 21.9914 330.045 22.9866C330.598 24.0275 330.86 25.1978 330.805 26.3749C330.851 27.5297 330.618 28.6786 330.124 29.7238C329.65 30.5868 328.901 31.267 327.997 31.6566C326.666 32.2302 325.225 32.5004 323.778 32.4476C323.023 32.4281 322.277 32.2874 321.568 32.031C321.555 31.9757 321.541 31.9203 321.536 31.8702V31.8755Z" fill="white"/>
<path d="M409.921 3.02174L409.758 2.25179L408.421 2.12787H408.318C406.849 2.31827 405.366 2.39319 403.885 2.35198L399.031 2.12256H396.007L395.893 5.99086L397.336 6.28087L399.664 6.22817C399.998 6.22874 400.323 6.33798 400.589 6.53935C400.875 6.97392 401.005 7.49258 400.959 8.01067L401.061 9.35018C401.491 14.3602 401.707 18.9246 401.71 22.988C401.771 24.5977 401.626 26.2087 401.28 27.7819C401.025 28.59 400.654 29.3572 400.181 30.0601C399.828 30.5351 399.394 30.944 398.899 31.2678C398.296 31.7107 397.619 32.0444 396.9 32.254C395.543 32.6486 394.135 32.8449 392.721 32.8367C391.438 32.816 390.178 32.4935 389.043 31.8954C388.301 31.5232 387.678 30.9527 387.242 30.2473C386.55 28.9892 386.179 27.58 386.16 26.1444L385.839 19.9187L385.936 15.4572L385.789 13.5665L385.836 11.1459L385.81 10.2151C385.791 9.89602 385.789 9.47938 385.781 8.84917C385.701 8.10252 385.758 7.34766 385.947 6.62102C386.236 6.48091 386.561 6.43393 386.878 6.48656H386.907C387.921 6.48476 388.934 6.41341 389.939 6.27299L390.891 5.94073L390.809 3.63347L390.92 2.19378L387.729 2.2386C386.719 2.24914 385.567 2.28253 384.275 2.33878C383.004 2.38888 381.704 2.41265 380.378 2.41265C380.003 2.41265 378.727 2.35727 376.544 2.24125C375.307 2.1477 374.065 2.13183 372.826 2.19378L371.803 2.27553L371.945 6.17546L372.81 6.30992C373.203 6.37097 373.599 6.40183 373.997 6.40222C374.854 6.36986 375.709 6.49955 376.518 6.78454C376.841 8.16603 376.941 9.59046 376.813 11.0035V22.9828C376.771 24.8361 376.896 26.6894 377.187 28.5202C377.443 30.3686 378.226 32.1042 379.442 33.5199C380.657 34.9357 382.255 35.9717 384.043 36.5046C386.15 37.2358 388.363 37.6102 390.593 37.6121H391.055C393.177 37.6531 395.294 37.3866 397.341 36.821C399.001 36.3779 400.568 35.6392 401.966 34.6403C403.143 33.793 404.146 32.7278 404.922 31.5024C405.45 30.5313 405.811 29.4788 405.992 28.3883C406.306 26.0483 406.429 23.6867 406.361 21.3268L406.098 16.243C406.069 14.9931 406.024 13.767 405.974 12.5935C405.974 12.3641 405.974 12.1348 405.953 11.9159L405.934 10.7662V10.194C405.95 9.42679 405.925 8.65927 405.86 7.89463C405.814 7.47355 405.797 7.04976 405.81 6.62634C406.192 6.52174 406.584 6.45546 406.979 6.42854C407.723 6.3987 408.461 6.28551 409.18 6.09104L409.789 5.93018L409.942 5.31845C410.019 4.99328 410.06 4.66091 410.066 4.32697C410.052 3.88881 410.003 3.45244 409.921 3.02174Z" fill="white"/>
<path d="M479.448 34.0837L479.327 33.7356L479.016 33.5352C478.397 33.1362 477.728 32.8197 477.027 32.5938H477.006C476.521 32.4457 476.055 32.2394 475.619 31.9794C474.89 31.0809 474.257 30.1088 473.729 29.0789L469.718 22.5553C469.278 21.8301 468.7 20.9732 467.965 19.8921C469.585 19.2328 471.024 18.1936 472.16 16.8623C473.401 15.3647 474.075 13.4781 474.064 11.5332C474.035 10.2091 473.71 8.90829 473.111 7.72672C472.513 6.54515 471.657 5.513 470.607 4.70642C468.105 2.70619 464.959 1.68877 461.76 1.84545C459.675 1.83975 457.592 1.94626 455.519 2.16452L451.11 2.39128C450.957 2.39128 450.348 2.32799 449.098 2.21988C447.94 2.24625 447.178 2.24619 446.77 2.24619C445.944 2.25783 445.119 2.3301 444.304 2.46242L443.645 2.56791L443.315 3.66223L443.413 6.24107L444.288 6.37031C445.17 6.50412 446.06 6.58686 446.951 6.61816L447.619 6.74731C447.663 7.83897 447.684 9.66899 447.684 12.5484C447.684 14.1306 447.655 15.8339 447.597 17.6586L447.568 19.0351L447.597 21.3318L447.51 24.3906L447.545 30.0018C447.545 31.2991 447.518 32.0533 447.492 32.2537V32.3011C447.104 32.4089 446.71 32.4969 446.313 32.5648C445.827 32.3413 445.278 32.2911 444.759 32.4225C444.24 32.5539 443.782 32.8591 443.46 33.2873C443.273 33.5204 443.137 33.7899 443.06 34.0787C442.983 34.3675 442.968 34.6692 443.015 34.9644C443.015 35.0514 443.015 35.2122 443.044 35.4364L443.144 36.8312H445.224C446.21 36.832 447.194 36.773 448.172 36.6546L451.682 36.4252C451.952 36.4012 452.223 36.3942 452.494 36.4041C453.153 36.4041 455.395 36.5861 458.97 36.8867L459.988 36.8392C460.112 36.8392 460.297 36.8603 460.536 36.8603H461.475L461.599 35.9295C461.684 35.2658 461.724 34.5972 461.72 33.9281V33.1766L461.035 32.9129C459.87 32.4715 458.671 32.1284 457.449 31.8871C457.132 31.8365 456.822 31.748 456.526 31.6235L456.674 27.5179L456.531 21.9805C456.531 21.7484 456.531 21.5164 456.531 21.2843C456.84 21.2843 457.095 21.2633 457.343 21.258C457.962 21.2039 458.583 21.3186 459.142 21.5902C459.762 22.3153 460.264 23.1341 460.629 24.0161C462.237 27.1804 463.577 29.9201 464.402 31.7263C464.695 32.375 465.193 33.348 465.908 34.6005L467.102 36.9078L468.094 36.8023C468.328 36.7812 468.621 36.7548 468.924 36.71C469.808 36.6071 470.367 36.5517 470.536 36.5491H473.07C473.728 36.5561 474.386 36.6037 475.039 36.6915H475.928L477.436 36.8682L479.646 36.8419V35.178C479.638 34.8051 479.571 34.4358 479.448 34.0837ZM456.608 11.4779L456.663 9.3684L456.608 6.48892C456.94 6.46783 457.32 6.46259 457.644 6.45995C458.702 6.399 459.764 6.5094 460.787 6.78691C461.511 7.00637 462.172 7.39397 462.717 7.91808C463.124 8.42398 463.426 9.00575 463.606 9.62945C463.864 10.5071 463.994 11.4174 463.991 12.3322C464.013 12.9393 463.904 13.5441 463.671 14.1049C463.437 14.6657 463.085 15.1692 462.638 15.5808C461.037 16.6085 459.138 17.0725 457.243 16.8992C457.066 16.8992 456.837 16.8993 456.555 16.8835L456.571 16.2136C456.571 15.4516 456.592 14.803 456.634 14.1622L456.608 11.4779Z" fill="white"/>
<path d="M551.643 1.9447L550.496 2.04489C550.233 2.06598 549.906 2.07924 549.573 2.08979L539 2.37192L537.417 2.55121L537.373 5.68908L538.021 5.97386C538.797 6.31327 539.619 6.53544 540.46 6.63308C541.028 6.65884 541.581 6.82457 542.069 7.11558C542.214 7.52336 542.263 7.95935 542.211 8.38919C542.211 8.73462 542.306 10.0294 542.504 12.2839C542.599 13.3835 542.654 14.6096 542.67 15.9491C542.67 17.3677 542.744 18.5859 542.823 19.609C542.91 20.5952 542.976 21.9242 543.021 23.617L543.055 24.4899C533.897 15.3875 528.7 10.1823 527.192 8.60541C525.565 6.90464 523.426 4.85054 520.826 2.49319L520.523 2.21372L519.334 2.18732C518.806 2.17748 518.278 2.19595 517.752 2.24268C516.987 2.29015 516.491 2.28755 516.209 2.28228C516.059 2.28228 515.93 2.28221 515.711 2.26111L514.835 2.23214C514.363 2.21808 514.058 2.21106 513.923 2.21106C513.546 2.21106 512.887 2.23739 511.795 2.28485L507.84 2.31125L508.059 6.09779L508.95 6.20852C509.999 6.33173 511.036 6.54616 512.048 6.8493C512.663 7.11364 513.217 7.50032 513.678 7.98579C513.805 8.11988 513.896 8.28414 513.941 8.46306C514.217 9.72145 514.33 11.0098 514.279 12.297L514.297 26.9448C514.297 27.5302 514.242 29.136 514.129 31.7861C514.12 32.0735 514.091 32.3598 514.042 32.643C513.481 32.7957 512.897 32.8431 512.32 32.7828L511.829 32.7538C511.537 32.738 511.36 32.7248 511.255 32.7248C510.812 32.7397 510.371 32.7899 509.936 32.8751L509.113 33.0333L509.074 33.8691C509.048 34.3148 509.04 34.6339 509.04 34.8317C509.04 35.1428 509.061 35.5067 509.095 35.9233L509.161 36.7143L509.936 36.8831C510.284 36.9524 510.637 36.9913 510.991 36.9991C511.078 36.9991 511.595 36.9728 512.518 36.8989C513.377 36.833 515.155 36.7855 517.665 36.746C520.676 37.0097 522.266 37.1284 522.854 37.1284L524.927 37.0756L524.739 33.1889L524.017 32.9701C523.703 32.8731 523.382 32.7982 523.057 32.7459C521.874 32.7385 520.694 32.6113 519.537 32.3662L519.508 32.2923C519.453 32.0378 519.418 31.7795 519.402 31.5197C519.274 29.9235 519.181 28.4416 519.123 27.074L518.973 23.8439L518.994 22.0297C518.994 21.41 518.994 20.8035 518.973 20.2472L518.804 13.3729L521.043 15.4059C522.736 16.93 524.6 18.702 526.58 20.6664L540.096 34.2252L543.411 37.6531L547.804 37.5028V35.1296C547.804 34.982 547.778 34.5389 547.709 33.9509V28.1499C547.709 27.8862 547.709 27.4352 547.675 26.8129L547.393 18.0032C547.393 17.4125 547.348 16.8825 547.311 16.3815C547.195 15.0051 547.129 13.0934 547.113 10.7044C547.113 9.55737 547.113 8.83744 547.087 8.52365C547.053 7.96728 547.037 7.63772 547.031 7.4505C547.024 7.39979 547.024 7.34823 547.031 7.29752C547.32 7.08245 547.625 6.89029 547.944 6.72272C548.503 6.50803 549.08 6.34475 549.668 6.23491C550.167 6.1134 550.648 5.92908 551.1 5.68642L551.672 5.3779L551.643 1.9447Z" fill="white"/>
<path d="M616.733 25.2857C616.258 25.2942 615.783 25.3285 615.312 25.3885L614.727 25.4651L614.476 25.9924C613.773 27.5701 612.888 29.0604 611.839 30.4329C611.193 31.1171 610.357 31.5942 609.44 31.804C607.53 32.1813 605.585 32.3528 603.639 32.3156C601.7 32.4524 599.752 32.2996 597.859 31.8621C597.802 31.77 597.782 31.6597 597.803 31.5535L597.859 26.0663C597.79 24.7874 597.758 23.192 597.756 21.275C598.939 21.1977 600.501 21.1591 602.441 21.1591C603.58 21.1086 604.721 21.158 605.851 21.3067C606.009 21.3463 606.146 21.4544 606.16 21.4201C606.572 22.2645 606.852 23.1671 606.99 24.0965L607.053 24.3813C607.201 25.0379 607.299 25.4809 607.343 25.7156L607.494 26.6015H611.267V24.9614C611.267 24.4657 611.246 23.701 611.191 22.6752C611.143 21.7049 611.122 21.0114 611.122 20.5658C611.122 20.3021 611.122 19.9277 611.159 19.4636C611.196 18.9995 611.196 17.9263 611.196 16.3125V15.9829C611.196 15.1918 611.169 14.0501 611.101 12.5365L611.053 11.5398L608.493 11.4923L607.346 11.5925L607.204 12.3994C606.992 13.5749 606.718 14.7386 606.384 15.8854C606.302 16.0955 606.174 16.2847 606.009 16.4391C605.402 16.6685 604.759 16.7891 604.111 16.7951C602.861 16.9058 600.738 16.9638 597.803 16.9664H597.777L597.758 10.5536C597.758 8.51006 597.774 7.31816 597.787 6.6273C599.102 6.58336 600.546 6.5614 602.117 6.5614C603.876 6.5614 605.611 6.62735 607.175 6.75919L608.794 6.89101C609.14 6.8917 609.486 6.92349 609.827 6.98596C610.308 7.56576 610.727 8.19409 611.077 8.86076L612.019 10.5008C612.282 11.1759 612.483 11.6769 612.638 12.0329L612.902 12.6156L613.54 12.671C614.02 12.7079 614.405 12.729 614.532 12.7263L616.491 12.6236L616.572 11.6927C616.591 11.4606 616.601 11.2788 616.601 11.0995L616.551 4.99246C616.59 4.23072 616.341 3.48226 615.853 2.89612L615.589 2.58237L615.178 2.52435C613.625 2.30219 612.06 2.17104 610.492 2.13149L605.954 2.18686C602.948 2.18686 599.53 2.26071 595.789 2.40574C593.315 2.51121 591.781 2.55598 591.177 2.55598C589.694 2.57472 588.212 2.48666 586.742 2.29235C586.014 2.18688 585.16 2.10243 584.152 2.05497L583.097 2.00757L582.85 6.07359L583.846 6.19751C584.292 6.25552 584.693 6.28982 585.033 6.30301C585.904 6.34153 586.771 6.45534 587.622 6.64316L588.318 6.78285L588.564 9.72035L588.537 12.6209L588.661 16.6025L588.64 19.4556L588.714 28.8903L588.685 29.75C588.706 30.4197 588.714 30.8917 588.714 31.187C588.721 31.5183 588.689 31.8493 588.619 32.1732C587.708 32.4802 586.762 32.6682 585.803 32.7322C585.116 32.7919 584.433 32.8959 583.759 33.0434L582.913 33.2227V36.9142L588.139 36.7719C591.04 36.611 593.524 36.5266 595.493 36.5266C599.522 36.5266 602.987 36.5847 605.809 36.706C609.899 36.8677 612.418 36.9494 613.366 36.9512C614.015 36.9512 614.894 36.9266 616.003 36.8774L616.878 36.8405L618.365 28.3787L618.782 25.2883L616.733 25.2857Z" fill="white"/>
<path d="M685.238 6.91938C685.224 4.59367 685.208 2.85152 685.19 1.69306L685.153 0.952163L684.473 0.688461L684.159 0.622556C683.793 0.601461 683.569 0.622511 683.321 0.593506L681.536 0.638328L680.921 2.03852C680.867 2.2212 680.785 2.39459 680.679 2.55272L679.753 2.68719L659.333 2.75044C657.64 2.75044 656.825 2.732 656.433 2.71881C656.163 2.36058 655.924 1.98043 655.718 1.58233L655.154 0.667378H652.232L651.987 1.39515C651.871 1.74322 651.665 2.40501 651.394 3.40965C650.838 5.5896 650.133 7.72878 649.284 9.81197L649.002 10.5055L649.556 11.0117C650.077 11.4827 650.667 11.873 651.304 12.1694L651.757 12.2669C652.48 12.2669 653.036 11.6815 653.572 10.9959C654.368 9.82745 655.341 8.78865 656.454 7.91609C657.3 7.62344 658.198 7.51205 659.091 7.58913C661.34 7.58913 662.845 7.6076 663.665 7.64715C663.779 9.0504 663.816 10.4588 663.776 11.8661L663.905 21.3588C663.905 25.6964 663.847 28.9081 663.726 30.9543C663.723 31.1101 663.702 31.265 663.663 31.4157C662.724 31.7967 661.753 32.095 660.762 32.307C659.724 32.4539 658.768 32.9518 658.052 33.7178L657.743 34.2451L657.788 35.2181C657.788 35.3315 657.788 35.4818 657.841 35.8747L657.92 36.8609H658.906C659.201 36.8609 659.847 36.8239 660.852 36.758C662.434 36.6262 664.609 36.4548 665.19 36.4548C668.314 36.4548 670.482 36.5181 671.647 36.6367C673.029 36.7686 674.432 36.8345 675.819 36.8345C676.183 36.8345 676.554 36.8504 677.137 36.8003L677.963 36.7369L678.113 35.9274C678.161 35.6504 678.189 35.3701 678.195 35.0889C678.195 34.9386 678.15 34.5167 678.055 33.8364L677.97 33.2062L677.377 32.982C676.894 32.801 676.4 32.6522 675.898 32.5365C674.732 32.2728 674.081 32.1383 673.886 32.1119C673.655 32.0895 673.426 32.0526 673.2 32.0012C673.095 31.4212 673.056 30.8312 673.084 30.2424L673.105 26.9569L673.005 8.23515C673.005 8.02684 673.005 7.81851 673.032 7.60756C673.324 7.5891 673.588 7.58117 673.823 7.58117C677.804 7.58117 678.754 7.64708 678.965 7.60225C679.323 8.20908 679.621 8.84935 679.856 9.51399C680.27 10.5731 680.783 11.5902 681.39 12.5517L681.749 13.1186L682.419 13.0368C683.104 12.9566 683.779 12.8074 684.433 12.5913L685.029 12.3935L685.145 11.7712C685.224 11.3363 685.263 10.8948 685.259 10.4528L685.285 9.13433L685.238 6.91938Z" fill="white"/>
<path d="M751.409 6.90758C751.409 4.58539 751.402 2.84422 751.388 1.684V0.687289L750.391 0.62927C750.025 0.608175 749.772 0.60022 749.545 0.60022L747.76 0.645042L747.151 2.03734C747.096 2.22515 747.013 2.40319 746.903 2.56475L745.975 2.69921L725.586 2.76246C723.891 2.76246 723.073 2.74404 722.686 2.73349C722.417 2.37606 722.177 1.99775 721.969 1.60224L721.412 0.668781H718.493L718.245 1.38344C718.122 1.73414 717.924 2.40126 717.649 3.41645C717.095 5.59412 716.39 7.73068 715.54 9.8108L715.25 10.5148L715.814 11.0158C716.337 11.4865 716.927 11.8758 717.565 12.1708L718.016 12.2684C718.725 12.2684 719.287 11.6856 719.83 10.9974C720.627 9.82983 721.598 8.79117 722.71 7.91757C723.557 7.6281 724.454 7.51672 725.346 7.59054C727.604 7.59054 729.112 7.609 729.924 7.64856C730.035 9.05197 730.072 10.4603 730.035 11.8675L730.159 21.3603C730.159 25.6821 730.101 28.8938 729.982 30.9347C729.976 31.0975 729.953 31.2591 729.914 31.4172C728.969 31.7972 727.993 32.0954 726.997 32.3085C725.959 32.4569 725.002 32.9544 724.284 33.7192L723.975 34.2466L724.023 35.2196C724.03 35.4428 724.048 35.6655 724.078 35.8867L724.17 36.8597H725.146C725.441 36.8597 726.087 36.8228 727.087 36.7569C728.809 36.6145 730.855 36.4536 731.424 36.4536C734.52 36.4536 736.698 36.5169 737.882 36.6356C739.258 36.7674 740.667 36.8334 742.051 36.8334C742.428 36.8334 742.795 36.8334 743.369 36.7991L744.187 36.7411L744.34 35.95C744.395 35.6666 744.427 35.3791 744.435 35.0904C744.41 34.6699 744.363 34.2509 744.295 33.8352L744.208 33.2129L743.622 32.9888C743.139 32.8043 742.643 32.6535 742.138 32.5379C740.965 32.2742 740.292 32.1345 740.126 32.116C739.895 32.0949 739.666 32.057 739.44 32.0026C739.333 31.423 739.294 30.8326 739.325 30.2438L739.351 26.9583L739.248 8.23663C739.248 8.02832 739.248 7.82001 739.277 7.6117C739.57 7.59324 739.833 7.58531 740.068 7.58531C744.068 7.58531 744.999 7.64328 745.207 7.61428C745.566 8.2178 745.865 8.8545 746.101 9.51547C746.508 10.5723 747.015 11.5877 747.615 12.5478L747.973 13.1227L748.648 13.0462C749.332 12.9651 750.006 12.8159 750.66 12.6006L751.269 12.4028L751.383 11.7726C751.458 11.3372 751.496 10.8961 751.496 10.4542L751.523 9.10676L751.409 6.90758ZM730.417 7.69869C730.379 7.70244 730.341 7.70244 730.304 7.69869H730.417Z" fill="white"/>
</svg>
