<svg width="562" height="82" viewBox="0 0 562 82" fill="none" xmlns="http://www.w3.org/2000/svg">
<path fill-rule="evenodd" clip-rule="evenodd" d="M76.4923 81.5H71.4766L65.403 64.8121H77.3407C79.6259 64.8121 81.7792 63.8096 83.2486 62.0617C84.7201 60.3131 85.3359 57.9957 84.9381 55.7037C84.3111 52.0974 80.8308 49.3779 76.8424 49.3779H60.2402C60.2229 49.3779 60.1747 49.3551 60.1009 49.3118H59.6598C59.5078 49.3118 59.3579 49.3021 59.1918 49.2904L58.9436 49.2743C52.2311 49.0797 46.0521 46.2287 41.5449 41.2465C37.0526 36.281 34.8403 29.8452 35.3155 23.1244C36.2155 10.4378 47.2814 0.5 60.5081 0.5H96.7004H101.747L98.1899 4.07369L87.9653 14.3875C86.2017 16.1672 83.7541 17.1879 81.2501 17.1879H59.6598C57.3781 17.1879 55.2248 18.1904 53.7518 19.9383C52.2801 21.6869 51.6643 24.0043 52.0623 26.2962C52.6875 29.9025 56.1679 32.6221 60.1581 32.6221H79.8303C80.0837 32.6221 80.3359 32.6391 80.5584 32.6542L80.8911 32.6739C92.5863 33.2365 101.747 42.8409 101.747 54.5393L101.748 54.6843C101.756 56.7537 101.735 58.1632 101.683 58.8737C100.783 71.5613 89.7181 81.4999 76.4923 81.4999V81.5ZM55.225 81.5H55.2222H40.298H35.2527H16.6842C7.59867 81.5 0.207031 74.1091 0.207031 65.0246V6.29006V0.50001H5.99709H17.4129H20.0775V3.00927L19.8168 61.7599C19.8168 62.4367 20.0298 63.0803 20.4329 63.6208C21.0318 64.4255 21.9483 64.8871 22.9475 64.8871H49.1787L55.224 81.4973L55.225 81.5Z" fill="white"/>
<path d="M144.619 75.3627H155.151L156.025 72.0368H155.45C154.661 73.9982 153.872 74.5952 152.188 74.5952H150.674C149.054 74.5952 148.67 74.4459 148.67 72.9748V64.0844C148.67 62.656 149.565 62.6133 150.674 62.4001V61.9311H144.619V62.4001C145.728 62.6133 146.389 62.656 146.389 64.0844V73.2094C146.389 74.6378 145.728 74.6804 144.619 74.8936V75.3627Z" fill="white"/>
<path d="M169.898 72.1647C169.109 73.9982 168.32 74.5952 166.636 74.5952H165.186C163.566 74.5952 163.182 74.4459 163.182 72.9748V68.9454H164.824C167.404 68.9454 167.659 69.4357 167.787 70.7362H168.235V66.4296H167.787C167.659 67.7301 167.404 68.2205 164.824 68.2205H163.182V64.3189C163.182 62.8478 163.566 62.6986 165.186 62.6986H167.084C168.619 62.6986 168.981 63.4448 169.173 64.9585H169.749L169.557 61.9311H159.131V62.4001C160.24 62.6133 160.901 62.656 160.901 64.0844V73.2094C160.901 74.6378 160.24 74.6804 159.131 74.8936V75.3627H169.6L170.474 72.1647H169.898Z" fill="white"/>
<path d="M184.479 61.9311V62.4001C185.396 62.6133 186.185 62.6346 185.78 63.594L182.049 72.5911L178.168 63.6154C177.742 62.6346 178.573 62.6133 179.49 62.4001V61.9311H173.904V62.4001C175.013 62.6133 175.226 62.6346 175.653 63.6154L180.812 75.5119H181.643L186.675 63.594C187.08 62.6133 187.357 62.6133 188.466 62.4001V61.9311H184.479Z" fill="white"/>
<path d="M202.566 72.1647C201.777 73.9982 200.988 74.5952 199.304 74.5952H197.854C196.234 74.5952 195.85 74.4459 195.85 72.9748V68.9454H197.492C200.072 68.9454 200.327 69.4357 200.455 70.7362H200.903V66.4296H200.455C200.327 67.7301 200.072 68.2205 197.492 68.2205H195.85V64.3189C195.85 62.8478 196.234 62.6986 197.854 62.6986H199.752C201.287 62.6986 201.649 63.4448 201.841 64.9585H202.417L202.225 61.9311H191.799V62.4001C192.908 62.6133 193.569 62.656 193.569 64.0844V73.2094C193.569 74.6378 192.908 74.6804 191.799 74.8936V75.3627H202.268L203.142 72.1647H202.566Z" fill="white"/>
<path d="M217.136 72.9109L215.878 70.9068C215.281 69.9474 214.663 69.4784 213.895 69.3291C216.603 68.924 218.031 67.7088 218.031 65.6408C218.031 62.9971 215.729 61.9311 212.104 61.9311H206.582V62.4001C207.691 62.6133 208.352 62.656 208.352 64.0844V73.2094C208.352 74.6378 207.691 74.6804 206.582 74.8936V75.3627H212.403V74.8936C211.294 74.6804 210.633 74.6378 210.633 73.2094V69.457C211.955 69.521 212.637 69.8834 213.426 71.12L214.961 73.5505C215.878 75.0216 216.816 75.7038 218.522 75.7038C219.225 75.7038 219.609 75.5759 220.014 75.3627V74.8723C218.82 75.2348 217.839 74.0195 217.136 72.9109ZM212.254 62.6986C214.812 62.6986 215.643 64.0844 215.643 65.79C215.643 67.4743 214.833 68.7108 212.019 68.7108H210.633V63.6793C210.633 63.0397 210.889 62.6986 212.254 62.6986Z" fill="white"/>
<path d="M236.042 73.6784L230.883 61.7818H230.052L225.02 73.6997C224.615 74.6804 224.338 74.6804 223.229 74.8936V75.3627H227.216V74.8936C226.299 74.6804 225.51 74.6591 225.915 73.6997L226.96 71.184H232.439L233.527 73.6784C233.953 74.6591 233.122 74.6804 232.205 74.8936V75.3627H237.791V74.8936C236.682 74.6804 236.469 74.6591 236.042 73.6784ZM227.259 70.4591L229.646 64.7027L232.141 70.4591H227.259Z" fill="white"/>
<path d="M248.289 75.6185C250.421 75.6185 252.234 75.0429 252.916 74.4459C252.809 74.0195 252.596 73.3586 252.596 71.9941V70.8428C252.596 69.7768 253.044 69.457 254.025 69.3291V68.7748H248.289V69.3291C250.08 69.457 250.571 69.7768 250.571 71.6956V72.6337C250.571 74.2327 250.102 74.851 248.524 74.851C245.091 74.851 243.109 71.9515 243.109 67.986C243.109 64.4895 244.814 62.3575 247.735 62.3575C249.633 62.3575 251.168 63.2103 251.679 65.4489H252.447C252.383 64.5748 252.34 63.594 252.298 62.5707C251.509 62.1016 250.016 61.59 248.034 61.59C243.514 61.59 240.593 64.6174 240.593 68.6256C240.593 72.5911 243.365 75.6185 248.289 75.6185Z" fill="white"/>
<path d="M268.548 72.1647C267.759 73.9982 266.97 74.5952 265.286 74.5952H263.836C262.216 74.5952 261.832 74.4459 261.832 72.9748V68.9454H263.473C266.053 68.9454 266.309 69.4357 266.437 70.7362H266.885V66.4296H266.437C266.309 67.7301 266.053 68.2205 263.473 68.2205H261.832V64.3189C261.832 62.8478 262.216 62.6986 263.836 62.6986H265.733C267.268 62.6986 267.631 63.4448 267.823 64.9585H268.398L268.207 61.9311H257.781V62.4001C258.89 62.6133 259.551 62.656 259.551 64.0844V73.2094C259.551 74.6378 258.89 74.6804 257.781 74.8936V75.3627H268.249L269.123 72.1647H268.548Z" fill="white"/>
<path d="M274.75 75.5759C275.475 75.5759 276.093 75.0002 276.093 74.254C276.093 73.5292 275.475 72.9535 274.75 72.9535C274.025 72.9535 273.407 73.5292 273.407 74.254C273.407 75.0002 274.025 75.5759 274.75 75.5759Z" fill="white"/>
<path d="M287.472 75.3627H298.004L298.879 72.0368H298.303C297.514 73.9982 296.725 74.5952 295.041 74.5952H293.527C291.907 74.5952 291.523 74.4459 291.523 72.9748V64.0844C291.523 62.656 292.419 62.6133 293.527 62.4001V61.9311H287.472V62.4001C288.581 62.6133 289.242 62.656 289.242 64.0844V73.2094C289.242 74.6378 288.581 74.6804 287.472 74.8936V75.3627Z" fill="white"/>
<path d="M312.751 72.1647C311.962 73.9982 311.173 74.5952 309.489 74.5952H308.039C306.419 74.5952 306.035 74.4459 306.035 72.9748V68.9454H307.677C310.257 68.9454 310.513 69.4357 310.641 70.7362H311.088V66.4296H310.641C310.513 67.7301 310.257 68.2205 307.677 68.2205H306.035V64.3189C306.035 62.8478 306.419 62.6986 308.039 62.6986H309.937C311.472 62.6986 311.834 63.4448 312.026 64.9585H312.602L312.41 61.9311H301.985V62.4001C303.093 62.6133 303.754 62.656 303.754 64.0844V73.2094C303.754 74.6378 303.093 74.6804 301.985 74.8936V75.3627H312.453L313.327 72.1647H312.751Z" fill="white"/>
<path d="M329.154 73.6784L323.995 61.7818H323.163L318.132 73.6997C317.727 74.6804 317.45 74.6804 316.341 74.8936V75.3627H320.328V74.8936C319.411 74.6804 318.622 74.6591 319.027 73.6997L320.072 71.184H325.551L326.639 73.6784C327.065 74.6591 326.234 74.6804 325.317 74.8936V75.3627H330.903V74.8936C329.794 74.6804 329.581 74.6591 329.154 73.6784ZM320.371 70.4591L322.758 64.7027L325.253 70.4591H320.371Z" fill="white"/>
<path d="M340.175 61.9311H334.653V62.4001C335.761 62.6133 336.422 62.656 336.422 64.0844V73.2094C336.422 74.6378 335.761 74.6804 334.653 74.8936V75.3627H340.175C344.204 75.3627 347.892 73.4226 347.892 68.5616C347.892 63.8072 344.119 61.9311 340.175 61.9311ZM340.771 74.5952C339.151 74.5952 338.703 74.0195 338.703 72.5484V62.6986H339.961C343.969 62.6986 345.398 65.2144 345.398 68.7748C345.398 72.3992 343.991 74.5952 340.771 74.5952Z" fill="white"/>
<path d="M362.43 72.1647C361.641 73.9982 360.852 74.5952 359.168 74.5952H357.718C356.098 74.5952 355.714 74.4459 355.714 72.9748V68.9454H357.356C359.936 68.9454 360.191 69.4357 360.319 70.7362H360.767V66.4296H360.319C360.191 67.7301 359.936 68.2205 357.356 68.2205H355.714V64.3189C355.714 62.8478 356.098 62.6986 357.718 62.6986H359.616C361.151 62.6986 361.513 63.4448 361.705 64.9585H362.281L362.089 61.9311H351.663V62.4001C352.772 62.6133 353.433 62.656 353.433 64.0844V73.2094C353.433 74.6378 352.772 74.6804 351.663 74.8936V75.3627H362.131L363.006 72.1647H362.43Z" fill="white"/>
<path d="M377 72.9109L375.742 70.9068C375.145 69.9474 374.527 69.4784 373.759 69.3291C376.467 68.924 377.895 67.7088 377.895 65.6408C377.895 62.9971 375.593 61.9311 371.968 61.9311H366.446V62.4001C367.555 62.6133 368.216 62.656 368.216 64.0844V73.2094C368.216 74.6378 367.555 74.6804 366.446 74.8936V75.3627H372.267V74.8936C371.158 74.6804 370.497 74.6378 370.497 73.2094V69.457C371.819 69.521 372.501 69.8834 373.29 71.12L374.825 73.5505C375.742 75.0216 376.68 75.7038 378.385 75.7038C379.089 75.7038 379.473 75.5759 379.878 75.3627V74.8723C378.684 75.2348 377.703 74.0195 377 72.9109ZM372.117 62.6986C374.676 62.6986 375.507 64.0844 375.507 65.79C375.507 67.4743 374.697 68.7108 371.883 68.7108H370.497V63.6793C370.497 63.0397 370.753 62.6986 372.117 62.6986Z" fill="white"/>
<path d="M388.047 75.6185C390.712 75.6185 392.886 74.1048 392.886 71.7383C392.886 69.1586 390.371 67.986 388.772 67.2184C386.853 66.3017 385.957 65.5342 385.957 64.3402C385.957 63.2529 386.682 62.2935 388.26 62.2935C390.179 62.2935 391.181 63.8072 391.65 65.6194H392.14L392.076 62.8478C391.437 62.4428 390.413 61.59 388.239 61.59C385.296 61.59 383.889 63.0824 383.889 64.9798C383.889 67.2398 385.851 68.3697 387.642 69.2225C389.475 70.0966 390.648 70.8855 390.648 72.3992C390.648 73.849 389.539 74.915 387.961 74.915C386.043 74.915 384.678 73.4865 384.167 71.5464H383.634L383.804 74.2754C384.401 74.6804 385.915 75.6185 388.047 75.6185Z" fill="white"/>
<path d="M410.812 62.4001V61.9311H404.992V62.4001C406.1 62.6133 406.761 62.656 406.761 64.0844V68.2844H400.792V64.0844C400.792 62.656 401.453 62.6133 402.561 62.4001V61.9311H396.741V62.4001C397.849 62.6133 398.51 62.656 398.51 64.0844V73.2094C398.51 74.6378 397.849 74.6804 396.741 74.8936V75.3627H402.561V74.8936C401.453 74.6804 400.792 74.6378 400.792 73.2094V69.0093H406.761V73.2094C406.761 74.6378 406.1 74.6804 404.992 74.8936V75.3627H410.812V74.8936C409.703 74.6804 409.042 74.6378 409.042 73.2094V64.0844C409.042 62.656 409.703 62.6133 410.812 62.4001Z" fill="white"/>
<path d="M414.564 75.3627H420.384V74.8936C419.275 74.6804 418.614 74.6378 418.614 73.2094V64.0844C418.614 62.656 419.275 62.6133 420.384 62.4001V61.9311H414.564V62.4001C415.672 62.6133 416.333 62.656 416.333 64.0844V73.2094C416.333 74.6378 415.672 74.6804 414.564 74.8936V75.3627Z" fill="white"/>
<path d="M424.141 75.3627H429.962V74.8936C428.853 74.6804 428.192 74.6378 428.192 73.2094V63.6793C428.192 63.0397 428.448 62.6986 429.749 62.6986C432.499 62.6986 433.416 64.127 433.416 66.0032C433.416 67.986 432.371 69.3931 429.152 69.3931C428.81 69.3931 428.81 70.1393 429.152 70.1393C433.288 70.1393 435.867 68.7108 435.867 65.8753C435.867 62.9971 433.224 61.9311 429.535 61.9311H424.141V62.4001C425.25 62.6133 425.911 62.656 425.911 64.0844V73.2094C425.911 74.6378 425.25 74.6804 424.141 74.8936V75.3627Z" fill="white"/>
<path d="M440.569 75.5759C441.294 75.5759 441.912 75.0002 441.912 74.254C441.912 73.5292 441.294 72.9535 440.569 72.9535C439.844 72.9535 439.226 73.5292 439.226 74.254C439.226 75.0002 439.844 75.5759 440.569 75.5759Z" fill="white"/>
<path d="M453.291 75.3627H463.823L464.697 72.0368H464.122C463.333 73.9982 462.544 74.5952 460.86 74.5952H459.346C457.726 74.5952 457.342 74.4459 457.342 72.9748V64.0844C457.342 62.656 458.238 62.6133 459.346 62.4001V61.9311H453.291V62.4001C454.4 62.6133 455.061 62.656 455.061 64.0844V73.2094C455.061 74.6378 454.4 74.6804 453.291 74.8936V75.3627Z" fill="white"/>
<path d="M478.57 72.1647C477.781 73.9982 476.992 74.5952 475.308 74.5952H473.858C472.238 74.5952 471.854 74.4459 471.854 72.9748V68.9454H473.496C476.076 68.9454 476.332 69.4357 476.459 70.7362H476.907V66.4296H476.459C476.332 67.7301 476.076 68.2205 473.496 68.2205H471.854V64.3189C471.854 62.8478 472.238 62.6986 473.858 62.6986H475.756C477.291 62.6986 477.653 63.4448 477.845 64.9585H478.421L478.229 61.9311H467.804V62.4001C468.912 62.6133 469.573 62.656 469.573 64.0844V73.2094C469.573 74.6378 468.912 74.6804 467.804 74.8936V75.3627H478.272L479.146 72.1647H478.57Z" fill="white"/>
<path d="M490.709 75.6185C492.841 75.6185 494.654 75.0429 495.336 74.4459C495.229 74.0195 495.016 73.3586 495.016 71.9941V70.8428C495.016 69.7768 495.464 69.457 496.444 69.3291V68.7748H490.709V69.3291C492.5 69.457 492.991 69.7768 492.991 71.6956V72.6337C492.991 74.2327 492.522 74.851 490.944 74.851C487.511 74.851 485.529 71.9515 485.529 67.986C485.529 64.4895 487.234 62.3575 490.155 62.3575C492.053 62.3575 493.588 63.2103 494.099 65.4489H494.867C494.803 64.5748 494.76 63.594 494.718 62.5707C493.929 62.1016 492.436 61.59 490.454 61.59C485.934 61.59 483.013 64.6174 483.013 68.6256C483.013 72.5911 485.784 75.6185 490.709 75.6185Z" fill="white"/>
<path d="M512.255 73.6784L507.095 61.7818H506.264L501.232 73.6997C500.827 74.6804 500.55 74.6804 499.441 74.8936V75.3627H503.428V74.8936C502.512 74.6804 501.723 74.6591 502.128 73.6997L503.172 71.184H508.652L509.739 73.6784C510.165 74.6591 509.334 74.6804 508.417 74.8936V75.3627H514.003V74.8936C512.894 74.6804 512.681 74.6591 512.255 73.6784ZM503.471 70.4591L505.859 64.7027L508.353 70.4591H503.471Z" fill="white"/>
<path d="M523.969 75.6185C526.229 75.6185 527.998 74.8084 528.851 73.8703L528.425 73.4226C527.572 74.3393 525.994 74.5738 525.035 74.5738C521.815 74.5738 519.321 71.9088 519.321 67.9646C519.321 64.4682 521.027 62.3575 523.905 62.3575C525.717 62.3575 527.252 63.2103 527.764 65.4489H528.531C528.467 64.5748 528.425 63.594 528.382 62.5707C527.593 62.1016 526.101 61.59 524.225 61.59C519.726 61.59 516.805 64.6174 516.805 68.6256C516.805 72.6977 519.747 75.6185 523.969 75.6185Z" fill="white"/>
<path d="M542.054 61.9311V62.4001C543.184 62.6133 544.079 62.6346 543.418 63.722L540.348 68.7748L537.193 63.722C536.575 62.7199 537.428 62.6133 538.344 62.4001V61.9311H532.716V62.4001C533.824 62.6133 533.888 62.656 534.571 63.722L538.451 69.8195V73.2094C538.451 74.6378 537.79 74.6804 536.468 74.8936V75.3627H542.715V74.8936C541.393 74.6804 540.732 74.6378 540.732 73.2094V69.5636L544.378 63.722C545.039 62.656 545.145 62.6133 546.254 62.4001V61.9311H542.054Z" fill="white"/>
<path d="M145.947 37.9429H172.732V31.0509H154.406V1.39431H145.947V37.9429Z" fill="white"/>
<path d="M204.724 38.5694C215.114 38.5694 221.275 32.6172 221.275 21.8615V1.39431H212.921V21.5482C212.921 28.4925 209.945 31.3641 204.776 31.3641C199.659 31.3641 196.631 28.4925 196.631 21.5482V1.39431H188.173V21.8615C188.173 32.6172 194.334 38.5694 204.724 38.5694Z" fill="white"/>
<path d="M241.12 37.9429H249.579V1.39431H241.12V37.9429Z" fill="white"/>
<path d="M281.748 38.5694C292.191 38.5694 297.255 33.3482 297.255 27.2394C297.255 13.8208 276.005 18.4677 276.005 11.7323C276.005 9.43499 277.937 7.55535 282.949 7.55535C286.186 7.55535 289.684 8.49517 293.078 10.427L295.689 4.00492C292.295 1.86422 287.596 0.767761 283.001 0.767761C272.611 0.767761 267.599 5.93677 267.599 12.15C267.599 25.7252 288.849 21.0261 288.849 27.8659C288.849 30.111 286.813 31.7818 281.8 31.7818C277.414 31.7818 272.82 30.2155 269.739 27.9703L266.868 34.3402C270.105 36.8464 275.952 38.5694 281.748 38.5694Z" fill="white"/>
<path d="M352.804 38.5694C363.246 38.5694 368.311 33.3482 368.311 27.2394C368.311 13.8208 347.06 18.4677 347.06 11.7323C347.06 9.43499 348.992 7.55535 354.005 7.55535C357.242 7.55535 360.74 8.49517 364.134 10.427L366.744 4.00492C363.35 1.86422 358.651 0.767761 354.057 0.767761C343.666 0.767761 338.654 5.93677 338.654 12.15C338.654 25.7252 359.904 21.0261 359.904 27.8659C359.904 30.111 357.868 31.7818 352.856 31.7818C348.47 31.7818 343.875 30.2155 340.795 27.9703L337.923 34.3402C341.16 36.8464 347.008 38.5694 352.804 38.5694Z" fill="white"/>
<path d="M403.068 38.5694C409.438 38.5694 414.711 36.2721 418.157 32.0429L412.727 27.0305C410.273 29.9022 407.193 31.3641 403.538 31.3641C396.698 31.3641 391.842 26.5606 391.842 19.6686C391.842 12.7766 396.698 7.97305 403.538 7.97305C407.193 7.97305 410.273 9.43499 412.727 12.2545L418.157 7.24208C414.711 3.0651 409.438 0.767761 403.12 0.767761C391.738 0.767761 383.28 8.65181 383.28 19.6686C383.28 30.6854 391.738 38.5694 403.068 38.5694Z" fill="white"/>
<path d="M452.291 38.5694C463.778 38.5694 472.289 30.581 472.289 19.6686C472.289 8.75623 463.778 0.767761 452.291 0.767761C440.752 0.767761 432.294 8.80844 432.294 19.6686C432.294 30.5287 440.752 38.5694 452.291 38.5694ZM452.291 31.3641C445.765 31.3641 440.857 26.6128 440.857 19.6686C440.857 12.7244 445.765 7.97305 452.291 7.97305C458.818 7.97305 463.726 12.7244 463.726 19.6686C463.726 26.6128 458.818 31.3641 452.291 31.3641Z" fill="white"/>
<path d="M497.193 37.9429H505.651V8.28632H517.347V1.39431H485.497V8.28632H497.193V37.9429Z" fill="white"/>
<path d="M541.465 37.9429H549.924V8.28632H561.619V1.39431H529.77V8.28632H541.465V37.9429Z" fill="white"/>
</svg>
