<svg width="346" height="115" viewBox="0 0 346 115" fill="none" xmlns="http://www.w3.org/2000/svg">
<g clip-path="url(#clip0_2591_3038)">
<path d="M233.444 55.1363C250.186 50.9708 271.013 45.768 279.552 41.6504C280.605 41.1237 281.052 39.8469 280.557 38.7776C280.047 37.6924 278.754 37.2136 277.669 37.7243C269.529 41.6504 248.941 46.7894 232.391 50.907C230.939 51.274 229.534 51.6252 228.146 51.9603C223.358 53.1573 220.102 53.0615 218.442 51.689C216.208 49.8217 216.495 45.1455 216.766 40.6289C216.846 39.3681 216.926 38.0435 216.942 36.8146C217.006 33.6705 215.633 32.5055 214.468 32.0905C211.931 31.1808 208.579 33.2077 202.866 39.0968C202.467 39.4958 202.068 39.9267 201.653 40.3576C202.084 37.836 202.052 35.2026 200.041 34.1333C198.828 33.495 196.769 33.3992 193.8 36.5752C193.785 36.5911 193.769 36.6071 193.753 36.639C193.226 37.1178 190.672 39.4 178.383 50.0771C179.788 46.0393 181.272 42.1611 182.836 38.4425C182.836 38.4265 182.852 38.4105 182.852 38.3946C183.267 37.3572 182.836 36.1762 181.847 35.6655C180.777 35.1069 179.469 35.5218 178.91 36.5911C178.766 36.8305 177.649 38.5861 170.771 47.6831C167.611 51.0985 165.871 52.2955 165.041 52.7264C165.009 51.9443 165.153 50.4441 165.871 48.0023C166.813 44.8742 168.089 41.8419 169.653 38.9691C170.228 37.9158 169.845 36.6071 168.808 36.0166C167.754 35.442 166.43 35.8091 165.855 36.8625C165.807 36.9423 161.69 44.1401 150.582 51.4656C149.496 52.1837 148.347 52.8062 147.15 53.3169C147.47 52.3593 148.172 50.7474 149.72 48.1938C151.396 45.4328 153.263 42.7995 155.338 40.3257C155.992 39.5756 156.04 38.4744 155.465 37.6604C154.779 36.6869 153.422 36.4475 152.433 37.1338C152.401 37.1657 148.762 39.7192 145.379 40.9002C144.932 41.0598 144.565 41.3471 144.294 41.7302C144.262 41.778 140.575 47.1086 131.159 54.849C129.93 55.8226 129.212 56.1417 128.861 56.2535C128.701 55.7747 128.462 54.45 128.892 51.3219C129.26 48.6088 129.978 45.6403 130.409 43.8688V43.789C131.047 41.2035 130.121 40.0384 129.244 39.4958C127.759 38.6021 126.052 39.3362 124.743 40.0703C123.498 40.7726 121.87 41.9057 119.764 43.5655C117.593 45.2732 114.832 47.5874 111.225 50.7314C113.603 46.3744 116.763 40.7407 120.721 34.0057C121.072 33.7344 121.423 33.4471 121.774 33.1598C125.972 29.6806 129.722 25.6907 132.914 21.2858C134.047 19.7377 135.053 18.1258 135.947 16.4341C136.888 14.5827 137.176 13.3698 136.92 12.3803C136.697 11.4546 135.947 10.7365 135.005 10.5449C133.585 10.2736 132.212 11.0876 129.77 13.689C127.775 15.7957 125.222 18.9717 122.189 23.0892C122.157 23.1371 122.11 23.201 122.078 23.2488C120.402 26.0099 118.838 28.6273 117.37 31.117C111.145 35.9527 105.128 39.017 98.6169 40.7087C99.2553 39.6714 99.8937 38.6659 100.516 37.6764C105.368 30.1913 108.528 27.0951 109.39 26.3131C110.283 25.5151 110.347 24.1426 109.549 23.2488C108.751 22.3551 107.363 22.2913 106.485 23.0892C105.272 24.1905 101.889 27.5899 96.8933 35.2984C95.5686 37.3572 94.228 39.5277 92.9193 41.8259C88.307 42.4643 83.7266 42.5281 78.9706 42.576H78.5077C77.8055 42.576 77.1512 42.9431 76.7522 43.5176C76.7043 43.3421 76.6564 43.1665 76.5766 42.991C76.3532 42.4643 75.6031 41.2354 73.64 41.1396C73.5283 41.1396 73.4166 41.1396 73.3049 41.1396C68.7564 41.6184 65.1655 42.8314 61.6543 45.0498C57.808 47.4916 53.9458 51.2262 49.525 56.828C47.2746 59.6848 45.8064 62.2543 45.152 64.4408C44.1306 67.92 45.4552 69.6915 46.349 70.4416C46.9395 70.9523 47.9769 71.5269 49.6207 71.5269C50.9294 71.5269 52.6052 71.1598 54.7278 70.0905C57.1856 68.8456 59.819 66.8986 62.4523 64.361C62.5959 66.4038 63.2343 68.2073 64.958 69.0052C65.4687 69.2287 66.0113 69.3564 66.5539 69.3564C68.4691 69.3564 70.3683 68.0477 71.7408 66.9305C74.3104 64.8717 77.5023 61.4563 81.5082 56.4769V56.445C82.2742 55.5034 82.1146 54.1468 81.173 53.3967C80.2314 52.6466 78.8748 52.8062 78.1247 53.7478C74.8051 57.8813 72.0122 60.9456 69.8257 62.8608C68.2616 64.2333 67.336 64.7281 66.8891 64.9036C66.7455 64.1216 66.7135 63.3076 66.7933 62.5097C66.8891 61.3286 67.0487 60.1476 67.2721 58.9985C70.4481 55.1842 72.5707 52.4391 74.039 50.3324C75.3796 48.4013 76.2095 46.933 76.5926 45.736C76.9597 46.4702 77.7257 46.933 78.5556 46.933H79.0185C82.8488 46.8851 86.5674 46.8372 90.3179 46.5021C87.3494 52.0241 84.4288 58.1207 81.556 64.76V64.8078C81.0773 65.9091 81.588 67.1858 82.7051 67.6487C83.8223 68.1115 85.0831 67.5848 85.546 66.4836C88.5623 59.4135 91.9458 52.5189 95.6644 45.7999C96.8454 45.5924 98.0424 45.337 99.2553 45.0338C103.868 43.8847 108.289 42.0813 112.406 39.7033C105.32 52.1359 101.841 59.2379 101.793 59.3337C101.41 60.1317 101.538 61.0733 102.128 61.7436C102.926 62.6373 104.299 62.7171 105.192 61.9032C112.63 55.2161 117.545 50.9389 121.12 48.0502C123.275 46.3106 124.759 45.2253 125.78 44.555C123.897 52.7104 123.466 58.1527 126.498 60.0838C129.291 61.8872 132.739 59.1741 133.856 58.2803L133.888 58.2484C139.139 53.9393 142.682 50.3484 144.9 47.8746C142.346 52.5029 141.9 55.232 143.352 56.9238C145.443 59.3656 149.353 57.4026 152.896 55.1682L152.928 55.1363C155.832 53.2371 158.577 51.1304 161.163 48.8163C160.253 52.87 160.652 55.4395 162.376 56.6684C162.966 57.0993 163.685 57.3387 164.419 57.3228C167.132 57.3228 170.388 54.4341 173.388 51.2581C172.941 52.6147 172.494 53.9712 172.063 55.3597C161.737 64.0418 155.29 71.894 151.571 77.1926C146.113 84.9649 143.32 91.7797 143.687 96.3761C143.926 99.3606 145.443 100.797 146.656 101.467C147.741 102.074 148.954 102.393 150.199 102.377C151.475 102.361 152.752 102.074 153.917 101.531C157.349 99.9989 161.067 96.3123 164.371 91.1413C167.419 86.3694 169.845 80.7675 170.994 75.7881C172.446 69.5638 174.058 63.5949 175.83 57.8654C176.787 57.0674 177.777 56.2854 178.782 55.4874C178.814 55.4714 178.846 55.4395 178.862 55.4236C186.076 49.1674 191.247 44.6667 194.215 42.0493C195.253 41.1396 196.003 40.4693 196.434 40.0863C196.641 39.9108 196.753 39.799 196.817 39.7352C196.897 39.6554 196.976 39.5756 197.04 39.4798C197.184 39.3362 197.312 39.2085 197.439 39.0808C197.375 39.5437 197.28 40.1342 197.12 40.8524C196.051 45.6882 192.54 50.7314 190.688 53.1573C190.289 53.652 189.874 54.1627 189.459 54.6894C188.741 55.5991 188.853 56.9078 189.731 57.6739C190.64 58.4559 192.013 58.3761 192.795 57.4664C192.875 57.3866 193.417 56.7482 194.215 55.7108C198.572 50.3165 202.179 46.1191 205.244 42.8952C209.473 38.4265 211.627 36.9582 212.585 36.4794V36.7507C212.569 37.8998 212.489 39.1128 212.409 40.3895C212.074 45.736 211.707 51.7847 215.633 55.0565C218.458 57.4026 222.879 57.7856 229.167 56.2056C230.54 55.8545 231.96 55.5034 233.412 55.1522L233.444 55.1363ZM69.8895 48.6567C68.5489 50.508 66.6816 52.87 64.0962 55.9981C63.745 56.2375 63.4737 56.5567 63.3141 56.9397C62.8673 57.4824 62.3885 58.0569 61.8937 58.6474C54.9672 66.3719 50.0197 67.4731 49.1898 67.0741C49.0143 66.6273 49.1898 64.2493 52.9563 59.4773C60.6808 49.694 65.9634 46.6936 71.8845 45.6722C71.278 46.7096 70.6237 47.6991 69.9055 48.6726L69.8895 48.6567ZM166.765 74.7667C165.711 79.2833 163.509 84.3904 160.7 88.7633C157.891 93.1682 154.763 96.3601 152.146 97.5252C150.167 98.403 149.113 97.8125 148.762 97.621C148.603 97.5412 148.124 97.2698 148.012 95.9771C147.581 90.6945 154.316 77.5118 169.733 63.18C168.68 66.9464 167.69 70.8087 166.765 74.7667Z" fill="white"/>
<path d="M85.7378 82.89C67.4799 87.9492 53.8184 87.646 45.1683 81.9803C39.4866 78.2617 36.0074 72.2609 34.8264 64.1374C34.4115 60.9933 33.6454 57.9131 32.5442 54.9446C33.2943 53.6519 34.0444 52.3432 34.8104 51.0026C37.4917 49.8694 40.0612 48.5288 42.5349 46.9807C48.041 43.6132 54.393 38.7934 61.3993 32.633C70.2409 24.8606 79.9763 15.1571 90.3501 3.77787C90.3501 3.76191 90.382 3.74595 90.398 3.72999C91.196 2.83624 91.1162 1.46371 90.2065 0.665728C89.3128 -0.132256 87.9402 -0.0524579 87.1422 0.857244C67.5278 22.3869 50.6744 37.389 38.5131 44.3314C47.4186 27.9568 53.18 14.806 53.2439 14.6783C53.2439 14.6783 53.2439 14.6464 53.2598 14.6304C53.7227 13.5292 53.212 12.2525 52.1107 11.7896C51.0095 11.3268 49.7327 11.8375 49.254 12.9387C49.1901 13.0664 43.4766 26.0895 34.6508 42.3205C33.6773 44.108 32.7197 45.8316 31.7781 47.5234C30.9322 47.8266 30.0704 48.0819 29.2086 48.2894C28.9692 47.9223 28.7298 47.5712 28.5064 47.252C25.8411 43.5015 22.6013 40.8522 19.8403 40.1659C17.2548 39.5116 15.994 40.8043 15.579 41.3948C14.3821 43.0546 14.781 45.4805 16.776 48.6086C16.8079 48.6724 16.8558 48.7203 16.8877 48.7682C18.9625 51.4494 21.8033 52.8858 25.3464 53.0294C25.873 53.0454 26.4157 53.0294 26.9423 53.0135C27.1977 53.5082 27.453 54.0349 27.7084 54.5935C16.2015 74.0643 6.88101 85.667 0.704609 92.2264C-0.109335 93.1042 -0.0774152 94.4767 0.800367 95.3066C1.67815 96.1365 3.05068 96.0887 3.86463 95.2109C9.91334 88.7791 16.2813 80.528 22.7928 70.6968C25.0431 67.2974 27.3094 63.7065 29.5757 59.94C29.9906 61.52 30.2939 63.116 30.5173 64.7279C31.044 68.654 32.225 72.4524 34.0284 75.9475C36.0713 79.8736 39.0876 83.1932 42.7903 85.6191C48.0729 89.0664 54.8398 90.79 63.0431 90.79C70.0015 90.79 77.9495 89.5452 86.9028 87.0714C88.036 86.7523 88.7063 85.5712 88.4031 84.4221C88.0998 83.2571 86.9028 82.5708 85.7537 82.874L85.7378 82.89ZM20.3829 46.1987C20.0797 45.7199 19.7924 45.2092 19.569 44.6825C20.6063 45.1932 22.2023 46.3264 23.9898 48.4969C22.5534 48.1777 21.2766 47.3638 20.3829 46.1987Z" fill="white"/>
<path d="M185.167 86.8004C185.167 89.4656 183.986 90.6307 182.071 90.6307C180.459 90.6307 179.166 89.7689 177.841 88.3165L174.649 91.8755C176.229 93.7588 178.607 95.3388 182.198 95.3388C184.704 95.3388 186.779 94.6206 188.199 93.2002C189.62 91.7798 190.37 89.7689 190.37 87.0398V71.9419H185.167V86.8163V86.8004Z" fill="white"/>
<path d="M206.01 71.7822L196.115 95.0355H201.286L203.393 89.8645H213.16L215.267 95.0355H220.581L210.686 71.7822H206.01ZM205.212 85.3639L208.277 77.8788L211.341 85.3639H205.196H205.212Z" fill="white"/>
<path d="M248.016 71.9419H243.005V86.146L232.184 71.9419H227.492V95.0196H232.504V80.3526L243.675 95.0196H248V71.9419H248.016Z" fill="white"/>
<path d="M262.236 71.9419H257.161V95.0196H262.236V71.9419Z" fill="white"/>
<path d="M282.345 90.7264C278.387 90.7264 275.658 87.4227 275.658 83.4647V83.4009C275.658 79.4429 278.467 76.219 282.345 76.219C284.659 76.219 286.463 77.2085 288.25 78.8204L291.49 75.0859C289.351 72.9792 286.734 71.5269 282.393 71.5269C275.307 71.5269 270.359 76.9053 270.359 83.4647V83.5285C270.359 90.1518 275.403 95.4025 282.201 95.4025C286.654 95.4025 289.288 93.8225 291.666 91.2849L288.426 88.0132C286.606 89.6571 284.994 90.7104 282.361 90.7104L282.345 90.7264Z" fill="white"/>
<path d="M304.114 85.6513H314.998V81.1347H304.114V76.4585H316.482V71.9419H299.07V95.0196H316.642V90.503H304.114V85.6513Z" fill="white"/>
<path d="M345.53 95.0196L335.699 81.7251L345.099 71.9259H338.971L329.603 82.0124V71.9259H324.527V95.0036H329.603V87.9494L332.268 85.1884L339.434 95.0196H345.53Z" fill="white"/>
<path d="M181.847 103.542H177.602V113.948H179.884V110.82H181.623C183.954 110.82 185.821 109.575 185.821 107.165V107.133C185.821 105.01 184.321 103.542 181.831 103.542H181.847ZM183.507 107.213C183.507 108.106 182.836 108.793 181.687 108.793H179.868V105.617H181.639C182.788 105.617 183.491 106.159 183.491 107.197V107.229L183.507 107.213Z" fill="white"/>
<path d="M201.669 107.005V106.973C201.669 106 201.35 105.17 200.776 104.595C200.089 103.909 199.068 103.542 197.743 103.542H192.987V113.948H195.27V110.612H197.073L199.307 113.948H201.989L199.451 110.229C200.776 109.734 201.685 108.681 201.685 107.005H201.669ZM199.355 107.117C199.355 107.995 198.717 108.585 197.6 108.585H195.286V105.601H197.568C198.685 105.601 199.371 106.111 199.371 107.085V107.117H199.355Z" fill="white"/>
<path d="M214.277 103.35C211.069 103.35 208.739 105.776 208.739 108.729V108.761C208.739 111.713 211.037 114.107 214.261 114.107C217.485 114.107 219.799 111.681 219.799 108.729V108.697C219.799 105.744 217.501 103.35 214.277 103.35ZM217.405 108.761C217.405 110.548 216.129 112.001 214.277 112.001C212.426 112.001 211.133 110.516 211.133 108.729V108.697C211.133 106.909 212.41 105.457 214.261 105.457C216.113 105.457 217.421 106.941 217.421 108.729V108.761H217.405Z" fill="white"/>
<path d="M231.338 103.542H227.284V113.948H231.338C234.61 113.948 236.86 111.681 236.86 108.745V108.713C236.86 105.792 234.594 103.542 231.338 103.542ZM234.466 108.777C234.466 110.612 233.205 111.889 231.338 111.889H229.566V105.617H231.338C233.205 105.617 234.466 106.909 234.466 108.745V108.777Z" fill="white"/>
<path d="M250.984 109.495C250.984 111.139 250.138 111.985 248.75 111.985C247.361 111.985 246.499 111.107 246.499 109.415V103.526H244.201V109.479C244.201 112.543 245.909 114.107 248.702 114.107C251.495 114.107 253.266 112.559 253.266 109.415V103.542H250.984V109.495Z" fill="white"/>
<path d="M266.019 112.001C264.231 112.001 263.002 110.516 263.002 108.729V108.697C263.002 106.909 264.263 105.457 266.019 105.457C267.056 105.457 267.87 105.904 268.684 106.638L270.136 104.962C269.179 104.005 267.998 103.35 266.035 103.35C262.843 103.35 260.608 105.776 260.608 108.729V108.761C260.608 111.745 262.875 114.107 265.939 114.107C267.95 114.107 269.131 113.389 270.2 112.256L268.748 110.788C267.934 111.538 267.2 112.001 266.019 112.001Z" fill="white"/>
<path d="M276.743 105.649H279.919V113.948H282.201V105.649H285.377V103.542H276.759V105.649H276.743Z" fill="white"/>
<path d="M294.97 103.542H292.672V113.948H294.97V103.542Z" fill="white"/>
<path d="M308.12 103.35C304.912 103.35 302.582 105.776 302.582 108.729V108.761C302.582 111.713 304.88 114.107 308.104 114.107C311.328 114.107 313.642 111.681 313.642 108.729V108.697C313.642 105.744 311.344 103.35 308.12 103.35ZM311.248 108.761C311.248 110.548 309.971 112.001 308.12 112.001C306.269 112.001 304.976 110.516 304.976 108.729V108.697C304.976 106.909 306.253 105.457 308.104 105.457C309.955 105.457 311.264 106.941 311.264 108.729V108.761H311.248Z" fill="white"/>
<path d="M328.101 109.942L323.234 103.542H321.127V113.948H323.393V107.34L328.436 113.948H330.384V103.542H328.117V109.942H328.101Z" fill="white"/>
<path d="M342.545 107.707C340.742 107.245 340.295 107.021 340.295 106.335V106.303C340.295 105.792 340.758 105.393 341.635 105.393C342.513 105.393 343.423 105.776 344.349 106.415L345.53 104.691C344.476 103.845 343.184 103.366 341.667 103.366C339.545 103.366 338.029 104.611 338.029 106.495V106.526C338.029 108.585 339.385 109.176 341.476 109.702C343.215 110.149 343.567 110.453 343.567 111.027V111.059C343.567 111.665 343.008 112.033 342.066 112.033C340.869 112.033 339.896 111.538 338.954 110.772L337.598 112.384C338.843 113.501 340.438 114.043 342.003 114.043C344.253 114.043 345.817 112.878 345.817 110.82V110.788C345.817 108.968 344.62 108.218 342.513 107.66L342.545 107.707Z" fill="white"/>
</g>
<defs>
<clipPath id="clip0_2591_3038">
<rect width="345.735" height="114" fill="white" transform="translate(0.114258 0.123291)"/>
</clipPath>
</defs>
</svg>
