<svg width="535" height="140" viewBox="0 0 535 140" fill="none" xmlns="http://www.w3.org/2000/svg">
<path opacity="0.5" d="M20.7084 18.4018V34.2579C20.1074 36.0531 18.4045 37.3613 16.4154 37.3613H15.9384C13.6965 37.3613 11.8219 35.7093 11.4689 33.5608V24.1837L0.121094 30.4001V112.082L11.4689 118.236V44.0169C11.8267 41.8732 13.6965 40.226 15.9384 40.226H16.4154C18.4093 40.226 20.1074 41.5294 20.7084 43.3246V66.6623L32.0563 66.6098V12.1807L20.7084 18.4018Z" fill="white"/>
<path opacity="0.5" d="M103.154 24.1783V61.7058V99.2332H103.054C102.815 101.506 100.879 103.292 98.5462 103.292H98.0692C95.7366 103.292 93.8 101.506 93.5615 99.2332H91.8682V109.976H93.5949C93.9384 107.818 95.8177 106.156 98.0692 106.156H98.5462C100.798 106.156 102.677 107.818 103.02 109.976H103.154V117.758L114.502 111.604V30.3995L103.154 24.1783Z" fill="white"/>
<path d="M73.1672 7.11446V133.199L61.8193 139.353V0.893311L73.1672 7.11446Z" fill="white"/>
<path d="M41.2083 17.6565V121.74L32.1453 116.488V75.6187H20.6973V121.984L52.4989 139.353V0.893311L41.1081 6.99987" fill="white"/>
<path d="M93.681 65.8884L86.0489 70.6533L93.681 75.4278V122.218L82.2329 128.448V75.5376L73.1699 70.8825L82.2329 65.7309V12.4047L93.681 19.2083V65.8884Z" fill="white"/>
<path d="M154.687 77.7995H154.187V78.2995V85.6467C154.187 86.5483 154.359 87.4108 154.704 88.23L154.707 88.2374L154.71 88.2447C155.071 89.0301 155.54 89.7245 156.119 90.3244L156.119 90.3244L156.125 90.3308C156.728 90.9338 157.428 91.4072 158.221 91.7504L158.226 91.7522C159.045 92.0972 159.908 92.2693 160.809 92.2693H178.132C179.032 92.2693 179.886 92.0975 180.687 91.7513C181.5 91.4087 182.203 90.9346 182.789 90.3276C183.39 89.7261 183.862 89.0282 184.204 88.2372C184.571 87.4167 184.754 86.5516 184.754 85.6467V48.9408V48.4408H184.254H178.132H177.632V48.9408V85.1467H161.309V78.2995V77.7995H160.809H154.687ZM217.189 48.9408V48.4408H216.689H210.567H210.067V48.9408V91.7693V92.2693H210.567H216.689H217.189V91.7693V48.9408ZM264.657 91.9961L264.796 92.2693H265.103H266.925H267.231L267.37 91.9961L282.403 62.4641V91.7693V92.2693H282.903H288.996H289.496V91.7693V48.9408V48.4408H288.996H282.336H282.028L281.89 48.7149L265.999 80.0891L250.138 48.7152L249.999 48.4408H249.692H243.002H242.502V48.9408V91.7693V92.2693H243.002H249.124H249.624V91.7693V62.4641L264.657 91.9961ZM337.24 48.9408V48.4408H336.74H330.618H330.118V48.9408V91.7693V92.2693H330.618H336.74H337.24V91.7693V73.6299L357.76 92.1405L357.903 92.2693H358.095H366.726H368.023L367.062 91.3987L343.369 69.9369L366.136 49.3113L367.097 48.4408H365.8H357.169H356.976L356.834 48.5701L337.24 66.3013V48.9408ZM395.694 91.9067L395.798 92.2693H396.175H402.895H403.271L403.375 91.907L412.093 61.4809L420.782 91.9066L420.885 92.2693H421.262H427.982H428.359L428.463 91.9067L440.708 49.0782L440.891 48.4408H440.228H434.105H433.725L433.623 48.8066L424.608 81.1533L415.622 48.807L415.52 48.4408H415.14H409.017H408.637L408.535 48.807L399.549 81.1533L390.534 48.8066L390.432 48.4408H390.052H383.929H383.266L383.449 49.0782L395.694 91.9067ZM469.489 48.9408V48.4408H468.989H462.866H462.366V48.9408V91.7693V92.2693H462.866H468.989H469.489V91.7693V48.9408ZM501.924 48.9408V48.4408H501.424H495.301H494.801V48.9408V91.7693V92.2693H495.301H501.424H501.924V91.7693V73.6298L522.444 92.1405L522.586 92.2693H522.778H531.41H532.707L531.746 91.3987L508.052 69.9369L530.82 49.3113L531.781 48.4408H530.484H521.853H521.66L521.517 48.5701L501.924 66.3013V48.9408Z" fill="white" stroke="white"/>
</svg>
