<svg width="182" height="188" viewBox="0 0 182 188" fill="none" xmlns="http://www.w3.org/2000/svg">
<path d="M14.0452 46.7632C13.9411 46.9461 13.8843 47.047 13.8717 47.0659C12.2979 46.7443 11.2099 47.129 10.6138 48.2077C10.2795 48.8037 10.188 49.3588 10.3299 49.8729C10.4718 50.387 10.7242 50.7402 11.0774 50.9421C11.4117 51.125 11.7649 51.1439 12.1466 51.002C12.5313 50.8632 12.9855 50.4595 13.5185 49.7909C14.0547 49.1349 14.5183 48.6618 14.9125 48.378C15.3068 48.0973 15.7893 47.9459 16.357 47.9143C16.9215 47.886 17.4861 48.0247 18.0317 48.3275C18.8675 48.8037 19.4131 49.4597 19.6654 50.3271C19.9177 51.1849 19.8168 52.0239 19.3627 52.8313C18.9905 53.4873 18.385 54.0108 17.5271 54.3956C17.5397 54.4555 17.6059 54.7551 17.7289 55.2913L17.6059 55.5152L15.2058 54.1717C15.2973 54.0077 15.3478 53.9193 15.3572 53.9004C16.2561 54.0707 17.013 54.0297 17.6469 53.7995C18.284 53.5567 18.7476 53.1719 19.0504 52.6389C19.3532 52.1027 19.4447 51.5192 19.3437 50.8727C19.2428 50.2261 18.918 49.7625 18.3849 49.4597C17.9308 49.2074 17.4672 49.1475 16.9815 49.2863C16.4958 49.4282 16.0038 49.8035 15.4991 50.428C14.9945 51.0525 14.5593 51.5066 14.1966 51.7905C13.8339 52.0743 13.3892 52.2446 12.853 52.2856C12.32 52.3361 11.8154 52.2257 11.3486 51.9608C10.7052 51.5981 10.2511 51.043 9.99876 50.2955C9.74645 49.5512 9.83475 48.7817 10.2795 47.9963C10.6548 47.3403 11.1972 46.8357 11.9352 46.5014C11.8753 46.2586 11.7744 46.0283 11.6419 45.7949C11.6514 45.7792 11.7019 45.7035 11.7933 45.5647L14.0452 46.7632Z" fill="white"/>
<path d="M24.3315 33.3807C24.2085 33.5258 24.1423 33.6078 24.1297 33.6236C22.5432 32.7562 21.3038 32.8761 20.3954 33.9768C19.9097 34.5729 19.7773 35.1879 20.0201 35.8439C20.263 36.4999 21.1208 37.4398 22.6032 38.6698C23.8269 39.679 24.7037 40.3161 25.2493 40.5558C25.7823 40.8081 26.268 40.8586 26.6906 40.7293C27.1164 40.5968 27.4791 40.354 27.7629 40.0133C28.1351 39.5592 28.318 38.9915 28.3054 38.3165C28.2959 37.6416 28.0026 36.8847 27.4286 36.0363C27.4444 36.0174 27.5169 35.9322 27.6494 35.7745L29.8823 37.7709C29.7657 37.9097 29.7026 37.9885 29.69 38.0043C29.3777 37.8939 29.0623 37.8624 28.7406 37.9034C28.7406 38.9032 28.4789 39.72 27.9648 40.3445C27.3088 41.1424 26.3279 41.5556 25.0254 41.5966C23.726 41.6281 22.5243 41.1929 21.4331 40.2846C20.3134 39.3573 19.6385 38.2566 19.3957 36.9635C19.1528 35.6736 19.3862 34.6013 20.0927 33.756C20.6351 33.1 21.3416 32.7152 22.231 32.6049C22.1206 32.2611 22.0102 31.9898 21.8872 31.7659C21.8999 31.7502 21.9661 31.6682 22.0796 31.5231L24.3315 33.3807Z" fill="white"/>
<path d="M35.4988 30.2516C34.1363 29.9898 33.0766 29.3843 32.3102 28.4444C31.3924 27.3153 30.9666 26.0632 31.0392 24.6818C31.1086 23.2973 31.6226 22.2187 32.5814 21.4428C33.4803 20.7143 34.6094 20.4619 35.9845 20.6953C37.3564 20.9256 38.4571 21.5532 39.2929 22.5814C40.1602 23.6411 40.5545 24.8616 40.4945 26.2462C40.4441 27.6181 39.9394 28.6873 39.0122 29.4442C38.0219 30.2422 36.8518 30.5134 35.4988 30.2516ZM31.897 22.9441C31.7236 23.4108 31.7646 23.9249 32.0263 24.4895C32.2881 25.0635 32.9063 25.9339 33.8651 27.1135C34.5305 27.9303 35.0856 28.5454 35.5492 28.9806C36.0129 29.4158 36.508 29.6681 37.0536 29.7565C37.5993 29.8479 38.1543 29.6555 38.7473 29.173C39.1131 28.8797 39.3938 28.4854 39.6051 27.9903C39.8196 27.4983 39.7471 26.9306 39.3938 26.2651C39.0406 25.6091 38.394 24.6913 37.4353 23.5212C36.5679 22.4615 35.9025 21.774 35.4389 21.4806C34.9752 21.1905 34.5085 21.0769 34.0543 21.1495C33.6127 21.2189 33.187 21.4207 32.7833 21.7456C32.3701 22.0862 32.0673 22.4804 31.897 22.9441Z" fill="white"/>
<path d="M51.9606 9.48474L53.7268 12.3296C53.5281 12.4336 53.4177 12.4904 53.3956 12.4999C52.6765 11.6136 52.0521 11.068 51.5159 10.8661C50.9829 10.6643 50.4467 10.6958 49.9011 10.986C49.8538 11.0112 49.6204 11.1374 49.1947 11.3613L53.383 19.4132L54.9474 18.6058L55.1208 18.9401L50.4562 21.3623L50.2859 21.028L51.8502 20.2206L47.6619 12.1687C47.2392 12.3926 47.0027 12.5156 46.9554 12.5409C46.4098 12.8247 46.066 13.2473 45.9272 13.8024C45.7853 14.3575 45.8768 15.187 46.189 16.2845C46.1669 16.2971 46.0565 16.3539 45.8547 16.458L44.5332 13.3483L51.9606 9.48474Z" fill="white"/>
<path d="M68.7947 3.55676L69.9837 6.68542C69.7724 6.74535 69.6557 6.78004 69.6305 6.78635C69.0974 5.7771 68.5834 5.12109 68.0977 4.81832C67.612 4.51554 67.079 4.44616 66.4829 4.62593C66.4324 4.6417 66.1769 4.71739 65.7165 4.84986L68.2806 13.5483L69.9648 13.0531L70.0657 13.4064L65.0289 14.8918L64.928 14.5291L66.6153 14.034L64.0512 5.3324C63.5908 5.46802 63.3353 5.54056 63.2848 5.55633C62.6982 5.72664 62.2756 6.07987 62.0327 6.59396C61.7899 7.1112 61.7205 7.94698 61.8088 9.07922C61.7867 9.08553 61.67 9.11707 61.4556 9.18015L60.7617 5.92849L68.7947 3.55676Z" fill="white"/>
<path d="M91.0618 1.32788L89.529 1.25849L89.5479 0.883179C92.3265 1.00618 93.8719 1.07241 94.181 1.08503C95.2092 1.12603 96.0765 1.31842 96.7956 1.63065C97.5115 1.95235 98.095 2.54843 98.5491 3.41575C99.0033 4.28623 99.2051 5.21347 99.1673 6.20379C99.1168 7.25088 98.8141 8.18128 98.2369 8.97922C97.6629 9.774 97.0258 10.3102 96.3099 10.5719C95.5939 10.8337 94.7361 10.9346 93.7363 10.8968C93.4304 10.881 91.8944 10.8148 89.1348 10.6949L89.1537 10.3196L90.6676 10.3922L91.0618 1.32788ZM92.4053 10.4615C93.1686 10.4931 93.5912 10.5089 93.6764 10.512C94.3418 10.5435 94.8875 10.5025 95.3195 10.4016C95.7453 10.3007 96.108 10.0484 96.4013 9.64469C96.6946 9.25045 96.9059 8.73636 97.0258 8.10874C97.1488 7.48427 97.2371 6.66741 97.2781 5.64871C97.3286 4.425 97.2182 3.50722 96.9343 2.90167C96.6536 2.28666 96.2909 1.90189 95.8462 1.74104C95.4015 1.58019 94.8149 1.47926 94.099 1.44773C94.0138 1.44457 93.5786 1.4288 92.7964 1.39726L92.4053 10.4615Z" fill="white"/>
<path d="M108.625 9.68558L107.01 12.0573L108.776 12.4894L108.684 12.8521L105.225 12.0163L105.316 11.6536L106.628 11.9753L112.39 3.41565L112.611 3.46611L113.661 13.6816L114.942 13.9938L114.853 14.3565L110.299 13.2463L110.391 12.8836L111.936 13.2558L111.652 10.4204L108.625 9.68558ZM111.602 10.0262L111.189 5.86938L111.157 5.85991L108.836 9.35127L111.602 10.0262Z" fill="white"/>
<path d="M129.365 20.724L129.094 20.5947L127.47 9.0294L127.438 9.01679L123.493 17.2421L124.997 17.9612L124.833 18.2924L121.686 16.7785L121.846 16.4474L123.158 17.0813L127.085 8.89694L125.682 8.22201L125.842 7.8877L129.223 9.51195L130.375 17.6963L130.406 17.7089L133.222 11.8332L131.759 11.1267L131.92 10.7956L135.058 12.3094L134.897 12.6406L133.554 12.0067L129.365 20.724Z" fill="white"/>
<path d="M143.854 30.6274L143.624 30.4445L144.501 18.8066L144.482 18.7877L138.868 25.9722L140.18 26.9941L139.95 27.2843L137.193 25.1365L137.427 24.8432L138.578 25.742L144.157 18.5858L142.927 17.6271L143.157 17.3337L146.116 19.6455L145.491 27.8898L145.51 27.9119L149.516 22.7742L148.235 21.7744L148.469 21.4811L151.212 23.6226L150.979 23.9159L149.809 22.995L143.854 30.6274Z" fill="white"/>
<path d="M156.746 35.8844C157.083 36.2881 157.272 36.5152 157.31 36.5593C157.512 36.8022 157.704 36.9851 157.894 37.1144C158.076 37.2469 158.329 37.2879 158.65 37.2469C158.966 37.2059 159.357 37.0135 159.811 36.6603C159.83 36.6792 159.909 36.777 160.054 36.9536L156.865 39.6281C156.72 39.4515 156.638 39.3537 156.623 39.3348C157.209 38.8018 157.502 38.3476 157.531 37.9818C157.553 37.6191 157.389 37.2248 157.036 36.8022C156.998 36.758 156.812 36.531 156.471 36.1273L153.03 39.0131C153.8 39.934 154.226 40.4449 154.311 40.5459C155.039 41.4132 155.724 41.8579 156.37 41.8894C157.017 41.9178 157.742 41.6466 158.562 41.0726C158.578 41.0915 158.657 41.183 158.802 41.3533L156.219 43.3938L150.627 36.7202L150.911 36.4805L151.911 37.6695L158.865 31.838L157.865 30.6458L158.146 30.403L163.507 36.8022L161.609 38.6188C161.464 38.4485 161.382 38.3539 161.366 38.335C161.893 37.7294 162.164 37.1554 162.183 36.6319C162.205 36.1052 161.912 35.4807 161.315 34.7742C161.227 34.667 160.779 34.1372 159.975 33.1784L156.746 35.8844Z" fill="white"/>
<path d="M169.883 47.0975L169.157 45.735L169.488 45.5647C171.002 48.4158 171.844 49.9991 172.012 50.3176C172.346 50.9421 172.557 51.4782 172.658 51.9324C172.759 52.3866 172.718 52.8502 172.538 53.3138C172.355 53.7774 172.043 54.1307 171.598 54.364C171.053 54.6574 170.498 54.6763 169.933 54.4334C169.369 54.1937 168.731 53.6166 168.025 52.6988C168.022 52.7019 168 52.7177 167.997 52.7177C168.236 53.5157 168.277 54.2631 168.116 54.9381C167.956 55.6161 167.378 56.2217 166.401 56.7452C165.836 57.048 165.511 57.3003 165.433 57.5116C165.341 57.7261 165.36 57.9563 165.483 58.1897C165.562 58.3411 165.685 58.502 165.865 58.6849C165.833 58.7006 165.584 58.8394 165.552 58.8552C165.221 58.5524 164.969 58.2181 164.786 57.8775C164.414 57.1584 164.341 56.5528 164.584 56.0482C164.827 55.5436 165.139 55.203 165.524 55.0011C165.634 54.9444 166.521 54.4997 166.634 54.446C167.016 54.2442 167.328 53.9194 167.571 53.4747C167.814 53.0331 167.713 52.3866 167.249 51.5192C167.221 51.4656 167.076 51.1944 166.814 50.7118L162.698 52.9006L163.423 54.2631L163.089 54.4334L160.818 50.1662L161.153 49.9928L161.869 51.3552L169.883 47.0975ZM167.107 50.5384C167.476 51.2354 167.681 51.6233 167.722 51.699C167.984 52.2036 168.227 52.5663 168.429 52.7903C168.631 53.0205 168.924 53.134 169.287 53.1435C169.649 53.153 170.144 52.9921 170.759 52.6578C171.264 52.3866 171.589 52.1122 171.74 51.8315C171.892 51.5476 171.933 51.2764 171.86 51.0241C171.791 50.7718 171.658 50.4595 171.466 50.0937C171.415 49.9959 171.16 49.5102 170.7 48.6303L167.107 50.5384Z" fill="white"/>
<path d="M10.0549 121.346L9.49031 119.905L9.83093 119.773L12.8397 127.493L10.1242 128.686C10.0517 128.503 10.0107 128.402 10.0044 128.383C10.0959 128.351 10.3671 128.149 10.8528 127.777C11.3259 127.402 11.6192 127.03 11.7201 126.636C11.821 126.241 11.7296 125.677 11.4457 124.951C11.3953 124.819 11.1366 124.157 10.6699 122.961L6.70227 124.507C6.79374 124.731 6.8442 124.857 6.85366 124.879C7.00505 125.283 7.15643 125.585 7.30782 125.8C7.44974 126.011 7.68313 126.153 8.00483 126.222C8.31706 126.292 8.7523 126.241 9.30739 126.071C9.31685 126.093 9.361 126.21 9.43985 126.415L5.56372 127.929C5.48487 127.724 5.44072 127.607 5.43125 127.585C5.9958 127.323 6.39004 127.061 6.59189 126.818C6.79373 126.566 6.8852 126.314 6.85366 126.071C6.82527 125.819 6.72435 125.465 6.54142 125.011C6.53196 124.986 6.48465 124.863 6.3995 124.639L2.23321 126.263L2.85768 127.878L2.51391 128.008L0.697266 123.337L1.04104 123.204L1.59612 124.649L10.0549 121.346Z" fill="white"/>
<path d="M16.7391 135.8L15.9128 134.497L16.225 134.296C17.9565 137.027 18.9184 138.544 19.1108 138.847C19.4861 139.443 19.7479 139.957 19.8898 140.411C20.0286 140.856 20.0192 141.319 19.8772 141.805C19.7258 142.288 19.4451 142.663 19.0194 142.925C18.4958 143.259 17.9407 143.328 17.3667 143.127C16.7801 142.925 16.1052 142.401 15.3262 141.543C15.323 141.543 15.3009 141.559 15.2978 141.562C15.6006 142.338 15.7015 143.076 15.5879 143.773C15.4776 144.47 14.954 145.104 14.0141 145.7C13.4811 146.044 13.1784 146.315 13.1058 146.539C13.0364 146.76 13.0648 146.981 13.2068 147.205C13.2982 147.346 13.4401 147.507 13.6199 147.668C13.5915 147.687 13.3487 147.842 13.3171 147.861C12.9639 147.577 12.6832 147.274 12.4719 146.943C12.0367 146.265 11.9263 145.659 12.1281 145.136C12.33 144.609 12.6107 144.246 12.986 144.025C13.0932 143.959 13.9479 143.442 14.0551 143.379C14.4178 143.145 14.7112 142.805 14.9225 142.338C15.1338 141.884 14.9729 141.241 14.4494 140.411C14.4147 140.361 14.2507 140.102 13.9542 139.635L10.0182 142.127L10.8445 143.429L10.5323 143.631L7.94922 139.544L8.26145 139.342L9.07831 140.654L16.7391 135.8ZM14.2475 139.443C14.6702 140.108 14.9067 140.48 14.954 140.553C15.2568 141.026 15.5186 141.379 15.7393 141.581C15.9633 141.796 16.2566 141.884 16.6287 141.865C16.9914 141.846 17.4771 141.644 18.0606 141.269C18.5463 140.966 18.8491 140.663 18.9689 140.37C19.0919 140.08 19.1108 139.806 19.032 139.553C18.95 139.301 18.7891 139.008 18.5652 138.654C18.5084 138.563 18.212 138.099 17.679 137.263L14.2475 139.443Z" fill="white"/>
<path d="M25.1258 153.967C25.4979 154.348 25.7029 154.56 25.7439 154.601C25.9553 154.825 26.1666 154.995 26.359 155.105C26.5513 155.219 26.8037 155.247 27.1253 155.187C27.4376 155.127 27.8129 154.904 28.2355 154.531C28.2544 154.55 28.3396 154.642 28.4973 154.803L25.5011 157.692C25.3434 157.528 25.2551 157.436 25.2393 157.417C25.7818 156.843 26.0467 156.367 26.0467 156.004C26.0467 155.642 25.8543 155.257 25.4696 154.866C25.4286 154.822 25.2236 154.61 24.8545 154.229L21.625 157.348C22.4544 158.212 22.9149 158.695 23.0064 158.789C23.7948 159.609 24.5108 160 25.1573 159.991C25.8039 159.981 26.5103 159.66 27.2862 159.023C27.3051 159.041 27.3903 159.133 27.548 159.294L25.1163 161.505L19.0703 155.238L19.3447 154.976L20.4233 156.096L26.9645 149.797L25.8827 148.678L26.1571 148.416L31.9508 154.43L30.172 156.367C30.0143 156.206 29.9292 156.115 29.9102 156.096C30.3959 155.449 30.6262 154.866 30.6072 154.339C30.5883 153.815 30.254 153.21 29.6169 152.554C29.5223 152.453 29.0366 151.948 28.1661 151.04L25.1258 153.967Z" fill="white"/>
<path d="M38.2357 165.412C38.671 165.715 38.9138 165.882 38.9643 165.917C39.2166 166.096 39.4563 166.219 39.6708 166.298C39.8821 166.371 40.1344 166.349 40.4372 166.229C40.7305 166.106 41.0522 165.816 41.3959 165.362C41.4149 165.374 41.5189 165.45 41.7082 165.582L39.3364 168.995C39.1472 168.859 39.0431 168.787 39.0242 168.771C39.4468 168.096 39.6203 167.582 39.5383 167.229C39.4689 166.863 39.204 166.532 38.7498 166.219C38.7025 166.185 38.4597 166.018 38.0244 165.715L35.4603 169.399C36.4475 170.083 36.9963 170.461 37.1066 170.537C38.0339 171.184 38.8129 171.436 39.4468 171.294C40.0745 171.152 40.7084 170.698 41.3455 169.932C41.3644 169.947 41.4653 170.017 41.6482 170.143L39.6897 172.789L32.543 167.812L32.7574 167.509L34.0379 168.399L39.2261 160.949L37.9424 160.063L38.1569 159.76L45.0071 164.532L43.6447 166.784C43.4649 166.655 43.364 166.585 43.3419 166.573C43.6951 165.844 43.8087 165.229 43.6857 164.715C43.5658 164.201 43.1211 163.674 42.3642 163.151C42.2506 163.072 41.6735 162.674 40.639 161.959L38.2357 165.412Z" fill="white"/>
<path d="M53.2308 169.509L51.8305 168.903L51.9819 168.56C54.5365 169.66 55.9558 170.275 56.2396 170.395C57.1795 170.799 57.9238 171.285 58.4789 171.84C59.034 172.395 59.3683 173.161 59.4787 174.129C59.5891 175.101 59.4503 176.038 59.0561 176.955C58.6429 177.914 58.0153 178.671 57.1984 179.217C56.3816 179.762 55.5836 180.024 54.8267 180.015C54.0698 180.005 53.2308 179.794 52.3036 179.4C52.0229 179.277 50.6131 178.668 48.0742 177.574L48.2256 177.23L49.6291 177.835L53.2308 169.509ZM51.2344 178.52C51.9377 178.822 52.3257 178.993 52.4045 179.024C53.0195 179.289 53.5462 179.45 53.9783 179.51C54.4135 179.57 54.8362 179.46 55.2619 179.198C55.6751 178.936 56.0567 178.532 56.391 177.987C56.7348 177.451 57.0975 176.716 57.5012 175.776C57.9869 174.656 58.2077 173.757 58.1572 173.082C58.1067 172.404 57.9144 171.909 57.5517 171.606C57.1984 171.294 56.6843 171.001 56.0283 170.711C55.9495 170.676 55.5521 170.502 54.8362 170.193L51.2344 178.52Z" fill="white"/>
<path d="M67.9006 183.314C67.2541 182.093 67.0522 180.882 67.3046 179.702C67.6073 178.28 68.3138 177.157 69.446 176.35C70.5657 175.533 71.7263 175.262 72.9374 175.514C74.0665 175.757 74.9748 176.482 75.6624 177.693C76.3468 178.904 76.5486 180.166 76.2774 181.459C75.9935 182.799 75.2997 183.869 74.1769 184.698C73.0478 185.506 71.9061 185.799 70.736 185.547C69.4965 185.282 68.5472 184.537 67.9006 183.314ZM71.3131 175.927C70.8464 176.079 70.4742 176.441 70.1904 177.006C69.9191 177.573 69.6164 178.602 69.3041 180.084C69.0802 181.115 68.9603 181.942 68.9099 182.569C68.8689 183.194 68.9793 183.749 69.2442 184.222C69.506 184.698 70.0201 185.02 70.7675 185.171C71.2217 185.272 71.7168 185.244 72.2215 185.102C72.7356 184.96 73.1393 184.537 73.4326 183.859C73.7227 183.175 74.0255 182.093 74.3409 180.611C74.6216 179.267 74.732 178.318 74.6626 177.775C74.5932 177.23 74.3913 176.794 74.057 176.492C73.7353 176.179 73.3096 175.968 72.8049 175.867C72.2814 175.757 71.7862 175.776 71.3131 175.927Z" fill="white"/>
<path d="M88.185 177.542L90.2855 184.487H90.3139L92.4333 177.542H95.8647V177.914H94.4108V186.988H95.8647V187.363H91.2443V186.988H92.7455V177.744H92.7171L89.7998 187.363H89.4655L86.5387 177.744H86.5103V186.988H88.0147V187.363H84.6621V186.988H86.135V177.914H84.6621V177.542H88.185Z" fill="white"/>
<path d="M119.689 174.887C119.497 174.956 119.39 174.991 119.368 175C118.428 173.698 117.381 173.234 116.198 173.616C115.551 173.827 115.097 174.171 114.857 174.647C114.615 175.12 114.555 175.555 114.684 175.937C114.807 176.29 115.047 176.552 115.431 176.703C115.816 176.855 116.422 176.877 117.258 176.754C118.097 176.634 118.753 176.602 119.235 176.665C119.721 176.725 120.175 176.937 120.61 177.309C121.042 177.675 121.354 178.157 121.547 178.753C121.84 179.671 121.79 180.529 121.396 181.327C120.992 182.134 120.358 182.67 119.478 182.961C118.762 183.194 117.955 183.162 117.065 182.86C117.037 182.913 116.882 183.181 116.602 183.658L116.359 183.74L115.513 181.125C115.693 181.065 115.794 181.03 115.816 181.024C116.359 181.762 116.936 182.245 117.57 182.506C118.197 182.759 118.803 182.79 119.386 182.598C119.973 182.405 120.437 182.043 120.799 181.51C121.165 180.974 121.244 180.409 121.052 179.822C120.891 179.327 120.588 178.974 120.143 178.744C119.702 178.52 119.074 178.46 118.276 178.583C117.482 178.703 116.854 178.744 116.39 178.703C115.936 178.662 115.491 178.482 115.069 178.157C114.643 177.835 114.353 177.41 114.179 176.905C113.949 176.199 114 175.492 114.321 174.767C114.643 174.051 115.23 173.546 116.088 173.272C116.803 173.042 117.551 173.051 118.317 173.303C118.44 173.083 118.519 172.849 118.579 172.587C118.598 172.578 118.693 172.543 118.863 172.477L119.689 174.887Z" fill="white"/>
<path d="M133.851 165.563L135.649 168.389C135.447 168.49 135.337 168.547 135.315 168.56C134.589 167.683 133.952 167.137 133.416 166.935C132.883 166.733 132.337 166.774 131.801 167.065C131.754 167.09 131.521 167.216 131.095 167.44L135.365 175.454L136.92 174.624L137.09 174.959L132.457 177.431L132.287 177.097L133.842 176.271L129.571 168.257C129.149 168.481 128.912 168.607 128.865 168.629C128.319 168.922 127.988 169.348 127.856 169.903C127.726 170.458 127.815 171.285 128.14 172.385C128.117 172.395 128.007 172.455 127.805 172.556L126.465 169.499L133.851 165.563Z" fill="white"/>
<path d="M141.731 160.637L140.542 161.614L140.309 161.324C142.81 159.277 144.197 158.139 144.478 157.912C145.021 157.467 145.506 157.145 145.929 156.953C146.355 156.761 146.818 156.71 147.313 156.802C147.809 156.893 148.212 157.123 148.534 157.517C148.928 158.003 149.057 158.536 148.938 159.142C148.818 159.747 148.373 160.485 147.607 161.353C147.607 161.356 147.622 161.381 147.626 161.384C148.364 160.99 149.08 160.807 149.786 160.829C150.483 160.857 151.19 161.293 151.883 162.151C152.287 162.646 152.602 162.907 152.833 162.948C153.066 162.989 153.277 162.926 153.479 162.766C153.612 162.655 153.75 162.504 153.892 162.302C153.918 162.33 154.101 162.557 154.126 162.586C153.892 162.967 153.621 163.28 153.309 163.532C152.681 164.049 152.107 164.229 151.562 164.087C151.016 163.948 150.612 163.715 150.351 163.371C150.275 163.273 149.66 162.491 149.584 162.393C149.31 162.059 148.928 161.807 148.452 161.655C147.969 161.504 147.354 161.737 146.597 162.352C146.55 162.39 146.314 162.583 145.891 162.926L148.846 166.541L150.038 165.563L150.269 165.853L146.525 168.912L146.295 168.619L147.484 167.66L141.731 160.637ZM145.667 162.687C146.279 162.182 146.62 161.905 146.686 161.848C147.121 161.485 147.433 161.182 147.616 160.939C147.796 160.697 147.859 160.384 147.796 160.031C147.736 159.668 147.474 159.224 147.039 158.678C146.676 158.233 146.345 157.972 146.042 157.88C145.74 157.792 145.465 157.801 145.222 157.921C144.992 158.032 144.708 158.224 144.387 158.486C144.298 158.558 143.869 158.908 143.093 159.536L145.667 162.687Z" fill="white"/>
<path d="M158.772 150.109C159.103 149.699 159.289 149.469 159.327 149.424C159.528 149.182 159.67 148.961 159.759 148.746C159.85 148.545 159.841 148.283 159.749 147.98C159.648 147.677 159.387 147.333 158.964 146.952C158.98 146.933 159.059 146.835 159.204 146.658L162.433 149.283C162.288 149.459 162.209 149.557 162.193 149.576C161.556 149.112 161.052 148.898 160.689 148.939C160.326 148.989 159.973 149.223 159.629 149.645C159.592 149.693 159.405 149.92 159.074 150.333L162.556 153.168C163.313 152.235 163.733 151.717 163.818 151.613C164.534 150.736 164.846 149.98 164.745 149.333C164.654 148.696 164.25 148.03 163.534 147.333C163.55 147.315 163.629 147.217 163.767 147.043L166.259 149.191L160.758 155.944L160.465 155.71L161.455 154.499L154.422 148.768L153.432 149.98L153.139 149.746L158.409 143.268L160.547 144.791C160.408 144.968 160.33 145.066 160.314 145.085C159.62 144.681 159.002 144.52 158.488 144.608C157.964 144.69 157.418 145.094 156.832 145.81C156.744 145.92 156.299 146.469 155.501 147.456L158.772 150.109Z" fill="white"/>
<path d="M168.564 135.74C168.813 135.267 168.949 135.005 168.977 134.952C169.129 134.68 169.22 134.428 169.271 134.204C169.321 133.983 169.261 133.731 169.11 133.457C168.958 133.176 168.624 132.892 168.138 132.611C168.151 132.589 168.211 132.476 168.321 132.277L171.996 134.226C171.885 134.425 171.825 134.535 171.813 134.557C171.097 134.226 170.561 134.113 170.22 134.226C169.876 134.346 169.573 134.639 169.312 135.122C169.283 135.176 169.145 135.437 168.895 135.91L172.863 138.02C173.428 136.961 173.74 136.371 173.803 136.254C174.336 135.254 174.487 134.447 174.276 133.841C174.065 133.236 173.538 132.662 172.702 132.116C172.712 132.094 172.772 131.984 172.872 131.782L175.73 133.406L171.642 141.099L171.308 140.925L172.037 139.544L164.023 135.286L163.294 136.667L162.963 136.497L166.877 129.117L169.271 130.199C169.167 130.397 169.11 130.508 169.097 130.53C168.331 130.268 167.706 130.227 167.211 130.42C166.716 130.612 166.252 131.107 165.817 131.924C165.754 132.047 165.426 132.659 164.839 133.759L168.564 135.74Z" fill="white"/>
<path d="M172.457 113.675L175.728 114.413C175.662 114.624 175.624 114.744 175.618 114.766C174.476 114.656 173.65 114.716 173.132 114.959C172.609 115.189 172.255 115.605 172.085 116.189C172.069 116.239 171.991 116.495 171.852 116.955L180.522 119.62L181.036 117.945L181.389 118.056L179.844 123.074L179.491 122.96L180.008 121.285L171.338 118.62C171.199 119.081 171.12 119.336 171.104 119.39C170.925 119.973 170.984 120.519 171.287 121.005C171.59 121.487 172.237 122.014 173.233 122.556C173.227 122.582 173.189 122.698 173.123 122.91L169.994 121.68L172.457 113.675Z" fill="white"/>
<path d="M133.756 61.0151C130.021 58.9651 126.691 57.6751 123.745 57.139C120.806 56.6028 116.539 56.3316 110.937 56.3316C110.827 56.3316 110.288 56.3316 109.313 56.3316V56.2622H100.551H92.1558H81.4578L80.559 60.4506C79.5592 65.2508 79.0041 67.919 78.8937 68.452C78.9221 68.4615 78.9442 68.4741 78.9726 68.493C79.5686 68.7548 80.1836 69.0165 80.8207 69.2815C85.9994 71.4103 90.1972 73.4194 93.2754 75.236C94.3131 75.851 95.2845 76.567 96.2212 77.3428C96.4546 76.2169 97.6278 70.5809 99.7346 60.438C105.131 60.438 108.127 60.438 108.726 60.438C122.544 60.438 129.457 65.2035 129.457 74.7408C129.457 80.2602 128.154 89.0122 125.549 100.981C122.947 112.95 120.352 120.488 117.778 123.588C115.195 126.685 112.401 128.865 109.382 130.139C106.364 131.41 101.34 132.044 94.3131 132.044C93.6823 132.044 90.5284 132.044 84.8482 132.044C85.4286 129.237 85.7534 127.676 85.8165 127.364C81.2938 129.391 76.3801 130.451 71.0815 130.451C69.2964 130.451 67.6406 130.319 66.0542 130.117C65.9722 130.524 65.5464 132.552 64.7832 136.204C86.7595 136.204 98.9682 136.204 101.409 136.204C107.203 136.204 112.401 135.649 116.993 134.539C121.575 133.428 126.328 130.754 131.233 126.525C136.137 122.295 140.306 116.886 143.747 110.285C147.179 103.697 148.904 96.509 148.904 88.7189C148.885 81.4019 147.298 75.4568 144.119 70.9057C140.94 66.3547 137.49 63.062 133.756 61.0151Z" fill="white"/>
<path d="M78.3759 70.9561C78.3759 70.9656 78.3633 70.9656 78.3633 70.975C78.3633 70.9971 78.3633 70.9971 78.3633 70.9971C78.3633 71.016 78.3854 70.9845 78.4137 70.9056C78.3854 70.9151 78.3854 70.934 78.3759 70.9561Z" fill="#1C2333"/>
<path d="M71.0135 127.2C71.023 127.2 71.0325 127.2 71.0419 127.2C71.0546 127.2 71.064 127.2 71.0829 127.2C73.1614 127.2 75.1609 127.02 77.0974 126.676H77.11C77.1479 126.667 77.1889 126.657 77.2299 126.645C78.1571 126.474 79.0654 126.273 79.9643 126.03C80.1062 125.989 80.2481 125.938 80.3901 125.9C81.1754 125.676 81.9418 125.424 82.7113 125.143C82.9132 125.061 83.115 124.97 83.3169 124.891C84.0013 124.617 84.6888 124.323 85.3543 124.002C85.5877 123.891 85.8084 123.759 86.0292 123.639C86.2437 123.529 86.455 123.415 86.6663 123.295C87.0795 123.062 87.4926 122.841 87.9089 122.589C88.1297 122.456 88.3505 122.295 88.5649 122.154C89.18 121.762 89.7855 121.346 90.3816 120.905C90.5708 120.763 90.7537 120.611 90.9367 120.469C91.6116 119.946 92.2771 119.41 92.9331 118.823C99.1305 113.244 102.228 106.381 102.228 98.2471C102.228 93.0778 101.19 88.8611 99.0989 85.5905C98.0014 83.8748 96.7777 82.3704 95.4467 81.0773C95.4467 81.0741 95.4562 81.0521 95.4562 81.0489C94.2672 79.8883 92.993 78.879 91.6116 78.0622C88.6533 76.3149 84.6384 74.3973 79.5827 72.3095C79.097 72.1076 78.6744 71.9152 78.2202 71.7134C78.217 71.7165 78.2107 71.7481 78.2076 71.7544C73.8174 69.8557 70.5878 67.9382 68.5504 66.0206C66.3111 63.9107 65.1883 61.5295 65.1883 58.8739C65.1883 55.8588 66.5319 53.323 69.2064 51.2762C71.8903 49.2261 75.3722 48.2074 79.6615 48.2074C86.3541 48.2074 89.6625 50.2669 91.4508 54.3449C92.0847 54.3449 95.2543 54.3449 100.957 54.3449L102.846 45.2901C100.345 45.2901 98.9539 45.2901 98.6763 45.2901C97.2034 47.5104 96.7588 48.0876 93.7815 47.0153C90.8042 45.9461 88.4009 45.1892 86.5748 44.7571C84.7487 44.3218 82.4464 44.1011 79.6615 44.1011C72.1143 44.1011 65.7434 46.4823 60.5363 51.2446C55.3387 56.0102 52.7368 61.6714 52.7368 68.222C52.7368 70.5938 53.09 72.8519 53.7839 75.0029C54.5219 77.2737 55.6415 79.4246 57.1648 81.4526C59.0225 83.9158 61.7695 86.1866 65.3902 88.2429C67.5727 89.4856 70.0737 90.6651 72.8901 91.7658C73.2623 91.9077 73.5966 92.0497 73.9498 92.1916C78.0688 93.8348 81.2984 95.3581 83.5976 96.7521C82.459 96.0551 81.0745 95.3297 79.4597 94.5633C81.0745 95.3202 82.4464 96.0551 83.5976 96.7521C83.79 96.8625 83.9729 96.9855 84.1527 97.0959C83.9729 96.9855 83.79 96.8625 83.5976 96.7521C85.0925 97.6604 86.2027 98.5183 86.9186 99.3257C88.8267 101.464 89.776 103.877 89.776 106.532C89.776 110.781 88.1202 114.597 84.7992 117.965C81.4782 121.346 77.0091 123.033 71.3668 123.033C70.0737 123.033 68.8121 122.923 67.5916 122.74C64.7247 122.305 62.0723 121.368 59.6186 119.905C58.439 119.198 57.2973 118.381 56.206 117.432C51.8978 113.698 49.1823 108.116 48.0722 100.688C47.8041 100.688 46.4542 100.688 44.0257 100.688L38.7871 125.585C41.5058 125.585 43.0165 125.585 43.3192 125.585C44.7511 123.043 46.6908 121.772 49.1539 121.772C50.5953 121.772 52.8661 122.368 55.9253 123.516C57.3982 124.071 59.0445 124.759 60.8896 125.585C62.5769 126.254 64.5449 126.686 66.7243 126.938C68.0647 127.099 69.4776 127.2 71.0135 127.2Z" fill="white"/>
</svg>
