<svg width="299" height="92" viewBox="0 0 299 92" fill="none" xmlns="http://www.w3.org/2000/svg">
<path fill-rule="evenodd" clip-rule="evenodd" d="M155.816 91.5533C154.737 91.5502 153.859 90.6753 153.859 89.5959C153.859 88.5135 154.752 87.6265 155.829 87.6325C156.917 87.6385 157.789 88.5195 157.783 89.6079C157.78 90.6843 156.902 91.5533 155.819 91.5533C155.816 91.5533 155.816 91.5533 155.816 91.5533ZM63.6157 89.9181C62.233 89.9181 60.8495 89.8218 59.4816 89.6324L59.4779 89.6354C56.8749 89.3077 54.331 88.6132 51.9227 87.5729L51.871 87.5547C31.6811 79.9447 26.988 57.9325 26.846 57.247C26.8432 57.241 26.8404 57.235 26.8404 57.229C25.7908 54.4718 25.0695 52.1716 24.4321 50.1331C23.7708 47.851 22.9711 45.608 22.0422 43.4221C19.8986 38.6053 17.838 37.9077 14.3892 37.0929C11.4459 36.3984 6.36178 38.5692 3.91655 39.6216C2.75067 40.0666 1.44273 39.9403 0.384766 39.2788L1.29792 38.7045C3.55591 37.2884 4.81034 35.8 6.02789 34.3658C7.4834 32.6429 8.86604 31.0073 11.6535 29.982C14.5221 28.9176 18.824 29.2303 21.6631 30.7066C25.9503 32.9256 27.4391 34.2907 30.3132 37.8326C33.0914 41.2482 34.7508 46.4529 35.96 50.2473L36.2035 50.996C36.8676 52.9203 37.4063 54.8837 37.8204 56.8742L37.944 57.3192C38.4255 59.2074 39.0085 61.0655 39.6938 62.8906C40.1116 64.0422 40.488 65.2238 40.8551 66.3634C41.6695 68.9011 42.5089 71.5229 43.7716 73.8892L44.1987 74.704C45.8488 77.828 47.4095 80.7806 49.8501 83.0236C52.7251 85.6605 56.8657 86.7008 59.8275 87.1007C62.1666 87.4194 66.511 87.227 68.6076 86.7069C71.8811 85.886 72.8459 85.4831 74.7525 84.545C77.681 83.1048 80.3965 80.5851 81.4213 79.5689C85.0656 75.9969 87.1197 70.5126 87.414 68.3748C87.9277 64.6224 87.6695 63.1702 87.1013 59.9771L86.9749 59.2796C85.9345 53.3713 81.674 48.3411 78.3396 45.8304C74.8216 43.1875 72.0886 41.9187 68.6214 40.301C67.6834 39.8621 66.6973 39.4021 65.6357 38.8879C64.7373 38.4519 63.6821 37.9438 62.5789 37.4206C56.1315 34.3147 54.319 33.4127 53.7444 33.0248C52.7463 32.5648 51.7751 32.0416 50.8435 31.4613C49.9137 30.884 48.8585 30.3157 47.8365 29.7625C45.4946 28.4937 43.0678 27.1827 41.5607 25.4749C39.43 23.0545 38.5971 20.7303 38.5971 17.1583C38.5878 14.9393 38.9882 12.7385 39.7777 10.6638C40.5211 8.76354 42.091 6.88736 44.4477 5.09236C46.4769 3.5649 48.7571 2.39532 51.1829 1.63765C53.8403 0.765653 56.4811 0.693481 59.4096 0.693481C61.4444 0.732625 63.4745 0.982126 65.4623 1.43917C67.1613 1.74891 68.8354 2.18485 70.4745 2.7441C82.9819 7.52479 84.0196 17.6003 84.1128 17.9371C83.9237 17.7146 78.6523 11.3975 71.55 7.11588C60.5608 0.0200286 34.8919 9.02515 57.9384 24.2933C57.9753 24.3173 58.0178 24.3354 58.0556 24.3594C59.8579 25.3396 61.6224 26.3348 63.4958 27.3932C63.7725 27.5526 64.0492 27.712 64.3314 27.8652L64.337 27.8713C65.4586 28.5087 66.6042 29.1521 67.7922 29.8137C69.6656 30.8059 71.4568 31.9484 73.1503 33.2262C73.5534 33.5179 74.0007 33.8517 74.5394 34.2365C74.6197 34.2817 74.699 34.3297 74.7737 34.3838C76.5567 35.6376 78.2133 37.0628 79.7223 38.6383C80.7037 39.6847 81.6233 40.8062 82.9792 42.511L82.9847 42.5171C83.0087 42.5471 83.0926 42.6644 83.2347 42.8508C83.7217 43.4912 84.1728 44.1587 84.5814 44.8532C84.5878 44.8653 84.5961 44.8773 84.6026 44.8893C87.0054 48.7019 91.1782 56.5765 90.5704 64.5232L90.5648 64.5353C90.5925 65.6026 90.5326 66.6701 90.385 67.7284V67.7344C89.9275 71.1501 88.7431 74.4274 86.9122 77.3439C85.1053 80.2184 82.7505 82.7079 79.9842 84.6774C77.1276 86.6888 73.9288 88.1651 70.5455 89.0401C68.2931 89.6235 65.9788 89.9181 63.6507 89.9181C63.6397 89.9181 63.6268 89.9181 63.6157 89.9181L63.6157 89.9181ZM157.761 87.3209C157.769 87.2817 157.779 87.2456 157.791 87.2096C159.138 83.7579 160.47 80.3031 161.839 76.8605C162.599 74.9361 163.413 73.0299 164.205 71.1206C164.223 71.0815 164.241 71.0424 164.27 70.9793C164.294 71.0514 164.313 71.0965 164.327 71.1416C164.809 72.8043 165.287 74.4671 165.771 76.1268C165.807 76.2501 165.792 76.3372 165.717 76.4425C163.102 80.0265 160.488 83.6135 157.878 87.2006C157.845 87.2456 157.812 87.2877 157.779 87.3299L157.761 87.3209ZM154.031 87.2274C153.966 87.2274 153.95 87.1763 153.926 87.1432C153.544 86.6231 153.165 86.0999 152.787 85.5798C150.546 82.5009 148.303 79.425 146.061 76.3491C145.981 76.2439 145.973 76.1597 146.009 76.0364C146.508 74.3978 147.004 72.7561 147.501 71.1144C147.515 71.0663 147.534 71.0212 147.561 70.943C147.585 70.9971 147.6 71.0242 147.609 71.0512C148.439 73.0537 149.29 75.0502 150.092 77.0677C151.361 80.2669 152.6 83.4811 153.85 86.6892C153.907 86.8335 153.962 86.9779 154.019 87.1222C154.031 87.1552 154.034 87.1884 154.043 87.2274C154.037 87.2274 154.034 87.2274 154.031 87.2274V87.2274ZM156.475 86.434C156.487 85.98 156.5 85.526 156.508 85.0689C156.544 83.5746 156.58 82.0803 156.617 80.5859C156.647 80.0116 156.761 79.6207 156.845 79.4043C157.251 78.5203 157.654 77.6394 158.06 76.7584L158.041 76.7944C158.295 76.1618 158.074 75.5501 158.045 75.4735C157.694 74.8065 157.345 74.1383 156.995 73.472C156.995 73.472 156.838 73.0661 157.275 72.8977C158.718 72.3325 162.993 70.7359 163.113 70.7269C160.928 76.0068 158.742 81.2805 156.556 86.5513C156.553 86.5663 156.529 86.5753 156.514 86.5903C156.451 86.5453 156.475 86.4851 156.475 86.434V86.434ZM159.109 76.5813C159.084 76.539 159.058 76.4968 159 76.4545C158.698 76.1591 158.396 75.863 158.095 75.5672L159.109 76.5813ZM155.066 86.5359C152.879 81.2651 150.697 75.9914 148.508 70.7115C148.626 70.7206 152.904 72.3171 154.351 72.8824C154.78 73.0507 154.627 73.4567 154.627 73.4567C154.278 74.1242 153.93 74.7886 153.58 75.4531C153.566 75.4862 153.319 76.1176 153.58 76.7821L153.563 76.743C153.968 77.624 154.375 78.505 154.778 79.389C154.862 79.6054 154.972 79.9963 155.003 80.5706C155.042 82.0649 155.078 83.5592 155.113 85.0536C155.123 85.5107 155.136 85.9646 155.144 86.4216C155.147 86.4727 155.171 86.5299 155.105 86.575C155.093 86.563 155.072 86.5509 155.066 86.5359V86.5359ZM153.4 76.378C153.351 76.4195 153.316 76.4552 153.306 76.4847L154.32 75.4707C154.01 75.7731 153.707 76.0756 153.4 76.378ZM155.764 77.8069C154.946 77.8039 154.29 77.1453 154.293 76.3305C154.293 75.5127 154.963 74.8542 155.784 74.8573C156.59 74.8663 157.246 75.5217 157.246 76.3305C157.249 77.1514 156.59 77.8069 155.769 77.8069C155.766 77.8069 155.764 77.8069 155.764 77.8069ZM166.564 74.9665C166.022 73.0934 165.481 71.2202 164.937 69.35C164.907 69.2477 164.907 69.1606 164.946 69.0614C165.598 67.3295 166.247 65.6006 166.898 63.8688C166.915 63.8236 166.936 63.7785 166.963 63.7094C168.016 65.324 169.059 66.9236 170.103 68.5292L170.211 68.6945C170.244 68.7487 170.514 69.1967 170.207 69.6597L166.608 75.1078C166.588 75.0417 166.575 75.0026 166.564 74.9665H166.564ZM141.627 69.6597C141.32 69.1967 141.587 68.7487 141.62 68.6945L141.728 68.5292C142.775 66.9236 143.815 65.324 144.867 63.7094C144.898 63.7785 144.919 63.8236 144.934 63.8688C145.586 65.6006 146.236 67.3295 146.888 69.0614C146.924 69.1606 146.924 69.2477 146.894 69.35C146.349 71.2202 145.812 73.0934 145.268 74.9665C145.258 75.0026 145.246 75.0417 145.222 75.1078L141.627 69.6597ZM157.88 66.9345C159.764 67.5869 161.649 68.2423 163.531 68.8948C163.531 68.8948 163.982 69.1324 163.531 69.427C161.664 70.0765 159.804 70.7199 157.948 71.3664C159.199 70.1366 159.172 68.104 157.88 66.9345V66.9345ZM148.287 69.427C147.836 69.1324 148.287 68.8948 148.287 68.8948C150.172 68.2423 152.058 67.5869 153.94 66.9345C152.65 68.104 152.62 70.1366 153.874 71.3664C152.016 70.7199 150.158 70.0765 148.287 69.427L148.287 69.427ZM155.925 71.1343C154.84 71.1343 153.968 70.2684 153.964 69.1799C153.959 68.1035 154.83 67.2256 155.912 67.2165C156.995 67.2076 157.882 68.0885 157.882 69.1739C157.882 70.2593 157.015 71.1343 155.934 71.1343C155.93 71.1343 155.928 71.1343 155.925 71.1343V71.1343ZM95.0958 65.8051C95.0958 62.57 95.0745 61.737 95.057 61.1357C95.0413 60.7809 95.0386 60.5074 95.0386 59.909V21.2756C94.7536 12.1712 91.5907 7.42058 90.2164 5.76693L90.2044 5.75488C90.0144 5.52337 89.8133 5.30383 89.5965 5.09942L89.5845 5.08737C88.2554 3.67723 87.1098 2.56777 87.1098 2.56777C87.1098 2.56777 96.4609 1.88822 100.736 9.89814C106.113 19.9857 102.877 66.2261 102.877 66.2261H114.772L119.424 66.175C119.496 66.169 129.56 65.5827 135.176 58.0809C135.233 58.0027 138.15 54.5089 141.415 47.4311L154.846 15.6169L158.836 6.19087L177.059 45.3294C177.484 46.3457 177.961 47.4191 178.47 48.5346C178.947 49.5809 179.528 50.5791 180.205 51.5112C180.637 52.1697 181.193 52.741 181.834 53.198C183.268 54.0729 186.269 54.6082 188.56 53.2882L188.666 53.234C188.792 53.18 191.816 51.83 192.397 46.6824L192.905 25.3227V23.7531C192.8 23.6268 192.7 23.4945 192.61 23.3592C192.108 22.5865 191.687 21.7626 191.36 20.9028C190.712 19.1048 190.394 17.2045 190.422 15.2952L190.322 9.7388L204.682 28.2061C206.619 30.9813 216.313 44.9295 216.889 46.6073C217.139 47.2326 217.313 47.8912 217.403 48.5586C217.422 50.6964 217.127 56.4061 217.127 56.4061L195.425 27.3131L194.976 46.8989L194.967 47.0372C194.899 47.4431 194.857 47.7678 194.814 48.0505C194.793 48.2579 194.769 48.4473 194.739 48.6308C194.652 49.202 194.499 49.7613 194.285 50.2995C194.195 50.531 194.125 50.7264 194.06 50.8948C193.948 51.1985 193.858 51.439 193.74 51.6886L193.599 51.9953L193.594 52.0073C193.587 52.0224 193.578 52.0373 193.57 52.0524C193.289 52.5666 192.956 53.0476 192.571 53.4866L192.565 53.4986C192.532 53.5438 192.492 53.5858 192.454 53.6249C192.313 53.7782 192.153 53.9497 191.97 54.115C191.952 54.133 191.891 54.1872 191.84 54.2263C191.807 54.2564 191.774 54.2834 191.738 54.3104C191.67 54.3736 191.594 54.4337 191.516 54.4879C191.431 54.548 191.32 54.6292 191.194 54.7193L191.155 54.7434C191.126 54.7645 191.098 54.7825 191.065 54.8006C190.769 54.99 190.018 55.414 190.018 55.414L189.796 55.5222C189.11 55.88 186.277 56.5294 183.969 56.5294C182.594 56.5294 176.407 56.9083 173.416 54.6352C172.61 54.0278 172.044 53.219 171.211 51.6375L171.175 51.5653L156.938 17.3307L143.706 49.2261C143.54 49.5809 140.067 56.8302 137.888 59.6444C137.648 59.9751 131.429 68.4631 118.867 69.0554L95.1077 69.0585L95.0958 65.8051ZM164.256 67.7134C162.094 62.1751 159.936 56.6366 157.773 51.0983C157.77 51.0862 157.77 51.0712 157.77 51.0351C157.809 51.0892 157.843 51.1313 157.869 51.1674C160.612 54.9589 163.354 58.7504 166.096 62.5389C166.172 62.6381 166.174 62.7163 166.132 62.8245C165.533 64.4091 164.939 65.9966 164.341 67.5841C164.322 67.6292 164.304 67.6743 164.289 67.7164C164.277 67.7194 164.271 67.7194 164.268 67.7194C164.261 67.7194 164.256 67.7164 164.256 67.7134ZM147.404 67.5779C146.809 65.9903 146.215 64.4028 145.616 62.8182C145.574 62.713 145.58 62.6379 145.648 62.5446C148.376 58.7802 151.097 55.0158 153.823 51.2484C153.854 51.2062 153.887 51.1642 153.92 51.1251L153.953 51.1401C153.936 51.1943 153.917 51.2484 153.896 51.3025C153.361 52.6766 152.825 54.0506 152.29 55.4247C151.491 57.4753 150.703 59.5289 149.886 61.5704C149.149 63.4045 148.378 65.2236 147.624 67.0487C147.552 67.2231 147.501 67.3974 147.511 67.5839C147.513 67.626 147.495 67.6681 147.462 67.7102C147.444 67.665 147.423 67.62 147.404 67.5779H147.404ZM155.066 51.6997C155.072 51.6816 155.093 51.6756 155.105 51.6606C155.171 51.7027 155.147 51.7658 155.144 51.8139C155.136 52.271 155.123 52.7249 155.113 53.179C155.078 54.6763 155.042 56.1707 155.003 57.665C154.972 58.2363 154.862 58.6302 154.778 58.8466C154.375 59.7306 153.968 60.6116 153.563 61.4925L153.58 61.4535C153.319 62.118 153.566 62.7493 153.58 62.7824C153.93 63.447 154.278 64.1114 154.627 64.7789C154.627 64.7789 154.78 65.1848 154.351 65.3532C152.904 65.9185 148.626 67.5151 148.508 67.524C150.697 62.2442 152.879 56.9705 155.066 51.6996V51.6997ZM153.4 62.3597C153.707 62.6604 154.01 62.9611 154.32 63.2618L153.306 62.2477C153.316 62.289 153.351 62.3245 153.4 62.3597ZM157.275 65.3379C156.838 65.1695 156.995 64.7636 156.995 64.7636C157.429 63.9367 157.858 63.1129 158.294 62.289C158.307 62.271 158.312 62.2529 158.318 62.2349L158.041 62.7671C158.041 62.7671 158.312 62.1177 158.041 61.4412L158.06 61.4772C157.654 60.5963 157.251 59.7153 156.845 58.8313C156.761 58.6148 156.647 58.2239 156.617 57.6497C156.58 56.1553 156.544 54.661 156.508 53.1666C156.5 52.7126 156.487 52.2556 156.475 51.8016C156.475 51.7505 156.451 51.6903 156.514 51.6452C156.529 51.6573 156.553 51.6693 156.556 51.6844C158.742 56.9551 160.928 62.2289 163.113 67.5087C162.993 67.4997 158.718 65.9031 157.275 65.3379V65.3379ZM257.803 63.8831V63.8861C255.343 63.3359 253.013 62.3286 250.929 60.9155C249.182 59.794 247.652 58.3688 246.408 56.7061C245.459 55.4042 244.591 54.0481 243.803 52.644C243.112 51.3842 242.57 50.0462 242.186 48.6601C241.349 45.4008 241.394 43.8193 241.418 43.4885V13.4694C241.465 12.4621 241.314 11.4549 240.977 10.5048C240.7 9.86732 240.613 9.47346 239.909 9.04651C238.21 8.01523 233.869 8.16852 232.175 9.40734C232.11 9.46141 232.05 9.50955 231.993 9.56069C231.971 9.57573 231.954 9.59072 231.935 9.60876C231.899 9.6388 231.87 9.66289 231.845 9.68694L231.81 9.72003C231.806 9.72602 231.791 9.73207 231.785 9.73807C231.446 10.0478 231.129 10.3845 230.847 10.7483C230.474 11.2294 230.165 11.7586 229.927 12.3178C229.68 12.8981 229.482 13.5025 229.338 14.1189C229.296 14.2842 229.26 14.4376 229.229 14.5969L229.22 14.6541C229.202 14.7142 229.19 14.7743 229.185 14.8375L229.178 14.9096C229.155 15.0269 229.136 15.1441 229.125 15.2644L229.106 15.4237C229.076 15.5952 229.064 15.7756 229.049 15.9529V15.995L228.899 31.7322V57.139L197.015 13.4092L195.133 10.8114C194.728 10.1921 194.249 9.62381 193.711 9.11863C193.308 8.86314 192.864 8.6857 192.394 8.59247C191.799 8.46323 191.194 8.36995 190.587 8.31588C189.92 8.2497 189.231 8.21966 188.522 8.21966H185.515V6.17203L196.733 6.19013C196.733 6.19013 200.867 6.48477 203.684 9.43736L226.301 42.0994L226.443 15.977C226.544 12.853 228.28 6.84559 234.124 6.27429L234.383 6.25025C234.429 6.24419 234.473 6.24125 234.518 6.24419C234.555 6.2382 234.59 6.2382 234.623 6.2382C234.623 6.2382 245.096 6.11794 249.814 6.13593H271.195V8.79388H249.257V30.4754H261.269V31.6511C261.269 31.7804 261.269 31.9457 261.257 32.1351L261.191 32.986L260.335 32.956C260.034 32.9439 253.846 32.9981 249.261 33.0311V43.5216C249.23 44.6251 249.23 46.0804 249.224 47.3551C249.224 47.9445 249.224 48.4977 249.218 48.9608C249.221 50.7738 249.456 52.5808 249.91 54.3368C250.091 55.0283 250.328 55.7079 250.616 56.3603C250.736 56.6339 250.842 56.8624 250.937 57.0579L250.941 57.0639C252.232 59.0423 255.168 61.4807 261.853 61.998C263.699 61.9889 265.539 61.7333 267.319 61.2372C269.474 60.5997 271.477 59.5204 273.196 58.0681C273.651 57.584 274.153 57.0579 274.632 56.5738C275.833 54.9832 276.129 54.1714 276.766 52.3944L276.923 51.9584C276.992 51.7691 277.052 51.5856 277.105 51.4022C277.163 51.1015 277.223 50.7588 277.289 50.3979C277.707 48.0257 278.284 44.7844 280.386 43.2961C283.131 41.3658 285.801 41.1853 288.787 42.7368C289.986 43.3141 291.032 44.165 291.845 45.2234C292.392 45.9059 293.005 46.5312 293.675 47.0936V47.0995C295.116 48.6089 298.664 48.9878 298.664 48.9878C298.586 49.0359 294.271 50.888 291.268 49.968C290.485 49.7395 289.727 49.4478 288.995 49.099C288.27 48.7803 287.497 48.5759 286.709 48.4917C284.779 48.167 283.645 48.5699 282.878 49.1532L282.607 49.3547C281.928 49.8567 281.787 49.932 280.136 53.2874C276.805 60.0887 272.411 63.6125 264.907 64.28C264.141 64.3491 263.359 64.4153 262.574 64.4153C260.972 64.3883 259.373 64.2108 257.803 63.8831L257.803 63.8831ZM155.768 63.5908C154.954 63.5878 154.295 62.9264 154.298 62.1145C154.301 61.2967 154.967 60.6382 155.792 60.6412C156.597 60.6472 157.25 61.3057 157.253 62.1145C157.253 62.9353 156.597 63.5908 155.775 63.5908C155.771 63.5908 155.771 63.5908 155.768 63.5908H155.768ZM153.767 48.7717C153.764 47.6833 154.638 46.8024 155.724 46.7994C156.806 46.7994 157.69 47.6833 157.69 48.7687C157.688 49.8452 156.806 50.7201 155.727 50.7201C154.645 50.7201 153.767 49.8482 153.767 48.7717ZM120.537 42.6836L120.534 42.6866C118.418 41.6914 116.514 40.2933 114.939 38.5644C113.333 36.7874 112.068 34.7338 111.204 32.4998C110.293 30.1486 109.837 27.647 109.851 25.1273C109.837 22.6077 110.293 20.1061 111.204 17.7548C112.068 15.5239 113.336 13.4763 114.945 11.7083C116.523 9.9945 118.423 8.6084 120.534 7.6252C124.895 5.61073 129.915 5.61073 134.272 7.6252C136.383 8.6054 138.277 9.9945 139.846 11.7143C144.904 17.3941 146.344 25.428 143.575 32.5118C142.703 34.7309 141.443 36.7784 139.853 38.5554C138.288 40.2903 136.391 41.6944 134.275 42.6836C132.096 43.6909 129.75 44.1945 127.405 44.1945C125.061 44.1945 122.716 43.6909 120.537 42.6836ZM123.694 9.93914C122.407 10.8412 121.316 12.0018 120.494 13.3458C119.49 14.9754 118.729 16.7464 118.246 18.5985C117.671 20.7273 117.388 22.9222 117.401 25.1261C117.388 27.3331 117.671 29.531 118.246 31.6628C118.736 33.5209 119.494 35.2979 120.494 36.9396C121.312 38.2895 122.401 39.4531 123.694 40.3582C125.916 41.9217 128.88 41.9247 131.102 40.3642V40.3582C132.398 39.4562 133.489 38.2926 134.302 36.9396C135.303 35.2979 136.06 33.5179 136.56 31.6628C137.128 29.531 137.41 27.3331 137.396 25.1261C137.41 22.9192 137.128 20.7213 136.56 18.5925C136.069 16.7433 135.308 14.9754 134.307 13.3428C133.481 12.0047 132.393 10.8442 131.102 9.93914C129.991 9.15892 128.695 8.76881 127.399 8.76881C126.103 8.76881 124.806 9.15892 123.694 9.93914H123.694ZM89.5942 5.0993H89.5988C89.9588 5.41557 90.2927 5.7552 90.6083 6.11337C90.2636 5.76455 89.9189 5.42966 89.5942 5.0993Z" fill="#FEFEFE"/>
</svg>
