<svg width="277" height="107" viewBox="0 0 277 107" fill="none" xmlns="http://www.w3.org/2000/svg">
<path d="M92.8382 31.8281C96.1026 28.6747 97.9725 25.4737 98.4162 22.2568C98.8599 19.5946 97.8616 17.3285 95.4212 15.4428C92.9809 13.5571 89.7006 11.9407 85.6122 10.6096C81.508 9.27849 76.8491 8.28016 71.6356 7.6146C66.4221 6.94905 61.2719 6.50534 56.1693 6.28349C57.3895 5.28516 58.4988 4.50868 59.4971 3.95405C60.1627 3.7322 60.6064 3.32019 60.8282 2.70217C61.0501 2.10001 61.0184 1.52953 60.749 1.03829C60.4638 0.547044 59.9408 0.230113 59.1643 0.119187C58.3879 0.00826146 57.3261 0.341039 56.0109 1.11752C55.2344 1.56122 54.3787 2.19508 53.4279 3.03495C52.4771 3.85897 51.4629 4.95238 50.3537 6.28349H45.8691C39.6572 6.50534 33.9683 7.02828 28.8182 7.86815C23.6681 8.70801 19.1994 9.64296 15.4279 10.6888C11.6564 11.7505 8.62972 12.7964 6.36366 13.8581C4.09761 14.9199 2.62388 15.7756 1.95833 16.4411C0.959993 17.4395 0.46875 18.2952 0.46875 19.0241C0.46875 19.753 0.722294 20.3235 1.21354 20.7672C1.72063 21.2109 2.35449 21.4645 3.13097 21.512C3.90745 21.5754 4.68393 21.4803 5.46041 21.2585C6.90244 20.5929 8.17017 19.8164 9.27943 18.929C10.3887 18.0416 11.6564 17.2176 13.0984 16.4411C13.8749 16.2193 15.0634 15.839 16.6798 15.2685C18.2803 14.7139 20.3403 14.1117 22.8282 13.4461C25.3161 12.7806 28.3428 12.1467 31.8924 11.5287C35.4421 10.9265 39.6572 10.4987 44.538 10.2768C44.9817 10.2768 45.3937 10.2451 45.7899 10.1976C46.1702 10.15 46.598 10.1184 47.0417 10.1184C45.156 12.4478 43.2386 15.0783 41.3053 18.0258C39.3562 20.9574 37.3912 24.0158 35.3945 27.1692C33.3979 30.3227 32.0984 33.5237 30.2127 36.7405C28.327 39.9574 26.9325 43.0158 25.2686 45.884C24.3812 47.6588 23.4621 49.4019 22.5271 51.1292C21.5763 52.8565 21.3703 54.6471 20.4829 56.5329C17.0442 57.0875 13.764 57.0875 14.0968 56.5329C14.8733 55.7564 14.9525 55.3761 14.3503 55.3761C13.7323 55.3761 12.8291 55.2651 11.6089 55.0433C10.9433 54.9324 10.1985 55.0433 9.35866 55.3761C8.53464 55.7088 7.83739 56.1209 7.28276 56.628C6.72813 57.135 6.47459 57.6897 6.53797 58.2918C6.58551 58.894 7.17184 59.4328 8.28109 59.8765C9.83405 60.653 14.3979 60.8748 18.5021 60.542C16.9492 63.7589 7.72647 84.09 6.39536 87.1484C5.06425 90.2068 3.98668 92.9482 3.14682 95.3886C2.30695 97.8289 1.73647 99.889 1.4037 101.553C1.07092 103.217 1.18184 104.278 1.73647 104.706C2.73481 105.261 3.66975 105.372 4.55716 105.039C5.44456 104.706 6.26858 104.152 7.04506 103.375C7.82154 102.599 8.53464 101.711 9.20019 100.713C9.86575 99.7147 10.4204 98.7797 10.8641 97.8765C11.8624 96.2126 12.4963 94.723 12.7815 93.3919C13.0509 92.0608 12.9241 91.7914 12.3695 92.5521C11.593 93.1067 10.8799 93.7247 10.2144 94.3903C9.54882 95.0558 8.81988 95.2777 8.05924 95.0558C7.61554 94.9449 8.05924 93.2018 9.39035 89.8106C10.7215 86.4353 20.4512 65.0425 23.0025 60.0508C27.6614 59.3852 31.005 58.4186 36.4879 57.135C41.9708 55.8673 47.1051 54.5045 51.8749 53.0625C56.312 51.7314 61.1293 50.0199 66.3428 47.9124C71.5563 45.8048 76.4688 43.3961 81.0643 40.6705C85.6281 37.929 89.5738 34.9816 92.8382 31.8281ZM64.156 44.2201C59.2753 46.2168 54.9492 47.7697 51.1777 48.879C46.2969 50.2101 41.3687 51.4937 36.377 52.7139C31.3854 53.934 28.7865 54.9324 25.126 55.7088C26.6789 52.492 27.6931 49.1642 29.5788 45.7255C31.4646 42.2868 33.0175 38.9591 35.0142 35.7422C39.2294 29.1976 42.1293 23.8732 45.0134 19.7689C47.8974 15.6646 50.3854 12.4478 52.493 10.1184C57.1518 10.1184 61.9692 10.4194 66.9608 11.0375C71.9525 11.6555 76.4688 12.4795 80.5255 13.5412C84.5663 14.5871 87.8783 15.8073 90.4296 17.2018C92.9809 18.5963 94.201 20.1175 94.0901 21.7814C93.9792 24.3327 92.3628 26.9632 89.2728 29.6888C86.1668 32.4144 82.4271 35.0133 78.0376 37.5012C73.6639 39.9732 69.0209 42.2234 64.156 44.2201ZM179.788 53.6329C179.139 54.0767 178.552 54.6471 178.013 55.3761C177.475 56.0892 176.793 56.8973 175.985 57.7847C175.177 58.6722 174.131 59.5596 172.832 60.4311C171.532 61.3185 169.916 62.1425 167.983 62.919C166.366 63.5846 164.861 63.6638 163.45 63.1726C162.056 62.6813 161.073 61.8256 160.535 60.6054C159.885 59.1792 159.568 57.6263 159.568 55.9624C159.568 54.6313 159.726 53.3636 160.059 52.1592C160.376 50.939 160.757 49.8932 161.184 49.0058C161.723 47.8965 161.596 46.8823 160.772 45.9474C159.964 45.0124 158.918 44.9332 157.619 45.6938C153.53 48.0074 149.775 50.4953 146.384 53.1417C142.993 55.7881 140.378 58.0541 138.54 59.924C138.651 59.0366 138.73 57.9908 138.777 56.7706C138.825 55.5504 138.888 54.3144 138.936 53.0466C138.983 51.7789 139.063 50.5587 139.174 49.4019C139.284 48.2451 139.443 47.2785 139.665 46.502C139.871 45.0758 139.475 44.236 138.445 44.0141C137.415 43.7923 136.527 43.7923 135.782 44.0141C134.816 44.3469 133.39 45.472 131.504 47.4053C129.618 49.3385 127.653 51.4303 125.609 53.6963C123.565 55.9624 121.711 58.0858 120.031 60.0666C118.367 62.0475 117.305 63.2676 116.877 63.7114C117.622 61.7305 118.383 59.9082 119.143 58.2443C119.793 56.8181 120.49 55.4078 121.251 54.0291C121.996 52.6505 122.646 51.6838 123.184 51.1292C123.612 50.6855 123.723 50.2418 123.501 49.7981C123.279 49.3544 122.931 49.0058 122.455 48.7205C121.964 48.4511 121.425 48.3877 120.839 48.5621C120.253 48.7205 119.73 49.1484 119.302 49.7981C118.462 51.2401 117.654 52.7772 116.893 54.3936C116.751 54.5204 116.64 54.6313 116.561 54.7739C115.594 55.6613 113.756 57.1509 111.062 59.2426C108.368 61.3344 105.246 63.1092 101.696 64.5354C100.191 65.09 99.0342 65.2802 98.2261 65.1217C97.4179 64.9632 97.2277 63.8857 97.6556 61.889C97.8616 60.8907 98.2261 59.7022 98.7015 58.3235C99.1927 56.9449 99.6998 55.5979 100.239 54.2668C100.777 52.9357 101.348 51.668 101.934 50.4636C102.52 49.2435 102.98 48.1976 103.313 47.3102C103.63 46.6446 103.725 45.9791 103.55 45.3294C103.392 44.6638 103.059 44.1726 102.584 43.8398C102.093 43.507 101.554 43.3961 100.968 43.507C100.381 43.6179 99.8583 44.0616 99.4304 44.8223C99.0025 45.3769 97.9725 46.6129 96.3562 48.5462C94.7398 50.4795 92.8541 52.5554 90.699 54.7581C88.5438 56.9607 86.2302 59.1159 83.7423 61.2234C81.2544 63.3152 79.0042 64.8681 76.96 65.8665C75.3437 66.4211 74.1869 66.6113 73.4896 66.4528C72.7924 66.2943 72.4913 65.8506 72.6022 65.1375C72.7131 64.4244 73.0618 63.5053 73.6481 62.4119C74.2344 61.3027 75.0267 60.0983 75.9934 58.7672C77.0709 57.2301 78.4496 55.7089 80.1135 54.2193C81.7774 52.7297 83.4254 51.3986 85.0417 50.2418C86.6581 49.085 88.116 48.1659 89.3995 47.5162C90.699 46.8506 91.5071 46.5179 91.8241 46.5179C92.141 46.4069 92.3945 46.1059 92.553 45.6146C92.7115 45.1234 92.6639 44.6163 92.3945 44.125C92.1251 43.6338 91.618 43.2218 90.8574 42.889C90.0968 42.5562 89.0192 42.5087 87.6247 42.7305C86.2302 42.9524 84.5505 43.8398 82.6172 45.3769C80.6839 46.9299 78.814 48.7522 77.0392 50.844C75.2644 52.9516 73.6639 55.1542 72.2694 57.4678C70.8749 59.7814 69.9558 61.889 69.528 63.7589C68.8783 66.738 69.211 68.7505 70.4946 69.7964C71.794 70.8423 73.7273 70.9374 76.3103 70.05C78.6873 69.1626 81.0009 67.8948 83.2669 66.2468C85.533 64.5988 87.5772 62.9349 89.4154 61.2868C91.4596 59.306 93.4563 57.1984 95.3895 54.9958C95.0726 55.9941 94.7398 56.9766 94.4229 57.9749C94.201 58.8623 93.9633 59.8289 93.694 60.8748C93.4246 61.9207 93.3453 62.9349 93.4563 63.9332C93.5672 65.8189 94.0267 67.0867 94.8349 67.7364C95.6431 68.4019 96.6414 68.7347 97.8299 68.7347C98.5747 68.7347 99.3829 68.6238 100.254 68.4019C101.11 68.1801 101.982 67.9582 102.837 67.7364C103.915 67.5145 105.262 66.944 106.878 65.9933C108.495 65.0583 110.111 63.9807 111.727 62.7606C112.615 62.095 113.486 61.4136 114.326 60.7322C113.36 63.3469 112.662 65.5812 112.219 67.4036C111.997 68.6238 112.25 69.527 112.948 70.1292C113.645 70.7314 114.485 70.7631 115.451 70.2084C115.879 70.0975 116.561 69.5429 117.464 68.5604C118.383 67.5621 119.381 66.4053 120.459 65.09C121.536 63.7589 122.661 62.3802 123.85 60.9541C125.038 59.5279 126.116 58.3077 127.083 57.3093C127.843 56.5329 128.699 55.6296 129.666 54.5837C130.632 53.5379 131.551 52.6029 132.407 51.7631C133.263 50.939 134.023 50.2259 134.673 49.6079C135.323 49.0058 135.703 48.7047 135.798 48.7047C135.481 50.9073 135.259 52.7614 135.148 54.251C135.038 55.7405 134.958 57.2935 134.911 58.894C134.847 60.4945 134.942 61.7939 135.148 62.7923C135.259 63.6797 135.529 64.2343 135.957 64.4561C136.385 64.678 136.844 64.7572 137.335 64.7097C137.827 64.6621 138.27 64.4878 138.714 64.2184C139.142 63.9491 139.459 63.743 139.681 63.6321C142.264 61.3185 144.45 59.4328 146.225 58.0066C148 56.5804 149.838 55.1701 151.724 53.7914C153.61 52.4128 155.147 51.3827 156.335 50.733C156.224 51.8423 156.177 52.9357 156.177 54.045C156.177 55.0433 156.209 56.0892 156.256 57.1984C156.304 58.3077 156.494 59.2902 156.827 60.1776C157.476 62.1584 158.712 63.8698 160.551 65.3119C162.389 66.7539 164.813 67.0867 167.824 66.3102C170.946 65.5337 173.592 64.1075 175.747 61.9999C177.902 59.9082 179.519 58.0858 180.596 56.5329C181.452 55.1067 181.753 54.0767 181.484 53.4745C181.214 52.7772 180.644 52.8565 179.788 53.6329ZM41.3211 90.1434H31.0209V80.6355H27.3445V104.659H31.0209V93.5979H41.3211V104.659H44.9975V80.6355H41.3211V90.1434ZM52.5563 104.659H65.8199V101.204H56.2327V93.6455H65.5188V90.1909H56.2327V84.09H65.8199V80.6355H52.5563V104.659ZM89.7957 97.2743L72.3645 79.0033V104.643H76.0409V87.8773L93.4721 106.148V80.6355H89.7957V97.2743ZM115.008 82.9807C112.345 80.9999 109.43 80.6355 106.07 80.6355H101.031V104.659H106.007C109.35 104.659 111.981 104.342 114.802 102.361C117.971 100.127 119.635 96.6722 119.635 92.6788C119.619 88.6697 117.923 85.1676 115.008 82.9807ZM112.662 99.5087C110.571 101.062 108.083 101.204 106.292 101.204H104.707V84.09H106.292C108.051 84.09 110.618 84.2326 112.71 85.7539C114.437 87.0216 115.958 89.4937 115.958 92.6788C115.942 95.9432 114.326 98.241 112.662 99.5087ZM139.49 87.6872C139.49 86.6413 139.269 83.8048 136.638 82.03C135.085 80.9841 133.215 80.6196 130.299 80.6196H126.021V104.643H129.697V94.8023H130.347L137.224 104.643H141.661L134.166 94.3903C137.367 93.6772 139.49 91.1576 139.49 87.6872ZM129.697 91.6488V84.0108H130.965C132.772 84.0108 135.973 84.3436 135.973 87.7189C135.973 91.5379 131.868 91.6488 130.854 91.6488H129.697ZM147.049 104.659H150.726V80.6355H147.049V104.659ZM160.994 83.3294C158.982 85.231 157.143 88.3052 157.143 92.7264C157.143 96.1175 158.189 99.1759 160.994 101.806C162.405 103.138 165.13 105.118 169.488 105.118C171.152 105.118 173.671 104.754 176.08 103.312V98.9541C174.717 100.253 172.483 101.727 169.599 101.727C164.48 101.727 160.804 97.7973 160.804 92.7264C160.804 87.4336 164.338 83.5829 169.551 83.5829C170.914 83.5829 173.402 83.8365 176.064 86.2451V81.919C173.973 80.5879 171.849 80.1918 169.646 80.1918C166.366 80.1918 163.482 80.9999 160.994 83.3294ZM200.214 80.6355H195.397L186.111 90.2226V80.6355H182.435V104.659H186.111V94.723L186.824 93.9941L195.397 104.659H200.294L189.375 91.5062L200.214 80.6355ZM213.113 90.3652L210.705 89.3986C208.36 88.4636 208.106 87.1959 208.106 86.4828C208.106 84.9299 209.263 83.5988 211.497 83.5988C212.543 83.5988 213.335 83.8523 214.096 84.4703C214.635 84.9457 214.968 85.437 215.174 85.9757L218.121 84.2485C217.614 83.2343 216.933 82.4103 216.283 81.8398C215.522 81.1901 214.048 80.2234 211.45 80.2234C206.949 80.2234 204.43 83.3294 204.43 86.5621C204.43 90.1592 207.345 91.8231 209.326 92.6471L211.624 93.6138C213.209 94.2635 215.078 95.2777 215.078 97.718C215.078 100.127 213.351 101.759 211.117 101.759C209.675 101.759 208.661 101.188 207.979 100.317C207.409 99.5562 206.965 98.447 206.965 97.2585L203.32 98.0508C203.463 99.6988 204.033 101.299 205.333 102.741C206.553 104.104 208.217 105.15 210.99 105.15C215.49 105.15 218.739 102.012 218.739 97.4486C218.771 94.6755 217.535 92.1559 213.113 90.3652ZM236.519 80.1918C229.309 80.1918 224.016 85.5954 224.016 92.663C224.016 99.7147 229.309 105.118 236.519 105.118C243.729 105.118 249.022 99.7147 249.022 92.663C249.022 85.5954 243.729 80.1918 236.519 80.1918ZM236.519 101.743C231.369 101.743 227.692 98.0033 227.692 92.663C227.692 87.3385 231.369 83.5829 236.519 83.5829C241.669 83.5829 245.345 87.3227 245.345 92.663C245.345 98.0033 241.669 101.743 236.519 101.743ZM272.855 80.6355V97.2743L255.424 79.0033V104.643H259.1V87.8773L276.531 106.148V80.6355H272.855Z" fill="white"/>
</svg>
