<svg width="353" height="136" viewBox="0 0 353 136" fill="none" xmlns="http://www.w3.org/2000/svg">
<g opacity="0.999184">
<path fill-rule="evenodd" clip-rule="evenodd" d="M4.15249 135.48L4.28818 135.062C4.15249 135.062 4.01123 135.203 3.59488 135.339C3.31609 135.339 2.89974 135.48 2.62092 135.48H1.92578C1.64883 135.48 1.37188 135.339 1.23063 135.203C1.09124 135.062 0.814285 134.926 0.535489 134.785V134.09C0.535489 133.672 0.535489 133.254 0.396091 132.84C0.396091 132.559 0.396091 132.145 0.258539 132.005C0.258539 131.864 0.119141 131.727 0.119141 131.309C0.535489 129.642 1.23063 127.975 2.06706 126.443C2.7622 124.217 3.73432 122.414 4.84768 120.605C5.95732 118.797 7.20637 116.989 8.45912 115.181C8.73792 114.626 9.57248 113.654 10.6858 112.123C11.7992 110.596 13.1895 108.788 14.7155 106.844C16.2471 104.895 17.9143 102.673 19.7228 100.447C21.5258 98.2205 23.1986 96.1352 24.8658 94.1905C26.5331 92.2459 27.9234 90.574 29.3137 89.0475C30.5627 87.6572 31.5404 86.6849 32.0943 86.267C32.6482 85.849 33.2077 85.431 33.6259 85.0131C33.9028 84.5995 34.321 84.1815 34.8749 83.9043L37.6555 81.401C38.2094 80.9831 38.7689 80.5651 39.3228 79.87C39.741 79.4521 40.018 79.0385 40.4362 78.6205C40.7131 78.4798 40.8544 78.3434 41.1313 78.0618C41.5495 77.6482 41.8265 77.2302 41.9659 76.6716C42.1034 76.3944 42.2447 75.9764 42.661 75.6992L42.7986 75.5629V75.4221C43.3562 74.0318 43.9119 72.6416 44.3301 71.3921C44.7428 70.0019 45.3022 68.748 45.9974 67.3578L48.0829 61.5195C49.1943 59.0162 50.1683 56.0993 50.9992 53.178C51.8356 50.2567 52.6701 47.3398 53.6441 44.6957V44.5593C53.7798 42.7511 54.0604 41.2201 54.6162 39.9706C55.1701 38.7212 55.7277 37.1901 56.1459 35.7999C56.2871 35.6591 56.5604 35.5227 56.9823 35.3819C57.5362 35.2455 58.0919 35.1047 58.6495 34.8276C58.9265 34.6868 59.064 34.5504 59.2034 34.4096H59.3447C59.6217 34.4096 60.0399 34.5504 60.3168 34.6868C60.735 34.9639 61.2889 35.1047 61.7071 35.1047C61.9841 35.5227 62.261 35.7999 62.8205 35.7999C63.0974 35.7999 63.5156 35.9406 63.7926 36.2177C64.0695 36.4949 64.4877 37.0493 64.7647 37.4672C65.0416 37.8852 65.1829 38.3032 65.0416 38.7212V38.8575V38.9983C65.1829 39.2754 65.1829 39.5526 65.1829 39.6934C65.0416 39.9705 65.0416 40.2477 65.0416 40.6657C64.3465 41.3608 63.9301 42.056 63.5156 42.8918C63.235 43.7234 62.8205 44.5593 62.261 45.3909L62.1253 45.5315V45.6723C62.1253 45.8087 62.1253 45.9495 61.984 46.0859C61.8446 46.2267 61.8446 46.3675 61.8446 46.5038L61.7071 46.6446H61.5658V47.0626C61.2889 48.73 60.8725 50.3975 60.4543 51.7877C59.8986 53.1779 59.3447 54.709 58.7871 56.0992C58.2313 57.4895 57.5362 58.8797 56.9823 60.4064C56.4228 61.9374 55.8652 63.4641 55.3113 65.1359L55.0325 66.1082L56.0065 65.6902C56.9823 65.2723 57.9544 64.7179 58.9265 64.0228C59.7592 63.3277 60.735 62.6325 61.7071 62.0738C62.6792 61.5194 63.6513 60.8244 64.6253 60.27C65.7368 59.7113 66.7107 59.0161 67.8222 58.4618C68.7943 57.9031 69.772 57.2079 70.7441 56.6536L73.6604 54.9861C75.192 54.2646 76.7235 53.5475 78.1752 52.8656C78.3332 52.4476 78.5005 52.0384 78.6677 51.6469C79.086 50.6746 79.6398 49.7023 80.058 48.8663C80.4763 48.5893 80.8945 48.0349 81.1714 47.6169C81.4484 47.199 81.5896 46.781 81.7253 46.5038C83.5338 44.5593 85.3423 42.751 87.2865 40.9428C89.2307 39.1347 91.1805 37.7444 93.266 36.772C94.2381 36.2177 95.2102 35.7998 96.1823 35.3818C97.2956 34.9639 98.2677 34.5503 99.1041 34.2687C99.5224 34.1323 99.7993 33.9915 100.076 33.7143C100.217 33.7143 100.353 33.5735 100.771 33.5735C103.693 33.5735 105.637 33.9915 106.472 34.9639C107.305 35.7998 107.723 36.6356 107.723 37.4672C107.723 37.608 107.446 37.8851 107.028 38.1623C106.472 38.5803 106.056 38.9983 105.777 39.4161C105.361 39.8297 104.942 40.1113 104.665 40.5248C104.388 40.9428 104.11 41.22 103.829 41.5016C100.353 44.1413 96.8774 46.6446 93.5429 48.5893C92.7065 49.1479 91.5987 49.5615 90.2084 49.8431C89.372 49.9795 88.5356 49.9795 87.7048 49.9795C87.1509 49.9795 86.5914 49.9795 86.0375 49.8431H85.7606L85.6193 49.9795C85.2104 50.393 84.7959 50.8066 84.3833 51.3302L84.5059 51.3698H84.9241H85.3424C84.7439 51.7701 84.1584 52.1529 83.5822 52.5136C83.2086 53.1516 82.9131 53.7894 82.6975 54.4274C82.4205 55.2633 82.2848 56.2356 82.2848 57.0715C82.2848 58.0439 82.6975 58.8797 83.5339 59.5749L83.6751 59.7113H83.8108C84.229 59.7113 84.6472 59.7113 85.0654 59.852C86.3145 59.852 87.4278 59.7113 88.5356 59.2933C89.7902 58.8797 91.0393 58.4617 92.2939 58.1846C93.266 57.9031 94.2381 57.6259 95.3515 57.3487C96.3236 57.0715 97.2957 56.7944 98.1321 56.3764C99.9387 55.5404 101.467 54.9861 102.58 54.4274C103.693 53.8731 104.805 53.4551 105.914 53.0371C107.028 52.6235 108 52.0648 109.253 51.5106C110.366 50.9518 111.753 50.2566 113.565 49.4251C114.955 48.8663 116.345 48.1713 117.736 47.4761C118.65 47.0185 119.57 46.6182 120.485 46.2047C120.974 45.1971 121.449 44.1809 121.907 43.1689C122.042 42.751 122.325 42.4738 122.602 41.9151C123.02 41.3608 123.297 40.9428 123.433 40.5248L123.851 38.8575C123.992 38.4395 123.992 38.0259 124.128 37.608C124.269 37.4672 124.41 37.19 124.687 37.0492C124.823 36.772 125.106 36.6356 125.241 36.4948C125.795 36.077 126.355 35.9405 127.05 35.9405C127.327 35.9405 127.745 35.9405 128.022 36.077C128.994 36.354 129.553 36.772 129.689 37.3308C130.107 38.1623 130.107 38.7211 129.689 39.4161C129.271 40.1113 128.858 40.8064 128.44 41.3608C128.299 41.9151 128.163 42.4738 128.163 42.8918C128.163 43.3053 128.022 43.7233 127.881 44.0005L126.213 47.3398C125.659 48.4529 125.106 49.7023 124.546 51.0926L124.269 51.9284L125.105 51.7877C125.795 51.647 126.49 51.3698 126.908 50.9518C127.327 50.5382 127.745 50.2567 128.299 49.9795C130.661 48.1713 132.888 46.3674 134.832 44.5593C136.918 42.751 139.286 41.22 142.066 39.6933C143.038 39.1347 144.15 38.5803 145.259 37.8852C146.373 37.3308 147.625 36.9128 148.735 36.9128C149.43 36.9128 150.267 37.19 151.239 37.7444C152.073 38.3031 152.488 38.8575 152.629 39.2754C152.769 40.1113 152.629 40.9428 152.352 41.7788C152.073 42.751 151.793 43.587 151.516 44.5593C151.378 45.2544 151.239 46.2267 150.962 47.617C150.683 49.0072 150.267 50.5383 149.988 52.0648C149.707 53.5959 149.43 55.1226 149.295 56.5128C149.153 58.0439 149.016 59.0161 149.153 59.7113L149.295 60.2701L149.848 59.9885C150.683 59.7113 151.378 59.4341 151.934 59.1569C152.629 58.8798 153.324 58.5982 154.159 58.1846C155.133 57.7668 155.69 57.6259 155.826 57.4896C156.105 57.3488 156.244 57.3488 156.386 57.3488C156.521 57.3488 156.659 57.208 156.8 57.0716C156.939 57.0716 157.216 56.7944 158.471 56.2357C159.025 55.8177 159.72 55.2633 160.276 54.8455C160.833 54.4275 161.387 54.1503 161.947 53.8731C162.224 53.7324 162.642 53.7324 163.196 53.7324H163.337H163.473C164.168 53.3188 164.863 53.0372 165.419 52.76C165.828 52.5577 166.237 52.3509 166.588 52.0958C166.662 51.9417 166.733 51.7921 166.809 51.647C168.199 49.0072 169.588 46.2267 170.842 43.4462C170.978 43.0282 171.257 42.7511 171.538 42.1967C171.952 41.638 172.233 41.2201 172.368 40.8065L172.787 39.1347C172.928 38.7212 172.928 38.3032 173.064 37.8852C173.205 37.7444 173.342 37.4673 173.623 37.3309C173.759 37.0493 174.038 36.9129 174.177 36.7721C174.733 36.3541 175.29 36.2177 175.986 36.2177C176.262 36.2177 176.681 36.2177 176.958 36.3541C177.93 36.6357 178.489 37.0493 178.625 37.608C179.043 38.4396 179.043 38.9984 178.625 39.6934C178.207 40.3885 177.794 41.0837 177.376 41.638C177.235 42.1967 177.099 42.7511 177.099 43.169C177.099 43.587 176.958 44.0006 176.816 44.2822L175.149 47.617C174.595 48.73 174.038 49.9795 173.482 51.3698L173.205 52.2057L174.038 52.0649C174.733 51.9285 175.426 51.647 175.844 51.2335C176.262 50.8155 176.681 50.5383 177.235 50.2567C179.597 48.453 181.824 46.6447 183.768 44.8365C185.853 43.0283 188.221 41.5017 190.996 39.9706C191.974 39.4162 193.082 38.8576 194.195 38.1624C195.309 37.6081 196.558 37.1901 197.671 37.1901C198.366 37.1901 199.202 37.4673 200.175 38.026C201.011 38.5804 201.424 39.1348 201.565 39.5526C201.706 40.3886 201.565 41.2201 201.288 42.0561C201.011 43.0283 200.728 43.8642 200.452 44.8366C200.316 45.5316 200.175 46.5039 199.898 47.8942C199.621 49.2844 199.202 50.8155 198.926 52.3421C198.643 53.8732 198.366 55.4042 198.23 56.7945C198.089 58.321 197.948 59.2934 198.089 59.9885L198.23 60.5473L198.784 60.2701C199.621 59.9885 200.316 59.7113 200.87 59.4342C201.565 59.157 202.26 58.8798 203.096 58.4618C204.069 58.044 204.622 57.9032 204.764 57.7668C205.041 57.626 205.182 57.626 205.318 57.626C205.459 57.626 205.595 57.4896 205.736 57.3488C205.877 57.3488 206.154 57.0717 207.403 56.5129C207.961 56.0993 208.656 55.5406 209.212 55.1227C209.766 54.7091 210.325 54.4276 210.879 54.1504C211.156 54.014 211.574 54.014 212.132 54.014H212.269H212.41C213.104 53.596 213.799 53.3188 214.355 53.0373C214.909 52.7601 215.468 52.4829 215.884 52.0649C216.44 52.3421 216.44 52.4829 216.44 52.4829C216.44 52.5094 216.434 52.5445 216.421 52.5797C216.531 52.3686 216.633 52.1486 216.721 51.9285C217.135 51.2335 217.416 50.5383 217.689 49.8432C218.665 48.035 219.637 46.2267 220.75 44.4186C221.722 42.6103 222.836 40.9429 224.087 39.4163C224.644 39.1348 225.198 38.8576 225.754 38.8576H225.893H226.17C226.312 38.8576 226.449 38.8576 226.589 38.9984C226.866 39.1348 227.144 39.2755 227.425 39.2755H227.702L228.397 39.9706C228.674 40.1114 228.674 40.3886 228.815 40.6657C228.951 41.2201 228.951 41.6381 228.951 41.9152C228.951 42.1967 228.951 42.4739 228.815 42.7511V42.8919V43.0283C228.815 43.4462 228.674 43.8642 228.397 44.4186C228.256 44.6957 227.979 44.9773 227.979 45.2545C227.979 45.3909 227.839 45.6724 227.702 45.8088C227.561 45.8088 227.425 45.8088 227.425 45.9495C227.144 46.0859 227.007 46.3675 227.007 46.6447H226.865L226.73 46.7811C226.17 47.8942 225.477 49.0072 224.782 50.1204C224.087 51.2335 223.392 52.4829 222.836 53.4552C222.278 54.5683 221.722 55.5406 221.446 56.3765C221.306 56.7945 220.888 57.9032 221.583 58.4618C221.722 58.5982 222.001 58.739 222.418 58.739C222.836 58.739 223.531 58.5982 224.364 58.3211C225.616 57.9032 227.144 57.3489 228.951 56.5129C230.759 55.8178 232.704 54.9862 234.93 54.014C237.016 53.0373 239.243 52.3421 241.464 51.6471C241.586 51.6161 241.728 51.5811 241.878 51.537L242.023 50.9519L242.577 49.9796L243.131 48.035L244.663 45.5316L245.216 43.0283C245.776 42.0561 246.33 41.2201 246.889 40.2478C247.302 39.4162 247.72 38.4396 248.138 37.6081C248.138 37.6081 248.274 37.6081 248.274 37.4673L249.11 37.8853L248.692 36.7721V36.495L249.11 36.0771L249.252 35.9406L249.664 34.6868L250.501 33.4373C250.919 33.0193 251.196 32.4651 251.473 32.0471C251.75 31.352 252.032 30.7932 252.445 30.2388C252.727 29.6845 253.14 29.1258 253.7 28.5714C253.835 28.5714 253.976 28.4307 254.118 28.2943L254.253 28.0127L254.118 27.8763V27.7355C254.253 27.3175 254.53 26.904 254.949 26.3453C255.367 25.7909 255.644 25.373 256.062 24.955C256.339 24.537 256.616 23.9827 256.898 23.4283C257.175 23.0105 257.452 22.5925 258.006 22.3153L258.147 22.1745L258.424 22.3153C259.119 21.0614 259.956 19.812 260.787 18.6988C261.623 17.5857 262.595 16.4771 263.567 15.364L265.933 12.1655C266.071 12.1655 266.348 12.0247 266.489 11.8883L267.461 10.6345C268.019 10.221 268.575 9.66222 268.993 9.10786C269.409 8.68989 269.824 8.13554 270.381 7.85394L270.519 7.71755L270.66 7.44037V7.15889C271.355 6.60454 271.909 5.90939 272.467 5.49141C273.162 4.93705 273.718 4.24202 274.272 3.54686C275.108 3.12889 275.803 2.43373 276.638 1.73858C277.193 1.18423 277.889 0.902746 279 0.902746H279.695H279.837H279.974C279.974 0.902746 280.255 0.766355 280.669 0.766355C281.086 0.766355 281.364 0.625567 281.645 0.348389L287.203 1.73858C287.342 2.01576 287.619 2.29294 288.037 2.71091C288.455 2.98808 288.732 3.40605 288.874 3.68323C289.427 4.37837 289.427 5.07342 289.009 5.90937C288.455 6.8817 288.037 7.85392 287.898 8.68987C287.76 8.83066 287.76 8.96705 287.619 8.96705H287.342L287.203 9.38502C287.065 9.6622 287.065 9.80299 287.065 9.93938C286.37 10.916 285.675 11.8883 285.121 12.8607C284.561 13.833 283.866 14.8052 283.312 15.782C283.171 15.782 283.035 15.9183 283.035 16.0591V16.1955H282.894V16.6135H282.753V16.8907H282.476V17.4493C282.476 17.5857 282.476 17.7265 282.34 17.7265C281.922 18.0037 281.781 18.2809 281.645 18.6988C280.669 20.2298 279.695 21.6201 278.723 23.1468C277.889 24.537 276.638 25.9273 275.389 27.3175V27.4583C274.967 28.2942 274.413 29.1258 273.857 29.8208C273.162 30.5159 272.467 31.3519 271.772 32.0471C271.772 32.0471 271.355 32.8786 271.214 33.4372C271.076 33.8552 270.8 33.9916 270.519 34.1324L270.104 34.2688L270.242 34.6868C269.824 34.8275 269.688 35.1047 269.547 35.3819L269.27 35.6591H269.129H268.993L268.852 35.7999C267.603 37.1901 266.489 38.8575 265.238 40.3885C264.127 41.9152 262.872 43.4462 261.623 44.9773C260.374 46.5039 258.984 47.8942 257.594 49.148C256.203 50.3975 254.53 51.5106 252.586 52.4828V52.6236L252.032 52.9008L252.586 53.4552C253.004 53.8731 253.14 54.0139 253.423 54.0139C253.7 54.0139 253.976 53.8731 254.118 53.4552L254.253 53.3188C254.253 53.3188 254.395 53.178 254.813 53.178C256.339 53.3188 257.87 53.3188 259.12 53.3188C260.651 53.3188 262.041 53.3188 263.29 53.178C265.653 52.9008 267.738 52.4828 269.824 51.7878C271.772 51.0926 273.857 50.2567 275.803 49.148C277.747 48.1714 280.255 46.9218 283.035 45.6723L286.788 44.0005C287.342 43.8642 288.037 43.7234 288.455 43.587C288.494 43.5694 288.535 43.5518 288.574 43.5342C288.992 43.1338 289.414 42.7335 289.846 42.3332C291.79 40.5249 293.74 39.1347 295.825 38.1624C296.797 37.608 297.769 37.19 298.741 36.7721C299.855 36.3541 300.827 35.9405 301.663 35.659C302.081 35.5226 302.358 35.3819 302.635 35.1047C302.777 35.1047 302.912 34.9639 303.33 34.9639C306.252 34.9639 308.197 35.3819 309.033 36.3541C309.864 37.19 310.282 38.026 310.282 38.8575C310.282 38.9983 310.005 39.2754 309.587 39.5526C309.033 39.9705 308.615 40.3885 308.338 40.8065C307.92 41.22 307.501 41.5016 307.224 41.9152C306.947 42.3332 306.665 42.6102 306.388 42.8918C302.912 45.5315 299.437 48.0349 296.102 49.9795C295.266 50.5383 294.158 50.9518 292.768 51.2334C291.931 51.3698 291.095 51.3698 290.264 51.3698C289.704 51.3698 289.15 51.3698 288.597 51.2334H288.314L288.178 51.3698C287.619 51.9285 287.065 52.4828 286.511 53.3188C285.952 54.1503 285.533 54.9861 285.257 55.8177C284.98 56.6536 284.838 57.6259 284.838 58.4618C284.838 59.4341 285.257 60.2701 286.093 60.9652L286.229 61.1016H286.37C286.788 61.1016 287.206 61.1016 287.619 61.2423C288.874 61.2423 290.123 61.1016 291.095 60.6836C292.349 60.2701 293.598 59.8521 294.853 59.5749C295.825 59.2933 296.797 59.0161 297.911 58.739C298.883 58.4618 299.855 58.1846 300.691 57.7668C302.5 56.9308 304.026 56.3764 305.139 55.8177C306.252 55.2633 307.36 54.8455 308.473 54.4275C309.587 54.0139 310.559 53.4552 311.814 52.9008C312.921 52.342 314.312 51.647 316.12 50.8155C317.514 50.2567 318.904 49.5615 320.291 48.8664C320.867 48.5805 321.443 48.3164 322.02 48.0525C322.139 47.8149 322.258 47.5774 322.377 47.3398C322.654 47.199 322.795 46.9219 322.795 46.781C323.211 45.2545 323.767 43.7234 324.462 42.1967C325.157 40.6657 325.711 39.1347 326.271 37.7444C326.406 37.4672 326.406 37.3308 326.547 37.1901L327.101 36.6357C327.523 36.4949 327.797 36.3541 328.077 36.2177C328.354 36.0771 328.492 36.0771 328.772 36.0771H328.914L329.328 36.2177C329.328 36.2177 329.467 36.0771 329.609 36.0771H330.163C330.44 36.0771 330.581 36.2177 330.858 36.2177C331.414 36.2177 331.83 36.4949 332.109 36.9129C332.943 38.026 332.943 38.8575 331.83 39.8298L331.694 39.9705V40.1113C331.553 40.6657 331.414 41.3608 331.276 41.9152C330.999 42.6102 330.858 43.169 330.858 43.587L330.581 44.6957L331.553 44.0005C334.475 42.056 337.532 40.6657 340.449 39.8297C343.371 39.1347 346.151 38.5803 348.514 38.4395C349.209 38.3031 350.045 38.3031 350.876 38.1624H351.294C351.712 38.1624 352.266 38.3031 352.543 38.4395V38.7211C352.543 38.7211 352.408 38.7211 352.408 38.8575L352.131 38.9983H351.989L351.712 39.2754C351.571 39.4162 351.571 39.6933 351.153 39.6933C350.599 39.8297 350.181 39.9705 349.763 40.3885C348.095 40.8065 346.287 41.3608 344.343 42.056C342.398 42.751 340.59 43.587 338.781 44.2821C336.973 45.1137 335.306 45.9495 333.915 46.781C332.389 47.617 331.276 48.5893 330.44 49.4251L328.218 51.3698C327.382 52.0648 326.687 52.9008 325.992 53.7323C325.711 54.4275 325.438 55.2633 325.157 56.0993C324.88 57.0716 324.601 57.9031 324.321 58.8798C324.048 59.7113 323.767 60.5472 323.49 61.2423C323.072 62.0738 322.934 62.2146 322.795 62.3554H322.654V62.4918C322.516 62.6326 322.239 63.0506 321.681 63.7457C321.126 64.3001 320.849 64.3001 320.849 64.3001H320.709H320.568C319.873 64.9951 319.319 65.1359 318.901 65.1359C318.347 65.1359 317.929 64.9951 317.51 64.5771C316.815 64.0229 316.538 63.1869 316.678 62.0738C316.815 61.3788 317.234 60.1293 317.787 58.5982C318.483 56.9308 318.763 55.8177 319.042 54.8454V54.7091C319.178 54.4275 319.178 54.2911 319.178 54.0139C319.587 53.3628 319.947 52.7073 320.26 52.0561C319.96 52.2364 319.648 52.4256 319.319 52.6236L315.148 54.8454C313.758 55.5405 312.509 56.2356 311.254 56.9308C310.005 57.4896 309.169 57.9031 308.615 58.1846L299.16 62.0738C298.464 62.4918 297.769 62.7689 296.938 62.9098C296.102 63.0505 295.266 63.3277 294.435 63.6049C293.463 63.8821 292.208 64.0229 290.959 64.3C289.846 64.4407 288.732 64.5771 287.76 64.5771C287.342 64.1593 287.065 64.1593 286.924 64.1593C285.675 64.1593 284.561 63.8821 283.448 63.4641C282.34 63.0505 281.504 62.3554 280.809 61.3788C280.255 60.6836 279.978 59.9885 279.837 59.0161C279.695 58.0439 279.837 57.0716 280.114 56.0993C280.391 55.1226 280.809 54.0139 281.227 53.0372C281.645 52.0648 282.199 51.0926 282.617 50.2567C283.035 49.9795 283.448 49.4251 283.731 49.0072C284.008 48.5893 284.143 48.1713 284.284 47.8942C284.32 47.859 284.351 47.8238 284.387 47.7886C283.924 48.0085 283.48 48.2329 283.035 48.4529C282.06 49.0072 281.086 49.5615 279.974 50.1203C279.279 50.5383 278.584 50.9518 277.889 51.2334C277.052 51.5106 276.498 51.9285 275.943 52.4828C273.718 53.178 271.909 53.8731 270.519 54.4275C269.129 55.1226 267.738 55.6813 266.489 56.0993C265.238 56.5128 263.848 56.7944 262.318 57.0716C261.346 57.208 260.233 57.208 258.984 57.208C258.147 57.208 257.175 57.208 256.203 57.0716L255.09 56.9308L255.785 57.7668C256.898 59.157 257.871 60.6836 258.424 62.3554C258.984 64.0229 259.538 65.8311 259.815 67.6349C260.092 69.4431 260.233 71.1105 260.092 72.7824C260.092 74.4497 259.815 75.84 259.679 77.0895C259.679 77.3666 259.815 77.6482 260.092 77.6482C259.538 80.1472 258.843 82.7913 258.006 85.2947C257.175 87.9343 256.062 90.5741 254.813 93.0774C254.118 94.1905 253.423 95.44 252.728 96.6938C252.032 97.9433 251.196 99.0565 250.36 100.169C249.387 101.278 248.274 102.391 247.166 103.364C246.471 104.199 245.776 104.895 245.217 105.449C244.663 106.008 243.967 106.703 243.131 107.257C242.718 107.398 242.436 107.675 242.159 108.093C242.159 108.093 242.023 108.37 241.187 108.511H240.91H240.769H240.492C240.215 108.511 240.074 108.511 239.938 108.647C239.378 108.788 238.824 109.065 238.406 109.206C238.129 109.342 237.57 109.62 236.875 109.76C236.18 110.315 236.044 110.315 235.767 110.315C235.349 110.315 235.072 110.178 234.654 110.038C233.958 109.76 233.399 109.483 232.704 109.206C232.427 109.065 232.009 108.925 231.732 108.788C231.455 108.647 231.315 108.647 231.178 108.511C230.62 108.093 230.064 107.398 229.646 106.426C229.23 105.449 228.815 104.617 228.535 103.782C228.12 101.696 227.84 99.4743 227.979 97.2482C228.12 95.0265 228.397 92.9367 228.815 90.8512C229.23 87.7936 229.925 84.5995 230.901 81.2603C231.873 77.7846 232.986 74.309 234.235 70.8334C235.484 67.3578 236.739 63.8821 237.988 60.5473C238.741 58.4839 239.494 56.5436 240.202 54.7311C239.709 54.9775 239.211 55.2062 238.683 55.4041C237.711 55.6813 236.321 56.3765 234.512 57.4896C232.704 58.5982 230.901 59.7113 228.951 60.8245C227.007 61.9375 225.198 63.0506 223.531 63.8821C222.001 64.718 221.165 64.8543 220.888 64.8543H220.611L220.332 64.718L220.055 64.8543C219.501 64.9951 219.36 64.9951 219.36 64.9951H218.806C217.416 64.9951 216.299 64.8543 215.327 64.5772C214.494 64.3001 213.799 63.8821 213.104 63.0506C212.964 62.2146 212.964 61.3788 213.104 60.5473C213.383 59.575 213.66 58.5982 214.213 57.3488L215.05 55.6813C215.327 55.1227 215.604 54.5683 215.745 53.8732C215.829 53.706 215.929 53.5256 216.031 53.3364C215.476 53.9567 214.697 54.4583 213.799 54.8455H213.66L212.411 56.0993C212.132 56.3765 211.715 56.6537 211.156 56.7945L209.212 58.1846L208.656 58.739C208.656 58.739 208.517 58.8798 208.098 59.0162C207.821 59.157 207.126 59.575 206.013 60.2701C205.041 60.6837 204.069 61.3788 202.814 62.0738C201.706 62.769 200.593 63.3278 199.621 63.6049C198.784 63.7457 198.089 63.8821 197.253 63.8821C196.558 64.0229 195.863 64.0229 195.309 64.0229H194.89C194.195 64.0229 193.641 63.6049 193.082 62.769C192.387 61.7967 192.11 60.9652 192.11 60.1293C192.11 59.8521 192.251 59.2933 192.528 57.7668C192.805 56.5129 193.082 55.2633 193.364 53.8731C193.641 52.4828 193.918 51.2334 194.337 49.9795C194.614 48.73 194.89 47.8942 194.89 47.3398C195.032 46.2267 195.167 45.2545 195.45 44.4185C195.727 43.587 196.004 42.6103 196.145 41.7788L196.281 41.0837L195.586 41.2201C194.891 41.3609 194.195 41.638 193.641 42.056L192.11 43.169C190.584 44.2822 188.917 45.3909 187.526 46.5039C185.995 47.617 184.463 48.8664 183.073 50.1204C182.242 50.8155 181.27 51.5107 180.292 52.2057C179.185 52.9008 178.207 53.7324 177.235 54.5683C174.318 57.3488 171.815 59.7113 170.006 61.6603C167.781 63.8822 166.809 64.4408 166.254 64.5772C166.114 65.136 165.977 65.136 165.835 65.136C165.419 65.136 164.863 64.9952 164.168 64.5772C163.334 64.1593 162.919 63.7458 162.778 63.187C162.778 63.0506 162.778 62.769 162.919 62.0739C163.192 61.5195 163.334 60.9653 163.614 60.4065C164.181 58.2199 164.886 56.0949 165.668 54.1723C165.413 54.3175 165.146 54.4495 164.863 54.5683H164.724L163.473 55.8177C163.196 56.0993 162.778 56.3765 162.224 56.5129L160.276 57.9032L159.72 58.4618C159.72 58.4618 159.581 58.5982 159.166 58.739C158.886 58.8798 158.19 59.2934 157.081 59.9885C156.105 60.4065 155.133 61.1016 153.878 61.7967C152.769 62.4918 151.657 63.0506 150.683 63.3278C149.849 63.4641 149.154 63.6049 148.321 63.6049C147.626 63.7457 146.93 63.7457 146.373 63.7457H145.955C145.26 63.7457 144.706 63.3278 144.15 62.4918C143.455 61.5195 143.174 60.6836 143.174 59.8521C143.174 59.5749 143.315 59.0162 143.592 57.4896C143.869 56.2357 144.15 54.9862 144.429 53.596C144.706 52.2057 144.983 50.9519 145.401 49.7023C145.678 48.4529 145.955 47.617 145.955 47.0626C146.096 45.9495 146.235 44.9773 146.514 44.1413C146.791 43.3054 147.068 42.3332 147.209 41.5017L147.345 40.8065L146.65 40.9429C145.955 41.0837 145.26 41.3609 144.706 41.7789L143.174 42.8919C141.648 44.0006 139.981 45.1137 138.591 46.2267C137.059 47.3399 135.527 48.5894 134.137 49.8432C133.306 50.5383 132.334 51.2335 131.356 51.9285C130.249 52.6237 129.271 53.4552 128.299 54.2911C125.383 57.0717 122.879 59.4342 121.07 61.3788C118.849 63.605 117.872 64.1593 117.318 64.3001C117.176 64.8544 117.041 64.8544 116.9 64.8544C116.481 64.8544 115.927 64.718 115.232 64.3001C114.396 63.8822 113.983 63.4642 113.842 62.9098C113.842 62.769 113.842 62.4918 113.983 61.7967C114.26 61.2423 114.396 60.6837 114.678 60.1293C115.509 56.9308 116.623 53.8732 117.872 51.3699C118.08 50.9783 118.286 50.5823 118.492 50.1819C117.965 50.5031 117.388 50.8551 116.76 51.2335L112.589 53.4552C111.199 54.1503 109.948 54.8455 108.699 55.5405C107.446 56.0993 106.61 56.5129 106.056 56.7945L96.6007 60.6837C95.9055 61.1016 95.2104 61.3788 94.3795 61.5195C93.5431 61.6603 92.7067 61.9375 91.8759 62.2147C90.9038 62.4918 89.6491 62.6326 88.4001 62.9098C87.2867 63.0506 86.1734 63.187 85.2013 63.187C84.7831 62.769 84.5061 62.769 84.3705 62.769C83.1158 62.769 82.0025 62.4918 80.8947 62.0739C79.7813 61.6603 78.9449 60.9653 78.2498 59.9885C77.6959 59.2934 77.4189 58.5982 77.2777 57.626C77.207 57.12 77.207 56.6096 77.2647 56.1037C74.629 57.4368 72.6458 58.6423 71.4395 59.8522L53.78 72.3644C53.2261 72.5008 52.9492 72.9188 52.6704 73.3368C52.6704 73.4775 52.531 73.6139 52.1165 73.7547L51.6945 73.8911L51.8358 74.309L51.5589 74.4497L51.2801 74.5861V74.8677C50.9994 75.8401 50.5849 76.6716 50.0273 77.5074C49.8898 77.6482 49.7504 77.7846 49.7504 78.2026V78.3434C48.2188 80.7059 46.6928 83.2093 45.5794 85.7082C44.3304 88.3523 43.0758 90.992 41.8267 93.4954C40.5777 95.9987 39.3231 98.6385 37.7971 101.001C36.4067 103.368 34.7339 105.731 32.7897 107.816C32.2358 108.647 31.6764 109.76 30.8455 111.292C30.0091 112.818 29.037 114.486 28.0649 116.017C27.0873 117.548 25.9795 119.074 25.0018 120.328C24.0297 121.578 23.1989 122.132 22.3624 122.273L21.6673 122.414L21.9443 122.968H21.8086C21.6673 122.968 21.6673 123.109 21.6673 123.109H21.1134V123.663C21.1134 123.804 20.8309 124.081 20.277 124.499C19.7231 124.913 19.3049 125.331 18.8867 125.889C18.4685 126.303 18.1915 126.721 18.0559 126.998C17.9146 127.139 17.6376 127.279 17.4964 127.693H17.3607H17.2194H17.0782H16.9425C16.6655 127.834 16.383 127.975 16.383 128.252L16.2473 128.388C15.8291 128.388 15.5522 128.529 15.4109 128.806C15.134 128.947 14.7158 129.224 14.7158 129.642H14.4388L14.2976 129.778C14.0206 130.06 13.8849 130.196 13.7437 130.474C13.0485 130.614 12.3533 131.032 11.9351 131.587C11.5169 132.005 10.963 132.282 10.4091 132.559L8.60061 133.118L9.01883 133.254L9.15451 133.536C9.15451 133.536 9.01883 133.536 9.01883 133.672C8.60061 133.813 8.18242 133.949 7.76421 134.231C7.20659 134.367 6.79211 134.508 6.3739 134.644C6.09695 134.644 5.81629 134.785 5.67875 134.926L5.12114 134.644V135.203H4.70666L4.426 135.898C4.28845 135.898 4.15278 135.757 4.15278 135.48L4.15249 135.48ZM11.6585 119.349C11.3815 120.044 10.9633 120.602 10.4094 121.157C9.9912 121.157 9.71426 121.716 9.43358 122.547C8.87784 123.106 8.45963 123.801 8.32394 124.633C8.18267 125.328 7.76446 125.887 7.48753 126.441V126.581V126.718C7.34813 127.277 7.06932 127.69 6.79239 128.108C6.37417 128.667 6.23849 129.362 6.37417 130.194L6.51172 130.752L7.06934 130.471C8.73844 129.639 9.99122 128.667 10.9633 127.413C11.9354 126.3 13.0488 125.191 14.4391 124.078L14.5803 123.937V123.66C14.993 123.383 15.4112 122.965 15.5524 122.411C15.6881 122.129 15.9706 121.852 16.2476 121.716L16.3833 121.575V121.434C17.0784 119.907 17.9148 118.517 19.0282 117.404C20.136 116.155 21.1136 114.764 21.9445 113.233C22.9166 112.12 23.753 111.012 24.4482 109.758C25.1433 108.508 25.9797 107.395 26.9518 106.423C27.9239 104.197 29.0373 102.252 30.4276 100.585C31.8179 98.7765 32.9312 96.5503 33.9033 93.9106C34.039 93.4926 34.1803 93.3518 34.1803 93.3518C34.3216 93.2154 34.4572 92.9382 34.3216 92.3796L34.1803 92.1024H33.0669L32.9312 92.2432C32.0948 93.2154 30.9815 94.465 29.7324 95.8553C28.4778 97.2455 27.2288 98.7765 25.9797 100.303C24.7251 101.834 23.4761 103.365 22.3627 104.755C21.2493 106.141 20.2773 107.255 19.7234 107.949C18.8869 109.34 17.9148 110.73 16.6658 112.12C15.4112 113.511 14.4391 114.764 13.6027 115.873L13.467 116.014V116.155C13.467 116.432 13.19 116.709 12.9075 117.127V117.263C12.7718 117.545 12.4949 117.959 12.3536 118.376C12.2123 118.654 12.0766 118.935 11.7997 119.212H11.6584L11.6585 119.349ZM246.193 57.3493C245.216 58.8803 244.385 60.6841 243.825 62.6331C243.272 64.4413 242.576 66.2451 241.74 68.0533C241.186 68.8892 240.768 69.8616 240.491 70.6974C240.214 71.5289 239.937 72.6421 239.655 73.6144C238.682 76.3949 237.71 79.1754 236.874 81.9559C236.043 84.7364 235.207 87.6577 234.653 90.8517C234.376 92.8008 234.093 94.8861 233.958 97.1079C233.816 99.334 234.093 101.56 234.93 103.923C235.625 106.008 236.738 107.121 238.129 107.398H238.406L238.547 107.258C240.35 105.867 242.023 104.2 243.272 102.532C244.521 100.865 245.634 99.0569 246.606 97.1079C249.664 91.6877 252.032 85.8495 253.699 79.8705C254.117 77.9259 254.53 75.8405 254.671 73.478C254.948 71.111 254.671 68.7485 253.835 66.3859C253.422 64.7184 252.727 63.4646 252.032 62.3559L249.664 59.2938C249.251 58.8802 248.833 58.4623 248.415 57.9036C248.138 57.4901 247.584 57.2085 247.024 57.2085H246.47H246.329L246.193 57.3493ZM304.587 38.5831C301.388 39.5553 298.608 41.0864 296.104 43.0309C293.742 44.98 291.379 47.2017 289.294 49.5643L288.599 50.4002H289.706C290.543 50.4002 291.379 50.2594 292.21 49.7051C292.905 49.2871 293.742 48.8691 294.437 48.592C296.245 47.3425 298.048 45.9522 299.857 44.4212C301.665 42.8946 303.333 41.3636 304.723 39.8325C305 39.6961 305.277 39.4189 305.277 39.001V38.3059L304.587 38.5831ZM250.569 48.2627C250.383 48.9578 250.453 49.345 250.779 49.5605L251.197 49.8421L251.474 49.4241C256.481 43.9995 261.07 38.5793 265.1 33.2954C269.129 28.0116 273.163 22.1734 277.194 16.0581C277.889 14.2498 278.724 12.5824 279.837 10.915C280.951 9.24317 281.782 7.15783 282.2 5.07238L282.341 4.65881L281.923 4.51802C281.646 4.37735 281.505 4.37735 281.228 4.37735H280.67L280.533 4.51802C279.001 5.63115 277.475 6.88065 275.943 8.27084C274.414 9.52476 273.163 10.915 272.051 12.3053H271.773L271.633 12.5824C271.492 12.7188 271.215 13.2776 270.661 14.109C270.105 14.945 269.41 15.9173 268.715 16.8896L266.63 19.8109C265.795 20.9239 265.518 21.3419 265.377 21.4783L265.239 21.6191V21.8962C265.239 21.8962 265.239 22.1734 264.544 22.5914L264.263 22.7322V23.0094C264.263 23.0094 264.263 23.1458 263.849 23.9816C263.568 24.6767 263.156 25.2311 262.873 25.9262C262.46 26.6214 262.042 27.18 261.765 27.8752C261.347 28.5703 261.07 28.8475 261.07 29.1247C260.929 29.5427 260.652 29.8197 260.375 30.2377C260.093 30.5149 259.816 30.7921 259.539 30.9329L258.702 31.3508L259.262 31.628C259.262 31.628 259.12 31.7688 259.12 31.9052C258.985 32.3231 258.702 32.6003 258.702 33.159C258.702 33.2954 258.567 33.4362 258.29 33.5726L257.594 33.8541L258.007 34.2677C257.73 34.4085 257.594 34.5493 257.594 34.6857V34.8265H256.204L257.453 35.658C257.176 35.7988 256.899 36.076 256.899 36.2167L256.204 35.7988L256.063 36.076L252.033 44.5583C251.474 45.8077 251.056 46.78 250.779 47.6159C250.704 47.8227 250.637 48.0074 250.589 48.1747C250.608 48.1747 250.624 48.1703 250.643 48.1703C250.611 48.2011 250.585 48.2319 250.569 48.2626L250.569 48.2627ZM102.022 37.1907C98.8254 38.1631 96.0448 39.6941 93.5411 41.6387C91.1787 43.5877 88.8163 45.8094 86.7309 48.172L86.0357 49.0079H87.1491C87.9799 49.0079 88.8163 48.8671 89.6472 48.3129C90.3423 47.8949 91.1787 47.4769 91.8739 47.1997C93.6824 45.9502 95.4853 44.56 97.2938 43.0289C99.1024 41.5023 100.77 39.9712 102.164 38.4403C102.437 38.3039 102.718 38.0267 102.718 37.6087V36.9136L102.022 37.1907ZM200.318 100.588V78.2028L214.357 78.3436V80.8425L202.957 80.7061V87.6574L213.52 87.7938V90.2971L202.957 90.1607V98.0843L214.914 98.2207V100.724L200.318 100.588ZM130.799 99.8921C129.685 99.3334 128.849 98.7791 128.159 97.9432C127.464 97.1116 127.046 96.1393 126.769 95.0219C126.492 93.9132 126.351 92.8002 126.351 91.5462L126.492 77.7844H129.132L128.99 91.2691C128.99 92.105 129.132 93.0772 129.267 93.9132C129.408 94.7447 129.827 95.4398 130.245 96.1393C130.658 96.8301 131.217 97.248 132.048 97.666C132.743 98.084 133.721 98.2203 134.828 98.2203C135.942 98.2203 136.914 98.084 137.609 97.666C138.304 97.248 138.999 96.83 139.418 96.1393C139.836 95.4399 140.254 94.7447 140.39 93.9132C140.531 93.0772 140.672 92.2458 140.672 91.2691L140.808 77.7844H143.447L143.17 91.687C143.17 92.9408 143.035 94.0495 142.752 95.1627C142.475 96.2757 141.921 97.248 141.226 98.084C140.531 98.9155 139.695 99.6149 138.587 100.029C137.473 100.446 136.219 100.724 134.693 100.724C133.161 100.724 131.912 100.446 130.799 99.8921V99.8921ZM183.768 100.446L183.633 90.8551L175.432 78.0612H178.767L185.023 88.2109L191.556 78.202H194.755L186.413 90.8551V100.446H183.768ZM151.378 100.17L151.516 77.926H160.139C160.834 77.926 161.666 78.0624 162.501 78.2032C163.334 78.344 164.168 78.6212 165.005 79.0392C165.835 79.4571 166.531 79.8707 167.367 80.4294C168.062 80.9837 168.757 81.6788 169.311 82.5148C169.867 83.3463 170.283 84.3185 170.701 85.4317C170.978 86.5448 171.261 87.7942 171.12 89.0481C171.12 90.4383 170.978 91.6878 170.566 92.6644C170.283 93.7732 169.729 94.7455 169.175 95.5814C168.616 96.4173 167.921 97.1124 167.226 97.6668C166.531 98.2211 165.7 98.7799 164.863 99.0571C164.032 99.4749 163.196 99.6157 162.36 99.8929C161.529 100.029 160.834 100.17 159.997 100.17H151.378ZM154.022 97.8053H159.027C160.278 97.8053 161.531 97.6645 162.64 97.3873C163.752 97.1101 164.726 96.5514 165.421 95.8563C166.255 95.1612 166.811 94.3297 167.369 93.2165C167.787 92.1035 168.064 90.854 168.064 89.323C168.064 87.7919 167.787 86.5425 167.369 85.4294C166.951 84.3163 166.255 83.4847 165.56 82.7897C164.726 82.0946 163.893 81.5358 162.78 81.2586C161.668 80.9814 160.559 80.7042 159.165 80.7042H154.157L154.022 97.8053ZM115.231 99.8925L115.372 89.4657L103.413 89.3249L103.274 99.7518H100.633L100.77 77.5077H103.413V86.9623L115.372 87.0987V77.6441H118.011L117.87 99.8926L115.231 99.8925ZM88.9556 99.7503C88.6749 99.6139 88.398 99.4732 88.121 99.196C87.8441 98.9145 87.7028 98.7781 87.5616 98.4965C87.5616 98.2194 87.4259 97.8058 87.4259 97.5242C87.4259 96.8291 87.7028 96.2747 88.121 95.8568C88.6749 95.4389 89.2344 95.1617 89.9296 95.1617C90.6247 95.1617 91.1786 95.4389 91.7325 95.8568C92.292 96.2747 92.4276 96.829 92.4276 97.5242C92.4276 98.2194 92.1507 98.7781 91.7325 99.196C91.1786 99.614 90.6247 99.8911 89.9296 99.8911C89.647 99.8911 89.2344 99.8911 88.9556 99.7504L88.9556 99.7503ZM78.6677 99.3342L73.5247 89.884H70.6028V99.3342H66.5732L66.8501 77.2309H74.6381C75.7514 77.2309 76.7235 77.3673 77.6956 77.5081C78.6677 77.6445 79.6398 78.0625 80.335 78.4804C81.1714 79.0392 81.7253 79.5936 82.1435 80.4294C82.5617 81.2609 82.8387 82.2377 82.8387 83.4871C82.8387 85.1546 82.4204 86.4084 81.4484 87.5171C80.6119 88.6302 79.2272 89.3254 77.5544 89.4662L83.3925 99.3342H78.6677ZM70.4648 86.6853L73.7993 86.8217H75.4666C76.0261 86.8217 76.5799 86.6853 76.9982 86.4082C77.4164 86.2675 77.8346 85.8495 78.1115 85.4315C78.3885 85.0136 78.5297 84.4592 78.5297 83.7641C78.5297 83.069 78.3885 82.651 78.1115 82.2375C77.8346 81.8195 77.552 81.5379 76.9982 81.2607C76.5799 81.12 76.0261 80.9836 75.4666 80.8428C74.9127 80.8428 74.3588 80.7064 73.9406 80.7064H70.4648V86.6853ZM227.978 33.4381C227.56 33.2973 227.283 33.1609 227.144 32.8794C227.006 32.6022 227.006 32.3251 227.006 31.9071C227.006 31.4891 227.144 31.0756 227.283 30.6576C227.424 30.0988 227.56 29.8216 227.701 29.4038V29.2674V29.1266C227.701 29.1266 227.839 28.8494 228.255 28.2951C228.815 27.7363 229.368 27.1819 230.064 26.6233C230.759 26.0689 231.314 25.7918 232.008 25.5146C232.149 25.5146 232.29 25.3738 232.567 25.3738C232.844 25.3738 232.985 25.5146 233.262 25.651L233.398 25.7918H233.681H233.816C233.958 25.7918 234.093 25.9281 234.093 25.9281C234.511 26.3461 234.653 27.0412 234.376 27.7363C234.234 28.4314 233.816 28.9902 233.262 29.2674L232.844 29.5446L232.985 29.8216L232.703 29.9624C232.567 30.0988 232.567 30.0988 232.567 30.2396L231.731 29.8216L232.149 30.9348L232.008 31.0756C231.731 31.212 231.595 31.3527 231.454 31.6299H231.036V31.7707L230.759 32.0479C230.619 32.3251 230.34 32.4658 229.924 32.6022C229.368 32.743 228.95 33.0201 228.673 33.2973C228.534 33.4381 228.396 33.4381 228.255 33.5744C228.255 33.5744 228.119 33.5744 227.978 33.4381L227.978 33.4381ZM61.0141 29.1247C60.8747 28.5703 60.8747 27.7344 61.1516 26.9028C61.4323 26.067 61.8468 25.0947 62.4044 24.2587C62.9583 23.4272 63.5177 22.8685 64.0716 22.5913C64.3486 22.5913 64.6274 22.4505 64.908 22.3142C65.0437 22.1734 65.185 22.037 65.3225 22.037C65.6032 22.037 65.8801 21.8962 66.0177 21.8962C66.2983 21.8962 66.7128 21.8962 66.9935 22.037C67.5474 22.1734 68.1013 22.3142 68.6607 22.5913C68.7964 22.7321 68.7964 23.0093 68.9377 23.1457V23.4272L68.2425 24.1223L69.2146 24.2587C69.9098 24.3995 69.9098 24.6767 69.9098 24.8175C69.9098 25.231 69.6328 25.3718 69.3559 25.5126L68.9377 25.649V25.9262C68.9377 26.067 68.7964 26.067 68.7964 26.2078C68.6607 26.3442 68.5195 26.4849 68.3838 26.762C67.6886 26.9028 67.4079 27.3164 67.2704 27.7344C67.2704 27.8751 67.1292 28.0115 66.8522 28.1523L66.1571 28.4295L66.434 28.7067L65.7389 29.4018C65.6032 29.5426 65.3225 29.6833 65.185 29.6833H64.908H64.7667H64.6273C64.4898 29.6833 64.3485 29.6833 64.2129 29.5426C63.9322 29.4018 63.7947 29.4018 63.6534 29.4018H63.3764C63.237 29.2654 63.0995 29.2654 62.9582 29.2654C62.8225 29.2654 62.6813 29.2654 62.4043 29.4018L62.1274 29.5426L61.9861 29.8197C61.1516 29.6833 61.014 29.2654 61.014 29.1247H61.0141Z" fill="white"/>
</g>
</svg>
