<svg width="448" height="98" viewBox="0 0 448 98" fill="none" xmlns="http://www.w3.org/2000/svg">
<path d="M192.998 37.0302L203.372 59.9575H200.608L197.941 53.9411H185.55L182.851 59.9575H180.217L190.591 37.0302H192.998ZM196.933 51.6321L191.762 40.0221L186.558 51.6321H196.933Z" fill="white"/>
<path d="M207.861 59.9575V37.1928H210.43V57.5835H223.244V59.9575H207.861Z" fill="white"/>
<path d="M238.826 37.0302L249.2 59.9575H246.436L243.769 53.9411H231.378L228.679 59.9575H226.045L236.419 37.0302H238.826ZM242.761 51.6321L237.59 40.0221L232.387 51.6321H242.761Z" fill="white"/>
<path d="M270.438 55.4371V37.1928H272.942V59.9575H270.893L256.193 41.2904V59.9575H253.689V37.1928H256.096L270.438 55.4371Z" fill="white"/>
<path d="M290.212 37.0302L300.586 59.9575H297.822L295.155 53.9411H282.764L280.065 59.9575H277.431L287.805 37.0302H290.212ZM294.147 51.6321L288.976 40.0221L283.772 51.6321H294.147Z" fill="white"/>
<path d="M322.37 56.1526L328.614 37.1277H330.728L336.972 56.1526L343.476 37.1928H346.175L338.045 60.1202H335.866L329.622 41.6482L323.346 60.1202H321.199L313.069 37.1928H315.866L322.37 56.1526Z" fill="white"/>
<path d="M351.067 37.1928H353.636V59.9575H351.067V37.1928Z" fill="white"/>
<path d="M377.052 55.4371V37.1928H379.556V59.9575H377.507L362.808 41.2904V59.9575H360.304V37.1928H362.71L377.052 55.4371Z" fill="white"/>
<path d="M394.615 39.5668V59.9575H392.013V39.5668H384.371V37.1928H402.257V39.5668H394.615Z" fill="white"/>
<path d="M423.54 37.1928V39.5343H409.654V47.3068H422.077V49.6483H409.654V57.616H423.703V59.9575H407.085V37.1928H423.54Z" fill="white"/>
<path d="M447.701 59.9575H444.546L437.945 51.1118H431.44V59.9575H428.871V37.1928H438.66C441.153 37.1928 443.148 37.8107 444.644 39.0465C446.14 40.2823 446.888 41.93 446.888 43.9897C446.888 45.8325 446.324 47.3177 445.197 48.4451C444.069 49.5725 442.574 50.3096 440.709 50.6565L447.701 59.9575ZM444.286 44.0872C444.286 42.678 443.777 41.5723 442.758 40.7701C441.739 39.9679 440.308 39.5668 438.465 39.5668H431.44V48.8028H438.433C440.167 48.8028 441.576 48.38 442.66 47.5345C443.744 46.6889 444.286 45.5398 444.286 44.0872Z" fill="white"/>
<path d="M0.619141 97.3751H0.947221L30.2104 25.7031L56.4284 97.3175L67.2478 69.7732L40.3318 0.645569" fill="white"/>
<path d="M174.93 0.624878L146.749 69.6548L127.399 19.9551L135.292 0.624878H134.964L127.239 19.545L119.882 0.647565H98.2427L116.184 46.6111L106.778 69.6461L79.9124 0.644077H58.2734L96.009 97.3212L101.129 84.282L116.35 47.0212L135.983 97.3195L141.105 84.2768L175.258 0.624878H174.93Z" fill="white"/>
<path d="M37.6307 10.0113L40.2343 0.868835L0.621094 97.3191H2.39583L37.6307 10.0113Z" fill="white"/>
<path d="M98.3397 88.1771L96.0205 97.3195L135.409 0.624878H133.629L98.3397 88.1771Z" fill="white"/>
<path d="M138.196 88.1771L135.988 97.3195L175.263 0.624878H173.486L138.196 88.1771Z" fill="white"/>
</svg>
