<svg width="479" height="120" viewBox="0 0 479 120" fill="none" xmlns="http://www.w3.org/2000/svg">
<path d="M62.9508 65.6729C62.9508 65.6729 50.4258 66.3542 48.9209 79.5564C48.9209 79.5564 46.0353 95.0995 62.5853 105.149C62.5853 105.149 36.4833 90.349 37.9619 66.1384C37.9619 66.1384 39.0645 46.6185 45.8426 40.9843C45.8426 40.9836 39.0141 64.8798 62.9508 65.6729Z" fill="white"/>
<path d="M45.3245 42.0315C45.3245 42.0315 38.3377 50.4989 38.8562 67.8408C39.37 85.0365 55.3662 111.95 87.8047 106.873C87.8047 106.873 78.4719 115.552 66.2662 115.991C54.3404 116.42 26.6777 111.736 26.6777 74.7648C26.6787 74.7641 28.334 53.9446 45.3245 42.0315Z" fill="white"/>
<path d="M66.1447 0.968872C66.1447 0.968872 55.3669 15.4222 44.822 16.8163C33.0091 18.3781 7.21879 26.8716 3.13571 48.0565C3.13571 48.0565 6.02757 42.0305 10.2414 38.3398C10.2414 38.3398 -11.5286 67.1196 11.4145 99.0437C11.4145 99.0437 6.9451 88.2564 8.41717 82.7475C8.41717 82.7475 11.9221 115.99 58.2747 119.031C58.2747 119.031 27.2356 110.362 27.2356 75.9789C27.2356 75.9789 27.4072 54.5507 45.3231 42.0301C45.3231 42.0301 38.1649 63.909 61.5224 65.6971C61.5224 65.6971 73.3649 64.7365 82.4303 73.8558C82.4303 73.8558 91.8043 85.02 97.5818 84.5377C103.24 84.0639 108.545 75.5775 104.43 67.162C100.315 58.7464 81.3205 28.7756 81.3205 28.7756C81.3205 28.7756 77.4535 22.5401 70.7955 22.5401C70.7955 22.5401 76.1612 18.9616 77.0501 8.92311C77.0501 8.92311 69.6971 17.136 61.3331 17.136C61.3329 17.1355 66.1447 13.0178 66.1447 0.968872Z" fill="white"/>
<path style="mix-blend-mode:multiply" opacity="0.33" d="M45.3235 42.0315C45.3235 42.0315 47.848 60.9931 64.7971 60.0011C81.7462 59.009 85.0299 79.8846 93.7027 83.5704C93.7027 83.5704 86.6288 78.4058 80.5207 72.1103C75.218 66.6445 62.6307 65.7679 61.5221 65.6985C60.4223 65.6291 39.7272 65.4627 45.3235 42.0315Z" fill="white"/>
<path style="mix-blend-mode:screen" opacity="0.49" d="M2.35772 79.9803C2.35772 79.9803 1.47212 46.2304 28.6325 35.6832C28.6325 35.6832 23.4456 34.8041 19.0509 36.65C19.0509 36.65 26.9631 24.8718 47.3539 21.3553C47.3539 21.3553 61.2932 18.903 66.145 0.968872C66.145 0.968872 54.4205 15.2662 44.8223 16.8163C35.2241 18.3663 7.79997 25.3554 3.13598 48.0567C4.91404 44.4248 7.31944 41.1354 10.2414 38.34C10.2414 38.34 -3.6009 57.0409 2.35772 79.9803Z" fill="white"/>
<path style="mix-blend-mode:screen" opacity="0.39" d="M65.5928 22.2786C65.5928 22.2786 71.1301 25.7065 74.6455 30.9796C78.1608 36.2528 101.234 68.2037 101.234 68.2037C101.234 68.2037 105.058 75.3891 102.795 81.6848C102.795 81.6848 108.74 74.9438 104.431 67.1621C100.122 59.3805 81.3213 28.7742 81.3213 28.7742C81.3213 28.7742 77.6333 21.2676 65.5928 22.2786Z" fill="white"/>
<path style="mix-blend-mode:multiply" opacity="0.91" d="M62.9512 65.6739C62.9512 65.6739 50.4262 66.3552 48.9213 79.5574C48.9213 79.5574 46.0357 95.1005 62.5857 105.15C62.5857 105.15 38.6931 91.6127 38.9671 65.6223C38.9671 65.6223 38.3857 51.2259 45.3238 42.0309C45.3238 42.0319 37.9015 64.785 62.9512 65.6739Z" fill="white"/>
<path style="mix-blend-mode:multiply" opacity="0.77" d="M45.3238 42.0315C45.3238 42.0315 38.3371 50.4989 38.8556 67.8408C39.3694 85.0365 55.3655 111.95 87.8041 106.873C87.8041 106.873 78.4713 115.552 66.2655 115.991C54.34 116.42 27.3018 111.673 27.3018 74.7019C27.3027 74.701 28.3327 53.9446 45.3238 42.0315Z" fill="white"/>
<path d="M118.237 40.8544H129.137V59.2994H150.307V40.8544H161.206V90.3205H150.307V68.9411H129.137V90.3205H118.237V40.8544ZM168.667 73.3427C168.667 70.6412 169.156 68.1958 170.134 66.0066C171.112 63.8175 172.44 61.9543 174.117 60.4173C175.84 58.8336 177.843 57.6226 180.125 56.7842C182.454 55.9457 184.923 55.5265 187.531 55.5265C190.14 55.5265 192.585 55.9457 194.867 56.7842C197.196 57.6226 199.199 58.8336 200.876 60.4173C202.599 61.9543 203.95 63.8175 204.928 66.0066C205.906 68.1958 206.395 70.6412 206.395 73.3427C206.395 76.0443 205.906 78.4896 204.928 80.6788C203.95 82.868 202.599 84.7544 200.876 86.3381C199.199 87.8751 197.196 89.0629 194.867 89.9013C192.585 90.7397 190.14 91.1589 187.531 91.1589C184.923 91.1589 182.454 90.7397 180.125 89.9013C177.843 89.0629 175.84 87.8751 174.117 86.3381C172.44 84.7544 171.112 82.868 170.134 80.6788C169.156 78.4896 168.667 76.0443 168.667 73.3427ZM179.147 73.3427C179.147 75.9045 179.869 77.9773 181.313 79.5609C182.803 81.1446 184.876 81.9364 187.531 81.9364C190.186 81.9364 192.236 81.1446 193.68 79.5609C195.17 77.9773 195.915 75.9045 195.915 73.3427C195.915 70.7809 195.17 68.7082 193.68 67.1245C192.236 65.5409 190.186 64.749 187.531 64.749C184.876 64.749 182.803 65.5409 181.313 67.1245C179.869 68.7082 179.147 70.7809 179.147 73.3427ZM212.568 56.365H223.048V61.8146H223.188C224.306 59.7186 225.633 58.1582 227.171 57.1335C228.708 56.0622 230.641 55.5265 232.97 55.5265C233.575 55.5265 234.181 55.5498 234.786 55.5964C235.392 55.643 235.951 55.7361 236.463 55.8759V65.4477C235.718 65.2148 234.972 65.0518 234.227 64.9586C233.528 64.8189 232.783 64.749 231.991 64.749C229.989 64.749 228.405 65.0285 227.24 65.5874C226.076 66.1464 225.168 66.9382 224.516 67.9629C223.91 68.9411 223.514 70.1288 223.328 71.5262C223.142 72.9235 223.048 74.4606 223.048 76.1374V90.3205H212.568V56.365ZM260.234 66.356C258.697 64.4463 256.67 63.4914 254.155 63.4914C253.27 63.4914 252.408 63.701 251.57 64.1202C250.732 64.5394 250.312 65.2614 250.312 66.2861C250.312 67.1245 250.732 67.7533 251.57 68.1725C252.455 68.5452 253.55 68.8945 254.854 69.2205C256.205 69.5 257.625 69.8261 259.116 70.1987C260.653 70.5247 262.073 71.0604 263.378 71.8056C264.728 72.5509 265.823 73.5756 266.661 74.8798C267.546 76.1374 267.989 77.8375 267.989 79.9801C267.989 82.1693 267.5 83.9859 266.522 85.4298C265.59 86.8271 264.379 87.9683 262.889 88.8533C261.398 89.6917 259.721 90.2739 257.858 90.6C255.995 90.9726 254.155 91.1589 252.339 91.1589C249.963 91.1589 247.564 90.8329 245.142 90.1808C242.72 89.4821 240.671 88.2711 238.994 86.5477L245.352 79.4911C246.33 80.7021 247.401 81.6337 248.566 82.2857C249.777 82.8913 251.174 83.194 252.758 83.194C253.969 83.194 255.063 83.031 256.042 82.705C257.02 82.3323 257.509 81.6802 257.509 80.7487C257.509 79.8637 257.066 79.2116 256.181 78.7924C255.343 78.3266 254.248 77.954 252.898 77.6745C251.593 77.3485 250.173 77.0224 248.636 76.6964C247.145 76.3237 245.725 75.7881 244.374 75.0894C243.07 74.3907 241.975 73.4126 241.09 72.155C240.252 70.8508 239.832 69.1274 239.832 66.9848C239.832 64.9819 240.228 63.2585 241.02 61.8146C241.859 60.3707 242.93 59.1829 244.234 58.2514C245.585 57.3198 247.122 56.6444 248.845 56.2252C250.569 55.7594 252.315 55.5265 254.085 55.5265C256.321 55.5265 258.58 55.8526 260.862 56.5047C263.145 57.1568 265.078 58.3212 266.661 59.9981L260.234 66.356ZM305.5 84.4516C303.823 86.5942 301.704 88.2478 299.142 89.4122C296.58 90.5767 293.925 91.1589 291.177 91.1589C288.569 91.1589 286.1 90.7397 283.771 89.9013C281.489 89.0629 279.486 87.8751 277.763 86.3381C276.086 84.7544 274.758 82.868 273.78 80.6788C272.802 78.4896 272.313 76.0443 272.313 73.3427C272.313 70.6412 272.802 68.1958 273.78 66.0066C274.758 63.8175 276.086 61.9543 277.763 60.4173C279.486 58.8336 281.489 57.6226 283.771 56.7842C286.1 55.9457 288.569 55.5265 291.177 55.5265C293.599 55.5265 295.788 55.9457 297.745 56.7842C299.748 57.6226 301.424 58.8336 302.775 60.4173C304.173 61.9543 305.244 63.8175 305.989 66.0066C306.734 68.1958 307.107 70.6412 307.107 73.3427V76.6265H282.793C283.212 78.6294 284.121 80.2363 285.518 81.4473C286.915 82.6118 288.639 83.194 290.688 83.194C292.412 83.194 293.855 82.8214 295.02 82.0761C296.231 81.2843 297.279 80.2829 298.164 79.0718L305.5 84.4516ZM296.627 69.5C296.673 67.73 296.091 66.2163 294.88 64.9586C293.669 63.701 292.109 63.0722 290.199 63.0722C289.035 63.0722 288.01 63.2585 287.125 63.6312C286.24 64.0038 285.471 64.4929 284.819 65.0984C284.214 65.6573 283.725 66.3327 283.352 67.1245C283.026 67.8698 282.84 68.6616 282.793 69.5H296.627ZM347.156 53.71C346.085 52.4058 344.758 51.4044 343.174 50.7057C341.637 50.007 339.843 49.6577 337.794 49.6577C335.745 49.6577 333.835 50.0536 332.065 50.8454C330.342 51.6373 328.828 52.7551 327.524 54.1991C326.266 55.5964 325.265 57.2732 324.519 59.2295C323.821 61.1858 323.471 63.3051 323.471 65.5874C323.471 67.9164 323.821 70.059 324.519 72.0152C325.265 73.925 326.266 75.6018 327.524 77.0457C328.781 78.443 330.248 79.5376 331.925 80.3295C333.649 81.1213 335.488 81.5172 337.445 81.5172C339.68 81.5172 341.66 81.0514 343.383 80.1199C345.107 79.1883 346.527 77.8841 347.645 76.2073L356.728 82.9844C354.632 85.9189 351.977 88.0847 348.763 89.4821C345.549 90.8794 342.242 91.5781 338.842 91.5781C334.976 91.5781 331.413 90.9726 328.152 89.7616C324.892 88.5505 322.074 86.8271 319.698 84.5914C317.323 82.309 315.46 79.5609 314.109 76.347C312.805 73.1331 312.153 69.5466 312.153 65.5874C312.153 61.6283 312.805 58.0418 314.109 54.8279C315.46 51.614 317.323 48.8891 319.698 46.6534C322.074 44.3711 324.892 42.6244 328.152 41.4133C331.413 40.2023 334.976 39.5968 338.842 39.5968C340.239 39.5968 341.683 39.7365 343.174 40.016C344.711 40.2489 346.201 40.6448 347.645 41.2037C349.136 41.7627 350.556 42.5079 351.907 43.4395C353.258 44.3711 354.469 45.5122 355.54 46.863L347.156 53.71ZM361.449 37.5008H371.929V90.3205H361.449V37.5008ZM400.768 86.0586H400.628C399.464 87.8751 397.903 89.1793 395.947 89.9712C394.037 90.763 392.011 91.1589 389.869 91.1589C388.285 91.1589 386.748 90.926 385.257 90.4602C383.814 90.041 382.533 89.3889 381.415 88.5039C380.297 87.619 379.412 86.5244 378.76 85.2202C378.108 83.916 377.782 82.4022 377.782 80.6788C377.782 78.7225 378.131 77.069 378.83 75.7182C379.575 74.3674 380.553 73.2496 381.764 72.3646C383.022 71.4796 384.442 70.8042 386.026 70.3384C387.61 69.8261 389.24 69.4534 390.917 69.2205C392.64 68.9877 394.34 68.8479 396.017 68.8013C397.74 68.7548 399.324 68.7315 400.768 68.7315C400.768 66.8683 400.093 65.4011 398.742 64.3298C397.438 63.212 395.877 62.653 394.061 62.653C392.337 62.653 390.754 63.0256 389.31 63.7709C387.912 64.4696 386.655 65.4477 385.537 66.7053L379.948 60.9762C381.904 59.1596 384.186 57.8089 386.795 56.9239C389.403 55.9923 392.104 55.5265 394.899 55.5265C397.973 55.5265 400.489 55.9225 402.445 56.7143C404.448 57.4595 406.031 58.5774 407.196 60.0679C408.407 61.5584 409.245 63.3983 409.711 65.5874C410.177 67.73 410.41 70.222 410.41 73.0633V90.3205H400.768V86.0586ZM398.183 75.4387C397.391 75.4387 396.39 75.4853 395.179 75.5785C394.014 75.6251 392.873 75.8114 391.755 76.1374C390.684 76.4635 389.752 76.9525 388.96 77.6046C388.215 78.2567 387.843 79.165 387.843 80.3295C387.843 81.5871 388.378 82.5186 389.449 83.1242C390.521 83.7297 391.639 84.0324 392.803 84.0324C393.828 84.0324 394.806 83.8927 395.738 83.6132C396.716 83.3338 397.577 82.9378 398.323 82.4255C399.068 81.9131 399.65 81.261 400.069 80.4692C400.535 79.6774 400.768 78.7458 400.768 77.6745V75.4387H398.183ZM436.198 66.356C434.661 64.4463 432.635 63.4914 430.12 63.4914C429.235 63.4914 428.373 63.701 427.535 64.1202C426.696 64.5394 426.277 65.2614 426.277 66.2861C426.277 67.1245 426.696 67.7533 427.535 68.1725C428.42 68.5452 429.514 68.8945 430.819 69.2205C432.169 69.5 433.59 69.8261 435.081 70.1987C436.618 70.5247 438.038 71.0604 439.342 71.8056C440.693 72.5509 441.788 73.5756 442.626 74.8798C443.511 76.1374 443.954 77.8375 443.954 79.9801C443.954 82.1693 443.465 83.9859 442.486 85.4298C441.555 86.8271 440.344 87.9683 438.853 88.8533C437.363 89.6917 435.686 90.2739 433.823 90.6C431.96 90.9726 430.12 91.1589 428.303 91.1589C425.928 91.1589 423.529 90.8329 421.107 90.1808C418.685 89.4821 416.636 88.2711 414.959 86.5477L421.317 79.4911C422.295 80.7021 423.366 81.6337 424.531 82.2857C425.742 82.8913 427.139 83.194 428.723 83.194C429.934 83.194 431.028 83.031 432.006 82.705C432.985 82.3323 433.474 81.6802 433.474 80.7487C433.474 79.8637 433.031 79.2116 432.146 78.7924C431.308 78.3266 430.213 77.954 428.862 77.6745C427.558 77.3485 426.138 77.0224 424.6 76.6964C423.11 76.3237 421.689 75.7881 420.339 75.0894C419.034 74.3907 417.94 73.4126 417.055 72.155C416.216 70.8508 415.797 69.1274 415.797 66.9848C415.797 64.9819 416.193 63.2585 416.985 61.8146C417.823 60.3707 418.895 59.1829 420.199 58.2514C421.55 57.3198 423.087 56.6444 424.81 56.2252C426.533 55.7594 428.28 55.5265 430.05 55.5265C432.286 55.5265 434.545 55.8526 436.827 56.5047C439.11 57.1568 441.043 58.3212 442.626 59.9981L436.198 66.356ZM468.539 66.356C467.002 64.4463 464.976 63.4914 462.461 63.4914C461.576 63.4914 460.714 63.701 459.876 64.1202C459.037 64.5394 458.618 65.2614 458.618 66.2861C458.618 67.1245 459.037 67.7533 459.876 68.1725C460.761 68.5452 461.855 68.8945 463.16 69.2205C464.51 69.5 465.931 69.8261 467.421 70.1987C468.959 70.5247 470.379 71.0604 471.683 71.8056C473.034 72.5509 474.129 73.5756 474.967 74.8798C475.852 76.1374 476.295 77.8375 476.295 79.9801C476.295 82.1693 475.806 83.9859 474.827 85.4298C473.896 86.8271 472.685 87.9683 471.194 88.8533C469.704 89.6917 468.027 90.2739 466.164 90.6C464.301 90.9726 462.461 91.1589 460.644 91.1589C458.269 91.1589 455.87 90.8329 453.448 90.1808C451.026 89.4821 448.976 88.2711 447.3 86.5477L453.658 79.4911C454.636 80.7021 455.707 81.6337 456.872 82.2857C458.083 82.8913 459.48 83.194 461.064 83.194C462.275 83.194 463.369 83.031 464.347 82.705C465.325 82.3323 465.815 81.6802 465.815 80.7487C465.815 79.8637 465.372 79.2116 464.487 78.7924C463.649 78.3266 462.554 77.954 461.203 77.6745C459.899 77.3485 458.478 77.0224 456.941 76.6964C455.451 76.3237 454.03 75.7881 452.679 75.0894C451.375 74.3907 450.281 73.4126 449.396 72.155C448.557 70.8508 448.138 69.1274 448.138 66.9848C448.138 64.9819 448.534 63.2585 449.326 61.8146C450.164 60.3707 451.236 59.1829 452.54 58.2514C453.891 57.3198 455.428 56.6444 457.151 56.2252C458.874 55.7594 460.621 55.5265 462.391 55.5265C464.627 55.5265 466.886 55.8526 469.168 56.5047C471.451 57.1568 473.383 58.3212 474.967 59.9981L468.539 66.356Z" fill="white"/>
</svg>
