<svg width="144" height="144" viewBox="0 0 144 144" fill="none" xmlns="http://www.w3.org/2000/svg">
<path d="M71.8658 26.5215C67.6839 32.1988 63.6327 37.6873 59.5524 43.2338C65.7236 45.4699 79.8521 45.3102 84.0921 42.987C80.0554 37.5421 76.0332 32.1116 71.8803 26.5215H71.8658ZM117.736 70.2262C112.059 70.1246 106.744 68.6 101.72 65.9864C99.8904 65.0281 99.8614 65.0572 98.6998 66.8141C98.148 67.6417 97.5962 68.4693 97.0589 69.3115C96.5652 70.081 96.057 70.052 95.4907 69.3841C94.5469 68.2661 93.5595 67.2061 92.6592 66.0445C91.9332 65.1007 91.2507 64.9846 90.2343 65.6525C85.6022 68.6436 80.4765 69.9939 75.0168 70.2262C73.4485 70.2843 73.3033 70.1827 73.2453 68.5855C73.2017 67.4675 73.3179 66.3349 73.2888 65.2169C73.2453 63.7504 74.0148 63.0389 75.3653 62.6904C77.1803 62.2258 78.9954 61.7902 80.7669 61.1659C84.4261 59.8736 86.2557 57.1584 86.488 53.3251C86.5606 52.0184 86.2266 51.6989 84.9053 51.8151C81.7979 52.091 78.6905 52.3668 75.5831 52.6863C70.7768 53.1799 66.0285 52.5411 61.2803 52.0619C60.4527 51.9748 59.625 51.9022 58.7973 51.7715C57.868 51.6263 57.4905 52.0474 57.4469 52.9331C57.2872 56.0984 58.5214 58.6249 61.2658 60.1204C63.168 61.1513 65.317 61.8047 67.4225 62.4146C70.4428 63.2858 70.5009 63.2277 70.5009 66.364C70.5009 66.8286 70.5009 67.2787 70.5009 67.7433C70.5009 69.8923 70.2685 70.1827 68.0614 70.1391C63.139 70.052 58.7538 68.1789 54.5283 65.8558C52.6116 64.8103 52.6406 64.7813 51.2031 66.364C50.3028 67.3513 49.417 68.3387 48.5023 69.3115C47.6455 70.2117 47.2825 70.1827 46.571 69.1227C45.9902 68.2661 45.3949 67.4094 44.8721 66.5092C44.2768 65.5073 43.5507 65.4056 42.5779 65.9429C38.5121 68.1499 34.1995 69.6019 29.5965 70.081C27.7814 70.2698 25.9518 70.1972 24.1223 70.2408C23.1784 70.2698 22.7573 69.8052 22.7718 68.8759C22.7864 67.6707 22.7718 66.4656 22.7718 65.2605C22.7864 63.9537 23.4543 63.2567 24.7321 62.9082C27.8976 62.0516 31.1357 61.3837 34.1414 60.1349C39.2527 58.0005 43.1587 54.2544 46.3968 49.7968C47.3842 48.4465 47.2825 48.1706 45.7579 47.3575C43.5362 46.1378 41.3146 44.9036 39.0784 43.7275C38.062 43.1903 37.757 42.653 38.5412 41.6076C39.6012 40.1702 40.5595 38.6601 41.5033 37.1355C42.1423 36.0901 42.9118 35.9739 43.9138 36.5257C46.237 37.8179 48.6039 39.0521 50.8981 40.388C51.842 40.9397 52.4228 40.7655 52.9601 39.8943C55.4576 35.8578 57.9696 31.8358 60.4527 27.8138C60.7285 27.3491 60.9754 26.87 61.1932 26.3763C62.0209 24.4597 61.7159 23.1529 60.0751 21.8606C59.4217 21.3379 58.7102 20.9023 58.0277 20.4522C57.2146 19.915 56.9677 19.2035 57.3743 18.3033C57.7954 17.3595 58.231 16.4157 58.6811 15.4719C59.1168 14.5426 59.8138 14.2958 60.7285 14.7023C62.8921 15.6607 65.0702 16.5899 67.2047 17.6208C68.2502 18.129 68.9907 18.0419 69.6587 17.0691C70.1379 16.3866 70.7332 15.7913 71.2559 15.1525C71.7787 14.5136 72.2869 14.5571 72.8096 15.1525C73.3469 15.7913 73.9132 16.4012 74.4214 17.0546C75.0603 17.8967 75.8009 17.9838 76.7302 17.5482C78.9083 16.5318 81.1299 15.5881 83.308 14.5426C84.2663 14.078 84.8472 14.2813 85.2537 15.2541C85.7039 16.3286 86.1976 17.374 86.7203 18.4194C87.0979 19.189 86.9527 19.7407 86.1976 20.2054C85.3844 20.7136 84.5858 21.2508 83.8598 21.8606C82.4658 23.0513 82.1318 24.5613 82.7998 26.2601C83.0611 26.9135 83.3661 27.5669 83.7581 28.1477C86.4009 31.981 89.0872 35.7852 91.7444 39.6184C92.3107 40.4315 92.8915 40.5186 93.7337 40.0395C95.6795 38.9214 97.6543 37.8615 99.6291 36.7725C101.372 35.8142 101.444 35.8287 102.606 37.4985C103.506 38.8053 104.392 40.0976 105.292 41.4043C106.091 42.5805 106.018 42.9725 104.784 43.6694C102.62 44.9036 100.457 46.1669 98.2642 47.3575C97.4074 47.8221 97.2332 48.2722 97.814 49.1144C103.158 56.7373 110.244 61.616 119.58 62.9228C120.611 63.068 121.047 63.4455 121.003 64.5054C120.945 65.9574 120.945 67.4239 121.003 68.8759C121.047 69.9213 120.597 70.3134 119.595 70.2553C119.014 70.2117 118.433 70.2553 117.852 70.2553L117.736 70.2262Z" fill="white"/>
<path d="M71.9493 116.569C76.1152 110.945 80.1359 105.509 84.3453 99.8262C75.9555 97.6808 67.856 97.8258 59.4952 99.7247C63.7481 105.48 67.7834 110.959 71.9348 116.584L71.9493 116.569ZM96.3785 72.7766C97.2784 74.1247 98.1058 75.3569 98.9477 76.589C99.9347 78.0386 100.007 78.0676 101.531 77.2558C105.654 75.0814 110.008 73.6173 114.653 73.1245C116.337 72.9505 118.064 72.936 119.763 72.9795C120.155 72.9795 120.851 73.5014 120.88 73.8348C121.011 75.4438 121.04 77.0674 120.967 78.6764C120.909 79.7782 120.14 80.3725 119.066 80.474C109.791 81.3872 103.273 86.6638 97.9171 93.8103C97.1768 94.7961 97.4381 95.3324 98.3961 95.8543C100.617 97.0865 102.794 98.3911 105.015 99.6088C105.828 100.058 105.973 100.537 105.451 101.29C104.318 102.928 103.215 104.595 102.112 106.248C101.546 107.089 100.849 107.045 100.065 106.581C98.0478 105.436 96.0156 104.291 93.9835 103.16C92.7061 102.45 92.3578 102.508 91.5014 103.711C88.9176 107.379 86.3484 111.061 83.7792 114.743C83.6196 114.975 83.4599 115.236 83.3293 115.482C81.689 118.439 82.3567 120.701 85.3469 122.353C87.0597 123.295 87.1758 123.643 86.3339 125.368C85.9565 126.151 85.5501 126.934 85.2162 127.731C84.8243 128.688 84.2728 128.949 83.2712 128.47C81.1375 127.441 78.9311 126.557 76.8119 125.528C75.7233 124.991 74.9539 125.078 74.2572 126.108C73.8653 126.687 73.3427 127.18 72.9073 127.731C72.2251 128.572 71.6299 128.485 71.0058 127.659C70.4977 127.006 69.9462 126.383 69.4236 125.731C68.872 125.035 68.2624 124.933 67.4495 125.31C65.2287 126.354 62.9788 127.311 60.758 128.369C59.7129 128.876 59.0597 128.731 58.6097 127.601C58.1598 126.484 57.6227 125.412 57.1001 124.325C56.7373 123.571 56.9259 123.092 57.6662 122.701C58.4791 122.281 59.2774 121.817 60.0032 121.266C61.687 119.99 62.0208 118.599 61.1789 116.656C60.8886 115.975 60.5403 115.294 60.1483 114.67C57.7533 110.829 55.3002 107.016 52.9342 103.16C52.3682 102.233 51.8021 102.16 50.9166 102.653C48.6813 103.929 46.4024 105.146 44.1525 106.393C42.5558 107.263 42.5413 107.263 41.4962 105.741C40.2769 103.958 39.0867 102.16 37.7948 100.218C38.6222 99.7392 39.3915 99.3044 40.1608 98.855C42.1204 97.7533 44.0799 96.6806 46.025 95.5499C47.2733 94.8251 47.3313 94.4627 46.4604 93.303C41.2059 86.2869 34.4998 81.6191 25.6455 80.3725C23.2795 80.0391 22.8005 79.4157 22.7715 76.9949C22.7715 76.0382 22.7715 75.0814 22.7715 74.1247C22.7715 73.3129 23.1053 72.9505 23.9617 72.8925C29.0421 72.5591 33.9047 73.4144 38.5931 75.3279C39.9721 75.8932 41.3511 76.502 42.6574 77.2268C43.717 77.8067 44.3267 77.5603 44.8928 76.5745C45.4589 75.6033 46.1556 74.719 46.7362 73.7623C47.2588 72.9215 47.7813 72.936 48.4055 73.6318C49.3925 74.7625 50.3796 75.8787 51.3666 77.0094C52.252 77.9951 53.1665 78.0821 54.3422 77.3863C57.913 75.2699 61.716 73.7188 65.8383 73.11C66.9415 72.9505 68.0737 72.9795 69.1914 72.965C70.0333 72.965 70.5123 73.3274 70.4832 74.2552C70.4542 75.5888 70.4832 76.9079 70.4977 78.2416C70.5123 79.3868 69.9171 79.9811 68.8575 80.271C67.1012 80.7639 65.3303 81.2278 63.603 81.8076C59.7564 83.1267 57.5066 85.9535 57.4485 89.418C57.4195 91.0416 57.6807 91.3025 59.321 91.1866C63.5449 90.8966 67.7834 90.3893 72.0073 90.3458C75.6942 90.3168 79.3811 90.8097 83.0825 91.0706C83.3293 91.0851 83.576 91.1286 83.8228 91.1576C86.4936 91.375 86.929 90.8966 86.3484 88.2294C85.6807 85.1417 83.8518 82.9963 80.8762 81.9526C79.0472 81.3002 77.1312 80.8509 75.2442 80.3725C73.9088 80.0391 73.2847 79.2853 73.3282 77.8937C73.3718 76.647 73.3137 75.4003 73.2992 74.1537C73.2992 73.2114 73.7637 72.878 74.7072 72.8925C79.9327 72.9505 84.7953 74.2841 89.3676 76.821C91.7626 78.1546 91.3852 78.6475 93.577 76.0527C94.477 74.98 95.3915 73.9217 96.3785 72.7476V72.7766Z" fill="white"/>
<path d="M71.8848 137.932C35.548 137.932 6.09318 108.476 6.09318 72.1378C6.09318 35.7998 35.548 6.32877 71.8848 6.32877C108.222 6.32877 137.676 35.7853 137.676 72.1233C137.676 108.461 108.222 137.918 71.8848 137.918V137.932ZM71.8848 0.623291C32.404 0.623291 0.384766 32.635 0.384766 72.1233C0.384766 111.612 32.404 143.623 71.8848 143.623C111.366 143.623 143.385 111.612 143.385 72.1233C143.385 32.635 111.38 0.623291 71.8848 0.623291Z" fill="white"/>
</svg>
