<svg width="577" height="97" viewBox="0 0 577 97" fill="none" xmlns="http://www.w3.org/2000/svg">
<path d="M63.9089 26.2044H70.4701C75.9195 26.2044 77.8186 27.0858 79.3254 30.1702C80.2016 31.8495 80.8774 33.6259 81.3389 35.463L82.5651 35.3022C82.1904 31.4876 81.9479 25.3883 81.9248 23.7153C81.0406 23.7957 78.478 23.8761 70.7357 23.8761H49.0742C50.8245 24.3262 52.4788 25.0896 53.9569 26.1294C55.6269 27.2933 56.9818 28.8536 57.9001 30.6702C58.8184 32.4869 59.2713 34.503 59.2183 36.5379C59.2324 38.9436 58.6371 41.3136 57.4879 43.4271C56.3388 45.5406 54.6731 47.3287 52.6463 48.6247V56.1558C54.025 58.4814 55.4705 60.8709 56.5209 62.518C58.7006 65.9716 60.0235 67.9811 61.2442 69.5805C61.1488 68.5219 61.1284 67.225 61.1284 65.6078V50.4939H70.5109C76.4113 50.4939 76.7928 51.66 78.2096 57.243H79.4126V41.4151H78.2627C76.9235 47.0743 76.4685 48.1084 70.5681 48.1084H61.1297V28.8801C61.1297 26.5531 61.5793 26.2044 63.9089 26.2044Z" fill="white"/>
<path d="M67.9257 76.6702C67.4393 76.6702 65.299 76.6702 64.4748 76.6416C55.8361 76.2397 53.5991 74.7561 50.6959 70.4646C47.9372 66.3462 44.9645 61.1652 42.3065 56.2348C40.4251 52.8003 39.3311 52.0033 36.1173 52.0033H34.1392V66.5547C34.1392 73.1158 34.6841 73.8433 40.8011 74.989V76.1633H19.1328V74.989C25.198 73.8146 25.7661 73.2752 25.7661 66.5547V33.3799C25.7661 26.8201 25.2553 26.0231 19.1328 25.0531V23.8788H39.9278C46.1279 23.8788 50.2641 24.6594 53.4152 26.9073C54.9627 27.9816 56.2173 29.4255 57.065 31.1078C57.9127 32.7901 58.3266 34.6576 58.2693 36.5405C58.2693 44.1289 52.6945 48.0879 48.0243 50.0865C49.3445 52.4556 53.4111 59.405 55.7189 63.0289C57.5373 66.1284 59.5953 69.081 61.8741 71.8597C63.4493 73.8228 65.6797 75.1521 68.1559 75.6034L67.9257 76.6702ZM36.9116 50.2404C40.8297 50.2404 43.4509 49.968 45.4944 48.2091C48.0829 46.0621 49.0788 43.0771 49.0788 38.3552C49.0788 29.2274 44.3569 25.6458 38.9824 25.6458C37.6449 25.5004 36.2928 25.7144 35.0656 26.2657C34.4457 26.6948 34.1515 27.3146 34.1515 29.2628V50.2431L36.9116 50.2404Z" fill="white"/>
<path d="M95.0414 14.9186V94.2364H2.80971V2.00478H79.2571C79.3478 1.38231 79.4886 0.768182 79.678 0.168335H0.974609V96.0783H96.8846V14.1461C96.2965 14.4623 95.6792 14.721 95.0414 14.9186Z" fill="white"/>
<path d="M91.1952 4.74072H86.6367V9.29781H91.1952V4.74072Z" fill="white"/>
<path d="M156.265 65.096C155.552 65.096 154.952 65.0414 154.239 64.9856C152.527 65.0233 150.835 64.6078 149.336 63.7812C147.836 62.9546 146.581 61.7463 145.699 60.2787C143.674 57.4858 141.704 54.0377 139.951 51.2462C138.861 49.4942 138.144 49.1659 135.353 49.1659H133.437V57.761C133.437 62.4135 134.039 62.6887 138.419 63.1246V64.6573H123.803V63.1246C128.346 62.6328 128.73 62.4135 128.73 57.761V35.9197C128.73 31.2659 128.128 31.1024 123.803 30.6065V29.0739H137.761C141.759 29.0739 144.437 29.5657 146.52 30.9348C147.716 31.7096 148.689 32.7834 149.341 34.05C149.994 35.3165 150.305 36.7318 150.242 38.1553C150.242 42.8623 147.233 45.8186 143.181 47.5706C144.166 49.2681 146.52 52.9342 148.163 55.3987C149.469 57.3785 150.915 59.2628 152.489 61.0375C153.532 62.2656 154.926 63.1444 156.484 63.5551L156.265 65.096ZM136.064 47.2995C138.91 47.2995 140.718 46.8608 142.087 45.7123C143.112 44.9317 143.925 43.906 144.451 42.7294C144.977 41.5527 145.199 40.2629 145.096 38.9782C145.096 33.12 141.21 30.9866 136.994 30.9866C135.994 30.8727 134.983 31.0626 134.093 31.5315C133.601 31.9143 133.436 32.462 133.436 33.8857V47.2995H136.064Z" fill="white"/>
<path d="M198.527 28.3091C200.889 28.2897 203.231 28.7463 205.414 29.6516C207.596 30.5569 209.573 31.8923 211.228 33.5783C212.883 35.2642 214.182 37.2662 215.047 39.4648C215.912 41.6634 216.325 44.0136 216.262 46.3753C216.262 58.1447 208.27 65.4796 198.197 65.4796C195.788 65.5286 193.393 65.0882 191.159 64.1853C188.924 63.2823 186.896 61.9355 185.197 60.2264C183.498 58.5172 182.164 56.4811 181.274 54.2413C180.384 52.0015 179.958 49.6046 180.022 47.1954C180.023 37.396 186.978 28.3091 198.527 28.3091ZM197.437 30.3349C191.306 30.3349 185.721 35.4805 185.721 45.7173C185.721 55.8982 191.306 63.398 199.072 63.398C205.694 63.398 210.676 58.4703 210.676 47.9066C210.679 36.411 204.603 30.3349 197.431 30.3349H197.437Z" fill="white"/>
<path d="M275.928 65.096C275.218 65.096 274.614 65.0414 273.902 64.9856C272.19 65.0233 270.498 64.6078 268.999 63.7812C267.499 62.9546 266.245 61.7463 265.363 60.2787C263.337 57.4858 261.365 54.0377 259.613 51.2462C258.524 49.4942 257.807 49.1659 255.017 49.1659H253.104V57.761C253.104 62.4135 253.706 62.6887 258.085 63.1246V64.6573H243.467V63.1246C248.009 62.6328 248.392 62.4135 248.392 57.761V35.9197C248.392 31.2659 247.79 31.1024 243.467 30.6065V29.0739H257.424C261.421 29.0739 264.1 29.5657 266.184 30.9348C267.379 31.7103 268.351 32.7843 269.004 34.0507C269.657 35.317 269.968 36.7319 269.906 38.1553C269.906 42.8623 266.895 45.8186 262.845 47.5706C263.83 49.2681 266.184 52.9342 267.826 55.3987C269.133 57.3778 270.578 59.2621 272.151 61.0375C273.195 62.2657 274.59 63.1444 276.148 63.5551L275.928 65.096ZM255.728 47.2995C258.574 47.2995 260.38 46.8608 261.75 45.7123C262.776 44.932 263.589 43.9064 264.115 42.7297C264.641 41.5531 264.863 40.263 264.76 38.9782C264.76 33.12 260.874 30.9866 256.657 30.9866C255.657 30.8729 254.646 31.0628 253.755 31.5315C253.264 31.9143 253.1 32.462 253.1 33.8857V47.2995H255.728Z" fill="white"/>
<path d="M329.522 30.6105C325.691 31.0492 325.033 31.6514 322.846 35.154C320.383 39.1512 318.357 42.9276 315.675 47.7994C315.093 48.7732 314.809 49.8961 314.857 51.0295V57.7637C314.857 62.3071 315.349 62.6355 320.443 63.1273V64.6599H304.724V63.1273C309.706 62.4706 310.089 62.3616 310.089 57.7637V50.7067C310.058 49.5622 309.678 48.4546 308.999 47.5324C307.084 43.9739 305.223 40.5258 302.266 35.3801C300.13 31.6568 299.584 31.0001 295.863 30.6119V29.0792H309.329V30.6119C305.388 31.1568 305.605 31.8707 306.59 33.7331C308.89 37.9482 311.462 42.8731 313.762 46.9806C315.733 43.3118 318.854 37.3447 320.386 34.3352C321.645 31.5969 321.476 31.0506 317.156 30.6119V29.0792H329.527L329.522 30.6105Z" fill="white"/>
<path d="M409.996 37.6172C409.608 36.1989 409.037 34.8369 408.298 33.5655C407.258 31.7045 406.437 31.2659 403.371 31.2659H397.513C395.925 31.2659 395.761 31.4307 395.761 33.0179V45.6633H402.551C406.492 45.6633 406.766 45.0066 407.591 41.1743H409.233V52.6181H407.535C406.823 48.7858 406.446 47.9111 402.555 47.9111H395.765V57.7106C395.765 62.4789 396.31 62.6927 401.293 63.1301V64.6627H386.074V63.1301C390.507 62.8017 391.002 62.4176 391.002 57.7106V36.0273C391.002 31.259 390.457 31.0465 386.074 30.6078V29.0752H403.427C408.354 29.0752 410.214 29.0207 411.146 28.9648C411.199 30.9362 411.418 34.7671 411.691 37.3951L409.996 37.6172Z" fill="white"/>
<path d="M454.669 64.6586V63.1259C458.227 62.6886 458.666 62.141 457.899 60.0606C457.188 57.9245 456.093 55.1888 454.943 51.7394H443.119C442.243 54.2039 441.421 56.3373 440.654 58.5825C439.45 62.141 440.217 62.5796 444.706 63.1259V64.6586H432.061V63.1259C435.509 62.6886 436.386 62.3085 438.302 57.3782L449.634 28.6324L451.386 28.3041C454.834 37.6662 458.606 48.0119 462.06 57.4817C463.81 62.2499 464.303 62.6832 468.19 63.1205V64.6532L454.669 64.6586ZM449.195 35.481C447.444 40.1893 445.583 45.1714 443.939 49.4955H454.177L449.195 35.481Z" fill="white"/>
<path d="M516.699 37.6718C516.296 36.0934 515.708 34.5679 514.948 33.127C514.072 31.6502 513.525 31.266 510.514 31.266H505.04V57.926C505.04 62.1956 505.479 62.7978 510.679 63.1261V64.6587H494.747V63.1261C499.838 62.7978 500.276 62.2501 500.276 57.926V31.266H495.294C492.283 31.266 491.407 31.5943 490.476 33.2373C489.733 34.6541 489.128 36.1391 488.67 37.6718H487.025C487.354 34.3327 487.683 30.8818 487.843 27.8179H489.102C489.919 29.1312 490.525 29.0767 492.058 29.0767H513.74C514.278 29.1677 514.83 29.0966 515.327 28.8724C515.824 28.6482 516.244 28.2811 516.531 27.8179H517.845C517.845 30.39 518.063 34.3327 518.336 37.507L516.699 37.6718Z" fill="white"/>
<path d="M574.555 37.6718C574.151 36.0936 573.563 34.5683 572.804 33.127C571.927 31.6502 571.38 31.266 568.37 31.266H562.896V57.926C562.896 62.1956 563.333 62.7978 568.533 63.1261V64.6587H552.609V63.1261C557.7 62.7978 558.137 62.2501 558.137 57.926V31.266H553.155C550.144 31.266 549.268 31.5943 548.338 33.2373C547.595 34.6543 546.989 36.1393 546.53 37.6718H544.887C545.215 34.3327 545.543 30.8818 545.704 27.8179H546.963C547.78 29.1312 548.385 29.0767 549.919 29.0767H571.597C572.135 29.1681 572.688 29.0971 573.185 28.8729C573.682 28.6487 574.101 28.2814 574.389 27.8179H575.705C575.705 30.39 575.923 34.3327 576.196 37.507L574.555 37.6718Z" fill="white"/>
</svg>
