<svg width="564" height="62" viewBox="0 0 564 62" fill="none" xmlns="http://www.w3.org/2000/svg">
<g clip-path="url(#clip0_2591_2499)">
<path d="M30.9492 15.7883L15.6113 31.1385L30.9492 46.4888L46.2872 31.1386L30.9492 15.7883Z" fill="white"/>
<path d="M560.399 17.2674C558.836 17.182 557.499 18.4055 557.414 19.9703C557.414 20.0556 557.414 20.1694 557.414 20.2548C557.414 21.905 558.75 23.2422 560.399 23.2422C562.048 23.2422 563.384 21.905 563.384 20.2548C563.469 18.69 562.247 17.3527 560.683 17.2674C560.598 17.2674 560.484 17.2674 560.399 17.2674ZM560.399 22.5878C559.12 22.6163 558.04 21.592 558.011 20.3117C557.983 19.0314 559.006 17.9502 560.285 17.9218C561.565 17.8933 562.645 18.9176 562.673 20.1979V20.2548C562.73 21.5067 561.764 22.5309 560.513 22.5878C560.484 22.5878 560.428 22.5878 560.399 22.5878Z" fill="white"/>
<path d="M561.507 19.7427C561.507 19.2022 561.052 18.7754 560.512 18.8038C560.483 18.8038 560.426 18.8038 560.398 18.8038H559.232V21.649H559.915V20.5963H560.085L560.91 21.649H561.734L560.796 20.4825C561.166 20.4256 561.45 20.1126 561.507 19.7427ZM560.284 20.1695H559.915V19.4013H560.341C560.625 19.4013 560.796 19.4013 560.796 19.7712C560.796 20.1411 560.739 20.0842 560.398 20.0842L560.284 20.1695Z" fill="white"/>
<path d="M42.4557 19.7427L52.6332 9.55709C40.7215 -2.36408 21.4469 -2.36408 9.53528 9.55709C-2.37634 21.4783 -2.37634 40.7684 9.53528 52.6896C21.4469 64.6107 40.7215 64.6107 52.6332 52.6896L42.4557 42.5039L31.0842 53.8845L8.00013 31.1233L30.9705 8.13452L42.4557 19.7427Z" fill="white"/>
<path d="M89.8756 22.9008C91.8372 22.9008 93.7135 23.6121 95.1917 24.8924C95.4476 25.1484 95.8456 25.1769 96.1015 24.9493L96.1583 24.8924L99.2286 21.7058C99.5413 21.4497 99.5698 20.9661 99.2855 20.6531C99.2855 20.6531 99.257 20.5962 99.2286 20.5962C96.6416 18.0925 93.1733 16.7552 89.5913 16.8975C81.745 16.8975 75.377 23.2706 75.377 31.1232C75.377 38.9759 81.745 45.349 89.5913 45.349C93.1449 45.3774 96.5848 44.0118 99.1433 41.5365C99.3992 41.2235 99.3992 40.7968 99.1433 40.4838L96.073 37.2119C95.7888 36.9558 95.3339 36.9558 95.0496 37.2119C93.5429 38.4353 91.695 39.0897 89.7619 39.1181C85.327 39.1181 81.7166 35.5048 81.7166 31.0663C81.7166 26.6279 85.327 23.0146 89.7619 23.0146L89.8756 22.9008Z" fill="white"/>
<path d="M129.563 25.8313C129.563 21.1084 125.753 17.2959 121.034 17.2959H109.208C108.781 17.2959 108.469 17.6373 108.469 18.0641V44.1257C108.469 44.5524 108.781 44.8654 109.208 44.8938H113.899C114.325 44.8938 114.638 44.5524 114.638 44.1257V34.1107H117.481L122.712 44.5524C122.825 44.78 123.081 44.9223 123.337 44.9223H128.568C128.994 44.9223 129.335 44.6093 129.364 44.1826C129.364 44.0403 129.335 43.898 129.25 43.7558L123.707 33.7693C127.118 32.6028 129.449 29.4447 129.563 25.8313ZM120.466 29.1033H114.78V22.9577H120.466C122.058 23.0431 123.309 24.3803 123.309 25.9736C123.309 27.5953 122.086 28.961 120.466 29.1033Z" fill="white"/>
<path d="M156.484 17.3243H140.194C139.768 17.3243 139.455 17.6658 139.455 18.0925V44.1541C139.455 44.5809 139.768 44.8938 140.194 44.9223H156.484C156.91 44.9223 157.251 44.5809 157.251 44.1541V39.8579C157.251 39.4311 156.91 39.1182 156.484 39.1182H145.596V33.7978H154.579C154.977 33.7978 155.318 33.4563 155.318 33.058V28.7618C155.318 28.3635 154.977 28.0221 154.579 28.0221H145.596V23.1284H156.484C156.91 23.1284 157.223 22.8155 157.251 22.3887V18.0925C157.251 17.6658 156.91 17.3243 156.484 17.3243Z" fill="white"/>
<path d="M178.772 17.3812C178.659 17.1252 178.403 16.9545 178.118 16.9545H177.72C177.436 16.9545 177.18 17.1252 177.038 17.3812L164.729 43.898C164.558 44.2395 164.7 44.6662 165.041 44.8369C165.155 44.8938 165.269 44.9223 165.411 44.9223H169.732C170.357 44.9223 170.926 44.5524 171.153 43.9549L172.575 40.8253H183.406L184.828 43.9265C185.169 44.6662 185.51 44.9223 186.192 44.9223H190.57C190.968 44.9223 191.309 44.6378 191.338 44.2679C191.338 44.1541 191.338 44.0118 191.252 43.898L178.772 17.3812ZM174.878 35.4479L177.72 28.961L180.705 35.4479H174.878Z" fill="white"/>
<path d="M213.539 17.3243H196.056C195.629 17.3243 195.316 17.6657 195.316 18.0925V22.3887C195.316 22.787 195.658 23.1284 196.056 23.1284H201.741V44.1541C201.741 44.5808 202.082 44.8938 202.509 44.9222H207.228C207.654 44.9222 207.967 44.5808 207.967 44.1541V23.1284H213.653C214.079 23.1284 214.392 22.8154 214.42 22.3887V18.0925C214.42 17.6657 214.051 17.2958 213.596 17.3243H213.539Z" fill="white"/>
<path d="M230.938 17.3243H226.19C225.782 17.3243 225.451 17.6555 225.451 18.0641V44.1541C225.451 44.5626 225.782 44.8938 226.19 44.8938H230.938C231.346 44.8938 231.677 44.5626 231.677 44.1541V18.0641C231.677 17.6555 231.346 17.3243 230.938 17.3243Z" fill="white"/>
<path d="M265.992 17.3243H260.761C260.477 17.3243 260.192 17.495 260.079 17.7795L253.569 32.1475H253.341L246.859 17.7795C246.717 17.5235 246.461 17.3527 246.177 17.3243H240.946C240.577 17.2958 240.235 17.5519 240.207 17.9502C240.207 18.0925 240.207 18.2347 240.292 18.3485L252.545 44.8653C252.687 45.1214 252.943 45.2921 253.227 45.2921H253.625C253.91 45.2921 254.166 45.1214 254.279 44.8653L266.646 18.3485C266.816 18.0071 266.646 17.5804 266.333 17.4097C266.219 17.3527 266.106 17.3243 265.992 17.3243Z" fill="white"/>
<path d="M292.288 17.3243H275.998C275.572 17.3243 275.23 17.6658 275.23 18.0925V44.1541C275.23 44.5809 275.572 44.9223 275.998 44.9223H292.288C292.714 44.9223 293.027 44.5809 293.027 44.1541V39.8579C293.027 39.4596 292.686 39.1182 292.288 39.1182H281.371V33.7978H290.355C290.753 33.7978 291.094 33.4563 291.094 33.058V28.7618C291.094 28.3635 290.753 28.0221 290.355 28.0221H281.371V23.1284H292.288C292.686 23.1284 293.027 22.787 293.027 22.3887V18.0925C293.027 17.6658 292.714 17.3528 292.288 17.3243Z" fill="white"/>
<path d="M332.059 17.3243H322.706C322.28 17.3243 321.967 17.6658 321.967 18.0925V44.1541C321.967 44.5809 322.28 44.8938 322.706 44.9223H327.368C327.795 44.9223 328.107 44.5809 328.107 44.1541V34.9074H332.23C337.091 34.9074 341.014 30.9811 341.014 26.1159C341.014 21.2506 337.091 17.3243 332.23 17.3243H332.059ZM331.718 29.1602H327.965V23.1284H331.718C333.367 23.0715 334.731 24.3234 334.817 25.9736C334.873 27.6807 333.509 29.1033 331.803 29.1602C331.775 29.1602 331.746 29.1602 331.718 29.1602Z" fill="white"/>
<path d="M364.924 39.1182H355.542V18.0925C355.542 17.6658 355.229 17.3528 354.803 17.3243H350.112C349.686 17.3243 349.373 17.6658 349.373 18.0925V44.1541C349.373 44.5809 349.686 44.8938 350.112 44.9223H364.924C365.35 44.9223 365.663 44.5809 365.663 44.1541V39.8579C365.663 39.4596 365.322 39.1182 364.924 39.1182Z" fill="white"/>
<path d="M386.443 17.3812C386.33 17.1252 386.074 16.9545 385.789 16.9545H385.391C385.107 16.9545 384.851 17.1252 384.709 17.3812L372.4 43.898C372.229 44.2395 372.4 44.6662 372.712 44.8369C372.826 44.8938 372.94 44.9223 373.053 44.9223H377.403C378.028 44.9223 378.597 44.5524 378.824 43.9549L380.217 40.8253H390.935L392.356 43.9265C392.698 44.6662 393.01 44.9223 393.721 44.9223H398.099C398.497 44.9223 398.838 44.6378 398.867 44.2679C398.867 44.1541 398.867 44.0118 398.781 43.898L386.443 17.3812ZM382.605 35.4479L385.448 28.961L388.291 35.4479H382.605Z" fill="white"/>
<path d="M429.512 17.3244H424.793C424.367 17.3244 424.054 17.6658 424.054 18.0925V32.0622L408.304 16.8976H407.309C406.911 16.8976 406.599 17.1821 406.57 17.5804V44.0972C406.57 44.524 406.883 44.8369 407.309 44.8654H412C412.427 44.8654 412.739 44.524 412.739 44.0972V29.4731L428.29 45.093C428.432 45.2068 428.631 45.2637 428.802 45.2922H429.427C429.825 45.2922 430.166 45.0077 430.195 44.6093V18.0925C430.195 17.6942 429.91 17.3813 429.512 17.3244Z" fill="white"/>
<path d="M464.849 17.3244H460.13C459.703 17.3244 459.391 17.6658 459.391 18.0925V32.0622L443.67 16.8976H442.675C442.277 16.8976 441.964 17.1821 441.936 17.5804V44.0972C441.936 44.4955 442.277 44.8369 442.675 44.8654H447.365C447.792 44.8654 448.105 44.524 448.133 44.0972V29.4731L463.683 45.093C463.826 45.2068 464.025 45.2637 464.195 45.2922H464.849C465.247 45.2922 465.56 45.0077 465.588 44.6093V18.0925C465.588 17.6658 465.275 17.3528 464.849 17.3244Z" fill="white"/>
<path d="M483.442 17.3243H478.694C478.286 17.3243 477.955 17.6555 477.955 18.0641V44.1541C477.955 44.5626 478.286 44.8938 478.694 44.8938H483.442C483.85 44.8938 484.181 44.5626 484.181 44.1541V18.0641C484.181 17.6555 483.85 17.3243 483.442 17.3243Z" fill="white"/>
<path d="M519.176 17.3244H514.457C514.031 17.3244 513.69 17.6658 513.69 18.0925V32.0622L497.94 16.8976H496.974C496.576 16.8976 496.263 17.1821 496.234 17.5804V44.0972C496.234 44.524 496.547 44.8369 496.974 44.8654H501.806C502.233 44.8654 502.546 44.524 502.546 44.0972V29.4731L518.096 45.093C518.238 45.2068 518.409 45.2922 518.608 45.2922H519.233C519.631 45.2922 519.944 45.0077 519.972 44.6093V18.0925C519.972 17.6658 519.631 17.3244 519.205 17.3244H519.176Z" fill="white"/>
<path d="M552.751 30.7249H544.819C544.421 30.7249 544.108 31.0094 544.08 31.4078C544.08 31.4078 544.08 31.4362 544.08 31.4647V35.391C544.08 35.7893 544.421 36.1022 544.819 36.0738H547.292V38.3784C546.155 38.8051 544.961 39.0043 543.767 39.0043C539.417 38.7482 536.091 34.9926 536.347 30.6396C536.575 26.6564 539.759 23.4698 543.767 23.2137C545.672 23.1284 547.52 23.8112 548.913 25.0915C549.225 25.3191 549.68 25.3191 549.993 25.0915L552.978 21.7342C553.262 21.5066 553.319 21.0514 553.063 20.7669C553.063 20.7384 553.006 20.71 552.978 20.6815C550.306 18.3485 546.894 17.0397 543.369 16.9828C535.58 16.1293 528.558 21.7627 527.676 29.5584C526.795 37.3541 532.452 44.3816 540.242 45.2636C541.265 45.3774 542.317 45.3774 543.341 45.2636C546.781 45.2636 550.135 44.3816 553.12 42.703C553.291 42.5323 553.404 42.3047 553.433 42.0771V31.4647C553.433 31.0663 553.12 30.7534 552.722 30.7249H552.751Z" fill="white"/>
</g>
<defs>
<clipPath id="clip0_2591_2499">
<rect width="562.774" height="61" fill="white" transform="translate(0.609375 0.623291)"/>
</clipPath>
</defs>
</svg>
