<svg width="448" height="156" viewBox="0 0 448 156" fill="none" xmlns="http://www.w3.org/2000/svg">
<path d="M431.907 40.7637C431.11 40.7637 430.248 40.7963 429.337 40.845C427.37 40.9426 425.923 41.1865 424.947 41.593C423.988 41.9833 423.191 42.6663 422.573 43.6419C421.988 44.5363 421.565 45.7396 421.256 47.2681L420.833 47.2355L421.191 40.2109H446.932L447.289 47.2355L446.867 47.2681C446.525 45.5119 445.988 44.1623 445.257 43.2516C444.525 42.341 443.468 41.6906 442.07 41.3003C440.899 40.9589 438.883 40.78 436.069 40.78V60.2279C436.069 61.5288 436.134 62.4882 436.297 63.1224C436.443 63.7565 436.72 64.2606 437.11 64.6834C437.468 65.0574 437.874 65.3176 438.33 65.4802C438.785 65.6428 439.37 65.7404 440.102 65.7891V66.2119H427.939V65.7891C428.671 65.7566 429.272 65.6428 429.728 65.4802C430.183 65.3176 430.573 65.0574 430.931 64.6834C431.321 64.2769 431.598 63.7565 431.728 63.1386C431.874 62.5207 431.955 61.5451 431.955 60.2442V40.7963L431.907 40.7637ZM400.621 66.0818L400.686 58.1953L401.141 58.2766C401.678 60.2767 402.312 61.854 403.06 63.0085C404.442 65.1387 406.198 66.1957 408.296 66.1957C409.759 66.1957 410.979 65.7078 411.922 64.7322C412.881 63.7565 413.353 62.5207 413.353 61.0247C413.353 60.3743 413.255 59.7076 413.028 59.0409C412.816 58.3579 412.54 57.7888 412.182 57.301C411.808 56.8132 411.288 56.3253 410.621 55.87C409.955 55.4147 408.93 54.8293 407.548 54.1301C406.328 53.5285 405.401 53.0081 404.767 52.5854C404.117 52.1626 403.597 51.7398 403.206 51.317C402.117 50.1137 401.564 48.6665 401.564 46.9429C401.564 45.8859 401.775 44.8777 402.214 43.9021C402.637 42.9264 403.239 42.0809 404.003 41.3817C405.353 40.1458 406.963 39.5117 408.816 39.5117C409.418 39.5117 409.971 39.5767 410.491 39.6905C410.995 39.8206 411.678 40.0483 412.54 40.406C413.174 40.6662 413.613 40.8288 413.841 40.8938C414.069 40.9589 414.28 40.9914 414.459 40.9914C414.898 40.9914 415.207 40.6662 415.353 40.0157H415.776L415.89 47.577H415.467C415.125 46.3737 414.833 45.4306 414.573 44.7964C414.329 44.146 414.036 43.5606 413.695 43.0077C413.077 42.0158 412.377 41.2841 411.629 40.7963C410.881 40.3247 410.003 40.0808 409.028 40.0808C407.597 40.0808 406.475 40.5686 405.645 41.528C405.304 41.9183 405.027 42.3898 404.832 42.9264C404.637 43.463 404.54 43.9996 404.54 44.5363C404.54 46.6664 405.906 48.3738 408.637 49.6747L411.32 50.9755C413.402 51.9512 414.898 53.0407 415.808 54.2277C416.849 55.5611 417.369 57.0896 417.369 58.8458C417.369 60.0166 417.142 61.1223 416.654 62.1792C415.987 63.659 414.995 64.7972 413.678 65.594C412.345 66.3908 410.8 66.7973 408.995 66.7973C407.353 66.7973 405.775 66.4721 404.263 65.8217C403.466 65.4639 402.995 65.2688 402.849 65.22C402.702 65.1712 402.523 65.1387 402.328 65.1387C401.71 65.1387 401.287 65.4477 401.06 66.0493H400.637L400.621 66.0818ZM396.133 40.1784V40.6011C395.417 40.6337 394.832 40.7475 394.377 40.9101C393.921 41.0727 393.531 41.3329 393.173 41.7069C392.686 42.211 392.377 42.9264 392.263 43.8208C392.181 44.5037 392.149 45.268 392.149 46.1461V60.1954C392.149 61.2524 392.198 62.0817 392.295 62.6996C392.393 63.3012 392.555 63.8053 392.799 64.1631C393.125 64.6834 393.547 65.0574 394.068 65.3013C394.588 65.5452 395.271 65.6916 396.149 65.7566V66.1794H384.019V65.7566C384.75 65.7241 385.352 65.6103 385.807 65.4477C386.262 65.2688 386.653 65.0086 386.994 64.6509C387.401 64.2444 387.677 63.724 387.807 63.1061C387.937 62.4882 388.019 61.5125 388.019 60.2117V46.1623C388.019 44.8452 387.954 43.8858 387.807 43.2679C387.661 42.65 387.385 42.1296 386.994 41.7231C386.653 41.3491 386.246 41.089 385.791 40.9263C385.336 40.7637 384.75 40.6662 384.019 40.6174V40.1946H396.149L396.133 40.1784ZM364.798 40.1784V40.6011C364.066 40.6337 363.481 40.7475 363.01 40.9101C362.554 41.0727 362.148 41.3329 361.806 41.7069C361.383 42.1296 361.107 42.6663 360.977 43.3004C360.847 43.9346 360.782 45.0241 360.782 46.5851V57.366C360.782 59.1222 360.847 60.3906 360.977 61.1711C361.107 61.9516 361.383 62.6671 361.79 63.3338C362.408 64.3419 363.156 65.0737 364.05 65.5127C364.945 65.968 366.083 66.1957 367.449 66.1957C368.815 66.1957 370.034 66.0005 371.238 65.594C372.441 65.1875 373.449 64.6346 374.246 63.9191C374.734 63.4801 375.108 62.9923 375.335 62.4719C375.579 61.9516 375.725 61.3012 375.807 60.4881C375.856 59.9678 375.888 58.7319 375.888 56.7806V46.1298C375.888 44.8289 375.823 43.8533 375.66 43.2354C375.514 42.6175 375.238 42.0971 374.847 41.6906C374.49 41.3166 374.099 41.0564 373.644 40.8938C373.189 40.7312 372.603 40.6337 371.888 40.5849V40.1621H380.669V40.5849C379.953 40.6174 379.368 40.715 378.913 40.8938C378.457 41.0564 378.067 41.3166 377.709 41.6906C377.319 42.0971 377.043 42.6175 376.913 43.2516C376.766 43.8696 376.685 44.8452 376.685 46.1461V58.1628C376.685 59.9352 376.555 61.2524 376.278 62.0979C376.002 62.9435 375.465 63.7078 374.652 64.407C372.799 66.0005 370.148 66.8136 366.701 66.8136C363.253 66.8136 360.473 66.0656 358.765 64.5371C357.66 63.5777 357.009 62.2931 356.782 60.732C356.7 60.1792 356.668 59.171 356.668 57.7075V46.1461C356.668 44.8289 356.603 43.8696 356.456 43.2516C356.31 42.6337 356.034 42.1134 355.643 41.7069C355.302 41.3329 354.895 41.0727 354.456 40.9101C354.001 40.7475 353.416 40.6499 352.668 40.6011V40.1784H364.814H364.798ZM333.48 66.277L333.35 66.1144C332.455 65.0411 331.707 64.2769 331.073 63.8378C330.455 63.3988 329.821 63.1874 329.171 63.1874C328.927 63.1874 328.667 63.2362 328.374 63.35C329.171 64.2931 329.968 64.9761 330.732 65.4151C331.496 65.8542 332.423 66.1306 333.48 66.277ZM327.984 62.8459C328.911 62.5858 329.837 62.4557 330.748 62.4557C331.886 62.4557 332.96 62.6833 334.016 63.1224C334.456 63.3175 334.927 63.5614 335.382 63.8704C335.854 64.1793 336.618 64.7159 337.675 65.4802L337.838 65.6103C338.667 65.1712 339.383 64.6509 339.984 64.0492C340.586 63.4476 341.171 62.6671 341.74 61.7077C343.155 59.3824 343.854 56.6668 343.854 53.561C343.854 51.5284 343.578 49.5934 343.025 47.7559C342.472 45.9184 341.692 44.3574 340.683 43.1053C339.87 42.0809 338.96 41.3166 337.968 40.8288C336.976 40.341 335.805 40.1133 334.472 40.1133C333.138 40.1133 331.951 40.3572 330.959 40.8288C329.951 41.3003 329.057 42.0646 328.244 43.1053C327.252 44.3574 326.488 45.9022 325.935 47.7396C325.382 49.5771 325.106 51.5121 325.106 53.5285C325.106 55.4147 325.333 57.0896 325.788 58.5693C326.244 60.0491 326.976 61.48 327.984 62.8622V62.8459ZM338.618 66.1957C339.366 66.716 340.212 67.1063 341.139 67.399C342.066 67.6917 343.009 67.838 343.952 67.838C344.749 67.838 345.513 67.7404 346.228 67.5453C346.944 67.3502 347.513 67.09 347.952 66.7648C348.326 66.4721 348.635 66.1306 348.863 65.7566C349.09 65.3664 349.285 64.8298 349.464 64.1468L349.773 64.1793C349.724 65.1224 349.562 65.9192 349.302 66.5697C349.041 67.2201 348.619 67.8543 348.05 68.4559C346.537 70.0495 344.358 70.8625 341.496 70.8625C339.838 70.8625 338.439 70.5536 337.301 69.9519C336.293 69.399 335.204 68.3909 334.049 66.9437L333.935 66.8136C332.829 66.8136 331.659 66.6347 330.455 66.2932C329.252 65.9517 328.13 65.4477 327.073 64.8135C324.992 63.5777 323.366 61.9353 322.227 59.919C321.073 57.9026 320.504 55.6912 320.504 53.3334C320.504 51.2194 320.959 49.2356 321.87 47.4144C322.78 45.5932 324.114 43.9996 325.87 42.65C327.154 41.6418 328.569 40.8776 330.081 40.341C331.61 39.8043 333.138 39.5279 334.667 39.5279C336.472 39.5279 338.228 39.8857 339.919 40.6174C341.22 41.1865 342.423 41.9508 343.545 42.9102C344.667 43.8696 345.61 44.959 346.407 46.1623C347.773 48.2925 348.456 50.6178 348.456 53.1382C348.456 54.748 348.163 56.3091 347.594 57.8051C347.009 59.3011 346.18 60.6832 345.09 61.9516C344.18 62.9923 343.236 63.8378 342.228 64.5045C341.22 65.1712 340.017 65.7404 338.602 66.2282L338.618 66.1957ZM312.422 40.1784L312.65 48.4876L312.227 48.5202C311.349 45.6908 310.227 43.5931 308.861 42.211C307.495 40.8288 305.836 40.1296 303.885 40.1296C302.373 40.1296 301.072 40.4385 299.999 41.0564C298.909 41.6743 297.901 42.6825 296.958 44.0647C295.056 46.8941 294.096 50.13 294.096 53.7887C294.096 55.5286 294.324 57.1709 294.779 58.7157C295.234 60.2605 295.901 61.6264 296.779 62.7972C298.487 65.0899 300.568 66.2282 303.023 66.2282C303.983 66.2282 304.893 66.0331 305.739 65.6103C306.584 65.2038 307.284 64.6509 307.837 63.9354C308.585 62.9435 308.959 61.7727 308.959 60.4068C308.959 59.1547 308.617 58.2441 307.95 57.6913C307.267 57.1384 306.162 56.8457 304.601 56.8457V56.4229H316.731V56.8457C315.626 56.9433 314.829 57.1059 314.39 57.3173C313.934 57.5287 313.609 57.8864 313.398 58.3905C313.154 58.9433 313.04 60.0653 313.04 61.7239C313.04 62.1792 313.073 62.8947 313.121 63.8541L313.154 64.2931C312.666 64.1143 312.308 64.033 312.081 64.033C311.804 64.033 311.446 64.1793 311.024 64.472C309.918 65.22 308.633 65.8054 307.17 66.2119C305.706 66.6184 304.162 66.8136 302.536 66.8136C300.308 66.8136 298.291 66.4233 296.487 65.6753C294.682 64.9111 293.234 63.8216 292.112 62.4069C291.267 61.3337 290.633 60.0653 290.177 58.6019C289.722 57.1221 289.494 55.5611 289.494 53.9187C289.494 51.6422 289.901 49.5283 290.714 47.577C291.527 45.6257 292.665 43.9996 294.145 42.7313C295.348 41.7069 296.747 40.9101 298.308 40.3572C299.885 39.8044 301.544 39.5117 303.284 39.5117C304.308 39.5117 305.235 39.6092 306.113 39.8043C306.991 39.9995 307.902 40.3084 308.877 40.7312L309.999 41.2516C310.276 41.3654 310.536 41.4142 310.764 41.4142C311.268 41.4142 311.658 40.9914 311.918 40.1784H312.422ZM281.396 40.1784L281.624 48.4876L281.201 48.5202C280.323 45.6908 279.201 43.5931 277.819 42.211C276.453 40.8288 274.795 40.1296 272.843 40.1296C271.331 40.1296 270.03 40.4385 268.957 41.0564C267.867 41.6743 266.859 42.6825 265.916 44.0647C264.014 46.8941 263.054 50.13 263.054 53.7887C263.054 55.5286 263.282 57.1709 263.737 58.7157C264.193 60.2605 264.859 61.6264 265.737 62.7972C267.445 65.0899 269.526 66.2282 271.965 66.2282C272.925 66.2282 273.835 66.0331 274.697 65.6103C275.543 65.2038 276.242 64.6509 276.795 63.9354C277.543 62.9435 277.917 61.7727 277.917 60.4068C277.917 59.1547 277.575 58.2441 276.908 57.6913C276.226 57.1384 275.12 56.8457 273.559 56.8457V56.4229H285.689V56.8457C284.584 56.9433 283.787 57.1059 283.348 57.3173C282.892 57.5287 282.567 57.8864 282.356 58.3905C282.112 58.9433 281.998 60.0653 281.998 61.7239C281.998 62.1792 282.031 62.8947 282.079 63.8541L282.112 64.2931C281.624 64.1143 281.266 64.033 281.039 64.033C280.762 64.033 280.405 64.1793 279.966 64.472C278.86 65.22 277.575 65.8054 276.112 66.2119C274.648 66.6184 273.103 66.8136 271.477 66.8136C269.233 66.8136 267.233 66.4233 265.428 65.6753C263.623 64.9111 262.176 63.8216 261.054 62.4069C260.209 61.3337 259.574 60.0653 259.119 58.6019C258.664 57.1221 258.436 55.5611 258.436 53.9187C258.436 51.6422 258.843 49.5283 259.656 47.577C260.469 45.6257 261.607 43.9996 263.087 42.7313C264.29 41.7069 265.689 40.9101 267.25 40.3572C268.827 39.8044 270.485 39.5117 272.225 39.5117C273.25 39.5117 274.177 39.6092 275.055 39.8043C275.933 39.9995 276.843 40.3084 277.819 40.7312L278.941 41.2516C279.218 41.3654 279.478 41.4142 279.705 41.4142C280.209 41.4142 280.6 40.9914 280.86 40.1784H281.364H281.396ZM252.029 40.1784L252.338 46.4713H251.916C251.753 45.4143 251.477 44.5363 251.103 43.837C250.712 43.1378 250.159 42.5199 249.444 41.9833C248.842 41.5443 248.143 41.219 247.33 41.0402C246.517 40.845 245.428 40.7637 244.078 40.7637H239.704V52.2276H240.858C242.029 52.2276 242.891 52.1463 243.476 52C244.062 51.8374 244.549 51.5772 244.907 51.1869C245.265 50.8292 245.525 50.3901 245.704 49.8861C245.867 49.382 246.013 48.6502 246.127 47.6746H246.55L246.468 57.9026H246.045C245.932 56.927 245.753 56.1302 245.541 55.5286C245.314 54.9269 245.005 54.4228 244.614 54C244.224 53.5935 243.736 53.2846 243.118 53.1057C242.501 52.9106 241.736 52.813 240.793 52.813H239.704V57.1709C239.704 58.9108 239.752 60.1792 239.834 60.9597C239.915 61.7565 240.094 62.4232 240.354 62.9435C240.793 63.8541 241.46 64.5208 242.338 64.9598C243.232 65.3826 244.403 65.594 245.867 65.594C247.33 65.594 248.663 65.3989 249.688 65.0086C250.712 64.6184 251.542 64.0167 252.192 63.2037C252.647 62.6508 253.021 62.0329 253.298 61.3337C253.574 60.6345 253.851 59.7076 254.078 58.5693H254.501L254.273 66.1631H231.525V65.7404C232.256 65.7078 232.842 65.594 233.297 65.4314C233.752 65.2688 234.159 65.0086 234.517 64.6346C234.907 64.2281 235.183 63.7078 235.33 63.0736C235.476 62.4394 235.557 61.48 235.557 60.1792V46.1298C235.557 44.8289 235.492 43.8696 235.33 43.2354C235.183 42.6012 234.907 42.0971 234.517 41.6743C234.175 41.3003 233.769 41.0402 233.313 40.8776C232.858 40.715 232.273 40.6174 231.525 40.5686V40.1458H252.013L252.029 40.1784ZM217.361 54.9594L213.361 45.0729L209.572 54.9594H217.361ZM229.329 66.1957H216.792V65.7729C217.93 65.6753 218.711 65.4802 219.166 65.2038C219.947 64.7159 220.353 64.0167 220.353 63.1386C220.353 62.6183 220.174 61.9191 219.817 61.041L219.492 60.2442L217.67 55.74H209.263L208.272 58.3742L207.784 59.545C207.215 60.9434 206.922 62.0492 206.922 62.8459C206.922 63.3175 207.019 63.7565 207.247 64.1631C207.459 64.5696 207.735 64.8948 208.093 65.155C208.597 65.4965 209.231 65.7078 210.011 65.7729V66.1957H201.475V65.7729C202.157 65.7404 202.743 65.5778 203.247 65.2851C203.751 64.9924 204.255 64.5208 204.727 63.8704C205.133 63.35 205.54 62.6671 205.93 61.854C206.32 61.041 206.824 59.8052 207.459 58.1628L214.434 40.1784H215.524L223.833 60.2117C224.451 61.7239 224.955 62.8134 225.329 63.4638C225.687 64.1143 226.093 64.6021 226.532 64.9273C226.841 65.155 227.183 65.3338 227.573 65.4477C227.963 65.5615 228.565 65.6753 229.346 65.7566V66.1794L229.329 66.1957ZM177.506 52.3089H191.035V46.1623C191.035 44.8452 190.97 43.8858 190.807 43.2516C190.661 42.6337 190.385 42.1134 189.994 41.7069C189.637 41.3329 189.23 41.0727 188.775 40.8938C188.32 40.7312 187.734 40.6337 186.986 40.5849V40.1621H199.149V40.5849C198.434 40.6174 197.848 40.7312 197.393 40.8938C196.938 41.0564 196.548 41.3166 196.19 41.6906C195.8 42.0971 195.523 42.6175 195.377 43.2516C195.23 43.8858 195.149 44.8452 195.149 46.1461V60.1954C195.149 61.4963 195.214 62.4557 195.377 63.0736C195.523 63.6915 195.8 64.2118 196.19 64.6346C196.548 64.9924 196.954 65.2525 197.393 65.4314C197.848 65.594 198.434 65.7078 199.149 65.7404V66.1631H186.986V65.7404C187.734 65.7078 188.32 65.594 188.775 65.4314C189.23 65.2525 189.637 64.9924 189.994 64.6346C190.385 64.2281 190.661 63.724 190.807 63.0898C190.954 62.4719 191.035 61.4963 191.035 60.1954V53.1707H177.506V60.1954C177.506 61.4963 177.571 62.4557 177.734 63.0898C177.88 63.7078 178.157 64.2281 178.547 64.6346C178.888 64.9924 179.295 65.2525 179.75 65.4314C180.205 65.594 180.791 65.7078 181.539 65.7404V66.1631H169.408V65.7404C170.14 65.7078 170.742 65.594 171.197 65.4314C171.652 65.2525 172.042 64.9924 172.384 64.6346C172.79 64.2281 173.067 63.7078 173.197 63.0898C173.327 62.4719 173.408 61.4963 173.408 60.1954V46.1461C173.408 44.8289 173.343 43.8696 173.197 43.2516C173.051 42.6337 172.774 42.1134 172.384 41.7069C172.042 41.3329 171.636 41.0727 171.181 40.9101C170.725 40.7475 170.14 40.6499 169.408 40.6011V40.1784H181.539V40.6011C180.807 40.6337 180.222 40.7475 179.783 40.9101C179.327 41.0727 178.921 41.3491 178.563 41.7231C178.173 42.1296 177.896 42.65 177.75 43.2842C177.604 43.9183 177.522 44.8777 177.522 46.1786V52.3252L177.506 52.3089Z" fill="white"/>
<path d="M363.481 97.6268H365.351C366.62 97.6268 367.579 97.5292 368.262 97.3504C368.945 97.1715 369.547 96.83 370.083 96.3259C371.319 95.1877 371.953 93.6917 371.953 91.8054C371.953 90.7647 371.774 89.8053 371.4 88.9273C371.043 88.0492 370.522 87.35 369.856 86.7971C369.075 86.1467 368.164 85.7727 367.091 85.6588C366.799 85.6263 366.132 85.6263 365.091 85.6263H363.498V97.6431L363.481 97.6268ZM363.481 98.2122V105.074C363.481 106.375 363.546 107.335 363.709 107.952C363.855 108.587 364.132 109.107 364.522 109.513C364.863 109.871 365.27 110.131 365.725 110.31C366.181 110.473 366.766 110.587 367.514 110.619V111.042H355.383V110.619C356.115 110.587 356.717 110.473 357.172 110.31C357.627 110.131 358.018 109.871 358.359 109.513C358.766 109.107 359.042 108.587 359.172 107.969C359.302 107.351 359.384 106.375 359.384 105.074V91.0249C359.384 89.9354 359.335 89.0899 359.237 88.4882C359.14 87.9028 358.977 87.415 358.749 87.0573C358.424 86.5369 358.001 86.1629 357.497 85.919C356.993 85.6751 356.327 85.5287 355.513 85.4637H355.383V85.0409H366.847C368.847 85.0409 370.327 85.1385 371.27 85.3499C372.213 85.545 373.091 85.9678 373.872 86.5694C375.677 87.9353 376.571 89.7728 376.571 92.0493C376.571 94.3258 375.661 96.082 373.823 97.1552C372.88 97.7081 371.709 98.0496 370.36 98.1634C369.921 98.1959 368.88 98.2284 367.238 98.2284H363.498L363.481 98.2122ZM329.708 111.042V110.619C330.992 110.619 331.984 110.261 332.683 109.53C333.074 109.123 333.35 108.603 333.496 107.969C333.643 107.335 333.724 106.375 333.724 105.074V91.0086C333.724 89.659 333.643 88.6671 333.48 88.0329C333.317 87.3825 333.025 86.8621 332.602 86.4556C332.244 86.1141 331.854 85.8865 331.415 85.7239C330.976 85.5775 330.407 85.48 329.724 85.4637V85.0409H341.854V85.4637C341.155 85.4962 340.586 85.5938 340.131 85.7564C339.692 85.9027 339.301 86.1467 338.96 86.4719C338.537 86.8947 338.245 87.415 338.082 88.0654C337.936 88.6996 337.854 89.6753 337.854 91.0249V102.017C337.854 103.708 337.903 104.96 337.984 105.79C338.082 106.619 338.244 107.302 338.505 107.806C338.944 108.717 339.61 109.383 340.488 109.822C341.367 110.245 342.521 110.457 343.968 110.457C345.416 110.457 346.749 110.245 347.79 109.855C348.83 109.448 349.676 108.83 350.326 108.001C350.765 107.432 351.139 106.782 351.432 106.05C351.708 105.334 351.985 104.375 352.213 103.188L352.684 103.221L352.408 111.042H329.724H329.708ZM304.064 111.042V110.619C305.349 110.619 306.341 110.261 307.04 109.53C307.43 109.123 307.707 108.603 307.853 107.969C307.999 107.335 308.081 106.375 308.081 105.074V91.0086C308.081 89.659 307.999 88.6671 307.837 88.0329C307.674 87.3825 307.381 86.8621 306.959 86.4556C306.601 86.1141 306.211 85.8865 305.772 85.7239C305.333 85.5775 304.763 85.48 304.097 85.4637V85.0409H316.227V85.4637C315.528 85.4962 314.959 85.5938 314.504 85.7564C314.065 85.9027 313.674 86.1467 313.333 86.4719C312.91 86.8947 312.617 87.415 312.455 88.0654C312.308 88.6996 312.227 89.6753 312.227 91.0249V102.017C312.227 103.708 312.276 104.96 312.357 105.79C312.455 106.619 312.617 107.302 312.878 107.806C313.317 108.717 313.983 109.383 314.861 109.822C315.74 110.245 316.894 110.457 318.341 110.457C319.788 110.457 321.122 110.245 322.163 109.855C323.203 109.448 324.049 108.83 324.699 108.001C325.138 107.432 325.512 106.782 325.805 106.05C326.081 105.334 326.358 104.375 326.585 103.188L327.057 103.221L326.781 111.042H304.097H304.064ZM272.974 97.7731L281.055 89.7566C281.852 88.976 282.356 88.4232 282.551 88.1467C282.746 87.8703 282.844 87.5451 282.844 87.2036C282.844 86.5857 282.535 86.1141 281.933 85.7889C281.608 85.6263 281.071 85.5125 280.323 85.4474V85.0247H288.535V85.4474C287.982 85.4962 287.511 85.5938 287.137 85.7239C286.763 85.854 286.356 86.0816 285.901 86.4068C285.413 86.7646 284.551 87.5126 283.348 88.6671L277.169 94.6023L285.966 105.822L287.055 107.221C287.852 108.213 288.682 108.993 289.543 109.546C290.064 109.887 290.519 110.131 290.909 110.278C291.3 110.424 291.804 110.522 292.405 110.603V111.026H279.819V110.603C280.779 110.522 281.462 110.359 281.884 110.131C282.307 109.887 282.519 109.53 282.519 109.058C282.519 108.554 282.258 107.904 281.738 107.107C281.478 106.717 281.006 106.066 280.307 105.123C279.608 104.18 279.006 103.416 278.535 102.83L274.242 97.4967L273.006 98.7163V105.025C273.006 106.326 273.071 107.286 273.234 107.92C273.38 108.538 273.657 109.058 274.047 109.481C274.388 109.839 274.795 110.099 275.25 110.278C275.705 110.44 276.291 110.554 277.039 110.587V111.009H264.892V110.587C265.624 110.554 266.225 110.44 266.681 110.278C267.136 110.099 267.526 109.839 267.868 109.481C268.274 109.074 268.551 108.554 268.681 107.936C268.811 107.318 268.892 106.343 268.892 105.042V90.9924C268.892 89.6753 268.827 88.7159 268.681 88.098C268.534 87.48 268.258 86.9597 267.868 86.5532C267.526 86.1792 267.12 85.919 266.664 85.7564C266.209 85.5938 265.624 85.4962 264.892 85.4474V85.0247H277.039V85.4474C276.323 85.48 275.722 85.5938 275.283 85.7564C274.827 85.919 274.421 86.1792 274.063 86.5532C273.673 86.9597 273.396 87.48 273.25 88.1142C273.104 88.7484 273.022 89.7078 273.022 91.0086V97.7731H272.974ZM260.29 85.0247L260.518 93.4152H260.095C259.965 93.0412 259.851 92.7648 259.77 92.5697C259.331 91.3501 258.973 90.4395 258.68 89.8379C258.176 88.7646 257.461 87.789 256.518 86.8947C255.802 86.228 255.07 85.7239 254.306 85.4149C253.542 85.106 252.68 84.9596 251.721 84.9596C250.29 84.9596 249.038 85.2686 247.981 85.8865C247.054 86.4394 246.192 87.2199 245.395 88.2443C244.582 89.2687 243.932 90.4232 243.428 91.7404C242.712 93.5941 242.338 95.6755 242.338 98.0333C242.338 100.017 242.582 101.822 243.086 103.416C243.59 105.009 244.306 106.359 245.265 107.432C247.021 109.448 249.347 110.44 252.241 110.44C253.688 110.44 254.989 110.18 256.144 109.676C257.298 109.172 258.192 108.473 258.843 107.562C259.575 106.505 260.111 105.091 260.436 103.302L260.859 103.383C260.615 105.399 260.079 106.977 259.217 108.164C258.404 109.302 257.282 110.148 255.851 110.749C254.42 111.351 252.761 111.644 250.891 111.644C249.151 111.644 247.46 111.383 245.867 110.863C243.314 110.018 241.314 108.505 239.883 106.31C238.452 104.131 237.736 101.513 237.736 98.4724C237.736 96.1471 238.143 94.0006 238.988 92.0493C239.834 90.0818 241.005 88.5045 242.501 87.3174C243.655 86.4068 245.037 85.6751 246.647 85.1385C248.257 84.6019 249.867 84.3254 251.477 84.3254C253.087 84.3254 254.631 84.6181 256.355 85.2198L257.916 85.7401C258.225 85.854 258.485 85.919 258.713 85.919C259.038 85.919 259.298 85.7889 259.493 85.5287C259.591 85.3987 259.688 85.1873 259.819 84.8946L260.29 85.0084V85.0247ZM231.167 85.0247L231.476 91.3176H231.053C230.891 90.2606 230.614 89.3826 230.24 88.6833C229.85 87.9841 229.297 87.3662 228.582 86.8296C227.98 86.3906 227.281 86.0654 226.468 85.8865C225.655 85.6914 224.565 85.61 223.215 85.61H218.841V97.0739H219.996C221.167 97.0739 222.028 96.9926 222.614 96.8463C223.199 96.6837 223.687 96.4235 224.045 96.0332C224.402 95.6755 224.663 95.2365 224.842 94.7324C225.004 94.2283 225.15 93.4965 225.264 92.5209H225.687L225.606 102.733H225.183C225.069 101.757 224.89 100.96 224.679 100.375C224.451 99.7732 224.142 99.2691 223.752 98.8626C223.362 98.4561 222.874 98.1471 222.256 97.9683C221.654 97.7731 220.874 97.6756 219.931 97.6756H218.841V102.033C218.841 103.773 218.89 105.042 218.971 105.839C219.053 106.635 219.232 107.302 219.492 107.822C219.931 108.733 220.597 109.4 221.476 109.839C222.37 110.261 223.541 110.473 225.004 110.473C226.468 110.473 227.801 110.278 228.825 109.887C229.85 109.497 230.679 108.896 231.33 108.083C231.785 107.53 232.159 106.912 232.435 106.213C232.712 105.513 232.988 104.586 233.216 103.448H233.639L233.411 111.042H210.662V110.619C211.394 110.587 211.979 110.473 212.435 110.31C212.89 110.148 213.296 109.887 213.654 109.513C214.044 109.107 214.321 108.587 214.467 107.952C214.613 107.318 214.695 106.359 214.695 105.058V91.0086C214.695 89.7078 214.63 88.7484 214.467 88.1142C214.321 87.48 214.044 86.976 213.654 86.5532C213.313 86.1792 212.906 85.919 212.451 85.7564C211.995 85.5938 211.41 85.4962 210.662 85.4474V85.0247H231.134H231.167Z" fill="white"/>
<mask id="mask0_1492_4826" style="mask-type:luminance" maskUnits="userSpaceOnUse" x="169" y="79" width="44" height="38">
<path d="M188.093 107.969C185.231 105.579 182.369 103.172 179.556 100.7C177.897 99.2532 176.109 97.6108 174.726 95.8709C173.214 97.3832 172.629 99.3345 172.629 101.481C172.629 104.066 173.897 106.05 175.93 107.579C177.751 108.945 179.8 109.644 182.076 109.644C184.239 109.644 186.239 109.058 188.093 107.969ZM189.345 109.01C186.922 110.571 184.255 111.302 181.361 111.302C179.865 111.302 178.385 111.075 176.938 110.668C174.889 110.099 173.084 109.091 171.604 107.562C170.092 105.985 169.36 104.099 169.36 101.904C169.36 100.31 169.718 98.7816 170.58 97.432C171.377 96.1799 172.466 95.2368 173.751 94.5213C172.743 92.9115 172.173 91.1553 172.173 89.2365C172.173 87.3177 172.824 85.7242 174.19 84.4233C175.702 82.9598 177.751 82.4883 179.8 82.4883C182.515 82.4883 185.036 83.2525 186.873 85.3339L186.938 85.4152L186.353 90.1146H185.556V89.9032C185.475 88.3259 185.052 86.8137 183.93 85.6591C182.906 84.5859 181.621 84.1144 180.141 84.1144C178.759 84.1144 177.507 84.5046 176.564 85.5453C175.653 86.5535 175.263 87.773 175.263 89.1227C175.263 90.7813 175.8 92.261 176.792 93.5944C178.206 95.4807 180.223 97.3019 181.979 98.8304C184.808 101.286 187.654 103.692 190.516 106.115C191.849 104.863 192.939 103.4 193.8 101.774C195.036 99.4483 195.654 96.9441 195.654 94.3099C195.654 93.0253 195.491 91.7569 195.199 90.5049C194.695 88.4072 193.589 86.5372 192.207 84.8949C190.548 82.9273 188.451 81.4151 186.19 80.228L185.946 80.0979L186.418 79.5288L186.564 79.5938C188.629 80.4231 190.564 81.5614 192.207 83.0737C195.589 86.1632 197.199 90.0333 197.199 94.5863C197.199 97.6271 196.353 100.489 194.874 103.123C194.044 104.603 193.004 105.953 191.784 107.14L194.093 109.01C196.451 110.928 199.101 112.555 201.98 113.53C203.329 113.985 204.793 114.148 206.207 114.148C208.029 114.148 209.834 113.546 211.46 112.766L211.655 112.668L212.045 113.351L211.915 113.465C209.687 115.384 207.118 116.473 204.159 116.473C201.898 116.473 199.671 115.807 197.622 114.864C196.223 114.213 194.906 113.384 193.687 112.441C192.239 111.319 190.808 110.164 189.394 109.01H189.345Z" fill="white"/>
</mask>
<g mask="url(#mask0_1492_4826)">
<path d="M211.996 79.5142H169.36V116.475H211.996V79.5142Z" fill="white"/>
</g>
<mask id="mask1_1492_4826" style="mask-type:luminance" maskUnits="userSpaceOnUse" x="148" y="0" width="3" height="156">
<path d="M150.707 0.565979H148.235V155.434H150.707V0.565979Z" fill="white"/>
</mask>
<g mask="url(#mask1_1492_4826)">
<path d="M150.707 0.565979H148.235V155.434H150.707V0.565979Z" fill="white"/>
</g>
<mask id="mask2_1492_4826" style="mask-type:luminance" maskUnits="userSpaceOnUse" x="38" y="28" width="90" height="100">
<path d="M105.03 127.579C111.778 121.595 117.291 114.262 121.161 106.001C116.608 106.457 111.86 106.701 106.998 106.701C72.6874 106.701 44.67 94.6838 42.8487 79.5775C73.8744 80.2604 102.412 85.1712 125.649 93.0252C126.771 88.1957 127.356 83.1874 127.356 78.0164C127.356 72.8617 126.771 67.8371 125.649 63.0077C102.412 70.8617 73.8744 75.7562 42.8487 76.4554C44.67 61.3328 72.6874 49.3323 106.998 49.3323C111.876 49.3323 116.608 49.5762 121.161 50.0315C117.307 41.771 111.778 34.4212 105.03 28.4534C77.6632 26.5021 38.7998 46.5192 38.7998 78.0327C38.7998 109.546 76.4924 127.612 105.014 127.612" fill="white"/>
</mask>
<g mask="url(#mask2_1492_4826)">
<path d="M127.372 26.468H38.8154V127.578H127.372V26.468Z" fill="white"/>
</g>
<mask id="mask3_1492_4826" style="mask-type:luminance" maskUnits="userSpaceOnUse" x="0" y="11" width="86" height="134">
<path d="M26.9611 76.4224C25.8716 76.3899 24.7822 76.3574 23.6927 76.3249C23.465 60.1291 19.969 44.8927 13.9687 31.5588C8.48883 37.12 3.98459 43.6569 0.732422 50.8767C12.2288 57.2021 19.6112 67.0074 19.6112 78.016C19.6112 89.0246 12.2288 98.8298 0.732422 105.155C3.98459 112.375 8.48883 118.896 13.9687 124.473C19.969 111.123 23.465 95.9029 23.6927 79.7071C24.7822 79.6746 25.8716 79.6421 26.9611 79.6096C27.2213 103.155 33.2053 124.733 43.0268 141.726C48.7831 143.368 54.8647 144.23 61.1576 144.23C69.7921 144.23 78.0364 142.571 85.5976 139.563C56.6209 132.522 32.2134 108.928 32.2134 77.9997C32.2134 47.0716 56.6209 23.4772 85.5976 16.4363C78.0364 13.428 69.7921 11.7694 61.1576 11.7694C54.8647 11.7694 48.7831 12.6475 43.0268 14.2736C33.2053 31.2661 27.2213 52.8605 26.9611 76.3899" fill="white"/>
</mask>
<g mask="url(#mask3_1492_4826)">
<path d="M85.5976 11.7852H0.732422V144.23H85.5976V11.7852Z" fill="white"/>
</g>
</svg>
