<svg width="168" height="76" viewBox="0 0 168 76" fill="none" xmlns="http://www.w3.org/2000/svg">
<path d="M37.3411 30.885C37.4828 30.5663 44.728 14.0471 31.5354 4.15555C31.527 4.14722 27.6336 0.368896 20.1009 0.368896H0.296289C0.296289 0.368896 0.290039 0.370979 0.290039 0.375145V75.625C0.290039 75.625 0.292122 75.6313 0.296289 75.6313H27.0587C27.769 75.6313 28.4773 75.5646 29.1751 75.4251C33.6498 74.5294 48.6985 70.1283 48.6985 51.4533C48.6985 51.4533 49.4818 37.746 37.3411 30.8913C37.3391 30.8913 37.337 30.8871 37.3391 30.8829L37.3411 30.885ZM41.3554 52.0428C41.57 57.0167 38.9014 61.5094 36.4745 64.0568C33.3727 67.3123 29.0231 69.0827 24.5255 69.0827H6.78533C6.78533 69.0827 6.77908 69.0807 6.77908 69.0765V6.80496C6.77908 6.80496 6.78117 6.79871 6.78533 6.79871H20.0988C30.2313 6.79871 32.0478 17.3755 32.0478 17.3755C34.3456 29.0521 27.0982 33.9947 26.7712 34.2113C26.767 34.2134 26.7712 34.2197 26.7753 34.2218C41.8387 36.7754 41.3533 52.0345 41.3533 52.0428H41.3554Z" fill="white"/>
<path d="M36.9502 0.368774L75.9167 75.6311L90.014 49.8869L103.524 75.6311L143.471 0.368774H135.248L103.528 58.8974L93.9329 41.8574L116.449 0.368774C116.449 0.368774 107.049 0.368774 107.637 0.368774C108.224 0.368774 90.2097 34.6111 90.2097 34.6111L71.0211 0.368774H63.3853L85.512 41.8574L76.3082 59.289L44.1967 0.368774H36.9523H36.9502Z" fill="white"/>
<path d="M159.776 0.368774L130.328 37.9416L159.726 75.6311H167.68L139.405 37.9416L167.68 0.368774H159.776Z" fill="white"/>
</svg>
