<svg width="522" height="120" viewBox="0 0 522 120" fill="none" xmlns="http://www.w3.org/2000/svg">
<path d="M8.00192 62.2902H0.697266V60.0422H17.9298V62.2902H10.6251V83.9244H8.00192V62.2902Z" fill="white"/>
<path d="M23.7344 60.0422H26.2632V73.5281H38.9966V60.0422H41.5254V83.9244H38.9966V75.8693H26.2632V84.0177H23.7344V60.0422Z" fill="white"/>
<path d="M49.4922 60.0422H64.0125V62.2902H52.021V73.5249H62.6972V75.7729H52.021V81.7697H64.4767V84.0177H49.4922V60.0422Z" fill="white"/>
<path d="M81.8027 60.0422H84.3316V83.9244H81.8027V60.0422Z" fill="white"/>
<path d="M92.3848 59.7617H92.7589L103.81 73.6228L114.862 59.7617H115.236V83.9269H112.798V68.1909C112.798 67.0674 112.891 65.4744 112.891 65.4744C112.891 65.4744 111.954 66.9731 111.205 68.0033L103.998 77.0875H103.619L96.5013 68.0033C95.8949 67.1924 95.3344 66.3481 94.8225 65.4744C94.8225 65.4744 95.0101 67.1607 95.0101 68.1909V83.9269H92.5724V59.7617H92.3848Z" fill="white"/>
<path d="M131.16 59.8546H131.534L141.649 84.0197H139.027L137.437 79.9922H125.354L123.764 84.0197H121.232L131.16 59.8546ZM136.495 77.7432L132.281 67.1603C131.812 66.0369 131.344 64.3506 131.344 64.3506C131.344 64.3506 130.875 66.0369 130.407 67.1603L126.193 77.7432H136.495Z" fill="white"/>
<path d="M144.74 72.0297C144.692 70.4098 144.977 68.7974 145.578 67.2923C146.178 65.7872 147.082 64.4216 148.232 63.2801C149.383 62.1386 150.755 61.2456 152.265 60.6564C153.775 60.0672 155.389 59.7944 157.009 59.8549C160.473 59.8549 163.377 60.7919 165.344 62.9455L163.657 64.6318C162.804 63.7722 161.78 63.1025 160.65 62.6667C159.52 62.2309 158.311 62.0388 157.102 62.1029C151.485 62.1029 147.457 66.317 147.457 72.0308C147.4 73.3418 147.614 74.6504 148.087 75.8746C148.559 77.0988 149.28 78.212 150.204 79.1443C151.127 80.0766 152.233 80.8079 153.453 81.2922C154.673 81.7765 155.979 82.0034 157.291 81.9586C159.814 82.0998 162.304 81.3362 164.314 79.805V74.9338H157.196V72.6858H166.656V81.0206C164.032 83.273 160.651 84.4447 157.196 84.2988C150.078 84.2055 144.74 79.2411 144.74 72.0297Z" fill="white"/>
<path d="M173.584 60.0422H188.104V62.2902H176.113V73.5249H186.79V75.7729H176.113V81.7697H188.568V84.0177H173.584V60.0422Z" fill="white"/>
<path d="M333.357 71.7489C333.338 69.3184 334.042 66.9371 335.379 64.9071C336.716 62.8771 338.625 61.2898 340.865 60.3467C343.106 59.4036 345.575 59.1472 347.961 59.6099C350.348 60.0726 352.543 61.2336 354.268 62.9456C355.993 64.6577 357.171 66.8436 357.652 69.2261C358.133 71.6086 357.896 74.0804 356.97 76.3277C356.044 78.5751 354.472 80.4969 352.452 81.8493C350.433 83.2016 348.057 83.9236 345.626 83.9237C344.009 83.9763 342.398 83.6981 340.892 83.1061C339.386 82.5141 338.016 81.6208 336.867 80.4809C335.719 79.341 334.815 77.9786 334.211 76.4771C333.608 74.9756 333.317 73.3667 333.357 71.7489ZM355.272 71.7489C355.272 66.0362 351.245 61.8211 345.627 61.8211C344.332 61.8041 343.047 62.0514 341.85 62.548C340.654 63.0446 339.571 63.7799 338.668 64.7091C337.765 65.6384 337.062 66.7419 336.6 67.9523C336.138 69.1627 335.928 70.4546 335.982 71.7489C335.982 77.4617 340.01 81.6768 345.627 81.6768C346.921 81.6859 348.202 81.4332 349.395 80.9339C350.588 80.4346 351.668 79.699 352.569 78.7714C353.47 77.8439 354.174 76.7435 354.639 75.5366C355.103 74.3298 355.319 73.0413 355.272 71.7489Z" fill="white"/>
<path d="M364.451 59.762H378.781V62.01H366.98V73.2446H377.75V75.5859H366.98V83.7342H364.451V59.762Z" fill="white"/>
<path d="M393.762 59.762H396.291V73.2478H409.024V59.762H411.553V83.6441H409.024V75.4958H396.291V83.6441H393.762V59.762Z" fill="white"/>
<path d="M419.523 59.762H434.044V62.01H422.052V73.2446H432.728V75.4926H422.052V81.4894H434.508V83.7374H419.523V59.762Z" fill="white"/>
<path d="M449.207 59.5742H449.581L459.696 83.7394H457.074L455.484 79.7118H443.401L441.811 83.7394H439.279L449.207 59.5742ZM454.542 77.4628L450.327 66.8799C449.859 65.7565 449.391 64.0702 449.391 64.0702C449.391 64.0702 448.922 65.7565 448.454 66.8799L444.24 77.4628H454.542Z" fill="white"/>
<path d="M465.689 59.762H468.218V81.3961H479.453V83.6441H465.689V59.762Z" fill="white"/>
<path d="M488.166 62.01H480.861V59.762H498.094V62.01H490.789V83.6441H488.26V62.01H488.166Z" fill="white"/>
<path d="M503.906 59.762H506.435V73.2478H519.168V59.762H521.697V83.6441H519.168V75.4958H506.435V83.6441H503.906V59.762Z" fill="white"/>
<path d="M298.823 118.359L269.697 118.921C263.232 119.014 256.773 119.109 250.216 119.109C244.409 119.202 238.51 119.296 232.703 119.296C230.924 119.296 229.144 119.203 227.459 119.109H225.397C225.076 119.152 224.749 119.069 224.488 118.877C224.226 118.684 224.049 118.398 223.993 118.078C220.715 107.87 217.343 97.5678 214.065 87.3602C211.349 79.0253 208.727 70.6894 206.104 62.3545C204.887 58.4213 203.576 54.4871 202.452 50.5539C201.89 48.5868 201.515 46.6207 201.048 44.6536C200.986 44.4647 200.99 44.2607 201.057 44.074C201.125 43.8873 201.254 43.7286 201.422 43.6234C202.826 42.6864 204.325 41.8438 205.73 40.9069C209.102 38.5657 212.38 36.2244 215.751 33.8831C227.834 25.4539 240.008 17.0248 252.089 8.59664C254.711 6.81711 257.334 5.03758 259.862 3.25805C260.799 2.60199 261.642 1.94698 262.579 1.29092C263.235 0.822457 263.516 0.822457 264.078 1.38419C268.105 5.31739 272.6 8.78317 276.908 12.3422C281.217 15.9013 285.618 19.1795 290.02 22.6442C296.389 27.6076 302.663 32.5721 309.032 37.5355C312.591 40.3452 316.056 43.0606 319.615 45.8703C320.552 46.6196 321.394 47.369 322.331 48.1183C322.469 48.2263 322.57 48.3744 322.621 48.5422C322.671 48.7099 322.668 48.8892 322.612 49.0552C319.99 56.9227 317.555 64.6958 314.932 72.5622C311.654 82.3957 308.377 92.1359 305.192 101.969C303.788 106.278 302.289 110.585 300.884 114.894C300.509 115.924 300.322 116.954 300.036 117.891C299.919 118.097 299.734 118.256 299.513 118.341C299.292 118.426 299.049 118.433 298.823 118.359ZM297.793 115.831C298.167 114.613 298.73 113.302 299.104 111.991C300.694 107.308 302.195 102.626 303.693 97.9419C305.473 92.3246 307.346 86.7073 309.125 81.0836C311.935 72.4679 314.743 63.9443 317.555 55.3286C318.211 53.4558 318.772 51.582 319.427 49.6159C319.469 49.5154 319.473 49.4031 319.439 49.2999C319.404 49.1966 319.334 49.1093 319.24 49.0542C318.472 48.2874 317.658 47.5681 316.802 46.9005C307.623 39.6934 298.352 32.4777 289.174 25.1731C280.466 18.3358 271.852 11.312 263.234 4.38152C262.953 4.10065 262.765 4.19392 262.485 4.38152C262.133 4.69377 261.758 4.97731 261.361 5.22942C257.521 7.85154 253.776 10.3804 249.936 13.0025C234.483 23.773 218.936 34.5434 203.482 45.3139C203.393 45.3773 203.321 45.4617 203.272 45.5597C203.223 45.6576 203.199 45.7661 203.202 45.8756C203.352 46.9565 203.603 48.021 203.951 49.0552C205.074 52.7076 206.389 56.2624 207.51 59.9189C212.38 74.8095 217.187 89.7004 221.932 104.592C223.149 108.338 224.273 112.177 225.491 115.924C225.584 116.298 225.678 116.486 226.147 116.486C228.584 116.486 231.017 116.673 233.451 116.673C244.971 116.486 256.491 116.205 268.01 116.017C277.188 115.829 286.366 115.829 295.544 115.736C296.291 115.812 297.042 115.844 297.793 115.831Z" fill="white"/>
<path d="M260.615 113.395H229.428C228.996 113.438 228.564 113.318 228.218 113.058C227.871 112.798 227.634 112.417 227.555 111.991C226.337 108.432 225.026 104.967 223.903 101.408C220.723 91.8551 217.628 82.3024 214.538 72.6555C212.758 67.1303 210.979 61.6974 209.293 56.1723C208.544 53.7346 207.795 51.2089 207.045 48.7733C206.93 48.4089 206.942 48.0164 207.078 47.6594C207.214 47.3024 207.466 47.0017 207.795 46.8062C219.221 38.3773 230.834 30.1983 242.634 22.269C246.942 19.366 251.063 16.2754 255.37 13.3714C257.712 11.6851 260.24 10.0932 262.578 8.50125C263.425 7.93952 263.425 7.93952 264.167 8.59452C273.627 16.0868 283.086 23.6734 292.544 31.0713C298.351 35.6605 304.251 40.1555 310.151 44.6515C311.462 45.5884 312.68 46.6186 313.991 47.5545C314.737 48.0771 315.52 48.5464 316.332 48.9588C316.446 48.989 316.551 49.045 316.64 49.1224C316.728 49.1997 316.798 49.2965 316.843 49.4051C316.889 49.5136 316.908 49.6312 316.901 49.7486C316.894 49.866 316.859 49.9802 316.801 50.0822C315.49 53.547 314.179 57.0128 313.054 60.4775C310.525 67.9697 307.996 75.462 305.562 82.9543C303.033 90.4465 300.504 97.8455 298.07 105.244C297.413 107.305 296.758 109.365 296.009 111.426C295.728 112.363 295.635 112.363 294.698 112.363C294.136 112.363 293.575 112.737 293.012 112.737C291.232 112.83 289.359 113.018 287.58 113.018H260.894C260.615 113.207 260.615 113.301 260.615 113.395ZM253.965 26.764C253.309 27.1381 253.028 26.764 252.654 26.4831C251.25 24.9844 249.751 23.4858 248.346 21.8938C247.971 21.5197 247.784 21.5197 247.315 21.8006C241.041 26.1089 234.86 30.5106 228.584 34.819C228.491 34.9123 228.303 35.0066 228.116 35.1931C228.584 35.1931 228.865 35.2864 229.146 35.2864C231.675 35.3797 234.204 35.474 236.638 35.6605C236.823 35.696 236.988 35.7955 237.107 35.9414C236.919 36.0347 236.732 36.2223 236.545 36.2223C233.548 36.129 230.551 35.9414 227.554 35.8481C227.423 35.8287 227.289 35.8352 227.161 35.8674C227.032 35.8996 226.911 35.9568 226.805 36.0357L222.028 39.4072C221.934 39.5005 221.747 39.5948 221.654 39.7813C221.841 39.8746 221.934 39.8746 222.028 39.9689C222.215 40.1565 222.309 40.3431 222.496 40.5307C222.309 40.6239 222.122 40.8115 221.934 40.8115C221.471 40.8891 221 40.9204 220.53 40.9048C220.338 40.8899 220.145 40.9219 219.968 40.9981C218.845 41.7474 217.72 42.4967 216.597 43.3393C216.409 43.4326 216.316 43.6202 216.129 43.7135C216.502 43.7603 216.879 43.7603 217.252 43.7135C217.451 43.733 217.643 43.7971 217.814 43.9011C217.626 43.9943 217.533 44.2752 217.345 44.2752C216.755 44.3529 216.16 44.3841 215.566 44.3685C215.335 44.3739 215.109 44.4385 214.91 44.5561C213.32 45.6795 211.73 46.8041 210.04 47.8343C209.953 47.8833 209.878 47.9489 209.817 48.0273C209.756 48.1057 209.711 48.1953 209.685 48.291C209.659 48.3867 209.652 48.4867 209.665 48.5851C209.677 48.6835 209.709 48.7784 209.759 48.8645C211.445 54.0154 213.13 59.1664 214.722 64.3174C214.91 64.8792 215.096 65.5352 215.378 66.1902C216.315 65.6285 217.158 65.0668 218 64.6004C220.07 63.6283 222.047 62.4686 223.905 61.1357C225.123 60.1055 226.434 59.2629 227.651 58.326C227.839 58.2327 228.12 58.0451 228.308 58.1384C229.227 58.3323 230.135 58.5826 231.024 58.8877C231.961 59.1814 232.87 59.5574 233.74 60.0112C234.629 60.3539 235.477 60.7936 236.269 61.3222C237.245 61.9874 238.183 62.7064 239.079 63.4759C240.859 64.9745 242.638 66.4732 244.418 68.0651C244.467 68.1271 244.528 68.1786 244.598 68.2168C244.667 68.2551 244.743 68.2792 244.822 68.2879C244.901 68.2965 244.981 68.2896 245.057 68.2673C245.133 68.2451 245.204 68.2081 245.266 68.1584C245.922 67.7843 246.577 67.5023 247.233 67.1282C248.822 66.2803 250.511 65.6295 252.01 64.6905C254.07 63.4727 256.037 62.1616 258.003 60.8506C258.284 60.663 258.472 60.4764 258.851 60.8506C259.413 61.5066 260.069 62.0684 260.537 62.5368C261.278 62.0331 262.062 61.5945 262.879 61.2258C265.22 60.1023 267.561 59.0721 269.809 57.9476C270.791 57.3676 271.702 56.6763 272.525 55.8872C273.087 55.4187 273.462 54.857 274.305 54.7637C275.843 54.4528 277.43 54.4672 278.962 54.806C280.494 55.1448 281.939 55.8005 283.203 56.7308C284.233 57.5787 285.263 58.4171 286.382 59.2597C287.908 60.4416 289.263 61.8282 290.41 63.3805C291.241 64.6555 292.505 65.5869 293.969 66.0026C296.286 66.7684 298.399 68.0494 300.15 69.7493C301.836 71.4355 303.616 72.9289 305.394 74.6194C305.488 74.7127 305.582 74.7127 305.768 74.807C305.845 74.5813 305.939 74.362 306.049 74.1509C306.799 71.8097 307.639 69.4684 308.391 67.1271C309.142 64.7859 309.98 62.5379 310.732 60.1966C310.825 60.009 310.732 59.5406 310.639 59.5406C309.106 58.746 307.634 57.838 306.237 56.8241C303.708 55.2343 301.179 53.7335 298.65 52.1416C297.802 51.5799 296.964 51.0181 296.028 50.4553C296.497 49.9869 296.876 50.2677 297.152 50.3621C297.901 50.7362 298.65 51.1114 299.4 51.5799C302.771 53.547 306.049 55.4198 309.421 57.3869C309.983 57.761 310.639 58.1362 311.294 58.5104C311.37 58.2847 311.464 58.0653 311.574 57.8543C312.136 56.2645 312.605 54.6747 313.164 53.0775C313.633 51.6731 313.633 51.6731 312.227 51.1103C311.852 50.9227 311.379 50.7362 311.01 50.5486C310.822 50.4553 310.729 50.0801 310.635 49.8925C310.865 49.7705 311.132 49.7373 311.385 49.7993C311.68 49.8497 311.966 49.9444 312.233 50.0801C312.42 50.1734 312.701 50.2677 312.888 50.361C312.85 50.2411 312.79 50.1298 312.709 50.0334C312.629 49.937 312.53 49.8575 312.419 49.7993C310.078 48.0197 307.737 46.2402 305.395 44.3674C304.86 43.8752 304.156 43.607 303.428 43.6181C303.109 43.601 302.793 43.5378 302.491 43.4305C302.304 43.4305 302.21 43.2429 302.117 43.1496C302.262 43.0624 302.42 42.9991 302.586 42.962L303.709 43.2429C302.21 41.9318 300.619 40.8052 299.12 39.4962C298.614 38.9557 297.979 38.5521 297.275 38.3228C296.57 38.0936 295.82 38.0462 295.092 38.1852C294.905 38.1852 294.624 38.0919 294.343 38.0919V37.9138C294.999 37.5397 295.747 37.8206 296.684 37.8206C295.935 37.2588 295.28 36.7904 294.624 36.2308C294.489 36.1015 294.325 36.008 294.145 35.959C293.965 35.9099 293.775 35.9068 293.594 35.9499C293.217 36.0122 292.831 35.9802 292.47 35.8566C292.377 35.8566 292.283 35.669 292.096 35.4825C292.284 35.3892 292.377 35.2016 292.565 35.2016C292.845 35.2016 293.033 35.2949 293.314 35.2949C292.901 34.8641 292.463 34.4575 292.003 34.0771L283.279 27.3257C283.15 27.2095 282.984 27.1431 282.811 27.1381L279.064 30.8847C278.876 31.0723 278.408 31.3532 278.216 30.8847C278.178 30.7386 278.175 30.5856 278.208 30.4382C278.24 30.2908 278.307 30.1532 278.404 30.0368C278.88 29.6327 279.381 29.2575 279.902 28.9134C280.652 28.2573 281.401 27.509 282.243 26.7597C281.682 26.2912 281.213 25.9118 280.745 25.5419C280.484 25.9629 280.201 26.3694 279.897 26.7597C279.804 26.9473 279.428 26.853 279.241 26.9473C279.194 26.6997 279.194 26.4456 279.241 26.198C279.241 26.1047 279.428 25.9171 279.522 25.8238C279.747 25.5511 279.998 25.3003 280.271 25.0745C279.998 24.9023 279.715 24.7458 279.423 24.606C279.236 24.606 278.861 24.606 278.767 24.7936C278.205 25.543 277.737 26.3835 277.081 27.1349C276.519 27.8842 275.863 28.5392 275.208 29.2886C275.115 29.3818 274.74 29.4762 274.646 29.3818C274.459 29.2886 274.459 29.0077 274.459 28.7258C274.459 28.5382 274.552 28.4449 274.646 28.2573C275.864 26.7586 277.084 25.26 278.299 23.6681C278.187 23.5581 278.061 23.4636 277.924 23.3872C277.077 22.7311 276.335 22.1694 275.487 21.5144C274.737 20.9527 274.55 20.9527 274.082 21.8885C273.521 22.9187 272.959 24.0422 272.303 25.0682C272.106 25.4195 271.853 25.736 271.554 26.0051C271.46 26.0983 271.085 26.1927 271.085 26.0984C270.967 25.9342 270.902 25.7385 270.898 25.5366C270.987 25.0924 271.179 24.6753 271.459 24.3188C272.209 23.0078 272.958 21.6967 273.707 20.2913C273.051 19.7296 272.209 19.1678 271.459 18.5118C270.148 17.5748 270.429 17.2007 269.586 18.9802C268.65 21.0406 267.807 23.1943 266.964 25.2547C266.871 25.4423 266.683 25.5356 266.59 25.6288C266.486 25.458 266.422 25.266 266.403 25.0671C266.453 24.7434 266.547 24.4281 266.683 24.1302C267.714 21.7889 268.651 19.4476 269.681 17.1064C269.307 16.8255 268.833 16.4503 268.37 16.0762C268.113 16.5255 267.894 16.9952 267.714 17.4805C267.62 17.4805 267.526 17.3872 267.433 17.3872C267.571 16.9928 267.665 16.5844 267.714 16.1694C267.714 15.9818 267.714 15.701 267.62 15.6077C266.122 14.3899 264.623 13.17 263.031 12.0487C262.75 11.7678 262.469 11.8611 262.469 12.3295V14.1091C262.469 14.3899 262.189 14.6708 262.095 14.957C261.954 14.6513 261.83 14.3386 261.721 14.02C261.742 13.4541 261.805 12.8905 261.909 12.3338C257.507 15.3311 253.199 18.2341 248.704 21.2314C250.313 23.0173 252.279 24.7036 253.965 26.764ZM278.872 110.117V110.023H292.921C293.228 110.032 293.528 109.933 293.769 109.743C294.049 109.368 293.769 109.087 293.488 108.806C292.532 107.593 291.272 106.656 289.835 106.089C287.868 105.34 285.902 104.499 284.028 103.748C281.876 102.803 279.861 101.575 278.035 100.096C277.058 99.3032 276.026 98.5834 274.944 97.9419C272.322 96.4433 269.7 95.0389 267.171 93.5403C264.677 91.9852 262.408 90.0951 260.428 87.923C259.016 86.5742 257.514 85.3224 255.933 84.1763C255.605 83.9263 255.218 83.765 254.81 83.7078C254.06 83.5202 253.686 83.8954 253.873 84.5557C254.471 86.6447 255.491 88.5889 256.87 90.2684C257.9 91.5795 258.93 92.9849 259.867 94.3892C260.67 95.4424 261.128 96.7181 261.178 98.0416C261.178 99.2334 261.084 100.423 260.898 101.601C260.536 102.93 260.601 104.339 261.085 105.628C261.368 106.303 261.747 106.934 262.209 107.501C262.677 108.157 263.332 108.812 263.798 109.561C263.901 109.79 264.075 109.978 264.296 110.097C264.516 110.215 264.769 110.258 265.016 110.217C269.606 110.117 274.288 110.117 278.877 110.117H278.872ZM252.269 86.2346C252.176 86.2346 252.082 86.2346 252.082 86.3278C251.894 86.4211 251.801 86.6087 251.613 86.702C250.157 88.0685 248.478 89.1771 246.65 89.9802C246.44 90.0568 246.217 90.0886 245.995 90.0734C245.995 89.9802 245.901 89.9802 245.901 89.8858C247.052 88.5062 248.374 87.2788 249.835 86.2335C247.772 86.2507 245.759 86.8695 244.042 88.0141C242.378 89.0811 240.584 89.9309 238.704 90.543C235.073 91.5033 231.507 92.692 228.027 94.102C226.939 94.5589 226.022 95.3451 225.405 96.35C225.318 96.4718 225.265 96.6136 225.248 96.7619C225.232 96.9102 225.254 97.0603 225.311 97.1979C226.341 100.569 227.465 104.035 228.589 107.407C228.683 107.594 228.87 107.875 229.058 107.781C229.752 107.702 230.441 107.577 231.118 107.407C231.634 107.228 232.135 107.008 232.617 106.751C234.021 105.903 235.427 104.971 236.738 104.034C237.368 103.54 238.061 103.131 238.798 102.816C239.854 102.566 240.865 102.155 241.796 101.599C243.982 100.059 246.473 99.0054 249.1 98.5079C250.007 98.2539 250.967 98.2689 251.865 98.5512C252.763 98.8334 253.56 99.3708 254.158 100.098C255.281 101.502 256.218 102.907 257.248 104.312C257.667 104.855 258.137 105.357 258.653 105.81C258.746 105.81 258.746 105.717 258.84 105.717V105.343C258.482 104.156 258.45 102.894 258.747 101.691C258.935 100.754 259.028 99.8179 259.216 98.881C259.221 98.628 259.189 98.3757 259.122 98.1317C258.085 98.9521 256.912 99.5858 255.658 100.004C256.608 98.8067 257.71 97.7378 258.936 96.8248C258.936 96.7316 258.843 96.7316 258.843 96.6372C257.812 97.1057 256.782 97.6674 255.752 98.1359C255.752 98.0426 255.659 98.0426 255.659 97.9483C255.735 97.6591 255.875 97.391 256.07 97.1639C256.265 96.9369 256.508 96.7568 256.782 96.6372C257.344 96.2631 257.906 95.9812 258.372 95.607C257.998 94.6701 257.998 94.6701 257.154 95.1386C256.674 95.4255 256.173 95.676 255.655 95.8879C255.38 95.9656 255.093 95.9971 254.808 95.9812C254.901 95.7003 254.901 95.3251 255.088 95.1333C255.65 94.4772 256.212 94.0098 256.868 93.3537C256.493 92.8853 256.211 92.5108 256.02 92.2303C253.96 93.3537 251.993 94.3839 250.12 95.4099C249.932 95.5032 249.651 95.5032 249.464 95.5975C249.454 95.5264 249.421 95.4605 249.37 95.4099C251.199 93.8477 253.175 92.4676 255.271 91.2891L254.709 90.4412C254.616 90.4412 254.521 90.4412 254.521 90.5345C251.805 92.0331 249.183 93.6251 246.466 95.1237C246.279 95.217 245.998 95.217 245.81 95.3113C245.81 95.2181 245.717 95.1237 245.717 95.0305C248.155 92.6892 251.149 91.0973 253.865 89.1301C253.584 88.6617 253.304 88.1932 253.017 87.8191C251.331 88.9425 249.838 90.1603 248.147 91.1905C245.71 92.6892 243.277 94.0935 240.748 95.5922C240.515 95.7093 240.26 95.7734 239.999 95.7798C239.999 95.6865 239.906 95.5922 239.906 95.4989C244.42 93.0199 248.658 90.0689 252.549 86.6956C252.56 86.7963 252.466 86.5154 252.279 86.2346H252.269ZM224.454 94.4762C224.924 94.0914 225.425 93.7467 225.952 93.446C227.589 92.669 229.279 92.0116 231.01 91.4788C235.037 90.6039 238.854 88.9494 242.245 86.6087C243.827 85.5574 245.615 84.855 247.489 84.5483C249.362 84.1742 251.329 83.8922 252.828 82.3946C253.142 82.134 253.543 82.0005 253.951 82.0205C255.713 82.1275 257.406 82.7459 258.821 83.8C260.132 84.737 261.35 85.8604 262.568 86.8906C262.661 87.0215 262.794 87.1192 262.946 87.1697C263.098 87.2202 263.263 87.2209 263.416 87.1715C264.072 86.9839 264.727 86.8906 265.383 86.703L267.912 86.1413C267.906 86.0905 267.911 86.0389 267.927 85.9903C267.943 85.9417 267.97 85.8974 268.005 85.8604C267.073 85.1823 266.104 84.557 265.102 83.9876C264.728 83.7068 264.165 83.5192 263.791 83.2383C263.417 82.9574 263.042 82.6766 262.573 83.0507V82.0205C262.386 82.1138 262.105 82.1138 261.917 82.2081C261.73 82.3024 261.542 82.5822 261.355 82.6766C261.262 82.7698 260.981 82.7698 260.887 82.8642C260.862 82.7019 260.895 82.5361 260.98 82.3957C261.08 82.1147 261.24 81.8589 261.449 81.6464C262.01 80.897 262.01 80.6162 261.355 79.7736C261.262 79.8668 261.075 79.9612 260.981 80.0544L259.305 81.4588C259.211 81.552 259.024 81.4588 258.836 81.552V81.1779C258.988 80.8459 259.177 80.5316 259.398 80.241C259.866 79.6792 260.428 79.1175 260.897 78.5547C260.709 78.2738 260.428 77.993 260.24 77.7068C258.929 78.6437 257.992 79.8605 256.494 80.4233C256.656 80.0185 256.877 79.64 257.15 79.2998C257.431 78.9257 257.712 78.6437 257.998 78.2696C258.279 77.9887 258.56 77.6135 258.846 77.3327H258.752C258.096 77.8011 257.348 78.3629 256.692 78.8313C256.599 78.7381 256.599 78.6437 256.504 78.6437C256.598 77.4259 257.815 76.771 258.472 75.834C258.003 75.5532 257.624 75.2723 257.254 75.0847C257.066 75.4588 256.973 75.834 256.692 76.0216C255.474 77.0518 254.163 78.082 252.852 79.0189C252.759 79.1122 252.571 79.0189 252.384 79.0189C252.37 78.8871 252.403 78.7546 252.477 78.6448C252.945 78.0831 253.414 77.427 253.881 76.8653L256.129 74.3364C255.942 74.2431 255.755 73.6804 255.281 74.2431C254.808 74.8059 254.344 75.4609 253.783 76.0227C252.003 77.8955 250.13 79.7693 248.351 81.64C248.187 81.7963 247.997 81.9229 247.789 82.0141C247.696 81.7333 247.696 81.64 247.789 81.5457C248.517 80.4765 249.298 79.445 250.13 78.4551C251.535 76.8653 252.94 75.3645 254.439 73.9602C255 73.3984 255.095 73.3984 254.532 72.7424C254.433 72.6393 254.368 72.509 254.344 72.3682C253.221 73.2161 252.377 74.3354 250.973 74.4286C251.702 73.4203 252.483 72.4513 253.314 71.5256C253.374 71.4863 253.425 71.4343 253.463 71.3734C253.501 71.3124 253.526 71.2439 253.534 71.1726C253.543 71.1013 253.537 71.0289 253.515 70.9604C253.493 70.892 253.456 70.8292 253.407 70.7763C253.22 70.5887 253.127 70.3078 252.939 70.1202L252.658 70.4011L251.44 71.6189C248.55 74.822 245.418 77.7981 242.071 80.5208C241.835 80.6978 241.584 80.8545 241.322 80.9893C241.322 80.896 241.228 80.896 241.228 80.8017C241.509 80.5208 241.697 80.1456 241.978 79.8647C242.9 78.9739 243.775 78.0361 244.6 77.055C246.82 74.039 249.329 71.2474 252.092 68.7201C252.206 68.5772 252.301 68.4197 252.373 68.2517L252.185 68.0641C251.905 68.2517 251.529 68.3449 251.338 68.6258C250.307 69.5627 249.184 70.4053 248.247 71.3423C246.374 73.2151 244.595 75.1822 242.63 77.055C240.382 79.1154 237.947 80.9882 235.606 82.9553C235.053 83.4442 234.457 83.8829 233.826 84.2664L233.639 84.0788C233.73 83.8713 233.857 83.6813 234.013 83.5171C234.861 82.6692 235.699 81.9272 236.542 81.0793C238.414 79.2998 240.382 77.7079 242.159 75.8351C243.912 73.8168 245.788 71.9089 247.776 70.1224C248.508 69.5153 249.196 68.858 249.837 68.1552C249.837 68.062 249.743 68.062 249.743 67.9676C248.994 68.3418 248.154 68.717 247.402 69.1854C245.716 70.1224 244.031 71.0582 243.188 72.9321C242.29 74.9208 240.736 76.5409 238.787 77.5213C238.225 77.8022 237.569 78.1774 237.007 78.4583C236.408 78.8103 235.843 79.218 235.321 79.6761C234.346 80.6521 233.204 81.4451 231.949 82.0173C231.387 82.2163 230.876 82.5361 230.451 82.9543C229.704 83.7392 228.769 84.3197 227.734 84.6405C226.392 85.0895 225.078 85.6204 223.801 86.2303C223.551 86.3229 223.322 86.4655 223.128 86.6494C222.935 86.8333 222.781 87.0547 222.676 87.3C222.571 87.5453 222.517 87.8095 222.517 88.0764C222.517 88.3433 222.572 88.6074 222.677 88.8525C223.052 89.8827 223.334 91.0061 223.708 92.0321C224.002 92.8329 224.255 93.6487 224.463 94.4762H224.454ZM221.644 85.4852C222.302 85.1134 222.992 84.7999 223.704 84.5483C224.4 84.3034 225.124 84.146 225.858 84.0798C227.204 83.7909 228.401 83.0263 229.23 81.9262C229.674 81.3077 230.25 80.7958 230.916 80.4275C232.883 79.6782 234.006 78.0863 235.693 76.8685C232.994 74.7066 230.79 71.9922 229.227 68.9077L228.571 69.5638C227.073 71.1536 225.481 72.6544 223.982 74.2463C223.764 74.4257 223.508 74.5536 223.233 74.6205C223.14 74.5272 223.14 74.4329 223.045 74.4329C223.514 73.6835 223.893 72.9342 224.45 72.1849C225.573 70.7805 226.791 69.3751 227.914 68.0641C228.195 67.6899 228.383 67.3147 227.821 66.9406L223.513 71.249C223.419 71.1557 223.325 71.1557 223.232 71.0614C223.396 70.7952 223.584 70.5444 223.794 70.3121C224.824 69.0943 225.947 67.7832 226.973 66.5654C227.347 66.097 227.347 65.8161 226.88 65.4419C226.692 65.6295 226.506 65.7228 226.411 65.9104C225.288 66.8473 224.258 67.8775 223.133 68.8134C222.879 68.994 222.59 69.1213 222.285 69.1875C222.352 68.8826 222.479 68.5942 222.659 68.3396C223.69 67.0286 224.813 65.7175 225.938 64.4065C226.031 64.2189 226.312 64.0323 226.219 63.8447C226.106 63.2714 225.949 62.7076 225.75 62.1585C224.813 62.9078 223.877 63.5628 223.034 64.2189C221.124 65.7267 219.05 67.0147 216.852 68.0588C216.196 68.3396 216.103 68.6205 216.384 69.1822C217.883 73.5839 219.287 77.9856 220.692 82.4816C220.904 83.3316 221.279 84.3618 221.654 85.4852H221.644ZM258.086 62.8209C257.056 63.6688 256.025 64.4107 255.088 65.2586C254.91 65.442 254.781 65.6678 254.714 65.9147C254.37 66.9222 254.403 68.0203 254.808 69.0052C255.737 71.1135 257.148 72.9741 258.928 74.4371C261.007 75.902 262.684 77.8666 263.804 80.1498C264.046 80.7628 264.412 81.3196 264.877 81.7862C265.343 82.2528 265.899 82.6193 266.512 82.8631C267.635 83.4248 268.665 84.2674 269.79 84.9235C270.193 85.2441 270.682 85.4394 271.195 85.4852C273.256 85.2044 275.316 84.8292 277.283 84.455C277.538 84.3872 277.806 84.3954 278.056 84.4787C278.305 84.5619 278.525 84.7166 278.688 84.9235C280.405 86.9271 282.642 88.4179 285.153 89.2319C285.892 89.4328 286.643 89.5892 287.401 89.7004C287.401 89.6071 287.494 89.5128 287.494 89.4195C287.213 89.0454 286.932 88.5716 286.646 88.2017C285.485 86.8777 284.126 85.7405 282.619 84.8302C278.873 82.6766 275.126 80.6162 271.384 78.5558C268.519 76.9073 265.98 74.7489 263.892 72.187C261.885 69.528 260.099 66.7089 258.553 63.7578C258.436 63.4277 258.279 63.1131 258.086 62.8209ZM302.197 84.0809C302.268 84.0713 302.334 84.0385 302.384 83.9876L304.632 77.2447C304.726 77.0571 304.539 76.7762 304.445 76.683C303.958 76.1962 303.425 75.7572 302.855 75.3719C301.398 74.3196 300.021 73.1615 298.734 71.9072C297.239 70.276 295.377 69.0241 293.302 68.2549C291.155 67.438 289.298 66.0043 287.964 64.1341C287.479 63.4445 286.912 62.8157 286.277 62.2613C285.06 61.1378 283.655 60.1076 282.437 59.0816C281.129 57.8921 279.644 56.9128 278.036 56.1786C277.43 55.9449 276.779 55.8489 276.131 55.8975C275.484 55.946 274.855 56.138 274.29 56.4595C274.178 56.5287 274.084 56.625 274.019 56.7397C273.953 56.8543 273.918 56.9836 273.915 57.1156C273.923 58.1157 274.256 59.0861 274.865 59.8802C275.473 60.6742 276.323 61.2488 277.286 61.5172C278.504 61.8914 279.815 61.9857 281.126 62.2666C282.863 62.4631 284.465 63.2974 285.621 64.6078C286.323 65.4007 287.073 66.149 287.868 66.8484C289.262 67.9664 290.355 69.4149 291.048 71.0625C291.422 71.9104 291.896 72.7487 292.266 73.6846C292.593 74.3078 293.121 74.8025 293.764 75.0889C295.904 76.0743 297.675 77.714 298.822 79.7715C299.478 80.8949 300.133 81.9251 300.789 83.0496C301.307 83.3214 301.781 83.669 302.197 84.0809ZM269.976 66.4743L269.789 66.2867C269.987 66.0767 270.207 65.8884 270.445 65.7249C271.395 64.931 272.302 64.0869 273.161 63.1961C273.911 62.4467 273.723 61.7917 272.974 61.1357C272.577 61.4199 272.201 61.7331 271.85 62.0726L268.198 64.8823C267.892 65.1542 267.544 65.3757 267.168 65.5384C267.075 65.6317 266.887 65.5384 266.512 65.5384C266.614 65.3373 266.74 65.1488 266.886 64.9767C267.542 64.3206 268.197 63.5723 268.759 62.9163C269.696 61.8861 270.726 60.9491 271.662 59.9189C271.743 59.8644 271.812 59.7943 271.865 59.7126C271.919 59.6309 271.955 59.5394 271.973 59.4434C271.99 59.3474 271.988 59.2489 271.967 59.1536C271.946 59.0583 271.906 58.9683 271.849 58.8887L271.288 59.1696C270.538 59.5437 269.882 60.0175 269.134 60.3874L264.922 62.3524C263.84 62.8585 262.905 63.6322 262.205 64.6004C262.112 64.6937 262.112 65.0689 262.112 65.1621C263.629 68.0167 265.554 70.6352 267.825 72.9353C267.918 73.0285 268.106 73.1229 268.199 73.3094C269.979 70.4997 271.009 69.6571 273.816 68.8145C274.191 68.7212 274.664 68.5336 275.034 68.4403C276.189 67.9214 277.378 67.4833 278.593 67.1293C279.746 66.8188 280.959 66.8016 282.12 67.0793C283.281 67.3569 284.355 67.9206 285.243 68.7191C285.899 69.2808 286.461 69.9369 287.116 70.4986C287.535 70.8646 287.972 71.2084 288.427 71.5288C288.474 71.4597 288.499 71.3781 288.499 71.2946C288.499 71.2111 288.474 71.1295 288.427 71.0603C287.677 70.1234 287.022 69.1875 286.273 68.2506C285.425 67.3137 284.494 66.4711 283.651 65.5342C283.37 65.16 283.089 65.0657 282.714 65.4409C282.514 65.7304 282.211 65.9317 281.866 66.0026C281.492 66.1902 280.836 66.4711 280.743 66.2835C280.369 65.815 280.836 65.4356 281.117 65.0657C281.304 64.7848 281.398 64.504 281.585 64.2178C281.304 64.1245 281.211 64.1245 281.117 64.2178L279.15 65.6221C278.776 65.903 278.494 66.2782 277.932 65.903C278.4 65.1537 279.431 64.7795 279.15 63.5617C278.796 63.7291 278.452 63.9167 278.12 64.1235C277.784 64.4118 277.471 64.725 277.183 65.0604C276.529 65.6673 275.766 66.144 274.935 66.4647C275.005 66.324 275.1 66.1972 275.215 66.0906C275.777 65.6221 276.339 65.1537 276.805 64.6863C277.086 64.4054 277.086 64.2178 276.899 63.7493C276.524 63.0933 275.962 63.0933 275.4 62.9014C275.212 62.8082 274.931 62.8082 274.838 62.9947C273.339 64.0249 271.841 65.0551 270.436 66.0853C270.331 66.2612 270.17 66.3975 269.98 66.4732L269.976 66.4743ZM300.043 91.0135C300.511 89.5149 300.98 88.1105 301.542 86.7051C301.729 86.2367 301.542 86.0491 301.166 85.8573C299.963 85.1999 298.96 84.229 298.263 83.0475L296.015 79.3952C295.484 78.5052 294.703 77.7909 293.769 77.3412C292.551 76.6851 291.331 76.1234 290.209 75.374C287.875 73.9771 285.76 72.2412 283.935 70.223C283.467 69.6613 282.998 69.0052 282.156 69.2861C281.759 69.4359 281.419 69.7061 281.184 70.059C280.949 70.4118 280.83 70.8295 280.844 71.2532C280.792 71.7092 280.89 72.17 281.125 72.5643C281.485 73.314 281.995 73.9823 282.622 74.5283C284.776 76.4954 287.024 78.4614 289.087 80.6162C291.616 83.2383 294.426 85.5796 297.048 88.0152C297.975 89.0836 298.976 90.0855 300.043 91.0135ZM276.817 86.2367C276.629 86.2367 276.536 86.33 276.443 86.33C274.476 86.7984 272.603 87.3601 270.636 87.8286C268.996 88.1698 267.339 88.4199 265.672 88.5779C265.413 88.5959 265.16 88.6594 264.923 88.7655C264.976 88.8143 265.01 88.8812 265.016 88.9531C265.11 89.0464 265.297 89.1407 265.39 89.3273C267.98 91.5271 270.884 93.3266 274.006 94.6659C275.872 95.5573 277.632 96.657 279.25 97.9441C280.341 98.9285 281.5 99.8355 282.717 100.658C284.854 101.676 287.043 102.583 289.274 103.375C291.243 104.001 292.996 105.169 294.331 106.746C294.425 106.84 294.519 106.84 294.705 107.027C294.893 106.465 295.08 105.904 295.267 105.437C295.5 105.126 295.601 104.735 295.548 104.35C295.496 103.964 295.294 103.615 294.986 103.377C294.425 102.909 293.956 102.347 293.397 101.878C293.209 101.691 292.74 101.785 292.46 101.878C291.898 102.066 291.804 101.972 291.804 101.504C291.804 101.317 291.71 101.223 291.71 101.036C291.537 101.039 291.37 101.106 291.242 101.223C290.701 101.601 290.138 101.945 289.556 102.254C289.368 102.347 289.087 102.347 288.806 102.441C288.806 102.348 288.713 102.254 288.713 102.16C289.275 101.504 289.836 100.942 290.399 100.287C290.344 100.205 290.271 100.137 290.185 100.086C290.1 100.036 290.005 100.005 289.906 99.9964C289.808 99.9875 289.708 100.001 289.615 100.035C289.522 100.069 289.438 100.123 289.369 100.194L287.402 101.318C287.194 101.401 286.969 101.433 286.746 101.411C286.746 101.318 286.653 101.318 286.653 101.223C287.214 100.567 287.683 100.006 288.242 99.3505C288.082 99.1685 287.862 99.0496 287.621 99.0152C287.381 98.9808 287.136 99.0332 286.931 99.1629C286.455 99.5358 285.917 99.8227 285.341 100.011C285.101 100.094 284.846 100.126 284.592 100.104C284.592 100.011 284.592 100.011 284.499 99.9165C284.873 99.448 285.155 99.0686 285.529 98.6054C284.967 98.793 284.592 99.1672 284.03 99.3548C283.72 99.4016 283.404 99.4016 283.094 99.3548C283.187 99.0739 283.187 98.6987 283.281 98.5069L284.129 97.3834L284.036 97.2901C283.286 97.571 282.63 97.9462 281.882 98.227C281.789 98.1338 281.789 98.0395 281.694 97.9462C282.075 97.4862 282.482 97.0484 282.912 96.6351C282.516 96.3829 282.14 96.0994 281.789 95.7872C281.723 95.7042 281.641 95.6355 281.548 95.5854C281.455 95.5353 281.353 95.505 281.247 95.4962C281.142 95.4875 281.036 95.5005 280.936 95.5345C280.836 95.5686 280.744 95.6228 280.665 95.6939C280.104 95.9748 279.448 96.2557 278.793 96.5418L278.605 96.3542L278.886 95.7925C279.283 95.5083 279.658 95.1951 280.009 94.8556C280.103 94.7623 280.29 94.668 280.29 94.5747C280.383 94.2006 279.353 93.3569 278.979 93.5445C278.323 93.8254 277.668 94.013 277.012 94.2939C277.012 94.2006 276.919 94.2006 276.919 94.1063L277.2 93.5445C277.472 93.2739 277.789 93.052 278.136 92.8885C279.167 92.42 278.886 92.42 278.511 91.5774C278.484 91.4948 278.438 91.4198 278.376 91.3583C278.315 91.2967 278.24 91.2505 278.157 91.2231C278.075 91.1958 277.987 91.1882 277.901 91.201C277.815 91.2137 277.734 91.2465 277.663 91.2965C276.726 91.6707 275.696 91.9526 274.76 92.3267C274.583 92.4029 274.39 92.4349 274.198 92.42C274.252 92.2153 274.347 92.024 274.479 91.8583C275.416 91.2965 276.352 90.6405 277.195 90.0787C277.383 89.9855 277.476 89.7046 277.664 89.517C277.476 89.517 277.195 89.3294 277.008 89.4237C275.228 89.7979 273.355 90.2716 271.576 90.7348C271.323 90.7398 271.071 90.7084 270.827 90.6415C271.107 90.3607 271.201 90.1731 271.388 90.0798C272.877 89.0682 274.523 88.3087 276.258 87.8318C277.098 87.4524 277.191 87.2648 276.817 86.2346V86.2367ZM236.826 75.2776C236.826 75.1843 236.919 75.1843 236.919 75.09C237.107 75.1833 237.293 75.1833 237.387 75.3708C237.668 75.745 237.949 75.6517 238.324 75.4641C239.268 74.8332 240.094 74.0406 240.762 73.1229C241.418 72.0927 242.073 71.1557 242.823 70.1255C243.103 69.7514 243.103 69.4695 242.729 69.1886C240.576 67.4091 238.515 65.5363 236.36 63.7567C235.631 63.1096 234.809 62.5739 233.923 62.1669C232.427 61.4628 230.895 60.8377 229.333 60.2941C229.264 60.2473 229.183 60.2223 229.099 60.2223C229.016 60.2223 228.934 60.2473 228.865 60.2941C228.68 60.3675 228.511 60.4766 228.369 60.6152C228.226 60.7538 228.112 60.9192 228.033 61.1019C227.954 61.2846 227.913 61.481 227.91 61.68C227.907 61.8789 227.943 62.0764 228.017 62.2613C229.2 65.5145 230.909 68.5518 233.075 71.2522C234.105 72.3756 234.948 73.5934 235.885 74.7169C236.171 74.9035 236.545 75.09 236.826 75.2776ZM297.514 92.4168L297.702 92.2292C297.47 91.8742 297.184 91.558 296.854 91.2923C295.543 90.0745 294.232 88.951 292.921 87.8276C291.516 86.6098 290.205 85.2987 288.893 84.0809C288.612 83.8 288.425 83.7068 288.045 83.9876C287.939 84.0666 287.818 84.1238 287.689 84.156C287.561 84.1882 287.427 84.1947 287.296 84.1752V83.4248C287.306 83.3538 287.338 83.2879 287.389 83.2372C287.305 82.9385 287.179 82.6531 287.015 82.3893C286.922 82.2961 286.641 82.3893 286.453 82.3893C286.266 82.3893 286.172 82.4826 285.985 82.4826C286.078 82.0141 286.266 81.6347 286.172 81.3591C285.81 80.8268 285.368 80.3532 284.861 79.9548C284.674 79.8615 284.205 80.2357 283.831 80.4233C283.738 80.4233 283.738 80.5165 283.644 80.5165C283.452 80.5016 283.259 80.5336 283.082 80.6098C283.082 80.4222 282.989 80.1413 283.082 80.0481C283.269 79.6739 283.55 79.392 283.738 79.0179L283.457 78.737C283.083 78.2686 282.708 78.1753 282.239 78.737C281.951 79.0452 281.638 79.3288 281.302 79.5849L280.741 79.8658C280.741 79.6782 280.647 79.3973 280.834 79.2097C281.208 78.648 281.583 77.9919 281.957 77.3369C281.676 77.0561 281.396 76.8685 281.109 76.5876C281.06 76.5218 280.996 76.4684 280.922 76.4316C280.849 76.3948 280.768 76.3756 280.685 76.3756C280.603 76.3756 280.522 76.3948 280.448 76.4316C280.375 76.4684 280.311 76.5218 280.262 76.5876L278.294 77.9919C278.107 78.1795 277.826 78.1795 277.545 78.3661L277.357 78.1785C277.545 77.9909 277.638 77.71 277.826 77.5224C278.282 77.1713 278.72 76.7963 279.137 76.3989C279.793 75.7429 279.793 75.462 279.511 74.6194C279.137 73.8701 278.949 73.7715 278.293 74.3385C277.825 74.7127 277.356 75.1864 276.795 75.5563C276.607 75.6496 276.421 75.6496 276.233 75.7439C276.233 75.6507 276.14 75.6507 276.14 75.5563C276.327 75.3687 276.514 75.0879 276.701 74.9003C277.357 74.3385 278.012 73.7768 278.669 73.1207C278.856 73.0275 278.856 72.7466 278.856 72.4647C278.575 72.4647 278.294 72.3714 278.107 72.4647C277.779 72.661 277.466 72.8802 277.17 73.1207C276.701 73.4949 276.14 73.7768 275.58 74.1509C275.372 74.2345 275.147 74.2665 274.924 74.2442C274.924 74.1509 274.924 74.1509 274.831 74.0566C275.018 73.9633 275.112 73.7757 275.299 73.6825C276.329 72.7455 277.36 71.9029 278.202 70.966C278.501 70.7491 278.749 70.4688 278.927 70.145C279.105 69.8212 279.209 69.462 279.232 69.0932C278.941 69.1575 278.657 69.2516 278.384 69.3741C277.916 69.5617 277.537 69.7482 277.073 69.9358C275.294 70.5919 273.514 71.0593 271.735 71.8086C270.901 72.2189 270.115 72.7216 269.394 73.3073C268.832 73.7757 268.832 74.1552 269.487 74.5251C271.266 75.6485 273.046 76.8663 274.825 77.9898C277.728 79.6761 280.726 81.268 283.629 82.8599C286.382 84.2866 288.612 86.5503 289.998 89.3252C290.091 89.5128 290.372 89.606 290.559 89.6993C292.351 89.8446 294.073 90.4587 295.552 91.4799C296.188 91.8296 296.843 92.1431 297.514 92.4168ZM298.638 95.2265C297.708 94.8775 296.801 94.4708 295.922 94.0087C293.346 92.3895 290.347 91.5744 287.305 91.6675C286.421 91.6349 285.542 91.5095 284.683 91.2934C282.936 90.8193 281.35 89.8805 280.094 88.5769C279.906 88.3893 279.72 88.296 279.532 88.1084C279.439 88.1084 279.439 88.2017 279.345 88.2017C279.719 88.951 280.001 89.7915 280.375 90.543C281.231 92.417 282.773 93.8917 284.683 94.6637C285.62 95.0379 286.556 95.5116 287.493 95.8815C290.705 97.0562 293.662 98.8365 296.203 101.126C296.24 101.161 296.284 101.188 296.333 101.204C296.382 101.22 296.433 101.225 296.484 101.219C297.328 99.253 297.983 97.1926 298.639 95.2255L298.638 95.2265ZM243.475 108.899L243.195 108.618C243.756 108.056 244.225 107.495 244.881 106.839C244.225 106.932 243.851 107.686 243.008 107.307C243.664 106.218 244.486 105.238 245.446 104.404C244.884 104.685 244.322 104.966 243.856 105.252C243.763 105.159 243.763 105.064 243.668 104.971C244.979 103.753 246.197 102.533 247.508 101.319C247.499 101.248 247.466 101.182 247.415 101.131C246.489 101.418 245.582 101.762 244.698 102.161C242.826 103.379 241.046 104.69 239.173 106.001C238.705 106.375 238.143 106.657 237.584 107.031C237.49 107.125 237.303 107.031 237.115 107.031C237.09 106.869 237.123 106.703 237.208 106.563C237.208 106.47 237.396 106.375 237.489 106.282L238.894 104.878C238.633 104.884 238.377 104.948 238.144 105.065C236.271 106.096 234.304 107.126 232.431 108.156C231.495 108.624 230.652 109.093 229.715 109.655C229.588 109.788 229.492 109.948 229.434 110.123C229.54 110.323 229.703 110.486 229.903 110.592C229.996 110.685 230.184 110.592 230.277 110.592C236.177 110.498 242.171 110.404 248.071 110.404C248.633 110.404 248.82 110.216 248.727 109.655C248.742 109.493 248.709 109.33 248.634 109.186C248.306 108.054 248.306 106.853 248.634 105.721C248.727 105.534 248.634 105.253 248.727 104.874C247.082 106.347 245.326 107.693 243.475 108.899ZM261.363 110.117C261.363 110.023 261.363 109.929 261.456 109.929C261.081 109.836 260.707 109.648 260.333 109.555C258.073 108.75 256.157 107.197 254.901 105.153C254.053 103.842 253.215 102.624 252.279 101.407C252.02 101.075 251.652 100.846 251.241 100.761C250.829 100.675 250.4 100.738 250.031 100.938C250.124 101.126 250.124 101.219 250.218 101.407C250.729 102.151 251.083 102.992 251.26 103.877C251.437 104.762 251.433 105.674 251.248 106.558C251.202 107.025 251.202 107.495 251.248 107.962C251.357 108.549 251.42 109.144 251.436 109.742C251.436 110.303 251.717 110.398 252.092 110.303C254.995 110.303 257.992 110.21 260.895 110.21C261.042 110.142 261.203 110.11 261.364 110.117H261.363Z" fill="white"/>
<path d="M291.988 40.4376C290.043 40.3763 288.118 40.0292 286.275 39.4074L284.308 38.8456C284.027 38.7524 283.934 38.3772 283.746 38.1896C284.013 38.0538 284.299 37.9591 284.594 37.9087C285.905 38.1896 287.216 38.5648 288.527 38.8456C289.225 38.9891 289.913 39.1767 290.588 39.4074C291.076 39.6551 291.545 39.9385 291.992 40.2553C292.081 40.25 291.988 40.3464 291.988 40.4376Z" fill="white"/>
<path d="M292.831 53.0808C293.112 53.1741 293.487 53.2684 293.768 53.3617C294.891 54.0177 296.016 54.766 297.139 55.4221C298.638 56.359 300.23 57.3892 301.728 58.4194C301.998 58.6143 302.249 58.834 302.478 59.0755C302.759 59.3563 302.571 59.5439 302.29 59.5439C301.947 59.5192 301.619 59.3885 301.353 59.1698C298.731 57.3903 296.109 55.5175 293.392 53.7379C293.154 53.5745 292.935 53.3862 292.736 53.1762L292.831 53.0808Z" fill="white"/>
<path d="M263.42 24.4238C263.513 23.1127 263.608 21.7073 263.701 20.3962L264.263 16.4631C264.274 16.2329 264.364 16.0138 264.519 15.843C264.674 15.6721 264.883 15.5602 265.11 15.5261C265.391 18.6167 264.549 21.5197 263.706 24.517C263.626 24.4508 263.524 24.4175 263.42 24.4238Z" fill="white"/>
<path d="M263.704 49.0544C263.84 52.3443 263.299 55.6272 262.114 58.6993C261.736 56.9219 262.954 49.6162 263.704 49.0544Z" fill="white"/>
<path d="M259.491 25.5462C259.491 25.3586 259.398 25.1721 259.398 24.9845C259.21 22.6432 259.024 20.3019 258.836 18.0539C258.836 17.5855 258.648 17.117 258.648 16.7429C258.684 16.5585 258.783 16.3926 258.929 16.2744C259.023 16.462 259.21 16.5553 259.21 16.7429C259.52 18.195 259.739 19.6651 259.866 21.1445C259.96 22.4556 259.866 23.861 259.866 25.2653C259.866 25.4529 259.773 25.5462 259.679 25.7338C259.673 25.5462 259.58 25.5462 259.491 25.5462Z" fill="white"/>
<path d="M300.51 64.9758C300.732 65.0258 300.951 65.0884 301.166 65.1634L302.852 66.2869C303.707 66.9225 304.521 67.6107 305.29 68.3473C305.477 68.5349 305.477 68.909 305.571 69.0966C305.29 69.1899 304.915 69.3775 304.723 69.2842C303.131 68.2225 301.737 66.8916 300.602 65.351C300.51 65.2567 300.603 65.1634 300.51 64.9758Z" fill="white"/>
<path d="M291.891 59.1683C288.239 57.2955 285.616 54.2049 282.619 51.5827C282.712 51.4895 282.712 51.3951 282.807 51.3019C282.994 51.3951 283.275 51.5827 283.463 51.676L288.236 55.8901C289.36 56.827 290.484 57.6696 291.608 58.6065C291.796 58.6998 291.889 58.8874 292.076 59.075C292.006 59.0852 291.941 59.1179 291.891 59.1683Z" fill="white"/>
<path d="M247.498 54.9548C246.65 56.0783 245.812 57.2028 244.969 58.233C244.032 59.4508 243.097 60.7619 242.16 61.9797C242.066 62.0729 241.972 62.2605 241.879 62.3538C241.691 62.4471 241.41 62.4471 241.223 62.5414C241.223 62.2605 241.223 61.9797 241.316 61.8853L243.564 59.0756C244.687 57.6713 245.812 56.2659 246.935 54.9548C247.029 54.8615 247.216 54.8615 247.404 54.7672C247.455 54.8177 247.488 54.8836 247.498 54.9548Z" fill="white"/>
<path d="M255.367 47.8362C255.332 48.4146 255.206 48.9838 254.992 49.5225C254.561 50.8864 253.931 52.1794 253.124 53.3603C253.031 53.4536 252.936 53.6412 252.843 53.6412C252.774 53.6872 252.692 53.7117 252.609 53.7117C252.525 53.7117 252.444 53.6872 252.375 53.6412C252.281 53.6412 252.281 53.3603 252.281 53.267C253.031 51.5808 253.871 49.8956 254.622 48.2093C254.728 48.0098 254.891 47.8466 255.091 47.7408C255.273 47.8362 255.273 47.8362 255.367 47.8362Z" fill="white"/>
<path d="M234.764 47.0868C235.084 46.8068 235.429 46.5561 235.794 46.3375C238.232 45.214 240.757 44.1838 243.193 43.1579C244.001 42.8085 244.784 42.4015 245.534 41.9401C245.534 42.0333 245.627 42.0333 245.627 42.1277C245.347 42.3153 245.066 42.5961 244.779 42.7837L240.565 44.7509C238.879 45.5988 237.194 46.3407 235.508 47.1886C235.298 47.2654 235.074 47.2972 234.852 47.2818C234.801 47.2286 234.77 47.1599 234.764 47.0868Z" fill="white"/>
<path d="M280.748 43.0609C280.935 43.0609 281.123 43.1542 281.309 43.1542C283.675 44.0389 285.911 45.2358 287.959 46.7132C288.24 46.9008 288.427 47.1817 288.147 47.4626C288.053 47.5558 287.678 47.4626 287.49 47.3693C285.992 46.5214 284.493 45.5898 282.996 44.6528C282.246 44.1844 281.497 43.6226 280.654 43.1542C280.748 43.1542 280.748 43.1542 280.748 43.0609Z" fill="white"/>
<path d="M242.445 51.5834C242.633 51.3025 242.633 51.0216 242.914 50.834L246.847 48.0243C247.481 47.5847 248.138 47.1783 248.814 46.8065C249.009 46.6929 249.196 46.568 249.376 46.4324C248.627 47.7434 243.85 51.3958 242.445 51.5834Z" fill="white"/>
<path d="M298.353 46.2448C298.165 46.2448 297.885 46.3381 297.697 46.2448C295.73 45.6831 293.764 45.1214 291.89 44.5586C291.702 44.4653 291.516 44.1844 291.328 43.9969C291.609 43.9036 291.89 43.716 292.077 43.8093C293.482 44.2777 294.887 44.6572 296.291 45.2136C297.041 45.4945 297.696 45.7753 298.445 46.0615C298.353 46.1516 298.353 46.1516 298.353 46.2448Z" fill="white"/>
<path d="M257.245 57.1079C257.245 56.9203 257.057 56.6395 257.152 56.4519C257.713 54.2982 257.713 52.1435 258.182 49.9866C258.269 49.5495 258.5 49.154 258.838 48.8632C259.306 51.7662 258.182 54.3883 257.62 57.1047L257.245 57.1079Z" fill="white"/>
<path d="M308.656 49.1486C306.128 48.3993 303.599 47.7443 300.977 46.995C301.084 46.7753 301.263 46.5994 301.485 46.497C301.707 46.3946 301.958 46.3721 302.194 46.4332C304.161 47.0893 306.222 47.8376 308.188 48.5869C308.376 48.6802 308.562 48.8678 308.75 48.961C308.74 49.0321 308.707 49.098 308.656 49.1486Z" fill="white"/>
<path d="M239.818 39.9701H234.2C233.451 39.9701 232.796 39.8768 232.047 39.8768C231.859 39.8768 231.766 39.6892 231.578 39.5959C231.766 39.5027 231.952 39.3151 232.047 39.3151C233.358 39.3151 234.763 39.3151 236.074 39.4083C236.979 39.4552 237.886 39.4552 238.791 39.4083C239.256 39.4073 239.631 39.5016 239.818 39.9701Z" fill="white"/>
<path d="M245.159 65.4464C245.159 65.1656 245.065 64.8847 245.159 64.6971C245.447 64.1621 245.793 63.6596 246.189 63.1984C247.037 61.9806 247.875 60.7607 248.811 59.4518C248.885 59.2847 249.018 59.1513 249.185 59.0776C249.278 58.9844 249.466 59.0776 249.559 58.9844C249.559 59.0776 249.653 59.2652 249.559 59.3585C249.438 59.6282 249.28 59.8803 249.091 60.1078C247.967 61.7941 246.843 63.386 245.719 65.0712C245.646 65.2383 245.512 65.3717 245.345 65.4454L245.159 65.4464Z" fill="white"/>
<path d="M223.431 46.1504C221.841 46.6189 220.252 47.1806 218.654 47.6491C217.998 47.8367 217.343 48.1175 216.687 48.3051C216.577 48.3359 216.462 48.3436 216.349 48.3275C216.237 48.3114 216.128 48.2721 216.031 48.2119C216.219 48.0243 216.312 47.7434 216.5 47.6501L220.995 46.2458C221.843 46.0582 222.681 45.9649 223.432 45.7773L223.431 46.1504Z" fill="white"/>
<path d="M242.164 48.2103C242.633 47.9294 243.194 47.5542 243.663 47.2734C244.974 46.524 246.192 45.869 247.503 45.213C247.596 45.1197 247.783 45.213 247.971 45.213C247.878 45.4006 247.878 45.5871 247.784 45.6814C246.847 46.3375 245.816 46.9925 244.881 47.6486C244.336 47.9372 243.773 48.1875 243.194 48.3979C242.919 48.4756 242.632 48.5071 242.346 48.4912C242.257 48.3989 242.257 48.3046 242.164 48.2103Z" fill="white"/>
<path d="M234.854 51.9574C234.179 52.2619 233.522 52.6058 232.887 52.9876C231.297 53.9245 229.707 54.9547 228.11 55.9849C227.787 56.2077 227.442 56.396 227.08 56.5466C226.892 56.6399 226.611 56.4534 226.424 56.359C226.494 56.166 226.625 56.0014 226.798 55.8906L233.263 52.2382C233.588 52.0438 233.933 51.8866 234.293 51.7698C234.48 51.7698 234.573 51.863 234.854 51.9574Z" fill="white"/>
<path d="M229.799 40.0592C229.338 40.1676 228.867 40.2304 228.394 40.2468C227.27 40.34 226.146 40.34 225.022 40.34C224.8 40.3554 224.576 40.3236 224.366 40.2468C224.179 40.1535 223.992 39.9659 223.805 39.8726C223.992 39.7794 224.086 39.5918 224.273 39.4985C225.022 39.03 225.863 39.4985 226.614 39.4985C227.462 39.4985 228.301 39.5918 229.237 39.6861C229.394 39.708 229.551 39.7391 229.705 39.7794C229.755 39.8652 229.787 39.9604 229.799 40.0592Z" fill="white"/>
<path d="M268.388 49.0544C269.168 50.677 269.674 52.4175 269.886 54.2054C269.325 54.393 269.137 54.0178 269.038 53.737C268.758 52.7068 268.477 51.6766 268.289 50.6464C268.196 50.1779 268.196 49.7094 268.102 49.242C268.2 49.1477 268.294 49.0544 268.388 49.0544Z" fill="white"/>
<path d="M248.346 52.0508C249.263 50.494 250.434 49.1012 251.81 47.9301C251.525 49.8029 249.283 52.7069 248.346 52.0508Z" fill="white"/>
<path d="M275.127 48.8667C275.975 48.7734 278.405 51.3955 278.967 52.9875C278.405 52.7066 277.749 52.6133 277.377 52.0505C276.721 51.0203 275.973 50.0834 275.317 49.1475C275.22 49.0532 275.22 48.9599 275.127 48.8667Z" fill="white"/>
<path d="M256.959 25.3595C256.866 25.2663 256.678 25.0787 256.678 24.9854C256.303 23.3956 255.929 21.7072 255.648 20.1153C255.603 20.0052 255.582 19.8868 255.587 19.7679C255.591 19.6491 255.621 19.5326 255.674 19.4263C255.727 19.3199 255.803 19.2261 255.895 19.1512C255.987 19.0763 256.095 19.0219 256.21 18.9918C256.584 21.1455 256.866 23.2059 257.24 25.2663C257.052 25.2652 257.052 25.3595 256.959 25.3595Z" fill="white"/>
<path d="M231.956 48.6801C231.675 48.8677 231.488 49.0542 231.394 49.0542C230.083 49.5227 228.772 50.0844 227.554 50.5529C227.367 50.6462 227.18 50.5529 227.086 50.5529C227.179 50.3653 227.179 50.1788 227.274 50.0844C228.443 49.1927 229.837 48.6424 231.301 48.4946C231.527 48.5248 231.748 48.5873 231.956 48.6801Z" fill="white"/>
<path d="M290.299 52.7068C288.988 52.6135 284.774 49.9903 284.586 49.0544C286.618 50.0595 288.534 51.2843 290.299 52.7068Z" fill="white"/>
<path d="M293.676 50.8328C292.27 50.0835 290.959 49.4285 289.555 48.6792C289.367 48.5859 289.274 48.305 289.181 48.1174C289.167 47.9856 289.2 47.8531 289.274 47.7433C289.326 47.6982 289.392 47.6733 289.461 47.6733C289.53 47.6733 289.596 47.6982 289.648 47.7433C290.959 48.5912 292.27 49.5228 293.581 50.4598C293.675 50.4598 293.675 50.553 293.675 50.6473C293.769 50.7396 293.769 50.8328 293.676 50.8328Z" fill="white"/>
<path d="M287.68 41.8426C286.743 42.2167 286.181 41.7493 285.432 41.4685C284.683 41.1876 284.028 41 283.278 40.7191C283.091 40.6259 282.998 40.345 282.904 40.1574C283.092 40.1574 283.373 39.9698 283.56 40.0641C284.778 40.4383 285.998 40.912 287.119 41.3752C287.305 41.4674 287.398 41.6561 287.68 41.8426Z" fill="white"/>
<path d="M278.219 45.2141C280.22 45.8958 282.044 47.0158 283.557 48.4923C283.276 48.4923 282.996 48.5856 282.808 48.4923C281.404 47.5554 279.998 46.6195 278.5 45.6826C278.406 45.5882 278.406 45.495 278.219 45.2141Z" fill="white"/>
<path d="M271.003 48.6804C271.284 49.1489 271.659 49.5283 271.94 49.9915C272.409 50.7574 272.786 51.5755 273.064 52.4292C273.157 52.6168 273.064 52.9909 273.064 53.1785C273.064 53.2718 272.69 53.3661 272.69 53.3661C272.409 52.992 271.842 52.6168 271.842 52.2427C271.76 51.2568 271.471 50.2994 270.994 49.4329C270.9 49.2453 270.806 48.9645 270.713 48.7769C270.751 48.7394 270.796 48.7112 270.847 48.6945C270.897 48.6778 270.951 48.6729 271.003 48.6804Z" fill="white"/>
<path d="M249.934 28.64C249.465 28.5467 249.086 28.4524 248.623 28.3591C247.499 27.985 246.375 27.6098 245.345 27.2356C245.07 27.1688 244.814 27.0409 244.595 26.8615C244.408 26.7682 244.408 26.4874 244.314 26.2054C246.375 26.9548 248.248 27.6098 250.122 28.2658C250.064 28.3103 250.018 28.367 249.985 28.4317C249.953 28.4964 249.935 28.5676 249.934 28.64Z" fill="white"/>
<path d="M285.522 32.6642C285.334 32.8517 285.147 33.1326 284.866 33.2259C283.929 33.6943 282.899 34.0738 281.868 34.5369C281.615 34.5944 281.35 34.5614 281.119 34.4437C281.212 34.2561 281.307 33.9752 281.493 33.8819C282.617 33.4135 283.741 32.945 284.771 32.4776C284.959 32.3843 285.146 32.4776 285.333 32.4776C285.522 32.5698 285.522 32.6642 285.522 32.6642Z" fill="white"/>
<path d="M246.374 29.9477C246.093 29.9477 245.813 30.0409 245.526 30.0409C244.589 29.9477 243.747 29.7601 242.811 29.6668C242.155 29.5735 241.874 29.1983 241.688 28.5433C243.277 29.0118 244.778 29.3912 246.37 29.8544L246.374 29.9477Z" fill="white"/>
<path d="M218.845 50.8341C218.795 50.9203 218.763 51.0159 218.751 51.115C217.44 51.6767 216.035 52.2384 214.724 52.7048C214.631 52.7981 214.35 52.6115 214.162 52.5172C214.255 52.3296 214.35 52.1431 214.443 52.1431C215.86 51.5533 217.335 51.1145 218.845 50.8341Z" fill="white"/>
<path d="M292.074 63.1017C291.606 62.6332 291.137 62.2538 290.67 61.7906C290.203 61.3274 289.64 60.8537 289.171 60.2919C289.078 60.1987 289.078 59.9178 289.078 59.6359C289.266 59.6359 289.547 59.6359 289.64 59.7291C290.488 60.6661 291.326 61.6963 292.169 62.6321C292.262 62.7254 292.169 62.8197 292.262 62.913C292.168 63.0084 292.074 63.0084 292.074 63.1017Z" fill="white"/>
<path d="M302.287 56.0782C303.41 56.9261 304.816 57.4826 305.565 58.7004C305.555 58.7714 305.522 58.8373 305.472 58.888C305.191 58.7947 304.91 58.888 304.722 58.7004C303.785 57.951 302.943 57.1106 302.006 56.2627C302.099 56.2658 302.193 56.1715 302.287 56.0782Z" fill="white"/>
<path d="M238.223 48.3989L235.695 49.8011C235.601 49.8944 235.32 49.7078 235.133 49.6135C235.226 49.4259 235.226 49.0518 235.414 48.9575C236.017 48.6829 236.644 48.4633 237.286 48.3014C237.562 48.2237 237.849 48.1922 238.134 48.2081C238.223 48.3046 238.223 48.3046 238.223 48.3989Z" fill="white"/>
<path d="M242.159 32.2902L244.126 32.8519C244.314 32.9452 244.407 33.1328 244.594 33.3204C244.407 33.3204 244.22 33.4136 243.939 33.4136C243.091 33.3204 242.35 33.1328 241.502 33.0395C241.317 33.0041 241.151 32.9046 241.033 32.7586C241.221 32.6654 241.314 32.4778 241.502 32.3845C241.783 32.2912 241.97 32.3845 242.158 32.2912L242.159 32.2902Z" fill="white"/>
<path d="M236.355 37.7221C236.599 37.6505 236.852 37.619 237.105 37.6288H240.757C240.945 37.6288 241.038 37.8164 241.226 37.9097C241.132 38.003 241.038 38.1906 240.945 38.1906C239.54 38.0973 238.042 38.003 236.636 37.8164C236.543 37.8164 236.543 37.8164 236.355 37.7221Z" fill="white"/>
<path d="M252.372 19.928C252.652 20.584 252.84 21.1458 253.121 21.7075C253.315 22.0321 253.473 22.3777 253.589 22.7377C253.683 22.831 253.683 23.1118 253.589 23.1118C253.449 23.1968 253.283 23.2298 253.121 23.2051C252.739 22.7609 252.471 22.2303 252.341 21.6593C252.21 21.0882 252.221 20.494 252.372 19.928Z" fill="white"/>
<path d="M236.168 32.4779C236.636 31.8219 238.884 31.8219 240.289 32.2903C240.008 32.4779 239.727 32.7588 239.539 32.6645C238.416 32.6645 237.291 32.5712 236.168 32.4779Z" fill="white"/>
<path d="M267.076 51.583C267.263 53.5501 267.356 55.5162 267.544 57.3901C267.544 57.4833 267.451 57.4833 267.356 57.5777C266.89 57.1081 266.701 53.831 267.076 51.583Z" fill="white"/>
<path d="M219.12 60.3864C218.759 61.0165 218.2 61.51 217.53 61.7908C217.343 61.884 217.062 61.6975 216.969 61.6032C216.875 61.3622 216.875 61.0948 216.969 60.8538C217.268 60.6174 217.618 60.4524 217.99 60.3714C218.363 60.2904 218.75 60.2955 219.12 60.3864Z" fill="white"/>
<path d="M219.216 54.2063C219.028 54.113 218.842 54.113 218.842 53.9254C218.842 53.8321 218.842 53.5513 218.935 53.4569C219.255 53.1466 219.599 52.863 219.965 52.609C220.153 52.5158 220.527 52.7023 220.813 52.7966C220.747 53.1016 220.62 53.39 220.439 53.6445C220.06 54.0176 219.591 54.0176 219.216 54.2063Z" fill="white"/>
<path d="M232.799 43.7159C232.892 43.8092 233.08 43.9035 233.173 43.9968L232.799 44.3709C232.237 44.5585 231.581 44.7451 231.019 44.9327C230.79 44.9142 230.567 44.8504 230.363 44.7451C230.551 44.5575 230.644 44.1833 230.832 44.1833C231.391 43.9968 232.047 43.9035 232.799 43.7159Z" fill="white"/>
<path d="M236.073 57.0124C235.89 56.995 235.721 56.9086 235.599 56.7709C235.478 56.6331 235.413 56.4542 235.418 56.2705C235.417 56.1588 235.438 56.0481 235.481 55.9447C235.523 55.8413 235.585 55.7474 235.664 55.6684C235.743 55.5894 235.837 55.527 235.94 55.4848C236.044 55.4426 236.155 55.4215 236.266 55.4226C236.367 55.4133 236.468 55.4263 236.564 55.4607C236.659 55.495 236.745 55.5499 236.817 55.6215C236.888 55.693 236.943 55.7794 236.977 55.8745C237.012 55.9697 237.025 56.0712 237.016 56.1719C237.013 56.2903 236.986 56.4067 236.936 56.5142C236.886 56.6216 236.815 56.7177 236.727 56.7964C236.638 56.8752 236.535 56.935 236.422 56.9722C236.31 57.0093 236.191 57.023 236.073 57.0124Z" fill="white"/>
<path d="M296.948 61.229C297.406 61.6113 297.844 62.0178 298.259 62.4468C298.353 62.6876 298.353 62.9553 298.259 63.1961C298.156 63.243 298.044 63.2673 297.931 63.2673C297.818 63.2673 297.706 63.243 297.603 63.1961C297.296 62.9829 297.066 62.6761 296.948 62.3215C296.83 61.9669 296.83 61.5837 296.948 61.229Z" fill="white"/>
<path d="M231.955 33.4139C233.415 33.1705 234.915 33.366 236.263 33.9756C234.858 34.2576 233.454 33.6948 231.955 33.4139Z" fill="white"/>
<path d="M237.948 34.0695H241.507C241.6 34.0695 241.788 34.2571 241.881 34.3503C241.788 34.4436 241.693 34.6312 241.507 34.6312H240.659C239.909 34.5379 239.069 34.4436 238.317 34.3503C238.211 34.2347 238.084 34.1396 237.943 34.0695H237.948Z" fill="white"/>
<path d="M243.661 62.6345C243.499 63.1862 243.279 63.7192 243.005 64.2243C242.912 64.4119 242.536 64.4119 242.256 64.4119C242.138 64.1807 242.105 63.9156 242.162 63.6626C242.261 63.3479 242.462 63.0755 242.734 62.889C243.005 62.7025 243.332 62.6129 243.661 62.6345Z" fill="white"/>
<path d="M253.309 60.0111C253.309 60.859 252.935 61.6009 252.56 61.5098C252.435 61.4459 252.327 61.353 252.246 61.2389C252.164 61.1247 252.111 60.9926 252.092 60.8537C252.072 60.724 252.078 60.5916 252.11 60.4644C252.142 60.3371 252.199 60.2176 252.278 60.1128C252.357 60.0081 252.456 59.9202 252.57 59.8545C252.684 59.7888 252.809 59.7465 252.939 59.7302C253.028 59.7302 253.216 59.9178 253.309 60.0111Z" fill="white"/>
<path d="M304.633 64.4141C305.101 64.6949 305.663 64.9758 306.131 65.262C306.226 65.3379 306.288 65.448 306.304 65.5688C306.319 65.6896 306.287 65.8117 306.214 65.9092C306.141 66.0066 306.033 66.0718 305.912 66.0909C305.792 66.1099 305.669 66.0814 305.569 66.0113C305.289 65.8637 305.049 65.6502 304.869 65.3891C304.69 65.128 304.577 64.8272 304.539 64.5126C304.538 64.4999 304.54 64.4871 304.544 64.4751C304.549 64.4631 304.556 64.4522 304.564 64.4429C304.573 64.4336 304.584 64.4263 304.595 64.4213C304.607 64.4164 304.62 64.4139 304.633 64.4141Z" fill="white"/>
<path d="M297.508 41.468C297.04 41.3747 296.661 41.3747 296.291 41.2804L294.886 40.9995C294.793 40.9995 294.605 40.7186 294.605 40.6254C294.699 40.4378 294.886 40.2512 294.98 40.2512C295.741 40.4265 296.491 40.6456 297.228 40.9073C297.322 40.9995 297.322 41.1871 297.508 41.468Z" fill="white"/>
<path d="M216.592 58.7012C217.486 57.8169 218.63 57.2284 219.87 57.0149C219.88 57.086 219.912 57.1519 219.963 57.2025C218.933 57.7642 217.81 58.4203 216.784 58.982C216.685 58.8877 216.592 58.7944 216.592 58.7012Z" fill="white"/>
<path d="M266.98 18.8035C266.792 19.5528 266.512 20.3933 266.324 21.1447C266.324 21.238 266.043 21.3323 265.856 21.3323C265.768 21.1872 265.705 21.0291 265.668 20.8639C265.924 20.1225 266.237 19.4024 266.606 18.7102C266.699 18.7102 266.887 18.8035 266.98 18.8035Z" fill="white"/>
<path d="M282.621 53.8277C281.965 53.921 280.842 53.266 280.842 52.7975C280.846 52.5957 280.912 52.3999 281.029 52.2358C281.283 52.2205 281.537 52.2521 281.779 52.3291C281.987 52.8662 282.271 53.3708 282.621 53.8277Z" fill="white"/>
<path d="M281.03 50.1783C279.956 49.4652 278.981 48.615 278.127 47.6494C279.157 47.7427 281.03 49.3357 281.03 50.1783Z" fill="white"/>
<path d="M249.277 26.0147C249.465 26.0147 249.651 25.9214 249.839 25.9214C250.26 26.0363 250.668 26.1933 251.057 26.3899C251.244 26.4831 251.338 26.764 251.431 26.8583C251.243 26.9516 250.963 27.1392 250.869 27.0459C250.308 26.765 249.839 26.4842 249.279 26.198C249.277 26.109 249.277 26.109 249.277 26.0147Z" fill="white"/>
<path d="M250.402 54.6727C250.402 55.3287 250.028 55.8905 249.554 55.7961C249.303 55.686 249.103 55.4855 248.993 55.2344C248.899 54.8603 249.461 54.2975 249.841 54.2975C250.055 54.3763 250.248 54.5049 250.402 54.6727Z" fill="white"/>
<path d="M240.566 57.4864C240.337 57.905 240.087 58.3114 239.816 58.7042C239.723 58.7975 239.255 58.8918 239.16 58.7975C239.087 58.7058 239.033 58.6007 239.001 58.4881C238.969 58.3755 238.959 58.2577 238.973 58.1414C239.163 57.5776 239.725 57.39 240.566 57.4864Z" fill="white"/>
<path d="M293.484 37.7218C292.93 37.8609 292.366 37.9548 291.797 38.0027C291.742 38.0088 291.685 38.0039 291.632 37.9883C291.578 37.9726 291.528 37.9465 291.484 37.9115C291.44 37.8765 291.404 37.8331 291.377 37.7841C291.35 37.735 291.333 37.681 291.327 37.6254C291.321 37.5697 291.326 37.5134 291.341 37.4596C291.357 37.4058 291.383 37.3556 291.418 37.3119C291.453 37.2682 291.496 37.2319 291.545 37.2049C291.595 37.1779 291.648 37.1609 291.704 37.1548C292.266 37.1548 292.828 37.3424 293.39 37.3424C293.484 37.441 293.484 37.5342 293.484 37.7218Z" fill="white"/>
<path d="M240.385 35.9427H241.322C241.415 35.9427 241.602 36.2236 241.602 36.3169C241.575 36.3957 241.525 36.4645 241.458 36.5146C241.392 36.5647 241.312 36.5936 241.228 36.5977C240.662 36.5816 240.098 36.5188 239.542 36.4101C239.449 36.4101 239.355 36.1293 239.168 36.036C239.271 35.9373 239.401 35.8719 239.542 35.8484C239.916 35.8484 240.104 35.9417 240.39 35.9417L240.385 35.9427Z" fill="white"/>
<path d="M264.821 56.4526C264.96 56.7452 265.032 57.0651 265.032 57.389C265.032 57.7129 264.96 58.0328 264.821 58.3254C264.71 58.4981 264.545 58.6296 264.352 58.6995C264.259 58.5119 263.978 58.3254 264.071 58.1378C264.184 57.5645 264.341 57.0007 264.54 56.4515C264.732 56.3561 264.732 56.3561 264.821 56.4526Z" fill="white"/>
<path d="M297.605 41.3748C298.139 41.3132 298.68 41.3933 299.174 41.6071C299.667 41.8208 300.095 42.1607 300.415 42.5926C299.419 42.3418 298.47 41.9305 297.605 41.3748Z" fill="white"/>
<path d="M292.27 46.7129C292.912 46.9875 293.538 47.3003 294.143 47.6498C294.26 47.8139 294.326 48.0097 294.33 48.2116C294.143 48.2116 293.862 48.3048 293.768 48.2116C293.2 47.8586 292.667 47.4508 292.179 46.9938C292.172 46.9431 292.177 46.8916 292.193 46.8431C292.208 46.7945 292.235 46.75 292.27 46.7129Z" fill="white"/>
<path d="M269.884 22.6433C269.603 23.2993 269.415 23.8611 269.135 24.5161C268.992 24.6302 268.834 24.7247 268.666 24.797C268.573 24.6094 268.385 24.3285 268.478 24.2352C268.853 23.6735 269.228 23.1118 269.602 22.4557C269.697 22.549 269.791 22.6433 269.884 22.6433Z" fill="white"/>
<path d="M303.879 70.782C304.274 70.9989 304.65 71.2496 305.002 71.5313C305.096 71.6246 305.096 71.9998 305.096 72.1874C304.908 72.1874 304.534 72.2806 304.441 72.1874C304.169 71.8277 303.919 71.4525 303.691 71.0639C303.785 70.9696 303.879 70.8753 303.879 70.782Z" fill="white"/>
<path d="M223.527 55.2355C223.621 54.6738 224.932 53.9244 226.056 53.9244C225.307 54.3929 224.466 54.8614 223.715 55.4231C223.621 55.3288 223.527 55.3288 223.527 55.2355Z" fill="white"/>
<path d="M301.542 49.8981C301.073 49.7105 300.512 49.524 300.043 49.3364C299.95 49.2431 299.95 49.0555 299.855 48.8679C300.043 48.7747 300.324 48.5871 300.512 48.6803C300.933 48.9408 301.339 49.2238 301.729 49.5282C301.635 49.7105 301.635 49.8038 301.542 49.8981Z" fill="white"/>
<path d="M250.503 63.1016C250.222 63.6633 250.034 64.1318 249.753 64.6002C249.65 64.6989 249.52 64.7643 249.379 64.7878C249.286 64.7878 249.192 64.6002 249.192 64.507C249.098 64.0385 249.848 63.2892 250.503 63.1016Z" fill="white"/>
<path d="M231.766 55.7039C231.956 55.9219 232.177 56.1111 232.422 56.2656C232.163 56.5413 231.879 56.7921 231.574 57.0149C231.374 56.9091 231.211 56.746 231.105 56.5465C231.203 56.2656 231.484 56.078 231.766 55.7039Z" fill="white"/>
<path d="M261.267 49.2416C261.239 50.2731 261.016 51.29 260.611 52.2389C260.501 51.7214 260.502 51.1863 260.615 50.6693C260.728 50.1524 260.951 49.6656 261.267 49.2416Z" fill="white"/>
<path d="M276.533 47.368C276.244 47.0327 275.931 46.7195 275.596 46.4311V46.2435C275.71 46.1617 275.836 46.0984 275.97 46.0559C276.335 46.2745 276.68 46.5253 277 46.8052C276.958 46.939 276.894 47.0653 276.812 47.1794C276.814 47.2748 276.719 47.2748 276.533 47.368Z" fill="white"/>
<path d="M291.424 55.2347C291.037 55.1525 290.66 55.027 290.3 54.8606C290.113 54.7673 290.113 54.4865 290.02 54.2989C290.207 54.2056 290.581 54.018 290.676 54.1113C291.009 54.3701 291.322 54.6535 291.613 54.9592C291.518 55.0471 291.424 55.1415 291.424 55.2347Z" fill="white"/>
<path d="M235.602 43.435C235.894 43.0615 236.289 42.782 236.739 42.6313C237.188 42.4806 237.672 42.4652 238.13 42.5871C237.288 42.8732 236.538 43.1541 235.602 43.435Z" fill="white"/>
<path d="M223.434 57.4836C223.591 57.6721 223.782 57.8307 223.995 57.9521C223.706 58.23 223.393 58.4808 223.058 58.7014C222.965 58.7014 222.777 58.4206 222.59 58.3273L223.434 57.4836Z" fill="white"/>
<path d="M213.412 49.8973C213.1 50.161 212.753 50.3817 212.382 50.5534C212.289 50.6466 211.914 50.4601 211.914 50.3658C211.82 50.2725 211.914 49.8973 212.007 49.804C212.225 49.6822 212.474 49.6262 212.723 49.6427C212.973 49.6593 213.212 49.7477 213.412 49.8973Z" fill="white"/>
<path d="M309.877 52.8026C310.146 52.7494 310.424 52.7644 310.686 52.8462C310.948 52.928 311.185 53.0741 311.376 53.2711C311.45 53.3809 311.483 53.5134 311.469 53.6452C311.366 53.7439 311.235 53.8093 311.095 53.8328C310.815 53.7933 310.553 53.6756 310.337 53.4933C310.122 53.311 309.962 53.0716 309.877 52.8026Z" fill="white"/>
<path d="M237.666 50.8336C237.573 50.7403 237.479 50.646 237.479 50.5527C237.479 50.1786 238.228 49.6158 238.509 49.7048C238.575 49.7252 238.635 49.7614 238.684 49.8103C238.733 49.8593 238.769 49.9195 238.79 49.9857C238.79 50.079 238.79 50.3598 238.696 50.4542C238.339 50.5388 237.993 50.6662 237.666 50.8336Z" fill="white"/>
<path d="M274.194 49.9002C273.823 49.5178 273.479 49.111 273.164 48.6824C273.07 48.5891 273.164 48.3083 273.257 48.3083C273.335 48.2733 273.422 48.2634 273.506 48.2802C273.59 48.2969 273.667 48.3393 273.725 48.4015C273.942 48.585 274.113 48.8153 274.227 49.075C274.34 49.3347 274.393 49.6169 274.381 49.9002C274.288 49.8038 274.288 49.8038 274.194 49.9002Z" fill="white"/>
<path d="M246.186 51.957C245.672 52.6899 244.999 53.298 244.219 53.7366C244.627 52.9167 245.329 52.2811 246.186 51.957Z" fill="white"/>
<path d="M283.183 35.5673L283.839 36.2233C283.652 36.4109 283.465 36.6918 283.278 36.5975C282.997 36.5975 282.716 36.3166 282.43 36.2233C282.622 36.0357 282.902 35.8481 283.183 35.5673Z" fill="white"/>
<path d="M237.292 53.3627C236.823 53.7368 236.355 54.0188 235.887 54.3929C235.794 54.4862 235.607 54.3929 235.513 54.2996C235.42 54.2063 235.513 54.0187 235.607 53.9255C236.042 53.5111 236.6 53.2483 237.196 53.1761C237.207 53.2471 237.24 53.3127 237.292 53.3627Z" fill="white"/>
<path d="M301.447 61.6978L302.571 62.2595C302.673 62.3968 302.738 62.5582 302.758 62.728C302.63 62.8453 302.464 62.912 302.29 62.9156C302.153 62.8956 302.021 62.8476 301.902 62.7744C301.784 62.7012 301.683 62.6045 301.603 62.4902C301.524 62.3759 301.47 62.2466 301.443 62.1102C301.416 61.9739 301.418 61.8335 301.447 61.6978Z" fill="white"/>
<path d="M256.679 59.263C256.42 59.5961 256.137 59.9093 255.831 60.1999C255.738 60.0124 255.457 59.8258 255.457 59.7315C255.645 59.4506 255.925 59.1698 256.206 58.7946C256.398 58.8878 256.491 59.0754 256.679 59.263Z" fill="white"/>
<path d="M252.371 55.9847C252.09 56.3589 251.809 56.6408 251.621 56.9217C251.434 56.7341 251.153 56.5475 251.247 56.4532C251.442 56.1836 251.662 55.9327 251.903 55.7039C252.064 55.7887 252.22 55.8825 252.371 55.9847Z" fill="white"/>
<path d="M305.567 61.8839C305.116 61.8155 304.675 61.6897 304.256 61.5098C304.163 61.4165 304.163 61.1357 304.068 60.9481C304.256 60.9481 304.442 60.8548 304.63 60.9481C304.995 61.1667 305.34 61.4175 305.66 61.6974C305.61 61.7478 305.577 61.8133 305.567 61.8839Z" fill="white"/>
<path d="M287.772 35.4738C287.491 35.8479 286.46 36.2231 286.182 36.0355C286.083 35.9325 286.018 35.8021 285.994 35.6614C286.112 35.5154 286.278 35.4159 286.463 35.3805C286.84 35.3805 287.21 35.4738 287.772 35.4738Z" fill="white"/>
<path d="M242.817 55.3285C242.536 55.7027 242.255 55.9846 241.969 56.3587C241.876 56.452 241.688 56.3587 241.5 56.452C241.5 56.2644 241.407 56.0778 241.5 55.9835C241.824 55.6782 242.169 55.3949 242.531 55.1356C242.629 55.1409 242.724 55.2342 242.817 55.3285Z" fill="white"/>
<path d="M262.016 19.8335C262.124 20.199 262.187 20.5763 262.203 20.957C262.203 21.0502 262.016 21.1446 261.829 21.3311C261.736 21.2378 261.455 21.0502 261.455 20.957C261.455 20.5828 261.643 20.2076 261.643 19.8335H262.016Z" fill="white"/>
<path d="M294.139 57.5767C293.719 57.4618 293.311 57.3048 292.921 57.1082C292.807 56.9653 292.713 56.8078 292.641 56.6398C292.798 56.6179 292.955 56.5868 293.109 56.5465C293.504 56.7634 293.88 57.0141 294.233 57.2958C294.23 57.3944 294.139 57.4834 294.139 57.5767Z" fill="white"/>
<path d="M283.465 46.5258C283.092 46.4783 282.734 46.3544 282.411 46.1618C282.089 45.9692 281.81 45.712 281.592 45.4065C281.966 45.2147 282.996 45.7764 283.465 46.5258Z" fill="white"/>
<path d="M240.475 41.473C240.943 40.817 241.692 40.817 242.347 40.6251C242.147 40.9291 241.865 41.1701 241.534 41.3202C241.202 41.4703 240.835 41.5233 240.475 41.473Z" fill="white"/>
<path d="M297.607 52.894C298.097 53.1735 298.566 53.4866 299.013 53.831C299.106 53.9242 299.013 54.1118 299.106 54.2994H298.732L297.608 53.176C297.511 52.9873 297.511 52.9873 297.607 52.894Z" fill="white"/>
<path d="M273.628 25.3596C273.667 25.6839 273.601 26.012 273.441 26.2965C273.298 26.4107 273.14 26.5051 272.972 26.5774C272.879 26.3898 272.691 26.2033 272.691 26.1089C272.879 25.7338 273.066 25.3596 273.628 25.3596Z" fill="white"/>
<path d="M307.815 63.1017C307.561 63.1775 307.29 63.1732 307.038 63.0893C306.787 63.0055 306.567 62.8463 306.409 62.6332C306.395 62.5014 306.428 62.3689 306.503 62.2591C306.596 62.1658 306.783 62.2591 306.877 62.2591C307.168 62.563 307.482 62.8446 307.815 63.1017Z" fill="white"/>
<path d="M240.475 53.456C240.25 53.7007 239.998 53.9206 239.726 54.1121C239.633 54.2054 239.352 54.1121 239.352 54.1121C239.306 54.0427 239.281 53.9612 239.281 53.8779C239.281 53.7946 239.306 53.7131 239.352 53.6436C239.667 53.432 240.015 53.2738 240.382 53.1752C240.381 53.2684 240.475 53.3628 240.475 53.456Z" fill="white"/>
<path d="M227.644 45.4954C227.287 45.691 226.911 45.848 226.521 45.9638C226.427 45.9638 226.24 45.8706 226.146 45.8706C226.24 45.7773 226.24 45.4964 226.334 45.4964C226.708 45.4032 227.182 45.3088 227.552 45.2156C227.546 45.2661 227.551 45.3175 227.567 45.3658C227.583 45.4142 227.609 45.4585 227.644 45.4954Z" fill="white"/>
<path d="M291.148 35.3795C290.991 35.5933 290.772 35.7532 290.52 35.8371C290.269 35.921 289.997 35.9248 289.744 35.848C289.65 35.7547 289.556 35.6604 289.65 35.5671L289.931 35.2863H290.212C290.397 35.2863 290.774 35.3795 291.148 35.3795Z" fill="white"/>
<path d="M281.03 31.4466C280.656 31.8208 280.374 32.196 280.093 32.4768C280 32.5701 279.812 32.5701 279.812 32.4768C279.751 32.396 279.718 32.2973 279.719 32.196C279.822 31.9423 280.007 31.7307 280.245 31.5948C280.483 31.4589 280.759 31.4068 281.03 31.4466Z" fill="white"/>
<path d="M245.344 44.5591C244.875 44.84 244.496 45.1209 244.033 45.407H243.754C243.754 45.3138 243.754 45.1262 243.847 45.1262C244.316 44.8453 244.784 44.6577 245.252 44.3768C245.253 44.4648 245.253 44.4648 245.344 44.5591Z" fill="white"/>
<path d="M287.494 31.9153C287.234 32.1347 286.95 32.3232 286.646 32.477C286.553 32.5703 286.365 32.3837 286.178 32.2894C286.271 32.1018 286.271 31.9153 286.459 31.9153C286.739 31.822 287.115 31.822 287.396 31.7277C287.448 31.7775 287.483 31.8435 287.494 31.9153Z" fill="white"/>
<path d="M255.465 17.1182C255.602 17.4484 255.696 17.7945 255.746 18.1484C255.746 18.2417 255.558 18.4293 255.558 18.5226C255.465 18.4293 255.277 18.335 255.277 18.2417C255.204 17.9034 255.172 17.5574 255.184 17.2115C255.221 17.176 255.265 17.1493 255.314 17.1332C255.362 17.117 255.414 17.1119 255.465 17.1182Z" fill="white"/>
<path d="M234.014 37.9097C233.453 37.8165 232.891 37.8165 232.328 37.7222C233.077 37.1604 233.732 37.1604 234.014 37.9097Z" fill="white"/>
<path d="M254.431 25.2664C254.145 25.1337 253.89 24.9423 253.682 24.7046C253.589 24.6113 253.682 24.4238 253.682 24.2362C253.87 24.2362 254.056 24.1429 254.151 24.2362C254.36 24.4685 254.548 24.7193 254.712 24.9855C254.62 25.1727 254.526 25.2664 254.431 25.2664Z" fill="white"/>
<path d="M265.482 53.1741C264.92 52.8 265.014 52.3262 265.67 51.7698C265.653 52.2429 265.591 52.7133 265.482 53.1741Z" fill="white"/>
<path d="M293.016 42.2168C292.879 42.3524 292.694 42.4285 292.501 42.4285C292.308 42.4285 292.123 42.3524 291.986 42.2168C291.893 42.1235 291.986 41.8426 292.079 41.8426C292.454 41.5618 292.733 41.8426 293.016 42.2168Z" fill="white"/>
<path d="M242.344 45.9639C242.052 46.157 241.737 46.3143 241.407 46.4323C241.314 46.4323 241.126 46.3391 241.033 46.3391C241.039 46.2094 241.071 46.0821 241.126 45.9649C241.492 45.8571 241.869 45.7941 242.25 45.7773C242.251 45.8696 242.251 45.9639 242.344 45.9639Z" fill="white"/>
<path d="M262.111 16.3677V17.4912C262.111 17.5844 261.923 17.6787 261.83 17.6787C261.737 17.5855 261.549 17.4911 261.643 17.3979C261.659 17.0172 261.722 16.6399 261.83 16.2744C261.867 16.3099 261.911 16.3367 261.96 16.3529C262.009 16.369 262.06 16.3741 262.111 16.3677Z" fill="white"/>
<path d="M224.462 48.961C223.806 49.2419 223.244 49.5227 222.589 49.8089C222.589 49.7156 222.496 49.6213 222.496 49.528C223.152 49.2472 223.714 49.0596 224.369 48.7787C224.419 48.8279 224.451 48.8918 224.462 48.961Z" fill="white"/>
<path d="M255.182 54.8604C255.182 55.1413 255.089 55.4221 255.089 55.7973C255.089 55.8906 254.901 55.9849 254.715 56.0782C254.628 55.9331 254.564 55.7749 254.527 55.6097C254.621 55.3289 254.808 55.048 254.901 54.7618C254.953 54.7562 255.005 54.7621 255.053 54.7792C255.102 54.7963 255.146 54.824 255.182 54.8604Z" fill="white"/>
<path d="M224.364 51.9615C224.177 52.5232 223.896 52.8984 223.146 52.4299C223.263 52.2224 223.449 52.0621 223.671 51.9766C223.893 51.8911 224.138 51.8857 224.364 51.9615Z" fill="white"/>
<path d="M295.452 51.3959C295.732 51.5835 296.108 51.6767 296.389 51.8643C296.463 51.9742 296.496 52.1067 296.482 52.2385C296.389 52.2385 296.201 52.3317 296.108 52.3317C295.802 52.109 295.518 51.8581 295.26 51.5824L295.452 51.3959Z" fill="white"/>
<path d="M225.495 43.5283C224.933 43.6215 224.371 43.6215 223.809 43.7158V43.435C224.277 43.0608 224.932 43.3417 225.495 43.2474C225.398 43.3417 225.495 43.435 225.495 43.5283Z" fill="white"/>
<path d="M271.099 20.0213C270.912 20.4898 270.818 20.9583 270.631 21.4257C270.257 20.8639 270.35 20.4887 270.912 19.927C271.006 19.9281 271.006 19.9281 271.099 20.0213Z" fill="white"/>
<path d="M260.333 54.4866C260.24 54.955 260.146 55.5168 259.959 56.1728C259.678 55.3345 259.767 54.7674 260.333 54.4866Z" fill="white"/>
<path d="M220.901 43.8102C220.527 43.9034 220.054 43.9034 219.684 43.9978C219.59 43.9978 219.496 43.8102 219.496 43.8102C219.589 43.7169 219.684 43.6226 219.777 43.6226H220.9C220.808 43.6226 220.808 43.7158 220.901 43.8102Z" fill="white"/>
<path d="M275.13 23.3925C274.849 23.7666 274.568 24.1418 274.193 24.6103C274.005 23.9542 274.193 23.6733 274.942 23.2059C275.036 23.2981 275.13 23.2981 275.13 23.3925Z" fill="white"/>
<path d="M295.736 43.0609C296.298 43.1542 296.86 43.3418 297.423 43.435V43.6226L295.736 43.3418V43.0609Z" fill="white"/>
<path d="M246.564 24.4226C246.986 24.6199 247.425 24.7768 247.876 24.8911C247.412 25.3595 246.939 25.2705 246.564 24.4226Z" fill="white"/>
<path d="M293.859 63.9458C294.234 64.2267 294.516 64.5075 294.89 64.7937C294.796 64.887 294.796 64.9813 294.702 64.9813C294.328 64.7004 294.046 64.4196 293.672 64.1334L293.859 63.9458Z" fill="white"/>
<path d="M302.471 44.7454C301.91 44.6522 301.441 44.5579 300.882 44.4646C300.875 44.4138 300.88 44.3622 300.896 44.3136C300.913 44.265 300.939 44.2207 300.975 44.1837C301.514 44.264 302.046 44.3891 302.565 44.5579C302.558 44.6298 302.525 44.6967 302.471 44.7454Z" fill="white"/>
<path d="M288.614 44.4648C289.082 44.5581 289.462 44.6524 289.644 45.0266C289.551 45.1198 289.551 45.2142 289.456 45.3074C289.176 45.1198 288.8 44.839 288.52 44.6514C288.521 44.5581 288.521 44.4648 288.614 44.4648Z" fill="white"/>
<path d="M234.671 32.1961H233.921C233.828 32.1961 233.734 32.0085 233.641 31.9153C233.744 31.8166 233.874 31.7512 234.015 31.7277C234.24 31.804 234.46 31.8979 234.671 32.0085C234.764 32.1018 234.671 32.1018 234.671 32.1961Z" fill="white"/>
<path d="M214.533 55.422L215.381 55.1411C215.427 55.2292 215.458 55.324 215.474 55.422C215.216 55.5277 214.965 55.6527 214.725 55.7961C214.626 55.7028 214.626 55.6096 214.533 55.422Z" fill="white"/>
<path d="M246.564 59.3561C246.376 59.5437 246.283 59.7302 246.095 59.9178C246.002 59.8245 245.814 59.6369 245.814 59.5437C246.002 59.3561 246.189 59.2628 246.283 59.0752L246.564 59.3561Z" fill="white"/>
<path d="M284.308 29.4802C283.932 29.6678 283.652 29.9487 283.277 30.1363C283.184 30.043 283.184 29.9487 283.09 29.8554C283.464 29.6678 283.746 29.3869 284.12 29.1993C284.213 29.2926 284.308 29.3869 284.308 29.4802Z" fill="white"/>
<path d="M238.788 30.0423C238.508 29.949 238.132 29.949 237.852 29.8547V29.5739C238.171 29.591 238.487 29.6542 238.788 29.7615C238.81 29.7779 238.828 29.7991 238.84 29.8234C238.852 29.8478 238.858 29.8747 238.858 29.9019C238.858 29.9291 238.852 29.956 238.84 29.9803C238.828 30.0047 238.81 30.0259 238.788 30.0423Z" fill="white"/>
<path d="M284.964 56.177C284.665 55.9692 284.352 55.7815 284.027 55.6152C284.121 55.5219 284.121 55.4276 284.215 55.3344C284.511 55.5748 284.824 55.7941 285.152 55.9904C285.058 56.0784 285.058 56.177 284.964 56.177Z" fill="white"/>
<path d="M305.189 51.3025C304.908 51.2092 304.72 51.2092 304.44 51.1149C304.346 51.1149 304.346 50.9273 304.252 50.7407C304.345 50.7407 304.533 50.6475 304.626 50.6475C304.814 50.7407 305 50.9283 305.188 51.0216C305.282 51.2081 305.189 51.3025 305.189 51.3025Z" fill="white"/>
<path d="M262.295 48.1184C259.411 48.0042 256.69 46.7492 254.732 44.6293C252.682 42.5321 251.531 39.7185 251.523 36.7863C251.549 34.2066 252.476 31.7171 254.143 29.7487C254.918 28.7735 255.899 27.9812 257.015 27.4282C258.131 26.8751 259.355 26.5749 260.6 26.5489C260.821 26.5489 261.044 26.5585 261.265 26.5776C261.553 26.5489 261.847 26.5352 262.138 26.5352C263.563 26.5633 264.969 26.8749 266.272 27.4517C267.576 28.0285 268.752 28.8591 269.731 29.895C270.762 30.9349 271.573 32.1726 272.114 33.5337C272.655 34.8948 272.915 36.3512 272.879 37.8154C272.859 39.1785 272.571 40.5245 272.031 41.7761C271.491 43.0277 270.709 44.1605 269.73 45.1095C267.743 47.0492 265.072 48.13 262.295 48.1184ZM260.794 28.4164C259.77 28.4385 258.763 28.6854 257.844 29.1396C256.926 29.5938 256.118 30.2442 255.479 31.0449C254.093 32.6751 253.323 34.74 253.304 36.8795C253.337 39.2985 254.281 41.6162 255.947 43.3697C257.614 45.1233 259.881 46.1836 262.295 46.3389H262.467C264.731 46.3409 266.903 45.4448 268.508 43.8471C270.128 42.2533 271.057 40.0875 271.097 37.8154C271.135 36.5985 270.925 35.3865 270.481 34.253C270.037 33.1195 269.367 32.0879 268.512 31.2209C267.697 30.3547 266.717 29.6603 265.63 29.1783C264.542 28.6963 263.37 28.4366 262.18 28.4143C261.937 28.4143 261.691 28.426 261.45 28.4493C261.232 28.4271 261.013 28.4161 260.794 28.4164Z" fill="white"/>
<path d="M261.642 30.514C262.602 30.4667 263.562 30.6163 264.462 30.9536C265.363 31.2909 266.185 31.8088 266.878 32.4755C267.571 33.1422 268.12 33.9435 268.492 34.8303C268.864 35.7171 269.051 36.6705 269.041 37.6321C268.993 39.3881 268.261 41.0561 267.001 42.2804C265.741 43.5048 264.053 44.1887 262.297 44.1863C258.644 44.1863 255.459 40.7216 255.459 36.9792C255.366 33.6003 258.176 30.2289 261.642 30.514Z" fill="white"/>
</svg>
