<svg width="117" height="84" viewBox="0 0 117 84" fill="none" xmlns="http://www.w3.org/2000/svg">
<g clip-path="url(#clip0_2591_2948)">
<path d="M116.242 21.9017C118.689 7.56796 109.305 0.443359 92.7713 0.443359H77.8975L77.8337 0.845043L74.2801 20.9504H82.9193C87.6006 20.9504 89.4944 22.8108 88.7922 26.8911C88.09 30.8656 85.5153 32.5992 80.8127 32.5992H72.2373L69.0668 50.5482H79.387C84.0896 50.5482 85.9621 52.5354 85.2599 56.4889C84.5577 60.5691 82.0894 62.197 77.4081 62.197H66.3431C64.3004 68.3702 60.5766 73.8881 55.5973 78.1164C53.1928 80.1036 50.533 81.7315 47.6816 82.9577H79.3019C97.3676 82.9577 108.752 74.7972 111.22 60.3366C112.986 51.119 108.752 43.0853 98.8996 40.6329C107.943 38.4131 114.795 31.0348 116.242 21.8806V21.9017Z" fill="white"/>
<path d="M48.2345 0.443359H47.362L37.9781 53.7193C37.8504 54.3324 37.7015 54.9455 37.5312 55.5586C37.4036 55.9815 37.2759 56.362 37.1269 56.7003C36.978 57.0385 36.829 57.3556 36.6588 57.6728C36.5524 57.863 36.4247 58.0533 36.3184 58.2224C36.2545 58.307 36.1907 58.3916 36.1481 58.4761C35.9779 58.7087 35.7864 58.9201 35.5736 59.1315C35.5098 59.1949 35.4459 59.2584 35.3608 59.3218C35.1693 59.4909 34.9565 59.6389 34.7224 59.7869C34.5735 59.8715 34.4245 59.956 34.2756 60.0194C33.6585 60.2943 32.9989 60.4634 32.3179 60.4846C32.1477 60.4846 31.9775 60.4846 31.8073 60.4846C28.4027 60.4846 26.062 57.7785 27.3387 50.5482H1.5914C-2.28133 72.2391 9.33688 83.7822 28.8069 83.7822C29.0836 83.7822 29.3815 83.7822 29.6581 83.7822C30.2326 83.7822 30.7859 83.7611 31.3391 83.7188C32.4456 83.6554 33.5521 83.5708 34.6161 83.4228C35.148 83.3594 35.68 83.2748 36.212 83.1903C36.6163 83.1268 37.0418 83.0423 37.4461 82.9577L37.7653 82.8943C38.0207 82.8309 38.276 82.7886 38.5313 82.7252C39.042 82.5983 39.5314 82.4926 40.0421 82.3446C40.2975 82.2812 40.5315 82.1966 40.7869 82.1332C41.2763 81.9852 41.7657 81.8372 42.2339 81.6681C42.702 81.499 43.1914 81.3298 43.6382 81.1396C44.1064 80.9493 44.5532 80.759 45.0214 80.5476C45.9151 80.1459 46.8088 79.6808 47.6599 79.1946C47.8727 79.0677 48.0855 78.9409 48.2983 78.814C49.1282 78.3066 49.9368 77.757 50.7241 77.1861C50.9156 77.0382 51.1071 76.8902 51.2986 76.7422C51.6816 76.4462 52.0646 76.1291 52.4264 75.812C52.7881 75.4949 53.1499 75.1566 53.5116 74.8183C53.8733 74.4801 54.2138 74.1207 54.5543 73.7613C55.2352 73.0425 55.8948 72.2814 56.5119 71.478C56.6609 71.2877 56.8098 71.0763 56.98 70.8649C57.8099 69.7444 58.5547 68.5605 59.2356 67.3555C59.4058 67.0595 59.576 66.7424 59.725 66.4464C59.8101 66.2773 59.8952 66.1293 59.9803 65.9601C60.1931 65.5585 60.3846 65.1356 60.5761 64.7339C60.6825 64.4802 60.8102 64.2266 60.9166 63.9729C61.0656 63.6557 61.1932 63.3175 61.3209 62.9792C61.4911 62.5353 61.6826 62.0701 61.8316 61.605C62.0231 61.0554 62.2146 60.5057 62.3848 59.956C62.5551 59.3852 62.7253 58.8144 62.8955 58.2436C63.087 57.5248 63.2785 56.7848 63.4488 56.0237C63.619 55.2627 63.768 54.5016 63.9169 53.6982L73.2796 0.443359H48.2345Z" fill="white"/>
</g>
<defs>
<clipPath id="clip0_2591_2948">
<rect width="115.778" height="83.36" fill="white" transform="translate(0.847656 0.443359)"/>
</clipPath>
</defs>
</svg>
