<svg width="358" height="119" viewBox="0 0 358 119" fill="none" xmlns="http://www.w3.org/2000/svg">
<path d="M174.907 41.5972C174.457 39.8207 173.702 38.0623 171.201 38.0623C169.725 37.9898 168.466 39.1319 168.394 40.6183C168.394 40.7452 168.394 40.854 168.394 40.9809C168.394 42.848 169.564 43.7726 171.794 44.9509C174.997 46.6186 176.382 47.8694 176.382 50.4254C176.382 53.2533 173.953 55.4105 170.499 55.4105C169.096 55.3743 167.71 55.0842 166.415 54.5223C166.091 53.1989 165.857 51.8394 165.695 50.4798L166.523 50.2623C167.063 52.075 168.25 54.4135 171.021 54.4135C172.604 54.5404 174.007 53.344 174.133 51.7306C174.133 51.5856 174.133 51.4406 174.133 51.3137C174.133 49.229 173.036 48.3951 170.679 47.108C167.872 45.6578 166.343 44.2801 166.343 41.7785C166.343 39.2769 168.322 37.1016 171.866 37.1016C173.054 37.1559 174.241 37.3191 175.393 37.6273C175.501 38.588 175.609 39.6576 175.825 41.4341L174.925 41.6154L174.907 41.5972Z" fill="white"/>
<path d="M195.255 50.7352C195.093 51.4421 194.373 54.2157 194.121 55.0133H181.113V54.2701C183.596 54.0888 183.794 53.835 183.794 51.6234V40.91C183.794 38.499 183.506 38.3721 181.491 38.1908V37.4294H193.563C193.563 38.1002 193.689 40.1305 193.797 41.5444L193.006 41.6713C192.826 40.9643 192.556 40.2574 192.196 39.6229C191.782 38.7346 191.153 38.5534 189.551 38.5534H187.015C186.187 38.5534 186.133 38.644 186.133 39.4235V45.3875H189.12C191.135 45.3875 191.261 44.9887 191.584 43.1397H192.412V48.6867H191.584C191.243 46.7471 191.027 46.4933 189.102 46.4933H186.205V51.8591C186.205 53.7444 186.799 53.9075 188.148 53.9256H190.631C192.268 53.9256 192.52 53.69 193.114 53.0011C193.689 52.2398 194.175 51.4059 194.553 50.5176L195.291 50.7533L195.255 50.7352Z" fill="white"/>
<path d="M215.87 50.6973C215.474 52.0932 214.988 53.4527 214.43 54.7761C212.829 55.1567 211.174 55.3743 209.537 55.4105C203.149 55.4105 199.875 51.1324 199.875 46.4011C199.875 40.8903 204.031 37.1016 209.986 37.1016C211.696 37.1559 213.387 37.3554 215.042 37.736C215.15 38.9506 215.33 40.564 215.546 41.9235L214.7 42.1048C214.466 40.6002 213.513 39.295 212.163 38.6243C211.264 38.2799 210.31 38.0986 209.357 38.1167C205.021 38.1167 202.628 41.416 202.628 45.8572C202.628 51.0599 205.308 54.4135 209.644 54.4135C212.361 54.4135 213.711 53.1446 215.06 50.4435L215.87 50.6973Z" fill="white"/>
<path d="M239.281 38.247C237.59 38.3557 236.978 38.7908 236.924 40.0235C236.924 40.6579 236.834 41.7819 236.834 44.2654V47.1839C236.834 49.9393 236.51 52.0421 234.963 53.6736C233.631 54.9063 231.832 55.5226 230.033 55.3957C228.486 55.4683 226.974 55.0332 225.697 54.1631C224.096 52.9304 223.304 51.0632 223.304 47.909V41.0386C223.304 38.6095 223.088 38.4464 220.947 38.2651V37.5037H227.892V38.2651C225.751 38.392 225.535 38.6095 225.535 41.0386V47.7821C225.535 51.7158 227.388 53.873 230.591 53.873C234.387 53.873 235.592 51.4983 235.592 47.0208V44.2654C235.592 41.7819 235.503 40.7486 235.467 40.0235C235.377 38.8089 234.765 38.3557 232.786 38.247V37.4856H239.209L239.263 38.247H239.281Z" fill="white"/>
<path d="M259.34 55.231H258.351C256.641 55.2672 255.058 54.379 254.195 52.8925C253.205 51.5148 252.233 49.8108 251.37 48.4512C250.83 47.5992 250.488 47.4361 249.121 47.4361H248.149V51.6598C248.149 53.9621 248.437 54.0889 250.578 54.3065V55.0497H243.436V54.3065C245.667 54.0527 245.846 53.9621 245.846 51.6598V40.9101C245.846 38.6079 245.541 38.5354 243.436 38.2816V37.5202H250.254C251.766 37.3752 253.277 37.7015 254.59 38.4448C255.778 39.2242 256.479 40.5838 256.408 42.0159C256.354 44.1368 254.968 46.004 252.953 46.6385C253.439 47.4723 254.59 49.267 255.4 50.4997C256.03 51.4786 256.731 52.4031 257.505 53.2732C258.009 53.8714 258.692 54.3065 259.448 54.5059L259.322 55.2129L259.34 55.231ZM249.463 46.4934C250.488 46.5841 251.514 46.3122 252.359 45.714C253.421 44.9526 254.015 43.6837 253.943 42.3785C254.123 40.3844 252.665 38.626 250.686 38.4448C250.452 38.4266 250.218 38.4266 249.985 38.4448C249.481 38.3904 248.977 38.481 248.545 38.7167C248.311 38.8979 248.221 39.1699 248.221 39.8587V46.4753H249.481L249.463 46.4934Z" fill="white"/>
<path d="M276.936 50.7352C276.774 51.4421 276.055 54.2157 275.803 55.0133H262.795V54.2701C265.278 54.0888 265.476 53.835 265.476 51.6234V40.91C265.476 38.499 265.188 38.3721 263.173 38.1908V37.4294H275.245C275.245 38.1002 275.371 40.1305 275.479 41.5444L274.687 41.6713C274.507 40.9643 274.238 40.2574 273.878 39.6229C273.464 38.7346 272.834 38.5534 271.233 38.5534H268.696C267.869 38.5534 267.815 38.644 267.815 39.4235V45.3875H270.711C272.726 45.3875 272.87 44.9887 273.176 43.1397H274.004V48.6867H273.176C272.834 46.7471 272.618 46.4933 270.693 46.4933H267.797V51.8591C267.797 53.7444 268.39 53.9075 269.722 53.9256H272.205C273.842 53.9256 274.112 53.69 274.705 53.0011C275.281 52.2398 275.767 51.4059 276.145 50.5176L276.954 50.7533L276.936 50.7352Z" fill="white"/>
<path d="M288.937 37.4856C292.715 37.4856 295.072 38.247 296.745 39.8241C298.275 41.3649 299.102 43.4677 299.012 45.6431C299.12 48.471 297.879 51.172 295.666 52.9304C293.327 54.5075 290.538 55.2507 287.749 55.0513H281.488V54.3081C283.791 54.0906 283.899 53.9093 283.899 51.6796V40.8936C283.899 38.5551 283.575 38.4645 281.488 38.247V37.4856H288.937ZM286.238 51.4077C286.238 53.438 287.084 53.9999 289.135 53.9999C293.956 53.9999 296.367 50.6826 296.367 45.9512C296.619 43.359 295.432 40.8573 293.273 39.4253C291.887 38.6458 290.304 38.2651 288.703 38.3557C287.983 38.2651 287.246 38.4101 286.598 38.7364C286.346 38.8996 286.256 39.2077 286.256 40.1866V51.4077H286.238Z" fill="white"/>
<path d="M181.508 80.2465H180.5C178.791 80.2828 177.208 79.3945 176.326 77.908C175.337 76.5303 174.383 74.8263 173.519 73.5393C172.98 72.6873 172.638 72.5241 171.27 72.5241H170.335V76.7479C170.335 79.0501 170.623 79.177 172.764 79.3945V80.1377H165.621V79.3945C167.852 79.1407 168.032 79.0501 168.032 76.7479V65.8894C168.032 63.5871 167.726 63.5146 165.621 63.2609V62.4995H172.44C173.951 62.3545 175.463 62.6808 176.776 63.424C177.963 64.2035 178.665 65.5631 178.593 66.9952C178.539 69.1161 177.154 70.9832 175.139 71.6358C175.624 72.4697 176.776 74.2644 177.586 75.497C178.215 76.4759 178.917 77.4005 179.691 78.2706C180.194 78.8869 180.878 79.3039 181.634 79.5033L181.472 80.2646L181.508 80.2465ZM171.63 71.509C172.656 71.5996 173.681 71.3277 174.527 70.7295C175.534 69.9318 176.074 68.6992 175.966 67.4121C176.146 65.418 174.689 63.6597 172.71 63.4784C172.476 63.4603 172.242 63.4603 172.008 63.4784C171.504 63.424 171.001 63.5146 170.569 63.7503C170.317 63.9316 170.245 64.2035 170.245 64.8923V71.509H171.63Z" fill="white"/>
<path d="M199.107 75.7336C198.945 76.4406 198.225 79.2141 197.955 80.0117H184.947V79.2685C187.43 79.0872 187.628 78.8334 187.628 76.6218V65.9809C187.628 63.5699 187.322 63.443 185.325 63.2617V62.5004H197.379C197.379 63.1711 197.523 65.2014 197.631 66.6154L196.84 66.7422C196.678 66.0171 196.444 65.3102 196.12 64.6394C195.688 63.7512 195.077 63.5699 193.475 63.5699H190.938C190.111 63.5699 190.057 63.6605 190.057 64.44V70.404H193.026C195.041 70.404 195.167 70.0052 195.49 68.1562H196.318V73.7033H195.49C195.149 71.7636 194.933 71.5098 192.99 71.5098H190.093V76.8756C190.093 78.7609 190.687 78.9241 192.018 78.9422H194.501C196.138 78.9422 196.408 78.7065 196.984 78.0177C197.577 77.2563 198.063 76.4224 198.423 75.5342L199.125 75.7517L199.107 75.7336Z" fill="white"/>
<path d="M217.784 66.744C217.586 65.9645 217.298 65.2031 216.938 64.4961C216.524 63.771 216.236 63.5716 214.761 63.5716H212.008V76.6779C212.008 78.7807 212.224 79.0889 214.761 79.2339V79.9772H206.971V79.2339C209.454 79.0708 209.669 78.7989 209.669 76.6779V63.5716H207.241C205.801 63.5716 205.333 63.7529 204.884 64.5505C204.524 65.2575 204.218 65.9826 204.002 66.744H203.318C203.48 65.0943 203.642 63.3903 203.714 61.8857H204.344C204.74 62.5202 205.046 62.5021 205.783 62.5021H216.326C216.884 62.629 217.46 62.3752 217.766 61.8857H218.395C218.395 63.1547 218.503 65.0943 218.647 66.6533L217.766 66.744H217.784Z" fill="white"/>
<path d="M223.447 80.0298V79.2866C225.642 79.0328 225.858 78.9422 225.858 76.64V65.9265C225.858 63.6062 225.642 63.5155 223.447 63.2617V62.5004H230.68V63.2617C228.467 63.5155 228.251 63.6062 228.251 65.9265V76.64C228.251 78.9603 228.467 79.0509 230.68 79.2866V80.0298H223.447Z" fill="white"/>
<path d="M251.857 80.2485H250.867C249.158 80.2848 247.556 79.3965 246.693 77.91C245.703 76.5323 244.75 74.8283 243.886 73.5413C243.328 72.6893 242.987 72.5261 241.637 72.5261H240.702V76.7499C240.702 79.0521 241.008 79.179 243.149 79.3965V80.1398H236.006V79.3965C238.219 79.1427 238.399 79.0521 238.399 76.7499V65.8914C238.399 63.5892 238.111 63.5167 236.006 63.2629V62.5015H242.807C244.318 62.3746 245.811 62.6828 247.143 63.426C248.33 64.2055 249.014 65.5651 248.942 66.9972C248.888 69.1181 247.521 70.9853 245.505 71.6197C245.991 72.4536 247.143 74.2483 247.934 75.4809C248.582 76.4417 249.284 77.3662 250.039 78.2545C250.543 78.8527 251.227 79.2878 251.982 79.4872L251.839 80.2485H251.857ZM241.979 71.511C243.005 71.6016 244.03 71.3297 244.876 70.7315C245.883 69.9339 246.423 68.7012 246.315 67.4141C246.495 65.4201 245.038 63.6617 243.059 63.4804C242.825 63.4623 242.591 63.4623 242.357 63.4804C241.853 63.426 241.349 63.5167 240.918 63.7523C240.684 63.9336 240.594 64.2055 240.594 64.8944V71.511H241.979Z" fill="white"/>
<path d="M269.47 75.7336C269.308 76.4406 268.588 79.2141 268.336 80.0117H255.328V79.2685C257.811 79.0872 258.009 78.8334 258.009 76.6218V65.9809C258.009 63.5699 257.721 63.443 255.706 63.2617V62.5004H267.778C267.778 63.1711 267.904 65.2014 268.03 66.6154L267.221 66.7422C267.041 66.0353 266.771 65.3464 266.429 64.6938C265.997 63.8056 265.367 63.6243 263.766 63.6243H261.175C260.348 63.6243 260.294 63.7149 260.294 64.4944V70.4584H263.28C265.295 70.4584 265.421 70.0596 265.745 68.2106H266.591V73.7577H265.745C265.403 71.818 265.188 71.5642 263.262 71.5642H260.366V76.93C260.366 78.8153 260.96 78.9784 262.309 78.9966H264.792C266.429 78.9966 266.681 78.7609 267.275 78.0721C267.85 77.3107 268.336 76.4768 268.714 75.5886L269.488 75.7698L269.47 75.7336Z" fill="white"/>
<path d="M288.92 80.0298V79.2866C291.115 79.0691 291.205 78.9059 291.169 76.0236V65.0201C288.974 69.9508 285.394 77.6732 284.512 80.0298H283.811C282.893 77.5826 279.871 70.1684 277.838 65.292C277.37 74.7366 277.352 76.8575 277.352 77.3651C277.352 78.8153 278.053 79.1053 279.871 79.2866V80.0298H273.52V79.2866C275.067 79.1235 275.715 78.7972 275.912 77.3288C276.092 76.1505 276.092 75.1716 276.812 65.3464C276.92 63.8962 276.632 63.4793 274.293 63.2617V62.5004H278.953L284.872 76.1686L291.205 62.5004H295.883V63.2617C293.58 63.5336 293.292 63.7693 293.346 65.6727L293.454 76.0236C293.562 78.9422 293.634 79.0328 295.991 79.2866V80.0298H288.884H288.92Z" fill="white"/>
<path d="M315.025 75.7336C314.845 76.4406 314.125 79.2141 313.873 80.0117H300.865V79.2685C303.366 79.0872 303.546 78.8334 303.546 76.6218V65.9809C303.546 63.5699 303.24 63.443 301.225 63.2617V62.5004H313.297C313.297 63.1711 313.423 65.2014 313.549 66.6154L312.74 66.7422C312.56 66.0353 312.29 65.3283 311.948 64.6938C311.516 63.8056 310.905 63.6243 309.303 63.6243H306.766C305.921 63.6243 305.885 63.7149 305.885 64.4944V70.4584H308.872C310.887 70.4584 311.013 70.0596 311.336 68.2106H312.182V73.7577H311.336C310.977 71.7817 310.761 71.4917 308.872 71.4917H305.975V76.8575C305.975 78.7428 306.551 78.9059 307.9 78.9241H310.311C311.948 78.9241 312.2 78.6884 312.794 77.9995C313.369 77.2382 313.855 76.4043 314.233 75.516L315.025 75.7517V75.7336Z" fill="white"/>
<path d="M338.072 63.2591C336.345 63.4404 335.787 63.7304 335.715 64.9631C335.715 65.8151 335.625 66.9572 335.625 69.4588V80.2447H334.618L323.175 66.1414V72.9574C323.121 74.4076 323.175 75.876 323.301 77.3262C323.301 78.7764 324.021 79.1208 325.946 79.284V80.0272H319.433V79.284C321.088 79.139 321.754 78.7401 321.844 77.4168C321.934 76.5648 321.97 75.3321 321.97 72.8849V66.0145C322.042 65.38 321.862 64.7274 321.43 64.238C320.926 63.5673 320.368 63.386 319.037 63.2591V62.4977H323.049L334.402 76.0572V69.4588C334.456 67.9723 334.402 66.4677 334.276 64.9812C334.186 63.7667 333.574 63.386 331.379 63.241V62.4796H338L338.036 63.241L338.072 63.2591Z" fill="white"/>
<path d="M357.182 66.744C356.984 65.9645 356.696 65.2031 356.318 64.4961C355.904 63.771 355.617 63.5716 354.141 63.5716H351.46V76.6779C351.46 78.7807 351.676 79.0889 354.213 79.2339V79.9772H346.423V79.2339C348.924 79.0708 349.122 78.7989 349.122 76.6779V63.5716H346.693C345.253 63.5716 344.804 63.7529 344.336 64.5505C343.976 65.2575 343.67 65.9826 343.454 66.744H342.645C342.824 65.0943 342.968 63.3903 343.04 61.8857H343.67C344.066 62.5202 344.372 62.5021 345.109 62.5021H355.706C356.246 62.5927 356.768 62.3571 357.074 61.8857H357.704C357.704 63.1547 357.811 65.0943 357.955 66.6533L357.164 66.744H357.182Z" fill="white"/>
<path d="M139.893 115.995V3.47668" stroke="#ACA9A8" stroke-width="0.2" stroke-miterlimit="10"/>
<path d="M59.0421 84.9241C60.2295 93.3353 57.6567 68.5729 43.5513 56.1736C42.7596 55.521 30.8132 45.2426 32.2345 31.9912L36.0668 32.6257C35.3291 37.2483 36.8044 42.1427 40.2228 47.1822C41.8061 49.4845 43.6772 51.5873 45.7822 53.4363C52.5651 59.3641 57.6567 66.9958 60.5354 75.5702C63.7739 64.893 71.6362 57.4425 78.7429 50.699L79.0128 50.3727C85.9576 43.8105 88.1166 33.4415 87.217 25.9728C86.3534 20.8427 84.0685 16.057 80.5961 12.2139C75.5944 6.61247 68.3977 3.49451 60.9132 3.69392C53.5906 3.60328 46.5739 6.61247 41.5722 12.0145C39.0354 14.6974 36.9663 17.7973 35.437 21.169L31.8027 20.6433C33.5839 16.619 35.9768 12.9028 38.9094 9.6398C44.6308 3.51264 52.5831 0.086506 60.9132 0.122761C69.4053 -0.0947709 77.5555 3.44013 83.2228 9.82108C87.181 14.2261 89.7898 19.6825 90.7254 25.5559C91.7329 33.8946 89.286 45.6051 81.4956 52.9831L81.1538 53.3094C67.9479 65.3281 60.7333 78.9057 60.2295 93.3535L59.0421 84.9422V84.9241Z" fill="white"/>
<path d="M60.9451 38.8808L59.3079 35.2915C58.2644 33.2975 56.933 31.4847 55.3317 29.9076C51.6075 26.0283 46.7857 23.3998 41.5322 22.3483L39.2832 21.8408L40.3627 19.7742C40.6146 19.2848 46.9476 7.55616 60.9092 7.55616C69.3113 7.48365 77.1016 11.9974 81.2397 19.3754L82.0313 21.4782L80.0703 21.9677C79.9443 21.9677 66.9903 25.1944 62.5284 35.2915L60.9451 38.8627V38.8808ZM44.7347 19.5204C51.2117 21.4057 56.879 25.4482 60.8192 30.9771C65.2811 23.9617 72.9995 20.5537 76.8857 19.2123C73.1255 14.1184 67.1882 11.1273 60.8912 11.1454C54.4861 11.1998 48.4769 14.3178 44.7167 19.5386L44.7347 19.5204Z" fill="white"/>
<path d="M83.3465 29.2538C80.036 30.3777 76.9594 32.0998 74.2787 34.3658C67.8017 39.5866 64.7611 46.7289 62.6561 55.4664L61.0728 62.4637L59.1657 55.5933C57.7803 50.6988 55.8013 46.0219 53.2644 41.6169C48.4967 32.9881 39.3569 27.7492 29.5515 28.0211C25.3054 28.2205 21.1674 29.4169 17.4431 31.4835C9.4548 36.0154 5.08283 44.1004 4.43513 55.5389C4.43513 56.0284 4.27321 68.8447 12.9812 76.5852C19.0264 81.9328 27.9502 83.7275 39.5188 81.8966L40.0586 85.4134C37.1439 85.8847 34.1933 86.1385 31.2247 86.1566C22.7146 86.1566 15.8058 83.8363 10.6243 79.2318C0.602912 70.2767 0.944754 56.0284 0.944754 55.4846C1.43053 46.747 4.39915 34.8371 15.8778 28.4018C20.0879 26.0633 24.7657 24.7581 29.5695 24.5587C40.6343 24.5587 49.81 29.852 56.287 39.8585C58.0142 42.5776 59.4716 45.4781 60.623 48.4873C62.728 41.8163 66.7402 35.9429 72.1916 31.5923C75.3222 29 78.9025 27.0241 82.7527 25.7733L83.3465 29.2538Z" fill="white"/>
<path d="M89.1215 86.5911C82.9503 86.3735 76.9771 84.3614 71.9395 80.7721L74.0265 77.8535C78.4704 80.9896 83.706 82.7842 89.1215 83.0199C94.7888 82.7117 100.312 81.0259 105.188 78.1254C113.212 73.3035 117.278 65.8892 117.278 56.1365C117.278 46.3838 113.752 39.1146 106.789 33.8395C103.587 31.4104 99.9524 29.652 96.0842 28.6368L95.6524 24.8119C100.384 25.9902 104.846 28.0567 108.804 30.9028C114.328 35.0178 120.931 42.722 120.931 56.1365C120.931 67.0857 116.163 75.7507 107.131 81.189C101.662 84.452 95.4725 86.301 89.1215 86.5911Z" fill="white"/>
<path d="M46.7707 66.9958L38.5305 63.0077C35.7598 61.5575 32.6833 60.8142 29.5527 60.8142C23.0397 60.5423 17.8042 62.2645 13.954 66.5245L12.0828 68.591L10.9494 66.1619C10.7694 65.7631 6.86525 56.1735 10.5176 46.6384C12.7845 40.6562 17.1565 36.0156 24.4431 32.9157L26.8 32.0637L26.9619 34.6379C28.7071 44.2455 33.295 53.11 40.1138 60.0347L46.7707 66.9776V66.9958ZM23.7234 37.3389C19.2435 39.4779 15.7351 43.2848 13.9719 47.9617C12.2987 52.5118 12.1008 57.4606 13.3602 62.1376C17.9841 58.3307 23.9393 56.5724 29.8766 57.2793C30.974 57.3881 31.9996 57.5331 32.9711 57.6963C28.0594 51.9135 24.8569 44.8619 23.7234 37.357V37.3389Z" fill="white"/>
<path d="M72.6239 66.8514L80.9 60.3798C88.5825 54.0895 93.782 45.2432 95.5632 35.4361L95.8151 33.0614L97.9921 33.9859C105.225 37.0857 110.011 41.6539 112.044 47.5273C115.3 56.9174 110.388 66.1444 110.19 66.4526L108.985 68.6642L107.312 66.8514C103.462 62.4826 99.6293 61.1774 92.3607 61.1412C89.0502 61.2137 85.7758 61.9751 82.7532 63.3346L72.5879 66.8152L72.6239 66.8514ZM93.7641 57.5338C98.9996 57.4069 104.091 59.2197 108.067 62.6095C109.849 58.1864 110.082 53.2738 108.733 48.6875C107.294 44.3187 103.839 40.8201 98.6218 38.2097C96.8766 45.5695 93.3323 52.3855 88.3306 58.0232C89.3201 57.8419 90.3097 57.7151 91.3172 57.6244C92.1808 57.5519 92.9724 57.5156 93.782 57.5156L93.7641 57.5338Z" fill="white"/>
<path d="M33.5835 118.114L32.0362 114.906C43.4789 109.377 48.0308 100.422 46.7894 86.0646C46.2856 81.5327 44.2526 77.3089 41.0141 74.1185C37.8296 70.6923 33.4036 68.6983 28.7438 68.5895C24.3178 68.6983 20.1977 70.9099 17.6429 74.5354L14.9082 72.4326C18.0387 67.8282 23.2023 65.0546 28.7438 65.0365C40.4204 65.0365 49.4881 75.9312 50.3337 85.7202C51.6831 101.564 46.3576 111.878 33.6015 118.096L33.5835 118.114Z" fill="white"/>
<path d="M86.0972 118.115C73.3231 111.843 67.9976 101.528 69.365 85.6847C70.1926 75.8957 79.2604 65.001 90.9369 65.001C96.7482 65.1641 102.236 67.7383 106.068 72.1433L103.603 74.518C103.477 74.3005 98.0436 68.6265 90.901 68.6265C86.2591 68.7534 81.8692 70.7293 78.6666 74.1192C75.4282 77.3097 73.3951 81.5334 72.8913 86.0653C71.6859 100.441 76.2378 109.396 87.7164 114.997L86.1332 118.133L86.0972 118.115Z" fill="white"/>
</svg>
