<svg width="280" height="96" viewBox="0 0 280 96" fill="none" xmlns="http://www.w3.org/2000/svg">
<path d="M238.632 0.355185H175.601V15.9453H238.632C243.283 15.9453 247.089 19.7628 247.089 24.4284V44.93C247.089 49.5957 243.283 53.4131 238.632 53.4131L160.058 53.4134V0.355584H144.515V0.355962L144.514 0.355185L91.6786 48.0698V0.355563H76.1358V0.355941L76.1354 0.355164L0.119141 69.0032H23.3096L76.1358 21.2976V69.0032H91.6786L144.515 21.2956V69.0032H238.632C251.865 69.0032 262.632 58.204 262.632 44.93V24.4284C262.632 11.1544 251.865 0.355164 238.632 0.355164V0.355185Z" fill="white"/>
<path d="M2.79809 92.6451H1.13071V79.4328H3.22021L5.47855 87.6219L7.73688 79.4328H9.82638V92.6451H8.159V82.9786L6.34389 89.7747H4.6132L2.79809 82.9997V92.6451ZM28.297 79.4328H30.1966V92.6451H28.297V79.4328ZM55.4704 79.4328L52.6844 86.0601L55.4493 92.6451H53.3809L50.7005 86.0601L53.4232 79.4328H55.4704ZM48.6743 92.6451V79.4328H50.5738V92.6451H48.6743ZM74.8099 91.1044H78.6301V92.6451H72.8893V79.4328H78.4823V80.9735H74.8099V85.047H77.8492V86.5877H74.8099V91.1044ZM115.446 79.4328H120.047C121.356 79.4328 122.01 80.0519 122.01 81.2901V90.7878C122.01 92.026 121.356 92.6451 120.047 92.6451H115.446V79.4328ZM120.089 90.5345V81.5434C120.089 81.2901 120.047 81.1283 119.963 81.058C119.878 80.9735 119.709 80.9313 119.456 80.9313H117.367V91.1466H119.456C119.709 91.1466 119.878 91.1114 119.963 91.0411C120.047 90.9567 120.089 90.7878 120.089 90.5345ZM140.385 79.4328H142.285V92.6451H140.385V79.4328ZM162.662 91.1044H165.933V92.6451H160.762V79.4328H162.662V91.1044ZM185.125 91.1044H188.396V92.6451H183.225V79.4328H185.125V91.1044ZM210.543 92.6451L210.015 89.5848H207.229L206.744 92.6451H204.844L207.187 79.4328H209.952L212.463 92.6451H210.543ZM207.461 88.044H209.762L208.559 81.0791L207.461 88.044ZM231.824 87.3053V92.6451H229.924V79.4328H234.251C235.559 79.4328 236.214 80.0519 236.214 81.2901V85.4269C236.214 86.4963 235.742 87.1083 234.799 87.2631L236.889 92.6451H234.842L232.858 87.3053H231.824ZM231.824 80.9735V85.7857H233.681C233.934 85.7857 234.103 85.7505 234.187 85.6802C234.272 85.5957 234.314 85.4269 234.314 85.1736V81.5856C234.314 81.3323 234.272 81.1705 234.187 81.1002C234.103 81.0157 233.934 80.9735 233.681 80.9735H231.824ZM254.449 79.4328H259.05C260.359 79.4328 261.013 80.0519 261.013 81.2901V90.7878C261.013 92.026 260.359 92.6451 259.05 92.6451H254.449V79.4328ZM259.092 90.5345V81.5434C259.092 81.2901 259.05 81.1283 258.966 81.058C258.881 80.9735 258.713 80.9313 258.459 80.9313H256.37V91.1466H258.459C258.713 91.1466 258.881 91.1114 258.966 91.0411C259.05 90.9567 259.092 90.7878 259.092 90.5345Z" fill="white"/>
</svg>
