<svg width="554" height="111" viewBox="0 0 554 111" fill="none" xmlns="http://www.w3.org/2000/svg">
<path d="M219.927 41.1646H231.791C235.718 41.1646 239.018 42.5417 241.691 45.2964C244.363 48.0508 245.7 51.4464 245.7 55.4828C245.7 59.5464 244.363 62.9556 241.691 65.7101C239.045 68.4375 235.745 69.8012 231.791 69.8012H219.927V41.1646ZM228.518 61.8647H231.791C233.454 61.8647 234.825 61.2716 235.902 60.0852C236.979 58.8987 237.518 57.3647 237.518 55.4828C237.518 53.6009 236.979 52.0668 235.902 50.8804C234.825 49.6942 233.454 49.1009 231.791 49.1009H228.518V61.8647Z" fill="white"/>
<path d="M281.292 69.8002H272.497L271.515 66.1182H263.251L262.269 69.8002H253.474L262.596 41.1636H272.169L281.292 69.8002ZM267.383 50.7772L265.01 59.5727H269.756L267.383 50.7772Z" fill="white"/>
<path d="M305.715 69.8002H296.552L287.429 41.1636H296.429L301.133 59.3681L305.838 41.1636H314.838L305.715 69.8002Z" fill="white"/>
<path d="M333.246 59.082V62.2728H343.883V69.8002H325.064V41.1636H343.678V48.609H333.246V51.7182H342.656V59.082H333.246Z" fill="white"/>
<path d="M397.067 69.8002H388.271L387.289 66.1182H379.026L378.044 69.8002H369.248L378.371 41.1636H387.944L397.067 69.8002ZM383.157 50.7772L380.785 59.5727H385.53L383.157 50.7772Z" fill="white"/>
<path d="M415.064 41.1636V61.8637H424.473V69.8002H406.882V41.1636H415.064Z" fill="white"/>
<path d="M443.293 41.1636V61.8637H452.703V69.8002H435.111V41.1636H443.293Z" fill="white"/>
<path d="M486.864 69.7591H478.109L473.568 60.7589H471.523V69.7591H463.341V41.1224H474.796C477.905 41.1224 480.496 42.0495 482.568 43.9042C484.614 45.7315 485.636 48.1587 485.636 51.1861C485.636 52.8771 485.248 54.4043 484.471 55.768C483.693 57.1317 482.609 58.2362 481.218 59.0817L486.864 69.7591ZM474.632 48.6496H471.523V53.9679H474.632C475.505 53.9951 476.193 53.7769 476.698 53.3133C477.202 52.8498 477.454 52.1953 477.454 51.3498C477.454 50.5043 477.202 49.843 476.698 49.3657C476.193 48.8884 475.505 48.6496 474.632 48.6496Z" fill="white"/>
<path d="M505.269 59.082V62.2728H515.905V69.8002H497.087V41.1636H515.701V48.609H505.269V51.7182H514.678V59.082H505.269Z" fill="white"/>
<path d="M527.362 41.1636H539.226C543.153 41.1636 546.453 42.5407 549.126 45.2954C551.799 48.0498 553.135 51.4455 553.135 55.4818C553.135 59.5454 551.799 62.9547 549.126 65.7091C546.481 68.4365 543.181 69.8002 539.226 69.8002H527.362V41.1636ZM535.953 61.8637H539.226C540.89 61.8637 542.26 61.2706 543.338 60.0842C544.415 58.8978 544.953 57.3637 544.953 55.4818C544.953 53.5999 544.415 52.0658 543.338 50.8794C542.26 49.6932 540.89 49.0999 539.226 49.0999H535.953V61.8637Z" fill="white"/>
<path fill-rule="evenodd" clip-rule="evenodd" d="M180.557 110.103V0.143311H187.198V110.103H180.557Z" fill="white"/>
<path fill-rule="evenodd" clip-rule="evenodd" d="M21.4207 36.1684C18.8656 36.1922 17.8657 36.2001 17.8657 36.2001V69.4408H0.28125V18.5837H36.847C57.0423 18.5837 73.4126 34.9542 73.4126 55.1494C73.4126 75.3367 57.0423 91.7151 36.847 91.7151H0.28125V74.1225L36.847 74.1305C47.3295 74.1305 55.8281 65.6319 55.8281 55.1494C55.8281 44.659 47.3295 36.1684 36.847 36.1684C36.847 36.1684 23.9917 36.1366 21.4207 36.1684Z" fill="white"/>
<path fill-rule="evenodd" clip-rule="evenodd" d="M118.71 47.2778L145.365 91.7152H119.298L105.673 69.0124L118.71 47.2778Z" fill="white"/>
<path fill-rule="evenodd" clip-rule="evenodd" d="M116.288 43.247C116.288 43.247 100.005 70.3776 100.576 69.4174L87.2053 91.7155H61.1299L103.25 21.5204L116.288 43.247Z" fill="white"/>
</svg>
