<svg width="388" height="109" viewBox="0 0 388 109" fill="none" xmlns="http://www.w3.org/2000/svg">
<g clip-path="url(#clip0_2591_3070)">
<path d="M0.664062 0.123291V108.123H126.179V0.123291H0.664062ZM24.5227 53.8797V74.7218H18.5175V32.4962H24.5227V51.7684L42.2679 32.4962H49.7879L31.5017 52.5263L54.2783 74.6677H46.055L24.5227 53.8255V53.8797ZM66.3429 82.788C65.5314 84.6286 64.233 86.1985 62.5017 87.2271C60.5541 88.418 58.3359 88.9594 56.1178 88.9052C55.4686 88.9052 54.8193 88.797 54.1701 88.6887L53.034 83.0586H54.5488C55.9014 83.1128 57.2539 82.8962 58.5523 82.409C59.5261 81.9759 60.2836 81.1639 60.7164 80.1895C61.4197 78.024 61.6902 75.6962 61.5279 73.4225V32.4962H67.5331V74.1263C67.6954 77.0496 67.2626 79.9729 66.3429 82.7338V82.788ZM112.004 71.5819C107.297 74.0722 101.996 75.3173 96.6937 75.209C92.5279 75.3173 88.3621 74.3428 84.7373 72.3398C81.4912 70.4992 78.7862 67.7925 76.9467 64.5443C75.0532 61.2962 74.0794 57.5609 74.0794 53.7714C73.9712 47.9248 76.3516 42.2947 80.6256 38.2887C84.9537 34.1203 90.7966 31.8466 96.8019 32.009C101.887 32.1714 106.919 33.3083 111.571 35.4737V41.9699C107.189 39.3173 102.212 37.8556 97.1265 37.7473C92.6902 37.6391 88.308 39.2631 85.116 42.3489C78.7862 48.6286 78.7321 58.8601 85.0078 65.194C88.2539 68.2797 92.582 69.8496 97.0183 69.6872C102.374 69.6331 107.568 67.9549 112.004 64.9774V71.5819Z" fill="white"/>
<path d="M146.143 35.1488H152.148V71.4736H170.921V76.8871H146.143V35.1488ZM188.233 43.4315H191.588L206.465 76.8871H201.596L197.16 67.0345H183.04L178.874 76.8871H174.005L188.287 43.4315H188.233ZM195.212 62.812L189.856 50.7398L184.879 62.812H195.212ZM250.558 43.6481H255.319L241.848 77.0496H240.82L229.945 49.9819L218.963 77.0496H217.935L204.518 43.6481H209.279L218.422 66.6014L227.619 43.6481H232.163L241.415 66.6014L250.504 43.6481H250.558ZM281.396 35.2029H303.631V40.5082H287.347V52.1473H303.631V57.4526H287.347V76.8871H281.341V35.1488L281.396 35.2029ZM311.584 43.6481H316.345V76.9413H311.584V43.6481ZM325.813 76.9413V43.6481H334.144C337.012 43.4856 339.879 44.4059 342.151 46.1383C344.153 47.8165 345.235 50.3067 345.127 52.9052C345.127 54.6917 344.64 56.424 343.666 57.9398C342.638 59.4014 341.177 60.4841 339.5 61.1338C340.69 61.9458 341.718 62.9202 342.638 64.0029C344.207 66.0059 345.614 68.1172 346.912 70.3368C348.048 72.2315 349.022 73.639 349.671 74.6135L351.457 76.9954H345.776L344.315 74.83C344.315 74.83 344.153 74.6135 344.045 74.4511L343.125 73.1518L341.664 70.7157L340.095 68.1172C339.284 66.9804 338.364 65.8977 337.39 64.8691C336.741 64.1653 335.984 63.624 335.172 63.1368C334.144 62.7037 333.008 62.5413 331.872 62.5954H330.628V77.0496H325.867L325.813 76.9413ZM331.98 47.7082H330.574V58.2105H332.359C334.036 58.3187 335.713 58.1022 337.336 57.615C338.202 57.236 338.959 56.5864 339.446 55.7202C339.933 54.8541 340.204 53.8796 340.204 52.8511C340.204 51.8225 339.933 50.8481 339.392 49.9819C338.851 49.1157 337.985 48.5202 337.066 48.1954C335.443 47.7623 333.765 47.5999 332.034 47.6541L331.98 47.7082ZM383.539 43.6481H387.975V76.9413H383.214V51.0646L372.989 63.9488H372.123L361.79 51.0646V76.9413H357.029V43.6481H361.519L372.61 57.3443L383.647 43.6481H383.539Z" fill="white"/>
<path d="M144.41 92.1533H157.07V94.1022H151.768V107.365H149.604V94.1022H144.41V92.1533ZM161.831 107.311V92.1533H165.618C166.916 92.0992 168.215 92.4781 169.243 93.2902C170.162 94.0481 170.649 95.1849 170.595 96.3759C170.595 97.1879 170.379 97.9999 169.946 98.6496C169.459 99.2992 168.81 99.8405 168.052 100.111C168.593 100.49 169.08 100.923 169.459 101.41C170.162 102.331 170.812 103.305 171.407 104.28C171.948 105.146 172.38 105.795 172.651 106.229L173.462 107.311H170.866L170.216 106.337L170.108 106.12L169.675 105.525L169.026 104.442L168.323 103.251C167.944 102.71 167.565 102.222 167.079 101.789C166.754 101.465 166.429 101.194 166.051 100.977C165.564 100.761 165.077 100.707 164.536 100.761H163.995V107.365H161.831V107.311ZM164.644 93.9939H163.995V98.7578H164.806C165.564 98.7578 166.321 98.7037 167.079 98.4872C167.457 98.3248 167.836 97.9999 168.052 97.621C168.269 97.242 168.377 96.7548 168.377 96.3217C168.377 95.8345 168.269 95.4014 167.998 95.0225C167.728 94.6436 167.349 94.3729 166.916 94.2105C166.159 93.9939 165.401 93.9398 164.644 93.9939ZM177.845 92.1533H180.009V107.311H177.845V92.1533ZM190.829 92.0451H192.344L199.106 107.257H196.888L194.887 102.764H188.449L186.555 107.257H184.337L190.829 92.0451ZM194.021 100.869L191.586 95.4014L189.314 100.869H194.021ZM203.489 92.1533H205.653V105.308H212.469V107.257H203.489V92.0992V92.1533ZM228.483 92.0451H229.998L236.761 107.257H234.543L232.541 102.764H226.103L224.209 107.257H221.991L228.483 92.0451ZM231.675 100.869L229.241 95.4014L226.969 100.869H231.675ZM237.626 92.0992H250.286V94.0481H244.984V107.311H242.82V94.0481H237.626V92.0992ZM253.695 92.0992H266.3V94.0481H260.998V107.311H258.834V94.0481H253.64V92.0992H253.695ZM277.066 91.8827C279.23 91.8285 281.34 92.6405 282.909 94.1022C284.424 95.5639 285.29 97.5669 285.236 99.6781C285.29 101.789 284.424 103.792 282.855 105.254C281.232 106.716 279.068 107.528 276.904 107.419C274.794 107.474 272.738 106.716 271.223 105.2C269.708 103.792 268.897 101.789 268.951 99.6781C268.897 97.5669 269.708 95.5097 271.223 94.0481C272.792 92.5323 274.902 91.7744 277.012 91.8285L277.066 91.8827ZM277.174 93.9398C275.606 93.8857 274.037 94.4811 272.9 95.5638C271.764 96.6466 271.169 98.1623 271.223 99.7323C271.223 101.248 271.818 102.764 272.9 103.792C274.037 104.875 275.551 105.471 277.12 105.416C278.689 105.416 280.204 104.875 281.34 103.738C282.476 102.656 283.071 101.14 283.017 99.624C283.017 98.1082 282.422 96.6466 281.34 95.5638C280.204 94.4811 278.743 93.8857 277.174 93.9398ZM289.888 107.257V92.0992H293.675C294.974 92.0451 296.272 92.424 297.3 93.236C298.22 93.9939 298.707 95.1308 298.653 96.3217C298.653 97.1338 298.436 97.9458 298.003 98.5954C297.516 99.2451 296.867 99.7864 296.11 100.057C296.651 100.436 297.138 100.869 297.516 101.356C298.22 102.277 298.869 103.251 299.464 104.226C300.005 105.092 300.438 105.741 300.708 106.174L301.52 107.257H298.923L298.274 106.283L298.166 106.066L297.733 105.471L297.084 104.388L296.38 103.197C296.002 102.656 295.623 102.168 295.136 101.735C294.811 101.41 294.487 101.14 294.108 100.923C293.621 100.707 293.134 100.653 292.593 100.707H292.052V107.311H289.888V107.257ZM292.701 93.9398H292.052V98.7037H292.864C293.621 98.7037 294.379 98.7037 295.136 98.433C295.515 98.2706 295.893 97.9458 296.11 97.5669C296.326 97.1879 296.434 96.7007 296.434 96.2676C296.434 95.7804 296.326 95.3473 296.056 94.9684C295.785 94.5894 295.407 94.3187 294.974 94.1563C294.216 93.9398 293.459 93.8857 292.701 93.8857V93.9398ZM317.913 92.0992H319.968V107.257H318.129L308.012 95.618V107.257H305.956V92.0992H307.688L317.913 103.847V92.0992ZM325.866 92.0992H334.468V94.0481H328.03V98.6496H334.251V100.598H328.03V105.308H334.63V107.257H325.866V92.1533V92.0992ZM348.75 92.0992H351.347L345.775 99.245V107.257H343.557V99.245L337.984 92.0992H340.581L344.639 97.3503L348.75 92.0992ZM359.03 100.869L357.407 99.8947C356.541 99.4075 355.783 98.812 355.188 98.0541C354.756 97.4586 354.539 96.7007 354.539 95.9428C354.539 94.8601 354.972 93.7774 355.783 93.0195C356.703 92.2616 357.839 91.8285 359.03 91.8827C360.274 91.8827 361.464 92.2616 362.492 92.9654V95.4014C361.572 94.427 360.328 93.8857 358.975 93.8315C358.38 93.8315 357.731 93.9939 357.244 94.3187C356.811 94.5894 356.541 95.0766 356.541 95.5638C356.541 96.0511 356.703 96.4842 357.028 96.8631C357.515 97.3503 358.056 97.7834 358.651 98.1082L360.328 99.0826C361.951 99.8405 363.033 101.465 363.087 103.305C363.087 104.442 362.708 105.471 361.897 106.283C361.031 107.041 359.895 107.474 358.705 107.419C357.244 107.419 355.783 106.932 354.593 106.066V103.305C355.513 104.659 357.028 105.471 358.651 105.525C359.246 105.525 359.895 105.362 360.328 104.929C360.761 104.604 361.031 104.063 361.031 103.522C361.031 102.601 360.382 101.735 359.03 100.923V100.869Z" fill="#ECE1D4"/>
</g>
<defs>
<clipPath id="clip0_2591_3070">
<rect width="387.31" height="108" fill="white" transform="translate(0.664062 0.123291)"/>
</clipPath>
</defs>
</svg>
