<svg width="322" height="84" viewBox="0 0 322 84" fill="none" xmlns="http://www.w3.org/2000/svg">
<path d="M72.3011 0L63.3165 15.4978L93.4031 67.2341H88.4415L49.4557 0L0.753906 84H18.6133L49.4679 30.7882L80.3225 84H121.015L72.3011 0Z" fill="white"/>
<path d="M23.5977 83.9993H41.457L58.4508 54.6865L49.5273 39.2863L23.5977 83.9993Z" fill="white"/>
<path d="M161.524 26.8604H144.018L140.251 35.2494H136.789L151.15 3.82715H154.429L168.79 35.2494H165.291L161.524 26.8604ZM160.317 24.1657L152.783 7.29006L145.249 24.1657H160.329H160.317Z" fill="white"/>
<path d="M198.818 35.2605L191.638 25.1644C190.809 25.262 189.968 25.2986 189.127 25.2986H180.691V35.2605H177.375V3.83826H189.127C197.112 3.83826 201.964 7.87426 201.964 14.6172C201.964 19.5555 199.355 23.0062 194.783 24.4938L202.451 35.2605H198.818ZM198.636 14.6172C198.636 9.59352 195.308 6.71589 189.029 6.71589H180.679V22.4697H189.029C195.308 22.4697 198.636 19.5555 198.636 14.6172Z" fill="white"/>
<path d="M245.794 3.83826V35.2605H242.612V10.1178L230.275 31.2611H228.702L216.365 10.252V35.2483H213.184V3.83826H215.926L229.568 27.1398L243.075 3.83826H245.806H245.794Z" fill="white"/>
<path d="M279.098 26.8604H261.592L257.825 35.2494H254.363L268.724 3.82715H272.003L286.364 35.2494H282.865L279.098 26.8604ZM277.891 24.1657L270.357 7.29006L262.824 24.1657H277.904H277.891Z" fill="white"/>
<path d="M321.196 3.83826V35.2605H318.465L298.265 9.76423V35.2605H294.949V3.83826H297.692L317.929 29.3346V3.83826H321.208H321.196Z" fill="white"/>
<path d="M161.109 67.427H146.529L143.749 74.1577H136.301L150.308 42.7355H157.488L171.532 74.1577H163.9L161.121 67.427H161.109ZM158.817 61.9034L153.831 49.8686L148.845 61.9034H158.805H158.817Z" fill="white"/>
<path d="M174.342 71.0617L176.817 65.5869C179.462 67.5134 183.412 68.8669 187.179 68.8669C191.482 68.8669 193.237 67.4281 193.237 65.5015C193.237 59.6243 174.976 63.6603 174.976 51.9913C174.976 46.6506 179.279 42.2 188.215 42.2C192.165 42.2 196.2 43.1389 199.125 44.9801L196.882 50.5037C193.969 48.8454 190.958 48.0406 188.178 48.0406C183.875 48.0406 182.205 49.6623 182.205 51.6377C182.205 57.4295 200.466 53.4301 200.466 64.965C200.466 70.2203 196.114 74.7075 187.142 74.7075C182.156 74.7075 177.133 73.2321 174.354 71.0739L174.342 71.0617Z" fill="white"/>
<path d="M205.008 71.0617L207.483 65.5869C210.128 67.5134 214.078 68.8669 217.845 68.8669C222.148 68.8669 223.903 67.4281 223.903 65.5015C223.903 59.6243 205.642 63.6603 205.642 51.9913C205.642 46.6506 209.945 42.2 218.881 42.2C222.831 42.2 226.866 43.1389 229.791 44.9801L227.548 50.5037C224.635 48.8454 221.624 48.0406 218.844 48.0406C214.541 48.0406 212.871 49.6623 212.871 51.6377C212.871 57.4295 231.132 53.4301 231.132 64.965C231.132 70.2203 226.78 74.7075 217.808 74.7075C212.822 74.7075 207.799 73.2321 205.02 71.0739L205.008 71.0617Z" fill="white"/>
<path d="M258.82 67.427H244.24L241.46 74.1577H234.012L248.019 42.7355H255.199L269.243 74.1577H261.611L258.832 67.427H258.82ZM256.528 61.9034L251.542 49.8686L246.556 61.9034H256.516H256.528Z" fill="white"/>
<path d="M274.518 42.7366H288.793C299.07 42.7366 306.116 48.9308 306.116 58.4416C306.116 67.9524 299.07 74.1466 288.793 74.1466H274.518V42.7244V42.7366ZM288.427 68.1841C294.669 68.1841 298.753 64.4529 298.753 58.4416C298.753 52.4303 294.669 48.6991 288.427 48.6991H281.783V68.1841H288.427Z" fill="white"/>
<path d="M313.617 42.7355H320.883V74.1577H313.617V42.7355Z" fill="white"/>
</svg>
