<svg width="819" height="50" viewBox="0 0 819 50" fill="none" xmlns="http://www.w3.org/2000/svg">
<path d="M86.4307 41.3546V18.0286L76.4468 33.2896H76.2429L66.3643 18.1809V41.3546H58.7109V5.62451H67.1245L76.4508 20.7333L85.7758 5.62451H94.1799V41.3546H86.4307Z" fill="#FEFEFE"/>
<path d="M133.171 41.3551L129.93 33.3418H114.924L111.684 41.3551H103.727L118.931 5.36938H126.129L141.334 41.3551H133.171ZM122.426 14.8091L117.713 26.396H127.14L122.426 14.8091Z" fill="#FEFEFE"/>
<path d="M172.396 41.3546L164.794 29.9214H158.661V41.3546H150.855V5.62451H167.075C175.437 5.62451 180.456 10.0656 180.456 17.4153V17.5173C180.57 19.9477 179.887 22.3484 178.513 24.3499C177.14 26.3514 175.151 27.8427 172.853 28.5943L181.52 41.3546H172.396ZM172.549 17.8233C172.549 14.4551 170.217 12.7199 166.416 12.7199H158.661V22.9796H166.569C170.37 22.9796 172.549 20.9399 172.549 17.9253V17.8233Z" fill="#FEFEFE"/>
<path d="M207.625 12.8722V41.3546H199.819V12.8722H189.023V5.62451H218.42V12.8722H207.625Z" fill="#FEFEFE"/>
<path d="M228.82 41.3546V5.62451H236.625V41.3546H228.82Z" fill="#FEFEFE"/>
<path d="M274.444 41.3546L257.263 18.646V41.3546H249.559V5.62451H256.756L273.377 27.6234V5.62451H281.082V41.3546H274.444Z" fill="#FEFEFE"/>
<path d="M312.914 41.3546V5.62451H320.72V34.2089H338.409V41.3546H312.914Z" fill="#FEFEFE"/>
<path d="M348.352 41.3546V5.62451H375.113V12.618H356.105V19.8657H372.832V26.8578H356.105V34.3612H375.366V41.3546H348.352Z" fill="#FEFEFE"/>
<path d="M404.557 41.6089H397.663L383.32 5.62451H391.936L401.211 30.789L410.486 5.62451H418.901L404.557 41.6089Z" fill="#FEFEFE"/>
<path d="M445.208 27.1134V41.3546H437.403V27.2671L423.766 5.62451H432.889L441.353 19.9677L449.972 5.62451H458.843L445.208 27.1134Z" fill="#FEFEFE"/>
<path d="M463.206 41.3542H460.064V33.1873H468.275V40.0774C468.275 46.8152 464.929 49.5212 458.899 49.6232L458.238 46.4072C461.737 46.0496 463.46 44.2628 463.206 41.3542Z" fill="#FEFEFE"/>
<path d="M515.617 41.9683C513.213 42.0077 510.825 41.5589 508.596 40.6487C506.368 39.7386 504.344 38.3857 502.646 36.6709C500.948 34.956 499.61 32.9143 498.712 30.6675C497.815 28.4206 497.376 26.0148 497.421 23.5933V23.4914C497.378 21.04 497.828 18.6052 498.744 16.3337C499.66 14.0623 501.024 12.0011 502.752 10.2746C504.481 8.54813 506.539 7.19198 508.802 6.28793C511.065 5.38389 513.486 4.95067 515.92 5.01439C518.506 4.88434 521.09 5.30847 523.502 6.25875C525.913 7.20903 528.097 8.66383 529.909 10.527L524.942 16.2939C522.56 13.8041 519.301 12.3563 515.869 12.2621C509.888 12.2621 505.581 17.2635 505.581 23.3894V23.4914C505.581 29.6105 509.787 34.7206 515.869 34.7206C519.919 34.7206 522.408 33.0888 525.195 30.5351L530.163 35.5881C528.377 37.6919 526.139 39.3594 523.619 40.4647C521.1 41.5699 518.363 42.0841 515.617 41.9683Z" fill="#FEFEFE"/>
<path d="M540.465 41.3546V5.62451H548.269V34.2089H565.958V41.3546H540.465Z" fill="#FEFEFE"/>
<path d="M589.682 41.9162C580.153 41.9162 574.324 36.5559 574.324 26.0419V5.62451H582.129V25.8379C582.129 31.6565 585.018 34.6671 589.782 34.6671C594.546 34.6671 597.435 31.7585 597.435 26.0922V5.62451H605.243V25.7863C605.243 36.6076 599.211 41.9162 589.682 41.9162Z" fill="#FEFEFE"/>
<path d="M639.816 0.623413L617.362 47.8874H610.824L633.278 0.623413H639.816Z" fill="#FEFEFE"/>
<path d="M668.951 41.3546L661.348 29.9214H655.211V41.3546H647.406V5.62451H663.626C671.988 5.62451 677.006 10.0656 677.006 17.4153V17.5173C677.12 19.9476 676.437 22.3483 675.064 24.3498C673.69 26.3513 671.701 27.8426 669.404 28.5943L678.07 41.3546H668.951ZM669.102 17.8233C669.102 14.4551 666.772 12.7199 662.969 12.7199H655.211V22.9796H663.118C666.919 22.9796 669.098 20.9399 669.098 17.9253L669.102 17.8233Z" fill="#FEFEFE"/>
<path d="M710.317 41.3546V27.0114H695.923V41.3546H688.117V5.62451H695.923V19.7664H710.317V5.62451H718.123V41.3546H710.317Z" fill="#FEFEFE"/>
<path d="M745.493 41.9162C735.965 41.9162 730.137 36.5559 730.137 26.0419V5.62451H737.941V25.8379C737.941 31.6565 740.83 34.6671 745.595 34.6671C750.36 34.6671 753.248 31.7585 753.248 26.0922V5.62451H761.054V25.7863C761.054 36.6076 755.022 41.9162 745.493 41.9162Z" fill="#FEFEFE"/>
<path d="M818.233 19.7284H782.586" stroke="#FEFEFE" stroke-width="2" stroke-miterlimit="10"/>
<path d="M818.233 28.4854H782.586" stroke="#FEFEFE" stroke-width="2" stroke-miterlimit="10"/>
<path d="M36.3425 19.7284H0.695312" stroke="#FEFEFE" stroke-width="2" stroke-miterlimit="10"/>
<path d="M36.3425 28.4854H0.695312" stroke="#FEFEFE" stroke-width="2" stroke-miterlimit="10"/>
</svg>
