<svg width="359" height="40" viewBox="0 0 359 40" fill="none" xmlns="http://www.w3.org/2000/svg">
<mask id="mask0_2596_1122" style="mask-type:luminance" maskUnits="userSpaceOnUse" x="0" y="0" width="359" height="40">
<path d="M358.956 0.0300293H0.605469V39.97H358.956V0.0300293Z" fill="white"/>
</mask>
<g mask="url(#mask0_2596_1122)">
<path d="M9.97701 40.0093C12.3787 40.1241 14.7416 39.2817 16.5235 37.7116C18.4603 35.7587 19.5062 33.1164 19.3512 30.3976V25.3812H13.1534V30.3976C13.2696 31.3932 12.9984 32.3889 12.3787 33.193C11.6814 33.6908 10.8679 33.9206 10.0157 33.8823C9.20228 33.9589 8.35008 33.7291 7.69156 33.193C7.03304 32.4272 6.72315 31.3932 6.83936 30.3976V9.6426C6.72315 8.64697 7.03304 7.61305 7.69156 6.84718C8.35008 6.34937 9.16354 6.11961 10.0157 6.19619C10.8679 6.11961 11.7201 6.34937 12.3787 6.88547C12.9984 7.68963 13.2696 8.68526 13.1534 9.68089V13.1273H19.3512V9.68089C19.5062 6.96206 18.4603 4.31982 16.5235 2.36685C14.7416 0.758533 12.3787 -0.0839219 9.97701 0.0309582C7.57535 -0.0456285 5.25116 0.758533 3.43055 2.32856C1.53247 4.28152 0.486584 6.92377 0.602793 9.6426V30.3976C0.486584 33.1164 1.49373 35.7587 3.43055 37.7116C5.25116 39.2817 7.57535 40.0858 9.97701 40.0093ZM41.8183 39.5497L40.695 33.3462H33.5675L32.4441 39.5497H26.1301L34.0323 0.490479H40.2301L48.1324 39.588H41.8183V39.5497ZM34.6521 27.2193H39.6104L37.1312 13.2039L34.6521 27.2193ZM78.2693 0.490479H81.8331V39.588H75.6352V20.0967L70.5995 33.4611H66.997L61.9613 20.135V39.6263H55.7634V0.490479H59.3272L68.8176 22.1645L78.2693 0.490479ZM107.244 6.61742H97.0565V16.4588H104.068V22.5858H97.0565V33.4228H107.205V39.5497H90.8199V0.490479H107.205V6.65571L107.244 6.61742ZM134.166 39.5497H127.813L124.598 23.8494H121.77V39.5497H115.572V0.490479H124.947C127.348 0.413892 129.711 1.21805 131.493 2.82638C133.469 4.74104 134.476 7.38329 134.321 10.1021V14.2761C134.476 16.9949 133.469 19.6755 131.493 21.5901C131.222 21.8582 130.912 22.0879 130.602 22.3177L134.166 39.588V39.5497ZM128.123 10.0638C128.239 9.0682 127.929 8.07257 127.271 7.26841C126.612 6.77059 125.799 6.54083 124.947 6.57913H121.77V17.6842H124.947C125.76 17.7608 126.612 17.531 127.271 16.9949C127.929 16.2291 128.239 15.1951 128.123 14.1995V10.0255V10.0638ZM151.404 40.0093C153.805 40.1241 156.168 39.2817 157.95 37.7116C159.887 35.7587 160.933 33.1164 160.778 30.3976V9.6426C160.933 6.92377 159.887 4.28152 157.95 2.32856C156.168 0.758533 153.805 -0.0839219 151.404 0.0309582C149.002 -0.0839219 146.639 0.758533 144.857 2.32856C142.92 4.28152 141.874 6.92377 142.029 9.6426V30.3976C141.874 33.1164 142.92 35.7587 144.857 37.7116C146.639 39.2817 149.002 40.1241 151.404 40.0093ZM151.404 6.1579C152.217 6.08131 153.069 6.31107 153.728 6.84718C154.386 7.61305 154.696 8.64697 154.58 9.6426V30.3976C154.696 31.3932 154.386 32.4272 153.728 33.193C153.069 33.6908 152.256 33.9589 151.404 33.8823C150.59 33.9589 149.738 33.6908 149.079 33.193C148.421 32.4272 148.111 31.3932 148.227 30.3976V9.6426C148.111 8.64697 148.421 7.61305 149.079 6.84718C149.738 6.34937 150.551 6.11961 151.404 6.1579ZM188.436 0.490479V39.588H184.833L175.343 19.7521V39.588H169.145V0.490479H172.747L182.238 20.2499V0.490479H188.436ZM223.027 0.490479H229.225V39.588H223.027V22.6241H216.713V39.588H210.515V0.490479H216.713V16.4588H223.027V0.490479ZM254.675 6.61742H244.526V16.4588H251.537V22.5858H244.526V33.4228H254.675V39.5497H238.289V0.490479H254.675V6.61742ZM281.635 39.5497H275.321L272.106 23.8494H269.279V39.5497H263.081V0.490479H272.455C274.857 0.413892 277.22 1.21805 279.001 2.82638C280.977 4.74104 281.984 7.38329 281.829 10.1021V14.2761C281.984 16.9949 280.977 19.6755 279.001 21.5901C278.73 21.8582 278.42 22.0879 278.11 22.3177L281.674 39.588L281.635 39.5497ZM275.593 10.0638C275.709 9.0682 275.399 8.07257 274.74 7.26841C274.082 6.77059 273.268 6.54083 272.416 6.57913H269.24V17.6842H272.416C273.23 17.7608 274.082 17.531 274.74 16.9949C275.399 16.2291 275.709 15.1951 275.593 14.1995V10.0255V10.0638ZM298.873 40.0093C301.275 40.1241 303.638 39.2817 305.42 37.7116C307.356 35.7587 308.402 33.1164 308.247 30.3976V9.6426C308.402 6.92377 307.356 4.28152 305.42 2.32856C303.638 0.758533 301.275 -0.0839219 298.873 0.0309582C296.472 -0.0839219 294.109 0.758533 292.327 2.32856C290.39 4.28152 289.344 6.92377 289.499 9.6426V30.3976C289.344 33.1164 290.39 35.7587 292.327 37.7116C294.109 39.2817 296.472 40.1241 298.873 40.0093ZM298.873 6.1579C299.687 6.08131 300.539 6.31107 301.197 6.84718C301.856 7.61305 302.166 8.64697 302.05 9.6426V30.3976C302.166 31.3932 301.856 32.4272 301.197 33.193C300.539 33.6908 299.725 33.9589 298.873 33.8823C298.06 33.9589 297.208 33.7291 296.549 33.193C295.891 32.4272 295.581 31.3932 295.697 30.3976V9.6426C295.581 8.64697 295.891 7.61305 296.549 6.84718C297.208 6.34937 298.021 6.11961 298.873 6.19619V6.1579ZM333.155 39.5497V33.4228H323.006V0.490479H316.808V39.588H333.194L333.155 39.5497ZM350.044 39.5497C352.407 39.6646 354.731 38.8987 356.552 37.367C357.52 36.5246 358.295 35.4523 358.76 34.227C359.225 32.925 359.457 31.5464 359.457 30.1679V10.1021C359.612 7.38329 358.605 4.74104 356.629 2.82638C354.847 1.21805 352.484 0.375599 350.083 0.490479H340.709V39.588H350.083L350.044 39.5497ZM346.868 6.61742H350.044C350.857 6.54083 351.71 6.77059 352.368 7.3067C353.027 8.11086 353.298 9.10649 353.22 10.1021V30.2061C353.337 31.1635 353.065 32.1208 352.446 32.8484C351.748 33.3462 350.896 33.5377 350.083 33.4611H346.906V6.61742H346.868Z" fill="white"/>
</g>
</svg>
