<svg width="389" height="36" viewBox="0 0 389 36" fill="none" xmlns="http://www.w3.org/2000/svg">
<path d="M11.9374 23.228H3.77017V35.1185H0.046875V1.48877H12.5379C20.1046 1.48877 25.1491 5.57238 25.1491 12.1782C25.1491 19.3846 19.1438 23.228 11.9374 23.228ZM12.2977 4.97185H3.77017V19.7449H12.0575C17.5824 19.7449 21.3057 16.7423 21.3057 12.2983C21.3057 7.37398 17.7025 4.97185 12.2977 4.97185Z" fill="white"/>
<path d="M60.1014 34.9989H56.0178L52.0543 26.111H33.678L29.7145 34.9989H25.8711L41.1246 1.12891H44.7278L60.1014 34.9989ZM42.9262 5.57284L35.2394 22.748H50.613L42.9262 5.57284Z" fill="white"/>
<path d="M75.1139 34.9989H71.2705V4.97233H59.9805V1.36914H86.4039V4.85222H75.1139V34.9989Z" fill="white"/>
<path d="M116.665 34.9989L106.936 21.9073H97.3278V34.9989H93.4844V1.36914H107.897C115.344 1.36914 120.028 5.33265 120.028 11.4581C120.028 17.1031 116.184 20.3459 110.9 21.3068L121.229 34.9989H116.665ZM107.657 4.97233H97.3278V18.6644H107.657C112.701 18.6644 116.305 16.0221 116.305 11.6983C116.305 7.37446 113.062 4.97233 107.657 4.97233Z" fill="white"/>
<path d="M132.406 1.36914V34.9989H128.562V1.36914H132.406Z" fill="white"/>
<path d="M157.623 35.5983C147.895 35.5983 140.809 27.9115 140.809 18.303C140.809 8.69448 147.895 0.887573 157.864 0.887573C163.989 0.887573 167.592 3.04949 170.955 6.17225L168.313 8.9347C165.43 6.29236 162.308 4.37066 157.744 4.37066C150.297 4.37066 144.772 10.376 144.772 18.1829C144.772 25.9898 150.417 32.1152 157.744 32.1152C162.308 32.1152 165.43 30.3136 168.553 27.311L171.075 29.7131C167.472 33.3163 163.629 35.5983 157.623 35.5983Z" fill="white"/>
<path d="M206.264 34.9989H201.46L188.608 18.7846L181.402 25.9909V34.9989H177.559V1.36914H181.402V21.4269L200.739 1.36914H205.663L191.251 16.0221L206.264 34.9989Z" fill="white"/>
<path d="M227.288 35.5983C224.765 35.5983 222.483 35.1179 220.441 34.2771C218.28 33.4364 216.478 32.1152 214.917 30.5538C213.355 28.9924 212.154 27.1909 211.313 25.0289C210.473 22.867 209.992 20.7051 209.992 18.303V18.1829C209.992 15.7808 210.473 13.4987 211.313 11.4569C212.154 9.41512 213.355 7.49342 214.917 5.93204C216.478 4.37066 218.28 3.04949 220.441 2.20874C222.603 1.24789 225.005 0.887573 227.528 0.887573C229.089 0.887573 230.53 1.00768 231.852 1.24789C233.173 1.4881 234.374 1.84842 235.335 2.32885C236.416 2.80927 237.376 3.2897 238.217 4.01034C239.058 4.73097 239.899 5.33151 240.739 6.17225L236.055 11.577C234.734 10.376 233.413 9.41512 232.092 8.81459C230.771 8.09395 229.209 7.85374 227.528 7.85374C226.086 7.85374 224.765 8.09395 223.564 8.69448C222.363 9.29502 221.282 10.0157 220.441 10.9765C219.601 11.9374 218.88 13.0183 218.4 14.3395C217.919 15.6606 217.679 16.9818 217.679 18.4231V18.5432C217.679 19.9845 217.919 21.3056 218.4 22.6268C218.88 23.948 219.601 25.0289 220.441 25.9898C221.282 26.9506 222.363 27.6713 223.564 28.2718C224.765 28.8723 226.086 29.1126 227.528 29.1126C229.449 29.1126 231.131 28.7522 232.452 28.0316C233.773 27.311 235.094 26.3501 236.416 25.149L241.1 29.9533C240.259 30.9141 239.298 31.7549 238.457 32.4755C237.497 33.1962 236.536 33.7967 235.455 34.3972C234.374 34.8777 233.173 35.3581 231.852 35.5983C230.29 35.4782 228.849 35.5983 227.288 35.5983Z" fill="white"/>
<path d="M263.314 35.5983C260.671 35.5983 258.389 35.1179 256.107 34.2771C253.946 33.3163 252.024 32.1152 250.462 30.5538C248.901 28.9924 247.7 27.1909 246.739 25.0289C245.898 22.9871 245.418 20.7051 245.418 18.303V18.1829C245.418 15.7808 245.898 13.4987 246.739 11.4569C247.58 9.41512 248.901 7.49342 250.462 5.93204C252.024 4.37066 253.946 3.04949 256.107 2.20874C258.269 1.24789 260.671 0.887573 263.314 0.887573C265.956 0.887573 268.238 1.368 270.52 2.20874C272.802 3.04949 274.604 4.37066 276.165 5.93204C277.727 7.49342 278.928 9.29501 279.888 11.4569C280.729 13.4987 281.21 15.7808 281.21 18.1829V18.303C281.21 20.7051 280.729 22.9871 279.888 25.0289C279.048 27.0707 277.727 28.9924 276.165 30.5538C274.604 32.1152 272.682 33.4364 270.52 34.2771C268.238 35.1179 265.836 35.5983 263.314 35.5983ZM263.314 28.7522C264.755 28.7522 266.196 28.512 267.397 27.9115C268.598 27.311 269.679 26.5903 270.64 25.6295C271.601 24.6686 272.202 23.5877 272.682 22.2665C273.163 20.9453 273.403 19.6242 273.403 18.1829V18.0628C273.403 16.6215 273.163 15.3003 272.682 13.9792C272.202 12.658 271.481 11.577 270.52 10.6162C269.559 9.65533 268.478 8.9347 267.277 8.33416C266.076 7.73363 264.635 7.49342 263.194 7.49342C261.632 7.49342 260.311 7.73363 259.11 8.33416C257.909 8.9347 256.828 9.65533 255.987 10.6162C255.147 11.577 254.426 12.658 253.946 13.9792C253.465 15.3003 253.225 16.6215 253.225 18.0628V18.1829C253.225 19.6242 253.465 20.9453 253.946 22.2665C254.426 23.5877 255.147 24.6686 256.107 25.6295C257.068 26.5903 258.149 27.311 259.35 27.9115C260.431 28.512 261.873 28.7522 263.314 28.7522Z" fill="white"/>
<path d="M287.819 1.36914H295.746L304.634 15.5417L313.522 1.36914H321.449V34.9989H314.123V13.1396L304.634 27.5523H304.394L295.026 13.3798V35.2391H287.699V1.36914H287.819Z" fill="white"/>
<path d="M329.496 1.36914H345.11C348.953 1.36914 351.956 2.32999 353.878 4.3718C355.439 5.93318 356.16 7.85488 356.16 10.1369V10.257C356.16 11.2179 356.04 12.0586 355.799 12.7792C355.559 13.4999 355.199 14.2205 354.839 14.821C354.478 15.4216 353.998 15.902 353.397 16.3824C352.797 16.8629 352.316 17.2232 351.716 17.5835C353.637 18.3041 355.199 19.265 356.28 20.5861C357.361 21.9073 357.961 23.5888 357.961 25.8708V25.9909C357.961 27.5523 357.721 28.8735 357.121 30.0745C356.52 31.2756 355.679 32.2365 354.598 32.9571C353.517 33.6777 352.196 34.2783 350.635 34.6386C349.073 34.9989 347.392 35.2391 345.47 35.2391H329.496V1.36914ZM343.549 15.0613C345.23 15.0613 346.431 14.821 347.392 14.2205C348.353 13.62 348.833 12.7792 348.833 11.4581V11.338C348.833 10.257 348.473 9.41626 347.632 8.81573C346.791 8.2152 345.59 7.97499 344.029 7.97499H336.702V15.0613H343.549ZM345.47 28.5132C347.152 28.5132 348.353 28.2729 349.314 27.6724C350.274 27.0719 350.755 26.111 350.755 24.91V24.7899C350.755 23.7089 350.274 22.7481 349.434 22.1475C348.593 21.547 347.152 21.1867 345.23 21.1867H336.702V28.6333H345.47V28.5132Z" fill="white"/>
<path d="M376.218 35.4791C373.696 35.4791 371.174 34.9987 368.652 34.158C366.13 33.3172 363.968 31.876 361.926 30.0744L366.25 24.7897C367.811 25.9907 369.372 27.0717 370.934 27.7923C372.495 28.513 374.297 28.8733 376.218 28.8733C377.78 28.8733 378.981 28.6331 379.822 28.0326C380.662 27.432 381.143 26.7114 381.143 25.7505V25.6304C381.143 25.15 381.023 24.6696 380.903 24.3093C380.782 23.9489 380.422 23.5886 379.942 23.2283C379.461 22.868 378.741 22.6278 377.9 22.2675C377.059 21.9071 375.858 21.6669 374.417 21.3066C372.735 20.9463 371.174 20.4659 369.733 19.8653C368.291 19.3849 367.21 18.6643 366.25 17.9436C365.289 17.223 364.568 16.2621 363.968 15.1812C363.487 14.1002 363.127 12.6589 363.127 10.9775V10.8574C363.127 9.29597 363.367 7.9748 363.968 6.65363C364.568 5.45257 365.289 4.37161 366.37 3.41076C367.451 2.57002 368.652 1.84938 370.093 1.36895C371.534 0.888528 373.096 0.648315 374.897 0.648315C377.42 0.648315 379.581 1.00863 381.743 1.72927C383.785 2.44991 385.707 3.53087 387.388 4.85204L383.545 10.3769C381.984 9.29597 380.542 8.57533 379.101 7.9748C377.66 7.37427 376.218 7.13406 374.777 7.13406C373.336 7.13406 372.255 7.37427 371.534 7.9748C370.814 8.57533 370.453 9.17586 370.453 10.0166V10.1367C370.453 10.7372 370.573 11.0976 370.814 11.578C371.054 11.9383 371.414 12.2986 371.895 12.6589C372.495 13.0193 373.216 13.2595 374.177 13.6198C375.137 13.86 376.339 14.2203 377.78 14.5806C379.461 15.0611 381.023 15.5415 382.344 16.142C383.665 16.7426 384.746 17.3431 385.707 18.1838C386.668 19.0246 387.268 19.8653 387.749 20.9463C388.229 22.0272 388.469 23.2283 388.469 24.7897V24.9098C388.469 26.5913 388.109 28.0326 387.508 29.3537C386.908 30.6749 386.067 31.7558 384.986 32.5966C383.905 33.4373 382.584 34.158 381.143 34.6384C379.702 35.2389 378.02 35.4791 376.218 35.4791Z" fill="white"/>
</svg>
