<svg width="535" height="70" viewBox="0 0 535 70" fill="none" xmlns="http://www.w3.org/2000/svg">
<path d="M145.834 42.5244L148.098 38.6038C148.596 39.1289 149.194 39.5518 149.859 39.8481C150.524 40.1444 151.242 40.3082 151.971 40.33C152.487 40.3578 153.003 40.2763 153.485 40.0911C153.966 39.9059 154.401 39.6212 154.762 39.2563C155.122 38.8914 155.398 38.4547 155.573 37.9757C155.747 37.4967 155.815 36.9864 155.772 36.4793V20.4341H160.959V36.5505C160.959 42.2342 157.381 44.8585 152.374 44.8585C151.182 44.9121 149.99 44.7336 148.868 44.3331C147.746 43.9325 146.715 43.3179 145.834 42.5244Z" fill="white"/>
<path d="M185.173 44.4286L183.678 40.3656H173.231L171.697 44.4286H165.777L175.205 20.4276H181.709L191.098 44.4286H185.173ZM178.452 25.543L174.651 35.8674H182.25L178.452 25.543Z" fill="white"/>
<path d="M195.482 41.0487L198.295 37.1624C199.296 38.1902 200.499 39.0072 201.83 39.5637C203.161 40.1202 204.593 40.4047 206.039 40.3999C208.888 40.3999 210.277 39.1062 210.277 37.7387C210.277 33.4923 196.247 36.4081 196.247 27.3774C196.247 23.3842 199.755 20.0742 205.489 20.0742C208.974 19.9441 212.377 21.1425 214.988 23.4198L212.104 27.1611C210.156 25.4461 207.628 24.5097 205.015 24.5355C202.786 24.5355 201.543 25.5061 201.543 26.9448C201.543 30.7599 215.537 28.2042 215.537 37.1624C215.537 41.5511 212.358 44.8612 205.784 44.8612C203.893 44.9503 202.004 44.6581 200.233 44.0025C198.462 43.3468 196.845 42.3417 195.482 41.0487Z" fill="white"/>
<path d="M221.162 32.4505C221.137 29.9651 221.863 27.5285 223.247 25.4501C224.632 23.3717 226.612 21.7455 228.938 20.778C231.263 19.8105 233.828 19.5455 236.307 20.0166C238.785 20.4876 241.066 21.6735 242.858 23.4236C244.651 25.1737 245.875 27.4089 246.374 29.8453C246.873 32.2817 246.626 34.8093 245.663 37.1069C244.7 39.4045 243.065 41.3684 240.966 42.7491C238.867 44.1298 236.399 44.865 233.874 44.8612C232.196 44.9264 230.522 44.6508 228.957 44.0516C227.392 43.4524 225.969 42.5424 224.777 41.3782C223.584 40.214 222.648 38.8205 222.026 37.2846C221.404 35.7487 221.11 34.1032 221.162 32.4505ZM241.293 32.4505C241.293 27.9536 238.37 24.5711 233.874 24.5711C229.378 24.5711 226.494 27.9536 226.494 32.4505C226.494 36.9105 229.382 40.33 233.874 40.33C238.366 40.33 241.293 36.9105 241.293 32.4505Z" fill="white"/>
<path d="M270.614 44.4286L258.997 28.7805V44.4286H253.811V20.4276H259.143L270.433 35.5008V20.4276H275.621V44.4286H270.614Z" fill="white"/>
<path d="M313.056 44.4286V34.3561H301.553V44.4286H296.367V20.4276H301.553V29.8526H313.061V20.4276H318.285V44.4286H313.056Z" fill="white"/>
<path d="M326.742 44.4286V20.4276H343.985V24.9245H331.931V29.9964H343.733V34.4932H331.931V39.9264H343.985V44.422L326.742 44.4286Z" fill="white"/>
<path d="M368.716 44.4286L357.099 28.7805V44.4286H351.914V20.4276H357.246L368.537 35.5008V20.4276H373.724V44.4286H368.716Z" fill="white"/>
<path d="M399.008 44.4286L387.39 28.7805V44.4286H382.203V20.4276H387.54L398.831 35.5008V20.4276H404.015V44.4286H399.008Z" fill="white"/>
<path d="M412.492 44.4286V20.4276H429.73V24.9245H417.676V29.9964H429.478V34.4932H417.676V39.9264H429.73V44.422L412.492 44.4286Z" fill="white"/>
<path d="M435.848 41.0487L438.66 37.1624C439.661 38.1903 440.864 39.0073 442.196 39.5638C443.527 40.1204 444.959 40.4048 446.406 40.3999C449.253 40.3999 450.642 39.1062 450.642 37.7387C450.642 33.4923 436.612 36.4081 436.612 27.3773C436.612 23.3842 440.12 20.0742 445.854 20.0742C449.34 19.9442 452.742 21.1426 455.353 23.4198L452.468 27.1611C450.52 25.446 447.992 24.5096 445.379 24.5355C443.15 24.5355 441.907 25.506 441.907 26.9448C441.907 30.7599 455.902 28.2042 455.902 37.1624C455.902 41.5511 452.724 44.8612 446.147 44.8612C444.257 44.9504 442.369 44.6582 440.597 44.0026C438.826 43.347 437.21 42.3418 435.848 41.0487Z" fill="white"/>
<path d="M461.15 41.0487L463.963 37.1624C464.964 38.1903 466.167 39.0073 467.498 39.5638C468.83 40.1204 470.262 40.4048 471.709 40.3999C474.556 40.3999 475.945 39.1062 475.945 37.7387C475.945 33.4923 461.915 36.4081 461.915 27.3773C461.915 23.3842 465.423 20.0742 471.157 20.0742C474.642 19.9442 478.045 21.1426 480.656 23.4198L477.771 27.1611C475.823 25.446 473.294 24.5096 470.681 24.5355C468.453 24.5355 467.21 25.506 467.21 26.9448C467.21 30.7599 481.205 28.2042 481.205 37.1624C481.205 41.5511 478.026 44.8612 471.45 44.8612C469.56 44.9504 467.671 44.6582 465.9 44.0026C464.129 43.347 462.513 42.3418 461.15 41.0487Z" fill="white"/>
<path d="M488.301 44.4286V20.4276H505.545V24.9245H493.491V29.9964H505.292V34.4932H493.484V39.9264H505.538V44.422L488.301 44.4286Z" fill="white"/>
<path d="M520.296 44.4286V34.608L510.904 20.4341H516.824L522.889 30.0755L528.88 20.4341H534.801L525.483 34.608V44.4286H520.296Z" fill="white"/>
<path d="M92.2014 35.0234C92.9073 34.819 93.5596 34.6621 94.1877 34.4405C95.6128 33.9381 97.0808 33.5754 98.534 33.1679C98.9639 33.0479 99.414 32.9886 99.8318 32.8396C100.208 32.7077 100.386 32.7565 100.405 33.1719C100.405 33.2589 100.488 33.3433 100.539 33.4515C100.548 33.3196 100.601 33.1877 100.555 33.1218C100.287 32.7103 100.579 32.7262 100.847 32.7473C101.158 32.7736 101.371 32.5402 101.677 32.4914C102.328 32.2991 103.011 32.2342 103.687 32.3002C103.997 31.8585 104.47 32.1472 104.813 32.1512C105.537 32.1137 106.258 32.0318 106.972 31.9059C107.768 31.8202 108.561 31.8439 109.349 31.774C109.783 31.7013 110.226 31.6889 110.663 31.7371C111.021 31.8833 111.41 31.9412 111.796 31.9059C111.869 32.1393 111.596 32.3107 111.737 32.5151C111.855 32.6866 111.687 32.6272 111.636 32.6325C111.141 32.6852 110.659 32.9134 110.203 32.9359C109.884 32.9448 109.567 32.9721 109.252 33.0176C108.764 33.031 108.289 33.1805 107.884 33.4488C107.746 33.553 107.587 33.6271 107.417 33.6662C107.248 33.7053 107.072 33.7085 106.901 33.6756C106.882 33.6341 106.881 33.5873 106.896 33.5444C106.911 33.5016 106.942 33.466 106.983 33.4449C107.168 33.313 107.014 33.1811 106.929 33.1178C106.763 32.986 106.807 33.1956 106.758 33.2497C106.724 33.2893 106.673 33.3552 106.643 33.3486C106.268 33.3324 105.896 33.4052 105.556 33.5609C105.242 33.6348 104.879 33.5253 104.742 33.9473C104.727 33.9908 104.668 34.0212 104.629 34.0581C104.228 33.4871 104.123 34.2889 103.78 34.2401C103.4 34.2429 103.023 34.3038 102.662 34.4207C102.61 34.43 102.528 34.4431 102.504 34.4207C102.063 34.0132 101.617 34.3865 101.174 34.4062C101.157 34.4098 101.142 34.4192 101.131 34.4326C100.934 34.6885 100.894 34.037 100.68 34.36C100.579 34.513 100.435 34.6502 100.633 34.8282C100.385 34.9488 100.124 35.0421 99.8559 35.1065C99.0322 35.2199 98.2875 35.5891 97.4732 35.7527C96.5267 35.9711 95.5957 36.2499 94.686 36.5874C93.6734 36.9316 92.6769 37.3299 91.6751 37.6952C91.4166 37.7888 91.1393 37.8349 90.8715 37.9207C89.9232 38.2292 89.5696 39.097 89.0954 39.825C87.9797 41.5393 86.7891 43.1943 85.5582 44.8256C85.4108 45.0221 85.2501 45.3175 85.088 45.3768C84.4184 45.6194 84.5255 46.4226 83.971 46.7457C83.8116 46.8393 83.6884 47.078 83.4822 47.1848C83.4246 47.2152 83.3174 47.2362 83.3134 47.2718C83.1915 48.1422 82.3906 48.5286 81.8963 49.1181C80.9622 50.1317 79.9675 51.0894 78.9176 51.9864C78.0564 52.7868 77.0867 53.4857 76.3179 54.3535C75.6214 55.1447 74.6517 55.5272 73.9592 56.2644C73.7906 56.409 73.5857 56.5064 73.3659 56.5466C72.869 56.7101 72.644 57.1057 72.3399 57.4262C72.1544 57.5721 71.9452 57.6861 71.7211 57.7637C71.3166 58.0521 70.9334 58.3685 70.5746 58.7106C70.1581 59.087 69.6913 59.4056 69.187 59.6575C68.1018 60.1581 67.056 60.7378 66.0583 61.3916C64.6315 62.1334 63.1547 62.778 61.6384 63.3209C60.6606 63.7848 59.548 63.8946 58.4962 63.6308C58.0315 63.553 57.6157 63.3005 57.3363 62.9266C57.1299 62.5131 57.0957 62.0366 57.2412 61.5986C57.5383 60.4617 57.9713 59.3634 58.531 58.3268C58.9252 57.4617 59.3939 56.6314 59.932 55.845C60.4409 55.1781 60.9836 54.5368 61.558 53.9236C62.2273 53.108 62.9604 52.3452 63.7505 51.6422C64.7069 50.752 65.7301 49.9278 66.7574 49.1181C67.3501 48.7605 67.8753 48.3045 68.3098 47.7703C68.3189 47.7552 68.3312 47.7421 68.3459 47.7321C69.9532 46.6125 71.4091 45.2779 73.0927 44.252C73.832 43.8009 74.566 43.3394 75.2999 42.8818C75.7597 42.552 76.2666 42.2911 76.804 42.1076C77.1737 42.0035 77.4228 41.5591 77.8099 41.3732C77.9439 41.3086 78.0416 41.1543 78.2492 41.3151C78.4984 41.5077 78.4756 41.1529 78.576 41.0685C79.009 40.7057 79.5001 40.416 80.0293 40.2113C80.565 40.0043 81.003 39.54 81.6365 39.5836C81.68 39.5803 81.7224 39.5687 81.7612 39.5492C81.8001 39.5297 81.8346 39.5029 81.8629 39.4702C82.495 38.7778 83.4808 38.7436 84.1933 38.2741C84.9288 37.911 85.6825 37.5849 86.4515 37.2969C87.1434 36.9699 87.854 36.6827 88.5798 36.4371C88.6293 36.4173 88.703 36.4094 88.7218 36.3738C88.9562 35.936 89.7209 35.8305 89.5254 35.1315C89.4879 34.9997 89.5883 34.9456 89.6593 34.8678C90.0611 34.4194 90.1214 33.7152 90.7656 33.4528C90.7067 32.8224 91.3737 32.5218 91.4608 31.9376C91.5764 31.5113 91.7777 31.1121 92.0528 30.7639C92.328 30.2395 92.5557 29.6924 92.7332 29.1286C93.3564 27.7968 93.689 26.3511 93.7096 24.8849C93.7231 24.7573 93.6901 24.6292 93.6164 24.5234C93.5428 24.4176 93.4334 24.341 93.3078 24.3073C92.5807 24.0545 91.8139 23.9309 91.0429 23.9421C90.3401 23.9038 89.6355 23.917 88.9347 23.9816C88.0722 24.1332 87.1935 23.8629 86.3283 24.0712C85.9228 24.1141 85.5137 24.1141 85.1082 24.0712C83.7045 24.0937 82.3089 24.2111 80.9092 24.2796C80.3922 24.3047 79.8699 24.2678 79.3529 24.2968C77.8166 24.3838 76.2951 24.6001 74.7682 24.7874C73.3014 25.0004 71.8617 25.3655 70.4729 25.8766C68.995 26.3753 67.545 26.9511 66.1293 27.6015C65.2054 28.0886 64.2298 28.4738 63.2202 28.7502C62.2398 29.0374 61.2096 29.1218 60.1945 28.9981C59.4739 28.8583 58.7212 29.1036 58.0355 28.7343C57.8809 28.6847 57.7146 28.6824 57.5587 28.7277C56.7833 28.831 56.0155 28.9839 55.2603 29.1854C54.1067 29.5744 52.9975 30.0809 51.9507 30.6966C51.3478 31.0816 50.6229 31.2363 49.9122 31.1318C49.6349 31.0764 49.4005 30.8087 49.1487 30.636C49.0456 30.5591 48.9166 30.5235 48.7879 30.5365C48.6591 30.5494 48.5402 30.6099 48.4549 30.7058C48.0656 31.1237 47.5741 31.4366 47.0272 31.6145C46.4566 32.0404 45.7865 32.3183 45.0784 32.4228C44.6334 32.4574 44.1863 32.3887 43.7732 32.2222C43.36 32.0556 42.9923 31.796 42.6997 31.4641C42.2858 30.9867 42.2068 30.996 41.9845 31.567C41.4166 33.0268 40.6839 34.4129 40.0651 35.8476C39.6995 36.6943 39.228 37.4947 38.8597 38.34C38.1753 39.9119 37.4092 41.4496 36.8721 43.0875C36.8186 43.2105 36.738 43.3201 36.636 43.4084C36.534 43.4968 36.4133 43.5615 36.2826 43.5981C36.1519 43.6346 36.0146 43.642 35.8807 43.6195C35.7468 43.5971 35.6197 43.5456 35.5086 43.4686C35.2983 43.2787 35.0237 43.2049 34.8389 42.9411C34.2777 42.1406 34.7505 41.4549 35.013 40.7494C35.4148 39.6641 36.0229 38.6645 36.4863 37.6029C37.1922 35.9716 37.9985 34.3891 38.7834 32.7961C38.8004 32.765 38.8074 32.7295 38.8035 32.6945C38.7392 32.4162 39.1825 32.2382 39.0017 31.9837C38.8008 31.7041 38.5275 32.0167 38.2784 32.0127C37.616 32.0665 36.9529 31.9167 36.3805 31.5841C36.0064 31.351 35.7365 30.9863 35.6258 30.5642C35.5151 30.1421 35.5718 29.6943 35.7845 29.3119C36.043 28.8609 36.1689 28.3374 36.4113 27.8745C36.8453 27.049 37.3744 26.2538 37.7507 25.4203C38.0814 24.7316 38.3611 24.0203 38.5878 23.2919C38.6609 22.8154 38.8871 22.3744 39.2334 22.0338C39.3663 21.9213 39.4499 21.7625 39.4664 21.5907C39.584 20.8649 39.7923 20.1562 40.0866 19.4808C40.2494 18.8901 40.5155 18.3318 40.8728 17.831C41.1125 17.5672 41.0067 17.0859 41.1406 16.6995C41.4085 15.8516 41.7929 15.0537 42.1238 14.2335C42.3354 13.706 42.6501 13.2325 42.8537 12.6971C43.028 12.3309 43.2398 11.9831 43.4859 11.6593C44.0892 10.5679 44.7509 9.50877 45.4682 8.48638C45.8351 7.93184 46.2751 7.42769 46.7767 6.98703C47.129 6.73515 47.433 6.59141 47.8281 6.87362C48.1634 7.04473 48.4779 7.25262 48.7657 7.49339C49.0054 7.83497 49.1724 8.22083 49.2566 8.62764C49.3409 9.03446 49.3406 9.45378 49.2559 9.8605C49.2003 10.5288 49.0837 11.1909 48.9077 11.8386C48.6626 12.7736 48.4282 13.7139 48.1308 14.633C47.4745 16.6665 46.7821 18.6882 46.103 20.7138C45.8512 21.4628 45.5673 22.2026 45.3556 22.9648C45.1603 23.7781 44.8913 24.5726 44.552 25.3386C44.2213 26.3882 43.8098 27.4114 43.3211 28.3994C43.2441 28.5048 43.2026 28.6314 43.2026 28.7614C43.2026 28.8913 43.2441 29.0179 43.3211 29.1234C43.4712 29.3542 43.6091 29.6008 43.7725 29.8105C44.0779 30.2061 44.5078 29.9766 44.8186 29.8105C45.9056 29.3053 46.8985 28.6237 47.7558 27.7941C48.1081 27.4156 48.7777 27.4881 49.3938 27.889C49.499 27.943 49.5952 28.0123 49.6791 28.0947C50.0367 28.7937 50.46 28.3849 50.8846 28.191C52.2777 27.4713 53.7572 26.9273 55.2884 26.5716C55.9944 26.4532 56.7061 26.3699 57.4207 26.3224C58.0977 26.3284 58.7707 26.4243 59.4217 26.6072C60.42 26.7435 61.4369 26.638 62.3844 26.2999C64.1671 25.7869 65.7743 24.8757 67.486 24.2058C68.7606 23.6536 70.0664 23.174 71.397 22.7696C72.9922 22.3788 74.6139 22.1016 76.2495 21.9402C76.871 21.8677 77.4845 21.8822 78.0992 21.8426C79.4654 21.7543 80.8369 21.8228 82.1977 21.7266C83.5585 21.6303 84.9447 21.5749 86.3203 21.5235C87.2578 21.4879 88.186 21.4193 89.1222 21.4312C90.1778 21.395 91.2345 21.4625 92.2764 21.6329C93.516 21.9397 94.629 22.6164 95.4628 23.5702C95.7999 24.0072 95.9875 24.5381 95.9986 25.0867C96.04 26.1589 95.9199 27.2313 95.6423 28.2688C95.5741 28.5147 95.466 28.748 95.3222 28.9598C94.9454 29.6607 94.61 30.3823 94.3176 31.1212C94.0042 31.8136 93.6105 32.4717 93.2461 33.1416C92.9113 33.7574 92.5778 34.3482 92.2014 35.0234ZM74.5472 53.222C74.7441 53.404 74.8218 53.2602 74.8365 53.0901C74.8449 53.0204 74.8704 52.9538 74.9108 52.8959C74.9511 52.838 75.0052 52.7906 75.0682 52.7578C75.47 52.4822 75.5625 51.7846 76.2509 51.8783C76.3567 51.2716 76.9447 51.058 77.3063 50.6676C77.7617 50.1731 78.1555 49.5546 78.9136 49.4253C78.9511 49.4253 79.0127 49.3581 79.0073 49.333C78.8828 48.7673 79.3435 48.4851 79.677 48.2437C80.5105 47.4714 81.2787 46.6334 81.974 45.7382C82.4139 45.3286 82.8024 44.8686 83.1312 44.368C83.3625 43.9899 83.6506 43.6484 83.9857 43.3552C84.0863 43.2849 84.1681 43.1917 84.2242 43.0836C84.5342 42.5457 84.8995 42.0406 85.3144 41.5762C85.4202 41.4444 85.5381 41.6131 85.6533 41.6263C85.8475 41.6474 85.9667 41.5406 85.8756 41.3955C85.5903 40.9393 86.0296 40.6676 86.1287 40.3142C86.1475 40.2522 86.2627 40.0504 86.4314 40.2588C86.552 40.4078 86.6056 40.2087 86.6779 40.1573C86.8359 40.0426 86.6699 39.9502 86.6404 39.8473C86.5788 39.6258 86.4689 39.8223 86.4221 39.8407C84.8403 40.4236 83.3844 41.2703 81.8682 41.9785C80.7023 42.5577 79.5689 43.1982 78.4729 43.8972C76.4947 45.0841 74.5646 46.3606 72.6574 47.6596C71.4752 48.5018 70.3392 49.4051 69.254 50.3656C67.7004 51.6844 66.1346 52.9833 64.7002 54.426C63.8411 55.2804 63.0524 56.2007 62.3415 57.1782C61.4716 58.3651 60.7855 59.6726 60.3057 61.058C60.2441 61.2387 60.2347 61.3969 60.4879 61.3481C61.8382 61.0809 63.1435 60.6277 64.3653 60.0017C65.8361 59.2738 67.2591 58.4559 68.6259 57.5528C69.3773 57.1137 70.0912 56.6153 70.7608 56.0626C71.0032 55.8358 71.2604 55.4797 71.7185 55.6472C71.8189 55.6841 71.9301 55.543 71.9221 55.5153C71.7975 55.1988 72.1109 55.1381 72.2475 55.0115C72.8127 54.4841 73.4074 53.9935 73.9887 53.4858C74.1386 53.3373 74.3358 53.2442 74.5472 53.222ZM46.8812 11.0619L46.7231 10.9815C46.6776 11.4971 46.245 11.7226 45.9932 12.0892C44.8569 13.8554 43.8645 15.7074 43.0251 17.6279C42.2014 19.366 41.4688 21.141 40.6143 22.8725C39.9488 23.9351 39.3546 25.0395 38.8356 26.1786C38.5182 27.1017 38.3132 28.0539 38.032 28.9836C38.0092 29.0561 38.0655 29.1484 38.0628 29.2302C38.0561 29.4847 38.1739 29.5506 38.3869 29.428C38.886 29.2057 39.4002 29.018 39.9258 28.8662C40.3809 28.7012 40.7524 28.3675 40.9612 27.9365C41.5291 26.7299 42.0728 25.5126 42.5604 24.2704C42.6551 23.9995 42.7259 23.7211 42.772 23.4383C42.9314 22.6734 43.5314 22.1288 43.6814 21.3283C43.8663 20.3432 44.4677 19.4623 44.7529 18.4825C44.9954 17.6569 45.3182 16.8538 45.57 16.0296C45.8472 15.1197 46.036 14.1834 46.3736 13.2919C46.5979 12.5618 46.7675 11.8164 46.8812 11.0619Z" fill="white"/>
<path d="M25.4291 8.78046C24.7973 9.46065 24.2571 10.2181 23.8219 11.0342C22.52 13.0123 21.2771 15.0366 19.9725 17.0147C18.4054 19.3884 16.8786 21.7766 15.503 24.2598C15.045 25.088 14.5896 25.9227 14.1235 26.739C13.4993 27.8283 12.918 28.9374 12.3635 30.057C11.968 30.8297 11.6431 31.6356 11.3925 32.465C11.2701 32.7655 11.092 33.0409 10.8675 33.2773C10.6866 33.524 10.4054 33.6137 10.1857 33.2273C10.1107 33.0954 10.1268 32.8738 9.78392 32.883C9.46782 32.8909 9.2629 31.9099 9.3821 31.5855C9.81722 30.7934 10.1712 29.9607 10.4389 29.0996C10.5045 28.6882 10.909 28.3585 11.0657 27.9233C11.2867 27.3074 11.7997 26.8392 12.0193 26.197C12.2866 25.5892 12.6117 25.0077 12.9904 24.4603C13.5542 23.4818 14.1262 22.5085 14.6592 21.5116C15.1213 20.6465 15.6624 19.7972 16.2062 18.9664C17.0607 17.6582 17.8751 16.3289 18.7242 15.0168C19.4502 13.8932 20.2243 12.7986 20.9355 11.6659C21.8463 10.2152 22.6606 8.70133 23.6209 7.28368C24.6657 5.74076 25.6126 4.13584 26.731 2.63775C27.2241 2.09354 27.6045 1.45968 27.8507 0.771762C27.9318 0.508657 28.1113 0.285702 28.353 0.147889C28.5946 0.0100753 28.8804 -0.0323076 29.1525 0.0293277C29.4161 0.139027 29.6513 0.305773 29.8405 0.517174C30.0297 0.728576 30.1681 0.979157 30.2455 1.25043C30.2706 2.36566 30.097 3.47661 29.7325 4.53279C29.2972 5.98341 28.661 7.34962 28.1922 8.77386C27.6109 10.5251 26.9627 12.2488 26.3238 13.979C25.8014 15.3966 25.2456 16.8037 24.8652 18.2727C24.748 18.5884 24.6111 18.8967 24.4554 19.1959C23.8329 20.6751 23.3177 22.1959 22.9138 23.7468C22.6754 24.7108 22.0592 25.4968 21.853 26.4674C21.5589 27.5329 21.1457 28.563 20.6208 29.5388C20.3756 30.0663 20.4038 30.6939 20.1868 31.265C19.718 32.5032 19.2586 33.7428 18.7322 34.9574C18.4362 35.6405 18.1858 36.3434 17.9166 37.0384C17.9032 37.07 17.9166 37.1254 17.8925 37.1373C17.3996 37.409 17.6072 37.9852 17.3473 38.3466C17.085 38.8477 16.8533 39.3638 16.6535 39.8921C16.4219 40.3805 16.2263 40.8848 16.0682 41.4008C15.7884 42.2995 15.4428 43.1769 15.0342 44.0264C14.8663 44.3305 14.6756 44.6219 14.4637 44.8981C14.1833 45.3299 13.9404 45.7843 13.7377 46.2564C13.1886 47.3114 12.8002 48.4349 12.2189 49.4807C11.864 50.1163 11.7474 50.9063 11.3604 51.5353C10.8085 52.5587 10.3166 53.6124 9.88704 54.6911C9.36201 55.816 8.70841 56.8749 8.23293 58.0262C7.4427 59.9463 6.49175 61.7978 5.57428 63.6612C4.80445 65.2486 4.20085 66.9091 3.77283 68.617C3.6697 69.0192 3.43262 69.3528 3.29601 69.7392C3.18484 70.0556 2.74017 69.9476 2.45087 69.995C2.10794 70.0165 1.76661 69.9334 1.47329 69.7572C1.17997 69.5809 0.948901 69.32 0.811483 69.0099C0.743175 68.7303 0.969526 68.3835 1.05792 68.0644C1.36816 67.1321 1.74686 66.2233 2.19103 65.3452C2.50177 64.6409 2.73883 63.8946 3.01876 63.1666C3.39646 62.1855 3.64023 61.1647 3.9831 60.1744C4.43313 58.8701 4.87245 57.5593 5.37873 56.2749C5.70726 55.1448 6.10306 54.0347 6.56407 52.9503C6.88954 52.3437 6.91498 51.6315 7.24313 51.0843C7.66503 50.3761 7.77084 49.5704 8.19274 48.8596C8.61464 48.1488 8.72849 47.2613 9.13031 46.5149C9.50265 45.8239 9.66605 45.0498 10.096 44.3785C10.2875 44.0792 10.2514 43.6453 10.4255 43.3235C10.8329 42.2043 11.3496 41.1267 11.9684 40.1058C12.1495 39.7773 12.2958 39.4312 12.4051 39.0732C12.5974 38.6232 12.8975 38.2258 13.2798 37.9148C13.6621 37.6039 14.1152 37.3887 14.6003 37.2877C14.9338 37.223 15.2284 37.3101 15.4856 37.7756C15.526 37.0757 15.691 36.3883 15.9731 35.7448C16.1205 35.1315 16.4299 34.5829 16.6335 33.9935C16.8463 33.5613 17.1341 33.169 17.484 32.8343C17.5871 32.7018 17.6563 32.5468 17.6857 32.3825C17.7151 32.2181 17.7038 32.0492 17.6527 31.89C17.6254 31.8104 17.6185 31.7254 17.6328 31.6425C17.647 31.5597 17.6819 31.4816 17.7344 31.4153C18.0806 30.6882 18.3546 29.93 18.5528 29.1511C18.6171 28.9717 18.4925 28.7198 18.7965 28.6539C18.8247 28.6539 18.8689 28.5879 18.8635 28.5787C18.605 28.1462 18.9974 27.852 19.0952 27.4947C19.3643 26.6318 19.6773 25.7829 20.0328 24.9509C20.4252 24.1682 20.7366 23.3486 20.9623 22.5046C21.0719 21.7947 21.233 21.0936 21.4445 20.4064C21.5784 19.9554 21.8985 19.5915 22.0298 19.1325C22.0726 18.9796 21.9762 18.9229 21.9949 18.8305C22.0172 18.5204 22.1126 18.2198 22.2735 17.9523C22.3895 17.7857 22.461 17.5929 22.4811 17.3919C22.5334 17.1189 22.5146 16.7417 22.9164 16.5175C23.1361 16.3949 23.2352 15.9069 23.2312 15.5851C23.2218 15.0713 23.3561 14.5649 23.6196 14.1213C23.9277 13.6084 24.4232 13.2246 24.2518 12.5072C24.1353 12.0351 24.4969 11.6368 24.6442 11.203C24.9215 10.3998 25.1706 9.58621 25.4291 8.78046ZM25.4478 8.7923C25.6809 8.57866 25.6501 8.45999 25.5644 8.31097L25.4478 8.7923Z" fill="white"/>
<path d="M36.7272 11.7714C36.6162 11.9599 36.4731 12.1281 36.304 12.2686C36.2395 12.3293 36.1576 12.369 36.0694 12.3822C35.9812 12.3954 35.891 12.3815 35.8111 12.3424C35.625 12.2936 35.5995 12.1499 35.6022 11.9745C35.5986 10.6608 35.8799 9.36145 36.4272 8.16334C36.6268 7.74398 36.5491 7.30358 36.758 6.88026C37.2375 5.90176 37.5737 4.85461 38.0063 3.8471C38.1733 3.51086 38.3821 3.1964 38.6278 2.91084C38.8006 2.69061 39.4957 2.7539 39.7663 3.01105C40.0516 3.22811 40.2808 3.50854 40.4351 3.82939C40.5894 4.15024 40.6645 4.50245 40.6543 4.85732C40.6835 5.79036 40.6099 6.72373 40.4346 7.64113C40.0917 8.8148 39.7743 9.99639 39.4689 11.1819C39.3738 11.8742 39.2328 12.5597 39.047 13.2339C38.8684 13.7343 38.7222 14.2451 38.6091 14.7636C38.2756 16.0586 38.0519 17.3906 37.5938 18.6407C37.1773 19.7775 36.7406 20.909 36.4326 22.0695C36.2665 22.7038 35.9209 23.2563 35.712 23.8564C35.3624 24.8718 34.9593 25.8714 34.6593 26.9C34.5374 27.3194 34.2896 27.6649 34.153 28.075C33.7954 29.1498 33.336 30.185 32.9476 31.2584C32.3716 32.866 31.6376 34.4234 30.9947 36.0059C30.5394 37.1269 30.1335 38.2662 29.5991 39.3568C29.0647 40.4474 28.5678 41.5736 28.024 42.6695C27.8791 43.0484 27.7623 43.4371 27.6745 43.8326C27.6419 43.9946 27.5489 44.1386 27.4137 44.2362C27.2786 44.3339 27.1111 44.3781 26.9445 44.3601C25.8877 44.3601 25.5542 44.1689 25.3372 43.4251C25.262 43.0488 25.3363 42.6584 25.5448 42.3345C26.0284 41.3982 26.3485 40.3986 26.7945 39.4478C27.124 38.741 27.5164 38.0645 27.866 37.3668C28.3776 36.3409 28.6696 35.2318 29.1652 34.2018C29.5455 33.4238 29.9541 32.6576 30.305 31.8664C30.9175 30.6048 31.4541 29.3089 31.9122 27.9853C32.1667 27.1558 32.6636 26.4345 32.835 25.5905C33.1418 24.0858 34.1235 22.8211 34.4182 21.3204C34.715 20.6109 34.9394 19.8741 35.0879 19.1208C35.1496 18.732 35.3023 18.3627 35.5339 18.0421C35.9827 17.0129 36.3042 15.9343 36.4915 14.8296C36.6951 14.0462 36.9281 13.255 37.1023 12.4558C37.1411 12.3162 37.1239 12.1671 37.054 12.0396C36.9842 11.9122 36.8672 11.8162 36.7272 11.7714Z" fill="white"/>
<path d="M100.842 34.7188C101.133 34.5228 101.485 34.4349 101.836 34.4709C101.71 34.599 101.55 34.6901 101.374 34.7339C101.199 34.7777 101.014 34.7724 100.842 34.7188Z" fill="white"/>
<path d="M128.473 16.1575H124.842V49.0653H128.473V16.1575Z" fill="white"/>
</svg>
