<svg width="479" height="84" viewBox="0 0 479 84" fill="none" xmlns="http://www.w3.org/2000/svg">
<path d="M93.6731 54.0825L95.8783 50.1793C96.0597 49.9561 96.3151 49.8053 96.5982 49.7543C96.8812 49.7033 97.1732 49.7554 97.4211 49.9013C99.3899 51.3331 101.698 52.2266 104.118 52.4934C104.895 52.5717 105.672 52.3379 106.277 51.8436C106.882 51.3492 107.266 50.6347 107.345 49.8573C107.345 49.7901 107.356 49.7229 107.359 49.6557C107.359 47.696 105.707 46.1811 102.515 44.9186C98.4704 43.3759 93.3789 40.1653 93.3789 34.5201C93.3789 29.8873 97.0041 25.1548 104.266 25.1548C107.904 25.2504 111.422 26.4807 114.326 28.6735C114.552 28.8526 114.706 29.107 114.76 29.3902C114.814 29.6733 114.765 29.9665 114.621 30.2162L112.202 33.8414C111.878 34.351 111.03 34.7819 110.66 34.4437C108.716 32.8973 106.382 31.9198 103.916 31.62C103.224 31.5787 102.542 31.8008 102.007 32.2416C101.471 32.6824 101.122 33.3093 101.03 33.9966C101.03 35.7409 102.45 37.0821 106.168 38.6295C109.886 40.1769 115.665 42.9497 115.665 49.3523C115.665 54.196 111.468 59.0813 104.546 59.0813C100.691 59.2864 96.9055 57.9933 93.9812 55.4723C93.504 54.9951 93.365 54.8098 93.7495 54.145" fill="white"/>
<path d="M130.756 26.5113C130.76 26.2755 130.856 26.0505 131.023 25.8837C131.19 25.7169 131.415 25.6214 131.65 25.6172H151.136C151.372 25.6214 151.597 25.7169 151.764 25.8837C151.931 26.0505 152.026 26.2755 152.03 26.5113V31.6492C152.026 31.8837 151.93 32.1073 151.763 32.2718C151.596 32.4364 151.371 32.5289 151.136 32.5294H138.069V38.3761H148.868C149.1 38.3836 149.319 38.4788 149.483 38.6423C149.646 38.8058 149.741 39.0253 149.749 39.2564V44.4104C149.748 44.645 149.656 44.87 149.491 45.0372C149.327 45.2044 149.103 45.3004 148.868 45.3046H138.069V51.6609H151.106C151.343 51.6615 151.57 51.7559 151.738 51.9235C151.905 52.091 152 52.3181 152 52.555V57.6767C151.996 57.9125 151.901 58.1375 151.734 58.3043C151.567 58.4711 151.342 58.5667 151.106 58.5708H131.648C131.412 58.5667 131.187 58.4711 131.02 58.3043C130.854 58.1375 130.758 57.9125 130.754 57.6767L130.756 26.5113Z" fill="white"/>
<path d="M182.329 25.1557C184.422 25.0931 186.506 25.4468 188.46 26.1964C190.415 26.946 192.201 28.0765 193.715 29.5222C193.89 29.6755 193.998 29.8924 194.014 30.1253C194.03 30.3581 193.953 30.5878 193.8 30.7638C193.774 30.7946 193.745 30.8233 193.715 30.8495L190.057 34.6601C189.898 34.8158 189.685 34.9031 189.463 34.9031C189.24 34.9031 189.027 34.8158 188.869 34.6601C187.12 33.1113 184.865 32.2553 182.528 32.2533C181.296 32.2684 180.079 32.5261 178.947 33.0116C177.815 33.4971 176.789 34.2009 175.928 35.0828C175.068 35.9647 174.39 37.0075 173.932 38.1516C173.475 39.2957 173.247 40.5187 173.263 41.7507C173.263 41.8132 173.263 41.8781 173.263 41.943C173.183 44.3965 174.08 46.7814 175.756 48.5743C177.433 50.3671 179.753 51.4212 182.206 51.5052H182.519C184.87 51.541 187.157 50.7369 188.968 49.2374C189.141 49.0916 189.359 49.0116 189.585 49.0116C189.811 49.0116 190.03 49.0916 190.203 49.2374L193.86 53.1406C194.024 53.3103 194.116 53.5371 194.116 53.773C194.116 54.0089 194.024 54.2357 193.86 54.4054C192.354 55.8921 190.568 57.0666 188.607 57.8617C186.645 58.6567 184.545 59.0565 182.429 59.0383C180.108 59.1966 177.779 58.8762 175.588 58.097C173.396 57.3177 171.388 56.0962 169.688 54.5083C167.988 52.9204 166.632 51 165.706 48.8664C164.779 46.7327 164.301 44.4313 164.301 42.1051C164.301 39.7789 164.779 37.4775 165.706 35.3439C166.632 33.2102 167.988 31.2898 169.688 29.7019C171.388 28.114 173.396 26.8925 175.588 26.1132C177.779 25.334 180.108 25.0136 182.429 25.1719" fill="white"/>
<path d="M208.363 26.5113C208.375 26.2778 208.472 26.0569 208.638 25.8916C208.803 25.7262 209.024 25.6284 209.257 25.6172H215.049C215.285 25.6178 215.513 25.7122 215.68 25.8798C215.848 26.0473 215.942 26.2744 215.943 26.5113V45.5664C215.863 47.1151 216.402 48.6321 217.441 49.7835C218.48 50.935 219.934 51.6265 221.482 51.7061C223.031 51.7856 224.548 51.2467 225.7 50.2078C226.851 49.1689 227.543 47.7151 227.622 46.1663C227.633 45.9665 227.633 45.7662 227.622 45.5664V26.5113C227.623 26.2744 227.717 26.0473 227.885 25.8798C228.052 25.7122 228.279 25.6178 228.516 25.6172H234.307C234.541 25.6284 234.762 25.7262 234.927 25.8916C235.092 26.0569 235.19 26.2778 235.202 26.5113V45.9555C235.081 49.4328 233.614 52.7274 231.112 55.1446C228.609 57.5618 225.265 58.9128 221.786 58.9128C218.306 58.9128 214.963 57.5618 212.46 55.1446C209.958 52.7274 208.491 49.4328 208.37 45.9555L208.363 26.5113Z" fill="white"/>
<path d="M266.544 39.6879C267.507 39.6368 268.414 39.2178 269.078 38.5173C269.741 37.8169 270.11 36.8884 270.109 35.9237C270.105 34.9782 269.728 34.0724 269.061 33.4026C268.394 32.7327 267.489 32.3527 266.544 32.3448H259.569V39.6879H266.544ZM252.242 26.512C252.246 26.2761 252.342 26.0511 252.509 25.8843C252.675 25.7175 252.9 25.622 253.136 25.6178H267.206C269.617 25.573 271.964 26.3953 273.819 27.9352C275.674 29.4751 276.915 31.63 277.315 34.0077C277.714 36.3853 277.247 38.8275 275.998 40.8896C274.748 42.9517 272.8 44.4965 270.507 45.2427L276.926 57.1839C276.989 57.2832 277.032 57.3939 277.052 57.5098C277.072 57.6256 277.069 57.7442 277.043 57.8589C277.017 57.9736 276.969 58.082 276.901 58.1781C276.834 58.2741 276.748 58.3558 276.648 58.4186C276.496 58.5157 276.319 58.5642 276.139 58.5576H269.829C269.676 58.5592 269.525 58.5201 269.393 58.4444C269.26 58.3687 269.15 58.259 269.073 58.1267L262.898 45.6597H259.655V57.6634C259.647 57.898 259.55 58.1208 259.384 58.2867C259.218 58.4527 258.995 58.5495 258.761 58.5576H253.159C252.924 58.5534 252.699 58.4579 252.532 58.2911C252.365 58.1243 252.27 57.8993 252.265 57.6634L252.242 26.512Z" fill="white"/>
<path d="M293.121 26.5113C293.125 26.2755 293.221 26.0505 293.388 25.8837C293.554 25.7169 293.779 25.6214 294.015 25.6172H313.506C313.742 25.6214 313.967 25.7169 314.133 25.8837C314.3 26.0505 314.396 26.2755 314.4 26.5113V31.6492C314.396 31.8839 314.3 32.1078 314.133 32.2725C313.966 32.4372 313.741 32.5295 313.506 32.5294H300.464V38.3761H311.263C311.497 38.3802 311.72 38.4738 311.886 38.6376C312.053 38.8014 312.15 39.023 312.158 39.2564V44.4104C312.157 44.6474 312.063 44.8745 311.895 45.042C311.727 45.2096 311.5 45.304 311.263 45.3046H300.464V51.6609H313.506C313.743 51.6615 313.97 51.7559 314.137 51.9235C314.305 52.091 314.399 52.3181 314.4 52.555V57.6767C314.396 57.9125 314.3 58.1375 314.133 58.3043C313.967 58.4711 313.742 58.5667 313.506 58.5708H294.02C293.784 58.5667 293.559 58.4711 293.392 58.3043C293.225 58.1375 293.13 57.9125 293.126 57.6767L293.121 26.5113Z" fill="white"/>
<path d="M345.681 26.8369C345.612 26.7051 345.58 26.5572 345.587 26.4086C345.594 26.26 345.641 26.1161 345.723 25.9917C345.805 25.8674 345.918 25.7673 346.052 25.7016C346.186 25.636 346.334 25.6073 346.483 25.6185H352.737C352.906 25.6224 353.071 25.6735 353.212 25.766C353.354 25.8585 353.467 25.9887 353.538 26.142L361.252 43.3137H361.53L369.244 26.142C369.318 25.991 369.432 25.8627 369.573 25.7706C369.714 25.6785 369.877 25.626 370.045 25.6185H376.3C376.52 25.6018 376.738 25.6728 376.905 25.816C377.073 25.9592 377.178 26.163 377.196 26.3829C377.211 26.5433 377.177 26.7043 377.101 26.8462L362.346 58.5119C362.273 58.6636 362.16 58.7918 362.018 58.8819C361.876 58.972 361.712 59.0204 361.544 59.0215H361.081C360.913 59.0204 360.749 58.972 360.607 58.8819C360.465 58.7918 360.352 58.6636 360.279 58.5119L345.681 26.8369Z" fill="white"/>
<path d="M396.584 25.6172H391.836C391.094 25.6172 390.492 26.2187 390.492 26.9607V57.2134C390.492 57.9554 391.094 58.5569 391.836 58.5569H396.584C397.326 58.5569 397.928 57.9554 397.928 57.2134V26.9607C397.928 26.2187 397.326 25.6172 396.584 25.6172Z" fill="white"/>
<path d="M413.564 54.0814L415.785 50.1782C415.965 49.9521 416.22 49.7991 416.504 49.748C416.788 49.6968 417.081 49.7509 417.328 49.9002C419.294 51.3261 421.595 52.2191 424.009 52.4923C424.79 52.5705 425.571 52.3351 426.179 51.8377C426.788 51.3403 427.173 50.6217 427.252 49.84C427.252 49.7774 427.252 49.7149 427.263 49.6523C427.263 47.6926 425.612 46.1777 422.399 44.9152C418.357 43.3725 413.281 40.1642 413.281 34.5167C413.281 29.8839 416.907 25.1514 424.081 25.1514C427.77 25.2197 431.345 26.4511 434.294 28.67C434.517 28.8514 434.668 29.1068 434.719 29.3899C434.77 29.6729 434.718 29.9649 434.572 30.2128L432.181 33.838C431.841 34.3476 430.993 34.7785 430.638 34.4403C428.704 32.8948 426.378 31.9172 423.921 31.6165C423.21 31.5513 422.503 31.7666 421.949 32.2164C421.395 32.6662 421.04 33.3147 420.958 34.0233C420.958 35.7676 422.362 37.1088 426.08 38.6562C429.798 40.2036 435.577 42.9764 435.577 49.379C435.577 54.2227 431.407 59.108 424.484 59.108C420.615 59.3309 416.812 58.0352 413.884 55.4967C413.42 55.0195 413.281 54.8342 413.652 54.1694" fill="white"/>
<path d="M465.764 47.2652L462.185 39.5514L458.653 47.2652H465.764ZM446.417 57.3394L461.152 25.6644C461.228 25.516 461.343 25.3905 461.484 25.301C461.625 25.2114 461.787 25.161 461.954 25.1548H462.417C462.584 25.161 462.746 25.2114 462.887 25.301C463.028 25.3905 463.142 25.516 463.218 25.6644L477.953 57.3394C478.022 57.4712 478.055 57.6191 478.047 57.7677C478.04 57.9163 477.993 58.0602 477.911 58.1846C477.829 58.3089 477.716 58.409 477.582 58.4747C477.449 58.5403 477.3 58.569 477.152 58.5578H471.921C471.073 58.5578 470.703 58.2798 470.27 57.3857L468.588 53.6678H455.783L454.085 57.432C453.956 57.7714 453.726 58.0624 453.424 58.2642C453.123 58.466 452.766 58.5687 452.403 58.5578H447.219C447.07 58.5698 446.921 58.5416 446.787 58.4761C446.653 58.4107 446.539 58.3105 446.457 58.1859C446.375 58.0613 446.328 57.917 446.321 57.7681C446.314 57.6192 446.347 57.4711 446.417 57.3394Z" fill="white"/>
<path d="M48.0561 58.4487C50.5717 53.2182 48.89 44.3185 44.1529 35.3052C51.1663 36.4209 58.1143 37.9157 64.9661 39.7829C63.4198 49.2577 59.1287 58.071 52.6241 65.1317L48.0561 58.4487ZM46.1728 55.9007L29.9438 32.683L27.859 29.7064L25.9758 27.0216L25.128 19.7248L24.8338 17.2092L24.5859 15.0966C25.2947 15.6827 25.9897 16.3011 26.6707 16.9335C27.3517 17.5659 28.2134 18.4763 29.0474 19.25L30.9144 27.9065C30.9705 28.1318 31.0861 28.338 31.2491 28.5034C31.4121 28.6689 31.6165 28.7875 31.841 28.847C32.082 28.8904 32.33 28.8722 32.5621 28.794C32.7942 28.7158 33.0027 28.5803 33.1683 28.3999L35.0215 26.102C36.4251 27.8658 37.7394 29.6988 38.9594 31.5943C39.608 32.6228 40.2095 33.6103 40.7639 34.557C45.6284 43.1278 47.3519 51.0801 46.1635 55.8497M37.785 57.9484C31.4912 55.4327 26.0592 45.8218 19.8117 30.9642L18.6396 28.1706C17.7594 25.9954 16.849 23.7415 15.9085 21.3811C15.6143 20.5935 15.2924 19.8383 14.982 18.9905C14.0554 16.6247 13.1087 14.1816 12.142 11.6613L16.9393 18.511L18.4821 20.7626L24.3288 29.1273L26.4414 32.0738L44.4934 57.8858C42.3348 58.736 39.9342 58.736 37.7757 57.8858M4.7016 25.8842L4.8568 25.7916C7.58441 24.1724 10.5095 22.9119 13.5597 22.0413C14.3148 23.9848 15.1024 25.868 15.8112 27.6888L4.69234 25.8842M21.6649 12.8311L22.2347 17.464L22.559 19.9796L22.8671 22.4629L21.3244 20.1789L19.7816 17.8949L11.4911 6.02311C15.0943 8.01841 18.5355 10.2932 21.783 12.8265M70.0275 76.964C69.8314 76.6815 69.5312 76.4884 69.1928 76.4272C68.8545 76.366 68.5056 76.4416 68.223 76.6374L63.1708 80.1723L60.178 75.8684L65.1931 72.3358C65.4792 72.1452 65.678 71.8488 65.7457 71.5118C65.8135 71.1747 65.7447 70.8246 65.5544 70.5382C65.3527 70.258 65.0498 70.0673 64.7098 70.0068C64.3699 69.9462 64.0198 70.0205 63.7337 70.2139L58.6885 73.7326L54.1668 67.2466C61.392 59.5505 66.0871 49.8263 67.6207 39.3821C67.6599 39.0073 67.5674 38.6305 67.3589 38.3166C66.4787 37.0981 56.24 34.8419 42.5198 32.3147C40.639 29.1439 38.4973 26.1353 36.1171 23.32C36.0068 23.1742 35.8609 23.0594 35.6933 22.9863C35.5258 22.9133 35.3423 22.8846 35.1604 22.903C34.968 22.9049 34.7789 22.9536 34.6095 23.0448C34.44 23.136 34.2952 23.267 34.1875 23.4265L33.122 24.8164L31.8989 19.1828H33.9351C46.9419 19.1828 58.158 22.5161 63.4974 25.8333L66.4741 27.6702C66.7627 27.8472 67.1097 27.9027 67.4392 27.8246C67.7686 27.7464 68.0538 27.541 68.2322 27.2533C68.4015 26.9626 68.4526 26.6181 68.375 26.2909C68.2974 25.9636 68.097 25.6787 67.8153 25.4951L64.8387 23.6581C57.9426 19.3681 45.8161 16.637 33.9351 16.637C32.6703 16.637 31.4055 16.637 30.1546 16.7297C28.093 14.7653 25.9943 12.9122 23.7265 11.059C18.7251 7.23309 13.3852 3.87114 7.7732 1.01497C7.71813 0.987619 7.65748 0.973389 7.59599 0.973389C7.53451 0.973389 7.47386 0.987619 7.41879 1.01497C7.28479 0.962291 7.13582 0.962291 7.00183 1.01497H6.52464V1.23039L6.35554 1.52458C6.25964 1.65894 6.21599 1.82365 6.23277 1.98787V2.09674C6.20163 2.17643 6.20163 2.26491 6.23277 2.3446V2.5137C6.22254 2.52363 6.21441 2.53552 6.20886 2.54865C6.20331 2.56178 6.20045 2.57589 6.20045 2.59014C6.20045 2.6044 6.20331 2.61851 6.20886 2.63164C6.21441 2.64477 6.22254 2.65665 6.23277 2.66659L7.4211 5.75208L12.7257 19.6299C9.52036 20.559 6.44988 21.9022 3.59203 23.6257L0.661734 25.5391C0.444819 25.6777 0.27538 25.8793 0.176053 26.1168C0.0767265 26.3543 0.0522438 26.6165 0.105876 26.8683C0.159508 27.1201 0.288699 27.3495 0.476192 27.5259C0.663684 27.7023 0.900548 27.8173 1.15514 27.8555C5.98491 28.6269 11.4309 29.5072 17.0783 30.4476C23.8516 46.7415 29.7446 57.2789 36.9812 60.2092C39.9443 61.3184 43.2168 61.2687 46.145 60.0702L50.9122 66.9199C46.9156 70.7591 42.4029 74.022 37.5047 76.6142L34.6346 78.157L31.5491 76.6142C22.7247 72.135 15.2797 65.3472 10.0062 56.9732C6.61154 51.284 4.33168 45.0002 3.28858 38.4579C3.20723 38.1479 3.01265 37.8797 2.74324 37.7062C2.47383 37.5326 2.14916 37.4664 1.8333 37.5205C1.51744 37.5746 1.23332 37.7451 1.03702 37.9984C0.840719 38.2517 0.746489 38.5694 0.772924 38.8887C1.86023 45.7461 4.24807 52.3325 7.80795 58.2935C13.3247 67.0381 21.0835 74.145 30.2774 78.8751L33.9188 80.8047C34.106 80.9058 34.3153 80.9588 34.5281 80.9588C34.7408 80.9588 34.9502 80.9058 35.1373 80.8047L38.6119 78.8751C43.5792 76.2314 48.1747 72.9421 52.2789 69.0928L61.7532 82.7018C61.9497 82.9824 62.2462 83.177 62.5817 83.246C62.9172 83.3149 63.2664 83.2528 63.5577 83.0725C63.6169 83.0288 63.6692 82.9765 63.7129 82.9173C63.759 82.9235 63.8057 82.9235 63.8519 82.9173L69.6985 78.8125C69.9781 78.6136 70.1674 78.3121 70.2252 77.9739C70.2829 77.6357 70.2043 77.2884 70.0066 77.008" fill="white"/>
</svg>
