<svg width="508" height="110" viewBox="0 0 508 110" fill="none" xmlns="http://www.w3.org/2000/svg">
<path fill-rule="evenodd" clip-rule="evenodd" d="M132.043 33.6859H141.172L162.964 83.7821H150.511L146.194 73.1689H126.736L122.562 83.7821H110.392L132.043 33.6859ZM136.288 48.2619L130.203 63.8281H142.445L136.288 48.2619Z" fill="white"/>
<mask id="mask0_1441_1639" style="mask-type:luminance" maskUnits="userSpaceOnUse" x="11" y="0" width="497" height="109">
<path fill-rule="evenodd" clip-rule="evenodd" d="M11.707 0.645386H507.186V108.055H11.707V0.645386Z" fill="white"/>
</mask>
<g mask="url(#mask0_1441_1639)">
<path fill-rule="evenodd" clip-rule="evenodd" d="M199.896 83.7833H190.132V79.2565H189.99C189.567 79.8701 189.012 80.4937 188.328 81.13C187.644 81.7678 186.843 82.3459 185.922 82.8643C185.003 83.3842 183.988 83.8075 182.88 84.1384C181.77 84.468 180.627 84.6327 179.448 84.6327C176.901 84.6327 174.589 84.1981 172.514 83.3245C170.438 82.4524 168.657 81.2266 167.171 79.6443C165.687 78.0648 164.542 76.1899 163.74 74.0195C162.937 71.8505 162.538 69.4685 162.538 66.8734C162.538 64.4687 162.903 62.1691 163.635 59.9745C164.365 57.7814 165.403 55.8355 166.748 54.1367C168.092 52.4393 169.731 51.0842 171.666 50.0686C173.599 49.0545 175.792 48.5474 178.245 48.5474C180.462 48.5474 182.526 48.8897 184.436 49.5743C186.347 50.2576 187.915 51.4251 189.142 53.0756H189.283V30.2924H199.896V83.7833ZM190.132 66.5911C190.132 63.9974 189.39 61.8967 187.904 60.293C186.418 58.6908 184.332 57.8883 181.641 57.8883C178.952 57.8883 176.866 58.6908 175.38 60.293C173.894 61.8967 173.152 63.9974 173.152 66.5911C173.152 69.1847 173.894 71.2855 175.38 72.8892C176.866 74.4914 178.952 75.2939 181.641 75.2939C184.332 75.2939 186.418 74.4914 187.904 72.8892C189.39 71.2855 190.132 69.1847 190.132 66.5911Z" fill="white"/>
<path fill-rule="evenodd" clip-rule="evenodd" d="M205.628 58.7369C205.628 54.7285 206.3 51.0951 207.645 47.8396C208.989 44.5854 210.864 41.8142 213.27 39.5274C215.674 37.2391 218.529 35.4821 221.83 34.2548C225.133 33.0276 228.741 32.4154 232.657 32.4154C236.571 32.4154 240.181 33.0276 243.483 34.2548C246.784 35.4821 249.639 37.2391 252.044 39.5274C254.45 41.8142 256.325 44.5854 257.669 47.8396C259.014 51.0951 259.686 54.7285 259.686 58.7369C259.686 62.7467 259.014 66.3787 257.669 69.6328C256.325 72.8884 254.45 75.6596 252.044 77.9464C249.639 80.2361 246.784 81.9918 243.483 83.2176C240.181 84.4448 236.571 85.057 232.657 85.057C228.741 85.057 225.133 84.4448 221.83 83.2176C218.529 81.9918 215.674 80.2361 213.27 77.9464C210.864 75.6596 208.989 72.8884 207.645 69.6328C206.3 66.3787 205.628 62.7467 205.628 58.7369ZM217.09 58.7368C217.09 61.096 217.456 63.2536 218.187 65.211C218.919 67.1697 219.967 68.8671 221.336 70.306C222.704 71.7448 224.343 72.8641 226.253 73.6666C228.164 74.4677 230.297 74.8683 232.657 74.8683C235.015 74.8683 237.149 74.4677 239.06 73.6666C240.97 72.8641 242.609 71.7448 243.977 70.306C245.345 68.8671 246.395 67.1697 247.126 65.211C247.858 63.2536 248.223 61.0961 248.223 58.7368C248.223 56.4258 247.858 54.2781 247.126 52.2981C246.395 50.3166 245.345 48.6064 243.977 47.1676C242.609 45.7301 240.97 44.6094 239.06 43.8069C237.149 43.0058 235.015 42.6052 232.657 42.6052C230.297 42.6052 228.164 43.0058 226.253 43.8069C224.343 44.6094 222.704 45.7301 221.336 47.1676C219.967 48.6064 218.919 50.3166 218.187 52.2981C217.456 54.2781 217.09 56.4258 217.09 58.7368Z" fill="white"/>
<path fill-rule="evenodd" clip-rule="evenodd" d="M297.538 83.7826H287.35V79.1138H287.209C286.83 79.7742 286.347 80.4347 285.757 81.0938C285.167 81.7557 284.448 82.3438 283.6 82.8636C282.75 83.3835 281.783 83.8068 280.699 84.1363C279.613 84.4658 278.434 84.632 277.161 84.632C274.472 84.632 272.291 84.2187 270.616 83.3949C268.941 82.5696 267.644 81.4248 266.724 79.9632C265.805 78.5001 265.191 76.7772 264.885 74.7972C264.578 72.8157 264.426 70.6709 264.426 68.3585V49.3947H275.039V66.235C275.039 67.2264 275.073 68.2519 275.146 69.313C275.217 70.3754 275.428 71.3541 275.782 72.2504C276.136 73.1466 276.677 73.8767 277.41 74.4435C278.14 75.0088 279.189 75.2915 280.557 75.2915C281.925 75.2915 283.033 75.0457 283.882 74.5486C284.73 74.0529 285.378 73.3952 285.828 72.5671C286.276 71.7433 286.571 70.8115 286.713 69.7732C286.855 68.7363 286.925 67.6511 286.925 66.519V49.3947H297.538L297.538 83.7826Z" fill="white"/>
<path fill-rule="evenodd" clip-rule="evenodd" d="M328.459 57.8876H319.119V69.3489C319.119 70.2934 319.165 71.1542 319.259 71.9326C319.354 72.7109 319.566 73.3828 319.898 73.9495C320.226 74.5149 320.735 74.9523 321.418 75.2577C322.101 75.5645 323.01 75.7179 324.142 75.7179C324.708 75.7179 325.452 75.6597 326.371 75.5418C327.292 75.4239 327.986 75.1512 328.459 74.7265V83.5714C327.279 83.9961 326.053 84.2787 324.779 84.4208C323.506 84.5614 322.256 84.6324 321.03 84.6324C319.236 84.6324 317.586 84.4435 316.076 84.0671C314.566 83.6907 313.247 83.0884 312.115 82.2632C310.981 81.4379 310.098 80.3641 309.461 79.0445C308.825 77.7236 308.505 76.1185 308.505 74.2322V57.8876H301.713V49.395H308.505V39.2079H319.119V49.395H328.459V57.8876Z" fill="white"/>
<path fill-rule="evenodd" clip-rule="evenodd" d="M333.836 49.3949H344.449V54.9146H344.59C345.722 52.7925 347.066 51.2003 348.624 50.1378C350.181 49.0768 352.138 48.5455 354.496 48.5455C355.109 48.5455 355.722 48.5711 356.337 48.6166C356.947 48.6648 357.514 48.7586 358.034 48.8992V58.5949C357.28 58.3591 356.535 58.1815 355.805 58.0637C355.072 57.9472 354.307 57.8875 353.506 57.8875C351.477 57.8875 349.872 58.1702 348.695 58.7355C347.514 59.3023 346.607 60.092 345.97 61.1062C345.334 62.1203 344.921 63.3333 344.732 64.7509C344.543 66.1656 344.449 67.721 344.449 69.4198V83.7829H333.836L333.836 49.3949Z" fill="white"/>
<path fill-rule="evenodd" clip-rule="evenodd" d="M393.908 77.8399C392.211 80.0102 390.063 81.6849 387.47 82.8638C384.876 84.0428 382.186 84.6322 379.403 84.6322C376.761 84.6322 374.274 84.209 371.938 83.3596C369.604 82.5102 367.576 81.2971 365.854 79.7148C364.131 78.1353 362.776 76.2377 361.786 74.0204C360.795 71.8031 360.299 69.3274 360.299 66.5903C360.299 63.8546 360.795 61.3788 361.786 59.1616C362.776 56.9443 364.131 55.0452 365.854 53.4657C367.576 51.8862 369.604 50.6704 371.938 49.8224C374.274 48.9716 376.761 48.5469 379.403 48.5469C381.856 48.5469 384.085 48.9716 386.089 49.8224C388.093 50.6704 389.793 51.8862 391.184 53.4657C392.576 55.0452 393.65 56.9443 394.404 59.1616C395.158 61.3788 395.536 63.8546 395.536 66.5903V69.9154H370.913C371.338 71.9452 372.257 73.5588 373.672 74.7619C375.087 75.9663 376.832 76.5672 378.909 76.5672C380.653 76.5672 382.128 76.178 383.331 75.3996C384.534 74.6212 385.583 73.6184 386.48 72.3926L393.908 77.8399ZM384.923 62.6983C384.968 60.9058 384.379 59.3732 383.155 58.1005C381.927 56.8264 380.346 56.1886 378.413 56.1886C377.233 56.1886 376.195 56.3789 375.3 56.7553C374.403 57.1332 373.638 57.6161 373 58.2056C372.364 58.7965 371.868 59.4783 371.514 60.2566C371.161 61.0364 370.959 61.8489 370.914 62.6983H384.923Z" fill="white"/>
<path fill-rule="evenodd" clip-rule="evenodd" d="M423.555 79.4676H423.411C422.232 81.3071 420.664 82.628 418.707 83.4292C416.75 84.2317 414.686 84.6322 412.515 84.6322C410.91 84.6322 409.366 84.4092 407.882 83.9604C406.396 83.513 405.087 82.8397 403.955 81.9434C402.823 81.0486 401.925 79.9392 401.264 78.6197C400.605 77.2987 400.274 75.7647 400.274 74.019C400.274 72.0389 400.639 70.3643 401.372 68.995C402.102 67.6272 403.093 66.4951 404.342 65.6002C405.592 64.704 407.02 64.0066 408.624 63.5122C410.227 63.0165 411.89 62.6515 413.613 62.4143C415.335 62.1799 417.057 62.0379 418.777 61.991C420.498 61.9441 422.09 61.92 423.555 61.92C423.555 60.0337 422.882 58.5366 421.538 57.4272C420.194 56.3179 418.601 55.764 416.762 55.764C415.015 55.764 413.423 56.1304 411.984 56.8605C410.547 57.5934 409.261 58.5948 408.128 59.8675L402.469 54.0651C404.45 52.2271 406.761 50.8465 409.403 49.9261C412.044 49.0071 414.78 48.5469 417.61 48.5469C420.724 48.5469 423.281 48.9361 425.286 49.7144C427.292 50.4928 428.896 51.6377 430.099 53.1461C431.302 54.656 432.138 56.5068 432.611 58.6999C433.081 60.8944 433.319 63.4299 433.319 66.3076V83.7828H423.555V79.4676ZM420.935 68.7125C420.134 68.7125 419.13 68.748 417.928 68.8191C416.725 68.8901 415.569 69.0918 414.461 69.4199C413.352 69.7508 412.409 70.2466 411.63 70.9056C410.852 71.5675 410.464 72.4865 410.464 73.6655C410.464 74.9396 411.005 75.8841 412.091 76.4949C413.176 77.11 414.308 77.4153 415.487 77.4153C416.525 77.4153 417.528 77.2733 418.494 76.9906C419.461 76.708 420.322 76.3088 421.077 75.7876C421.832 75.2691 422.433 74.61 422.881 73.8075C423.33 73.005 423.555 72.0618 423.555 70.9766V68.7125L420.935 68.7125Z" fill="white"/>
<path fill-rule="evenodd" clip-rule="evenodd" d="M463.248 60.5051C462.728 59.7509 461.996 59.1245 461.053 58.6302C460.11 58.1345 459.096 57.8873 458.011 57.8873C455.323 57.8873 453.235 58.6899 451.75 60.2935C450.262 61.8957 449.521 63.9965 449.521 66.5901C449.521 69.1838 450.262 71.2846 451.75 72.8882C453.235 74.4919 455.323 75.293 458.011 75.293C459.191 75.293 460.204 75.0344 461.053 74.5146C461.904 73.9961 462.633 73.3825 463.248 72.6752L470.253 80.0343C468.601 81.7317 466.654 82.9234 464.414 83.608C462.174 84.2898 460.039 84.6321 458.011 84.6321C455.369 84.6321 452.882 84.2074 450.546 83.3594C448.211 82.51 446.183 81.297 444.461 79.7147C442.74 78.1352 441.383 76.2375 440.393 74.0203C439.402 71.803 438.906 69.3273 438.906 66.5901C438.906 63.8544 439.402 61.3787 440.393 59.1614C441.383 56.9442 442.74 55.0451 444.461 53.4656C446.183 51.8861 448.211 50.6703 450.546 49.8223C452.882 48.9715 455.369 48.5468 458.011 48.5468C460.039 48.5468 462.174 48.8891 464.414 49.5737C466.654 50.2569 468.601 51.4486 470.253 53.146L463.248 60.5051Z" fill="white"/>
<path fill-rule="evenodd" clip-rule="evenodd" d="M484.686 30.2921V54.0654H484.828C485.063 53.4049 485.464 52.7459 486.029 52.0854C486.596 51.4249 487.279 50.8354 488.082 50.317C488.883 49.7971 489.826 49.3738 490.913 49.0414C491.996 48.7133 493.177 48.5471 494.449 48.5471C497.14 48.5471 499.307 48.9605 500.959 49.7857C502.61 50.611 503.895 51.7544 504.816 53.2174C505.735 54.679 506.361 56.4006 506.69 58.382C507.021 60.3635 507.186 62.5111 507.186 64.8221V83.7831H496.573V66.9442C496.573 65.9528 496.537 64.9272 496.466 63.8662C496.395 62.8052 496.184 61.8251 495.83 60.9288C495.476 60.0325 494.934 59.3024 494.202 58.7357C493.471 58.1704 492.421 57.8877 491.053 57.8877C489.685 57.8877 488.577 58.1349 487.728 58.6292C486.879 59.1249 486.23 59.7868 485.782 60.612C485.333 61.4373 485.039 62.3691 484.897 63.4046C484.757 64.4443 484.686 65.5295 484.686 66.6601V83.7831H474.072V30.2921L484.686 30.2921Z" fill="white"/>
</g>
<path fill-rule="evenodd" clip-rule="evenodd" d="M112.733 7.01809C111.133 5.10197 109.122 3.48697 106.483 2.69723C104.154 2.00123 101.841 2.11628 99.4875 2.48701C89.7667 4.01653 80.0444 5.53397 70.3223 7.05139C66.303 7.67872 62.2837 8.30604 58.2645 8.93422C54.9464 9.45289 51.6282 9.97037 48.3099 10.4878L48.3097 10.4879L48.3092 10.4879L48.309 10.488C38.0877 12.082 27.8665 13.6759 17.6509 15.3047C14.8513 15.7522 12.0517 16.3019 9.31744 17.0447C5.8545 17.9865 3.38157 20.306 1.95975 23.5473C0.0478837 27.9094 0.789335 32.6493 3.38441 36.1222L3.37447 36.1236L55.3286 104.837L55.347 104.804C56.2774 105.995 57.4194 107.057 58.8228 107.902C63.3183 110.611 67.8523 109.843 72.1419 107.274C74.2526 106.01 75.7028 104.013 76.7312 101.814C79.1856 96.5623 81.5943 91.2888 84.003 86.0152L84.0037 86.0137C84.8831 84.0883 85.7625 82.1629 86.6442 80.2385C88.5946 75.9836 90.5445 71.7285 92.4943 67.4735L92.5445 67.3641L92.5468 67.359L92.5491 67.354C96.119 59.5637 99.6888 51.7738 103.261 43.9855C104.509 41.2665 105.762 38.5502 107.014 35.834L107.015 35.8317L107.016 35.8295L107.018 35.8273L107.019 35.8235L107.02 35.8228C109.434 30.5879 111.848 25.3532 114.224 20.1C116.277 15.5632 115.782 11.2267 112.733 7.01809ZM100.875 5.80411L14.7144 19.3178C8.99013 20.2169 7.65069 21.5237 7.65069 21.5237C3.21477 24.8872 3.37385 30.6214 5.93484 34.002C8.49867 37.3797 12.4502 37.5075 12.4502 37.5075C19.2341 38.276 21.5834 43.5996 21.5834 43.5996C32.9523 41.2801 35.3258 51.9928 35.3258 51.9928C38.7064 50.3821 41.5429 50.392 43.7758 51.0369L43.773 51.034C43.773 51.034 52.5425 48.4276 67.8999 39.2418C67.9227 39.0231 67.8687 38.7916 67.7054 38.5146C67.1812 37.6183 67.1159 36.6908 67.846 35.7917C67.9599 35.6509 67.9633 35.4194 67.9676 35.1221V35.1217C67.9699 34.9633 67.9725 34.7863 67.9923 34.5943C68.1428 34.4622 68.4837 34.1596 68.8758 33.8102C66.9028 30.0618 64.9484 26.3474 62.9513 22.5507C63.3162 22.2755 63.672 21.9898 64.0261 21.7054L64.0262 21.7053L64.0264 21.7052L64.0265 21.7051C64.8712 21.0267 65.7063 20.3561 66.6329 19.8547C67.3843 19.4471 68.4695 19.3945 69.3474 19.5366C71.2663 19.8476 73.2094 20.2155 75.0332 20.8646C78.5487 22.1132 81.7546 21.6672 85.0442 19.9939C88.6217 18.1723 92.3312 16.6083 96.034 15.047L96.4458 14.8734C97.683 14.3521 99.0565 14.0453 100.395 13.8905C101.525 13.7612 102.355 13.9657 102.832 14.4387L102.846 14.4288C102.864 14.4515 102.88 14.4768 102.895 14.5021L102.895 14.5026C102.903 14.515 102.911 14.5275 102.919 14.5396C102.928 14.5507 102.938 14.5615 102.948 14.5723L102.949 14.5729L102.949 14.5731L102.949 14.5734C102.97 14.5953 102.99 14.6169 103.007 14.6404L102.994 14.6504C103.319 15.2384 103.292 16.0935 102.862 17.1446C102.352 18.3946 101.686 19.6332 100.849 20.6828L100.59 21.0081L100.59 21.0083L100.59 21.0083C98.0809 24.1591 95.5651 27.3186 92.8408 30.2777C90.3409 32.9935 89.0455 35.9593 89.2969 39.6822C89.429 41.6125 89.2586 43.5826 89.0398 45.5143C88.939 46.3978 88.5967 47.429 88.0015 48.0412C87.2661 48.8008 86.3917 49.4249 85.507 50.0564C85.1394 50.3189 84.7699 50.5826 84.4079 50.8579L82.3112 48.8731C79.9186 46.608 77.5523 44.3679 75.1682 42.1125C74.7292 42.3951 74.3443 42.6423 74.1753 42.7502C73.9835 42.7178 73.8111 42.6722 73.657 42.6314C73.3719 42.5559 73.1496 42.497 72.9836 42.5698C71.9211 43.0286 71.0447 42.7147 70.3246 41.969C70.1016 41.7375 69.8928 41.621 69.6755 41.5855C56.683 53.8904 51.8039 61.6288 51.8039 61.6288L51.7784 61.5876C51.642 66.0647 48.6023 69.5049 48.6023 69.5049C50.7216 70.3799 52.2798 72.6242 52.2798 72.6242C57.0126 78.881 52.9658 85.0243 52.9658 85.0243C54.98 86.4802 57.2526 90.9857 56.3876 95.4117C55.524 99.8377 57.9017 102.732 57.9017 102.732C62.4357 108.712 69.0831 105.431 70.4766 104.374C71.8714 103.318 73.1696 101.051 73.1696 101.051L110.85 18.9585C110.85 18.9585 113.878 14.0268 110.198 9.17473C107.914 6.16205 104.873 5.59105 102.894 5.59105C101.686 5.59105 100.875 5.80411 100.875 5.80411ZM43.5601 30.2505L40.4168 24.1229L45.4677 28.8045L51.5954 25.6612L46.9137 30.7121L50.0571 36.8412L45.0061 32.1595L38.8771 35.3014L43.5601 30.2505ZM93.6411 19.0982C93.3573 18.9455 93.0653 18.7884 92.7783 18.6126C93.5041 18.3428 94.274 18.2178 94.9742 18.2178C95.9344 18.2178 96.7682 18.4521 97.1957 18.8782C97.7042 19.7901 97.3363 21.7191 96.2583 23.202C96.1669 22.8794 96.0946 22.5571 96.0243 22.2438L96.0243 22.2437C95.8697 21.5542 95.7249 20.9083 95.4074 20.3995L95.4174 20.3924C95.4143 20.3877 95.4113 20.3827 95.4084 20.3776C95.4046 20.371 95.4007 20.3643 95.3963 20.3583L95.3941 20.3554L95.3918 20.3526C95.3819 20.3386 95.3706 20.3265 95.3595 20.3146C95.3515 20.3061 95.3436 20.2976 95.3364 20.2887C95.3295 20.2788 95.3232 20.2687 95.317 20.2587C95.308 20.2442 95.299 20.2297 95.2881 20.2163C95.2834 20.2092 95.2773 20.2029 95.2712 20.1966C95.2663 20.1915 95.2613 20.1864 95.2569 20.1808L95.2484 20.1879C94.8455 19.746 94.2632 19.4327 93.6411 19.0982Z" fill="white"/>
</svg>
