<svg width="403" height="138" viewBox="0 0 403 138" fill="none" xmlns="http://www.w3.org/2000/svg">
<path d="M0.0478972 29.8435H99.133C99.151 30.2476 99.1824 30.6405 99.1824 31.0334C99.1847 50.0135 99.2969 68.9935 99.1465 87.9713C99.041 101.242 95.0357 113.168 85.7365 122.968C79.0035 130.062 70.7303 134.49 61.1931 136.49C49.8038 138.881 38.6321 138.089 27.9477 133.327C15.3146 127.698 7.09526 118.022 2.76896 104.98C0.954917 99.5201 0.0703481 93.8849 0.0591227 88.1375C0.0276913 69.2337 0.0478972 50.33 0.0478972 31.4241V29.8435ZM4.43257 34.2461V35.8087C4.43257 52.8423 4.36073 69.8781 4.48645 86.9117C4.51564 90.8047 4.8569 94.7717 5.68085 98.5704C8.79031 112.892 16.7649 123.538 30.3612 129.519C39.9298 133.729 49.9429 134.328 60.1245 132.265C68.5817 130.552 75.9838 126.731 82.0097 120.53C90.6106 111.68 94.5755 100.831 94.7057 88.6673C94.8988 70.9243 94.7551 53.1791 94.7528 35.436C94.7528 35.0432 94.7169 34.6525 94.6967 34.2484H4.43033L4.43257 34.2461Z" fill="white"/>
<path d="M31.4291 24.4688C32.664 23.7481 33.8988 23.0252 35.2526 22.2349C32.6505 15.2841 30.0574 8.35797 27.3521 1.131C31.9657 3.78919 36.3347 6.3037 40.8092 8.88107C43.7076 6.0994 46.6083 3.31548 49.5965 0.448486C52.5488 3.2818 55.4472 6.06348 58.3928 8.89005C62.8268 6.33513 67.216 3.80715 71.8746 1.12426C69.1805 8.30857 66.5829 15.228 63.9629 22.2147C65.2605 22.9848 66.5223 23.7324 68.0512 24.6372H31.4987C31.4763 24.5788 31.4516 24.5227 31.4291 24.4643V24.4688ZM44.298 20.9822C44.3272 21.0585 44.3587 21.1371 44.3879 21.2134C44.5338 21.2314 44.682 21.2628 44.8279 21.2628C49.8367 21.265 54.8455 21.2561 59.8566 21.2807C60.4987 21.283 60.7614 21.0338 60.9724 20.4613C62.2476 16.9993 63.5655 13.5509 64.8609 10.0957C64.9732 9.79707 65.036 9.48276 65.1909 8.92822C58.0829 13.0278 51.1905 17.0038 44.3003 20.9799L44.298 20.9822ZM38.27 20.5039C40.9259 18.9683 43.4763 17.4955 46.1727 15.9352C42.0664 13.5688 38.1577 11.317 34.249 9.06517C34.1816 9.12804 34.1143 9.18865 34.0469 9.25152C35.4389 12.9582 36.8286 16.6626 38.27 20.5017V20.5039ZM44.2756 10.877C45.7708 11.7436 47.4951 12.7539 49.2373 13.7327C49.4259 13.8383 49.7761 13.845 49.9624 13.7417C51.7001 12.7673 53.4199 11.757 54.9219 10.8859C53.1662 8.95516 51.4532 7.06704 49.5785 5.00379C47.7218 7.05805 46.0133 8.95067 44.2756 10.877Z" fill="white"/>
<path d="M10.5684 40.5613H88.6079C88.6304 40.9429 88.6641 41.2685 88.6641 41.5963C88.6573 57.285 88.8235 72.976 88.5788 88.6625C88.4081 99.5647 84.6184 109.109 76.1993 116.446C70.9054 121.057 64.6707 123.726 57.7828 124.838C48.9708 126.261 40.3114 125.725 32.0921 121.995C20.4288 116.706 13.6464 107.517 11.3025 95.0453C10.7816 92.2771 10.6155 89.4101 10.602 86.5858C10.5347 71.7569 10.5706 56.9258 10.5706 42.0969V40.5635L10.5684 40.5613ZM52.2553 101.439V99.7645C52.2553 82.2056 52.2553 64.6467 52.2553 47.0878C52.2553 46.7151 52.3115 46.3244 52.2194 45.9742C52.1633 45.7564 51.8826 45.4399 51.6986 45.4376C49.8778 45.3972 48.057 45.4129 46.0701 45.4129V101.415H21.0462V44.9774H15.0294C15.0092 45.3299 14.9822 45.5881 14.9822 45.8462C14.9822 60.042 14.9104 74.24 15.0092 88.4358C15.0586 95.546 17.0904 102.111 21.2416 107.968C21.7557 108.696 22.308 108.942 23.1813 108.94C36.4207 108.913 49.6622 108.922 62.9016 108.922C67.4277 108.922 71.9538 108.94 76.4777 108.893C76.9514 108.889 77.6025 108.621 77.8674 108.258C81.6504 103.045 83.9045 97.1916 83.9763 90.7707C84.1402 75.9036 84.028 61.0321 84.028 46.165V44.9729H77.8719V101.439H52.2553ZM56.6849 97.1175H73.3772V44.9729H56.6849V97.1175ZM41.6854 97.1467V44.9751H25.5342V97.1467H41.6877H41.6854ZM72.8631 113.426H26.5445C38.3649 124.045 61.9676 123.383 72.8653 113.426H72.8631Z" fill="white"/>
<path d="M94.0916 137.796C91.3302 137.727 89.1434 135.428 89.213 132.666C89.2826 129.905 91.5816 127.718 94.3431 127.788C97.1293 127.857 99.2913 130.132 99.2217 132.918C99.1521 135.704 96.8756 137.866 94.0916 137.796ZM94.3251 128.544C91.9655 128.484 90.028 130.325 89.9696 132.687C89.9113 135.048 91.75 136.984 94.1118 137.042C96.4737 137.1 98.409 135.237 98.4673 132.9C98.528 130.54 96.6623 128.603 94.3251 128.544ZM95.515 135.706L94.0849 133.403L93.0926 133.378L93.0342 135.643L92.2327 135.623L92.3786 129.887L94.7158 129.945C95.6834 129.97 96.5635 130.677 96.5365 131.739C96.5051 133.014 95.3601 133.409 95.0301 133.403L96.5074 135.731L95.515 135.706ZM94.6978 130.655L93.1644 130.617L93.1128 132.646L94.6462 132.684C95.1423 132.698 95.6946 132.309 95.7104 131.719C95.7261 131.081 95.194 130.666 94.6978 130.655Z" fill="white"/>
<path d="M140.791 10.5554H143.906V127.367C143.817 127.438 143.787 127.483 143.752 127.488C140.818 127.917 140.791 127.897 140.791 125.009V10.5554Z" fill="white"/>
<path d="M206.406 50.0371C205.636 52.8972 201.419 55.0239 196.249 55.2072H193.976V44.4637C199.402 44.6837 201.236 45.087 201.419 46.0404H201.712L200.832 41.0536H200.539C200.722 42.1537 199.072 42.447 193.976 42.6303V32.9135H195.076C200.246 33.0968 204.206 34.5635 204.609 36.4702H204.903L203.693 31.2268H186.936V31.5201C187.962 31.5201 188.366 33.6468 188.586 40.3203V47.8004C188.366 54.4739 187.962 56.6006 186.936 56.6006V56.8939H204.866L206.699 50.0371H206.406Z" fill="white"/>
<path d="M230.208 50.0371C229.438 52.8972 225.221 55.0239 220.051 55.2072H218.511V40.3203C218.511 33.6468 218.915 31.5201 220.161 31.5201V31.2268H211.471V31.5201C212.498 31.5201 212.901 33.6468 213.121 40.3203V47.8004C212.901 54.4739 212.498 56.6006 211.471 56.6006V56.8939H228.668L230.502 50.0371H230.208Z" fill="white"/>
<path d="M243.587 31.5201V31.2268H234.897V31.5201C235.923 31.5201 236.327 33.6468 236.547 40.3203V47.8004C236.327 54.4739 235.923 56.6006 234.897 56.6006V56.8939H243.587V56.6006C242.34 56.6006 241.937 54.4739 241.937 47.8004V40.3203C241.937 33.6468 242.34 31.5201 243.587 31.5201Z" fill="white"/>
<path d="M257.498 57.2606C262.008 57.2606 267.361 54.6205 267.361 50.0005C267.361 44.9404 263.145 42.4103 258.341 40.8703C255.078 39.8436 252.621 39.1469 252.621 36.8002C252.621 34.3068 254.381 32.5468 256.911 32.5468C260.725 32.5468 264.868 35.5169 265.381 38.9636H265.675L265.638 33.6835C263.511 31.9968 260.248 30.8601 256.911 30.8601C252.731 30.8601 248.184 33.6468 248.184 38.2302C248.184 42.227 250.678 44.6104 254.601 46.0037C258.525 47.3971 262.008 48.6071 262.008 51.9072C262.008 54.0705 260.285 55.5739 257.424 55.5739C253.611 55.5739 248.954 51.9438 248.294 47.2871H248.001L248.038 54.4005C250.164 56.0872 254.051 57.2606 257.498 57.2606Z" fill="white"/>
<path d="M291.778 47.8004L285.104 31.2268H283.051L275.864 49.0471C273.517 54.7305 272.344 56.6006 271.391 56.6006V56.8939H276.781V56.6006C275.901 56.6006 275.827 55.5006 276.744 52.4572H287.268C288.221 55.5006 288.221 56.6006 287.488 56.6006V56.8939H296.948V56.6006C295.701 56.6006 294.381 54.4739 291.778 47.8004ZM277.294 50.7705C277.478 50.2205 277.698 49.5971 277.954 48.9371L282.061 38.7436L285.801 47.9838C286.168 49.0104 286.461 49.9638 286.754 50.7705H277.294Z" fill="white"/>
<path d="M317.402 43.107C320.079 42.007 321.582 40.0636 321.546 37.4236C321.509 33.7935 318.246 31.2268 312.745 31.2268H301.342V31.5201C302.369 31.5201 302.772 33.6468 302.992 40.3203V47.8004C302.772 54.4739 302.369 56.6006 301.342 56.6006V56.8939H313.846C319.346 56.8939 322.609 54.3272 322.646 49.9638C322.682 46.4437 320.776 44.1704 317.402 43.107ZM308.382 32.9135H310.289C312.965 32.9135 315.056 35.1502 315.276 37.6069C315.496 40.467 313.809 42.447 311.132 42.447H308.382V32.9135ZM313.369 55.2072H308.382V44.1337H312.379C315.056 44.1337 317.109 46.1871 317.439 49.7805C317.696 52.9705 316.009 55.2072 313.369 55.2072Z" fill="white"/>
<path d="M347.067 50.0371C346.297 52.8972 342.08 55.0239 336.91 55.2072H334.636V44.4637C340.063 44.6837 341.897 45.087 342.08 46.0404H342.373L341.493 41.0536H341.2C341.383 42.1537 339.733 42.447 334.636 42.6303V32.9135H335.736C340.907 33.0968 344.867 34.5635 345.27 36.4702H345.563L344.353 31.2268H327.596V31.5201C328.623 31.5201 329.026 33.6468 329.246 40.3203V47.8004C329.026 54.4739 328.623 56.6006 327.596 56.6006V56.8939H345.527L347.36 50.0371H347.067Z" fill="white"/>
<path d="M373.472 31.2268H351.509L351.032 36.4702H351.325C351.729 34.5635 355.212 33.0968 359.759 32.9135H359.795V47.8004C359.575 54.4739 359.172 56.6006 358.145 56.6006V56.8939H366.836V56.6006C365.589 56.6006 365.186 54.4739 365.186 47.8004V32.9135H365.222C369.769 33.0968 373.252 34.5635 373.656 36.4702H373.949L373.472 31.2268Z" fill="white"/>
<path d="M401.322 31.5201V31.2268H392.632V31.5201C393.659 31.5201 394.062 33.6468 394.282 40.3203V43.217H384.639V40.3203C384.639 33.6468 385.042 31.5201 386.289 31.5201V31.2268H377.599V31.5201C378.625 31.5201 379.029 33.6468 379.249 40.3203V47.8004C379.029 54.4739 378.625 56.6006 377.599 56.6006V56.8939H386.289V56.6006C385.042 56.6006 384.639 54.4739 384.639 47.8004V44.9037H394.282V47.8004C394.062 54.4739 393.659 56.6006 392.632 56.6006V56.8939H401.322V56.6006C400.076 56.6006 399.672 54.4739 399.672 47.8004V40.3203C399.672 33.6468 400.076 31.5201 401.322 31.5201Z" fill="white"/>
<path d="M198.353 70.5335H187.378V70.9152C188.714 70.9152 189.239 73.6828 189.525 82.3675V92.1019C189.239 100.787 188.714 103.554 187.378 103.554V103.936H198.353C210.807 103.936 217.917 97.0168 217.87 87.2347C217.917 77.4525 210.807 70.5335 198.353 70.5335ZM199.641 101.741H196.54V72.7285H197.208C204.222 72.7762 209.662 78.8363 210.426 87.2347C211.141 95.633 206.704 101.741 199.641 101.741Z" fill="white"/>
<path d="M246.527 92.1019L237.842 70.5335H235.17L225.817 93.7243C222.763 101.121 221.236 103.554 219.996 103.554V103.936H227.01V103.554C225.865 103.554 225.769 102.123 226.962 98.162H240.657C241.898 102.123 241.898 103.554 240.944 103.554V103.936H253.255V103.554C251.633 103.554 249.915 100.787 246.527 92.1019ZM227.678 95.967C227.917 95.2513 228.203 94.4401 228.537 93.5811L233.882 80.3156L238.749 92.3405C239.226 93.6766 239.608 94.9172 239.989 95.967H227.678Z" fill="white"/>
<path d="M289.993 70.5335V70.9152C292.379 70.9152 290.614 75.3529 282.979 94.1537C277.396 75.4484 275.917 70.9152 277.969 70.9152V70.5335H266.135V70.9152C267.709 70.9152 268.95 72.8239 272.386 82.5106C271.336 85.7077 270.047 89.6206 268.664 94.1537C261.649 75.4484 260.17 70.9152 262.222 70.9152V70.5335H250.388V70.9152C252.774 70.9152 254.348 75.2098 265.323 103.936H267.996L273.674 86.2326C275.249 90.7181 277.157 96.4919 279.639 103.936H282.311L291.186 80.7451C294.05 73.2534 295.767 70.9152 297.008 70.9152V70.5335H289.993Z" fill="white"/>
<path d="M312.245 104.413C318.114 104.413 325.081 100.977 325.081 94.965C325.081 88.3799 319.593 85.0874 313.342 83.0832C309.095 81.7471 305.898 80.8405 305.898 77.7866C305.898 74.5417 308.188 72.2513 311.481 72.2513C316.444 72.2513 321.836 76.1164 322.504 80.6019H322.886L322.838 73.7305C320.07 71.5355 315.823 70.0563 311.481 70.0563C306.041 70.0563 300.124 73.6828 300.124 79.6475C300.124 84.8488 303.369 87.9504 308.475 89.7637C313.581 91.577 318.114 93.1517 318.114 97.4463C318.114 100.262 315.871 102.218 312.149 102.218C307.186 102.218 301.126 97.494 300.267 91.4338H299.886L299.933 100.691C302.701 102.886 307.759 104.413 312.245 104.413Z" fill="white"/>
<path d="M348.266 104.413C358.335 104.413 365.445 97.3031 365.397 87.2347C365.445 77.1662 358.335 70.0563 348.266 70.0563C338.198 70.0563 331.04 77.1662 331.04 87.2347C331.04 97.3031 338.198 104.413 348.266 104.413ZM349.507 102.218C344.067 102.218 339.725 96.0147 339.009 87.2347C338.198 78.4069 341.49 72.2036 346.93 72.2513C352.322 72.2036 356.712 78.4069 357.476 87.2347C358.239 96.0147 354.947 102.218 349.507 102.218Z" fill="white"/>
<path d="M402.119 70.5335H395.629V70.9152C396.966 70.9152 397.49 73.6828 397.777 82.3675V93.2471L376.638 70.5335H371.818V70.9152C373.154 70.9152 373.966 73.6828 373.966 82.3675V92.1019C373.679 100.787 373.154 103.554 371.818 103.554V103.936H378.308V103.554C376.686 103.554 376.447 100.787 376.161 92.1019V81.7471L397.3 103.936H399.972V82.3675C400.258 73.6828 400.497 70.9152 402.119 70.9152V70.5335Z" fill="white"/>
</svg>
