<svg width="314" height="53" viewBox="0 0 314 53" fill="none" xmlns="http://www.w3.org/2000/svg">
<path d="M7.52864 14.3085V51.5147H0.197266V0.145508H10.4162L18.7831 30.8926V0.145508H26.0464V51.5147H17.6733L7.52864 14.3085Z" fill="#FEFEFE"/>
<path d="M58.2583 51.5148H50.0374L48.6369 42.189H38.6333L37.2254 51.5098H29.748L38.037 0.140625H49.9607L58.2583 51.5148ZM39.6713 35.2239H47.5235L43.598 9.24358L39.6713 35.2239Z" fill="#FEFEFE"/>
<path d="M61.9141 0.145508H74.8003C82.9457 0.145508 86.9442 4.62033 86.9442 12.8412V38.8215C86.9442 47.0399 82.9457 51.5171 74.8003 51.5171H61.9141V0.145508ZM70.0607 7.48183V44.1684H74.6506C77.2486 44.1684 78.7975 42.8484 78.7975 39.1802V12.4738C78.7975 8.80316 77.2437 7.48183 74.6506 7.48183H70.0607Z" fill="#FEFEFE"/>
<path d="M118.364 51.5148H110.143L108.736 42.189H98.7388L97.3334 51.5098H89.8535L98.1425 0.140625H110.066L118.364 51.5148ZM99.7767 35.2239H107.626L103.701 9.24358L99.7767 35.2239Z" fill="#FEFEFE"/>
<path d="M145.166 0.145508C153.238 0.145508 156.424 3.96093 156.424 11.52V13.941C156.424 19.3709 154.868 22.7483 150.351 24.1414C155.386 25.5357 157.312 29.4983 157.312 35.1521V39.4821C157.312 47.1884 153.535 51.5184 145.464 51.5184H133.543V0.145508H145.166ZM143.761 21.938C148.35 21.938 150.72 20.4707 150.72 15.1139V12.1064C150.72 7.55611 149.163 5.35268 145.018 5.35268H139.317V21.938H143.761ZM145.463 46.3026C149.685 46.3026 151.609 44.1016 151.609 39.3324V34.7822C151.609 29.0578 149.313 27.1501 144.353 27.1501H139.318V46.3026H145.463Z" fill="#FEFEFE"/>
<path d="M167.994 39.4091C167.994 44.0324 169.85 46.8222 174.067 46.8222C178.214 46.8222 180.065 44.0324 180.065 39.4091V0.145508H185.47V39.1159C185.47 46.8964 181.844 52.1061 173.841 52.1061C165.923 52.1061 162.287 46.8951 162.287 39.1159V0.145508H167.989L167.994 39.4091Z" fill="#FEFEFE"/>
<path d="M196.893 28.3972V51.5135H191.115V0.145508H196.893V23.2606H209.635V0.145508H215.412V51.5147H209.635V28.3972H196.893Z" fill="#FEFEFE"/>
<path d="M239.717 22.8894V28.0249H227.056V46.2964H242.608V51.5085H221.279V0.145508H242.607V5.35396H227.056V22.8894H239.717Z" fill="#FEFEFE"/>
<path d="M252.908 51.5147H247.725V0.145508H255.055L267.055 37.2775V0.145508H272.166V51.5147H266.167L252.913 9.97721L252.908 51.5147Z" fill="#FEFEFE"/>
<path d="M290.235 0.145508C298.307 0.145508 302.01 4.98651 302.01 12.913V38.819C302.01 46.6712 298.307 51.5147 290.235 51.5147H278.09V0.145508H290.235ZM290.162 46.3026C294.309 46.3026 296.308 43.7342 296.308 39.0392V12.621C296.308 7.91978 294.309 5.35396 290.087 5.35396H283.867V46.3038L290.162 46.3026Z" fill="#FEFEFE"/>
<path d="M313.194 0.145508V51.5147H307.418V0.145508H313.194Z" fill="#FEFEFE"/>
</svg>
