<svg width="426" height="98" viewBox="0 0 426 98" fill="none" xmlns="http://www.w3.org/2000/svg">
<path d="M54.6654 55.7472C56.0423 51.8602 57.6575 48.0616 59.5019 44.3733C63.324 40.5321 67.3955 36.2477 71.7166 31.52C78.5142 23.7816 84.8157 15.6211 90.5833 7.08738L91.2411 6.1318C92.4562 4.39434 93.047 1.96737 91.7475 0.887634C89.9017 -0.642791 86.774 2.16168 84.5811 4.41193C73.9334 16.036 64.8966 29.0387 57.7135 43.0706C50.8754 50.1899 43.4102 56.6791 35.4084 62.4597C31.6548 65.0348 28.766 65.898 27.2786 64.8931C25.4679 63.6732 25.4185 59.6075 25.9599 57.1088C26.2322 56.0909 26.5792 55.0944 26.9982 54.1276C35.9833 40.9812 47.0339 23.7835 48.816 16.2874C48.8749 16.0403 48.8457 15.7805 48.7335 15.5526C48.6213 15.3247 48.4332 15.143 48.2015 15.0391C47.9697 14.9351 47.7089 14.9152 47.4641 14.9829C47.2193 15.0506 47.0058 15.2016 46.8604 15.4099C46.6104 15.7698 21.6983 51.5445 15.2246 61.2637C12.6845 65.0763 9.70177 69.1277 7.06931 72.7013C1.07979 80.8344 -0.0573261 82.5321 0.369473 83.7233C0.439995 83.9193 0.558155 84.0946 0.713271 84.2336C0.868388 84.3726 1.05567 84.4709 1.25818 84.5196C1.36821 84.5503 1.48156 84.5674 1.59575 84.5705C2.4175 84.5705 4.19801 83.5146 11.6877 74.4229C15.6372 69.6293 19.8335 64.1749 23.4947 59.1011C23.3275 61.8387 23.7813 65.1638 26.0603 66.6974C28.4108 68.2788 31.9685 67.4555 36.641 64.2545C43.1932 59.5838 49.3564 54.39 55.0698 48.7241C54.1605 50.8231 53.3324 52.9252 52.603 55.0146C46.8396 71.5483 45.2376 82.5655 47.8398 87.781C47.9024 87.9115 47.9904 88.0283 48.0986 88.1244C48.2068 88.2206 48.3332 88.2942 48.4701 88.3411C48.6071 88.3879 48.752 88.4071 48.8964 88.3974C49.0409 88.3876 49.1819 88.3493 49.3114 88.2845C49.4409 88.2197 49.5561 88.1298 49.6504 88.02C49.7448 87.9103 49.8164 87.7828 49.861 87.645C49.9056 87.5073 49.9223 87.3621 49.9102 87.2178C49.8982 87.0736 49.8575 86.9332 49.7906 86.8048C48.1917 83.615 47.7379 75.6157 54.6654 55.7472ZM86.145 5.94235C87.2661 4.54955 88.6919 3.43256 90.3126 2.67758C90.2323 3.47608 89.938 4.2381 89.4607 4.88326L88.7949 5.83883C83.0833 14.2899 76.8441 22.3722 70.1145 30.0374C67.7236 32.6534 65.4123 35.1297 63.1806 37.4665C69.6255 26.1282 77.3289 15.5533 86.145 5.94235ZM33.171 40.9128C33.593 40.0671 33.9911 39.282 34.3414 38.5956C34.4336 38.4125 34.472 38.207 34.4523 38.003C34.4325 37.7989 34.3554 37.6047 34.23 37.4426C37.0663 33.3482 39.8181 29.3828 42.1432 26.0337C39.8962 30.1504 36.8752 35.1653 33.171 40.9128ZM6.45296 77.2464C7.22693 76.1826 8.04556 75.0742 8.83068 74.0056C11.4775 70.4112 14.4777 66.3376 17.0449 62.4821C19.2155 59.2269 23.4612 53.0335 28.156 46.2382C27.0412 48.5983 25.9153 51.0572 25.0824 53.0861C19.2987 61.4602 13.0798 69.5252 6.45141 77.248L6.45296 77.2464ZM127.073 5.22569C125.817 4.48676 123.686 4.7336 121.752 6.95518C119.486 9.56375 103.962 30.7954 98.7435 48.6604C92.9658 56.4463 86.3218 65.2227 82.8708 69.3108C78.6872 74.2667 74.4048 76.8993 71.9635 76.0186C69.8725 75.2637 68.737 71.8636 68.6812 66.1799C68.6925 63.6505 69.0135 61.132 69.6368 58.6806C76.5882 43.9051 83.8597 29.7682 87.5719 26.6246C87.7323 26.4875 87.8495 26.3068 87.9092 26.1044C87.969 25.902 87.9688 25.6865 87.9087 25.4842C87.8485 25.282 87.7309 25.1015 87.5702 24.9647C87.4095 24.8279 87.2126 24.7407 87.0033 24.7135C86.7304 24.7063 86.4594 24.7597 86.2096 24.8698C85.9598 24.98 85.7376 25.1441 85.5589 25.3505C82.3739 28.1916 71.121 43.5803 67.5808 57.921C59.1149 75.8928 51.2398 94.6177 50.6458 96.0319C50.5895 96.1642 50.56 96.3064 50.5589 96.4502C50.5577 96.594 50.585 96.7366 50.6392 96.8698C50.6933 97.003 50.7733 97.1242 50.8745 97.2264C50.9756 97.3286 51.096 97.4097 51.2287 97.4652C51.3616 97.5216 51.5047 97.5503 51.6491 97.5496C51.8638 97.5496 52.0739 97.4861 52.2527 97.3671C52.4315 97.2481 52.5711 97.0789 52.654 96.8807C52.7846 96.5734 59.1021 81.551 66.509 65.4155C66.509 65.6814 66.509 65.9474 66.509 66.2117C66.5759 72.9816 68.1653 76.9756 71.2341 78.0825C76.2856 79.9075 82.7004 72.9147 84.5461 70.7297C87.4334 67.3058 92.531 60.6395 97.5045 53.9938C97.4026 54.591 97.3166 55.1834 97.2481 55.7663C95.0026 74.7732 97.9472 82.806 99.9013 85.9018C99.9772 86.0241 100.077 86.1302 100.194 86.2139C100.311 86.2975 100.444 86.3571 100.584 86.3893C100.724 86.4215 100.869 86.4257 101.011 86.4015C101.153 86.3772 101.289 86.3251 101.411 86.2482C101.532 86.1712 101.638 86.0711 101.72 85.9533C101.803 85.8355 101.862 85.7024 101.893 85.5618C101.924 85.4213 101.927 85.276 101.902 85.1342C101.876 84.9925 101.823 84.8572 101.745 84.7361C99.9459 81.8839 97.2481 74.3607 99.414 56.0211C99.6869 53.863 100.132 51.7301 100.745 49.643C105.673 42.999 109.933 37.1273 111.003 35.5555C113.122 32.4452 126.96 11.5082 128.094 8.3884C128.334 7.8268 128.363 7.19725 128.175 6.61595C127.988 6.03465 127.596 5.5409 127.073 5.22569ZM126.036 7.63043C125.081 10.2565 112.363 29.6631 109.194 34.3149C108.45 35.4058 106.168 38.5781 103.187 42.6375C108.528 30.4524 115.314 18.9531 123.399 8.38685C123.659 8.02378 123.989 7.71637 124.369 7.48279C124.75 7.24921 125.173 7.09418 125.614 7.02682C125.737 7.02142 125.858 7.0489 125.966 7.10643C126.108 7.19402 126.132 7.37084 126.036 7.6352V7.63043Z" fill="white"/>
<path d="M154.999 68.9377V46.2919H145.998L141.411 59.9081L137.083 46.2919H127.767V68.9377H134.296V56.1529L138.402 68.9377H144.393L148.492 56.1529V68.9377H154.999ZM165.44 68.9377V46.2919H158.273V68.9377H165.44ZM191.605 60.0514H184.524C184.528 60.9241 184.259 61.7762 183.754 62.488C183.291 63.0234 182.704 63.4368 182.044 63.6918C181.385 63.9467 180.672 64.0354 179.97 63.9499C179.262 64.0186 178.548 63.9194 177.885 63.6604C177.223 63.4015 176.631 62.9899 176.157 62.4593C175.277 61.0272 174.894 59.3443 175.068 57.6721C174.922 56.0698 175.262 54.4606 176.043 53.0538C176.497 52.4784 177.092 52.0289 177.769 51.7479C178.446 51.467 179.184 51.3639 179.913 51.4485C182.142 51.4485 183.209 52.0218 183.868 53.1685C184.261 53.8897 184.468 54.6976 184.47 55.519H191.551C191.541 54.2369 191.348 52.9628 190.977 51.7352C189.974 48.5501 186.936 45.9734 179.999 45.9734C175.498 45.9734 172.373 47.0882 170.367 49.2699C168.504 51.6241 167.584 54.5876 167.787 57.583C167.787 61.5961 168.704 64.4914 170.596 66.3833C172.571 68.3357 175.632 69.2562 179.852 69.2562C185.958 69.2562 189.14 67.479 190.716 64.1251C191.28 62.8396 191.582 61.4548 191.605 60.0514ZM215.913 68.9377V46.2919H208.948V54.7482H200.893V46.2919H193.927V68.9377H200.893V60.596H208.948V68.9377H215.913ZM226.491 64.1219H234.603L236.266 68.9377H243.604L235.291 46.2919H226.373L217.49 68.9377H224.714L226.491 64.1219ZM232.998 59.3634H228.211L230.217 54.0316L230.676 52.0823L231.135 53.9679L232.998 59.3634ZM264.702 68.9377V63.6632H252.061V60.3094H264.1V54.9234H252.061V51.6269H264.559V46.2919H245.21V68.9377H264.702ZM285.37 68.9377V63.3479H274.449V46.2919H267.362V68.9377H285.37ZM323.123 68.9377V46.2919H314.122L309.535 59.9081L305.207 46.2919H295.89V68.9377H302.42V56.1529L306.525 68.9377H312.516L316.616 56.1529V68.9377H323.123ZM337.57 45.8906C329.142 45.8906 325.416 50.2764 325.416 57.5001C325.416 65.2399 329.2 69.2849 337.57 69.2849C345.912 69.2849 349.724 65.3864 349.724 57.4173C349.724 49.8464 346.17 45.8906 337.57 45.8906ZM337.592 63.9786C334.267 63.9786 332.519 62.3733 332.519 57.5861C332.519 53.0283 333.837 51.251 337.564 51.251C341.434 51.251 342.66 53.0856 342.66 57.5861C342.673 62.6313 340.809 63.9786 337.592 63.9786ZM374.38 68.9377C374.38 68.7944 374.351 65.4978 374.351 62.7173V55.5222H362.277V60.3954H367.952V61.5993C367.723 63.2333 365.946 64.4086 363.595 64.4086C362.794 64.4981 361.982 64.3845 361.236 64.0784C360.49 63.7723 359.832 63.2834 359.324 62.6568C358.566 61.1704 358.229 59.5051 358.35 57.8409C358.143 56.0283 358.557 54.199 359.525 52.6525C360.008 52.1404 360.605 51.7491 361.267 51.5101C361.929 51.2711 362.638 51.1911 363.337 51.2765C363.936 51.2369 364.536 51.3236 365.099 51.531C365.662 51.7384 366.175 52.0619 366.605 52.4805C367.074 52.9934 367.355 53.6504 367.402 54.3437H374.167C374.147 53.1529 373.904 51.9763 373.45 50.8752C372.131 47.894 368.949 45.8874 363.073 45.8874C357.741 45.8874 354.645 47.7793 353.011 50.2446C351.68 52.4838 351.042 55.0673 351.177 57.669C351.061 60.2776 351.667 62.8677 352.929 65.1539C354.655 67.8229 357.779 69.2817 361.907 69.2817C363.127 69.3906 364.357 69.2489 365.52 68.8655C366.683 68.4821 367.756 67.8651 368.672 67.0522L368.965 68.9377H374.38ZM384.126 68.9377V46.2919H376.96V68.9377H384.126ZM405.425 68.9377V63.3479H394.503V46.2919H387.423V68.9377H405.425ZM425.29 68.9377V63.3479H414.368V46.2919H407.288V68.9377H425.29Z" fill="white"/>
</svg>
