<svg width="640" height="96" viewBox="0 0 640 96" fill="none" xmlns="http://www.w3.org/2000/svg">
<path d="M203.798 25.7442H168.17V35.0014H180.558V67.0515H191.385V35.0014H203.773V25.7442H203.798ZM207.575 67.0515H217.471V50.6887C217.471 47.3861 219.107 44.2587 222.834 44.2587C228.247 44.2587 227.769 48.4119 227.769 52.5401V67.0515H237.664V47.7864C237.664 43.458 236.859 36.1523 226.787 36.1523C223.06 36.0773 219.561 37.9537 217.597 41.1312H217.471V25.7442H207.575V67.0265V67.0515ZM252.092 48.9373C252.268 45.5347 255.063 42.8576 258.487 42.8075C261.786 42.9326 264.405 45.6598 264.379 48.9373H252.092ZM274.275 54.4416C274.728 44.2587 269.34 36.1774 258.513 36.1774C249.75 35.9522 242.474 42.8075 242.247 51.5143C242.247 51.6645 242.247 51.7895 242.247 51.9397C242.247 61.9975 248.945 67.9021 258.79 67.9021C265.538 67.9021 272.009 64.8998 273.796 57.9444H264.53C263.498 60.071 261.257 61.372 258.89 61.2469C255.34 61.4221 252.319 58.6949 252.142 55.1672C252.142 54.917 252.142 54.6668 252.142 54.4166H274.3L274.275 54.4416ZM296.81 67.0515H327.025V57.7942H307.637V25.7442H296.81V67.0515ZM331.734 67.0515H341.629V37.028H331.734V67.0515ZM341.629 25.7442H331.734V33.2751H341.629V25.7442ZM346.287 57.1437C346.589 65.5253 353.916 67.9021 361.067 67.9021C368.218 67.9021 375.57 65.2501 375.57 57.1938C375.394 52.9655 372.121 49.5378 367.891 49.0874C363.359 48.1117 356.711 47.5863 356.711 44.7591C356.711 42.6824 359.33 42.5073 360.967 42.5073C362.074 42.4573 363.157 42.7075 364.114 43.2579C364.995 43.8333 365.474 44.8341 365.398 45.8599H374.538C374.186 38.0538 367.261 36.1523 360.639 36.1523C354.697 36.1523 346.841 38.1289 346.841 45.3345C346.841 53.4408 354.647 53.616 360.866 55.1672C362.603 55.5675 365.7 56.0429 365.7 58.3447C365.7 60.6465 362.956 61.5222 361.042 61.5222C359.733 61.5722 358.449 61.1969 357.366 60.4713C356.308 59.6957 355.704 58.4447 355.729 57.1187H346.287V57.1437ZM398.03 37.028H391.912V27.9459H382.016V37.028H377.006V43.383H382.016V56.7434C382.016 64.8998 384.156 67.3267 392.617 67.3267C394.43 67.3267 396.217 67.1015 398.03 67.0265V59.7958C397.149 59.7958 396.293 59.9209 395.462 59.9209C393.322 59.9209 391.912 59.3955 391.912 57.0186V43.383H398.03V37.028ZM402.21 67.0515H412.105V37.003H402.21V67.0265V67.0515ZM412.105 25.7692H402.21V33.3001H412.105V25.7692ZM418.501 67.0515H428.396V50.6887C428.396 47.3861 430.033 44.2587 433.759 44.2587C439.173 44.2587 438.694 48.4119 438.694 52.5401V67.0515H448.59V47.7864C448.59 43.458 447.784 36.1523 437.712 36.1523C433.91 36.1523 430.36 38.0038 428.22 41.1312H428.094V37.028H418.501V67.0515ZM474.424 51.2641C474.424 55.0171 472.611 58.2696 468.431 58.2696C464.251 58.2696 462.741 54.7419 462.741 51.2141C462.741 47.5112 464.125 43.6832 468.507 43.6832C472.938 43.6832 474.449 47.4361 474.449 51.2391L474.424 51.2641ZM483.79 37.053H474.298V40.806H474.172C472.611 37.8537 469.463 36.0523 466.089 36.1774C457.529 36.1774 452.82 42.8826 452.82 50.8638C452.82 59.3204 456.949 65.7755 466.089 65.7755C469.337 65.7755 472.359 64.0992 474.122 61.372H474.247V64.1992C474.247 67.9021 473.794 71.2047 469.061 71.2047C467.827 71.2798 466.593 71.0546 465.46 70.5792C464.478 70.0538 463.848 69.0781 463.773 67.9772H453.878C455.036 76.0085 461.683 77.5847 468.733 77.5847C482.884 77.5847 483.815 68.3275 483.815 63.4236V37.028L483.79 37.053ZM487.819 57.1688C488.121 65.5503 495.448 67.9272 502.599 67.9272C509.75 67.9272 517.102 65.2751 517.102 57.2188C516.926 52.9905 513.653 49.5628 509.423 49.1125C504.89 48.1367 498.243 47.6113 498.243 44.7841C498.243 42.7075 500.862 42.5323 502.498 42.5323C503.606 42.4823 504.689 42.7325 505.646 43.2829C506.527 43.8584 507.006 44.8591 506.93 45.8849H516.07C515.717 38.0788 508.793 36.1774 502.171 36.1774C496.229 36.1774 488.373 38.1539 488.373 45.3595C488.373 53.4659 496.178 53.641 502.398 55.1922C504.135 55.5925 507.232 56.0679 507.232 58.3697C507.232 60.6715 504.488 61.5472 502.574 61.5472C501.265 61.5972 499.981 61.2219 498.898 60.4964C497.84 59.7207 497.211 58.4698 497.261 57.1437H487.844L487.819 57.1688ZM539.512 67.0515H569.727V57.7942H550.339V25.7442H539.512V67.0265V67.0515ZM582.341 58.4447C582.341 56.0679 584.205 55.1422 586.42 54.6168C588.51 54.3165 590.575 53.7661 592.539 52.9905C592.766 59.1703 591.204 61.8474 586.496 61.8474C584.255 61.8474 582.341 60.8716 582.341 58.4197V58.4447ZM582.921 46.3103C583.248 43.9334 585.464 42.2571 587.856 42.5573C589.895 42.5573 592.64 43.433 592.64 45.6848C592.64 47.5362 591.708 48.1117 590.021 48.462C583.147 49.863 572.446 49.0874 572.446 58.8701C572.446 65.0499 576.978 67.9522 582.744 67.9522C586.42 68.1023 589.996 66.7512 592.665 64.2493C592.74 65.225 592.942 66.1758 593.244 67.0765H603.19C602.233 64.6246 601.83 61.9975 602.032 59.3955V46.2602C602.032 37.7536 595.107 36.2024 587.956 36.2024C584.633 36.0773 581.334 36.8028 578.363 38.279C575.442 39.9303 573.655 42.9827 573.655 46.3103H582.921ZM607.999 67.0765H617.441V63.5988H617.567C619.405 66.3759 622.527 68.0022 625.876 67.9272C635.369 67.9272 639.372 59.8208 639.372 51.3892C639.372 43.5831 635.192 36.1774 626.632 36.1774C623.232 36.0272 619.984 37.5784 618.02 40.3306H617.894V25.7442H607.999V67.0515V67.0765ZM623.61 43.7082C627.966 43.7082 629.477 47.9365 629.477 51.7395C629.477 55.8427 627.966 60.4213 623.535 60.4213C619.103 60.4213 617.542 57.0186 617.542 51.7395C617.542 45.5347 620.891 43.6832 623.56 43.6832L623.61 43.7082Z" fill="white"/>
<path d="M66.1191 0H91.2983V75.7592H136.369V96H66.1191V0Z" fill="white"/>
<path d="M171.014 96H147.119V20.2408H102.049V0H171.014V96Z" fill="white"/>
<path d="M0.701172 8.63174H9.38797V0H16.9417V8.63174H25.6285V16.1376H16.9417V24.7694H9.38797V16.1376H0.701172V8.63174Z" fill="white"/>
</svg>
