<svg width="541" height="140" viewBox="0 0 541 140" fill="none" xmlns="http://www.w3.org/2000/svg">
<path d="M112.414 30.978C112.39 30.8483 112.367 30.7128 112.338 30.5773C112.314 30.2119 112.243 29.8525 112.126 29.5048C112.067 29.3398 112.002 29.1748 111.932 29.0157C111.026 27.0888 109.337 25.6451 107.301 25.0381C107.095 25.0028 106.884 24.991 106.672 24.991C103.801 25.0735 103.065 27.6486 102.671 29.7582C102.483 30.7305 102.306 31.7028 102.118 32.6751C100.424 41.5259 98.2467 50.2825 96.0228 59.0096C95.0873 62.6867 94.499 66.5464 93.4165 70.1586C91.4632 76.6465 92.3398 83.5822 98.7704 87.112C99.8706 87.6895 101.106 87.9546 102.342 87.8722C103.024 87.7897 103.548 87.2357 103.601 86.5463C104.224 76.2281 104.248 66.5818 106.778 56.5288C108.307 50.4593 109.702 44.3426 111.049 38.2378C111.537 35.9927 112.82 33.2879 112.414 30.9662V30.978Z" fill="white"/>
<path d="M73.0165 111.643C70.0807 111.554 67.1861 111.054 64.2914 110.547C58.4786 109.527 53.7189 106.97 49.4123 103.711C48.3356 102.898 47.2883 102.038 46.2646 101.148C34.1742 92.3088 28.0084 77.5004 15.0766 69.7044C13.7705 68.9737 12.3879 68.3962 10.9523 67.9719C9.59325 67.5653 8.17534 67.3768 6.75155 67.4239C4.38642 67.5241 -1.11458 70.6236 1.47412 73.517C1.8389 73.8764 2.2272 74.2064 2.64492 74.5011C3.49802 75.1964 4.31582 75.9389 5.08066 76.7344C8.22241 79.9636 11.1759 83.3755 13.9293 86.9465C19.2891 93.8233 24.0312 101.16 28.6026 108.579C32.7386 115.29 35.7686 122.627 41.3461 128.437C48.0826 135.455 58.5021 140.122 68.5393 139.71C85.7012 139.003 97.9093 126.257 101.604 110.936C102.645 106.392 103.363 101.778 103.757 97.135C103.775 96.9464 103.64 96.7814 103.451 96.7637C103.322 96.752 103.199 96.8109 103.128 96.9228C97.1033 107.064 84.5834 111.996 73.0165 111.655V111.643Z" fill="white"/>
<path d="M58.7364 6.69383C58.7541 6.98257 58.7717 7.27721 58.7894 7.56595C58.8423 8.53236 58.9482 9.49287 59.0895 10.4475C59.4366 12.7869 59.5837 15.1676 59.7602 17.5305C59.9249 19.8346 60.0131 22.1445 60.1191 24.4427C60.3309 29.1038 60.4779 33.765 60.6721 38.4202C60.8604 43.0342 61.0192 47.6423 61.0486 52.2563C61.078 56.8644 61.0722 61.4666 61.3193 66.0688C61.5546 70.6828 62.1076 75.2733 62.9843 79.8107C63.808 84.0181 64.9846 87.5831 67.5027 91.0893C68.5735 92.5978 69.7679 94.0239 71.0681 95.3438C73.7215 98.0133 76.9045 100.129 80.5934 101.036C84.2352 101.908 88.0594 101.637 91.5483 100.252C93.2545 99.5748 94.8842 98.7086 96.4021 97.6715C97.214 97.1235 98.0083 96.5401 98.7731 95.9213C99.4556 95.3674 100.191 94.8665 100.821 94.2714C101.385 93.7469 101.874 93.3639 102.427 92.8336C102.703 92.5684 103.703 91.7375 103.48 91.2779C103.386 91.1306 103.203 91.0657 103.039 91.1188C102.468 91.4547 101.927 91.8436 101.421 92.2679C100.862 92.6862 100.285 93.081 99.6968 93.4464C98.0848 94.4717 96.3315 95.2496 94.49 95.7505L94.4312 95.7622C90.6481 96.7404 86.6239 96.4399 83.3233 94.2242C80.511 92.3327 78.4871 89.4217 77.2045 86.3162C76.5691 84.7782 76.1161 83.1754 75.8454 81.5313C75.4983 79.3864 75.2041 77.212 75.0629 75.0434C74.91 72.7394 74.8276 70.4236 74.6688 68.1195C74.4687 65.2792 74.2216 62.4389 74.0451 59.5986C73.9274 57.7719 73.7745 55.9452 73.5744 54.1302C73.3215 51.8144 73.3038 49.4808 73.1155 47.1591C72.7449 42.5864 72.2919 38.0195 71.9506 33.4409C71.6035 28.7385 71.3682 24.0302 71.1917 19.3219C71.1034 17.0061 71.0269 14.6844 70.9622 12.3744C70.9034 10.365 71.0446 8.22004 70.5504 6.25777C70.1032 4.42513 69.0324 2.80464 67.5204 1.67913C66.7026 1.11343 65.7789 0.712721 64.8081 0.494691C63.8138 0.205947 62.7607 0.188269 61.7605 0.447549C59.9131 1.01325 58.9071 2.79874 58.7423 4.64316C58.6953 5.32083 58.6953 6.00438 58.7423 6.68204L58.7364 6.69383Z" fill="white"/>
<path d="M96.1487 87.9902C90.9242 84.9319 89.3063 78.9979 89.0121 73.3115C88.6591 66.5172 89.5534 59.6934 90.0829 52.9345C90.483 47.7665 90.5889 42.5868 90.7713 37.413C91.0184 30.3654 91.1537 23.3118 91.3008 16.2641C91.3008 16.0991 91.3361 15.8339 91.3596 15.663C91.4949 14.6966 91.3596 13.7184 91.3537 12.7461C91.3537 12.5104 91.3537 12.2806 91.342 12.0449C91.5302 9.20461 89.1298 7.07734 86.8647 6.00486H86.847C86.6411 5.92826 86.4293 5.86933 86.2234 5.8163C85.3821 5.61005 84.5113 5.60416 83.6641 5.79273C81.8226 6.37021 81.3754 8.17927 81.2637 9.7762C80.993 13.5652 81.0224 17.3778 80.8165 21.1727C80.5988 25.0914 80.3694 29.01 80.1752 32.9287C79.987 36.6293 79.9164 40.3417 79.7222 44.0423C79.3633 50.9722 78.7985 57.8902 78.4867 64.8201C78.1219 72.7104 77.0747 82.7104 81.8108 89.6166C85.2291 94.596 91.6891 95.144 97.096 93.494C98.255 93.1346 99.3669 92.6219 100.391 91.9678C100.914 91.6378 101.426 91.2784 101.909 90.8894C102.156 90.695 102.391 90.4946 102.626 90.2884C102.862 90.0586 103.056 89.7993 103.215 89.5105C103.385 89.1688 103.056 88.8152 102.744 88.7327C102.291 88.6148 101.867 88.9095 101.414 88.9566C100.914 89.045 100.414 89.0981 99.9023 89.1039C98.5786 89.0332 97.296 88.6502 96.1487 87.9902Z" fill="white"/>
<path d="M85.9775 103.3C84.0359 103.471 82.0767 103.347 80.1705 102.941C73.1281 101.415 66.5916 96.2643 63.2204 89.9709C57.8782 80.0063 58.0724 68.2857 56.6427 57.3429C55.1719 46.0643 53.0303 34.9034 51.936 23.5717C51.8771 22.9648 51.8242 22.3578 51.7654 21.7509C51.6595 20.5488 51.6006 19.3408 51.5065 18.1446C51.4241 17.019 51.1888 15.9112 50.8005 14.8505C50.6122 14.332 50.3769 13.8311 50.1062 13.3538C48.3706 10.3013 42.8167 8.49228 39.822 10.6372C38.4629 11.6036 38.6277 13.9902 38.6512 15.4044C38.7042 18.2919 39.1866 21.1381 39.469 24.0078C40.4339 33.8133 40.9163 43.6482 41.7341 53.4655C42.3695 61.0612 43.0638 68.6569 43.0402 76.2821C43.0167 83.1943 43.9816 90.4659 48.0117 96.282C51.63 101.503 57.1722 105.092 63.0615 107.26C66.3327 108.456 69.7392 109.27 73.1987 109.67C77.5465 110.183 81.1648 109.611 85.4538 108.268C87.7013 107.519 89.8841 106.582 91.9785 105.469C96.7794 102.811 101.233 99.2166 103.669 94.2726C104.151 93.2885 103.404 92.9762 102.875 93.6774C101.816 94.8736 99.6917 97.1718 98.4444 98.15C96.7618 99.4817 94.9203 100.601 92.9611 101.479C90.7489 102.469 88.3897 103.088 85.9775 103.312V103.3Z" fill="white"/>
<path d="M137.909 103.184V87.327H134.838V84.8639H144.204V87.327H141.239V103.184H137.909Z" fill="white"/>
<path d="M154.508 103.184V84.8639H157.838V92.5244H161.556V84.8639H164.892V103.184H161.556V94.8933H157.838V103.184H154.502H154.508Z" fill="white"/>
<path d="M176.471 103.184V84.8639H184.125V87.2151H179.801V92.4714H183.219V94.8285H179.801V100.874H184.184V103.184H176.471Z" fill="white"/>
<path d="M199.886 103.402C198.003 103.402 196.65 102.89 195.832 101.87C195.014 100.845 194.608 99.3482 194.608 97.3682V90.6093C194.597 89.7607 194.685 88.9063 194.879 88.0813C195.044 87.4095 195.35 86.7731 195.767 86.2251C196.197 85.6888 196.762 85.2822 197.409 85.0524C198.203 84.7755 199.039 84.6399 199.88 84.6635C201.751 84.6635 203.104 85.1703 203.928 86.1779C204.746 87.1856 205.157 88.6706 205.157 90.6211V97.38C205.169 98.2344 205.075 99.083 204.875 99.908C204.704 100.592 204.404 101.234 203.981 101.794C203.557 102.342 202.992 102.76 202.345 103.002C201.557 103.29 200.727 103.432 199.886 103.414V103.402ZM199.05 100.78C199.315 100.88 199.598 100.933 199.886 100.922C200.168 100.927 200.451 100.88 200.71 100.78C200.921 100.698 201.104 100.574 201.257 100.403C201.404 100.226 201.51 100.02 201.574 99.796C201.651 99.5544 201.704 99.301 201.727 99.0476C201.757 98.7471 201.774 98.4525 201.769 98.1519V89.8314C201.769 89.4602 201.751 89.0889 201.704 88.7236C201.663 88.4349 201.574 88.152 201.445 87.8927C201.321 87.6393 201.121 87.4331 200.868 87.3093C200.562 87.1679 200.227 87.1031 199.886 87.1149C199.545 87.1031 199.209 87.1679 198.897 87.3093C198.644 87.4331 198.444 87.6393 198.321 87.8927C198.197 88.1579 198.109 88.4349 198.068 88.7236C198.015 89.0889 197.991 89.4602 197.997 89.8314V98.1519C197.997 98.4525 198.009 98.753 198.039 99.0476C198.068 99.301 198.115 99.5544 198.191 99.796C198.256 100.02 198.362 100.226 198.503 100.403C198.65 100.574 198.839 100.698 199.05 100.78Z" fill="white"/>
<path d="M216.41 103.18V84.8598H220.605C221.44 84.848 222.27 84.9246 223.088 85.0955C223.735 85.2311 224.347 85.5021 224.888 85.891C225.406 86.2741 225.806 86.7985 226.035 87.4055C226.306 88.1538 226.436 88.9494 226.418 89.7449C226.453 90.7113 226.277 91.6718 225.906 92.5616C225.565 93.2864 224.953 93.858 224.206 94.1526L226.747 103.18H223.4L221.217 94.8126H219.734V103.18H216.404H216.41ZM219.74 92.6795H220.546C221.529 92.6795 222.229 92.4673 222.647 92.0489C223.064 91.6305 223.27 90.9116 223.27 89.8922C223.27 88.914 223.088 88.2128 222.729 87.7885C222.37 87.3642 221.705 87.1521 220.74 87.1521H219.734V92.6795H219.74Z" fill="white"/>
<path d="M240.3 103.184V96.2133L236.57 84.8639H239.683L241.942 92.1591L244.101 84.8639H247.178L243.472 96.2133V103.184H240.295H240.3Z" fill="white"/>
<path d="M276.905 103.402C275.023 103.402 273.67 102.89 272.852 101.87C272.034 100.845 271.628 99.3482 271.628 97.3682V90.6093C271.616 89.7548 271.704 88.9063 271.905 88.0813C272.069 87.4095 272.369 86.7731 272.793 86.2251C273.222 85.6888 273.787 85.2822 274.434 85.0524C275.229 84.7755 276.064 84.6399 276.905 84.6635C278.776 84.6635 280.13 85.1703 280.953 86.1779C281.771 87.1856 282.183 88.6706 282.183 90.6211V97.38C282.195 98.2344 282.1 99.083 281.9 99.908C281.73 100.592 281.43 101.234 281.006 101.794C280.583 102.342 280.018 102.76 279.371 103.002C278.582 103.29 277.747 103.432 276.905 103.414V103.402ZM276.07 100.78C276.335 100.88 276.617 100.933 276.905 100.922C277.188 100.927 277.47 100.88 277.729 100.78C277.941 100.698 278.123 100.574 278.276 100.403C278.423 100.226 278.529 100.02 278.594 99.796C278.67 99.5544 278.723 99.301 278.747 99.0476C278.776 98.7471 278.794 98.4525 278.788 98.1519V89.8314C278.788 89.4602 278.77 89.0889 278.723 88.7236C278.682 88.4349 278.594 88.152 278.465 87.8927C278.341 87.6393 278.141 87.4331 277.888 87.3093C277.582 87.1679 277.247 87.1031 276.905 87.1149C276.564 87.1031 276.223 87.1679 275.911 87.3093C275.658 87.4331 275.458 87.6393 275.335 87.8927C275.211 88.1579 275.123 88.4349 275.082 88.7236C275.029 89.0889 275.005 89.4602 275.011 89.8314V98.1519C275.011 98.4525 275.023 98.753 275.052 99.0476C275.076 99.301 275.129 99.5544 275.205 99.796C275.27 100.02 275.376 100.226 275.517 100.403C275.664 100.574 275.852 100.698 276.064 100.78H276.07Z" fill="white"/>
<path d="M293.42 103.184V84.8639H300.933V87.1738H296.75V92.5008H300.098V94.8579H296.75V103.19H293.42V103.184Z" fill="white"/>
<path d="M325.834 103.184V84.8639H333.488V87.2151H329.164V92.4714H332.582V94.8285H329.164V100.874H333.547V103.184H325.834Z" fill="white"/>
<path d="M344.27 103.184V84.8639H346.564L351.041 95.241V84.8639H353.801V103.184H351.612L347.088 92.2769V103.184H344.264H344.27Z" fill="white"/>
<path d="M370.268 103.401C369.562 103.412 368.862 103.312 368.185 103.1C367.091 102.782 366.191 101.998 365.726 100.961C365.479 100.425 365.302 99.859 365.208 99.2756C365.108 98.6038 365.055 97.9262 365.061 97.2485V90.8608C365.055 90.1537 365.108 89.4466 365.214 88.7453C365.314 88.1561 365.485 87.5786 365.732 87.0305C365.955 86.5356 366.279 86.0936 366.691 85.7341C367.126 85.3688 367.638 85.0977 368.179 84.9386C369.632 84.532 371.168 84.5556 372.609 85.0093C373.21 85.2215 373.739 85.5927 374.145 86.0818C374.527 86.5709 374.804 87.1307 374.963 87.7318C375.139 88.4507 375.228 89.1932 375.216 89.9357V91.5031H372.003V89.9474C372.033 89.3287 371.986 88.71 371.862 88.103C371.674 87.4843 371.203 87.1543 370.462 87.1072H370.28C370.032 87.1072 369.785 87.1366 369.55 87.2073C369.356 87.2663 369.174 87.3723 369.032 87.5196C368.903 87.6552 368.797 87.8143 368.715 87.9793C368.62 88.1796 368.562 88.3918 368.532 88.6157C368.491 88.8809 368.468 89.1225 368.456 89.3405C368.444 89.5585 368.438 89.8473 368.438 90.1773V97.9321C368.438 99.0104 368.573 99.7765 368.838 100.23C369.109 100.684 369.585 100.914 370.274 100.914C370.485 100.914 370.697 100.89 370.897 100.831C371.056 100.784 371.209 100.713 371.35 100.625C371.48 100.531 371.586 100.407 371.662 100.26C371.839 99.9474 371.939 99.6056 371.956 99.2462C371.974 99.0046 371.986 98.7983 371.992 98.6274C371.998 98.4565 371.998 98.2267 371.998 97.9321V96.2939H375.21V97.7965C375.21 98.4153 375.169 99.034 375.069 99.641C374.98 100.171 374.816 100.69 374.58 101.179C374.363 101.633 374.063 102.039 373.68 102.375C373.262 102.717 372.786 102.97 372.268 103.118C371.621 103.312 370.944 103.406 370.274 103.395L370.268 103.401Z" fill="white"/>
<path d="M386.365 103.184V84.8639H389.695V92.5244H393.414V84.8639H396.749V103.184H393.414V94.8933H389.695V103.184H386.365Z" fill="white"/>
<path d="M407.381 103.184L411.099 84.8639H414.576L418.283 103.184H415.182L414.447 98.9298H411.276L410.523 103.184H407.381ZM411.629 96.7554H414.076L412.852 89.2304L411.629 96.7554Z" fill="white"/>
<path d="M428.885 103.184V84.8639H431.179L435.657 95.241V84.8639H438.416V103.184H436.227L431.703 92.2769V103.184H428.879H428.885Z" fill="white"/>
<path d="M451.757 103.184V87.327H448.686V84.8639H458.052V87.327H455.087V103.184H451.757Z" fill="white"/>
<path d="M468.291 103.184L468.591 84.8639H472.015L474.663 97.7395L477.387 84.8639H480.734L481.04 103.184H478.528L478.305 90.5621L475.669 103.184H473.716L471.044 90.5209L470.844 103.184H468.297H468.291Z" fill="white"/>
<path d="M492.549 103.184V84.8639H500.209V87.2151H495.885V92.4714H499.309V94.8285H495.885V100.874H500.268V103.184H492.555H492.549Z" fill="white"/>
<path d="M511.002 103.184V84.8639H513.297L517.774 95.241V84.8639H520.533V103.184H518.35L513.826 92.2769V103.184H511.002Z" fill="white"/>
<path d="M533.862 103.184V87.327H530.791V84.8639H540.157V87.327H537.192V103.184H533.862Z" fill="white"/>
</svg>
