<svg width="222" height="80" viewBox="0 0 222 80" fill="none" xmlns="http://www.w3.org/2000/svg">
<path d="M11.8338 10.8587H0.25V60.1707H11.8338V10.8587Z" fill="white"/>
<path d="M64.0532 15.7506C67.8214 19.3864 69.7055 24.7731 69.7055 31.9097V60.1707H58.1217V33.3818C58.1217 29.0737 57.1041 25.8297 55.0688 23.6504C53.0335 21.4596 50.1201 20.3641 46.346 20.3641C42.0818 20.3641 38.7148 21.645 36.2451 24.2068C33.7754 26.7687 32.545 30.4392 32.5525 35.2192V60.1418H20.9688V10.8588H32.0175V17.2343C33.9557 14.9385 36.4382 13.1615 39.2399 12.0643C42.3697 10.8559 45.7058 10.2653 49.0617 10.3255C55.3072 10.3255 60.31 12.1437 64.0706 15.7795" fill="white"/>
<path d="M138.71 58.8956C134.876 57.8564 131.82 56.5424 129.545 54.9543L133.982 46.2604C136.464 47.8299 139.17 49.0175 142.007 49.7843C144.998 50.6543 148.096 51.1012 151.212 51.1116C158.15 51.1116 161.598 49.3091 161.598 45.6866C161.598 43.9884 160.732 42.7886 158.964 42.1279C157.196 41.4671 154.37 40.8122 150.479 40.1978C147.112 39.7399 143.784 39.0311 140.524 38.0765C137.968 37.3039 135.662 35.87 133.842 33.9208C131.958 31.9311 131.016 29.1606 131.016 25.6094C131.016 20.9727 132.978 17.2632 136.901 14.4812C140.825 11.6991 146.12 10.3064 152.788 10.3023C156.219 10.3023 159.639 10.6912 162.982 11.4615C165.913 12.0353 168.734 13.0699 171.338 14.5276L166.884 23.2215C162.569 20.7582 157.668 19.4964 152.695 19.57C149.305 19.57 146.74 20.0627 144.961 21.0712C143.181 22.0797 142.327 23.3896 142.327 25.0646C142.327 26.8961 143.269 28.2002 145.147 28.9595C147.025 29.7187 149.956 30.4432 153.916 31.1156C157.201 31.5763 160.447 32.2794 163.627 33.2195C166.113 33.9996 168.36 35.3953 170.158 37.2767C171.988 39.1586 172.913 41.8497 172.932 45.3504C172.932 49.9252 170.925 53.5963 166.913 56.3627C162.901 59.1291 157.423 60.4819 150.479 60.4199C146.504 60.4309 142.546 59.9104 138.71 58.8724" fill="white"/>
<path d="M209.479 48.6194C207.619 50.0348 205.322 50.7605 202.983 50.6712C200.774 50.6712 199.058 50.0336 197.901 48.7759C196.744 47.5182 196.157 45.6751 196.157 43.2698V19.8135H209.398V10.5748H196.133V0.72168H184.561V10.5748H176.42V19.8135H184.561V43.577C184.561 48.9863 186.044 53.1113 189.01 55.9513C191.964 58.7855 196.174 60.194 201.599 60.194C203.685 60.2096 205.762 59.9326 207.769 59.3709C209.577 58.8864 211.264 58.0338 212.724 56.8671L209.479 48.6194Z" fill="white"/>
<path d="M103.148 59.7998C100.183 61.2952 96.511 60.1604 94.9142 57.2554L75.0264 19.2688C74.606 18.4388 74.3867 17.5224 74.3867 16.5928C74.3867 14.3277 75.6881 12.2522 77.7304 11.2587C80.6886 9.75817 84.3591 10.8919 85.9472 13.7974L105.841 51.784C106.267 52.6169 106.489 53.5391 106.489 54.4745C106.489 56.7367 105.189 58.8093 103.148 59.7998Z" fill="white"/>
<path opacity="0.85" d="M122.955 11.2588C119.989 9.76692 116.32 10.9006 114.721 13.8032L94.8276 51.7899C94.4089 52.6187 94.1914 53.5333 94.1914 54.4607C94.1914 56.7234 95.4882 58.7972 97.5258 59.7941C100.49 61.3022 104.171 60.1645 105.76 57.2497L125.654 19.2688C126.072 18.44 126.29 17.5254 126.29 16.598C126.29 14.3353 124.993 12.2615 122.955 11.2646" fill="white"/>
<path d="M7.90768 79.1408L7.8962 74.3331L5.53031 78.2937H4.69191L2.3375 74.4361V79.1408H0.591797V71.1279H2.13077L5.13982 76.1074L8.10293 71.1279H9.63042L9.65339 79.1408H7.90768Z" fill="white"/>
<path d="M16.8551 77.4238H13.1225L12.4104 79.1408H10.5039L14.0872 71.1279H15.9248L19.5196 79.1408H17.5671L16.8551 77.4238ZM16.2693 76.0158L14.9945 72.948L13.7197 76.0158H16.2693Z" fill="white"/>
<path d="M23.2861 75.9929L22.2065 77.1147V79.1408H20.3574V71.1279H22.2065V74.8711L25.7668 71.1279H27.8341L24.5035 74.6994L28.0293 79.1408H25.8587L23.2861 75.9929Z" fill="white"/>
<path d="M30.716 71.1279H28.8555V79.1408H30.716V71.1279Z" fill="white"/>
<path d="M39.9964 71.1279V79.1408H38.4689L34.4606 74.2759V79.1408H32.623V71.1279H34.162L38.1588 75.9929V71.1279H39.9964Z" fill="white"/>
<path d="M47.3361 75.0086H49.0359V78.2596C48.5995 78.5915 48.0941 78.8434 47.5199 79.0151C46.9457 79.1868 46.3714 79.2784 45.7857 79.2784C44.9473 79.2784 44.2008 79.0952 43.5346 78.7403C42.8685 78.3855 42.3517 77.8933 41.9727 77.2637C41.5822 76.6341 41.3984 75.9244 41.3984 75.1345C41.3984 74.3447 41.5822 73.6235 41.9727 72.9939C42.3517 72.3644 42.8685 71.8836 43.5461 71.5173C44.2237 71.1624 44.9817 70.9907 45.8201 70.9907C46.5207 70.9907 47.1639 71.1052 47.7381 71.3456C48.3124 71.586 48.7947 71.9294 49.1852 72.3758L47.9908 73.4747C47.4165 72.868 46.7274 72.5704 45.912 72.5704C45.3952 72.5704 44.9473 72.6734 44.5453 72.8909C44.1433 73.1084 43.8332 73.406 43.615 73.7952C43.3968 74.1844 43.282 74.6309 43.282 75.1345C43.282 75.6268 43.3968 76.0732 43.615 76.4624C43.8332 76.8516 44.1433 77.1607 44.5453 77.3667C44.9358 77.5956 45.3837 77.6987 45.889 77.6987C46.4288 77.6987 46.9112 77.5842 47.3361 77.3553V75.0086Z" fill="white"/>
<path d="M61.3237 79.1408L61.3122 74.3331L58.9463 78.2937H58.1079L55.7535 74.4361V79.1408H54.0078V71.1279H55.5468L58.5558 76.1074L61.5189 71.1279H63.0464L63.0694 79.1408H61.3237Z" fill="white"/>
<path d="M68.8694 79.2784C68.031 79.2784 67.2845 79.0952 66.6184 78.7403C65.9408 78.3855 65.424 77.8818 65.0449 77.2522C64.6545 76.6227 64.4707 75.9244 64.4707 75.1345C64.4707 74.3447 64.6545 73.635 65.0449 73.0054C65.424 72.3758 65.9408 71.8836 66.6184 71.5287C67.2845 71.1739 68.031 70.9907 68.8694 70.9907C69.7078 70.9907 70.4543 71.1739 71.1205 71.5287C71.7866 71.8836 72.3149 72.3758 72.6939 73.0054C73.0729 73.635 73.2681 74.3447 73.2681 75.1345C73.2681 75.9244 73.0729 76.6227 72.6939 77.2522C72.3149 77.8818 71.7866 78.3855 71.1205 78.7403C70.4543 79.0952 69.7078 79.2784 68.8694 79.2784ZM68.8694 77.6987C69.3403 77.6987 69.7767 77.5956 70.1557 77.3667C70.5347 77.1607 70.8448 76.8516 71.063 76.4624C71.2813 76.0732 71.3846 75.6268 71.3846 75.1345C71.3846 74.6423 71.2813 74.1959 71.063 73.8067C70.8448 73.4175 70.5347 73.1084 70.1557 72.8909C69.7767 72.6734 69.3403 72.5704 68.8694 72.5704C68.3985 72.5704 67.9621 72.6734 67.5831 72.8909C67.2041 73.1084 66.9055 73.4175 66.6873 73.8067C66.4691 74.1959 66.3542 74.6423 66.3542 75.1345C66.3542 75.6268 66.4691 76.0732 66.6873 76.4624C66.9055 76.8516 67.2041 77.1607 67.5831 77.3667C67.9621 77.5956 68.3985 77.6987 68.8694 77.6987Z" fill="white"/>
<path d="M82.0432 71.1279V79.1408H80.5157L76.5075 74.2759V79.1408H74.6699V71.1279H76.2089L80.2056 75.9929V71.1279H82.0432Z" fill="white"/>
<path d="M90.174 77.6527V79.1408H83.9492V71.1279H90.0247V72.616H85.7983V74.356H89.5309V75.7983H85.7983V77.6527H90.174Z" fill="white"/>
<path d="M95.4339 76.302V79.1408H93.5733V76.2791L90.4609 71.1279H92.4363L94.584 74.6879L96.7317 71.1279H98.5578L95.4339 76.302Z" fill="white"/>
<path d="M112.67 71.1279L110.04 79.1408H108.042L106.273 73.715L104.447 79.1408H102.46L99.8184 71.1279H101.748L103.562 76.7599L105.457 71.1279H107.18L109.018 76.8056L110.89 71.1279H112.67Z" fill="white"/>
<path d="M116.719 79.2783C115.881 79.2783 115.134 79.0952 114.468 78.7403C113.79 78.3855 113.274 77.8818 112.895 77.2522C112.504 76.6226 112.32 75.9244 112.32 75.1345C112.32 74.3447 112.504 73.635 112.895 73.0054C113.274 72.3758 113.79 71.8836 114.468 71.5287C115.134 71.1739 115.881 70.9907 116.719 70.9907C117.557 70.9907 118.304 71.1739 118.97 71.5287C119.636 71.8836 120.165 72.3758 120.544 73.0054C120.923 73.635 121.118 74.3447 121.118 75.1345C121.118 75.9244 120.923 76.6226 120.544 77.2522C120.165 77.8818 119.636 78.3855 118.97 78.7403C118.304 79.0952 117.557 79.2783 116.719 79.2783ZM116.719 77.6987C117.19 77.6987 117.626 77.5956 118.005 77.3667C118.384 77.1607 118.694 76.8516 118.913 76.4624C119.131 76.0732 119.234 75.6268 119.234 75.1345C119.234 74.6423 119.131 74.1959 118.913 73.8067C118.694 73.4175 118.384 73.1084 118.005 72.8909C117.626 72.6734 117.19 72.5704 116.719 72.5704C116.248 72.5704 115.812 72.6734 115.433 72.8909C115.054 73.1084 114.755 73.4175 114.537 73.8067C114.319 74.1959 114.204 74.6423 114.204 75.1345C114.204 75.6268 114.319 76.0732 114.537 76.4624C114.755 76.8516 115.054 77.1607 115.433 77.3667C115.812 77.5956 116.248 77.6987 116.719 77.6987Z" fill="white"/>
<path d="M126.913 79.1408L125.363 76.9087H123.652V79.1408H121.791V71.1279H125.271C125.983 71.1279 126.603 71.2424 127.132 71.4828C127.648 71.7232 128.05 72.0551 128.337 72.4901C128.625 72.9251 128.762 73.4402 128.762 74.0355C128.762 74.6307 128.625 75.1458 128.337 75.5694C128.039 76.0044 127.637 76.3363 127.109 76.5653L128.912 79.1408H126.913ZM126.879 74.0355C126.879 73.589 126.73 73.2342 126.442 72.9938C126.155 72.7534 125.73 72.6389 125.168 72.6389H123.652V75.432H125.168C125.73 75.432 126.155 75.3061 126.442 75.0657C126.73 74.8253 126.879 74.4819 126.879 74.0355Z" fill="white"/>
<path d="M133.161 75.9929L132.081 77.1147V79.1408H130.232V71.1279H132.081V74.8711L135.642 71.1279H137.709L134.378 74.6994L137.904 79.1408H135.734L133.161 75.9929Z" fill="white"/>
<path d="M143.843 72.616V74.7337H147.564V76.2218H143.843V79.1408H141.982V71.1279H148.058V72.616H143.843Z" fill="white"/>
<path d="M153.133 79.2783C152.295 79.2783 151.548 79.0952 150.882 78.7403C150.204 78.3855 149.688 77.8818 149.309 77.2522C148.918 76.6226 148.734 75.9244 148.734 75.1345C148.734 74.3447 148.918 73.635 149.309 73.0054C149.688 72.3758 150.204 71.8836 150.882 71.5287C151.548 71.1739 152.295 70.9907 153.133 70.9907C153.971 70.9907 154.718 71.1739 155.384 71.5287C156.05 71.8836 156.579 72.3758 156.958 73.0054C157.337 73.635 157.532 74.3447 157.532 75.1345C157.532 75.9244 157.337 76.6226 156.958 77.2522C156.579 77.8818 156.05 78.3855 155.384 78.7403C154.718 79.0952 153.971 79.2783 153.133 79.2783ZM153.133 77.6987C153.604 77.6987 154.04 77.5956 154.419 77.3667C154.798 77.1607 155.108 76.8516 155.327 76.4624C155.545 76.0732 155.648 75.6268 155.648 75.1345C155.648 74.6423 155.545 74.1959 155.327 73.8067C155.108 73.4175 154.798 73.1084 154.419 72.8909C154.04 72.6734 153.604 72.5704 153.133 72.5704C152.662 72.5704 152.226 72.6734 151.847 72.8909C151.468 73.1084 151.169 73.4175 150.951 73.8067C150.733 74.1959 150.618 74.6423 150.618 75.1345C150.618 75.6268 150.733 76.0732 150.951 76.4624C151.169 76.8516 151.468 77.1607 151.847 77.3667C152.226 77.5956 152.662 77.6987 153.133 77.6987Z" fill="white"/>
<path d="M164.056 79.1408L162.505 76.9087H160.794V79.1408H158.934V71.1279H162.414C163.126 71.1279 163.746 71.2424 164.274 71.4828C164.791 71.7232 165.193 72.0551 165.48 72.4901C165.767 72.9251 165.905 73.4402 165.905 74.0355C165.905 74.6307 165.767 75.1458 165.48 75.5694C165.181 76.0044 164.779 76.3363 164.251 76.5653L166.054 79.1408H164.056ZM164.021 74.0355C164.021 73.589 163.872 73.2342 163.585 72.9938C163.298 72.7534 162.873 72.6389 162.31 72.6389H160.794V75.432H162.31C162.873 75.432 163.298 75.3061 163.585 75.0657C163.872 74.8253 164.021 74.4819 164.021 74.0355Z" fill="white"/>
<path d="M215.547 77.6527V79.1408H209.322V71.1279H215.398V72.616H211.171V74.356H214.904V75.7983H211.171V77.6527H215.547Z" fill="white"/>
<path d="M202.285 71.1279H204.146V77.6298H208.177V79.1408H202.285V71.1279Z" fill="white"/>
<path d="M197.994 71.1279C198.706 71.1279 199.326 71.2424 199.854 71.4828C200.371 71.7232 200.773 72.0551 201.06 72.4901C201.347 72.9251 201.485 73.4402 201.485 74.0355C201.485 74.6193 201.347 75.1344 201.06 75.5694C200.773 76.0158 200.371 76.3478 199.854 76.5767C199.326 76.8171 198.706 76.9316 197.994 76.9316H196.374V79.1408H194.514V71.1279H197.994ZM197.89 75.4206C198.453 75.4206 198.878 75.3061 199.165 75.0543C199.452 74.8139 199.601 74.4819 199.601 74.0355C199.601 73.589 199.452 73.2342 199.165 72.9938C198.878 72.7534 198.453 72.6389 197.89 72.6389H196.374V75.4206H197.89Z" fill="white"/>
<path d="M189.215 79.2783C188.377 79.2783 187.63 79.0952 186.964 78.7403C186.286 78.3855 185.77 77.8818 185.391 77.2522C185 76.6226 184.816 75.9244 184.816 75.1345C184.816 74.3447 185 73.635 185.391 73.0054C185.77 72.3758 186.286 71.8836 186.964 71.5287C187.63 71.1739 188.377 70.9907 189.215 70.9907C190.054 70.9907 190.8 71.1739 191.466 71.5287C192.132 71.8836 192.661 72.3758 193.04 73.0054C193.419 73.635 193.614 74.3447 193.614 75.1345C193.614 75.9244 193.419 76.6226 193.04 77.2522C192.661 77.8818 192.132 78.3855 191.466 78.7403C190.8 79.0952 190.054 79.2783 189.215 79.2783ZM189.215 77.6987C189.686 77.6987 190.122 77.5956 190.501 77.3667C190.88 77.1607 191.191 76.8516 191.409 76.4624C191.627 76.0732 191.73 75.6268 191.73 75.1345C191.73 74.6423 191.627 74.1959 191.409 73.8067C191.191 73.4175 190.88 73.1084 190.501 72.8909C190.122 72.6734 189.686 72.5704 189.215 72.5704C188.744 72.5704 188.308 72.6734 187.929 72.8909C187.55 73.1084 187.251 73.4175 187.033 73.8067C186.815 74.1959 186.7 74.6423 186.7 75.1345C186.7 75.6268 186.815 76.0732 187.033 76.4624C187.251 76.8516 187.55 77.1607 187.929 77.3667C188.308 77.5956 188.744 77.6987 189.215 77.6987Z" fill="white"/>
<path d="M184.707 77.6527V79.1408H178.482V71.1279H184.558V72.616H180.331V74.356H184.064V75.7983H180.331V77.6527H184.707Z" fill="white"/>
<path d="M174.105 71.1279C174.817 71.1279 175.437 71.2424 175.965 71.4828C176.482 71.7232 176.884 72.0551 177.171 72.4901C177.459 72.9251 177.596 73.4402 177.596 74.0355C177.596 74.6193 177.459 75.1344 177.171 75.5694C176.884 76.0158 176.482 76.3478 175.965 76.5767C175.437 76.8171 174.817 76.9316 174.105 76.9316H172.486V79.1408H170.625V71.1279H174.105ZM174.002 75.4206C174.564 75.4206 174.989 75.3061 175.276 75.0543C175.564 74.8139 175.713 74.4819 175.713 74.0355C175.713 73.589 175.564 73.2342 175.276 72.9938C174.989 72.7534 174.564 72.6389 174.002 72.6389H172.486V75.4206H174.002Z" fill="white"/>
<path d="M215.613 11.0743H214.469V10.7775H217.102V11.0743H215.957V14.0233H215.613V11.0743Z" fill="white"/>
<path d="M221.032 10.7775V14.0233H220.702V11.4267L219.423 13.6106H219.26L217.981 11.4406V14.0233H217.65V10.7775H217.934L219.348 13.184L220.749 10.7775H221.032Z" fill="white"/>
</svg>
