<svg width="133" height="132" viewBox="0 0 133 132" fill="none" xmlns="http://www.w3.org/2000/svg">
<path fill-rule="evenodd" clip-rule="evenodd" d="M131.308 62.6705C131.308 62.5838 131.222 62.5405 131.048 62.5405C130.355 62.5405 128.838 63.494 126.497 65.4012C124.503 67.0483 122.033 68.8253 119.085 70.7325C116.138 72.6396 112.801 74.33 109.073 75.8037C105.345 77.3641 101.358 78.1443 97.11 78.1443C93.1224 78.1443 89.9583 77.3641 87.6177 75.8037C85.2772 74.33 83.5867 72.683 82.5465 70.8625C81.5929 69.1288 81.1161 67.9151 81.1161 67.2216C81.1161 65.2278 83.1966 62.7139 87.3577 59.6798C91.5187 56.559 95.8964 53.5683 100.491 50.7076C103.525 48.8005 106.082 47.11 108.163 45.6363C110.243 44.1627 111.284 43.1224 111.284 42.5156C111.284 42.2555 111.197 42.1255 111.023 42.1255C110.937 42.0388 110.807 41.9955 110.633 41.9955C109.246 41.9955 106.082 43.2524 101.141 45.7664C96.2865 48.2803 91.302 51.0977 86.1874 54.2184C84.8004 55.0853 83.5434 55.9522 82.4165 56.8191C81.983 57.1658 81.6363 57.4259 81.3762 57.5993C81.2028 57.686 81.0728 57.7726 80.9861 57.8593V57.9894H80.8561C80.8561 56.7757 81.8963 52.7014 83.9768 45.7664C86.144 38.8313 88.5279 31.2462 91.1286 23.0108C92.9504 17.195 94.574 11.9173 95.9993 7.17762C117.389 18.0956 132.035 40.3374 132.035 66C132.035 102.451 102.486 132.001 66.0342 132.001C45.5 132.001 27.156 122.624 15.0509 107.918C16.4892 103.742 18.0555 99.6258 19.75 95.5685C25.9049 80.8316 32.1031 68.652 38.3446 59.0296C44.5861 49.4073 48.8772 44.5961 51.2177 44.5961H51.3478C52.2146 44.5961 52.6481 45.5496 52.6481 47.4568V49.0172C52.3013 52.6581 51.5645 56.1689 50.4375 59.5497C49.6573 62.0637 49.0072 63.8841 48.4871 65.0111C48.0536 66.138 47.6202 66.9182 47.1867 67.3516C46.7533 67.7851 46.1465 68.1752 45.3663 68.5219C45.3663 68.6086 45.323 68.652 45.2363 68.652C40.4684 71.3393 36.4375 74.3734 33.1433 77.7542C29.9359 81.2217 28.3321 84.1257 28.3321 86.4663C28.3321 87.3332 28.6355 88.1134 29.2424 88.8069C29.8492 89.327 30.5427 89.5871 31.3229 89.5871H31.713C33.7068 89.5871 36.8275 87.8533 41.0752 84.3858C45.323 80.9183 48.7471 76.4539 51.3478 70.9925C52.9948 68.0451 56.2456 66.138 61.1001 65.2711C66.0414 64.4043 70.5925 63.9708 74.7535 63.9708C74.9736 63.9592 75.1875 63.9476 75.3953 63.9361C74.053 69.0436 72.7959 73.9964 71.6238 78.7944C68.7631 90.2372 67.3328 97.6057 67.3328 100.9V101.03C67.3328 101.203 67.3761 101.593 67.4628 102.2C67.5495 102.807 67.7229 103.37 67.9829 103.891C68.243 104.411 68.7198 104.671 69.4133 104.671C69.8467 104.671 70.1935 104.541 70.4535 104.281C70.7136 103.934 70.8436 103.587 70.8436 103.24V102.72C70.7569 102.2 70.7136 101.55 70.7136 100.77C70.7136 99.6429 71.017 97.519 71.6238 94.3983C72.2306 91.3642 72.9675 88.1134 73.8344 84.6459C74.6145 81.2651 75.3514 78.2743 76.0449 75.6737C76.7384 73.1597 77.2585 71.9028 77.6053 71.9028C77.8653 71.9028 78.2988 72.3362 78.9056 73.2031C79.5124 74.07 80.4226 75.1102 81.6363 76.3239C82.8499 77.6242 84.5403 78.7511 86.7075 79.7047C88.9614 80.7449 91.8221 81.2651 95.2896 81.2651C99.9707 81.2651 104.435 80.3548 108.683 78.5344C113.017 76.714 116.875 74.5901 120.256 72.1628C123.637 69.8223 126.324 67.6984 128.318 65.7913C130.311 63.8841 131.308 62.8439 131.308 62.6705ZM75.8488 62.2166C77.5572 55.7633 79.3997 49.0662 81.3762 42.1255C85.1905 28.9489 88.7447 17.5061 92.0388 7.7971C92.2958 7.0524 92.5466 6.336 92.7911 5.64791C84.6127 2.01669 75.5591 -0.000976562 66.0342 -0.000976562C29.5828 -0.000976562 0.0332031 29.5487 0.0332031 66C0.0332031 80.1581 4.49115 93.275 12.0799 104.024C14.2641 96.0433 16.6474 87.807 19.2299 79.3146C23.7377 64.4909 28.0721 51.6178 32.2331 40.6951C36.3941 29.7725 39.2981 24.3111 40.9452 24.3111C41.292 24.3111 41.4653 24.4845 41.4653 24.8312V25.0913C41.4653 25.6114 40.6418 28.2554 38.9947 33.0233C37.4344 37.7911 35.6139 43.3825 33.5334 49.7973C30.9328 57.4259 28.5489 64.4909 26.3817 70.9925C24.2145 77.4941 23.1309 81.1783 23.1309 82.0452C23.2176 82.0452 23.8244 80.8749 24.9513 78.5344C26.5117 74.9802 28.7656 70.299 31.713 64.4909C34.747 58.7695 37.9545 53.5249 41.3353 48.7571C44.8028 43.9893 47.9669 41.6053 50.8276 41.6053C52.5614 41.6053 53.9917 42.2555 55.1187 43.5558C56.3323 44.8561 56.9391 47.0233 56.9391 50.0574C56.9391 52.398 56.6357 54.7386 56.0289 57.0791C55.4221 59.4197 54.902 61.2835 54.4685 62.6705C54.1218 63.7108 53.9484 64.3176 53.9484 64.4909C59.8432 62.9306 65.7379 62.1504 71.6327 62.1504H73.0631C74.0689 62.1504 74.9975 62.1724 75.8488 62.2166ZM31.843 86.2062C33.4034 86.2062 35.2672 85.166 37.4344 83.0855C39.6882 81.005 41.6387 78.7511 43.2858 76.3238C45.0195 73.9833 45.8864 72.3795 45.8864 71.5126C45.8864 71.426 45.8431 71.3393 45.7564 71.2526V71.1226H45.6264C45.0195 71.1226 43.5025 71.9461 41.0752 73.5932C38.7347 75.3269 36.4808 77.2774 34.3136 79.4446C32.1464 81.6985 31.0628 83.6923 31.0628 85.4261V85.5561V85.6861C31.0628 85.7728 31.1061 85.8595 31.1928 85.9462C31.2795 86.0329 31.3662 86.0762 31.4529 86.0762C31.6263 86.1629 31.7563 86.2062 31.843 86.2062Z" fill="white"/>
</svg>
