<svg width="235" height="46" viewBox="0 0 235 46" fill="none" xmlns="http://www.w3.org/2000/svg">
<g opacity="0.999184">
<path fill-rule="evenodd" clip-rule="evenodd" d="M103.137 45.7602C97.8327 36.0517 92.545 26.3519 87.2717 16.6636H87.2063V45.7429H78.6512V0.789085H79.1222H87.625C87.9233 0.757516 88.2073 0.92975 88.3224 1.20823C93.4806 10.5147 98.6453 19.7983 103.815 29.0646C103.881 29.1709 103.95 29.28 104.008 29.3862H104.087V0.817799H112.631V45.7602L103.137 45.7602ZM224.224 45.7459L211.717 26.0133L211.413 26.2889C210.495 27.1701 209.516 28.06 208.536 28.9298C208.353 29.0906 208.252 29.3231 208.264 29.5671V45.3957V45.7459H199.766V0.82362H208.264V20.3467L208.605 19.9563L210.709 17.3814L224.012 1.13652C224.144 0.958564 224.342 0.840878 224.56 0.803494H234.042V0.881022C233.996 0.924128 233.953 0.967139 233.916 1.01882L218.5 20.3467C218.351 20.5074 218.351 20.7543 218.5 20.915L233.769 45.3842C233.841 45.4847 233.921 45.5765 234.013 45.6598V45.7459H224.224ZM173.235 45.7445C161.24 44.4298 152.394 33.9262 153.142 21.8839C153.693 10.9354 162.101 2.00203 172.997 0.787802C185.272 -0.581479 196.333 8.25715 197.702 20.5319C198.509 26.6291 196.735 32.7894 192.811 37.5259C189.055 42.2452 183.529 45.2164 177.519 45.7445L173.235 45.7445ZM175.435 8.43495C175.397 8.43495 175.358 8.43782 175.315 8.43782C167.182 8.59574 160.714 15.3158 160.873 23.4482L160.875 23.4828C161.007 31.6611 167.745 38.1832 175.92 38.0482C184.101 37.9162 190.62 31.1731 190.486 22.9976C190.353 14.9053 183.753 8.43209 175.685 8.43209C175.604 8.43209 175.517 8.43496 175.435 8.43496L175.435 8.43495ZM128.643 45.7454V0.823128H137.157V37.3086H155.225C155.586 37.3086 155.704 37.3976 155.704 37.7795V45.3435V45.7454H128.643ZM0 45.7448V0.811046H3.00436C7.21387 0.819635 11.4299 0.811046 15.6591 0.868462C18.4776 0.891361 21.2713 1.37944 23.9289 2.3066C30.2608 4.57729 34.4808 8.84584 36.2604 15.3449C37.7194 20.6699 37.633 26.3021 36.017 31.5811C34.7085 36.1712 31.6479 40.0638 27.4907 42.4148C24.4196 44.1344 21.024 45.1879 17.5185 45.5094C16.5515 45.6156 15.5897 45.6845 14.6803 45.7448H0ZM7.58746 37.9623H7.92898C10.0933 37.9422 12.2432 37.9422 14.3996 37.8935C16.5979 37.8619 18.7792 37.4571 20.8493 36.6993C25.1098 35.2812 28.3327 31.7561 29.3638 27.3813C30.145 24.4389 30.1358 21.3444 29.3324 18.4078C28.4361 15.0721 26.1972 12.2589 23.1457 10.6369C21.1542 9.51171 18.9258 8.86865 16.6385 8.75669C14.0175 8.6677 11.4018 8.6677 8.8096 8.6677H7.58744L7.58746 37.9623ZM67.6123 45.7416L67.543 45.5263C66.2227 42.1419 64.9115 38.766 63.6279 35.3787C63.5219 35.0744 63.3753 35.0744 63.128 35.0744H47.5265C47.2963 35.04 47.079 35.1892 47.0293 35.416C45.781 38.7316 44.5327 42.05 43.2804 45.3713L43.1548 45.7416H33.6589C33.6981 45.6067 33.7479 45.4776 33.7963 45.3426C38.9715 30.5819 44.1453 15.824 49.3205 1.06338C49.4265 0.779182 49.5129 0.563856 49.878 0.624126C49.9068 0.632715 50.0036 0.535142 50.0036 0.486328H60.7714C60.7662 0.520845 60.7662 0.558135 60.7714 0.595425C61.2111 0.563856 61.2307 0.916913 61.3288 1.20111L72.3492 32.4134C73.905 36.857 75.4805 41.2893 77.0363 45.7416L67.6123 45.7416ZM49.5927 27.0478H61.1993L55.3292 7.9639C53.428 14.2678 51.5515 20.6492 49.5927 27.0478Z" fill="white"/>
</g>
</svg>
