<svg width="495" height="81" viewBox="0 0 495 81" fill="none" xmlns="http://www.w3.org/2000/svg">
<path d="M155.401 4.83643C158.779 4.83643 161.518 7.57976 161.518 10.9637C161.518 14.3477 158.779 17.091 155.401 17.091C152.022 17.091 149.283 14.3477 149.283 10.9637C149.283 7.57976 152.022 4.83643 155.401 4.83643Z" fill="#FEFEFE"/>
<path d="M266.729 64.0049H275.809V41.174C275.809 38.6802 276.529 36.6358 277.969 35.042C279.408 33.4482 281.326 32.6505 283.721 32.6505C286.192 32.6505 288.033 33.3772 289.243 34.8294C290.454 36.2823 291.059 38.1915 291.059 40.5564V64.0045H300.14V41.174C300.14 38.7575 300.872 36.7326 302.337 35.0995C303.802 33.4672 305.707 32.6505 308.051 32.6505C310.497 32.6505 312.331 33.3704 313.554 34.8103C314.777 36.2502 315.389 38.1653 315.389 40.5568V64.0049H323.933V39.1748C323.933 36.7445 323.564 34.5695 322.826 32.6505C322.088 30.7314 321.087 29.2031 319.824 28.0642C318.561 26.9262 317.16 26.0686 315.622 25.4931C314.083 24.9175 312.439 24.6295 310.688 24.6295C305.121 24.6295 300.996 26.8405 298.315 31.261C297.312 29.1011 295.788 27.4558 293.743 26.3253C291.697 25.1948 289.376 24.6295 286.778 24.6295C284.511 24.6295 282.325 25.1452 280.223 26.1753C278.121 27.2055 276.548 28.6505 275.503 30.5101V25.7422H266.729" fill="white"/>
<path d="M334.043 61.8272C336.425 64.0715 339.542 65.1949 343.39 65.1949C346.233 65.1949 348.646 64.6062 350.63 63.4297C352.615 62.2532 354.132 60.82 355.182 59.1314C355.182 61.5368 355.328 63.1612 355.62 64.0053H364.225C363.892 62.3432 363.727 60.2976 363.727 57.8685V39.2919C363.727 37.2637 363.423 35.3871 362.817 33.6612C362.21 31.9361 361.274 30.3816 360.01 28.9988C358.745 27.616 357.028 26.5288 354.86 25.7386C352.691 24.9485 350.174 24.553 347.309 24.553C342.792 24.553 339.079 25.8136 336.17 28.3344C333.26 30.8552 331.627 33.9194 331.27 37.5275L339.55 39.3664C339.754 37.3898 340.542 35.7639 341.912 34.4878C343.281 33.2118 345.119 32.5739 347.424 32.5739C349.831 32.5739 351.637 33.0825 352.84 34.0987C354.044 35.1158 354.646 36.4252 354.646 38.0277C354.646 39.5112 353.701 40.3724 351.813 40.6112L342.004 42.1086C338.555 42.6242 335.77 43.8674 333.65 45.8376C331.529 47.8082 330.469 50.4421 330.469 53.7396C330.469 56.8859 331.66 59.5821 334.043 61.8272ZM340.959 49.5758C341.899 48.7206 343.141 48.1656 344.687 47.9102L354.645 46.3902V48.1172C354.645 49.9344 354.396 51.5012 353.897 52.8185C353.397 54.1366 352.693 55.1596 351.784 55.8887C350.875 56.6178 349.869 57.1553 348.768 57.5008C347.667 57.8462 346.451 58.0188 345.12 58.0188C343.378 58.0188 342.014 57.5404 341.028 56.5833C340.042 55.6261 339.549 54.4579 339.549 53.0795C339.549 51.5988 340.019 50.4306 340.959 49.5758Z" fill="white"/>
<path d="M369.977 56.8705C370.603 58.1803 371.51 59.4833 372.698 60.7796C373.886 62.076 375.514 63.1358 377.583 63.9597C379.652 64.7832 381.989 65.1949 384.595 65.1949C386.882 65.1949 388.955 64.8117 390.816 64.0462C392.676 63.2806 394.172 62.2723 395.303 61.0228C396.434 59.7733 397.301 58.4024 397.905 56.9106C398.508 55.4187 398.81 53.8801 398.81 52.2938C398.81 49.5572 397.886 47.2054 396.037 45.2379C394.188 43.2709 391.527 41.9206 388.055 41.1872L382.282 39.9976C381.099 39.7703 380.154 39.3026 379.448 38.5946C378.741 37.8869 378.387 37.0397 378.387 36.0531C378.387 34.8651 378.911 33.8417 379.958 32.9818C381.005 32.1218 382.321 31.6918 383.905 31.6918C385.102 31.6918 386.159 31.8782 387.076 32.2507C387.994 32.6236 388.707 33.1075 389.217 33.7037C389.726 34.2999 390.121 34.8957 390.402 35.4919C390.682 36.0881 390.86 36.6838 390.937 37.28L398.436 35.1194C398.311 34.2836 398.071 33.4344 397.719 32.5728C397.367 31.7116 396.82 30.787 396.077 29.7989C395.335 28.8108 394.448 27.9429 393.417 27.1952C392.385 26.4479 391.045 25.8208 389.396 25.3142C387.748 24.8077 385.918 24.5538 383.905 24.5538C379.971 24.5538 376.644 25.7482 373.924 28.1361C371.203 30.524 369.843 33.386 369.843 36.7211C369.843 39.47 370.731 41.856 372.506 43.8785C374.281 45.9019 376.817 47.2887 380.112 48.0408L385.769 49.3148C387.255 49.5941 388.376 50.0721 389.132 50.7476C389.887 51.4227 390.266 52.2379 390.266 53.1922C390.266 54.31 389.754 55.2533 388.733 56.022C387.711 56.7908 386.306 57.1748 384.518 57.1748C382.193 57.1748 380.354 56.5667 379.001 55.3493C377.647 54.1319 376.894 52.6294 376.74 50.8412L368.848 53.0022C368.975 54.2708 369.351 55.5607 369.977 56.8705Z" fill="white"/>
<path d="M408.176 33.7635V53.0387C408.176 56.6043 409.2 59.4004 411.248 61.4266C413.296 63.4527 416.099 64.4654 419.658 64.4654C422.09 64.4654 423.959 64.1865 425.264 63.6288V56.1354C424.242 56.3417 423.195 56.4444 422.122 56.4444C420.436 56.4444 419.204 56.0648 418.425 55.3044C417.645 54.5448 417.256 53.3148 417.256 51.6143V33.7635H425.188V25.7426H417.256V13.9224H409.019V19.7168C409.019 21.5193 408.521 22.9747 407.525 24.0817C406.528 25.1892 405.059 25.743 403.118 25.743H401.164V33.7639L408.176 33.7635Z" fill="white"/>
<path d="M430.323 53.3167C431.383 55.9395 432.813 58.1081 434.614 59.8216C436.415 61.536 438.49 62.8601 440.841 63.7938C443.19 64.7276 445.668 65.1945 448.274 65.1945C452.676 65.1945 456.387 64.0473 459.408 61.7542C462.429 59.4607 464.477 56.5357 465.552 52.9792L457.857 50.5988C456.349 54.9823 453.154 57.1739 448.274 57.1739C445.438 57.1739 443.011 56.2485 440.994 54.3969C438.976 52.5452 437.915 50.1962 437.814 47.3493H465.782C465.962 46.9915 466.052 46.0193 466.052 44.4326C466.052 38.3438 464.388 33.5081 461.061 29.9258C457.733 26.3443 453.151 24.553 447.315 24.553C444.914 24.553 442.589 25.0393 440.342 26.0111C438.094 26.9837 436.114 28.3269 434.403 30.0408C432.691 31.7552 431.319 33.8853 430.284 36.4307C429.25 38.9769 428.732 41.7206 428.732 44.6627C428.733 47.8098 429.263 50.6944 430.323 53.3167ZM440.821 35.0289C442.494 33.3927 444.685 32.5739 447.392 32.5739C450.381 32.5739 452.68 33.3498 454.289 34.9008C455.898 36.4521 456.741 38.3756 456.818 40.6719H438.043C438.222 38.5465 439.148 36.6659 440.821 35.0289Z" fill="white"/>
<path d="M481.44 64.0047V45.5146C481.44 37.9109 484.863 34.1089 491.709 34.1089C492.654 34.1089 493.65 34.1854 494.697 34.3393V25.4636C493.931 25.3172 493.126 25.2434 492.283 25.2434C489.755 25.2434 487.5 25.7991 485.521 26.9106C483.541 28.0216 482.104 29.5663 481.21 31.5448V25.7424H472.359V64.0047H481.44Z" fill="white"/>
<path d="M1.3262 56.8705C1.95174 58.1803 2.85892 59.4833 4.04653 60.7796C5.23454 62.076 6.86285 63.1358 8.93186 63.9597C11.0009 64.7832 13.338 65.1949 15.9437 65.1949C18.2305 65.1949 20.3046 64.8117 22.1654 64.0462C24.0253 63.2806 25.5208 62.2723 26.6525 61.0228C27.7833 59.7733 28.6501 58.4024 29.2538 56.9106C29.8571 55.4187 30.159 53.8801 30.159 52.2938C30.159 49.5572 29.2347 47.2054 27.3859 45.2379C25.537 43.2709 22.8766 41.9206 19.4042 41.1872L13.6311 39.9976C12.4483 39.7703 11.5034 39.3026 10.797 38.5946C10.0901 37.8869 9.73669 37.0397 9.73669 36.0531C9.73669 34.8651 10.2599 33.8417 11.3075 32.9818C12.3547 32.1218 13.67 31.6918 15.2539 31.6918C16.451 31.6918 17.5085 31.8782 18.4256 32.2507C19.3427 32.6236 20.0563 33.1075 20.5656 33.7037C21.0754 34.2999 21.4704 34.8957 21.7505 35.4919C22.0305 36.0881 22.209 36.6838 22.2856 37.28L29.7849 35.1194C29.6592 34.2836 29.4196 33.4344 29.0677 32.5728C28.7151 31.7116 28.1677 30.787 27.4256 29.7989C26.683 28.8108 25.7965 27.9429 24.7651 27.1952C23.733 26.4479 22.3931 25.8208 20.7449 25.3142C19.0968 24.8077 17.2658 24.5538 15.2531 24.5538C11.319 24.5538 7.99216 25.7482 5.27183 28.1361C2.5515 30.524 1.19134 33.386 1.19134 36.7211C1.19134 39.47 2.07868 41.856 3.85415 43.8785C5.62922 45.9019 8.1647 47.2887 11.4598 48.0408L17.1174 49.3148C18.6033 49.5941 19.7239 50.0721 20.4796 50.7476C21.2352 51.4227 21.6136 52.2379 21.6136 53.1922C21.6136 54.31 21.1023 55.2533 20.0809 56.022C19.0591 56.7908 17.6537 57.1748 15.8664 57.1748C13.5419 57.1748 11.7026 56.5667 10.3487 55.3493C8.99453 54.1319 8.24126 52.6294 8.08815 50.8412L0.195312 53.0022C0.323435 54.2708 0.69987 55.5607 1.3262 56.8705Z" fill="#FEFEFE"/>
<path d="M40.1142 60.7621C42.7024 63.6661 46.2145 65.1179 50.652 65.1179C52.982 65.1179 55.145 64.6526 57.1422 63.7224C59.1394 62.7918 60.5984 61.4971 61.5202 59.8375C61.5202 61.465 61.6221 62.8537 61.8268 64.0048H70.5245C70.269 61.651 70.1413 59.323 70.1413 57.02V25.7426H61.0605V48.458C61.0605 51.0549 60.3623 53.1442 58.9669 54.7253C57.5714 56.3068 55.5932 57.0969 53.0328 57.0969C50.4465 57.0969 48.5136 56.2742 47.2335 54.6289C45.9531 52.9835 45.3129 50.8752 45.3129 48.3037V25.7426H36.2324V49.8435C36.2324 54.2187 37.5263 57.8585 40.1142 60.7621Z" fill="#FEFEFE"/>
<path d="M88.6316 64.0045V45.5143C88.6316 37.9107 92.0541 34.1086 98.9001 34.1086C99.8449 34.1086 100.841 34.1852 101.889 34.3391V25.4633C101.123 25.3169 100.318 25.2432 99.4749 25.2432C96.9461 25.2432 94.6915 25.7989 92.7121 26.9103C90.7324 28.0214 89.2956 29.566 88.4016 31.5446V25.7422H79.5508V64.0045H88.6316Z" fill="#FEFEFE"/>
<path d="M109.828 76.0855C113.165 78.7772 117.302 80.1235 122.238 80.1235C124.986 80.1235 127.47 79.7649 129.689 79.0489C131.908 78.3322 133.749 77.3603 135.212 76.1323C136.674 74.9042 137.891 73.4393 138.862 71.738C139.833 70.0363 140.533 68.2458 140.961 66.3652C141.39 64.4846 141.604 62.4957 141.604 60.3974V25.7427H133.06V30.7217C132.168 29.0017 130.771 27.6202 128.873 26.5773C126.973 25.5353 124.609 25.0137 121.779 25.0137C118.352 25.0137 115.282 25.8633 112.572 27.5626C109.861 29.262 107.77 31.5348 106.3 34.3793C104.829 37.2246 104.094 40.3594 104.094 43.7835C104.094 49.148 105.763 53.5708 109.1 57.0535C112.438 60.5362 116.664 62.2776 121.78 62.2776C124.406 62.2776 126.681 61.7607 128.605 60.7258C130.529 59.6913 131.938 58.3795 132.831 56.7893V60.7409C132.831 68.3152 129.223 72.1026 122.009 72.1026C119.432 72.1026 117.27 71.3346 115.523 69.7987C113.776 68.2624 112.749 66.3017 112.443 63.9158L104.018 66.0859C104.554 70.0597 106.491 73.3925 109.828 76.0855ZM116.1 35.9561C117.948 34.0084 120.338 33.0346 123.27 33.0346C126.125 33.0346 128.471 34.0084 130.306 35.9561C132.142 37.9037 133.059 40.461 133.059 43.6272C133.059 46.8437 132.16 49.4197 130.363 51.355C128.566 53.2899 126.201 54.2574 123.27 54.2574C120.261 54.2574 117.852 53.3026 116.042 51.3931C114.232 49.4831 113.327 46.8945 113.327 43.6276C113.328 40.461 114.252 37.9037 116.1 35.9561Z" fill="#FEFEFE"/>
<path d="M159.632 64.0048V25.7426H150.551V64.0048H159.632Z" fill="#FEFEFE"/>
<path d="M171.725 59.3503C175.505 63.2468 180.205 65.1944 185.825 65.1944C188.225 65.1944 190.454 64.8291 192.511 64.0996C194.567 63.3697 196.304 62.39 197.722 61.1607C199.139 59.9315 200.327 58.5995 201.285 57.1651C202.243 55.7308 202.952 54.233 203.411 52.6701L195.404 49.7439C195.148 50.5654 194.797 51.3552 194.35 52.112C193.903 52.8692 193.309 53.6265 192.569 54.3833C191.828 55.1405 190.87 55.7439 189.695 56.1929C188.519 56.6419 187.229 56.8664 185.825 56.8664C182.811 56.8664 180.275 55.7823 178.219 53.6134C176.163 51.4444 175.135 48.4988 175.135 44.7769C175.135 41.0812 176.156 38.1748 178.2 36.057C180.243 33.9396 182.734 32.8805 185.672 32.8805C188.328 32.8805 190.404 33.5739 191.898 34.9594C193.392 36.3458 194.394 38.0399 194.906 40.0415L203.067 37.0768C202.658 35.4735 202 33.9519 201.094 32.514C200.187 31.0761 199.031 29.752 197.626 28.543C196.221 27.3339 194.478 26.3661 192.396 25.6406C190.314 24.9151 188.047 24.5521 185.595 24.5521C181.968 24.5521 178.666 25.4145 175.691 27.138C172.715 28.8615 170.365 31.2685 168.641 34.3585C166.917 37.4485 166.055 40.9209 166.055 44.7769C166.054 50.5963 167.944 55.4539 171.725 59.3503Z" fill="#FEFEFE"/>
<path d="M257.436 25.6257L257.511 0.123291L248.244 7.0915V31.9902L257.436 25.6257Z" fill="#FEFEFE"/>
<path d="M248.244 40.0648V64.0051H257.325L257.413 33.6365C254.133 35.9387 250.995 38.139 248.244 40.0648Z" fill="#FEFEFE"/>
<path d="M239.756 45.982C239.599 46.0903 239.45 46.193 239.318 46.2839C232.393 51.0335 231.333 47.6813 231.333 47.6813C227.08 47.2497 227.757 50.6051 227.809 51.763C227.809 51.763 227.547 51.8879 227.396 51.9693C227.396 51.9693 221.23 56.6697 217.691 57.2977C214.529 57.8581 213.443 57.2429 213.443 57.2429L214.672 55.235L239.705 37.9031C239.597 36.4006 239.312 34.9857 238.846 33.6612C238.239 31.9361 237.303 30.3816 236.039 28.9988C234.774 27.616 233.058 26.5288 230.889 25.7386C228.72 24.9485 226.204 24.553 223.338 24.553C218.822 24.553 215.108 25.8136 212.199 28.3344C209.289 30.8552 207.656 33.9194 207.299 37.5275L215.579 39.3664C215.784 37.3898 216.571 35.7639 217.941 34.4878C219.311 33.2118 221.148 32.5739 223.453 32.5739C225.861 32.5739 227.666 33.0825 228.87 34.0987C230.073 35.1158 230.675 36.4252 230.675 38.0277C230.675 39.5112 229.73 40.3724 227.842 40.6112L218.033 42.1086C214.584 42.6242 211.799 43.8674 209.679 45.8376C207.558 47.8082 206.498 50.4425 206.498 53.74C206.498 56.8863 207.689 59.5825 210.072 61.8272C212.455 64.0715 215.571 65.1949 219.42 65.1949C222.262 65.1949 224.675 64.6062 226.66 63.4297C228.644 62.2532 230.11 56.4865 231.159 54.7983C231.159 57.2033 230.416 63.1612 230.708 64.0057L240.02 63.9858C239.952 62.1255 239.756 60.2968 239.756 57.8677V45.982Z" fill="#FEFEFE"/>
</svg>
