<svg width="590" height="40" viewBox="0 0 590 40" fill="none" xmlns="http://www.w3.org/2000/svg">
<path d="M409.425 12.0305H409.33L403.39 3.31292V16.5004H401.596V0.196838H403.461L409.41 9.09331L415.343 0.196838H417.202V16.5004H415.364V3.25124L409.425 12.0305Z" fill="white"/>
<path d="M438.37 9.5867C438.37 14.3418 435.644 16.8149 431.565 16.8149C427.487 16.8149 424.781 14.3479 424.781 9.72239V0.218424H426.631V9.5867C426.631 13.1052 428.491 15.0911 431.609 15.0911C434.726 15.0911 436.533 13.2733 436.533 9.69463V0.196838H438.371L438.37 9.5867Z" fill="white"/>
<path d="M445.953 0.196838H447.791V14.8105H456.973V16.5065H445.953V0.196838Z" fill="white"/>
<path d="M467.447 16.5004H465.588V1.8975H460.104V0.196838H472.921V1.89287H467.447V16.5004Z" fill="white"/>
<path d="M481.424 0.196838V16.5004H479.586V0.196838H481.424Z" fill="white"/>
<path d="M501.173 1.8975H491.305V7.71952H500.128V9.40014H491.305V16.5004H489.455V0.196838H501.173V1.8975Z" fill="white"/>
<path d="M521.334 16.502H519.348L517.415 12.2018H508.527L506.594 16.502H504.734L512.135 0.0812988H513.857L521.334 16.502ZM513.019 2.19518L509.289 10.5427H516.69L513.019 2.19518Z" fill="white"/>
<path d="M535.642 12.0305H535.546L529.609 3.31292V16.5004H527.812V0.196838H529.672L535.614 9.09331L541.56 0.196838H543.419V16.5004H541.581V3.25124L535.642 12.0305Z" fill="white"/>
<path d="M553.34 0.196838V16.5004H551.502V0.196838H553.34Z" fill="white"/>
<path d="M561.34 0.196838H563.178V14.8105H572.359V16.5065H561.34V0.196838Z" fill="white"/>
<path d="M582.926 16.5004H581.055V10.0493L574.314 0.196838H576.586L582.09 8.35476L587.587 0.196838H589.701L582.927 10.0338L582.926 16.5004Z" fill="white"/>
<path d="M409.425 35.2153H409.33L403.39 26.4977V39.6851H401.596V23.3276H403.461L409.41 32.2349L415.343 23.3276H417.202V39.6851H415.364V26.4977L409.425 35.2153Z" fill="white"/>
<path d="M440.228 39.6853H438.251L436.329 35.3682H427.452L425.519 39.6853H423.648L431.049 23.2538H432.772L440.228 39.6853ZM431.913 25.4417L428.183 33.7569H435.584L431.913 25.4417Z" fill="white"/>
<path d="M452.145 30.6393C455.779 31.4318 457.428 32.7531 457.428 35.2787C457.428 38.1003 455.103 39.9181 451.859 39.9181C449.386 39.9469 446.998 39.0105 445.203 37.3078L446.418 36.008C447.147 36.748 448.018 37.3334 448.978 37.7292C449.938 38.125 450.969 38.3231 452.007 38.3115C454.195 38.3115 455.641 37.1705 455.641 35.5223C455.641 33.8741 454.827 33.1232 451.415 32.3523C447.664 31.5382 445.942 30.334 445.942 27.6296C445.942 24.9252 448.204 23.149 451.3 23.149C453.393 23.0889 455.436 23.8025 457.037 25.1534L455.981 26.5796C454.68 25.4378 453.009 24.8072 451.278 24.8049C449.164 24.8049 447.801 25.9675 447.801 27.4569C447.801 28.9463 448.606 29.8776 452.145 30.6393Z" fill="white"/>
<path d="M470.307 39.6851H468.436V25.0715H462.963V23.3276H475.78V25.0237H470.307V39.6851Z" fill="white"/>
<path d="M494.075 25.0499H484.121V30.619H493.028V32.2997H484.121V38.0045H494.169V39.6851H482.281V23.3276H494.075V25.0499Z" fill="white"/>
<path d="M512.385 39.6851L507.651 33.345H502.987V39.6851H501.152V23.3276H508.168C511.75 23.3276 514.064 25.2719 514.064 28.1983C514.067 29.4071 513.612 30.5723 512.791 31.4592C511.97 32.3461 510.843 32.8888 509.637 32.9781L514.645 39.645L512.385 39.6851ZM508.031 25.0715H502.987V31.7014H507.995C510.447 31.7014 512.221 30.4433 512.221 28.3201C512.221 26.197 510.663 25.0715 508.031 25.0715Z" fill="white"/>
<path d="M527.644 39.6851H525.784V33.2279L519 23.3276H521.24L526.735 31.4856L532.286 23.3276H534.4L527.627 33.1646L527.644 39.6851Z" fill="white"/>
<path d="M69.9238 1.90997H87.6227C94.0368 1.90997 98.1258 3.51658 100.662 6.05138C101.784 7.17274 102.659 8.51639 103.23 9.99597C103.801 11.4756 104.057 13.0583 103.98 14.6426V14.749C104.037 17.0982 103.386 19.4103 102.113 21.385C100.839 23.3597 99.0006 24.9058 96.8368 25.8225L105.317 38.1219H91.4403L84.6223 27.7668H82.0751V38.1219H69.9238V1.90997ZM87.2527 19.1016C90.1591 19.1016 91.9122 17.8126 91.9122 15.5831V15.4767C91.9122 13.1516 90.1051 12.0106 87.3051 12.0106H82.0751V19.1031L87.2527 19.1016Z" fill="white"/>
<path d="M104.867 20.1578V20.0622C104.867 9.51753 113.511 1.13757 124.689 1.13757C135.868 1.13757 144.4 9.41114 144.4 19.925V20.0314C144.4 30.5345 135.757 38.9144 124.578 38.9144C113.4 38.9144 104.867 30.6393 104.867 20.1578ZM132.192 20.1578V20.0622C132.249 19.0214 132.096 17.9797 131.741 16.9995C131.386 16.0194 130.837 15.1209 130.127 14.3579C129.416 13.595 128.559 12.9832 127.607 12.5592C126.655 12.1352 125.627 11.9077 124.584 11.8904C123.553 11.9019 122.535 12.1228 121.592 12.5398C120.648 12.9568 119.799 13.5611 119.097 14.3161C118.394 15.0711 117.852 15.961 117.504 16.9318C117.156 17.9026 117.008 18.9341 117.071 19.9636V20.0699C117.014 21.1115 117.169 22.1538 117.524 23.1344C117.88 24.115 118.43 25.0137 119.141 25.7767C119.853 26.5397 120.711 27.1513 121.664 27.5748C122.617 27.9984 123.646 28.2252 124.689 28.2418C125.72 28.2285 126.738 28.0059 127.681 27.5874C128.623 27.169 129.471 26.5634 130.173 25.8075C130.874 25.0516 131.415 24.1611 131.762 23.1899C132.109 22.2187 132.255 21.1872 132.192 20.1578Z" fill="white"/>
<path d="M146.602 1.90997H160.478C174.87 1.90997 182.064 9.00248 182.064 19.7153V19.8216C182.064 30.536 174.663 38.1434 160.065 38.1434H146.602V1.90997ZM160.74 27.5556C166.277 27.5556 169.848 25.2736 169.848 20.0421V19.9465C169.848 14.7166 166.277 12.4331 160.74 12.4331H158.722V27.554L160.74 27.5556Z" fill="white"/>
<path d="M194.291 1.90997H206.395V15.4675L216.686 1.90997H230.771L218.091 17.6368L231.043 38.1141H216.609L209.572 26.6397L206.395 30.4296V38.1219H194.291V1.90997Z" fill="white"/>
<path d="M229.928 1.90997H242.047V14.695H253.12V1.90997H265.23V38.1219H253.12V25.1456H242.047V38.1219H229.928V1.90997Z" fill="white"/>
<path d="M268.27 1.90997H280.379V27.7868H297.412V38.1172H268.271L268.27 1.90997Z" fill="white"/>
<path d="M299.99 1.90997H330.873V11.8534H311.856V15.5199H329.555V24.2683H311.856V28.1985H331.108V38.1203H299.99V1.90997Z" fill="white"/>
<path d="M333.434 1.90997H345.543V38.1219H333.434V1.90997Z" fill="white"/>
<path d="M347.693 1.90997H378.018V12.265H359.781V16.8721H376.68V26.2866H359.781V38.1219H347.693V1.90997Z" fill="white"/>
<path d="M0.712891 2.55444H18.2221C24.5622 2.55444 28.6096 4.13947 31.1243 6.64343C32.2243 7.74977 33.0832 9.07198 33.6468 10.5267C34.2105 11.9815 34.4667 13.5372 34.3992 15.0958V15.2022C34.4519 17.5263 33.8064 19.8127 32.5462 21.7661C31.2859 23.7195 29.4689 25.2501 27.3298 26.1602L35.6774 38.3408H22.0043L15.2525 28.1044H12.6946V38.3439H0.712891V2.55444ZM17.8629 19.5981C20.7261 19.5981 22.4699 18.3199 22.4699 16.1212V16.0148C22.4699 13.7113 20.6737 12.5811 17.9153 12.5811H12.6946V19.5965L17.8629 19.5981Z" fill="white"/>
<path d="M38.3184 20.0098H52.3646L63.4351 38.2653H49.3811L38.3184 20.0098Z" fill="white"/>
<path d="M38.3184 20.0081H52.3646L63.4351 1.77106H49.3811L38.3184 20.0081Z" fill="white"/>
</svg>
