<svg width="329" height="80" viewBox="0 0 329 80" fill="none" xmlns="http://www.w3.org/2000/svg">
<path d="M18.0881 35.8213C22.5955 35.8213 26.9204 34.0807 30.3385 30.5722L28.1761 28.3381C25.4931 31.1091 21.6886 32.6003 18.0881 32.6003C8.7191 32.6003 3.96485 26.2125 3.96485 18.084C3.96485 10.4001 8.7191 3.27478 18.0881 3.27478C21.6886 3.27478 25.2033 4.66297 27.9346 7.43393L30.0059 5.30826C27.0707 1.74018 22.5633 0.102549 18.0881 0.102549C6.4171 0.0917041 0.557471 8.67029 0.605765 18.1328C0.654058 27.785 6.46539 35.8213 18.0881 35.8213Z" fill="white"/>
<path d="M55.4085 35.9193C66.7897 35.9193 72.3649 27.0967 72.4132 18.0301C72.4615 8.76283 66.8004 0.0486815 55.4085 -0.00012207C44.5049 -0.00012207 38.3555 8.22057 38.3555 17.9813C38.3555 27.0967 43.9683 35.9193 55.4085 35.9193ZM55.4085 3.26429C64.5789 3.3131 69.0434 10.254 69.0434 18.0301C68.9951 25.4645 64.5789 32.644 55.4085 32.644C46.2381 32.644 41.8219 25.6109 41.7146 18.0301C41.6233 9.85278 46.3776 3.26429 55.4085 3.26429Z" fill="white"/>
<path d="M109.142 35.2735H111.149V0.595886H107.79V17.2433L107.988 28.7393L86.2294 0.595886H84.1152V35.2735H87.4851V17.6392L87.3831 7.37416L109.142 35.2735Z" fill="white"/>
<path d="M136.377 32.4974C132.299 32.4974 127.588 30.9574 125.291 26.5054L122.361 28.1377C124.953 33.6796 130.716 35.8215 136.377 35.8215C142.478 35.8215 149.776 33.6958 149.824 25.8602C149.824 18.4746 143.106 16.9454 136.468 15.747C131.237 14.8089 126.917 13.7135 126.917 9.65195C126.917 4.55469 132.251 3.30749 136.377 3.30749C139.935 3.35629 144.061 4.44624 146.025 7.71065L148.864 6.07845C145.88 1.32823 140.933 0.0322266 136.329 0.0322266C130.657 0.0322266 123.461 2.35853 123.558 9.64111C123.558 16.3814 129.799 17.8184 136.146 18.9572C141.378 19.8953 146.465 21.0828 146.422 25.7951C146.412 31.3641 140.504 32.5029 136.383 32.5029L136.377 32.4974Z" fill="white"/>
<path d="M186.743 28.3437C184.06 31.1147 180.255 32.6059 176.655 32.6059C167.286 32.6059 162.532 26.2181 162.532 18.0896C162.532 10.4057 167.286 3.28039 176.655 3.28039C180.255 3.28039 183.77 4.66858 186.501 7.43953L188.573 5.31387C185.643 1.74579 181.135 0.108154 176.66 0.108154C164.989 0.108154 159.135 8.68131 159.178 18.1384C159.226 27.8069 165.038 35.8269 176.66 35.8269C181.168 35.8269 185.493 34.0863 188.911 30.5778L186.748 28.3437H186.743Z" fill="white"/>
<path d="M203.261 0.595886H199.902V35.279H203.261V0.595886Z" fill="white"/>
<path d="M249.032 18.0301C249.081 8.76283 243.42 0.0486815 232.028 -0.00012207C221.124 -0.00012207 214.975 8.22057 214.975 17.9813C214.975 27.0967 220.587 35.9193 232.028 35.9193C243.468 35.9193 248.984 27.0967 249.032 18.0301ZM232.028 32.6549C222.857 32.6549 218.441 25.6217 218.334 18.0409C218.242 9.86362 222.997 3.27514 232.028 3.27514C241.198 3.32394 245.663 10.2649 245.663 18.0409C245.614 25.4645 241.198 32.6549 232.028 32.6549Z" fill="white"/>
<path d="M287.061 21.7549V0.595886H283.702V21.7495C283.702 28.9833 278.899 32.405 273.812 32.405C268.092 32.405 263.724 28.3434 263.724 21.7495V0.595886H260.365V21.7495C260.365 31.109 266.515 35.6206 273.812 35.6206C281.11 35.6206 287.061 31.109 287.061 21.7495V21.7549Z" fill="white"/>
<path d="M311.999 15.7524C306.767 14.8143 302.447 13.7189 302.447 9.65737C302.447 4.56011 307.781 3.31291 311.908 3.31291C315.465 3.36171 319.592 4.45166 321.555 7.71608L324.394 6.08387C321.416 1.32823 316.469 0.0322266 311.865 0.0322266C306.193 0.0322266 298.997 2.35853 299.094 9.64111C299.094 16.3814 305.334 17.8184 311.682 18.9572C316.914 19.8953 322.001 21.0828 321.958 25.7951C321.958 31.337 316.055 32.4757 311.918 32.4757C307.781 32.4757 303.129 30.9357 300.832 26.4838L297.902 28.116C300.494 33.6579 306.257 35.7998 311.918 35.7998C318.019 35.7998 325.317 33.6742 325.365 25.8385C325.355 18.4746 318.636 16.9454 312.009 15.747L311.999 15.7524Z" fill="white"/>
<path d="M18.996 76.5241C9.20847 76.5241 4.23423 70.1363 4.23423 62.0078C4.23423 54.3239 9.20847 47.1986 18.996 47.1986C22.7629 47.1986 26.4225 48.5868 29.2825 51.3577L31.445 49.2321C28.3864 45.664 23.6697 44.0264 18.996 44.0264C6.80452 44.0209 0.676599 52.5995 0.724893 62.0512C0.773186 71.7197 6.85282 79.7397 18.996 79.7397C23.7127 79.7397 28.2362 77.9991 31.7938 74.4906L29.5401 72.2565C26.7283 75.0383 22.7629 76.5187 18.996 76.5187V76.5241Z" fill="white"/>
<path d="M58.7977 43.9282C47.9316 43.9282 41.793 52.1488 41.793 61.9096C41.793 71.025 47.395 79.8476 58.7977 79.8476C70.2003 79.8476 75.7112 71.025 75.7541 61.9584C75.8024 52.6911 70.1521 43.977 58.7977 43.9282ZM58.7977 76.5669C49.6487 76.5669 45.2433 69.5338 45.1521 61.9529C45.0608 53.7756 49.799 47.1872 58.7977 47.1872C67.9466 47.236 72.395 54.1769 72.395 61.9529C72.3467 69.3874 67.9413 76.5669 58.7977 76.5669Z" fill="white"/>
<path d="M297.827 43.9282C286.961 43.9282 280.822 52.1488 280.822 61.9096C280.822 71.025 286.424 79.8476 297.827 79.8476C309.23 79.8476 314.74 71.025 314.783 61.9584C314.832 52.6911 309.171 43.977 297.827 43.9282ZM297.827 76.5669C288.678 76.5669 284.273 69.5338 284.181 61.9529C284.09 53.7756 288.828 47.1872 297.827 47.1872C306.976 47.236 311.424 54.1769 311.424 61.9529C311.376 69.3874 306.971 76.5669 297.827 76.5669Z" fill="white"/>
<path d="M102.945 44.5141H88.0117V79.1972H91.3493V67.6524H102.951C117.884 67.6036 117.884 44.5141 102.951 44.5141H102.945ZM102.945 64.388H91.344V47.7894H102.945C113.393 47.7894 113.393 64.388 102.945 64.388Z" fill="white"/>
<path d="M137.745 61.8665L126.552 44.5141H122.484V44.6226L135.99 65.2231V79.2026H139.5V65.2231L153.204 44.6226V44.5141H149.089L137.745 61.8665Z" fill="white"/>
<path d="M258.879 76.5241C249.091 76.5241 244.117 70.1363 244.117 62.0078C244.117 54.3239 249.091 47.1986 258.879 47.1986C262.646 47.1986 266.305 48.5868 269.165 51.3577L271.328 49.2321C268.269 45.664 263.553 44.0264 258.879 44.0264C246.687 44.0264 240.559 52.5995 240.608 62.0566C240.656 71.7251 246.736 79.7452 258.879 79.7452C263.595 79.7452 268.119 78.0045 271.677 74.4961L269.423 72.2619C266.611 75.0437 262.646 76.5241 258.879 76.5241Z" fill="white"/>
<path d="M210.19 60.3703H206.122C205.473 64.8439 204.389 68.2656 202.881 70.6244C200.928 68.3686 198.138 65.1042 194.537 60.842L194.586 60.6902C199.56 58.0928 202.06 54.9693 202.06 51.3308C202.06 49.075 201.341 47.2692 199.898 45.9136C198.454 44.5579 196.657 43.9885 194.494 43.8801C193.555 43.8313 187.197 43.8204 184.836 48.5327C182.185 53.8197 186.263 57.6481 188.683 59.8551L188.635 60.007C184.208 62.5773 181.986 65.9881 181.986 70.2611C181.986 72.9995 182.915 75.2879 184.766 77.1316C186.719 79.0349 189.311 80.0001 192.541 80.0001C196.351 80.0001 199.667 78.6987 202.479 76.1013C204.164 77.945 205.221 79.0837 205.677 79.5284H210.979L205.307 73.3357C207.641 70.516 209.272 66.1942 210.201 60.3703H210.19ZM190.003 48.5056C190.851 47.497 192.037 47.0035 193.582 47.0035C194.999 47.0035 196.126 47.4373 196.952 48.3049C197.778 49.1726 198.197 50.2408 198.197 51.5368C198.197 53.9336 196.034 56.222 191.699 58.4073C189.735 56.1894 188.747 54.0854 188.747 52.1116C188.737 50.7126 189.155 49.5142 190.003 48.5056ZM193.292 76.6598C191.237 76.6598 189.536 75.9928 188.211 74.6534C186.885 73.3141 186.225 71.6222 186.225 69.5779C186.225 66.7364 187.701 64.3613 190.652 62.4471C193.024 65.2886 196.222 68.9651 200.231 73.4767C198.395 75.6024 196.083 76.6598 193.292 76.6598Z" fill="white"/>
<path d="M328.608 75.3855H326.273V79.8483H328.608V75.3855Z" fill="white"/>
</svg>
