<svg width="216" height="78" viewBox="0 0 216 78" fill="none" xmlns="http://www.w3.org/2000/svg">
<path d="M41.0652 13.4799H39.6324C38.4093 5.60564 31.7348 2.71379 25.165 2.71379C17.8614 2.71379 10.8024 8.46266 10.8024 19.0545C10.8024 29.6464 16.7432 38.6703 26.2134 38.6703C30.3369 38.6703 36.732 36.2663 41.4496 28.845L41.9388 35.2907C36.1728 39.4369 30.302 40.9699 24.4312 40.9699C5.45579 40.9699 2.66016 26.3364 2.66016 20.3785C2.66016 11.4939 8.98528 0.623291 26.0387 0.623291C29.4983 0.623291 35.8583 1.59886 41.0652 3.68935V13.4799Z" fill="white"/>
<path d="M72.026 0.623291C83.8725 0.623291 94.3561 8.88076 94.3561 20.7966C94.3561 31.3885 86.1789 40.9699 72.7598 40.9699C60.9133 40.9699 50.4297 32.7124 50.4297 20.7966C50.4297 10.2047 58.6069 0.623291 72.026 0.623291ZM74.1576 38.8794C77.6522 38.8794 86.2138 36.7541 86.2138 23.2007C86.2138 12.6088 80.1682 2.71379 70.5932 2.71379C67.0987 2.71379 58.537 4.83913 58.537 18.3925C58.537 28.9844 64.5826 38.8794 74.1576 38.8794Z" fill="white"/>
<path d="M98.5857 1.32019C103.129 1.42472 105.645 1.4944 108.126 1.4944C110.607 1.4944 113.123 1.42472 116.233 1.32019V2.95775H114.765C112.809 2.95775 111.935 3.72426 111.935 5.04824C111.935 5.60571 112.11 6.02381 114.032 10.3093L119.833 23.2704L127.066 8.67177C127.87 6.96453 128.219 5.98897 128.219 5.29214C128.219 3.27132 126.647 2.99259 124.341 2.99259V1.32019C126.926 1.42472 128.744 1.4944 130.421 1.4944C132.098 1.4944 133.916 1.42472 136.502 1.32019V2.95775C134.125 2.95775 132.727 3.93331 131.714 5.74508L120.636 26.1971V34.1758C120.636 37.2419 121.615 38.5311 125.179 38.6007V40.2383C120.776 40.1338 118.924 40.0641 117.177 40.0641C115.429 40.0641 113.542 40.1338 109.174 40.2383V38.6007C112.739 38.5311 113.717 37.2419 113.717 34.1758V26.1971L104.701 6.89485C103.164 3.55005 101.906 3.06227 98.5508 2.95775V1.32019H98.5857Z" fill="white"/>
<path d="M145.691 38.6356C149.256 38.5659 150.234 37.2768 150.234 34.2107V7.38263C150.234 4.31657 149.256 2.99259 145.691 2.95775V1.32019C150.095 1.42472 151.947 1.4944 153.694 1.4944C155.441 1.4944 157.293 1.42472 161.696 1.32019V2.95775C158.132 3.02743 157.154 4.31657 157.154 7.38263V34.1758C157.154 37.0329 158.726 37.9387 163.304 37.9387C170.538 37.9387 174.172 36.998 175.255 30.2387H177.107L176.234 40.2383C173.473 40.1686 169.489 40.1686 164.842 40.1338C160.229 40.0641 155.022 40.0641 149.745 40.0641C148.103 40.0641 146.67 40.1338 145.691 40.2383V38.6356Z" fill="white"/>
<path d="M184.656 38.6356C188.22 38.5659 189.199 37.2767 189.199 34.2107V7.38263C189.199 4.31657 188.22 2.99259 184.656 2.95775V1.32019C186.508 1.35503 189.199 1.4944 191.995 1.4944C200.381 1.4944 207.126 1.38987 212.228 1.32019L212.438 10.5184H210.69C209.817 5.25729 207.44 3.41069 200.871 3.41069H196.083V19.1939H200.312C205.309 19.1939 206.008 17.3822 206.392 13.9329H208.244C208.174 16.0582 208.139 18.079 208.139 19.8211C208.139 22.3994 208.174 24.455 208.244 26.6501H206.392C206.392 22.3297 205.029 21.2496 200.242 21.2496H196.083V34.2455C196.083 36.7541 197.132 38.1129 202.269 38.1129C207.86 38.1129 211.774 37.0677 213.067 30.1691H214.919C214.604 32.7822 214.115 37.3813 214.115 40.1686C208.803 40.0989 201.814 39.9944 193.218 39.9944C188.989 39.9944 185.704 40.0989 184.621 40.1686V38.6356H184.656Z" fill="white"/>
<path d="M0.73807 76.4386C2.52029 76.4038 3.00952 75.7418 3.00952 74.2087V60.8296C3.00952 59.2965 2.52029 58.6345 0.73807 58.6345V57.7983C2.03105 57.8332 2.93963 57.868 4.61701 57.868C9.12497 57.868 12.5846 57.8332 14.9259 57.7983L15.2404 62.5368H14.262C13.7028 59.192 12.5496 58.8436 8.74057 58.8436C7.51748 58.8436 7.13308 58.8784 6.43418 58.9481V66.7526H8.98519C11.3265 66.7526 11.9206 66.1952 12.0254 64.1395H12.969C12.934 64.9409 12.8991 65.9861 12.8991 67.3798C12.8991 68.7735 12.934 69.4703 12.969 70.5155H12.0254C11.8857 68.3554 10.7325 67.7979 8.56585 67.7979H6.43418V74.2436C6.43418 75.7766 6.92341 76.4386 8.70563 76.4734V77.3097C6.50407 77.24 5.59549 77.24 4.72185 77.24C3.84821 77.24 2.90469 77.24 0.703125 77.3097V76.4386H0.73807Z" fill="white"/>
<path d="M16.3236 76.4385H16.5333C17.3719 76.4385 17.8961 76.0204 17.8961 75.1494V68.1462C17.8961 67.4145 17.6865 67.0661 16.9875 67.0661C16.8128 67.0661 16.5333 67.1358 16.2188 67.2403V66.3693C16.9177 66.2648 19.5735 65.4983 21.0063 64.7666V75.1494C21.0063 76.0204 21.4955 76.4385 22.3342 76.4385H22.5788V77.2747C21.7052 77.2399 20.3074 77.205 19.4687 77.205C18.63 77.205 17.2322 77.2747 16.3585 77.2747V76.4385H16.3236ZM19.3638 58.5996C20.4471 58.5996 21.2858 59.4358 21.2858 60.5159C21.2858 61.596 20.4471 62.4322 19.3638 62.4322C18.2805 62.4322 17.4418 61.596 17.4418 60.5159C17.4418 59.4358 18.2805 58.5996 19.3638 58.5996Z" fill="white"/>
<path d="M23.9406 76.4385H24.1502C24.9889 76.4385 25.4782 76.0204 25.4782 75.1494V68.1462C25.4782 67.4146 25.2685 67.0661 24.5696 67.0661C24.3949 67.0661 24.1153 67.1358 23.8008 67.2404V66.3693C24.4997 66.2648 27.1555 65.4983 28.5883 64.7666V67.0313C30.6151 65.3938 32.0828 64.7666 33.4108 64.7666C35.193 64.7666 36.6956 65.8118 36.6956 68.3901V75.2191C36.6956 76.1947 37.3247 76.4385 38.373 76.4385V77.2747C37.5693 77.2399 36.0317 77.2051 35.0532 77.2051C34.0747 77.2051 32.5371 77.2747 31.7334 77.2747V76.4385C33.1662 76.4385 33.5855 76.2295 33.5855 74.6616V68.7385C33.5855 66.8223 32.4323 66.5784 31.5936 66.5784C30.6501 66.5784 29.6716 66.9268 28.5883 67.8675V75.1494C28.5883 76.0204 29.0775 76.4385 29.9162 76.4385H30.1259V77.2747C29.2523 77.2399 27.8545 77.2051 26.9808 77.2051C26.1072 77.2051 24.7443 77.2747 23.8707 77.2747V76.4385H23.9406Z" fill="white"/>
<path d="M51.6905 75.9507C51.376 75.9507 48.6852 76.9611 47.6368 77.4489C47.3572 76.9959 47.2174 76.3688 47.1825 75.9507C45.61 77.0308 43.9326 77.4489 42.9192 77.4489C41.3117 77.4489 39.8789 75.9855 39.8789 74.6616C39.8789 72.2923 42.0805 71.1774 47.0427 70.5851V68.0416C47.0427 66.4738 45.9245 65.9163 44.911 65.9163C44.1073 65.9163 43.3036 66.195 43.3036 67.2751C43.3036 67.5539 43.4433 68.0416 43.688 68.5643L40.6128 69.7837C40.2983 69.2959 40.1585 68.843 40.1585 68.3552C40.1585 66.2647 43.7229 64.7317 46.4836 64.7317C48.0561 64.7317 50.1529 65.8466 50.1529 68.4597V74.6616C50.1529 75.2539 50.3276 75.3584 50.7469 75.3584C50.8867 75.3584 51.0614 75.3235 51.6905 75.0797V75.9507ZM47.0427 71.3168C44.6664 71.5606 43.2337 72.6756 43.2337 73.895C43.2337 75.1145 43.9326 75.881 45.1207 75.881C45.8196 75.881 46.5884 75.7068 47.0777 75.3235C47.0427 75.0797 47.0078 74.6616 47.0078 74.2783V71.3168H47.0427Z" fill="white"/>
<path d="M52.8781 76.4385H53.0877C53.9264 76.4385 54.4157 76.0204 54.4157 75.1494V68.1462C54.4157 67.4146 54.206 67.0661 53.5071 67.0661C53.3324 67.0661 53.0528 67.1358 52.7383 67.2404V66.3693C53.4372 66.2648 56.093 65.4983 57.5258 64.7666V67.0313C59.5526 65.3938 61.0203 64.7666 62.3483 64.7666C64.1305 64.7666 65.6331 65.8118 65.6331 68.3901V75.2191C65.6331 76.1947 66.2622 76.4385 67.3105 76.4385V77.2747C66.5068 77.2399 64.9342 77.2051 63.9907 77.2051C63.0472 77.2051 61.4746 77.2747 60.6709 77.2747V76.4385C62.1037 76.4385 62.523 76.2295 62.523 74.6616V68.7385C62.523 66.8223 61.3698 66.5784 60.5311 66.5784C59.5876 66.5784 58.6091 66.9268 57.5258 67.8675V75.1494C57.5258 76.0204 58.015 76.4385 58.8537 76.4385H59.0634V77.2747C58.1898 77.2399 56.792 77.2051 55.9533 77.2051C55.1146 77.2051 53.7168 77.2747 52.8431 77.2747V76.4385H52.8781Z" fill="white"/>
<path d="M79.6104 68.5992H78.9814C78.8067 67.5539 77.6535 65.6028 75.417 65.6028C73.46 65.6028 72.0622 67.1358 72.0622 69.958C72.0622 72.7802 73.8095 76.4385 76.4653 76.4385C77.7933 76.4385 79.0862 75.463 79.7502 74.4526V76.2992C78.597 76.8566 77.0245 77.449 75.3471 77.449C70.8391 77.449 68.7773 74.5571 68.7773 71.3865C68.7773 66.7526 72.0273 64.7666 75.3471 64.7666C76.5702 64.7666 78.1777 64.9757 79.4357 65.3589L79.6104 68.5992Z" fill="white"/>
<path d="M81.3234 76.4385H81.533C82.3717 76.4385 82.861 76.0204 82.861 75.1494V68.1462C82.861 67.4145 82.6862 67.0661 81.9524 67.0661C81.7777 67.0661 81.4981 67.1358 81.1836 67.2403V66.3693C81.8825 66.2648 84.5384 65.4983 85.9711 64.7666V75.1494C85.9711 76.0204 86.4604 76.4385 87.299 76.4385H87.5087V77.2747C86.6351 77.2399 85.2373 77.205 84.3986 77.205C83.5599 77.205 82.1621 77.2747 81.2884 77.2747V76.4385H81.3234ZM84.3287 58.5996C85.412 58.5996 86.2507 59.4358 86.2507 60.5159C86.2507 61.596 85.412 62.4322 84.3287 62.4322C83.2454 62.4322 82.4067 61.596 82.4067 60.5159C82.4067 59.4358 83.2454 58.5996 84.3287 58.5996Z" fill="white"/>
<path d="M100.96 75.9507C100.646 75.9507 97.9549 76.9611 96.9065 77.4489C96.627 76.9959 96.4872 76.3688 96.4872 75.9507C94.9146 77.0308 93.2373 77.4489 92.2238 77.4489C90.6164 77.4489 89.1836 75.9855 89.1836 74.6616C89.1836 72.2923 91.4201 71.1774 96.3474 70.5851V68.0416C96.3474 66.4738 95.2292 65.9163 94.2157 65.9163C93.412 65.9163 92.6082 66.195 92.6082 67.2751C92.6082 67.5539 92.748 68.0416 92.9926 68.5643L89.9174 69.7837C89.6029 69.2959 89.4632 68.843 89.4632 68.3552C89.4632 66.2647 93.0276 64.7317 95.7883 64.7317C97.3608 64.7317 99.4576 65.8466 99.4576 68.4597V74.6616C99.4576 75.2539 99.6323 75.3584 100.052 75.3584C100.191 75.3584 100.366 75.3235 100.995 75.0797V75.9507H100.96ZM96.2775 71.3168C93.9012 71.5606 92.4685 72.6756 92.4685 73.895C92.4685 75.1145 93.1674 75.881 94.3555 75.881C95.0544 75.881 95.8232 75.7068 96.3125 75.3235C96.2775 75.0797 96.2426 74.6616 96.2426 74.2783V71.3168H96.2775Z" fill="white"/>
<path d="M102.116 76.4386H102.326C103.165 76.4386 103.654 76.0205 103.654 75.1494V59.3662C103.654 58.5648 103.479 58.2513 102.745 58.2513C102.431 58.2513 102.186 58.3209 101.977 58.3558V57.5196C103.619 57.3454 105.157 56.9273 106.764 56.335V75.1494C106.764 76.0205 107.253 76.4386 108.092 76.4386H108.302V77.2748C107.428 77.2399 106.03 77.2051 105.192 77.2051C104.353 77.2051 102.955 77.2748 102.081 77.2748V76.4386H102.116Z" fill="white"/>
<path d="M137.095 63.8608H136.396C135.802 59.9237 132.447 58.4604 129.163 58.4604C125.528 58.4604 121.964 61.3174 121.964 66.6133C121.964 71.9092 124.934 76.4386 129.652 76.4386C131.714 76.4386 134.929 75.2192 137.27 71.526L137.515 74.7662C134.649 76.8567 131.714 77.6233 128.778 77.6233C119.308 77.6233 117.91 70.3065 117.91 67.3101C117.91 62.8852 121.055 57.45 129.582 57.45C131.329 57.45 134.509 57.9377 137.095 58.983V63.8608Z" fill="white"/>
<path d="M145.867 64.7666C149.117 64.7666 152.367 66.7526 152.367 71.3865C152.367 74.5571 149.991 77.449 145.867 77.449C141.394 77.449 139.367 74.2087 139.367 71.3865C139.367 66.7526 142.652 64.7666 145.867 64.7666ZM146.356 76.5431C148.593 76.5431 149.047 74.8358 149.047 73.1634C149.047 70.7942 148.453 65.7073 145.448 65.7073C142.862 65.7073 142.617 67.6585 142.617 69.4354C142.617 71.5607 143.246 76.5431 146.356 76.5431Z" fill="white"/>
<path d="M153.832 65.8466C154.95 65.8118 157.431 65.1498 158.62 64.7665V73.4769C158.62 74.6964 159.563 75.6371 160.961 75.6371C161.974 75.6371 162.708 75.2887 163.617 74.7661V67.8326C163.617 66.9964 163.197 66.648 162.464 66.648H161.974V65.8118C163.058 65.7769 165.539 65.1149 166.762 64.7317V75.01C166.762 75.6371 167.146 75.881 167.566 75.881C167.74 75.881 167.915 75.8462 168.23 75.7765V76.5778C167.286 76.5778 165.644 76.9611 164.071 77.5534C163.896 76.9611 163.652 75.9507 163.617 75.4281C162.114 76.5082 160.367 77.3792 158.969 77.3792C156.872 77.3792 155.509 75.9159 155.509 73.9647V67.7629C155.509 66.9267 155.09 66.5783 154.356 66.5783H153.832V65.8466Z" fill="white"/>
<path d="M169.663 76.4385H169.873C170.712 76.4385 171.201 76.0204 171.201 75.1494V68.1462C171.201 67.4146 170.991 67.0661 170.292 67.0661C170.118 67.0661 169.838 67.1358 169.523 67.2404V66.3693C170.222 66.2648 172.878 65.4983 174.311 64.7666V67.0313C176.338 65.3938 177.806 64.7666 179.133 64.7666C180.916 64.7666 182.418 65.8118 182.418 68.3901V75.2191C182.418 76.1947 183.047 76.4385 184.096 76.4385V77.2747C183.292 77.2399 181.754 77.2051 180.776 77.2051C179.797 77.2051 178.26 77.2747 177.456 77.2747V76.4385C178.889 76.4385 179.308 76.2295 179.308 74.6616V68.7385C179.308 66.8223 178.155 66.5784 177.316 66.5784C176.373 66.5784 175.394 66.9268 174.311 67.8675V75.1494C174.311 76.0204 174.8 76.4385 175.639 76.4385H175.849V77.2747C174.975 77.2399 173.577 77.2051 172.738 77.2051C171.9 77.2051 170.502 77.2747 169.628 77.2747V76.4385H169.663Z" fill="white"/>
<path d="M185.914 73.6511H186.753C187.102 75.9159 188.605 76.6127 190.003 76.6127C191.4 76.6127 192.344 75.9159 192.344 74.9054C192.344 72.5711 186.054 72.6059 186.054 68.4946C186.054 66.4041 187.556 64.7317 190.737 64.7317C191.855 64.7317 193.008 64.9407 194.196 65.2543L194.301 68.4597H193.532C193.288 66.857 192.204 65.5679 190.492 65.5679C189.374 65.5679 188.465 66.1602 188.465 67.2751C188.465 69.6095 194.755 69.7489 194.755 73.5815C194.755 75.8113 192.938 77.4489 189.548 77.4489C188.675 77.4489 187.172 77.205 185.949 76.6127V73.6511H185.914Z" fill="white"/>
<path d="M208.103 76.1947C206.706 77.1354 205.133 77.449 203.246 77.449C198.773 77.449 196.746 74.5571 196.746 71.3865C196.746 66.7526 199.996 64.7666 203.246 64.7666C205.378 64.7666 208.173 66.1254 208.173 70.6897H200.101C200.136 74.6965 202.582 76.4037 204.364 76.4037C205.587 76.4037 206.81 75.8114 207.929 74.0693L208.103 76.1947ZM204.853 69.8883C204.853 67.2752 204.539 65.6028 202.617 65.6028C200.485 65.6028 200.136 67.6933 200.136 69.8883H204.853Z" fill="white"/>
<path d="M209.745 76.4386H209.955C210.794 76.4386 211.283 76.0205 211.283 75.1494V59.3662C211.283 58.5648 211.073 58.2513 210.374 58.2513C210.06 58.2513 209.815 58.3209 209.605 58.3558V57.5196C211.248 57.3454 212.786 56.9273 214.393 56.335V75.1494C214.393 76.0205 214.882 76.4386 215.721 76.4386H215.931V77.2748C215.057 77.2399 213.659 77.2051 212.82 77.2051C211.982 77.2051 210.584 77.2748 209.71 77.2748V76.4386H209.745Z" fill="white"/>
</svg>
