<svg width="592" height="52" viewBox="0 0 592 52" fill="none" xmlns="http://www.w3.org/2000/svg">
<path d="M0.523438 1.82312H35.7016V7.76261H6.92167V22.4906H33.5287V28.0921H6.92167V44.5343H36.2087V50.3048H0.523438V1.82312Z" fill="white"/>
<path d="M41.2539 1.82312H48.9076L62.8389 25.1223L76.7943 1.82312H84.5204L66.1467 30.7721V50.3048H59.5794V30.7721L41.2539 1.82312Z" fill="white"/>
<path d="M90.7031 1.82312H125.881V7.76261H97.1014V22.4906H123.708V28.0921H97.1014V44.5343H126.388V50.3048H90.7031V1.82312Z" fill="white"/>
<path d="M139.452 34.6598C139.597 37.4123 140.225 39.6336 141.335 41.3719C143.436 44.5831 147.13 46.2008 152.442 46.2008C154.808 46.2008 156.981 45.8386 158.937 45.1385C162.703 43.7622 164.586 41.3237 164.586 37.7986C164.586 35.1669 163.79 33.2836 162.196 32.1488C160.578 31.0382 158.043 30.0966 154.591 29.2757L148.217 27.7787C144.064 26.8129 141.118 25.7506 139.38 24.5675C136.386 22.5394 134.913 19.5214 134.913 15.4893C134.913 11.1433 136.386 7.54581 139.307 4.76922C142.229 1.96848 146.406 0.568115 151.766 0.568115C156.715 0.568115 160.916 1.79947 164.369 4.23805C167.822 6.70076 169.56 10.6121 169.56 15.9963H163.379C163.065 13.3887 162.389 11.4089 161.351 10.0327C159.42 7.49752 156.16 6.24202 151.573 6.24202C147.854 6.24202 145.199 7.06293 143.557 8.68059C141.915 10.2983 141.118 12.2057 141.118 14.3545C141.118 16.7206 142.084 18.459 143.991 19.5697C145.247 20.2698 148.096 21.1632 152.538 22.2014L159.13 23.7466C162.317 24.4951 164.755 25.5092 166.494 26.8129C169.488 29.0825 170.96 32.3661 170.96 36.688C170.96 42.048 169.053 45.8869 165.238 48.2048C161.424 50.5226 157.005 51.6816 151.959 51.6816C146.068 51.6816 141.48 50.1363 138.148 47.07C134.817 44.0037 133.199 39.8509 133.247 34.6357H139.428L139.452 34.6598Z" fill="white"/>
<path d="M194.902 2.98056H208.761L217.018 30.3602L226.145 2.83569H237.445L246.571 30.3602L254.828 2.98056H268.422L252.607 50.6414H241.187L231.65 23.4066L222.185 50.6414H210.765L194.951 2.98056H194.902Z" fill="white"/>
<path d="M273.855 2.98035H287.038V50.3031H273.855V2.98035Z" fill="white"/>
<path d="M295.703 2.98035H313.956C330.857 2.98035 340.66 12.7105 340.66 26.3762V26.521C340.66 40.1867 330.712 50.3273 313.691 50.3273H295.703V2.98035ZM314.149 38.6656C321.996 38.6656 327.187 34.3438 327.187 26.69V26.5452C327.187 18.9639 321.972 14.5696 314.149 14.5696H308.813V38.6414H314.149V38.6656Z" fill="white"/>
<path d="M347.43 2.98035H385.481V14.135H360.395V21.3059H383.115V31.6396H360.395V39.1485H385.819V50.3031H347.43V2.98035Z" fill="white"/>
<path d="M450.91 8.75151C454.122 13.0492 455.739 18.5299 455.739 25.2179C455.739 32.4612 453.904 38.4731 450.234 43.2778C445.913 48.9034 439.78 51.7283 431.788 51.7283C424.328 51.7283 418.461 49.2656 414.187 44.3402C410.372 39.5837 408.465 33.5718 408.465 26.3285C408.465 19.7613 410.082 14.1598 413.342 9.49998C417.519 3.5122 423.7 0.518311 431.885 0.518311C440.07 0.518311 446.782 3.27076 450.91 8.77565V8.75151ZM445.116 39.6562C447.699 35.5034 449.003 30.7228 449.003 25.3386C449.003 19.6406 447.506 15.0532 444.536 11.5522C441.567 8.05132 437.486 6.33708 432.295 6.33708C427.104 6.33708 423.193 8.05132 420.006 11.504C416.819 14.9566 415.249 20.0269 415.249 26.739C415.249 32.1232 416.601 36.6381 419.33 40.3322C422.058 44.0263 426.452 45.8613 432.561 45.8613C438.669 45.8613 442.532 43.7848 445.116 39.632V39.6562Z" fill="white"/>
<path d="M464.18 1.82312H485.885C490.183 1.82312 493.636 3.03033 496.267 5.46891C498.899 7.90748 500.227 11.3118 500.227 15.7302C500.227 19.5209 499.044 22.8045 496.702 25.6052C494.36 28.406 490.738 29.8063 485.885 29.8063H470.747V50.3048H464.18V1.82312ZM489.652 8.48694C488.203 7.8109 486.223 7.47288 483.712 7.47288H470.723V24.2773H483.712C486.634 24.2773 489.024 23.6495 490.835 22.394C492.646 21.1385 493.563 18.9173 493.563 15.7544C493.563 12.181 492.26 9.76659 489.628 8.48694H489.652Z" fill="white"/>
<path d="M509.266 1.82312H544.444V7.76261H515.664V22.4906H542.271V28.0921H515.664V44.5343H544.951V50.3048H509.266V1.82312Z" fill="white"/>
<path d="M553.75 1.82312H561.5L585.693 41.0093V1.82312H591.97V50.3048H584.582L560.052 11.167V50.3048H553.774V1.82312H553.75Z" fill="white"/>
</svg>
