<svg width="494" height="103" viewBox="0 0 494 103" fill="none" xmlns="http://www.w3.org/2000/svg">
<path d="M94.077 36.6631H77.3711L79.7281 39.3372V65.1818L77.3711 67.8558H94.077C103.119 67.8558 110.907 61.5704 110.907 51.4669C110.907 41.3634 103.119 36.6769 94.077 36.6769V36.6631ZM93.0984 65.3472H88.467V39.158H93.0984C98.4051 39.158 101.741 43.2104 101.741 52.1699C101.741 61.1293 98.4051 65.3472 93.0984 65.3472ZM127.627 68.2831C133.995 68.2831 140.556 64.589 140.556 56.4842C140.556 48.3793 134.009 44.6853 127.641 44.6853C121.272 44.6853 114.725 48.3793 114.725 56.4842C114.725 64.589 121.259 68.2831 127.641 68.2831H127.627ZM128.027 66.2431C125.132 66.2431 123.533 62.0115 123.533 55.5469C123.533 50.378 124.374 46.7253 127.227 46.7253C130.08 46.7253 131.679 50.9569 131.679 57.4215C131.679 62.5766 130.88 66.2431 128.027 66.2431ZM154.395 65.168V32.5555L143.919 37.1455L146.097 39.6818V65.168L143.74 67.842H156.752L154.395 65.168ZM170.026 65.168V32.5555L159.564 37.1455L161.742 39.6818V65.168L159.371 67.842H172.369L170.012 65.168H170.026ZM200.267 63.2107C199.716 63.7069 199.013 63.9963 198.269 64.0101C197.29 64.0101 196.573 63.5139 196.573 61.7772V52.1009C196.573 47.3731 193.458 44.6577 188.248 44.6577C183.341 44.5888 178.847 47.4145 176.794 51.8804L177.014 52.1009C179.027 50.695 181.411 49.9231 183.878 49.868C186.732 49.868 188.427 50.9431 188.427 54.458V56.8563H179.068C176.931 57.9866 175.594 60.192 175.594 62.6042C175.594 66.0777 178.089 68.2555 181.962 68.2555C184.568 68.3107 187.035 67.139 188.648 65.099H188.868C189.819 67.1253 191.887 68.3796 194.12 68.2555C197.125 68.3658 199.799 66.3258 200.488 63.4036L200.254 63.1831L200.267 63.2107ZM185.436 64.5477C184.03 64.6166 182.817 63.5415 182.748 62.1355C182.748 61.9839 182.748 61.8461 182.762 61.6944C182.762 60.578 183.189 59.5166 183.961 58.7172H188.413V63.2244C187.641 64.0515 186.566 64.5339 185.422 64.5615L185.436 64.5477ZM218.986 53.4104L221.742 45.1263C216.67 43.9685 213.362 47.125 211.901 52.2112L211.68 52.1285L212.838 44.4234L202.362 49.0134L204.54 51.5496V65.1818L202.183 67.8558H216.711L212.838 64.3823V53.8653C214.175 52.2112 216.808 52.4869 218.986 53.4242V53.4104ZM257.925 36.6631H234.175L236.532 39.3372V65.168L234.175 67.842H249.145L245.271 64.3685V54.6647H252.26L256.174 59.2134V47.635L252.26 52.1836H245.271V39.1717H253.294L257.925 46.3393V36.6631ZM284.472 62.3699V44.4234L273.997 49.0134L276.175 51.5496V62.5077C275.044 63.3761 273.68 63.8585 272.26 63.8861C270.785 63.8861 269.627 63.0453 269.627 60.4539V44.4234L259.152 49.0134L261.329 51.5496V61.529C261.329 66.8358 264.265 68.2969 267.698 68.2969C271.116 68.159 274.341 66.629 276.602 64.0653H276.822L279.055 68.4761L287.298 64.9061L284.445 62.3699H284.472ZM300.379 65.1818V32.5693L289.903 37.1593L292.081 39.6955V65.1818L289.724 67.8558H302.736L300.379 65.1818ZM316.947 43.8031C316.947 38.9512 317.926 35.7809 320.159 34.8988L323.549 39.3509L328.898 35.9601C326.775 33.6169 323.687 32.3626 320.517 32.5693C315.348 32.5693 308.663 35.2434 308.663 43.9272V44.4647L304.569 48.338H308.663V65.1818L306.306 67.8558H320.834L316.961 64.3823V48.338H322.75L324.087 45.1263H316.961V43.7893L316.947 43.8031ZM330.896 42.6453C333.391 42.6039 335.404 40.5915 335.445 38.0966C335.404 35.6017 333.391 33.5893 330.896 33.548C328.401 33.5893 326.389 35.6017 326.348 38.0966C326.389 40.5915 328.401 42.6039 330.896 42.6453ZM335.266 65.1818V44.4234L324.79 49.0134L326.968 51.5496V65.1818L324.611 67.8558H337.623L335.266 65.1818ZM350.897 65.1818V32.5693L340.421 37.1593L342.599 39.6955V65.1818L340.242 67.8558H353.254L350.897 65.1818ZM366.527 65.1818V32.5693L356.052 37.1593L358.229 39.6955V65.1818L355.872 67.8558H368.884L366.527 65.1818ZM411.476 65.1818V51.4669C411.476 46.1601 408.582 44.699 405.246 44.699C401.883 44.768 398.712 46.2566 396.521 48.7928C395.68 45.6226 393.268 44.699 390.594 44.699C387.175 44.7817 383.95 46.3255 381.731 48.9307L381.51 48.7101L382.186 44.4372L371.724 49.0272L373.902 51.5634V65.1955L371.531 67.8696H384.543L382.186 65.1955V50.502C383.233 49.6199 384.556 49.1374 385.921 49.1236C387.699 49.1236 388.554 49.9645 388.554 52.5558V65.2093L386.197 67.8834H399.209L396.852 65.2093V50.5158C397.899 49.6336 399.222 49.1512 400.587 49.1374C402.365 49.1374 403.22 49.9782 403.22 52.5696V65.2231L400.863 67.8972H413.875L411.518 65.2231L411.476 65.1818ZM431.918 62.3699C427.465 62.3699 424.791 59.6545 424.571 54.265H439.678C439.581 47.9382 435.708 44.6853 429.381 44.6853C422.076 44.6853 416.824 49.0547 416.824 56.2636C416.521 62.6042 421.428 67.9936 427.769 68.2969C428.155 68.3107 428.554 68.3107 428.94 68.2969C434.247 68.2969 437.9 65.6642 439.499 60.1507L439.278 59.9301C437.155 61.529 434.578 62.3974 431.931 62.3836L431.918 62.3699ZM428.582 46.6839C430.636 46.6839 431.656 48.7377 431.656 52.4318H424.612C424.833 48.779 426.349 46.6839 428.582 46.6839ZM468.582 65.168V51.4531C468.582 46.2015 465.329 44.6853 461.939 44.6853C458.424 44.6577 455.088 46.2153 452.855 48.9169L452.635 48.6963L453.296 44.4234L442.821 49.0134L444.998 51.5496V65.1818L442.641 67.8558H455.653L453.296 65.1818V50.4882C454.44 49.6199 455.832 49.1374 457.266 49.1099C459.141 49.1099 460.298 49.9093 460.298 52.542V65.1955L457.928 67.8696H470.926L468.569 65.1955L468.582 65.168ZM484.448 68.2831C488.858 68.2831 492.07 65.7055 493.173 60.8399L492.952 60.6193C491.67 61.7082 490.044 62.3147 488.362 62.3561C485.55 62.3561 484.751 60.5366 484.751 58.1658V48.3242H491.974L493.311 45.1126H484.765V39.5439L472.152 48.3242H476.481V60.4815C476.481 64.9888 479.375 68.2831 484.461 68.2831H484.448Z" fill="white"/>
<path d="M51.8681 26.4653L29.4557 12.9986V4.87993C29.4557 3.81857 28.6011 2.9502 27.5259 2.9502C26.4646 2.9502 25.5962 3.80479 25.5962 4.87993V12.9297L3.5697 25.0594V52.3788L21.53 62.6753L0.757812 75.5907L23.1702 89.0575V97.1623C23.1702 98.2237 24.0386 99.0921 25.1 99.0921C26.1613 99.0921 27.0159 98.2237 27.0297 97.1623V89.1264L49.0562 76.9829V49.6634L31.1511 39.3394L51.8543 26.4653H51.8681ZM27.7189 16.1688L44.4662 26.5067L27.3743 37.0788L10.2824 26.038L27.7189 16.1688ZM7.47052 28.8224L23.8043 39.174L7.47052 49.181V28.8224ZM24.907 85.8872L8.1597 75.5494L25.2516 64.9772L42.3435 76.018L24.907 85.8872ZM45.1554 73.2337L28.8216 62.8821L45.1554 52.8751V73.2337ZM41.9851 49.9529L25.2654 60.3597L10.6546 52.1032L27.4432 41.6551L41.9851 49.9529Z" fill="white"/>
</svg>
