<svg width="343" height="44" viewBox="0 0 343 44" fill="none" xmlns="http://www.w3.org/2000/svg">
<path d="M114.458 22.236V22.1231C114.458 10.1395 123.908 0.748291 135.971 0.748291C142.661 0.748291 147.302 2.38122 151.991 6.38829L152.734 7.02416L146.059 15.1324L145.301 14.4965C142.456 12.1111 139.969 10.7265 135.695 10.7265C130.038 10.7265 125.435 15.787 125.435 22.0102V22.1231C125.435 28.7903 130.008 33.6326 136.307 33.6326C139.066 33.6326 141.515 32.9779 143.434 31.7326V27.6164H134.765V18.1461H153.739V36.7141L153.391 37.0114C148.579 41.2291 142.407 43.5318 136.031 43.4979C123.534 43.4979 114.462 34.5544 114.462 22.236H114.458ZM341.743 42.3654H331.472V18.0521H342.923V42.3654H341.743ZM311.334 42.3654H299.125L298.845 41.5753L285.61 4.01791L285.05 2.43013H297.251L297.516 3.2466L305.648 28.1695L308.702 18.8648L308.97 18.0483H320.735L320.175 19.6361L312.446 41.5715L312.166 42.3616H311.334V42.3654ZM277.721 42.3654H267.45V26.9053H255.675V42.3654H244.224V2.43013H255.675V17.1415H267.45V2.43013H278.901V42.3654H277.721ZM203.909 42.3654H202.73V2.43013H217.888C230.294 2.43013 238.627 10.4556 238.627 22.3978C238.627 34.34 230.29 42.3654 217.888 42.3654H203.909ZM212.997 33.2601H217.302C224.156 33.2601 228.196 29.302 228.196 22.4015C228.226 20.6482 227.912 18.9062 227.266 17.277C226.815 16.1746 226.154 15.1738 225.321 14.3272C225.086 14.0901 224.84 13.8719 224.582 13.6612C224.451 13.5559 224.317 13.458 224.182 13.3602C222.409 12.0998 220.087 11.4301 217.305 11.4301H213.001V33.2564L212.997 33.2601ZM194.949 42.3654H184.421L184.152 41.5452L176.024 16.6223L172.97 25.927L172.701 26.7435H160.937L161.497 25.1557L169.225 3.22026L169.505 2.43013H182.546L182.826 3.22026L196.062 40.7776L196.622 42.3654H194.945H194.949ZM166.727 42.3654H155.437L155.997 40.7776L158.939 32.4324L159.219 31.6423H171.107L170.595 33.2037L167.859 41.5489L167.59 42.3654H166.731H166.727ZM50.8281 42.1923H40.3257V2.34736H58.1457L61.3342 11.7198H51.8884V17.5216H63.7348L67.2406 26.894H51.8921V32.6958H69.4135L72.6019 41.0034V42.0682H51.8921V42.1923H50.8318H50.8281ZM91.7175 42.0682H79.5537L79.3036 41.3571L66.0197 3.64919L65.5194 2.22696H77.4405L77.6795 2.95688L86.0127 28.3538L89.3318 18.1762L89.5707 17.4425H101.148L100.648 18.8648L92.7218 41.3533L92.4716 42.0644H91.7212L91.7175 42.0682ZM1.98254 42.0682H0.929688V2.22696H16.0243C22.1398 2.22696 27.3368 4.13455 31.0591 7.7428C34.7628 11.3322 36.7191 16.3138 36.7191 22.1457C36.7191 34.0616 28.4009 42.0644 16.0243 42.0644H1.98627L1.98254 42.0682ZM12.1638 31.9884H15.4269C21.8 31.9884 25.3095 28.493 25.3095 22.1494C25.3095 15.8059 21.7067 12.2014 15.4269 12.2014H12.1638V31.9846V31.9884ZM341.74 13.157H331.472V2.43013H342.923V13.1533H341.74V13.157ZM321.623 13.157H310.572L311.084 11.5956L313.82 3.25036L314.089 2.4339H326.234L325.674 4.02167L322.732 12.3669L322.452 13.157H321.62H321.623ZM102.41 11.7235H91.43L91.8855 10.3276L94.2861 2.96441L94.5251 2.23072H106.502L106.002 3.65295L103.407 11.0124L103.157 11.7235H102.41Z" fill="white"/>
</svg>
