<svg width="559" height="90" viewBox="0 0 559 90" fill="none" xmlns="http://www.w3.org/2000/svg">
<path d="M179.333 28.4436C178.407 30.6955 177.008 32.7113 175.247 34.3821C173.431 36.1073 171.306 37.4694 168.963 38.3956C166.402 39.3762 163.697 39.8666 160.954 39.8302H148.006V2.47405H160.954C163.697 2.43773 166.402 2.92806 168.963 3.89057C171.288 4.78044 173.431 6.10615 175.247 7.81324C177.008 9.48401 178.388 11.4817 179.333 13.7154C181.24 18.4371 181.24 23.7219 179.333 28.4436ZM175.301 15.368C174.593 13.6064 173.558 11.9902 172.214 10.6463C170.815 9.28424 169.163 8.23093 167.347 7.52267C165.313 6.74177 163.134 6.34224 160.954 6.37856H152.219V35.8712H160.954C163.134 35.9076 165.295 35.5262 167.347 34.7635C169.181 34.0734 170.834 33.02 172.214 31.6398C173.54 30.3141 174.593 28.7342 175.301 26.9908C176.046 25.1384 176.409 23.177 176.391 21.1794C176.391 19.1817 176.028 17.2204 175.301 15.368Z" fill="white"/>
<path d="M215.336 39.7566L204.439 25.2282H193.779V39.7566H189.584V2.47302H205.602C207.49 2.45486 209.379 2.72727 211.177 3.27208C212.72 3.74426 214.155 4.52516 215.408 5.54215C216.571 6.48649 217.497 7.70325 218.132 9.06529C218.786 10.5 219.113 12.0436 219.095 13.6236C219.113 15.0583 218.859 16.4748 218.35 17.8005C217.86 18.9991 217.152 20.0706 216.244 20.9967C215.299 21.9411 214.21 22.7038 213.011 23.2668C211.722 23.8843 210.36 24.3201 208.961 24.5381L220.421 39.7566H215.336ZM212.466 8.32071C210.396 6.90419 207.908 6.21409 205.402 6.35937H193.87V21.5416H205.365C206.655 21.5597 207.962 21.3781 209.197 21.0149C210.305 20.688 211.322 20.1795 212.248 19.4894C213.102 18.8538 213.774 18.0184 214.246 17.0559C214.736 16.0389 214.991 14.9311 214.972 13.8052C215.081 11.6804 214.137 9.62826 212.466 8.32071Z" fill="white"/>
<path d="M226.986 39.7571V34.1637H231.89V39.7571H226.986Z" fill="white"/>
<path d="M284.171 6.30514H261.507V19.0175H281.847V22.8675H261.507V35.9068H284.516V39.7387H257.275V2.47327H284.226L284.171 6.30514Z" fill="white"/>
<path d="M292.9 2.47327H297.114V35.8705H318.089V39.7568H292.9V2.47327Z" fill="white"/>
<path d="M330.512 2.47327V39.7568H326.299V2.47327H330.512Z" fill="white"/>
<path d="M340.467 6.21433V2.47327H369.524V5.30631L345.371 36.0339H369.561V39.666H339.596V36.9419L363.731 6.21433H340.467Z" fill="white"/>
<path d="M413.011 39.7569H408.489L404.13 29.9139H383.827L379.396 39.7569H375.092L392.09 2.21912H396.031L413.011 39.7569ZM394.07 7.15878L385.552 26.191H402.551L394.07 7.15878Z" fill="white"/>
<path d="M441.289 3.14515C442.651 3.50836 443.959 4.12582 445.103 4.96121C446.138 5.72395 446.992 6.72278 447.554 7.88505C448.136 9.08364 448.426 10.4094 448.408 11.7532C448.444 12.861 448.263 13.9507 447.9 14.9858C447.591 15.8757 447.137 16.6929 446.556 17.4375C446.029 18.1276 445.43 18.7269 444.74 19.2535C444.049 19.7257 443.341 20.1252 442.578 20.4521C443.65 20.7427 444.703 21.1785 445.684 21.7052C446.61 22.1774 447.482 22.7948 448.226 23.5213C448.953 24.2477 449.534 25.1194 449.915 26.0819C450.369 27.1534 450.587 28.3156 450.551 29.4779C450.569 30.9671 450.26 32.4562 449.607 33.8001C448.935 35.1077 447.954 36.2336 446.737 37.069C445.448 37.9952 443.995 38.6671 442.451 39.0667C440.672 39.5388 438.837 39.7749 437.003 39.7568H420.459V2.47321H436.313C438.002 2.45505 439.673 2.67298 441.289 3.14515ZM441.816 17.383C443.414 16.2207 444.304 14.332 444.195 12.3525C444.249 10.6091 443.45 8.93836 442.07 7.86689C440.272 6.65013 438.129 6.069 435.968 6.21428H424.581V19.0901H435.478C437.693 19.1991 439.891 18.6179 441.743 17.383H441.816ZM443.832 34.2723C445.412 33.1282 446.301 31.2576 446.211 29.3145C446.283 27.3894 445.339 25.5552 443.704 24.5201C441.453 23.267 438.892 22.6859 436.313 22.8493H424.581V36.0339H437.058C439.419 36.161 441.761 35.5435 443.759 34.2723H443.832Z" fill="white"/>
<path d="M485.778 6.30514H463.077V19.0175H483.417V22.8675H463.077V35.9068H486.086V39.7387H458.846V2.47327H485.778V6.30514Z" fill="white"/>
<path d="M508.579 39.7568H504.384V6.35962H491.854V2.47327H521.201V6.35962H508.67L508.579 39.7568Z" fill="white"/>
<path d="M533.24 22.9947V39.7568H529.045V2.47327H533.24V19.0357H554.76V2.47327H558.973V39.7568H554.76V22.9947H533.24Z" fill="white"/>
<path d="M147.223 88.8253V51.5417H155.431V81.3613H174.028V88.8253H147.223Z" fill="white"/>
<path d="M196.114 89.4612C185.563 89.8244 176.719 81.5796 176.356 71.0465C176.356 70.7922 176.356 70.538 176.356 70.2837V70.1748C176.319 59.2058 185.2 50.2708 196.187 50.2527C207.156 50.2164 216.091 59.0968 216.109 70.0658V70.1748C216.109 80.835 207.483 89.4612 196.841 89.4794C196.605 89.4794 196.368 89.4794 196.132 89.4794L196.114 89.4612ZM207.41 70.1748C207.628 63.9275 202.725 58.6792 196.459 58.4612C196.35 58.4612 196.223 58.4612 196.114 58.4612C189.958 58.4431 184.946 63.4009 184.909 69.5573C184.909 69.7208 184.909 69.8842 184.909 70.0658V70.1748C184.655 76.422 189.504 81.7067 195.751 81.9609C195.914 81.9609 196.078 81.9609 196.26 81.9609C202.434 81.9609 207.446 76.985 207.465 70.8285C207.465 70.6651 207.465 70.5017 207.465 70.3382L207.41 70.1566V70.1748Z" fill="white"/>
<path d="M252.418 88.8253V64.472L241.921 80.417H241.703L231.316 64.6355V88.8253H223.361V51.5417H232.206L242.012 67.3051L251.819 51.5417H260.663V88.8253H252.418Z" fill="white"/>
<path d="M287.311 88.8253H269.568V51.5417H286.93C294.539 51.5417 299.243 55.3191 299.243 61.185V61.2758C299.333 64.69 297.408 67.8317 294.339 69.3209C298.643 70.9735 301.313 73.4797 301.313 78.4012V78.5101C301.277 85.4111 295.738 88.8253 287.311 88.8253ZM291.052 62.5652C291.052 60.1135 289.127 58.7333 285.604 58.7333H277.523V66.615H285.114C288.746 66.615 291.034 65.4345 291.034 62.6741V62.5652H291.052ZM293.123 77.475C293.123 74.9688 291.307 73.4252 287.057 73.4252H277.577V81.6337H287.311C290.943 81.6337 293.123 80.3625 293.123 77.5839V77.475Z" fill="white"/>
<path d="M335.794 88.826L332.325 80.4721H316.543L313.147 88.826H304.775L320.757 51.27H328.33L344.311 88.826H335.794ZM324.498 61.1312L319.613 73.2261H329.51L324.498 61.1312Z" fill="white"/>
<path d="M372.757 88.8253L364.767 76.8938H358.32V88.8253H350.111V51.5417H367.164C375.954 51.5417 381.238 56.1727 381.238 63.8364V63.9454C381.493 69.1575 378.206 73.8973 373.248 75.5136L382.328 88.8253H372.757ZM372.921 64.2723C372.921 60.7491 370.469 58.9331 366.474 58.9331H358.32V69.6478H366.637C370.633 69.6478 372.921 67.523 372.921 64.3812V64.2723Z" fill="white"/>
<path d="M403.155 88.8253H388.627V51.5417H403.155C414.869 51.5417 422.968 59.5869 422.968 70.0655V70.1744C422.968 80.6712 414.887 88.8253 403.155 88.8253ZM414.415 70.1744C414.705 64.2723 410.165 59.2237 404.263 58.9331C403.9 58.9149 403.537 58.9149 403.155 58.9331H396.817V81.4158H403.155C409.021 81.7609 414.052 77.2934 414.397 71.4457C414.415 71.0643 414.415 70.6648 414.397 70.2834V70.1744H414.415Z" fill="white"/>
<path d="M448.397 89.4607C437.845 89.8602 428.983 81.6153 428.602 71.0822C428.602 70.8098 428.602 70.5556 428.602 70.2832V70.1742C428.91 59.2234 438.027 50.5972 448.978 50.8877C459.456 51.1783 467.901 59.5685 468.246 70.0653V70.1742C468.246 80.8344 459.62 89.4607 448.959 89.4607C448.778 89.4607 448.596 89.4607 448.415 89.4607H448.397ZM459.692 70.1742C459.91 63.927 455.025 58.6968 448.778 58.4607C448.651 58.4607 448.524 58.4607 448.397 58.4607C442.24 58.4425 437.228 63.4003 437.191 69.5568C437.191 69.7202 437.191 69.8836 437.191 70.0653V70.1742C436.937 76.4214 441.786 81.7061 448.033 81.9604C448.197 81.9604 448.36 81.9604 448.542 81.9604C454.698 81.9786 459.711 77.0207 459.747 70.8643C459.747 70.6827 459.747 70.5193 459.747 70.3377L459.692 70.1561V70.1742Z" fill="white"/>
<path d="M96.9006 45.2611H34.9551V60.2254H96.9006V45.2611Z" fill="white"/>
<path d="M96.9006 15.6594H34.9551V30.6237H96.9006V15.6594Z" fill="white"/>
<path fill-rule="evenodd" clip-rule="evenodd" d="M0.970703 89.6983V0.54834H18.1324L18.0416 74.7341H96.9491V89.6983H0.970703Z" fill="white"/>
</svg>
