<svg width="193" height="165" viewBox="0 0 193 165" fill="none" xmlns="http://www.w3.org/2000/svg">
<path opacity="0.999184" fill-rule="evenodd" clip-rule="evenodd" d="M172.812 138.675L165.146 153.546V163.454H161.098V153.552L151.574 138.675H156.312L163.013 149.361L168.322 138.675H172.812ZM128.565 138.088H143.315V141.821H132.764V148.997H143.315V152.73H132.764V159.725H143.315V163.457H128.565V138.088ZM102.018 155.346H106.198C106.198 158.565 108.087 160.51 111.249 160.51C114.011 160.51 115.538 159.272 115.538 157.044C115.538 155.169 114.629 154.216 111.759 153.084L107.614 151.457C104.417 150.254 102.745 148.028 102.745 144.88C102.745 140.846 106.089 138.088 110.885 138.088C115.938 138.088 119.282 141.166 119.282 145.833H115.102C115.102 143.11 113.574 141.555 110.74 141.555C108.341 141.555 106.961 142.757 106.961 144.632C106.961 146.328 108.196 147.46 111.177 148.627L114.919 150.113C118.118 151.386 119.717 153.579 119.717 156.939C119.717 161.183 116.337 164.047 111.286 164.047C105.398 164.047 102.018 160.899 102.018 155.346ZM77.2379 155.346H81.4184C81.4184 158.565 83.3091 160.51 86.4688 160.51C89.2313 160.51 90.7585 159.272 90.7585 157.044C90.7585 155.169 89.8489 154.216 86.9792 153.084L82.8364 151.457C79.637 150.254 77.9648 148.028 77.9648 144.88C77.9648 140.846 81.3092 138.088 86.1054 138.088C91.1577 138.088 94.5021 141.166 94.5021 145.833H90.3216C90.3216 143.11 88.7964 141.555 85.9604 141.555C83.5633 141.555 82.1811 142.757 82.1811 144.632C82.1811 146.328 83.4163 147.46 86.3973 148.627L90.1409 150.113C93.3383 151.386 94.9371 153.579 94.9371 156.939C94.9371 161.183 91.557 164.047 86.5066 164.047C80.6181 164.047 77.2379 160.899 77.2379 155.346M51.2801 155.234V138.675H55.3256V154.988C55.3256 158.558 57.3315 160.399 60.4256 160.399C63.5218 160.399 65.5257 158.558 65.5257 154.988V138.675H69.5691V155.234C69.5691 161.001 65.9487 164.044 60.4256 164.044C54.9046 164.044 51.2801 161.001 51.2801 155.234M22.3699 138.088H26.4233V148.997H36.6074V138.088H40.6589V163.457H36.6074V152.73H26.4233V163.457H22.3699V138.088ZM157.472 102.688H161.802L167.742 121.136L173.356 102.688H176.399L182.015 121.136L187.953 102.688H192.281L183.624 128.057H180.655L174.895 109.973L169.1 128.057H166.131L157.472 102.688ZM136.232 102.688H150.982V106.422H140.43V113.597H150.982V117.331H140.43V124.325H150.982V128.057H136.232V102.688ZM107.916 102.688H111.968V113.597H122.152V102.688H126.205V128.057H122.152V117.331H111.968V128.057H107.916V102.688ZM88.48 106.602H81.3682V102.688H99.6572V106.602H92.5096V128.057H88.48L88.48 106.602ZM63.1097 106.602H55.9978V102.688H74.2868V106.602H67.1392V128.057H63.1097V106.602ZM47.7276 124.832H38.312L37.3667 128.057H32.9896L41.2513 102.688H44.7864L53.0501 128.057H48.6729L47.7276 124.832ZM46.6426 121.097L43.0002 108.522L39.3619 121.097H46.6426ZM0.542969 102.688H4.53084L12.6535 122.113L20.7425 102.688H24.7303V128.057H20.7425V111.277L14.2145 128.057H11.0588L4.53084 111.097V128.057H0.542969V102.688ZM111.355 49.5892C112.711 49.5892 113.821 48.4691 113.821 47.0988V37.3297C113.821 35.9614 112.711 34.8413 111.355 34.8413H110.975C109.619 34.8413 108.511 35.9613 108.511 37.3297V47.0988C108.511 48.4691 109.619 49.5892 110.975 49.5892H111.355ZM103.68 49.5868C105.037 49.5868 106.147 48.4926 106.147 47.152V28.4221C106.147 27.0835 105.037 25.9893 103.68 25.9893H103.301C101.947 25.9893 100.837 27.0835 100.837 28.4221V47.152C100.837 48.4926 101.947 49.5868 103.301 49.5868H103.68ZM94.8325 49.5892C96.1889 49.5892 97.2991 48.4691 97.2991 47.0988V37.3297C97.2991 35.9614 96.1889 34.8413 94.8325 34.8413H94.4531C93.0987 34.8413 91.9885 35.9613 91.9885 37.3297V47.0988C91.9885 48.4691 93.0987 49.5892 94.4531 49.5892H94.8325ZM87.1617 49.5892C88.5181 49.5892 89.6283 48.4691 89.6283 47.0988V37.3297C89.6283 35.9614 88.5181 34.8413 87.1617 34.8413H86.7823C85.4279 34.8413 84.3177 35.9613 84.3177 37.3297V47.0988C84.3177 48.4691 85.4279 49.5892 86.7823 49.5892H87.1617ZM79.4928 49.5892C80.8473 49.5892 81.9575 48.4691 81.9575 47.0988V37.3297C81.9575 35.9614 80.8473 34.8413 79.4928 34.8413H79.1135C77.7571 34.8413 76.6469 35.9613 76.6469 37.3297V47.0988C76.6469 48.4691 77.7571 49.5892 79.1135 49.5892H79.4928ZM135.484 40.1384C135.484 62.1948 117.558 80.0767 95.4444 80.0767C73.3324 80.0767 55.4069 62.1948 55.4069 40.1384C55.4069 18.0819 73.3324 0.200073 95.4444 0.200073C117.558 0.200073 135.484 18.082 135.484 40.1384Z" fill="white"/>
</svg>
