<svg width="137" height="144" viewBox="0 0 137 144" fill="none" xmlns="http://www.w3.org/2000/svg">
<path fill-rule="evenodd" clip-rule="evenodd" d="M131.712 138.899V143.231H130.657V138.899L126.336 132.445H127.544L131.213 137.982L134.882 132.445H136.033L131.712 138.899ZM95.1161 120.174C90.2318 122.799 83.1604 125.121 77.6035 125.121C66.3893 125.121 55.5593 118.906 52.5109 104.624C32.9887 112.156 17.0358 110.673 12.9025 101.301C7.68502 89.4778 18.1513 62.3481 43.7413 45.6725C38.8351 45.7853 24.7948 42.1335 24.7948 28.6329C24.7909 13.4027 45.4028 0.500197 55.205 0.500197C56.3173 0.500197 63.9206 0.323247 63.9206 10.5629C63.8927 14.0864 62.772 17.5142 60.7135 20.3726C59.0043 22.8256 55.2237 22.514 56.1397 18.7668C56.8195 15.9833 58.1641 10.2082 56.9423 7.91878C56.3297 6.83025 55.4273 5.93324 54.3356 5.32763C53.2439 4.72202 52.0056 4.43157 50.7587 4.48862C44.9866 4.48862 33.6747 11.8391 33.6747 22.68C33.6747 26.2582 36.5307 43.1937 51.5425 41.0225C54.2606 39.2026 57.0862 37.5491 60.004 36.071C63.2714 34.4722 67.1176 33.38 67.6128 34.7682C68.122 36.1932 66.685 38.3056 61.6216 41.0452C58.0673 42.8813 54.2681 44.1973 50.3402 44.953C28.0106 60.8871 20.0725 84.8505 25.049 96.1314C28.5183 103.996 37.8433 105.573 51.9118 100.829C51.7441 99.2587 51.6603 97.6804 51.6607 96.1009C51.6607 60.4384 85.6096 20.9669 106.16 20.9669C109.482 20.9669 118.074 22.1672 118.074 34.5732C118.074 50.7939 105.025 82.1821 63.1681 99.8231C64.8108 111.663 70.6994 121.634 82.0098 121.301C85.9265 121.25 89.7927 120.408 93.3772 118.827C109.265 110.41 118.643 95.4988 118.643 87.8124C118.643 83.6682 115.707 82.2534 112.209 82.2534C109.086 82.2534 103.995 83.2893 98.838 87.7475C92.7365 93.0239 89.6592 100.688 89.6592 106.586C89.6592 112.279 84.3205 113.897 84.3205 109.887C84.3205 100.696 88.2919 91.9653 97.1718 85.6687C104.495 80.4761 112.647 78.4521 117.391 78.4521C122.445 78.4521 126.105 80.4565 126.105 85.2717C126.105 93.9979 114.29 111.16 95.1161 120.174ZM114.055 35.5934C114.055 28.0691 110.922 25.8361 107.152 25.8361C89.9917 25.8361 61.4957 58.236 62.7113 94.4614C62.73 95.0682 62.7645 95.6711 62.8059 96.2747C100.873 80.7258 114.055 50.3915 114.055 35.5934ZM12.4207 142.351H17.8963V143.231H11.3654V132.445H12.4207V142.351ZM0.0332031 132.445H6.56173V133.327H1.08609V137.12H5.59958V138.001H1.08765V142.353H6.56329V143.233H0.0332031V132.445ZM23.0614 143.232H22.0038V132.445H23.0606L23.0614 143.232ZM31.2623 142.584C32.6829 142.584 33.8343 141.777 33.8343 140.499C33.8343 139.294 33.2007 138.559 31.0128 138C29.0572 137.497 27.9777 136.384 27.9777 134.909C27.9777 133.433 29.3412 132.212 31.4532 132.212C32.4795 132.23 33.4793 132.542 34.335 133.109L34.1042 133.956C33.3129 133.437 32.3977 133.14 31.4532 133.094C29.9552 133.094 29.0533 133.851 29.0533 134.911C29.0533 135.791 29.5923 136.564 31.4532 137.031C33.6998 137.589 34.9099 138.632 34.9099 140.376C34.9099 142.426 33.0474 143.468 31.2623 143.468C29.9605 143.505 28.6879 143.078 27.6711 142.263L27.8807 141.269C28.8102 142.105 30.0128 142.573 31.2623 142.584ZM40.5772 137.119H47.453V132.445H48.5083V143.232H47.453V138H40.5772V143.232H39.5219V132.445H40.5772V137.119ZM58.3245 132.445L63.086 143.232H61.9345L60.5523 140.1H55.1549L53.7915 143.232H52.6963L57.4578 132.445H58.3245ZM60.1667 139.223L57.8403 133.92L55.5351 139.223H60.1667ZM78.9708 132.212C80.308 132.206 81.6195 132.58 82.7529 133.29V134.332C81.657 133.529 80.3289 133.107 78.9708 133.129C78.3457 133.117 77.7246 133.231 77.1437 133.462C76.5629 133.694 76.034 134.039 75.5879 134.477C75.1418 134.916 74.7874 135.439 74.5455 136.016C74.3037 136.593 74.1791 137.213 74.1791 137.838C74.1791 138.464 74.3037 139.084 74.5455 139.661C74.7874 140.238 75.1418 140.761 75.5879 141.199C76.034 141.638 76.5629 141.983 77.1437 142.214C77.7246 142.446 78.3457 142.559 78.9708 142.548C80.3282 142.571 81.656 142.149 82.7521 141.348V142.388C81.6192 143.1 80.3075 143.474 78.97 143.468C75.7629 143.468 73.0735 141.328 73.0735 137.841C73.0735 134.353 75.7636 132.212 78.9708 132.212ZM92.6278 132.175C93.3922 132.136 94.1566 132.254 94.8738 132.521C95.591 132.789 96.2459 133.2 96.7981 133.731C97.3503 134.261 97.7881 134.899 98.0846 135.606C98.3811 136.312 98.5299 137.072 98.522 137.838C98.522 141.145 96.0071 143.5 92.6278 143.5C89.2282 143.5 86.7313 141.145 86.7313 137.838C86.7306 134.549 89.2267 132.174 92.627 132.174L92.6278 132.175ZM92.6278 142.584C93.5631 142.572 94.474 142.284 95.246 141.755C96.0179 141.227 96.6164 140.481 96.9662 139.613C97.316 138.745 97.4014 137.792 97.2117 136.875C97.0221 135.959 96.5657 135.119 95.9002 134.461C95.2346 133.803 94.3896 133.357 93.4713 133.178C92.5531 133 91.6027 133.098 90.7397 133.459C89.8767 133.82 89.1397 134.428 88.6213 135.208C88.1029 135.987 87.8264 136.902 87.8265 137.838C87.8039 138.473 87.913 139.105 88.1471 139.695C88.3811 140.285 88.735 140.82 89.1862 141.266C89.6374 141.712 90.1762 142.059 90.7685 142.286C91.3608 142.512 91.9936 142.614 92.627 142.583L92.6278 142.584ZM106.725 141.723L110.778 132.447H111.873L107.112 143.234H106.251L101.49 132.447H102.641L106.725 141.723ZM122.589 133.329H117.113V137.12H121.627V138.001H117.113V142.353H122.589V143.233H116.061V132.445H122.589V133.329Z" fill="white"/>
</svg>
