<svg width="454" height="38" viewBox="0 0 454 38" fill="none" xmlns="http://www.w3.org/2000/svg">
<path d="M15.3385 37.8718C12.7194 37.9039 10.116 37.463 7.65363 36.5702C5.48849 35.8108 3.56941 34.4792 2.10014 32.7169C0.706148 30.9702 -0.0247772 28.7866 0.036799 26.5527L0.0871245 25.3898H7.89846L7.84541 26.2398C7.83582 26.9862 8.0222 27.722 8.38594 28.3739C8.74967 29.0257 9.27804 29.5707 9.91828 29.9544C11.6726 30.9714 13.6866 31.4518 15.7112 31.3363C17.6613 31.4709 19.6142 31.1145 21.3911 30.2999C21.9134 30.0433 22.3539 29.6465 22.6636 29.1538C22.9732 28.6612 23.1397 28.0921 23.1444 27.5102C23.1535 27.0233 23.056 26.5402 22.8586 26.0949C22.6612 25.6497 22.3688 25.253 22.0018 24.9327C21.1644 24.198 20.1887 23.638 19.1319 23.2856C17.9803 22.8785 16.3935 22.3915 14.3714 21.8248C12.0111 21.1807 9.69039 20.3996 7.42105 19.4853C5.66001 18.7488 4.09514 17.6115 2.85095 16.1639C1.51791 14.5263 0.836428 12.4543 0.937217 10.3451C0.871305 8.83344 1.211 7.33161 1.92107 5.99541C2.63114 4.65921 3.68574 3.5373 4.9755 2.746C8.22943 0.86559 11.956 -0.0381835 15.7098 0.142677C19.346 -0.0139582 22.946 0.92062 26.0469 2.82625C27.3603 3.70118 28.4217 4.90469 29.1256 6.31709C29.8296 7.72949 30.1515 9.30156 30.0594 10.877V11.5162H22.4058V11.0375C22.4152 10.3899 22.2502 9.75165 21.9281 9.18975C21.606 8.62786 21.1386 8.16297 20.575 7.84384C19.063 6.99133 17.34 6.58569 15.6064 6.67411C13.8508 6.58316 12.0975 6.89197 10.4787 7.57725C9.96693 7.7708 9.52423 8.11202 9.20675 8.5576C8.88928 9.00318 8.71133 9.53304 8.69551 10.0799C8.6984 10.488 8.79583 10.8899 8.98013 11.254C9.16444 11.6182 9.43062 11.9347 9.75778 12.1786C10.5516 12.8099 11.451 13.2957 12.4142 13.6136C13.4769 13.9854 14.9826 14.4387 16.9312 14.9737C19.3589 15.5973 21.7459 16.3695 24.0788 17.286C25.9168 18.0322 27.5613 19.186 28.8883 20.6605C30.2831 22.2809 31.0057 24.3733 30.9081 26.5092C31.0267 28.1836 30.7039 29.8598 29.9718 31.3704C29.2398 32.881 28.1242 34.1731 26.7365 35.1175C23.9555 36.9537 20.1561 37.8718 15.3385 37.8718ZM45.6276 7.42219H34.3629V0.779227H64.599V7.42219H53.3329V37.2339H45.6276V7.42219ZM69.2752 0.779227H97.9172V7.31474H76.9804V15.3396H95.5791V21.8765H76.9804V30.6943H98.2395V37.2298H69.2752V0.779227ZM101.375 0.779227H109.718L116.569 20.7652C116.959 21.8987 117.756 24.4141 118.96 28.3113H119.232C120.366 24.4123 121.127 21.8969 121.517 20.7652L128.318 0.784667H136.343L123.164 37.2366H114.55L101.375 0.779227ZM140.166 0.779227H168.808V7.31474H147.869V15.3396H166.467V21.8765H147.869V30.6943H169.125V37.2298H140.163L140.166 0.779227ZM190.383 0.779227H209.725C213.8 0.779227 216.864 1.77984 218.919 3.78107C219.984 4.89739 220.808 6.22153 221.338 7.67067C221.868 9.11982 222.094 10.6628 222.001 12.2031C222.001 17.3046 219.875 20.7049 215.624 22.4042L223.064 37.2298H214.721L208.292 23.6284H198.091V37.2298H190.386L190.383 0.779227ZM209.033 17.2003C209.728 17.2468 210.424 17.1529 211.082 16.9241C211.739 16.6953 212.344 16.3364 212.859 15.8687C213.318 15.3785 213.672 14.8002 213.901 14.169C214.129 13.5377 214.227 12.8665 214.188 12.1963C214.23 11.5347 214.133 10.8716 213.904 10.2494C213.675 9.62724 213.32 9.0595 212.859 8.5824C211.802 7.66995 210.427 7.21151 209.033 7.30658H198.087V17.2003H209.033ZM245.859 37.8746C240.014 37.8746 235.48 36.3068 232.258 33.1712C229.035 30.0356 227.422 25.3145 227.42 19.0079C227.42 12.7023 229.031 7.98167 232.255 4.84607C235.479 1.71047 240.012 0.142677 245.856 0.142677C251.737 0.142677 256.289 1.71047 259.514 4.84607C262.738 7.98167 264.351 12.7023 264.352 19.0079C264.352 25.3136 262.74 30.0342 259.516 33.1698C256.293 36.3054 251.74 37.8727 245.859 37.8718V37.8746ZM245.859 31.339C247.313 31.4417 248.772 31.2263 250.135 30.7079C251.497 30.1895 252.73 29.3805 253.748 28.3372C255.674 25.9278 256.631 22.8859 256.432 19.8077V18.2095C256.631 15.1313 255.674 12.0895 253.748 9.68004C252.73 8.63675 251.497 7.82777 250.135 7.30936C248.772 6.79095 247.313 6.57557 245.859 6.67819C244.409 6.57344 242.953 6.78793 241.594 7.30657C240.235 7.8252 239.007 8.63537 237.995 9.68004C236.087 12.0975 235.142 15.1362 235.343 18.2095V19.805C235.143 22.8788 236.089 25.9176 237.999 28.3345C239.01 29.3786 240.238 30.1884 241.596 30.7071C242.954 31.2257 244.409 31.4405 245.859 31.3363V31.339ZM270.092 0.783306H285.189C290.751 0.783306 295.047 2.2976 298.075 5.3262C301.104 8.3548 302.618 12.9158 302.618 19.0093C302.618 25.1028 301.104 29.6638 298.075 32.6924C295.047 35.721 290.751 37.2353 285.189 37.2353H270.092V0.783306ZM285.189 30.7066C286.509 30.797 287.833 30.5884 289.061 30.0962C290.29 29.604 291.391 28.8409 292.284 27.8639C294.028 25.5567 294.887 22.6998 294.702 19.8131V18.2095C294.885 15.321 294.024 12.4629 292.276 10.1561C291.383 9.17904 290.282 8.41599 289.053 7.92379C287.825 7.43159 286.501 7.22294 285.181 7.31338H277.794V30.6943L285.189 30.7066ZM324.778 37.88C319.145 37.88 314.797 36.3385 311.733 33.2555C308.669 30.1725 307.134 25.4233 307.128 19.0079C307.128 12.7377 308.758 8.0261 312.017 4.87327C315.276 1.72045 319.881 0.144037 325.833 0.144037C328.776 0.107716 331.702 0.602572 334.469 1.60484C336.913 2.46507 339.067 3.9932 340.686 6.0158C342.26 8.07976 343.076 10.6221 342.998 13.2164H335.028C335.041 12.2627 334.805 11.322 334.344 10.4872C333.883 9.65235 333.212 8.95223 332.397 8.4559C330.528 7.23534 328.331 6.6142 326.1 6.67547C322.382 6.67547 319.61 7.66747 317.784 9.65147C315.816 12.052 314.837 15.1126 315.047 18.2095V19.805C315.047 23.7041 315.889 26.6003 317.572 28.4936C319.255 30.3869 321.832 31.3345 325.304 31.3363C327.835 31.4378 330.331 30.7225 332.424 29.2961C333.322 28.6772 334.053 27.8467 334.554 26.8782C335.054 25.9096 335.309 24.8328 335.294 23.7426H324.242V17.4125H342.998V37.2339H337.684L336.993 33.1956C335.453 34.7202 333.63 35.9297 331.626 36.7565C329.431 37.5543 327.106 37.9327 324.771 37.8718L324.778 37.88ZM349.804 0.788748H378.446V7.32426H357.506V15.3491H376.104V21.8765H357.506V30.6943H378.762V37.2298H349.8L349.804 0.788748ZM385.249 0.788748H404.591C408.665 0.788748 411.73 1.78936 413.785 3.79059C414.85 4.90691 415.674 6.23105 416.204 7.68019C416.734 9.12934 416.96 10.6723 416.867 12.2126C416.867 17.3141 414.741 20.7145 410.49 22.4137L417.93 37.2394H409.578L403.148 23.6379H392.947V37.2394H385.245L385.249 0.788748ZM403.896 17.2003C404.591 17.2472 405.287 17.1537 405.945 16.9254C406.602 16.6971 407.207 16.3386 407.722 15.8714C408.181 15.3813 408.535 14.803 408.764 14.1717C408.992 13.5404 409.09 12.8693 409.051 12.199C409.093 11.5374 408.996 10.8744 408.767 10.2522C408.538 9.62996 408.183 9.06222 407.722 8.58512C406.665 7.67268 405.29 7.21423 403.896 7.3093H392.95V17.2003H403.896ZM437.587 37.8746C434.97 37.9058 432.369 37.4649 429.909 36.5729C427.744 35.8135 425.825 34.4819 424.356 32.7196C422.958 30.9742 422.224 28.7905 422.283 26.5554L422.336 25.3857H430.147L430.094 26.2358C430.083 26.9831 430.269 27.72 430.633 28.3729C430.997 29.0257 431.526 29.5716 432.167 29.9558C433.921 30.9728 435.935 31.4532 437.96 31.3377C439.912 31.4732 441.867 31.1168 443.645 30.3012C444.167 30.0446 444.608 29.6478 444.918 29.1552C445.227 28.6625 445.394 28.0934 445.398 27.5116C445.408 27.0246 445.31 26.5416 445.113 26.0963C444.915 25.651 444.623 25.2543 444.256 24.9341C443.419 24.1994 442.443 23.6394 441.386 23.287C440.234 22.8798 438.648 22.3929 436.625 21.8262C434.263 21.1819 431.94 20.4003 429.668 19.4853C427.907 18.7488 426.342 17.6115 425.098 16.1639C423.766 14.5261 423.085 12.4541 423.186 10.3451C423.12 8.83344 423.46 7.33161 424.17 5.99541C424.88 4.65921 425.934 3.5373 427.224 2.746C430.478 0.86559 434.205 -0.0381835 437.958 0.142677C441.595 -0.0139582 445.195 0.92062 448.296 2.82625C449.609 3.70118 450.67 4.90469 451.374 6.31709C452.078 7.72949 452.4 9.30156 452.308 10.877V11.5162H444.656V11.0375C444.665 10.3895 444.499 9.75097 444.176 9.18903C443.853 8.6271 443.385 8.16244 442.821 7.84384C441.309 6.99133 439.586 6.58569 437.852 6.67411C436.097 6.58316 434.343 6.89197 432.725 7.57725C432.214 7.77088 431.773 8.11145 431.456 8.55593C431.139 9.00041 430.961 9.52885 430.944 10.0745C430.947 10.4826 431.044 10.8845 431.229 11.2486C431.413 11.6127 431.679 11.9292 432.006 12.1732C432.8 12.8045 433.7 13.2903 434.663 13.6081C435.725 13.9799 437.231 14.4333 439.18 14.9683C441.607 15.5919 443.995 16.3641 446.327 17.2805C448.165 18.0268 449.81 19.1806 451.137 20.6551C452.532 22.2755 453.254 24.3679 453.157 26.5037C453.275 28.1781 452.952 29.8544 452.22 31.365C451.488 32.8755 450.373 34.1676 448.985 35.1121C446.204 36.9519 442.405 37.8718 437.587 37.8718V37.8746Z" fill="white"/>
</svg>
