<svg width="351" height="124" viewBox="0 0 351 124" fill="none" xmlns="http://www.w3.org/2000/svg">
<path d="M208.273 44.2035C205.114 50.0855 201.797 55.9624 198.59 61.6458L197.174 64.1581L185.851 83.9454L169.241 112.262C169.008 112.628 168.791 113.006 168.579 113.389C167.731 114.927 167.017 116.539 166.447 118.205C166.191 118.909 166.035 119.646 165.986 120.395C165.982 120.529 165.994 120.662 166.024 120.793C166.101 120.829 166.185 120.85 166.27 120.854C166.443 120.867 166.612 120.915 166.767 120.994C166.921 121.074 167.059 121.183 167.171 121.317C167.313 121.488 167.409 121.694 167.45 121.914C167.491 122.133 167.475 122.36 167.404 122.572C167.333 122.783 167.209 122.973 167.045 123.122C166.88 123.27 166.681 123.374 166.465 123.421C166.235 123.473 166 123.5 165.764 123.5C165.143 123.505 164.536 123.309 164.032 122.941C163.364 122.398 162.923 121.62 162.795 120.761C162.629 119.598 162.684 118.414 162.956 117.272C163.421 115.254 164.157 113.312 165.145 111.498C165.389 111.041 165.64 110.595 165.918 110.149L168.048 106.516L170.883 101.582L182.16 81.7899L201.324 48.2919C200.624 48.4617 199.915 48.587 199.199 48.667C198.369 48.766 197.532 48.783 196.698 48.7178C195.723 48.6518 194.769 48.3897 193.894 47.9468C193.343 47.6588 192.856 47.2582 192.464 46.7701C192.043 46.2432 191.753 45.6212 191.619 44.9567C191.411 43.8818 191.528 42.7683 191.956 41.7623C192.576 40.0883 193.64 38.621 195.03 37.5224C196.241 36.513 197.564 35.6503 198.972 34.9517C201.662 33.6189 204.498 32.6104 207.419 31.9469C207.934 31.8259 208.475 31.9168 208.924 32.1995C209.373 32.4823 209.693 32.9341 209.815 33.4559C209.931 33.9671 209.847 34.5043 209.579 34.9532C209.311 35.402 208.882 35.727 208.381 35.8589L208.313 35.8772C205.704 36.4701 203.171 37.3686 200.766 38.5547C199.637 39.1101 198.576 39.7979 197.606 40.604C196.76 41.2523 196.106 42.124 195.714 43.1239C195.556 43.4288 195.49 43.7742 195.524 44.1171C195.565 44.2604 195.57 44.2772 195.781 44.3925C196.347 44.7041 197.517 44.8088 198.759 44.6614C199.987 44.5211 201.192 44.2175 202.342 43.7582C202.886 43.5457 203.411 43.2839 203.909 42.976C204.254 42.7747 204.56 42.5101 204.81 42.1959L204.97 41.9926C205.303 41.5784 205.784 41.3141 206.307 41.257C206.831 41.1999 207.356 41.3546 207.768 41.6876C208.13 41.9802 208.379 42.3925 208.471 42.8525C208.563 43.3124 208.493 43.7907 208.273 44.2035ZM160.608 47.8202C154.45 50.8271 149.666 52.8042 145.101 54.2283C139.11 56.0961 133.758 56.5541 129.178 55.5762C128.721 55.4883 128.27 55.375 127.826 55.2367L127.341 55.0994C127.15 55.0278 126.957 54.9591 126.765 54.8905C126.345 54.7416 125.925 54.5912 125.514 54.4006C124.474 54.0064 123.537 53.3756 122.775 52.5566C122.562 52.3049 122.436 51.9889 122.417 51.6575C122.417 51.2313 122.511 50.8106 122.694 50.4266C123.231 49.3057 123.933 48.2742 124.776 47.3673C127.751 44.0388 131.378 40.9923 134.886 38.0465C135.708 37.3547 136.529 36.6655 137.342 35.9728C141.428 32.5243 146.058 28.6158 150.433 24.627L150.594 24.4796C152.719 22.5239 154.727 20.6764 156.756 18.5945C157.817 17.5079 158.801 16.3471 159.701 15.1206C160.696 13.8178 161.468 12.3545 161.985 10.7918C162.268 9.88787 162.378 8.93717 162.308 7.99133C162.217 6.9507 161.848 5.955 161.24 5.11205C160.064 3.49935 158.473 2.7192 156.914 2.11031C154.077 1.0938 151.285 0.763433 147.959 0.574871C141.577 0.285674 135.294 0.889484 130.534 1.44297C125.092 2.09303 119.5 3.00026 113.442 4.21804C110.625 4.78576 107.784 5.41143 104.991 6.07877C104.081 6.29122 103.174 6.53619 102.266 6.7832C101.773 6.91738 101.28 7.05156 100.782 7.18015L98.669 7.74583L96.6 8.38217C84.5607 12.0416 73.0617 17.0804 64.3862 21.0626C55.4424 25.2115 46.5191 29.735 37.8886 34.108L32.7418 36.7123C27.9684 39.1011 23.0318 41.5712 18.0406 43.4853C15.4513 44.5004 12.8016 45.3492 10.1072 46.0266C8.78353 46.351 7.44414 46.6055 6.09446 46.7889C5.40947 46.8764 4.74752 46.9348 4.05954 46.9663C3.76812 46.9745 3.47369 46.9826 3.19479 46.9724L3.07312 46.9684C2.96847 46.9653 2.86432 46.9633 2.74064 46.9501C2.63599 46.944 2.49278 46.9267 2.41818 46.9165L2.24443 46.8962C1.74037 46.8396 1.23401 46.9801 0.828365 47.289C0.422716 47.598 0.148246 48.0522 0.0607898 48.5592C0.0174256 48.8204 0.0252489 49.0876 0.0838102 49.3457C0.142372 49.6038 0.250521 49.8476 0.402062 50.0632C0.553604 50.2787 0.745557 50.4619 0.966931 50.602C1.1883 50.7422 1.43474 50.8366 1.69213 50.8799C1.94071 50.923 2.19146 50.952 2.44321 50.9668C2.62397 50.9841 2.79372 50.9882 2.96246 50.9932L3.08414 50.9963C3.49473 51.0065 3.88779 50.9963 4.29838 50.979C5.02843 50.9429 5.78201 50.8723 6.60169 50.762C8.09278 50.5504 9.57231 50.262 11.0346 49.8979C13.8886 49.1642 16.6945 48.2495 19.4356 47.159C24.593 45.1458 29.5417 42.633 34.3285 40.2025L50.4883 31.9301C55.9897 29.1672 61.0359 26.7144 65.9104 24.4323C74.4727 20.4827 85.8145 15.4871 97.636 11.8698L99.6539 11.2447L101.707 10.6912C102.197 10.5621 102.687 10.4301 103.175 10.2952C104.05 10.0553 104.924 9.81647 105.814 9.60758C108.568 8.94329 111.367 8.32117 114.138 7.75802C120.097 6.54837 125.595 5.6442 130.946 4.99516C137.809 4.18195 143.004 3.90953 147.788 4.11486C150.112 4.23481 153.113 4.49301 155.709 5.42363C157.021 5.91562 157.957 6.52145 158.422 7.18676C158.899 7.82869 158.978 8.70287 158.659 9.77885C158.252 10.9636 157.658 12.0732 156.9 13.0642C156.095 14.1617 155.216 15.2006 154.268 16.1732C152.303 18.1996 150.079 20.2509 148.119 22.0593C144.446 25.429 140.316 28.9909 135.118 33.2638L134.016 34.1751C132.166 35.7044 130.311 37.2358 128.476 38.8063C126.19 40.6816 124.023 42.7017 121.988 44.8545C120.86 46.0405 119.917 47.3945 119.191 48.8697C118.754 49.7889 118.535 50.7996 118.554 51.8202C118.597 52.9531 118.987 54.0442 119.67 54.9414C120.882 56.5078 122.345 57.3032 123.862 58.0453C124.404 58.3075 124.966 58.518 125.51 58.7218L126.596 59.0938C127.164 59.2798 127.742 59.4356 128.326 59.5604C130.179 59.9908 132.076 60.1999 133.977 60.1835C135.087 60.1835 136.26 60.123 137.516 60.0041C140.495 59.6671 143.434 59.0373 146.293 58.1236C149.117 57.2286 151.86 56.0893 154.492 54.7182C157.127 53.3674 159.626 51.7582 161.953 49.9137C162.174 49.7386 162.33 49.4914 162.393 49.2138C162.456 48.9361 162.423 48.6448 162.299 48.3889C162.226 48.2381 162.124 48.1036 161.999 47.9931C161.874 47.8827 161.728 47.7986 161.571 47.7457C161.413 47.6928 161.247 47.6721 161.082 47.6849C160.917 47.6977 160.756 47.7437 160.608 47.8202H160.608ZM328.113 64.6318C329.607 66.3979 330.389 68.6707 330.305 70.9966C330.382 73.5512 329.49 76.0383 327.812 77.944C325.873 80.1071 323.086 81.2029 319.531 81.2029C316.213 81.2029 313.558 80.2443 311.638 78.3521C310.776 77.4224 310.103 76.3295 309.657 75.1357C309.211 73.9419 309.002 72.6707 309.04 71.3946C308.989 69.035 309.772 66.7348 311.248 64.9108C313.133 62.6084 315.939 61.4409 319.588 61.4409C323.389 61.4409 326.258 62.5149 328.113 64.6318ZM324.854 75.9816C325.895 74.5523 326.445 72.8154 326.42 71.0378C326.462 70.175 326.326 69.3127 326.022 68.5061C325.717 67.6995 325.25 66.9663 324.65 66.3532C323.476 65.1842 321.829 64.588 319.758 64.588C317.954 64.5121 316.191 65.1417 314.832 66.3471C313.585 67.5044 312.953 69.2574 312.953 71.5577C312.906 73.2577 313.486 74.9143 314.578 76.2037C315.64 77.4327 317.42 78.0558 319.87 78.0558C322.205 78.0558 323.835 77.3783 324.853 75.9816H324.854ZM220.073 69.2594H210.387V61.9218H206.542V80.6819H210.387V72.3826H220.073V80.684H223.916V61.9218H220.073V69.2594ZM86.9241 59.4247C87.065 59.6482 87.161 59.8978 87.2065 60.1591C87.2521 60.4203 87.2463 60.6882 87.1895 60.9472C87.1328 61.2062 87.0261 61.4513 86.8757 61.6684C86.7253 61.8854 86.5342 62.0701 86.3132 62.212C86.2572 62.2475 86.2026 62.2785 86.1485 62.307C85.3474 62.7182 84.4651 63.2122 83.5077 63.785C82.6319 64.306 81.7782 64.8564 80.9686 65.4201C80.1553 65.9758 79.3758 66.5807 78.6342 67.2315C77.9406 67.8147 77.328 68.4906 76.8131 69.2406C76.6861 69.4482 76.5091 69.6195 76.2989 69.7386C76.0887 69.8576 75.8521 69.9204 75.6114 69.9212C75.375 69.9209 75.1427 69.8594 74.9364 69.7423C74.7301 69.6253 74.5567 69.4566 74.4328 69.2524C74.3088 69.0481 74.2383 68.8151 74.228 68.5754C74.2178 68.3358 74.268 68.0975 74.3741 67.8831C74.9377 66.8248 75.647 65.8534 76.4806 64.9982C77.2434 64.185 78.0539 63.4191 78.9076 62.705C79.7132 62.0173 80.577 61.3362 81.4708 60.6765C82.4862 59.9294 83.3169 59.3551 84.1616 58.8087C84.6095 58.5205 85.1515 58.4238 85.6693 58.5398C85.9257 58.596 86.1686 58.7031 86.384 58.8551C86.5993 59.0071 86.7829 59.2003 86.9241 59.4247ZM171.087 50.8281H171.11C172.559 50.7998 173.976 50.3866 175.22 49.6296C176.357 48.9393 177.366 48.053 178.202 47.0106C179.791 45.0682 180.832 42.7251 181.214 40.2304C181.245 40.0293 181.216 39.8234 181.132 39.6387C181.047 39.4541 180.911 39.299 180.739 39.1931C180.507 39.0506 180.228 39.0072 179.964 39.0725C179.7 39.1378 179.472 39.3065 179.329 39.5418L178.737 40.5278C177.886 42.0662 176.887 43.5155 175.755 44.8545C174.373 46.3829 172.663 47.2347 171.182 47.1519C170.572 47.1544 169.986 46.9115 169.552 46.4764C169.513 46.4397 169.483 46.3945 169.464 46.3442C169.444 46.2939 169.437 46.2399 169.441 46.1862C169.446 46.144 169.462 46.0845 169.476 46.024C169.489 45.9705 169.501 45.918 169.512 45.8665C169.54 45.807 169.562 45.7486 169.585 45.6881C169.611 45.6123 169.649 45.5413 169.697 45.4777C170.373 44.2894 172.488 43.3547 174.181 42.8911C174.684 42.7573 175.114 42.4262 175.376 41.9706C175.638 41.515 175.712 40.9724 175.58 40.4619C175.448 39.9515 175.122 39.5152 174.673 39.2489C174.224 38.9827 173.689 38.9083 173.187 39.0421C171.904 39.3519 170.671 39.8404 169.52 40.4937C168.202 41.1759 167.098 42.2189 166.333 43.5046C166.159 43.7943 166.02 44.1044 165.92 44.4281L165.761 44.9654C165.672 45.33 165.62 45.703 165.607 46.0784C165.594 47.1303 165.969 48.149 166.659 48.9343C167.221 49.5526 167.907 50.0416 168.671 50.3682C169.435 50.6949 170.258 50.8517 171.087 50.8281H171.087ZM291.177 65.047H298.182V80.684H302.026V65.047H309.032V61.9218H291.178L291.177 65.047ZM346.348 61.9218V75.2233L336.734 61.9218H332.663V80.6819H336.347V67.3804L346.118 80.684H350.033V61.9218H346.348ZM292.584 13.2106C294.314 12.1805 296.187 11.419 298.139 10.9514C298.35 10.9066 298.538 10.7872 298.669 10.6145C298.801 10.4419 298.868 10.2272 298.858 10.0091C298.853 9.88831 298.824 9.76982 298.773 9.6605C298.722 9.55118 298.651 9.45323 298.562 9.3724C298.473 9.29158 298.37 9.22948 298.257 9.18975C298.145 9.15002 298.026 9.13344 297.907 9.14098C295.668 9.32913 293.481 9.93204 291.456 10.9199C289.484 11.8293 287.571 12.8661 285.729 14.0238C282.017 16.3313 278.543 18.8624 275.183 21.3091C273.709 22.3816 272.247 23.4692 270.788 24.5548C268.885 25.9713 266.92 27.4362 264.97 28.8242C263.433 29.9119 261.618 31.1779 259.813 32.3205C258.851 32.9339 257.858 33.4951 256.837 34.0018L256.511 26.3968C256.501 26.1517 256.443 25.9111 256.341 25.689C256.238 25.4669 256.093 25.2677 255.914 25.1032C255.551 24.7698 255.074 24.5943 254.585 24.6143C254.097 24.6353 253.638 24.8517 253.307 25.216C252.977 25.5804 252.802 26.0629 252.821 26.5579L253.263 36.8409C253.271 36.9897 253.297 37.1369 253.339 37.2795C253.454 37.6526 253.683 37.9788 253.993 38.2106C254.303 38.4424 254.678 38.5676 255.063 38.5679C255.238 38.568 255.413 38.5414 255.581 38.4892C257.766 37.7809 259.844 36.7696 261.756 35.4838C263.362 34.48 265.009 33.3431 267.09 31.7995C270.37 29.371 273.607 26.8349 276.738 24.379L277.196 24.0202C281.209 20.8832 284.331 18.5686 287.326 16.5132C288.87 15.4413 290.592 14.3598 292.584 13.2106ZM282.75 61.9218H278.935V80.6819H293.182V77.5607H282.75V61.9218ZM271.519 80.6819H275.362V61.9218H271.519V80.6819ZM237.61 62.2272L245.454 80.6819H241.275L239.107 75.3666H231.614L229.36 80.684H225.376L233.649 61.9218H237.481L237.61 62.2272ZM235.432 66.3624L232.869 72.3989H237.896L235.432 66.3624ZM227.1 38.6589C226.319 38.2933 225.604 37.7975 224.985 37.1921C224.879 37.0833 224.776 36.97 224.677 36.8515C223.206 37.135 221.719 37.3291 220.226 37.433C220.043 37.4476 219.858 37.425 219.684 37.3664C219.51 37.3079 219.349 37.2147 219.21 37.0922C219.072 36.9697 218.959 36.8204 218.878 36.6531C218.797 36.4858 218.75 36.3037 218.739 36.1176C218.718 35.7495 218.839 35.3876 219.076 35.1082C219.313 34.8288 219.648 34.6537 220.01 34.6198C221.216 34.5121 222.367 34.3657 223.477 34.172C223.391 33.2972 223.544 32.4152 223.919 31.6226C224.31 30.8091 224.859 30.0842 225.533 29.4915C226.732 28.4749 228.105 27.6891 229.583 27.1729C230.972 26.6515 232.411 26.2791 233.877 26.0618C234.641 25.9456 235.413 25.8946 236.185 25.9093C236.627 25.919 237.067 25.9722 237.499 26.0684L237.676 26.1193C238.313 26.2585 238.877 26.6306 239.262 27.1647C239.578 27.6394 239.698 28.2211 239.596 28.7846C239.53 29.1306 239.402 29.4614 239.218 29.7604C238.963 30.1655 238.658 30.5352 238.309 30.8603C237.746 31.3925 237.134 31.8702 236.483 32.2869C234.078 33.8874 231.446 35.1044 228.677 35.8955C230.456 36.6416 232.774 36.9121 235.74 36.7088C238.36 36.511 240.956 36.0696 243.497 35.3903C244.735 35.0486 245.942 34.5962 247.102 34.0384C247.666 33.7669 248.211 33.4578 248.734 33.1128C249.206 32.8118 249.645 32.4599 250.043 32.0633L250.122 31.9764C250.363 31.7173 250.695 31.5653 251.046 31.5532C251.397 31.5411 251.738 31.67 251.996 31.9118C252.245 32.1457 252.395 32.4685 252.415 32.8124C252.434 33.1562 252.322 33.4944 252.101 33.7558C251.064 34.937 249.815 35.9075 248.421 36.6157C247.128 37.3101 245.778 37.8871 244.385 38.3402C241.648 39.2022 238.822 39.7385 235.963 39.9382C235.359 39.9692 234.731 39.9916 234.088 39.9916C231.695 40.0591 229.316 39.605 227.112 38.6599L227.1 38.6589ZM234.314 29.061C233.066 29.2561 231.84 29.5838 230.659 30.0389C229.541 30.426 228.503 31.0185 227.597 31.7868C227.065 32.2174 226.699 32.8234 226.561 33.4996C229.506 32.7683 232.305 31.5295 234.836 29.8371C235.26 29.5623 235.663 29.2565 236.042 28.9223C236.012 28.9223 235.982 28.9223 235.952 28.9223C235.403 28.9276 234.856 28.974 234.314 29.061ZM257.177 76.0817L251.539 61.9218H246.668V80.6819H250.355V69.7021C250.355 69.3121 250.343 68.7179 250.318 67.9196L255.425 80.6835H258.891L263.961 67.8932C263.942 68.7359 263.932 69.3387 263.932 69.7016V80.6835H267.619V61.9218H262.776L257.177 76.0817Z" fill="white"/>
</svg>
