<svg width="468" height="108" viewBox="0 0 468 108" fill="none" xmlns="http://www.w3.org/2000/svg">
<path fill-rule="evenodd" clip-rule="evenodd" d="M89.6992 0.333679L47.8049 54.1591L47.8015 54.267L89.6958 107.666H99.5033L88.446 93.3003C91.9351 90.2207 94.4218 86.7903 97.3257 82.164L91.5867 78.8487C90.7005 80.2472 89.7413 81.5981 88.7133 82.8959C87.3337 84.6388 85.8276 86.2758 84.2078 87.7939L58.4027 54.267L84.2906 20.2991C85.8136 21.7332 87.2356 23.273 88.5458 24.9076C89.5808 26.1996 90.5471 27.5452 91.4406 28.9389L97.192 25.6214C94.2985 21.0612 91.9237 17.7177 88.5481 14.7127L99.5067 0.333679H89.6992ZM60.071 99.5407C58.4291 99.7766 56.7756 99.9222 55.1178 99.9769V106.594C62.8648 106.339 70.4536 104.334 77.315 100.728L74.0178 95.0147C72.5579 95.7792 71.0567 96.4619 69.521 97.0596C66.4756 98.2434 63.3051 99.0759 60.071 99.5407ZM32.0234 95.0147L28.7261 100.728C35.5875 104.334 43.1764 106.339 50.9234 106.594V99.9769C49.2656 99.9222 47.612 99.7766 45.9702 99.5407C42.7361 99.0759 39.5656 98.2434 36.5202 97.0596C34.9845 96.4619 33.4833 95.7792 32.0234 95.0147ZM14.4488 78.8431L8.70982 82.1584C12.8307 88.7252 18.3517 94.3003 24.878 98.4851L28.182 92.7596C26.8004 91.8616 25.4674 90.8908 24.1889 89.8513C21.6537 87.7876 19.3512 85.4534 17.3223 82.8902C16.2942 81.5925 15.3351 80.2416 14.4488 78.8431ZM7.28996 56.0984H0.679688C0.969813 63.8359 2.95868 71.4149 6.50527 78.2979L12.2387 74.9849C11.4902 73.5227 10.8204 72.0217 10.232 70.4881C9.06576 67.4399 8.23642 64.2734 7.75875 61.0449C7.51575 59.4054 7.35927 57.7543 7.28996 56.0984ZM99.8102 54.1277C99.8102 54.8134 99.7945 55.5082 99.7641 56.1939H106.085C106.115 55.4801 106.129 54.7572 106.129 54.0467C106.129 53.298 106.114 52.5369 106.081 51.7871H99.7518C99.79 52.5628 99.8102 53.3497 99.8102 54.1277ZM6.62444 29.4797C3.04446 36.3444 1.01837 43.9125 0.689805 51.6477H7.30233C7.38108 49.9954 7.54694 48.3484 7.79922 46.7136C8.29869 43.4899 9.14913 40.3305 10.3354 37.2917C10.9335 35.7576 11.6132 34.2565 12.3713 32.7949L6.62444 29.4797ZM25.104 9.36891C18.5533 13.523 13.0021 19.0741 8.8481 25.6248L14.5961 28.9434C15.4896 27.5497 16.4559 26.2041 17.4909 24.912C19.5354 22.3614 21.8522 20.0415 24.4002 17.9937C25.6873 16.9594 27.0285 15.9942 28.4181 15.1023L25.104 9.36891ZM69.3288 10.8843C70.8443 11.4662 72.3267 12.1309 73.7693 12.8753V12.8854L77.0778 7.15199C70.2777 3.62281 62.7739 1.66034 55.1167 1.40847V8.04123C56.7502 8.09523 58.3797 8.23746 59.9979 8.4673C63.189 8.9204 66.319 9.73118 69.3288 10.8843ZM50.9234 1.40847C43.2669 1.6572 35.7632 3.61621 28.9622 7.14187L32.2696 12.8753C33.7115 12.131 35.1932 11.4663 36.7079 10.8843C39.7177 9.73119 42.8477 8.92041 46.0388 8.4673C47.6581 8.23734 49.2887 8.0951 50.9234 8.04123V1.40847ZM37.4596 90.8498C33.7824 88.5935 33.6452 86.1798 33.6452 83.5177V53.432V24.9134C33.6452 20.6898 32.0342 19.551 32.0342 19.551C34.0943 20.1985 36.0531 21.1325 37.8531 22.3255C41.5303 24.5817 41.6675 26.9954 41.6675 29.6541V59.7432V88.2619C41.6675 92.4866 43.2784 93.6243 43.2784 93.6243C41.2184 92.9767 39.2596 92.0428 37.4596 90.8498ZM153.534 53.8599H159.908L148.452 38.2324L158.901 23.7044H152.576L141.944 38.4618V23.7044H136.803V54.5479L145.327 42.6775L153.534 53.8599ZM185.023 48.7268V53.8599L165.958 53.8587V23.7033H185.023V28.8825H171.137V36.1695H181.586V41.3487H171.137V48.7268H185.023ZM215.826 23.7044V54.5479L197.214 35.9402V53.8599H192.081V23.2458L210.688 41.8535V23.7044H215.826ZM244.836 28.8836V23.7044H221.6V28.8836H230.628V53.861H235.761V28.8836H244.836ZM272.495 54.1341C274.781 54.1423 277.039 53.625 279.094 52.6221C281.147 51.6332 282.949 50.1914 284.364 48.4052L280.332 45.1968C279.377 46.3698 278.181 47.3234 276.825 47.9926C275.48 48.6626 273.997 49.0091 272.495 49.0044C270.718 49.0116 268.974 48.5281 267.454 47.6071C265.917 46.6974 264.645 45.4018 263.764 43.8489C262.869 42.2951 262.404 40.5313 262.415 38.7383C262.404 36.9456 262.869 35.1822 263.764 33.6288C264.638 32.084 265.902 30.796 267.43 29.8942C268.959 28.982 270.709 28.5064 272.489 28.5193C273.888 28.518 275.271 28.815 276.545 29.3906C277.842 29.9697 279.005 30.8119 279.959 31.8638L283.766 28.4193C282.354 26.818 280.611 25.5436 278.657 24.6847C276.717 23.8204 274.616 23.3753 272.493 23.3784C269.809 23.3606 267.171 24.0737 264.862 25.4413C262.554 26.786 260.641 28.7145 259.316 31.033C257.96 33.3711 257.256 36.0299 257.277 38.7326C257.256 41.4353 257.96 44.0942 259.316 46.4323C260.645 48.754 262.556 50.689 264.862 52.0465C267.166 53.429 269.807 54.1512 272.495 54.1341ZM309.481 53.8587V48.7256H295.594V23.7033H290.414V53.8587H309.481ZM327.356 54.1341C330.039 54.152 332.677 53.4388 334.987 52.0712C337.297 50.723 339.216 48.7957 340.555 46.4795C341.924 44.1461 342.637 41.4854 342.617 38.7799C342.637 36.0743 341.924 33.4137 340.555 31.0802C339.215 28.7666 337.295 26.8421 334.984 25.4964C332.675 24.1288 330.037 23.4156 327.353 23.4335C324.67 23.4156 322.032 24.1288 319.722 25.4964C317.412 26.8442 315.493 28.7711 314.154 31.087C312.785 33.4204 312.072 36.081 312.092 38.7866C312.072 41.4922 312.785 44.1528 314.154 46.4862C315.493 48.8025 317.412 50.7297 319.722 52.078C322.032 53.4432 324.67 54.154 327.353 54.1341H327.356ZM327.356 28.5609C329.136 28.548 330.886 29.0235 332.414 29.9358C333.938 30.8327 335.202 32.1114 336.081 33.6456C336.981 35.2052 337.447 36.9778 337.43 38.7787C337.447 40.5796 336.981 42.3522 336.081 43.9118C335.202 45.4461 333.938 46.7247 332.414 47.6217C330.886 48.534 329.136 49.0095 327.356 48.9966C325.575 49.0095 323.826 48.534 322.297 47.6217C320.768 46.7198 319.504 45.4319 318.631 43.8871C317.736 42.3337 317.27 40.5703 317.282 38.7776C317.27 36.985 317.736 35.2215 318.631 33.6681C319.504 32.1233 320.768 30.8354 322.297 29.9336C323.825 29.0228 325.574 28.5485 327.353 28.562L327.356 28.5609ZM368.556 23.7033V28.8824H359.482V53.8598H354.349V28.8824H345.318V23.7033H368.556ZM392.342 53.8587H397.521L397.475 23.7033H392.342V36.1684H379.736V23.7033H374.601V53.8587H379.734V41.3475H392.338L392.342 53.8587ZM411.229 53.8587V23.7033H406.049V53.8587H411.229ZM438.771 53.8587V48.7256H424.879V41.3475H435.328V36.1684H424.879V28.8813H438.765V23.7021H419.699V53.8576L438.771 53.8587ZM461.09 53.8587L450.962 40.5685V53.8587H445.829L445.783 23.7033H456.828C458.242 23.6942 459.646 23.9347 460.975 24.4137C462.236 24.8644 463.395 25.5572 464.39 26.453C465.339 27.2691 466.105 28.2762 466.638 29.4086C467.153 30.5055 467.419 31.703 467.417 32.9149C467.417 34.7786 466.787 36.5876 465.63 38.048C464.632 39.3314 463.3 40.3148 461.78 40.89C461.162 41.1237 460.526 41.3075 459.878 41.4397C459.359 41.5639 458.83 41.6392 458.298 41.6645L467.463 53.8553L461.09 53.8587ZM450.962 28.8813V36.9935H455.459C456.93 37.0537 458.398 36.8039 459.767 36.2605C460.452 35.9754 461.052 35.5176 461.508 34.9317C461.981 34.3657 462.24 33.6522 462.241 32.9149C462.236 32.4049 462.118 31.9024 461.896 31.4431C461.674 30.9838 461.354 30.5789 460.958 30.2573C459.809 29.2908 458.334 28.7991 456.834 28.8824L450.962 28.8813ZM135.745 69.432C135.745 69.1701 135.833 69.0824 136.095 69.0824H148.294C148.578 69.0824 148.622 69.1701 148.622 69.432V70.3066C148.622 70.5686 148.556 70.6562 148.294 70.6562H143.047V84.0342C143.047 84.2961 142.981 84.3838 142.719 84.3838H141.67C141.386 84.3838 141.32 84.2961 141.32 84.0342V70.6562H136.095C135.811 70.6562 135.745 70.5686 135.745 70.3066V69.432ZM162.876 75.9467H171.489V69.4264C171.489 69.1644 171.556 69.0767 171.818 69.0767H172.866C173.128 69.0767 173.216 69.1644 173.216 69.4264V84.0297C173.216 84.2916 173.128 84.3793 172.866 84.3793H171.818C171.554 84.3793 171.489 84.2916 171.489 84.0297V77.4711H162.876V84.0297C162.876 84.2916 162.809 84.3793 162.547 84.3793H161.499C161.237 84.3793 161.149 84.2916 161.149 84.0297V69.4264C161.149 69.1644 161.237 69.0767 161.499 69.0767H162.547C162.81 69.0767 162.876 69.1644 162.876 69.4264V75.9467ZM198.029 84.0353C198.029 84.2972 197.963 84.3849 197.701 84.3849L187.973 84.3838C187.711 84.3838 187.624 84.2961 187.624 84.0342V69.4309C187.624 69.1689 187.711 69.0812 187.973 69.0812H197.702C197.943 69.0812 198.03 69.1689 198.03 69.4309V70.2403C198.03 70.5022 197.943 70.5899 197.702 70.5899H189.35V75.9017H197.308C197.569 75.9017 197.657 75.9894 197.657 76.2514V77.0608C197.657 77.3227 197.569 77.4104 197.308 77.4104H189.35V82.8763H197.701C197.964 82.8763 198.029 82.9639 198.029 83.2259V84.0353ZM225.247 69.432C225.247 69.1701 225.335 69.0824 225.597 69.0824H237.792C238.077 69.0824 238.12 69.1701 238.12 69.432V70.3066C238.12 70.5686 238.054 70.6562 237.792 70.6562H232.545V84.0342C232.545 84.2961 232.479 84.3838 232.217 84.3838H231.168C230.884 84.3838 230.819 84.2961 230.819 84.0342V70.6562H225.597C225.312 70.6562 225.247 70.5686 225.247 70.3066V69.432ZM251 84.3838C250.738 84.3838 250.651 84.2961 250.651 84.0342V69.4309C250.651 69.1689 250.738 69.0812 251 69.0812H252.049C252.312 69.0812 252.377 69.1689 252.377 69.4309V84.0342C252.377 84.2961 252.311 84.3838 252.049 84.3838H251ZM283.312 84.0342L282.044 72.6438L276.096 84.3197C275.987 84.5378 275.878 84.6693 275.702 84.6693H275.527C275.357 84.6693 275.269 84.5443 275.123 84.3358L275.112 84.3197L269.21 72.6674L267.921 84.0353C267.877 84.2972 267.833 84.3849 267.571 84.3849H266.5C266.259 84.3849 266.15 84.2759 266.194 84.0353L268.025 68.9947C268.047 68.8418 268.069 68.7979 268.222 68.7979H268.353C268.44 68.7979 268.503 68.8193 268.615 68.9947L275.611 82.2208L282.607 68.9947C282.716 68.8193 282.781 68.7979 282.869 68.7979H283.01C283.162 68.7979 283.185 68.8418 283.206 68.9947L285.04 84.0342C285.061 84.2714 284.974 84.3838 284.712 84.3838H283.64C283.4 84.3838 283.333 84.2961 283.312 84.0342ZM309.065 84.0353C309.065 84.2972 308.999 84.3849 308.737 84.3849L299.008 84.3838C298.746 84.3838 298.658 84.2961 298.658 84.0342V69.4309C298.658 69.1689 298.746 69.0812 299.008 69.0812H308.737C308.977 69.0812 309.065 69.1689 309.065 69.4309V70.2403C309.065 70.5022 308.977 70.5899 308.737 70.5899H300.385V75.9017H308.342C308.604 75.9017 308.692 75.9894 308.692 76.2514V77.0608C308.692 77.3227 308.604 77.4104 308.342 77.4104H300.385V82.8763H308.737C309 82.8763 309.065 82.9639 309.065 83.2259V84.0353ZM338.665 84.3849C338.403 84.3849 338.315 84.2972 338.315 84.0353V69.432C338.315 69.1701 338.403 69.0824 338.665 69.0824H339.714C339.977 69.0824 340.042 69.1701 340.042 69.432V84.0353C340.042 84.2972 339.976 84.3849 339.714 84.3849H338.665ZM363.893 71.8142C362.616 70.9009 361.091 70.3978 359.521 70.3718C356.198 70.3718 355.476 72.2301 355.473 73.3768C355.473 75.1688 357.507 75.6286 359.911 75.9343C362.732 76.3053 365.137 77.1799 365.137 80.1096C365.137 82.4479 363.322 84.6345 359.562 84.6345C357.465 84.7098 355.399 84.1195 353.659 82.9482C353.439 82.8167 353.439 82.7076 353.571 82.467L353.987 81.7678C354.14 81.5238 354.227 81.4834 354.489 81.6363C355.93 82.5869 357.617 83.095 359.342 83.0977C361.354 83.0977 363.453 82.4412 363.453 80.1681C363.453 78.3536 361.812 77.7634 358.949 77.3699C356.567 77.0417 353.79 76.3199 353.79 73.4128C353.79 71.7298 355.057 68.844 359.299 68.844C361.218 68.8422 363.093 69.4215 364.677 70.5056C364.921 70.6371 364.877 70.7687 364.789 70.9867L364.374 71.6613C364.243 71.9018 364.111 71.9895 363.893 71.8142ZM406.081 84.4951L395.92 72.274L395.916 84.0364C395.916 84.2984 395.828 84.386 395.566 84.386H394.539C394.277 84.386 394.189 84.2984 394.189 84.0364V68.9722C394.189 68.8182 394.233 68.7968 394.386 68.7968H394.498C394.555 68.7946 394.611 68.8076 394.661 68.8345C394.711 68.8614 394.753 68.9012 394.783 68.9497L404.97 81.1045V69.4309C404.97 69.1464 405.058 69.0812 405.32 69.0812H406.369C406.632 69.0812 406.697 69.1464 406.697 69.4309V84.4951C406.697 84.6491 406.653 84.6705 406.522 84.6705H406.409C406.345 84.6664 406.283 84.6486 406.226 84.6183C406.169 84.5881 406.12 84.5461 406.081 84.4951ZM422.356 82.3136C420.89 80.8271 420.071 78.8214 420.077 76.7336C420.071 74.6459 420.89 72.6402 422.356 71.1537C423.822 69.6672 425.816 68.8205 427.904 68.7979C429.992 68.8205 431.986 69.6672 433.452 71.1537C434.918 72.6402 435.737 74.6459 435.731 76.7336C435.737 78.8214 434.918 80.8271 433.452 82.3136C431.986 83.8 429.992 84.6468 427.904 84.6693C425.816 84.6468 423.822 83.8 422.356 82.3136ZM423.573 72.3042C422.44 73.4992 421.814 75.0868 421.826 76.7336C421.817 78.3794 422.445 79.965 423.577 81.1592C424.71 82.3533 426.26 83.0636 427.904 83.1416C429.55 83.071 431.105 82.3631 432.239 81.1673C433.373 79.9715 433.998 78.3816 433.981 76.7336C434.002 75.0846 433.378 73.4926 432.243 72.2961C431.108 71.0995 429.552 70.3926 427.904 70.3257C426.259 70.4001 424.706 71.1093 423.573 72.3042ZM448.541 69.0767C448.781 69.0767 448.89 69.1644 448.978 69.4264L453.111 81.0843L456.784 69.1476C456.872 68.9104 456.937 68.7979 457.09 68.7979H457.308C457.461 68.7979 457.526 68.907 457.614 69.1476L461.287 81.0843L465.421 69.4264C465.508 69.1644 465.617 69.0767 465.858 69.0767H467.191C467.409 69.0767 467.457 69.1644 467.344 69.4264L461.681 84.4456L461.661 84.4913C461.587 84.6566 461.544 84.7514 461.441 84.7514H461.288C461.2 84.7514 461.135 84.6424 461.047 84.4456L457.199 72.0502L453.351 84.4456C453.263 84.639 453.198 84.7514 453.111 84.7514H452.958C452.87 84.7514 452.805 84.6637 452.717 84.4456L447.055 69.4264C446.946 69.1644 446.989 69.0767 447.207 69.0767H448.541Z" fill="white"/>
</svg>
