<svg width="295" height="72" viewBox="0 0 295 72" fill="none" xmlns="http://www.w3.org/2000/svg">
<path d="M16.1542 32.2949C20.1976 32.2949 24.073 30.7518 27.1361 27.6349L25.1969 25.6548C22.7904 28.1147 19.3822 29.4378 16.1542 29.4378C7.75599 29.4378 3.49579 23.7664 3.49579 16.5548C3.49579 9.73749 7.75599 3.40906 16.1542 3.40906C19.3853 3.40906 22.5308 4.64052 24.977 7.10039L26.8307 5.215C24.2074 2.04315 20.164 0.594728 16.1542 0.594728C5.6946 0.582505 0.441879 8.19434 0.484634 16.5946C0.527389 25.1628 5.7343 32.2949 16.1542 32.2949Z" fill="white"/>
<path d="M49.6068 32.3774C59.8068 32.3774 64.806 24.5486 64.8488 16.4998C64.8916 8.27379 59.816 0.539725 49.6068 0.5C39.8342 0.5 34.3219 7.79709 34.3219 16.4601C34.3219 24.5486 39.3548 32.3774 49.6068 32.3774ZM49.6068 3.39684C57.8279 3.43962 61.8285 9.59998 61.8285 16.4998C61.7857 23.0972 57.8279 29.4684 49.6068 29.4684C41.3856 29.4684 37.4278 23.2255 37.3331 16.4998C37.2506 9.24551 41.5108 3.39684 49.6068 3.39684Z" fill="white"/>
<path d="M97.7699 31.8029H99.5717V1.0317H96.5606V15.8031L96.7377 26.0093L77.2355 1.0317H75.339V31.8029H78.3593V16.1576L78.2677 7.04538L97.7699 31.8029Z" fill="white"/>
<path d="M122.18 29.3431C118.524 29.3431 114.304 27.9772 112.242 24.0261L109.616 25.4745C111.94 30.3943 117.107 32.2919 122.18 32.2919C127.649 32.2919 134.191 30.4065 134.234 23.4516C134.234 16.894 128.211 15.5403 122.262 14.4769C117.575 13.6427 113.699 12.674 113.699 9.06522C113.699 4.53968 118.482 3.43656 122.18 3.43656C125.368 3.47934 129.066 4.44801 130.825 7.34485L133.366 5.89643C130.7 1.67646 126.263 0.530557 122.137 0.530557C117.052 0.530557 110.606 2.59318 110.688 9.05911C110.688 15.0422 116.283 16.3134 121.972 17.3249C126.66 18.1591 131.222 19.2103 131.183 23.3905C131.174 28.3316 125.881 29.3431 122.183 29.3431H122.18Z" fill="white"/>
<path d="M167.332 25.6548C164.925 28.1147 161.517 29.4378 158.289 29.4378C149.891 29.4378 145.631 23.7664 145.631 16.5548C145.631 9.73749 149.891 3.40906 158.289 3.40906C161.52 3.40906 164.666 4.64052 167.112 7.10039L168.966 5.215C166.339 2.0462 162.299 0.597784 158.286 0.597784C147.827 0.597784 142.577 8.20656 142.617 16.5976C142.659 25.1781 147.866 32.298 158.286 32.298C162.33 32.298 166.205 30.7548 169.268 27.638L167.329 25.6579L167.332 25.6548Z" fill="white"/>
<path d="M182.134 1.0317H179.123V31.8152H182.134V1.0317Z" fill="white"/>
<path d="M223.16 16.4998C223.203 8.27379 218.128 0.539725 207.918 0.5C198.146 0.5 192.633 7.79709 192.633 16.4601C192.633 24.5486 197.666 32.3774 207.918 32.3774C218.17 32.3774 223.118 24.5486 223.16 16.4998ZM207.918 29.4775C199.697 29.4775 195.739 23.2347 195.645 16.509C195.562 9.25468 199.822 3.406 207.918 3.406C216.139 3.44878 220.14 9.60915 220.14 16.509C220.097 23.0972 216.139 29.4775 207.918 29.4775Z" fill="white"/>
<path d="M257.248 19.8061V1.0317H254.237V19.8061C254.237 26.2262 249.934 29.2606 245.371 29.2606C240.247 29.2606 236.329 25.6548 236.329 19.8061V1.0317H233.318V19.8061C233.318 28.1147 238.83 32.1177 245.371 32.1177C251.913 32.1177 257.248 28.1147 257.248 19.8061Z" fill="white"/>
<path d="M279.597 14.48C274.909 13.6458 271.033 12.6771 271.033 9.06828C271.033 4.54274 275.816 3.43962 279.514 3.43962C282.702 3.4824 286.401 4.45107 288.16 7.3479L290.701 5.89948C288.035 1.67646 283.597 0.530557 279.471 0.530557C274.387 0.530557 267.94 2.59318 268.022 9.05911C268.022 15.0422 273.617 16.3134 279.306 17.3249C283.994 18.1591 288.557 19.2103 288.517 23.3905C288.517 28.3102 283.225 29.3217 279.517 29.3217C275.81 29.3217 271.641 27.9558 269.58 24.0047L266.953 25.4531C269.277 30.3729 274.445 32.2705 279.517 32.2705C284.987 32.2705 291.528 30.3851 291.571 23.4302C291.562 16.894 285.539 15.5403 279.6 14.4769L279.597 14.48Z" fill="white"/>
<path d="M16.9666 68.4137C8.19576 68.4137 3.73705 62.7423 3.73705 55.5307C3.73705 48.7134 8.19576 42.385 16.9666 42.385C20.3412 42.385 23.6241 43.6164 26.1863 46.0763L28.1256 44.1909C25.3862 41.0221 21.1565 39.5737 16.9666 39.5737C6.03665 39.5706 0.548771 47.1794 0.588472 55.5705C0.631227 64.151 6.0794 71.2708 16.9666 71.2708C21.1962 71.2708 25.2488 69.7277 28.4371 66.6108L26.4154 64.6307C23.8928 67.0997 20.3412 68.4137 16.9666 68.4137Z" fill="white"/>
<path d="M52.6484 39.4881C42.9065 39.4881 37.4064 46.7852 37.4064 55.4482C37.4064 63.5368 42.427 71.3656 52.6484 71.3656C62.8699 71.3656 67.808 63.5368 67.8477 55.4879C67.8905 47.2619 62.8271 39.5278 52.6484 39.4881ZM52.6484 68.4565C44.4487 68.4565 40.5 62.2136 40.4175 55.4879C40.3351 48.2336 44.5861 42.385 52.6484 42.385C60.8482 42.4277 64.8366 48.5881 64.8366 55.4879C64.7938 62.0853 60.8451 68.4565 52.6484 68.4565Z" fill="white"/>
<path d="M266.895 39.4881C257.153 39.4881 251.653 46.7852 251.653 55.4482C251.653 63.5368 256.674 71.3656 266.895 71.3656C277.117 71.3656 282.055 63.5368 282.095 55.4879C282.137 47.2619 277.062 39.5278 266.895 39.4881ZM266.895 68.4565C258.696 68.4565 254.747 62.2136 254.664 55.4879C254.582 48.2336 258.833 42.385 266.895 42.385C275.095 42.4277 279.084 48.5881 279.084 55.4879C279.041 62.0853 275.092 68.4565 266.895 68.4565Z" fill="white"/>
<path d="M92.2149 40.0076H78.8265V70.7911H81.8163V60.5452H92.2149C105.603 60.5024 105.603 40.0107 92.2149 40.0107V40.0076ZM92.2149 57.6453H81.8163V42.9167H92.2149C101.581 42.9167 101.581 57.6453 92.2149 57.6453Z" fill="white"/>
<path d="M123.407 55.4054L113.375 40.0076H109.729V40.1023L121.835 58.3848V70.7911H124.98V58.3848L137.263 40.1023V40.0076H133.577L123.407 55.4054Z" fill="white"/>
<path d="M231.986 68.4137C223.215 68.4137 218.757 62.7423 218.757 55.5307C218.757 48.7134 223.215 42.385 231.986 42.385C235.361 42.385 238.644 43.6164 241.206 46.0763L243.145 44.1909C240.406 41.0221 236.176 39.5737 231.986 39.5737C221.056 39.5737 215.568 47.1825 215.608 55.5735C215.651 64.154 221.099 71.2739 231.986 71.2739C236.216 71.2739 240.268 69.7307 243.457 66.6139L241.435 64.6338C238.912 67.1028 235.361 68.4168 231.986 68.4168V68.4137Z" fill="white"/>
<path d="M188.343 54.0823H184.696C184.113 58.0548 183.145 61.0861 181.789 63.1823C180.039 61.1808 177.538 58.284 174.31 54.4979L174.353 54.3634C178.811 52.0594 181.053 49.2879 181.053 46.0549C181.053 44.0534 180.406 42.4491 179.114 41.2482C177.822 40.0473 176.206 39.5401 174.27 39.4453C173.427 39.4026 167.729 39.3934 165.612 43.5736C163.237 48.2642 166.895 51.6622 169.06 53.624L169.018 53.7584C165.048 56.041 163.059 59.0632 163.059 62.8584C163.059 65.2877 163.893 67.3198 165.548 68.9576C167.298 70.6474 169.622 71.5 172.517 71.5C175.935 71.5 178.903 70.3419 181.426 68.0378C182.937 69.6757 183.884 70.6841 184.29 71.0814H189.042L183.957 65.5872C186.052 63.0845 187.509 59.2496 188.343 54.0793V54.0823ZM170.245 43.5522C171.006 42.6569 172.068 42.2169 173.455 42.2169C174.725 42.2169 175.736 42.6019 176.475 43.375C177.214 44.1481 177.59 45.0954 177.59 46.2413C177.59 48.3681 175.651 50.4002 171.766 52.3405C170.004 50.3696 169.121 48.5056 169.121 46.7516C169.112 45.511 169.485 44.4476 170.245 43.5522ZM173.192 68.539C171.348 68.539 169.827 67.9462 168.639 66.7575C167.451 65.5688 166.858 64.0685 166.858 62.2533C166.858 59.7293 168.181 57.6239 170.829 55.9249C172.954 58.449 175.819 61.7094 179.413 65.7124C177.767 67.5978 175.693 68.5359 173.192 68.5359V68.539Z" fill="white"/>
<path d="M294.484 67.4023H292.389V71.3625H294.484V67.4023Z" fill="white"/>
</svg>
