<svg width="445" height="98" viewBox="0 0 445 98" fill="none" xmlns="http://www.w3.org/2000/svg">
<path d="M38.1528 0.60635C28.9138 0.60635 3.50548 0.508585 3.25083 0.508585L0.289062 0.5L0.432621 59.3903C1.94812 57.2462 3.96291 55.5066 6.30147 54.3229L6.18868 6.42677C12.5822 6.44907 27.7516 6.50224 35.9618 6.51082C42.6278 6.37205 49.2928 6.83132 55.8773 7.88316L55.9303 7.83685C53.6284 5.46152 50.8597 3.59235 47.8 2.34794C44.7402 1.10353 41.4562 0.51104 38.1563 0.608077" fill="white"/>
<path d="M69.5701 19.102C62.7151 11.7634 51.9585 11.8389 50.9843 11.8612H11.6627V52.002H40.5899C41.7999 52.0517 52.7241 52.2747 59.3688 44.6634C62.795 40.5153 64.5357 35.2224 64.243 29.8422C62.6757 27.3883 60.4361 25.4406 57.7931 24.2328C59.1039 31.5147 58.1554 37.071 54.9698 40.742C49.9896 46.48 40.9027 46.1078 40.8189 46.1009H17.5486V17.7657H51.1091C51.2031 17.7657 60.1208 17.5941 65.3043 23.1692C68.343 26.4423 69.5855 31.1871 68.9959 37.2768C68.8386 39.9918 68.1227 42.6447 66.8935 45.0682C65.6643 47.4918 63.9484 49.6336 61.8538 51.3587C51.8833 59.3834 34.9586 57.4004 34.7929 57.3781L34.6083 57.3558H18.4408C4.37709 57.3558 0.523204 69.1459 0.451425 75.4123V97.5H17.5418V68.0206C15.8196 68.3739 14.2801 69.3337 13.2013 70.7267C12.1225 72.1197 11.5756 73.854 11.6593 75.6164V91.5972H6.32883V75.4637C6.35446 74.2132 6.9099 63.2637 18.4357 63.2637H34.2511C36.413 63.5073 54.0759 65.1644 65.5094 55.9852C68.2319 53.7757 70.4678 51.023 72.0755 47.9013C73.6832 44.7796 74.6277 41.3569 74.8493 37.8498C75.6115 29.9794 73.8239 23.6736 69.5667 19.1071" fill="white"/>
<path d="M93.1719 28.6294H106.207C108.024 28.6294 109.742 28.7952 111.361 29.1269C112.98 29.4585 114.385 30.0389 115.574 30.868C116.797 31.664 117.755 32.7584 118.449 34.1514C119.176 35.5111 119.539 37.2357 119.539 39.3251C119.539 41.3813 119.209 43.1058 118.548 44.4988C117.887 45.8917 116.978 47.0027 115.822 47.8318C114.665 48.6609 113.294 49.2579 111.708 49.6227C110.122 49.9544 108.404 50.1202 106.554 50.1202H100.904V63.8504H93.1719V28.6294ZM100.904 43.5536H106.058C106.752 43.5536 107.413 43.4872 108.041 43.3546C108.701 43.2219 109.28 43.0063 109.775 42.7079C110.304 42.3762 110.717 41.9451 111.014 41.4144C111.345 40.8506 111.51 40.1542 111.51 39.3251C111.51 38.4296 111.295 37.7166 110.866 37.1859C110.469 36.6221 109.94 36.191 109.28 35.8925C108.652 35.594 107.941 35.4116 107.148 35.3453C106.355 35.2458 105.596 35.196 104.869 35.196H100.904V43.5536Z" fill="white"/>
<path d="M122.556 51.7618C122.556 49.8383 122.903 48.0971 123.597 46.5384C124.291 44.9796 125.233 43.653 126.422 42.5586C127.645 41.431 129.066 40.5687 130.685 39.9718C132.337 39.3748 134.088 39.0763 135.938 39.0763C137.789 39.0763 139.523 39.3748 141.142 39.9718C142.794 40.5687 144.215 41.431 145.405 42.5586C146.627 43.653 147.585 44.9796 148.279 46.5384C148.973 48.0971 149.32 49.8383 149.32 51.7618C149.32 53.6854 148.973 55.4265 148.279 56.9853C147.585 58.544 146.627 59.8872 145.405 61.0148C144.215 62.1092 142.794 62.9549 141.142 63.5519C139.523 64.1489 137.789 64.4473 135.938 64.4473C134.088 64.4473 132.337 64.1489 130.685 63.5519C129.066 62.9549 127.645 62.1092 126.422 61.0148C125.233 59.8872 124.291 58.544 123.597 56.9853C122.903 55.4265 122.556 53.6854 122.556 51.7618ZM129.991 51.7618C129.991 53.5859 130.503 55.0617 131.527 56.1893C132.585 57.3169 134.055 57.8807 135.938 57.8807C137.822 57.8807 139.275 57.3169 140.3 56.1893C141.357 55.0617 141.886 53.5859 141.886 51.7618C141.886 49.9378 141.357 48.4619 140.3 47.3343C139.275 46.2067 137.822 45.6429 135.938 45.6429C134.055 45.6429 132.585 46.2067 131.527 47.3343C130.503 48.4619 129.991 49.9378 129.991 51.7618Z" fill="white"/>
<path d="M153.699 39.6733H160.836V42.9566H160.935C161.166 42.4923 161.497 42.028 161.926 41.5637C162.356 41.0994 162.868 40.6848 163.463 40.32C164.057 39.9552 164.735 39.6567 165.495 39.4245C166.255 39.1924 167.081 39.0763 167.973 39.0763C169.658 39.0763 171.145 39.4245 172.433 40.121C173.755 40.8175 174.746 41.9119 175.407 43.4043C176.266 41.8456 177.307 40.7346 178.53 40.0713C179.752 39.408 181.255 39.0763 183.04 39.0763C184.659 39.0763 186.013 39.3582 187.104 39.922C188.227 40.4527 189.103 41.1989 189.731 42.1606C190.391 43.0892 190.854 44.2003 191.118 45.4937C191.416 46.754 191.564 48.1137 191.564 49.573V63.8504H184.13V49.7719C184.13 48.6443 183.882 47.6826 183.387 46.8866C182.924 46.0575 182.081 45.6429 180.859 45.6429C180 45.6429 179.273 45.7922 178.678 46.0907C178.117 46.356 177.654 46.7374 177.29 47.2348C176.96 47.7323 176.712 48.3127 176.547 48.976C176.415 49.6393 176.349 50.3357 176.349 51.0654V63.8504H168.914V51.0654C168.914 50.6342 168.898 50.1036 168.865 49.4735C168.832 48.8433 168.716 48.2464 168.518 47.6826C168.32 47.1188 167.989 46.6379 167.527 46.2399C167.097 45.8419 166.453 45.6429 165.594 45.6429C164.636 45.6429 163.859 45.8253 163.264 46.1902C162.67 46.5218 162.207 46.9861 161.877 47.5831C161.579 48.1469 161.381 48.7936 161.282 49.5232C161.183 50.2528 161.133 51.0156 161.133 51.8116V63.8504H153.699V39.6733Z" fill="white"/>
<path d="M197.518 39.6733H204.357V42.8571H204.456C204.754 42.426 205.134 41.9948 205.596 41.5637C206.092 41.0994 206.654 40.6848 207.281 40.32C207.942 39.9552 208.653 39.6567 209.413 39.4245C210.173 39.1924 210.982 39.0763 211.841 39.0763C213.625 39.0763 215.244 39.3914 216.698 40.0215C218.152 40.6185 219.391 41.4808 220.415 42.6084C221.473 43.7028 222.282 45.0128 222.844 46.5384C223.406 48.064 223.686 49.7388 223.686 51.5628C223.686 53.2542 223.422 54.8793 222.893 56.4381C222.398 57.9636 221.671 59.3234 220.713 60.5173C219.788 61.7112 218.648 62.673 217.293 63.4026C215.938 64.0991 214.402 64.4473 212.684 64.4473C211.131 64.4473 209.677 64.2152 208.322 63.7509C207.001 63.2534 205.91 62.4243 205.051 61.2635H204.952V75.1927H197.518V39.6733ZM204.357 51.7618C204.357 53.5859 204.869 55.0617 205.894 56.1893C206.951 57.3169 208.421 57.8807 210.305 57.8807C212.188 57.8807 213.642 57.3169 214.666 56.1893C215.723 55.0617 216.252 53.5859 216.252 51.7618C216.252 49.9378 215.723 48.4619 214.666 47.3343C213.642 46.2067 212.188 45.6429 210.305 45.6429C208.421 45.6429 206.951 46.2067 205.894 47.3343C204.869 48.4619 204.357 49.9378 204.357 51.7618Z" fill="white"/>
<path d="M243.159 60.8158H243.059C242.233 62.1092 241.127 63.0378 239.739 63.6016C238.384 64.1654 236.947 64.4473 235.427 64.4473C234.303 64.4473 233.213 64.2815 232.156 63.9499C231.131 63.6514 230.223 63.1871 229.43 62.557C228.637 61.9268 228.009 61.1475 227.546 60.2188C227.084 59.2902 226.853 58.2124 226.853 56.9853C226.853 55.5924 227.1 54.415 227.596 53.4532C228.125 52.4915 228.819 51.6955 229.678 51.0654C230.57 50.4352 231.578 49.9544 232.701 49.6227C233.824 49.2579 234.981 48.9926 236.17 48.8268C237.393 48.6609 238.599 48.5614 239.788 48.5283C241.011 48.4951 242.134 48.4785 243.159 48.4785C243.159 47.1519 242.679 46.1072 241.721 45.3445C240.796 44.5485 239.689 44.1505 238.401 44.1505C237.178 44.1505 236.055 44.4158 235.03 44.9465C234.039 45.4439 233.147 46.1404 232.354 47.0359L228.389 42.9566C229.777 41.6632 231.396 40.7014 233.246 40.0713C235.096 39.408 237.013 39.0763 238.995 39.0763C241.176 39.0763 242.96 39.3582 244.348 39.922C245.769 40.4527 246.892 41.2486 247.718 42.3099C248.577 43.3712 249.172 44.6812 249.503 46.2399C249.833 47.7655 249.998 49.5398 249.998 51.5628V63.8504H243.159V60.8158ZM241.325 53.2542C240.763 53.2542 240.053 53.2874 239.194 53.3537C238.368 53.3869 237.558 53.5196 236.765 53.7517C236.005 53.9839 235.344 54.3321 234.783 54.7964C234.254 55.2607 233.99 55.9074 233.99 56.7365C233.99 57.632 234.37 58.2953 235.13 58.7264C235.889 59.1576 236.682 59.3731 237.508 59.3731C238.235 59.3731 238.929 59.2736 239.59 59.0747C240.284 58.8757 240.895 58.5938 241.424 58.229C241.953 57.8641 242.366 57.3998 242.663 56.836C242.993 56.2722 243.159 55.6089 243.159 54.8461V53.2542H241.325Z" fill="white"/>
<path d="M266.962 43.1624H272.513C274.045 43.1624 275.337 43.0023 276.389 42.6821C277.474 42.3619 278.335 41.9456 278.974 41.4333C279.612 40.8889 280.074 40.2645 280.361 39.5601C280.648 38.8236 280.792 38.0391 280.792 37.2065C280.792 36.406 280.648 35.6535 280.361 34.949C280.074 34.2125 279.612 33.5721 278.974 33.0278C278.335 32.4834 277.474 32.0671 276.389 31.7789C275.337 31.4587 274.045 31.2986 272.513 31.2986H266.962V43.1624ZM263.517 28.1285H273.375C276.82 28.1285 279.532 28.881 281.51 30.386C283.52 31.891 284.524 34.1645 284.524 37.2065C284.524 40.2485 283.52 42.538 281.51 44.075C279.532 45.58 276.82 46.3325 273.375 46.3325H266.962V62.135H263.517V28.1285Z" fill="white"/>
<path d="M292.622 47.8318C292.622 46.8037 292.589 45.759 292.523 44.6977C292.49 43.6365 292.457 42.2601 292.424 40.5687H295.645V44.8967H295.744C295.976 44.2666 296.306 43.6696 296.736 43.1058C297.165 42.5089 297.677 41.9782 298.272 41.5139C298.9 41.0496 299.61 40.6848 300.403 40.4195C301.229 40.121 302.154 39.9718 303.179 39.9718C304.104 39.9718 304.913 40.0713 305.607 40.2702L304.963 43.5038C304.533 43.338 303.906 43.2551 303.08 43.2551C301.824 43.2551 300.75 43.5038 299.858 44.0013C298.966 44.4656 298.222 45.0791 297.628 45.8419C297.033 46.5715 296.587 47.3675 296.29 48.2298C296.025 49.0921 295.893 49.9212 295.893 50.7171V63.8504H292.622V47.8318Z" fill="white"/>
<path d="M327.734 52.2096C327.734 50.9161 327.52 49.7056 327.09 48.578C326.694 47.4504 326.115 46.4721 325.355 45.6429C324.595 44.8138 323.67 44.1671 322.58 43.7028C321.523 43.2053 320.317 42.9566 318.962 42.9566C317.607 42.9566 316.385 43.2053 315.294 43.7028C314.237 44.1671 313.328 44.8138 312.568 45.6429C311.841 46.4721 311.263 47.4504 310.834 48.578C310.437 49.7056 310.239 50.9161 310.239 52.2096C310.239 53.503 310.437 54.7135 310.834 55.8411C311.263 56.9687 311.841 57.9471 312.568 58.7762C313.328 59.6053 314.237 60.2686 315.294 60.7661C316.385 61.2304 317.607 61.4625 318.962 61.4625C320.317 61.4625 321.523 61.2304 322.58 60.7661C323.67 60.2686 324.595 59.6053 325.355 58.7762C326.115 57.9471 326.694 56.9687 327.09 55.8411C327.52 54.7135 327.734 53.503 327.734 52.2096ZM331.303 52.2096C331.303 53.9673 330.989 55.5924 330.361 57.0848C329.766 58.5772 328.924 59.8706 327.833 60.965C326.743 62.0595 325.438 62.9218 323.918 63.5519C322.431 64.1489 320.779 64.4473 318.962 64.4473C317.178 64.4473 315.526 64.1489 314.006 63.5519C312.519 62.9218 311.23 62.0595 310.14 60.965C309.049 59.8706 308.19 58.5772 307.563 57.0848C306.968 55.5924 306.67 53.9673 306.67 52.2096C306.67 50.4518 306.968 48.8267 307.563 47.3343C308.19 45.8419 309.049 44.5485 310.14 43.4541C311.23 42.3596 312.519 41.5139 314.006 40.917C315.526 40.2868 317.178 39.9718 318.962 39.9718C320.779 39.9718 322.431 40.2868 323.918 40.917C325.438 41.5139 326.743 42.3596 327.833 43.4541C328.924 44.5485 329.766 45.8419 330.361 47.3343C330.989 48.8267 331.303 50.4518 331.303 52.2096Z" fill="white"/>
<path d="M339.618 51.9111C339.618 53.1382 339.833 54.2989 340.262 55.3934C340.725 56.4546 341.336 57.3998 342.096 58.229C342.889 59.0249 343.798 59.6716 344.822 60.1691C345.879 60.6334 347.019 60.8656 348.242 60.8656C349.431 60.8656 350.555 60.65 351.612 60.2188C352.702 59.7877 353.661 59.1907 354.487 58.4279C355.313 57.632 355.941 56.6868 356.37 55.5924C356.833 54.4979 357.047 53.2708 357.014 51.9111C357.014 50.684 356.816 49.5398 356.42 48.4785C356.023 47.3841 355.445 46.4389 354.685 45.6429C353.925 44.8138 353 44.1671 351.909 43.7028C350.819 43.2053 349.597 42.9566 348.242 42.9566C347.019 42.9566 345.879 43.2053 344.822 43.7028C343.798 44.1671 342.889 44.8138 342.096 45.6429C341.336 46.4389 340.725 47.3841 340.262 48.4785C339.833 49.5398 339.618 50.684 339.618 51.9111ZM339.023 68.5266C339.982 69.82 341.221 70.8481 342.74 71.6109C344.293 72.4069 346.012 72.8049 347.895 72.8049C349.547 72.8049 350.951 72.5561 352.108 72.0587C353.264 71.5943 354.189 70.9476 354.883 70.1185C355.61 69.2894 356.122 68.311 356.42 67.1834C356.75 66.089 356.915 64.9117 356.915 63.6514V59.4726H356.816C355.759 61.0645 354.47 62.1921 352.95 62.8554C351.43 63.5187 349.828 63.8504 348.143 63.8504C346.458 63.8504 344.872 63.5519 343.385 62.9549C341.931 62.358 340.659 61.5454 339.569 60.5173C338.478 59.456 337.619 58.1958 336.991 56.7365C336.363 55.2773 336.05 53.702 336.05 52.0106C336.05 50.3192 336.347 48.7438 336.942 47.2846C337.536 45.8253 338.346 44.5485 339.37 43.4541C340.428 42.3596 341.667 41.5139 343.087 40.917C344.541 40.2868 346.127 39.9718 347.845 39.9718C348.539 39.9718 349.266 40.0381 350.026 40.1708C350.819 40.3034 351.596 40.5356 352.356 40.8672C353.149 41.1989 353.925 41.6632 354.685 42.2601C355.445 42.8239 356.155 43.5536 356.816 44.449H356.915V40.5687H360.186V63.6514C360.186 64.9117 360.021 66.2548 359.691 67.6809C359.393 69.107 358.782 70.417 357.857 71.6109C356.965 72.8049 355.709 73.7998 354.09 74.5957C352.471 75.3917 350.357 75.7897 347.746 75.7897C345.433 75.7897 343.368 75.4083 341.551 74.6455C339.734 73.8827 338.082 72.7054 336.595 71.1134L339.023 68.5266Z" fill="white"/>
<path d="M367.885 47.8318C367.885 46.8037 367.852 45.759 367.786 44.6977C367.753 43.6365 367.72 42.2601 367.686 40.5687H370.908V44.8967H371.007C371.238 44.2666 371.569 43.6696 371.998 43.1058C372.428 42.5089 372.94 41.9782 373.535 41.5139C374.163 41.0496 374.873 40.6848 375.666 40.4195C376.492 40.121 377.417 39.9718 378.441 39.9718C379.367 39.9718 380.176 40.0713 380.87 40.2702L380.226 43.5038C379.796 43.338 379.168 43.2551 378.342 43.2551C377.087 43.2551 376.013 43.5038 375.121 44.0013C374.229 44.4656 373.485 45.0791 372.891 45.8419C372.296 46.5715 371.85 47.3675 371.552 48.2298C371.288 49.0921 371.156 49.9212 371.156 50.7171V63.8504H367.885V47.8318Z" fill="white"/>
<path d="M397.178 52.2593C396.351 52.2593 395.311 52.309 394.055 52.4085C392.833 52.4749 391.643 52.6739 390.487 53.0055C389.363 53.304 388.388 53.7849 387.562 54.4482C386.769 55.1115 386.373 56.0235 386.373 57.1843C386.373 57.947 386.522 58.6103 386.819 59.1741C387.149 59.7048 387.579 60.1525 388.108 60.5173C388.636 60.849 389.215 61.0977 389.842 61.2635C390.503 61.3962 391.164 61.4625 391.825 61.4625C393.014 61.4625 394.039 61.2635 394.898 60.8656C395.79 60.4676 396.533 59.9369 397.128 59.2736C397.723 58.5772 398.152 57.7812 398.417 56.8858C398.714 55.9572 398.863 54.9788 398.863 53.9507V52.2593H397.178ZM398.863 49.573V48.976C398.863 44.9631 396.88 42.9566 392.915 42.9566C390.206 42.9566 387.843 43.8686 385.828 45.6927L383.845 43.3546C386.026 41.0994 389.297 39.9718 393.659 39.9718C394.782 39.9718 395.856 40.1376 396.88 40.4692C397.937 40.8009 398.846 41.3149 399.606 42.0114C400.366 42.6747 400.977 43.5204 401.44 44.5485C401.902 45.5766 402.134 46.8037 402.134 48.2298V58.6269C402.134 59.5224 402.167 60.4676 402.233 61.4625C402.332 62.4243 402.431 63.2202 402.53 63.8504H399.358C399.259 63.2866 399.177 62.673 399.11 62.0097C399.077 61.3464 399.061 60.6997 399.061 60.0696H398.962C398.004 61.6283 396.864 62.7559 395.542 63.4524C394.253 64.1157 392.667 64.4473 390.784 64.4473C389.76 64.4473 388.768 64.2981 387.81 63.9996C386.852 63.7343 385.993 63.3197 385.233 62.7559C384.506 62.159 383.911 61.4459 383.449 60.6168C383.019 59.7545 382.804 58.7596 382.804 57.632C382.804 55.7416 383.284 54.2658 384.242 53.2045C385.233 52.1101 386.456 51.2975 387.909 50.7669C389.396 50.2363 390.966 49.9046 392.618 49.7719C394.303 49.6393 395.839 49.573 397.227 49.573H398.863Z" fill="white"/>
<path d="M409.695 45.7424C409.695 44.8801 409.662 44.0179 409.596 43.1556C409.562 42.2933 409.513 41.431 409.447 40.5687H412.966V44.1008H413.065C413.858 42.741 414.948 41.7129 416.336 41.0165C417.757 40.32 419.161 39.9718 420.549 39.9718C421.177 39.9718 421.837 40.0381 422.531 40.1708C423.258 40.3034 423.952 40.5521 424.613 40.917C425.274 41.2486 425.885 41.7295 426.447 42.3596C427.041 42.9898 427.537 43.8023 427.934 44.7972C428.594 43.3048 429.635 42.1275 431.056 41.2652C432.51 40.4029 434.013 39.9718 435.566 39.9718C438.54 39.9718 440.737 40.7677 442.158 42.3596C443.579 43.9184 444.289 46.157 444.289 49.0755V63.8504H441.018V50.2694C441.018 47.9147 440.605 46.1072 439.779 44.847C438.953 43.5867 437.416 42.9566 435.17 42.9566C433.947 42.9566 432.923 43.2053 432.097 43.7028C431.271 44.1671 430.593 44.7972 430.065 45.5932C429.569 46.3891 429.206 47.3012 428.974 48.3293C428.743 49.3242 428.627 50.3689 428.627 51.4633V63.8504H425.356V50.2694C425.356 47.9147 424.943 46.1072 424.117 44.847C423.291 43.5867 421.755 42.9566 419.508 42.9566C419.31 42.9566 418.847 43.0229 418.12 43.1556C417.426 43.2882 416.699 43.6531 415.939 44.25C415.18 44.847 414.486 45.7424 413.858 46.9364C413.263 48.1303 412.966 49.7885 412.966 51.9111V63.8504H409.695V45.7424Z" fill="white"/>
</svg>
