<svg width="371" height="80" viewBox="0 0 371 80" fill="none" xmlns="http://www.w3.org/2000/svg">
<path d="M121.894 38.6131H105.908V4.55007H101.719V39.1064H121.894V38.6131Z" fill="white"/>
<path d="M133.412 4.55007H129.223V39.1107H133.412V4.55007Z" fill="white"/>
<path d="M165.041 30.5041C165.041 18.6565 145.003 19.431 145.003 10.4739C145.003 6.24197 148.982 4.33804 152.542 4.33804C157.36 4.33804 161.965 7.22855 163.362 9.34451L163.43 6.94729C160.706 5.32462 156.799 3.84475 152.747 3.84475C147.23 3.84475 142.206 6.94729 142.206 12.8711C142.206 24.8615 162.175 23.8014 162.175 32.5508C162.175 37.1332 157.429 38.8295 153.518 38.8295C147.864 38.8295 143.465 35.6577 141.439 31.707V35.6577C142.416 35.8005 147.234 39.5348 153.587 39.5348C159.031 39.5348 165.036 36.8563 165.036 30.5084L165.041 30.5041Z" fill="white"/>
<path d="M174.533 25.7789H186.192L190.87 39.1107H195.616L182.14 4.05677L168.806 39.1107H169.435L174.533 25.7789ZM180.26 10.6859L185.777 25.2164H174.674L180.26 10.6859Z" fill="white"/>
<path d="M236.248 30.5041C236.248 18.6565 216.21 19.431 216.21 10.4739C216.21 6.24197 220.19 4.33804 223.749 4.33804C228.568 4.33804 233.173 7.22855 234.569 9.34451L234.638 6.94729C231.913 5.32462 228.007 3.84475 223.955 3.84475C218.438 3.84475 213.413 6.94729 213.413 12.8711C213.413 24.8615 233.383 23.8014 233.383 32.5508C233.383 37.1332 228.636 38.8295 224.726 38.8295C219.072 38.8295 214.673 35.6577 212.647 31.707V35.6577C213.623 35.8005 218.442 39.5348 224.794 39.5348C230.238 39.5348 236.244 36.8563 236.244 30.5084L236.248 30.5041Z" fill="white"/>
<path d="M247.488 21.759H263.752V39.1064H267.941V4.55007H263.752V21.1921H247.488V4.55007H243.299V39.1064H247.488V21.759Z" fill="white"/>
<path d="M279.322 4.55007H275.133V39.1107H279.322V4.55007Z" fill="white"/>
<path d="M308.364 38.5439H292.095V21.8975H302.007V21.2657H292.095V5.11259H307.734V4.55007H287.906V39.1064H308.364V38.5439Z" fill="white"/>
<path d="M336.15 38.6131H320.16V4.55007H315.971V39.1064H336.15V38.6131Z" fill="white"/>
<path d="M370.289 21.8975C370.289 12.3778 362.887 4.54574 353.391 4.54574H342.361V39.1064H354.021C363.444 39.1064 370.289 31.2051 370.289 21.8975ZM346.55 38.5439V5.11259H349.831C359.953 5.11259 365.68 11.7417 365.68 21.8975C365.68 32.0532 359.953 38.5439 349.831 38.5439H346.55Z" fill="white"/>
<path d="M100.747 79.3226H102.014V72.8146H105.064V71.629H102.014V67.0552H105.253V65.8696H100.747V79.3226Z" fill="white"/>
<path d="M110.945 65.8696H109.677V79.3226H110.945V65.8696Z" fill="white"/>
<path d="M120.532 70.9107C120.532 73.1002 120.557 74.9912 120.63 76.8388H120.596C120.36 75.6489 118.446 68.5005 117.683 65.8696H116.154V79.3226H117.366V74.2555C117.366 71.828 117.323 69.5996 117.233 67.9812H117.255C117.533 69.1712 119.474 76.5835 120.253 79.3226H121.735V65.8696H120.532V70.9107Z" fill="white"/>
<path d="M129.257 65.8696H126.944V79.3226H129.15C132.127 79.3226 132.435 77.211 132.435 75.1426V69.7943C132.435 67.7432 132.148 65.8739 129.257 65.8739V65.8696ZM131.137 75.4239C131.137 77.2715 130.722 78.2019 129.047 78.2019H128.212V66.9946H129.069C130.85 66.9946 131.142 67.9856 131.142 69.6169V75.4239H131.137Z" fill="white"/>
<path d="M142.154 67.0552H144.313V79.3226H145.581V67.0552H147.719V65.8696H142.154V67.0552Z" fill="white"/>
<path d="M156.071 71.5078H153.167V65.8696H151.903V79.3226H153.167V72.6848H156.071V79.3226H157.339V65.8696H156.071V71.5078Z" fill="white"/>
<path d="M163.786 72.7194H166.788V71.5468H163.786V67.0552H166.96V65.8696H162.522V79.3226H167.007L167.182 78.1456H163.786V72.7194Z" fill="white"/>
<path d="M179.776 73.1348H181.33V75.32C181.33 77.1158 181.125 78.3447 179.823 78.3447C178.799 78.3447 178.448 77.4316 178.448 76.047V69.1019C178.448 67.4663 178.945 66.8605 179.913 66.8605C181.206 66.8605 181.322 68.0072 181.322 69.0024V69.3399H182.59V69.0197C182.59 67.2456 182.136 65.6879 179.93 65.6879C178.045 65.6879 177.158 66.9773 177.158 69.1842V76.0123C177.158 78.1326 177.758 79.4913 179.57 79.4913C180.44 79.4913 181.193 79.1365 181.519 78.1153C181.527 78.4225 181.566 79.1019 181.6 79.3183H182.616V72.0054H179.784V73.1305L179.776 73.1348Z" fill="white"/>
<path d="M191.649 76.3888C191.649 77.5874 191.281 78.3187 190.214 78.3187C189.148 78.3187 188.766 77.5182 188.766 76.3758V65.8696H187.499V76.3758C187.499 78.4788 188.407 79.4957 190.189 79.4957C191.97 79.4957 192.93 78.4052 192.93 76.3369V65.8696H191.649V76.3888Z" fill="white"/>
<path d="M199.385 65.8696L197.188 79.3226H198.468L199.145 74.8657H201.437L202.161 79.3226H203.489L201.197 65.8696H199.385ZM199.321 73.6887C199.702 71.1227 200.195 68.0591 200.242 67.0379H200.297C200.417 68.2495 200.76 70.5688 201.266 73.6887H199.321Z" fill="white"/>
<path d="M212.882 75.1686C212.882 73.3771 212.501 72.7151 211.64 72.4079C212.407 72.1396 212.998 71.3391 212.998 69.5693V68.9289C212.998 66.7523 212.064 65.8696 210.068 65.8696H207.862V79.3226H209.13V72.979H210.038C211.387 72.979 211.64 73.5026 211.64 75.2724C211.64 76.2071 211.614 78.4788 211.781 79.3269H213.019C212.865 78.4702 212.886 76.3282 212.886 75.1729L212.882 75.1686ZM210.094 71.88H209.13V66.9687H209.982C211.357 66.9687 211.717 67.7303 211.717 69.0024V69.6342C211.717 71.0665 211.4 71.88 210.094 71.88Z" fill="white"/>
<path d="M220.181 65.8696H217.868V79.3226H220.074C223.051 79.3226 223.359 77.211 223.359 75.1426V69.7943C223.359 67.7432 223.072 65.8739 220.181 65.8739V65.8696ZM222.061 75.4239C222.061 77.2715 221.646 78.2019 219.971 78.2019H219.136V66.9946H219.993C221.774 66.9946 222.066 67.9856 222.066 69.6169V75.4239H222.061Z" fill="white"/>
<path d="M229.562 65.8696H228.294V79.3226H229.562V65.8696Z" fill="white"/>
<path d="M236.188 65.8696L233.991 79.3226H235.271L235.948 74.8657H238.24L238.964 79.3226H240.292L238 65.8696H236.188ZM236.124 73.6887C236.505 71.1227 236.998 68.0591 237.045 67.0379H237.101C237.22 68.2495 237.563 70.5688 238.069 73.6887H236.124Z" fill="white"/>
<path d="M249.034 70.9107C249.034 73.1002 249.06 74.9912 249.133 76.8388H249.098C248.863 75.6489 246.948 68.5005 246.186 65.8696H244.656V79.3226H245.869V74.2555C245.869 71.828 245.826 69.5996 245.736 67.9812H245.757C246.036 69.1712 247.976 76.5835 248.756 79.3226H250.238V65.8696H249.034V70.9107Z" fill="white"/>
<path d="M263.872 65.6965C262.013 65.6965 261.045 66.9038 261.045 69.1193V76.0253C261.045 78.1543 261.747 79.5 263.786 79.5C265.705 79.5 266.643 78.323 266.643 76.0124V69.1149C266.643 67.0985 265.829 65.6965 263.876 65.6965H263.872ZM265.345 76.0383C265.345 77.7302 264.819 78.336 263.846 78.336C262.874 78.336 262.338 77.7172 262.338 76.1119V69.0803C262.338 67.5399 262.818 66.8648 263.833 66.8648C264.849 66.8648 265.35 67.5702 265.35 69.0846V76.0383H265.345Z" fill="white"/>
<path d="M271.573 79.3226H272.841V72.8146H275.887V71.629H272.841V67.0552H276.08V65.8696H271.573V79.3226Z" fill="white"/>
<path d="M288.463 72.5377H288.442C288.215 71.3564 287.375 68.362 286.685 65.8739H285.293L287.735 73.905C287.769 74.0132 287.79 74.1041 287.79 74.2469V79.3312H289.058V74.3551C289.058 74.169 289.08 74.0695 289.097 73.9786L291.56 65.8783H290.219C289.581 68.2452 288.72 71.3131 288.467 72.542L288.463 72.5377Z" fill="white"/>
<path d="M298.281 65.6965C296.422 65.6965 295.453 66.9038 295.453 69.1193V76.0253C295.453 78.1543 296.156 79.5 298.195 79.5C300.114 79.5 301.052 78.323 301.052 76.0124V69.1149C301.052 67.0985 300.238 65.6965 298.285 65.6965H298.281ZM299.754 76.0383C299.754 77.7302 299.227 78.336 298.255 78.336C297.283 78.336 296.747 77.7172 296.747 76.1119V69.0803C296.747 67.5399 297.227 66.8648 298.242 66.8648C299.257 66.8648 299.758 67.5702 299.758 69.0846V76.0383H299.754Z" fill="white"/>
<path d="M310.026 76.3888C310.026 77.5874 309.657 78.3187 308.591 78.3187C307.524 78.3187 307.143 77.5182 307.143 76.3758V65.8696H305.875V76.3758C305.875 78.4788 306.783 79.4957 308.565 79.4957C310.347 79.4957 311.306 78.4052 311.306 76.3369V65.8696H310.026V76.3888Z" fill="white"/>
<path d="M321.467 75.1686C321.467 73.3771 321.085 72.7151 320.224 72.4079C320.991 72.1396 321.582 71.3391 321.582 69.5693V68.9289C321.582 66.7523 320.649 65.8696 318.652 65.8696H316.447V79.3226H317.714V72.979H318.622C319.972 72.979 320.224 73.5026 320.224 75.2724C320.224 76.2071 320.199 78.4788 320.366 79.3269H321.604C321.45 78.4702 321.471 76.3282 321.471 75.1729L321.467 75.1686ZM318.678 71.88H317.714V66.9687H318.567C319.942 66.9687 320.302 67.7303 320.302 69.0024V69.6342C320.302 71.0665 319.985 71.88 318.678 71.88Z" fill="white"/>
<path d="M334.583 71.5165C333.349 70.5645 333.088 70.0928 333.088 68.7688C333.088 67.674 333.336 66.8129 334.308 66.8129C335.281 66.8129 335.503 67.5702 335.503 68.7298V69.2967H336.763V68.6952C336.763 66.9297 336.206 65.7008 334.334 65.6879C332.317 65.6749 331.82 67.2716 331.82 68.9635C331.82 70.9453 332.535 71.6117 333.957 72.7324C335.354 73.8272 335.705 74.4806 335.705 76.0816C335.705 77.6826 335.289 78.3793 334.3 78.3793C333.31 78.3793 332.865 77.674 332.865 76.3455V75.5796H331.597V76.3455C331.597 78.1197 332.21 79.5 334.283 79.5C336.476 79.5 336.977 77.7994 336.977 75.9085C336.977 73.68 336.399 72.9098 334.583 71.5165Z" fill="white"/>
<path d="M344.349 65.6965C342.49 65.6965 341.522 66.9038 341.522 69.1193V76.0253C341.522 78.1543 342.224 79.5 344.263 79.5C346.182 79.5 347.12 78.323 347.12 76.0124V69.1149C347.12 67.0985 346.306 65.6965 344.353 65.6965H344.349ZM345.822 76.0383C345.822 77.7302 345.295 78.336 344.323 78.336C343.351 78.336 342.815 77.7172 342.815 76.1119V69.0803C342.815 67.5399 343.295 66.8648 344.31 66.8648C345.325 66.8648 345.826 67.5702 345.826 69.0846V76.0383H345.822Z" fill="white"/>
<path d="M356.098 76.3888C356.098 77.5874 355.73 78.3187 354.663 78.3187C353.597 78.3187 353.215 77.5182 353.215 76.3758V65.8696H351.947V76.3758C351.947 78.4788 352.856 79.4957 354.637 79.4957C356.419 79.4957 357.379 78.4052 357.379 76.3369V65.8696H356.098V76.3888Z" fill="white"/>
<path d="M363.787 65.8696H362.519V79.3226H366.982L367.136 78.1673H363.787V65.8696Z" fill="white"/>
<path d="M370.285 51.8844H100.07V52.832H370.285V51.8844Z" fill="white"/>
<path d="M79.6765 5.0823C77.3377 3.1827 74.6906 1.98841 71.7222 1.44753C67.9785 0.768168 64.4275 1.21386 60.9922 2.88845C56.5846 5.0347 52.6995 7.86896 49.4356 11.5557C46.45 14.9308 43.73 18.5266 41.0358 22.1398C40.4961 22.8667 39.982 23.6197 39.3652 24.2774C36.9066 26.9039 34.011 28.8944 30.7042 30.2834C29.2093 30.9108 27.6715 31.3609 26.0524 31.4431C23.0326 31.5989 20.2912 30.7724 17.794 29.0329C15.9521 27.7477 14.6928 26.0255 13.9689 23.9226C13.2964 21.971 12.8637 19.9632 12.9366 17.8646C13.0051 15.965 13.4934 14.1822 14.2901 12.486C15.074 10.8114 16.2005 9.35749 17.3442 7.92089C18.2223 6.81747 19.2717 5.91743 20.4497 5.15153C22.2787 3.96591 24.2319 3.08317 26.3437 2.56825C27.0161 2.40382 27.6972 2.27833 28.3826 2.18746C28.978 2.10957 29.5819 2.10525 30.1645 2.0663C29.6376 1.6509 28.1727 0.958561 27.3631 0.776823C25.5298 0.36142 23.6794 0.460943 21.8546 0.763841C19.5202 1.15761 17.3827 2.06198 15.4638 3.48992C14.0588 4.53276 12.641 5.57126 11.5573 6.96027C8.8716 10.4133 7.1668 14.2428 7.00832 18.73C6.88838 22.1831 7.68938 25.3678 9.47128 28.2497C12.324 32.858 16.299 36.0861 21.5034 37.7001C23.8336 38.4227 26.1852 38.7472 28.6267 38.5525C30.9312 38.3665 33.1886 38.0809 35.3602 37.2198C38.667 35.9087 41.7254 34.2124 44.274 31.6724C45.7989 30.1536 47.3024 28.6131 48.5917 26.8736C50.1166 24.8183 51.6072 22.7369 53.145 20.6902C54.5885 18.7733 56.062 16.8823 57.5483 14.9957C58.6492 13.5981 59.8357 12.2956 61.2621 11.2138C63.5794 9.46134 66.0381 8.02041 68.878 7.31076C70.8012 6.82613 72.7202 6.85209 74.6049 7.41029C76.5924 7.99878 78.2929 9.1195 79.7407 10.608C82.692 13.6543 84.1698 17.3583 84.5296 21.5686C84.7395 24.0134 84.3754 26.3847 83.8785 28.7689C83.0347 32.8364 81.407 36.5577 79.1496 39.9935C77.5176 42.4772 75.5387 44.6797 73.397 46.7351C72.6902 47.4145 72.8444 47.2414 73.3841 47.8904C73.5255 48.0592 73.6369 48.0678 73.7996 47.9034C74.2322 47.4707 74.6949 47.0726 75.1189 46.6312C76.344 45.3547 77.6333 44.1215 78.7555 42.7585C80.4004 40.7637 81.7068 38.5352 82.889 36.2202C84.9365 32.209 85.9902 27.9251 86.4014 23.4812C86.8383 18.7257 86.0159 14.1909 83.6472 9.98059C82.5935 8.10695 81.3427 6.42371 79.6807 5.07365L79.6765 5.0823Z" fill="white"/>
<path d="M66.5307 53.6152C65.6569 54.3811 64.7702 55.1297 63.9178 55.9129C58.7006 60.6944 51.603 67.2153 46.4029 72.0141C46.1159 72.2781 45.9703 72.2521 45.7175 72.0228C39.1425 65.9691 32.5675 59.9241 25.9881 53.8748C22.5785 50.7377 19.1646 47.6092 15.7551 44.472C13.9475 42.8104 12.1099 41.1791 10.3622 39.4526C9.17144 38.2799 8.07917 36.9991 7.00403 35.7183C7.00403 35.7183 -1.0702 25.7529 2.15092 16.8694C0.536076 21.3263 -3.3961 36.2635 9.32136 47.5183C9.65547 47.8818 9.99814 48.2366 10.3665 48.5741C20.4197 57.7909 30.46 67.0249 40.5046 76.2504C41.16 76.8518 41.8154 77.4576 42.4793 78.0677C50.2665 70.716 59.9299 61.642 67.6958 54.3162C67.4302 53.9873 67.1689 53.6671 66.899 53.3296C66.7663 53.4291 66.6463 53.5114 66.5392 53.6066L66.5307 53.6152Z" fill="white"/>
</svg>
