<svg width="294" height="138" viewBox="0 0 294 138" fill="none" xmlns="http://www.w3.org/2000/svg">
<path d="M147.599 120.195L149.566 126.28H155.979C156.392 126.28 156.571 126.81 156.221 127.062L151.039 130.837L153.024 136.922C153.149 137.308 152.691 137.641 152.368 137.389L147.185 133.641L142.003 137.416C141.671 137.659 141.204 137.335 141.347 136.949L143.332 130.864L138.15 127.089C137.818 126.846 137.988 126.307 138.392 126.307H144.805L146.772 120.195C146.898 119.808 147.473 119.808 147.59 120.195H147.599ZM178.631 120.195L180.598 126.28H187.011C187.424 126.28 187.603 126.81 187.253 127.062L182.071 130.837L184.056 136.922C184.181 137.308 183.723 137.641 183.4 137.389L178.217 133.641L173.035 137.416C172.703 137.659 172.236 137.335 172.379 136.949L174.364 130.864L169.182 127.089C168.849 126.846 169.02 126.307 169.424 126.307H175.837L177.804 120.195C177.93 119.808 178.505 119.808 178.622 120.195H178.631ZM116.567 120.195L118.534 126.28H124.947C125.36 126.28 125.539 126.81 125.189 127.062L120.007 130.837L121.992 136.922C122.117 137.308 121.659 137.641 121.336 137.389L116.154 133.641L110.971 137.416C110.639 137.659 110.172 137.335 110.315 136.949L112.3 130.864L107.118 127.089C106.786 126.846 106.956 126.307 107.36 126.307H113.773L115.74 120.186C115.866 119.799 116.441 119.799 116.558 120.186L116.567 120.195ZM85.5348 120.195L87.5018 126.28H93.9148C94.3279 126.28 94.5076 126.81 94.1573 127.062L88.9748 130.837L90.9598 136.922C91.0855 137.308 90.6275 137.641 90.3041 137.389L85.1216 133.641L79.9392 137.416C79.6069 137.659 79.1398 137.335 79.2835 136.949L81.2685 130.864L76.077 127.08C75.7447 126.837 75.9154 126.298 76.3195 126.298H82.7415L84.7085 120.186C84.8342 119.799 85.4091 119.799 85.5258 120.186L85.5348 120.195ZM209.671 120.195L211.638 126.28H218.051C218.465 126.28 218.644 126.81 218.294 127.062L213.111 130.837L215.096 136.922C215.222 137.308 214.764 137.641 214.441 137.389L209.258 133.641L204.076 137.416C203.744 137.659 203.276 137.335 203.42 136.949L205.405 130.864L200.223 127.089C199.89 126.846 200.061 126.307 200.465 126.307H206.878L208.845 120.195C208.971 119.808 209.546 119.808 209.662 120.195H209.671Z" fill="white"/>
<path d="M19.7306 85.7235V87.3H15.5416V89.2229H20.4136V90.8905H13.52V82.3153H20.2861V83.9829H15.5416V85.7235H19.7306Z" fill="white"/>
<path d="M25.4043 84.7666H25.3678V90.8905H23.3462V82.3153H26.1874L28.2364 88.2113L30.2762 82.3153H33.1174V90.8905H31.0958V84.7666H31.0594L28.9193 90.8905H27.5443L25.4043 84.7666Z" fill="white"/>
<path d="M40.7123 82.3153C42.4425 82.3153 43.9451 82.9623 43.9451 85.0856C43.9451 87.783 41.7049 87.938 40.6668 87.938H38.7453V90.8905H36.7237V82.3153H40.7123ZM38.7453 86.2703H40.3207C41.286 86.2703 41.7687 85.924 41.7687 85.0947C41.7687 83.9283 40.776 83.9829 40.3207 83.9829H38.7453V86.2703Z" fill="white"/>
<path d="M52.9335 90.8905H46.9232V82.3153H48.9449V89.2229H52.9335V90.8905Z" fill="white"/>
<path d="M54.9182 86.5984C54.9182 84.6026 55.8744 82.0692 59.2528 82.0692C62.2033 82.0692 63.5875 84.0012 63.5875 86.5984C63.5875 89.1955 62.2033 91.1275 59.2528 91.1275C55.8744 91.1275 54.9182 88.5941 54.9182 86.5984ZM61.402 86.5984C61.402 85.8146 61.3018 83.7278 59.2437 83.7278C58.1327 83.7278 57.1037 84.3292 57.1037 86.5984C57.1037 88.8675 58.1327 89.4689 59.2437 89.4689C61.3018 89.4689 61.402 87.3274 61.402 86.5984Z" fill="white"/>
<path d="M71.4555 82.3153H73.6593L70.6633 87.6554V90.8905H68.6325V87.6554L65.5272 82.3153H67.8312L69.6434 86.0242L71.4555 82.3153Z" fill="white"/>
<path d="M82.383 85.7235V87.3H78.1941V89.2229H83.066V90.8905H76.1724V82.3153H82.9385V83.9829H78.185V85.7235H82.383Z" fill="white"/>
<path d="M92.2004 85.7235V87.3H88.0114V89.2229H92.8834V90.8905H85.9898V82.3153H92.7559V83.9829H88.0023V85.7235H92.2004Z" fill="white"/>
<path d="M104.768 82.3153C105.651 82.3153 107.682 82.534 107.682 84.7484C107.682 86.2065 106.753 86.6986 106.188 86.89V86.9173C107.363 87.2727 107.408 88.3662 107.408 89.0042C107.445 90.1068 107.436 90.4349 107.736 90.8905H105.678C105.323 90.3802 105.432 89.9975 105.332 88.7125C105.232 87.6919 104.194 87.7283 103.948 87.7283H102.391V90.8905H100.369V82.3153H104.768ZM102.409 86.1609H104.258C105.396 86.1609 105.56 85.4957 105.56 85.0856C105.56 84.2381 105.068 83.9829 104.185 83.9829H102.409V86.1609Z" fill="white"/>
<path d="M117.107 85.7235V87.3H112.918V89.2229H117.79V90.8905H110.896V82.3153H117.662V83.9829H112.909V85.7235H117.107Z" fill="white"/>
<path d="M120.366 83.9829V82.3153H127.561V83.9829H124.974V90.8905H122.953V83.9829H120.357H120.366Z" fill="white"/>
<path d="M136.575 85.7235V87.3H132.386V89.2229H137.258V90.8905H130.365V82.3153H137.131V83.9829H132.377V85.7235H136.575Z" fill="white"/>
<path d="M142.213 85.523V90.8905H140.191V82.3153H142.24L145.618 87.6463H145.655V82.3153H147.677V90.8905H145.618L142.24 85.523H142.213Z" fill="white"/>
<path d="M150.518 83.9829V82.3153H157.712V83.9829H155.126V90.8905H153.104V83.9829H150.509H150.518Z" fill="white"/>
<path d="M162.548 82.3153V90.8905H160.526V82.3153H162.548Z" fill="white"/>
<path d="M165.744 86.5984C165.744 84.6026 166.7 82.0692 170.079 82.0692C173.029 82.0692 174.413 84.0012 174.413 86.5984C174.413 89.1955 173.029 91.1275 170.079 91.1275C166.7 91.1275 165.744 88.5941 165.744 86.5984ZM172.228 86.5984C172.228 85.8146 172.128 83.7278 170.07 83.7278C168.959 83.7278 167.93 84.3292 167.93 86.5984C167.93 88.8675 168.959 89.4689 170.07 89.4689C172.128 89.4689 172.228 87.3274 172.228 86.5984Z" fill="white"/>
<path d="M179.622 85.523V90.8905H177.6V82.3153H179.649L183.028 87.6463H183.064V82.3153H185.086V90.8905H183.028L179.649 85.523H179.622Z" fill="white"/>
<path d="M192.498 83.9829V82.3153H199.692V83.9829H197.106V90.8905H195.084V83.9829H192.489H192.498Z" fill="white"/>
<path d="M206.113 82.3153L209.336 90.8905H207.196L206.641 89.2867H203.536L202.998 90.8905H200.867L204.073 82.3153H206.122H206.113ZM206.195 87.8286L205.093 84.557L203.964 87.8286H206.195Z" fill="white"/>
<path d="M213.47 90.8905H210.92L213.935 86.4343L211.194 82.3153H213.589L215.228 85.1312L216.885 82.3153H219.28L216.53 86.4343L219.553 90.8905H217.003L215.228 87.938L213.461 90.8905H213.47Z" fill="white"/>
<path d="M234.451 87.8651C234.315 89.15 233.595 91.1366 230.563 91.1366C228.368 91.1366 226.365 90.1342 226.365 86.7624C226.365 82.2424 229.661 82.0692 230.49 82.0692C233.541 82.0692 234.297 83.9647 234.36 85.2314H232.375C232.184 83.8007 231.055 83.7369 230.59 83.7369C230.126 83.7369 228.541 83.8189 228.541 86.6895C228.541 88.3025 229.279 89.4689 230.645 89.4689C232.011 89.4689 232.348 88.503 232.448 87.8651H234.451Z" fill="white"/>
<path d="M241.81 82.3152C242.694 82.3152 244.724 82.5339 244.724 84.7483C244.724 86.2064 243.795 86.6985 243.231 86.8898V86.9172C244.406 87.2726 244.451 88.3661 244.451 89.004C244.488 90.1067 244.478 90.4348 244.779 90.8904H242.721C242.366 90.3801 242.475 89.9974 242.375 88.7124C242.275 87.6918 241.237 87.7282 240.991 87.7282H239.433V90.8904H237.412V82.3152H241.81ZM239.452 86.1608H241.3C242.439 86.1608 242.603 85.4956 242.603 85.0855C242.603 84.238 242.111 83.9828 241.227 83.9828H239.452V86.1608Z" fill="white"/>
<path d="M254.149 85.7234V87.2999H249.96V89.2228H254.832V90.8904H247.938V82.3152H254.704V83.9828H249.951V85.7234H254.149Z" fill="white"/>
<path d="M261.453 82.3152C262.273 82.3152 265.615 82.4154 265.615 86.5891C265.615 90.7628 262.655 90.8904 261.271 90.8904H257.774V82.3152H261.462H261.453ZM261.071 89.2228C262.646 89.2228 263.429 88.4026 263.429 86.6256C263.429 84.2471 262.036 83.9828 261.189 83.9828H259.777V89.2228H261.071Z" fill="white"/>
<path d="M270.822 82.3152V90.8904H268.801V82.3152H270.822Z" fill="white"/>
<path d="M273.665 83.9828V82.3152H280.859V83.9828H278.272V90.8904H276.251V83.9828H273.655H273.665Z" fill="white"/>
<path d="M77.3023 2.30337H111.493C119.071 2.30337 126.736 2.66157 131.883 7.62702C135.315 10.962 136.302 14.8529 136.302 19.2748C136.302 23.3386 135.488 27.3159 132.241 30.5644C129.983 32.9113 126.65 34.4429 123.49 35.0852V35.2705C126.02 35.7275 129.082 37.0738 130.797 38.8772C133.5 41.6811 133.772 45.5596 133.957 48.6228L134.414 56.6639C134.599 59.8259 135.043 62.3457 137.03 65.5078H124.848C123.317 62.8027 122.589 60.0853 122.503 57.2938L122.231 50.7967C122.145 48.0917 121.96 44.7443 119.528 42.3975C116.726 39.6924 111.764 39.5936 108.876 39.5936H88.4851V65.5078H77.3023V2.30337ZM88.4851 30.9226H110.505C113.751 30.9226 118.084 30.2927 120.701 28.4893C123.774 26.3277 124.404 23.2521 124.404 20.4482C124.404 16.3845 122.601 14.2229 121.157 13.1359C118.898 11.419 115.109 10.9744 109.16 10.9744H88.4975V30.9226H88.4851ZM154.903 10.9744V2.30337H212.916V10.9744H189.55V65.5078H178.367V10.9744H154.903ZM293.676 44.2873C293.319 50.9697 290.603 56.4786 287.27 59.9124C281.136 66.323 272.385 67.41 261.288 67.41C252.722 67.41 242.885 66.78 234.948 58.5661C228.085 51.439 226.468 42.311 226.468 34.1835C226.468 27.8594 227.456 17.5703 235.22 9.71448C242.983 1.8587 253.179 0.5 261.831 0.5C268.867 0.5 276.803 1.40169 283.123 5.46544C291.06 10.5174 292.775 17.2985 293.133 22.0787H281.407C280.951 17.2985 278.519 14.4082 276.174 12.6913C271.928 9.5292 265.793 8.98572 262.189 8.98572C256.771 8.98572 250.093 9.80094 244.872 15.1246C241.799 18.2867 238.379 23.9685 238.379 33.7265C238.379 42.7557 241.268 49.2528 244.971 53.0448C249.846 57.9238 256.154 58.8254 261.757 58.8254C265.09 58.8254 271.953 58.5537 276.285 55.3916C278.815 53.4894 281.704 49.8827 281.975 44.2873H293.701H293.676ZM54.2948 2.30337H0.701172V10.9744H54.2948V2.30337ZM54.2948 56.8368H0.701172V65.5078H54.2948V56.8368ZM54.2948 28.3411H0.701172V37.0121H54.2948V28.3411Z" fill="white"/>
</svg>
