<svg width="578" height="97" viewBox="0 0 578 97" fill="none" xmlns="http://www.w3.org/2000/svg">
<path d="M131.637 20.8735L137.887 63.0402H126.719L126.105 55.4759H122.197L121.527 63.0402H110.31L115.891 20.8735H131.637ZM125.83 47.9615C125.271 43.1762 124.713 37.2686 124.155 30.2387C123.039 38.3147 122.332 44.2223 122.034 47.9615H125.83Z" fill="white"/>
<path d="M150.176 20.8735H139.399V63.0305H150.176V20.8735Z" fill="white"/>
<path d="M177.706 46.3409H164.137V53.8552C164.062 54.8769 164.176 55.9037 164.471 56.8841C164.593 57.1128 164.78 57.2994 165.009 57.4194C165.238 57.5395 165.497 57.5874 165.753 57.5569C166.083 57.5998 166.419 57.5358 166.71 57.3743C167.001 57.2128 167.234 56.9622 167.374 56.6588C167.705 55.5318 167.837 54.3553 167.764 53.1825V48.5796H177.7V51.1546C177.748 52.8088 177.617 54.4634 177.309 56.0891C176.933 57.4228 176.287 58.664 175.41 59.7344C174.439 61.0192 173.148 62.0249 171.668 62.6507C169.852 63.348 167.916 63.672 165.973 63.6035C163.977 63.644 161.991 63.3212 160.11 62.6507C158.585 62.1284 157.219 61.2206 156.145 60.0145C155.228 58.9415 154.56 57.677 154.19 56.3128C153.762 54.3806 153.575 52.4025 153.632 50.424V40.3345C153.523 37.8987 153.942 35.468 154.862 33.2113C155.688 31.466 157.088 30.06 158.826 29.2296C160.975 28.2601 163.312 27.7824 165.668 27.8308C168.023 27.8792 170.339 28.4527 172.447 29.5096C174.244 30.4979 175.663 32.0598 176.477 33.9484C177.368 36.4459 177.767 39.0939 177.65 41.7444L177.706 46.3409ZM167.208 40.7321V38.2037C167.275 37.0375 167.181 35.8678 166.93 34.7273C166.853 34.4814 166.695 34.2693 166.481 34.1264C166.268 33.9835 166.012 33.9184 165.757 33.9419C165.009 33.9419 164.562 34.1662 164.417 34.6147C164.199 35.7979 164.106 37.0008 164.138 38.2037V40.7272L167.208 40.7321Z" fill="white"/>
<path d="M201.886 28.4458L197.697 44.9906L202.778 63.0482H192.559C191.554 58.4871 190.791 54.5612 190.269 51.2705C189.562 55.3831 188.799 59.309 187.98 63.0482H179.269L183.736 44.989L179.214 28.5021H187.981C189.396 35.5685 190.159 39.5878 190.271 40.5598C191.276 34.6522 192.04 30.633 192.561 28.5021L201.886 28.4458Z" fill="white"/>
<path d="M213.5 41.849H203.672V39.5491C203.585 37.4548 203.888 35.3625 204.567 33.3802C205.339 31.7327 206.636 30.3905 208.252 29.5659C210.629 28.4211 213.237 27.8455 215.872 27.8843C218.508 27.9231 221.098 28.5753 223.44 29.7896C224.261 30.3109 224.969 30.9908 225.525 31.7899C226.081 32.589 226.473 33.4913 226.679 34.4441C227.165 38.1993 227.352 41.9876 227.236 45.7727V63.1045H217.074V60.0193C216.541 61.1752 215.677 62.1451 214.592 62.8046C213.507 63.4641 212.251 63.7832 210.984 63.7209C209.189 63.723 207.436 63.175 205.959 62.1502C204.432 61.103 203.669 58.8412 203.669 55.3648V52.4486C203.475 50.6022 203.908 48.744 204.898 47.1762C206.67 45.6959 208.721 44.5897 210.928 43.9235C214.353 42.5781 216.196 41.6623 216.457 41.1763C216.787 40.2614 216.92 39.2867 216.848 38.3163C216.929 37.1221 216.796 35.923 216.457 34.7756C216.344 34.5158 216.156 34.2963 215.917 34.146C215.678 33.9957 215.399 33.9218 215.117 33.9339C214.41 33.9339 213.963 34.1581 213.777 34.6066C213.519 35.7841 213.425 36.9921 213.499 38.1956L213.5 41.849ZM216.795 46.5597C215.56 47.297 214.555 48.3655 213.891 49.645C213.586 50.8154 213.454 52.0248 213.5 53.234C213.427 54.4033 213.54 55.5769 213.835 56.7103C213.953 56.9746 214.152 57.1938 214.403 57.3353C214.655 57.4767 214.945 57.533 215.231 57.4957C215.481 57.5314 215.737 57.492 215.965 57.3823C216.193 57.2726 216.383 57.0976 216.513 56.8793C216.769 55.8346 216.863 54.7565 216.792 53.683L216.795 46.5597Z" fill="white"/>
<path d="M241.532 28.4442L241.372 31.6405C242.042 30.4624 243.004 29.4775 244.163 28.7805C245.322 28.1301 246.633 27.8012 247.961 27.8278C249.532 27.7624 251.081 28.2146 252.373 29.1153C253.45 29.8907 254.221 31.0223 254.55 32.3116C254.958 34.4355 255.127 36.5987 255.053 38.7605V62.9919H244.612V39.1049C244.673 37.643 244.599 36.1785 244.389 34.7305C244.241 34.2069 243.794 33.9451 243.05 33.9451C242.749 33.9046 242.443 33.9727 242.188 34.1371C241.932 34.3016 241.743 34.5518 241.654 34.8432C241.394 36.4385 241.3 38.0567 241.375 39.6714V63.008H230.866V28.4442H241.532Z" fill="white"/>
<path d="M282.462 20.8735V63.0402H272.02V60.5246C271.112 61.4995 270.034 62.2982 268.838 62.8808C267.756 63.3964 266.574 63.6647 265.377 63.6662C263.861 63.7074 262.373 63.2558 261.133 62.3787C260.058 61.6752 259.251 60.6277 258.843 59.4061C258.438 57.6039 258.269 55.7562 258.34 53.9099V37.6983C258.264 35.796 258.433 33.8919 258.843 32.0332C259.269 30.8195 260.097 29.7898 261.189 29.1169C262.472 28.2416 263.995 27.7913 265.545 27.8294C266.77 27.7985 267.988 28.0329 269.115 28.5167C270.243 29.0005 271.253 29.7222 272.078 30.633V20.8735H282.462ZM272.02 37.1382C272.074 36.2831 271.96 35.4258 271.685 34.6147C271.538 34.4238 271.349 34.2684 271.134 34.1597C270.919 34.0511 270.683 33.9919 270.442 33.9865C270.202 33.9811 269.963 34.0296 269.743 34.1285C269.524 34.2274 269.329 34.3743 269.173 34.5583C268.875 35.4031 268.761 36.3019 268.838 37.1946V54.0741C268.785 55.0026 268.899 55.933 269.173 56.8214C269.275 57.0413 269.443 57.2239 269.653 57.3443C269.863 57.4648 270.105 57.5171 270.346 57.4941C270.616 57.5237 270.889 57.4697 271.129 57.3395C271.368 57.2092 271.562 57.0089 271.685 56.765C271.99 55.5757 272.103 54.345 272.02 53.1197V37.1382Z" fill="white"/>
<path d="M309.992 46.3409H296.423V53.8552C296.348 54.8769 296.462 55.9037 296.757 56.8841C296.879 57.1128 297.066 57.2994 297.295 57.4194C297.524 57.5395 297.783 57.5874 298.039 57.5569C298.37 57.5998 298.705 57.5358 298.996 57.3743C299.287 57.2128 299.52 56.9622 299.66 56.6588C299.991 55.5318 300.123 54.3553 300.051 53.1825V48.5796H309.986V51.1546C310.034 52.8088 309.903 54.4634 309.595 56.0891C309.219 57.4228 308.573 58.664 307.696 59.7344C306.725 61.0192 305.434 62.0249 303.954 62.6507C302.138 63.348 300.202 63.672 298.259 63.6035C296.263 63.6441 294.277 63.3213 292.396 62.6507C290.871 62.1284 289.505 61.2206 288.431 60.0145C287.514 58.9415 286.846 57.677 286.476 56.3128C286.048 54.3806 285.861 52.4025 285.918 50.424V40.3345C285.809 37.8987 286.228 35.468 287.148 33.2113C287.989 31.4567 289.409 30.0494 291.168 29.2296C293.317 28.2603 295.654 27.7826 298.01 27.831C300.366 27.8794 302.681 28.4528 304.789 29.5096C306.582 30.4976 307.996 32.0563 308.809 33.9403C309.701 36.4379 310.099 39.0858 309.983 41.7363L309.992 46.3409ZM299.494 40.7321V38.2037C299.561 37.0375 299.467 35.8678 299.216 34.7273C299.139 34.4814 298.981 34.2693 298.767 34.1264C298.554 33.9835 298.298 33.9184 298.043 33.9419C297.335 33.9419 296.889 34.1662 296.703 34.6147C296.444 35.7922 296.351 37.0001 296.424 38.2037V40.7272L299.494 40.7321Z" fill="white"/>
<path d="M323.839 28.4442L323.448 32.9875C324.974 29.7344 327.171 28.0145 330.037 27.8278V39.9982C328.58 39.9004 327.121 40.1704 325.794 40.7836C325.372 41.0026 325.004 41.312 324.714 41.69C324.425 42.068 324.222 42.5052 324.119 42.9707C323.82 45.0875 323.707 47.2267 323.784 49.3633V62.9919H313.397V28.4442H323.839Z" fill="white"/>
<path d="M365.218 33.604H355.055V30.5203C355.14 29.568 355.007 28.6088 354.664 27.7167C354.521 27.5122 354.328 27.3481 354.103 27.2402C353.879 27.1322 353.63 27.0841 353.382 27.1003C353.084 27.0843 352.786 27.1486 352.521 27.2867C352.256 27.4248 352.033 27.6316 351.874 27.8857C351.486 28.647 351.313 29.4999 351.371 30.3529C351.304 31.4478 351.495 32.543 351.93 33.5492C352.735 34.6411 353.788 35.5239 355.002 36.1243C359.879 39.003 362.931 41.3774 364.16 43.2476C365.388 45.1177 366.021 48.1085 366.059 52.2201C366.189 54.4773 365.827 56.7359 364.998 58.838C364.074 60.4563 362.64 61.7192 360.921 62.427C358.733 63.4333 356.347 63.9317 353.941 63.8851C351.343 63.9597 348.768 63.3828 346.448 62.2065C344.624 61.3232 343.177 59.8106 342.371 57.9447C341.611 55.5938 341.29 53.1222 341.423 50.6541V47.9052H351.585V53.0087C351.489 54.0397 351.643 55.0789 352.033 56.0376C352.205 56.2708 352.434 56.4553 352.698 56.5732C352.963 56.6911 353.253 56.7383 353.54 56.7103C353.861 56.7291 354.18 56.6608 354.466 56.5127C354.751 56.3646 354.991 56.1421 355.161 55.8686C355.576 55.077 355.769 54.1869 355.72 53.2935C355.907 51.6012 355.556 49.8926 354.715 48.4138C353.172 46.952 351.467 45.6723 349.634 44.5995C347.743 43.4132 345.934 42.1018 344.217 40.6741C343.254 39.727 342.51 38.5779 342.04 37.3088C341.401 35.5494 341.097 33.6849 341.145 31.8127C340.992 29.3925 341.414 26.9704 342.375 24.7457C343.284 23.184 344.676 21.9633 346.339 21.2694C348.436 20.3651 350.703 19.926 352.984 19.9819C355.476 19.9186 357.953 20.3968 360.244 21.3837C361.936 22.0303 363.342 23.2633 364.208 24.86C364.979 27.1506 365.301 29.5696 365.157 31.9833L365.218 33.604Z" fill="white"/>
<path d="M379.68 20.8735V30.3513C380.521 29.5398 381.506 28.8931 382.583 28.4442C383.651 28.0261 384.788 27.8169 385.934 27.8278C387.607 27.7749 389.252 28.2666 390.625 29.2296C391.775 29.9899 392.609 31.1469 392.969 32.4822C393.344 34.7048 393.494 36.9598 393.416 39.2128V63.0402H382.974V38.7074C383.038 37.4133 382.945 36.1162 382.696 34.8448C382.578 34.5951 382.392 34.3841 382.16 34.2364C381.928 34.0886 381.658 34.0102 381.383 34.0102C381.108 34.0102 380.839 34.0886 380.606 34.2364C380.374 34.3841 380.188 34.5951 380.071 34.8448C379.78 36.0011 379.667 37.195 379.736 38.3855V63.0402H369.182V20.8735H379.68Z" fill="white"/>
<path d="M421.002 28.4458V62.9919H410.34L410.5 60.1319C409.85 61.2298 408.926 62.1384 407.819 62.7682C406.687 63.3784 405.418 63.6875 404.133 63.6662C402.781 63.711 401.439 63.422 400.225 62.8245C399.262 62.3402 398.465 61.5788 397.935 60.6373C397.462 59.7484 397.158 58.7784 397.041 57.7774C396.934 56.7677 396.88 54.786 396.88 51.8322V28.4458H407.378V52.0012C407.31 53.5937 407.384 55.1892 407.601 56.7683C407.749 57.2543 408.196 57.4973 408.941 57.4973C409.723 57.4973 410.188 57.2355 410.336 56.7119C410.553 55.0389 410.627 53.3505 410.559 51.6648V28.4458H421.002Z" fill="white"/>
<path d="M435.408 28.4442L435.248 31.6405C435.919 30.4624 436.88 29.4776 438.04 28.7805C439.199 28.1301 440.51 27.8013 441.837 27.8278C443.408 27.7624 444.957 28.2146 446.249 29.1153C447.326 29.8907 448.097 31.0223 448.427 32.3116C448.834 34.4355 449.003 36.5987 448.93 38.7605V62.9919H438.488V39.1049C438.549 37.643 438.474 36.1785 438.264 34.7305C438.115 34.2069 437.688 33.9451 436.982 33.9451C436.681 33.9046 436.376 33.9727 436.12 34.1371C435.865 34.3016 435.675 34.5518 435.586 34.8432C435.326 36.4384 435.232 38.0567 435.307 39.6714V63.008H424.742V28.4442H435.408Z" fill="white"/>
<path d="M463.217 28.4442L463.057 31.6405C463.728 30.4624 464.689 29.4775 465.849 28.7805C467.008 28.1301 468.319 27.8013 469.646 27.8278C471.217 27.7624 472.767 28.2146 474.058 29.1153C475.135 29.8908 475.906 31.0223 476.236 32.3116C476.643 34.4355 476.812 36.5987 476.739 38.7605V62.9919H466.241V39.1049C466.303 37.643 466.228 36.1785 466.018 34.7305C465.87 34.2069 465.443 33.9451 464.737 33.9451C464.436 33.9046 464.13 33.9727 463.875 34.1371C463.619 34.3016 463.43 34.5518 463.341 34.8432C463.08 36.4384 462.987 38.0567 463.062 39.6714V63.008H452.551V28.4442H463.217Z" fill="white"/>
<path d="M489.685 41.849H479.857V39.5491C479.769 37.4549 480.072 35.3626 480.75 33.3802C481.522 31.7327 482.819 30.3906 484.435 29.5659C486.812 28.4211 489.42 27.8455 492.056 27.8843C494.691 27.9231 497.282 28.5753 499.624 29.7896C500.444 30.3109 501.153 30.9908 501.709 31.7899C502.265 32.589 502.657 33.4913 502.862 34.4441C503.349 38.1993 503.536 41.9876 503.421 45.7727V63.1045H493.259V60.0193C492.726 61.1752 491.862 62.1451 490.777 62.8046C489.692 63.4641 488.436 63.7832 487.169 63.7209C485.374 63.723 483.621 63.175 482.144 62.1502C480.617 61.103 479.854 58.8412 479.854 55.3648V52.4486C479.66 50.6022 480.093 48.744 481.083 47.1762C482.855 45.6959 484.906 44.5897 487.113 43.9235C490.538 42.5781 492.381 41.6623 492.642 41.1763C492.964 40.2599 493.078 39.2828 492.977 38.3163C493.058 37.1221 492.925 35.923 492.586 34.7756C492.473 34.5158 492.285 34.2963 492.046 34.146C491.807 33.9957 491.528 33.9218 491.246 33.9339C490.539 33.9339 490.092 34.1581 489.906 34.6066C489.648 35.7841 489.554 36.9921 489.627 38.1956L489.685 41.849ZM492.98 46.5597C491.745 47.297 490.74 48.3654 490.076 49.645C489.77 50.8155 489.639 52.0248 489.685 53.234C489.612 54.4033 489.725 55.5769 490.02 56.7103C490.145 56.9692 490.345 57.1833 490.595 57.3238C490.844 57.4643 491.131 57.5243 491.416 57.4957C491.666 57.5314 491.922 57.492 492.15 57.3823C492.378 57.2726 492.568 57.0976 492.698 56.8793C492.954 55.8347 493.048 54.7565 492.977 53.683L492.98 46.5597Z" fill="white"/>
<path d="M517.549 28.4442L517.158 32.9875C518.684 29.7344 520.881 28.0145 523.747 27.8278V39.9982C522.289 39.9004 520.831 40.1704 519.504 40.7836C519.082 41.0026 518.713 41.312 518.424 41.69C518.135 42.068 517.932 42.5052 517.829 42.9707C517.529 45.0874 517.417 47.2267 517.494 49.3633V62.9919H507.051V28.4442H517.549Z" fill="white"/>
<path d="M535.418 41.849H525.59V39.5491C525.502 37.4548 525.805 35.3625 526.484 33.3802C527.256 31.7327 528.553 30.3906 530.17 29.5659C532.546 28.4211 535.154 27.8455 537.79 27.8843C540.425 27.9231 543.016 28.5753 545.358 29.7896C546.178 30.3109 546.887 30.9909 547.443 31.79C547.999 32.5891 548.391 33.4913 548.596 34.4441C549.083 38.1993 549.269 41.9876 549.154 45.7727V63.1045H539.05V60.0193C538.518 61.1752 537.654 62.1451 536.569 62.8046C535.484 63.4641 534.228 63.7832 532.961 63.7209C531.166 63.723 529.413 63.175 527.936 62.1502C526.409 61.103 525.646 58.8412 525.646 55.3648V52.4486C525.452 50.6022 525.885 48.744 526.875 47.1762C528.63 45.7014 530.662 44.5954 532.851 43.9235C536.276 42.5781 538.118 41.6623 538.379 41.1763C538.701 40.2599 538.816 39.2828 538.714 38.3163C538.795 37.1221 538.662 35.923 538.323 34.7756C538.21 34.5158 538.022 34.2963 537.783 34.146C537.544 33.9957 537.265 33.9218 536.983 33.9339C536.276 33.9339 535.829 34.1581 535.644 34.6066C535.385 35.7841 535.291 36.9921 535.365 38.1956L535.418 41.849ZM538.712 46.5597C537.478 47.2971 536.472 48.3655 535.809 49.645C535.503 50.8155 535.371 52.0248 535.418 53.234C535.344 54.4033 535.457 55.5768 535.753 56.7103C535.877 56.9692 536.078 57.1833 536.327 57.3238C536.577 57.4643 536.864 57.5243 537.148 57.4957C537.399 57.5314 537.654 57.492 537.882 57.3823C538.11 57.2726 538.301 57.0976 538.43 56.8793C538.686 55.8346 538.78 54.7565 538.709 53.683L538.712 46.5597Z" fill="white"/>
<path d="M563.283 20.8735V30.3513C564.124 29.5398 565.109 28.893 566.186 28.4442C567.254 28.0261 568.391 27.8169 569.537 27.8278C571.21 27.7749 572.855 28.2666 574.228 29.2296C575.379 29.9895 576.213 31.1466 576.573 32.4822C576.948 34.7048 577.098 36.9598 577.021 39.2128V63.0402H566.523V38.7074C566.587 37.4133 566.493 36.1162 566.244 34.8448C566.127 34.5951 565.941 34.3841 565.708 34.2364C565.476 34.0886 565.207 34.0102 564.932 34.0102C564.657 34.0102 564.387 34.0886 564.155 34.2364C563.923 34.3841 563.737 34.5951 563.619 34.8448C563.329 36.0011 563.216 37.195 563.284 38.3855V63.0402H552.841V20.8735H563.283Z" fill="white"/>
<path d="M440.434 72.0207H448.698V73.3661H445.291V82.6766H443.839V73.3661H440.434V72.0207Z" fill="white"/>
<path d="M457.242 82.6766L455.12 79.3113H451.826V82.6203H450.374V71.966H454.506C455.629 71.897 456.738 72.2351 457.633 72.9187C458.005 73.2456 458.298 73.6522 458.493 74.1085C458.687 74.5648 458.776 75.0592 458.755 75.555C458.78 76.3302 458.565 77.0942 458.141 77.7421C457.721 78.351 457.112 78.8036 456.41 79.0297L458.867 82.6187L457.242 82.6766ZM454.561 78.0222C455.299 78.0595 456.028 77.842 456.626 77.4058C456.877 77.1827 457.072 76.9048 457.198 76.5936C457.324 76.2824 457.377 75.9463 457.352 75.6113C457.377 75.2846 457.323 74.9567 457.197 74.6546C457.071 74.3525 456.876 74.0847 456.626 73.8731C456.019 73.4608 455.292 73.2637 454.561 73.313H451.88V78.0238L454.561 78.0222Z" fill="white"/>
<path d="M462.77 72.0207H461.318V82.6766H462.77V72.0207Z" fill="white"/>
<path d="M473.713 82.6766L472.592 80.1015H467.007L465.885 82.6766H464.389L469.079 72.0207H470.587L475.277 82.6766H473.713ZM467.571 78.7513H472.039L469.805 73.5915L467.571 78.7513Z" fill="white"/>
<path d="M476.841 72.0207H478.293V81.3859H482.931V82.6734H476.841V72.0207Z" fill="white"/>
<path d="M496.609 82.6766L495.488 80.1015H489.905L488.783 82.6766H487.285L491.975 72.0207H493.483L498.173 82.6766H496.609ZM490.467 78.7513H494.935L492.701 73.5915L490.467 78.7513Z" fill="white"/>
<path d="M497.391 72.0207H505.655V73.3661H502.248V82.6766H500.797V73.3661H497.391V72.0207Z" fill="white"/>
<path d="M505.99 72.0207H514.254V73.3661H510.847V82.6766H509.395V73.3661H505.99V72.0207Z" fill="white"/>
<path d="M522.742 72.6387C523.573 73.1026 524.267 73.7803 524.752 74.6022C525.242 75.4328 525.493 76.3839 525.478 77.3495C525.491 78.3147 525.24 79.265 524.752 80.0967C524.267 80.9187 523.573 81.5964 522.742 82.0602C521.878 82.5365 520.908 82.7862 519.922 82.7862C518.936 82.7862 517.966 82.5365 517.102 82.0602C516.27 81.5965 515.575 80.9189 515.09 80.0967C514.603 79.265 514.351 78.3147 514.365 77.3495C514.348 76.3833 514.6 75.4317 515.09 74.6006C515.576 73.7785 516.27 73.1008 517.102 72.6371C517.968 72.1658 518.937 71.9189 519.922 71.9189C520.907 71.9189 521.876 72.1658 522.742 72.6371M517.883 73.7637C517.265 74.1117 516.745 74.6139 516.376 75.2218C516.007 75.8509 515.813 76.5674 515.813 77.2972C515.813 78.0269 516.007 78.7434 516.376 79.3725C516.74 79.9995 517.259 80.5212 517.883 80.887C518.509 81.2576 519.223 81.4511 519.949 81.447C520.676 81.4569 521.391 81.263 522.015 80.887C522.639 80.5212 523.158 79.9995 523.523 79.3725C523.891 78.7434 524.085 78.0269 524.085 77.2972C524.085 76.5674 523.891 75.8509 523.523 75.2218C523.153 74.6139 522.634 74.1117 522.015 73.7637C521.39 73.3904 520.676 73.1967 519.949 73.2036C519.223 73.1995 518.509 73.393 517.883 73.7637Z" fill="white"/>
<path d="M534.413 82.6766L532.291 79.3114H528.997V82.6203H527.545V71.966H531.732C532.854 71.8971 533.964 72.2353 534.858 72.9188C535.23 73.2456 535.524 73.6522 535.718 74.1085C535.912 74.5648 536.002 75.0592 535.98 75.555C536.005 76.3302 535.791 77.0942 535.366 77.7422C534.946 78.3509 534.338 78.8035 533.636 79.0297L536.092 82.6187L534.413 82.6766ZM531.732 78.0222C532.47 78.0595 533.199 77.842 533.798 77.4058C534.048 77.1828 534.243 76.9049 534.369 76.5937C534.495 76.2824 534.548 75.9463 534.523 75.6113C534.548 75.2846 534.495 74.9568 534.368 74.6546C534.242 74.3525 534.047 74.0847 533.798 73.8731C533.19 73.4608 532.463 73.2638 531.732 73.3131H529.051V78.0238L531.732 78.0222Z" fill="white"/>
<path d="M546.077 72.0207H547.529V82.6766H546.021L539.991 74.4332V82.6766H538.546V72.0207H539.997L546.087 80.3204L546.077 72.0207Z" fill="white"/>
<path d="M550.551 72.0207H557.922V73.3661H552.003V76.6188H557.309V77.9643H552.003V81.3859H558.145V82.6734H550.551V72.0207Z" fill="white"/>
<path d="M568.475 72.0207L564.51 79.0313V82.6766H563.002V79.0876L558.982 72.0207H560.49L563.728 77.4605L566.967 72.0207H568.475Z" fill="white"/>
<path d="M574.673 73.5351C574.202 73.3919 573.713 73.3165 573.221 73.3114C572.715 73.2834 572.212 73.4001 571.769 73.6478C571.594 73.7496 571.45 73.8972 571.351 74.0749C571.253 74.2526 571.204 74.4537 571.21 74.6569C571.202 74.9884 571.322 75.3101 571.545 75.555C571.781 75.8004 572.067 75.9915 572.383 76.115L573.723 76.6204L575.453 77.2368C575.894 77.4412 576.279 77.7492 576.575 78.1348C576.893 78.5941 577.051 79.1467 577.022 79.7056C577.039 80.2888 576.862 80.8611 576.521 81.3328C576.164 81.8121 575.68 82.1813 575.125 82.3982C574.47 82.6677 573.767 82.8012 573.059 82.7909C572.274 82.7953 571.495 82.6426 570.769 82.3419C570.066 82.0519 569.422 81.6333 568.87 81.1074L569.54 79.8199C570.041 80.3023 570.628 80.6846 571.271 80.9465C571.852 81.2013 572.479 81.3349 573.114 81.3392C573.698 81.3776 574.281 81.241 574.788 80.9465C574.98 80.8291 575.137 80.6632 575.245 80.4655C575.353 80.2678 575.407 80.0452 575.402 79.8199C575.418 79.4707 575.298 79.129 575.067 78.8671C574.831 78.6217 574.546 78.4306 574.229 78.3071L572.833 77.858L571.103 77.2416C570.661 77.0392 570.276 76.7308 569.981 76.3436C569.659 75.8862 569.501 75.3322 569.534 74.7728C569.518 74.2329 569.674 73.702 569.981 73.2583C570.322 72.7995 570.787 72.4491 571.321 72.2492C571.944 72.0106 572.608 71.8964 573.276 71.9129C573.919 71.9093 574.559 72.0037 575.175 72.1929C575.746 72.3575 576.291 72.603 576.793 72.922L576.179 74.2095C575.695 73.8938 575.168 73.6484 574.615 73.4804" fill="white"/>
<path d="M94.5611 0.123291H49.4423V45.4219H94.5611V0.123291Z" fill="white"/>
<path d="M26.0449 43.6435L25.2629 36.0165H19.5117L18.6736 43.6435H26.0449Z" fill="white"/>
<path d="M22.4153 7.75031C20.7765 16.7984 19.7526 23.4164 19.3434 27.6041H24.8719C24.0525 22.2576 23.2336 15.6397 22.4153 7.75031Z" fill="white"/>
<path d="M9.6838 0.123291H0.134766V43.6435H2.14425L9.6838 0.123291Z" fill="white"/>
<path d="M33.9177 0.123291L42.3499 43.6435H43.4716V0.123291H33.9177Z" fill="white"/>
<path d="M86.9671 51.1578C87.7528 53.8504 88.0922 56.6544 87.9718 59.4576V61.5885H74.5112V57.6068C74.6209 56.4033 74.4486 55.1907 74.008 54.0661C73.8098 53.7982 73.5468 53.5855 73.244 53.4481C72.9412 53.3107 72.6085 53.2531 72.2773 53.2807C71.8925 53.2653 71.5103 53.3502 71.1677 53.527C70.8252 53.7038 70.534 53.9666 70.3223 54.2898C69.8152 55.2347 69.5831 56.3038 69.6525 57.375C69.5677 58.7659 69.8368 60.1555 70.4345 61.413C71.5304 62.7936 72.9244 63.9058 74.5112 64.6657C80.9509 68.3298 85.027 71.3394 86.7395 73.6945C88.452 76.0496 89.2895 79.8446 89.2522 85.0795C89.4249 87.9535 88.9477 90.8295 87.8564 93.4919C87.3495 94.4203 86.6669 95.2404 85.8469 95.906H92.7711V51.1578H86.9671Z" fill="white"/>
<path d="M57.7623 92.4908C56.7836 89.5088 56.3494 86.3738 56.4803 83.2367V79.7572H69.941V86.2624C69.8185 87.5762 70.0097 88.9003 70.4986 90.125C70.7343 90.4258 71.0426 90.6611 71.3943 90.8084C71.7461 90.9557 72.1295 91.0102 72.5081 90.9667C72.9325 90.9987 73.3578 90.9169 73.7404 90.7297C74.123 90.5425 74.4493 90.2566 74.6858 89.9013C75.2288 88.9077 75.4804 87.78 75.4117 86.6487C75.4117 83.5082 74.9652 81.4519 74.0721 80.4798C71.9797 78.6305 69.696 77.0119 67.2601 75.6515C64.7719 74.1469 62.3845 72.4802 60.1131 70.6623C58.8389 69.4787 57.8465 68.0221 57.2095 66.4006C56.3598 64.1649 55.9611 61.7819 56.0365 59.39C55.9071 56.6243 56.3249 53.8602 57.2655 51.2576H49.4423V96.1233H60.339C59.1825 95.1826 58.2799 93.9651 57.7142 92.5826" fill="white"/>
</svg>
