<svg width="416" height="66" viewBox="0 0 416 66" fill="none" xmlns="http://www.w3.org/2000/svg">
<path d="M24.4052 44.767C32.7355 44.767 37.1303 39.4848 37.1303 32.8818C37.1303 27.3352 33.3916 22.7793 28.7345 22.053C32.8669 21.1958 36.2777 17.4968 36.2777 11.9505C36.2777 6.07383 32.0143 0.72535 23.684 0.72535H0.660483V44.767H24.4052ZM21.6504 18.3577H9.97338V8.78236H21.6504C24.7989 8.78236 26.7667 10.8292 26.7667 13.6026C26.7667 16.3761 24.7989 18.3577 21.6504 18.3577ZM21.9779 36.6477H9.97338V26.412H21.9782C25.6514 26.412 27.6192 28.7892 27.6192 31.5623C27.6192 34.7318 25.5204 36.6467 21.9782 36.6467L21.9779 36.6477ZM75.1087 44.767V36.5145H53.4631V26.5442H74.6498V18.2917H53.4631V8.98018H75.1087V0.72667H44.1489V44.767H75.1087ZM123.19 44.767L106.332 0.72667H94.6555L77.7325 44.767H88.3584L91.1133 37.3058H109.873L112.562 44.767H123.19ZM107.314 29.0533H93.6716L100.493 10.1028L107.314 29.0533ZM144.834 45.5606C158.149 45.5606 164.577 38.0994 164.577 27.1384V0.72667H155.068V26.8743C155.068 33.015 151.591 37.2409 144.835 37.2409C138.079 37.2409 134.537 33.015 134.537 26.8743V0.72667H125.091V27.2046C125.091 38.0335 131.519 45.5606 144.834 45.5606H144.834ZM194.814 45.5606C201.767 45.5606 206.883 42.5234 210.753 37.7031L207.605 35.7222C204.85 39.5521 200.062 42.1271 194.814 42.1271C184.516 42.1271 176.579 34.1377 176.579 22.7803C176.579 11.2911 184.516 3.43355 194.814 3.43355C200.062 3.43355 204.85 6.00855 207.605 9.8384L210.753 7.79159C207.015 3.10351 201.767 0 194.814 0C182.417 0 172.644 9.24427 172.644 22.7803C172.644 36.3164 182.419 45.5606 194.816 45.5606H194.814ZM248.535 44.7693L235.878 26.2801C242.371 26.0164 248.012 21.5921 248.012 13.6023C248.012 5.54663 242.24 0.72667 234.697 0.72667H218.364V44.767H222.103V26.5442H231.745L244.011 44.767L248.535 44.7693ZM234.369 23.1107H222.103V4.16022H234.369C240.141 4.16022 244.077 8.05601 244.077 13.6023C244.077 19.1486 240.141 23.1107 234.369 23.1107ZM293.337 44.767L275.43 0.72667H270.773L252.867 44.767H257.197L261.525 33.9395H284.679L289.008 44.767H293.337ZM283.433 30.5046H262.771L273.069 4.75468L283.433 30.5046ZM318.131 44.767C325.937 44.767 330.66 40.2108 330.66 32.8818C330.66 27.6656 326.79 22.7793 322.132 22.053C326.068 21.2617 329.807 17.4968 329.807 11.9505C329.807 5.01745 325.084 0.72535 317.738 0.72535H299.765V44.767H318.131ZM317.28 20.4678H303.503V4.16022H317.278C322.919 4.16022 325.87 7.85786 325.87 12.3478C325.871 16.904 322.919 20.4694 317.279 20.4694L317.28 20.4678ZM317.542 41.3332H303.503V23.903H317.541C323.641 23.903 326.724 28.1288 326.724 32.6187C326.725 37.9672 323.313 41.3348 317.541 41.3348L317.542 41.3332ZM343.779 44.7667V0.72667H340.04V44.767L343.779 44.7667ZM379.593 44.7667V41.3348H358.406V0.72667H354.667V44.767L379.593 44.7667ZM412.652 44.7667V41.3348H391.465V0.72667H387.726V44.767L412.652 44.7667Z" fill="white"/>
<path d="M7.08583 65.9997C10.7951 65.9997 13.658 63.4609 13.658 59.7462C13.658 56.0314 10.7951 53.493 7.08583 53.493C3.37659 53.493 0.513672 56.0291 0.513672 59.7465C0.513672 63.4639 3.37659 65.9997 7.08583 65.9997ZM7.08583 62.7732C5.33913 62.7732 4.20359 61.4319 4.20359 59.7462C4.20359 58.0604 5.33913 56.7195 7.08583 56.7195C8.83253 56.7195 9.96806 58.0607 9.96806 59.7465C9.96806 61.4323 8.83253 62.7732 7.08583 62.7732ZM36.203 65.7821V53.6924H32.5642V59.4201L28.3869 53.6924H24.6416V65.7821H28.2788V59.6558L32.7083 65.7821H36.203ZM56.0275 65.7821V62.5922H51.4706V53.6924H47.8335V65.7821H56.0275ZM70.8105 65.7821V53.6924H67.1716V65.7821H70.8105ZM94.002 65.7821V53.6924H90.3635V59.4201L86.1862 53.6924H82.4409V65.7821H86.0794V59.6558L90.5076 65.7821H94.002ZM114.745 65.7821V62.5922H109.268V61.2691H114.616V58.0788H109.268V56.8823H114.742V53.6924H105.633V65.7821H114.745ZM151.081 65.7821L148.902 61.5045C149.576 61.1706 150.139 60.6467 150.522 59.9964C150.906 59.3462 151.093 58.5978 151.061 57.8424C151.061 55.5767 149.548 53.6918 146.739 53.6918H140.33V65.7821H143.967V61.976H145.282L146.938 65.7824L151.081 65.7821ZM146.181 58.7857H143.966V56.8823H146.181C146.793 56.8823 147.369 57.1725 147.369 57.825C147.37 58.4956 146.794 58.7857 146.181 58.7857ZM171.335 65.7824V62.5922H165.862V61.2691H171.21V58.0788H165.862V56.8823H171.335V53.6924H162.225V65.7821L171.335 65.7824ZM188.854 65.7824V56.8823H192.06V53.6924H181.996V56.8823H185.219V65.7821L188.854 65.7824ZM214.099 65.7824L209.671 53.6924H205.097L200.668 65.7821H204.791L205.223 64.3683H209.545L209.977 65.7821L214.099 65.7824ZM208.573 61.1784H206.196L207.384 57.2819L208.573 61.1784ZM228.073 65.7824V53.6924H224.436V65.7821L228.073 65.7824ZM247.898 65.7824V62.5922H243.342V53.6924H239.705V65.7821L247.898 65.7824ZM287.583 65.7824V53.6924H282.559L280.452 59.491L278.346 53.6924H273.322V65.7821H276.959V58.5137L279.642 65.7821H281.263L283.945 58.5137V65.7821L287.583 65.7824ZM311.351 65.7824L306.921 53.6924H302.348L297.918 65.7821H302.042L302.474 64.3683H306.795L307.227 65.7821L311.351 65.7824ZM305.823 61.1784H303.446L304.635 57.2819L305.823 61.1784ZM326.35 66C329.573 66 331.535 64.4593 331.535 61.7949C331.535 57.2997 324.854 58.2786 324.854 57.1365C324.854 56.8283 325.05 56.5929 325.771 56.5929C327.043 56.6092 328.278 57.0275 329.301 57.7887L331.245 55.1966C329.793 54.0554 327.991 53.4593 326.15 53.5108C322.855 53.5108 321.162 55.4682 321.162 57.5167C321.162 62.2839 327.861 61.1055 327.861 62.2644C327.861 62.7356 327.212 62.9169 326.528 62.9169C325.086 62.9187 323.7 62.3603 322.657 61.3581L320.766 64.0768C322.046 65.2384 323.793 66 326.35 66ZM348.263 65.7824V56.8823H351.468V53.6924H341.403V56.8823H344.626V65.7821L348.263 65.7824ZM371.562 65.7824V62.5922H366.089V61.2691H371.437V58.0788H366.089V56.8823H371.563V53.6924H362.452V65.7821L371.562 65.7824ZM393.62 65.7824L391.441 61.5048C392.115 61.1715 392.679 60.6478 393.063 59.9977C393.447 59.3476 393.634 58.5991 393.603 57.8434C393.603 55.5777 392.09 53.6928 389.281 53.6928H382.871V65.7821H386.508V61.976H387.823L389.479 65.7824H393.62ZM388.722 58.7857H386.507V56.8823H388.722C389.334 56.8823 389.91 57.1725 389.91 57.825C389.911 58.4956 389.334 58.7857 388.722 58.7857ZM411.248 65.7821V60.9789L415.714 53.6924H411.626L409.43 57.7709L407.197 53.6924H403.109L407.611 60.9789V65.7821H411.248Z" fill="white"/>
</svg>
