<svg width="266" height="96" viewBox="0 0 266 96" fill="none" xmlns="http://www.w3.org/2000/svg">
<path d="M33.838 94.5591H29.0312L9.2498 64.1893H9.05587C9.31907 67.75 9.45759 71.0197 9.45759 73.9985V94.5729H5.56503V58.3841H10.3164L30.0424 88.6292H30.2364C30.2087 88.1858 30.1255 86.7588 30.0147 84.3342C29.9039 81.9096 29.8624 80.1916 29.8901 79.1525V58.3841H33.8242V94.5729L33.838 94.5591Z" fill="white"/>
<path d="M64.9785 94.5591H44.8092V58.3703H64.9785V62.1111H49.0204V73.7768H64.0227V77.4899H49.0204V90.8044H64.9785V94.5729V94.5591Z" fill="white"/>
<path d="M85.0923 94.5591H80.8812V62.1111H69.4251V58.3703H96.5484V62.1111H85.0923V94.5591Z" fill="white"/>
<path d="M130.39 94.5591L123.09 70.327C122.743 69.2602 122.356 67.9024 121.926 66.2675C121.497 64.6327 121.275 63.649 121.261 63.3165C120.901 65.4917 120.319 67.8747 119.53 70.4655L112.451 94.5591H108.295L98.6678 58.3703H103.128L108.849 80.7181C109.639 83.8493 110.221 86.6895 110.581 89.2388C111.024 86.2185 111.689 83.2674 112.562 80.3717L119.045 58.3703H123.505L130.307 80.5796C131.097 83.1427 131.761 86.0245 132.316 89.2388C132.634 86.8974 133.216 84.0433 134.103 80.6765L139.796 58.3703H144.256L134.574 94.5591H130.39Z" fill="white"/>
<path d="M182.323 76.4093C182.323 82.2006 180.855 86.7588 177.932 90.0701C175.009 93.3814 170.936 95.044 165.714 95.044C160.492 95.044 156.267 93.4091 153.371 90.1532C150.476 86.8973 149.022 82.2975 149.022 76.3538C149.022 70.4101 150.476 65.8934 153.385 62.6514C156.294 59.4094 160.408 57.7884 165.756 57.7884C171.103 57.7884 175.009 59.4371 177.932 62.7345C180.855 66.032 182.309 70.5902 182.309 76.3954L182.323 76.4093ZM153.482 76.4093C153.482 81.3139 154.521 85.0269 156.613 87.5624C158.705 90.0978 161.738 91.3586 165.714 91.3586C169.69 91.3586 172.751 90.0978 174.801 87.5762C176.851 85.0547 177.876 81.3277 177.876 76.4093C177.876 71.4908 176.851 67.847 174.815 65.3254C172.779 62.8038 169.759 61.5569 165.769 61.5569C161.78 61.5569 158.705 62.8177 156.627 65.3531C154.549 67.8885 153.496 71.5739 153.496 76.4093H153.482Z" fill="white"/>
<path d="M195.608 79.5127V94.5591H191.397V58.3703H201.329C205.762 58.3703 209.045 59.2154 211.164 60.9196C213.284 62.6237 214.35 65.173 214.35 68.5951C214.35 73.375 211.926 76.6171 207.078 78.2935L216.899 94.5591H211.926L203.157 79.5127H195.608ZM195.608 75.8966H201.37C204.335 75.8966 206.524 75.3009 207.909 74.1232C209.294 72.9455 209.987 71.1721 209.987 68.8168C209.987 66.4615 209.28 64.7019 207.867 63.649C206.454 62.596 204.196 62.0695 201.079 62.0695H195.608V75.9105V75.8966Z" fill="white"/>
<path d="M249.84 94.5591H244.895L231.707 77.005L227.926 80.3717V94.5591H223.714V58.3703H227.926V76.3123L244.341 58.3703H249.314L234.755 74.0955L249.854 94.5729L249.84 94.5591Z" fill="white"/>
<path d="M24.7776 23.8441H41.3037V47.4943C38.7271 48.3117 36.109 48.9352 33.4493 49.3508C30.7896 49.7665 27.7005 49.9882 24.2097 49.9882C16.854 49.9882 11.119 47.7991 7.01868 43.421C2.91834 39.0429 0.868164 32.9052 0.868164 25.0218C0.868164 19.9648 1.8794 15.5312 3.91572 11.735C5.93819 7.92495 8.86107 5.0293 12.6844 3.02035C16.4938 0.997547 20.9543 0 26.0797 0C31.2052 0 36.0951 0.955982 40.5833 2.85409L38.3946 7.84183C34.0034 5.98528 29.7784 5.04315 25.7196 5.04315C19.8046 5.04315 15.1778 6.80271 11.8532 10.3357C8.52861 13.8687 6.8663 18.7456 6.8663 25.0079C6.8663 31.5751 8.4732 36.549 11.6731 39.9434C14.8731 43.3379 19.5829 45.0281 25.7888 45.0281C29.155 45.0281 32.4519 44.6402 35.6657 43.8643V28.9011H24.7915V23.8441H24.7776Z" fill="white"/>
<path d="M81.379 49.337H54.2696V0.692741H81.379V5.72204H59.9214V21.3918H80.0769V26.3796H59.9214V44.28H81.379V49.337Z" fill="white"/>
<path d="M131.442 49.337H124.987L98.4176 8.52071H98.1544C98.5146 13.3145 98.6808 17.7065 98.6808 21.6966V49.337H93.4584V0.692741H99.8444L126.358 41.3428H126.621C126.58 40.747 126.483 38.8212 126.317 35.5653C126.15 32.3094 126.109 29.9957 126.15 28.5963V0.692741H131.442V49.337Z" fill="white"/>
<path d="M146.167 49.337V0.692741H151.819V49.3231H146.167V49.337Z" fill="white"/>
<path d="M203.24 0.692741V32.157C203.24 37.6989 201.563 42.0632 198.211 45.236C194.859 48.4087 190.26 49.9882 184.414 49.9882C178.568 49.9882 174.038 48.3949 170.825 45.1944C167.625 41.9939 166.018 37.6158 166.018 32.0185V0.692741H171.67V32.4203C171.67 36.4797 172.778 39.5971 174.994 41.7723C177.211 43.9475 180.466 45.0281 184.774 45.0281C189.082 45.0281 192.033 43.9336 194.249 41.7584C196.466 39.5832 197.574 36.4382 197.574 32.3648V0.692741H203.24Z" fill="white"/>
<path d="M244.839 36.3966C244.839 40.6777 243.287 44.0167 240.184 46.4136C237.081 48.8105 232.87 50.002 227.551 50.002C221.788 50.002 217.355 49.2539 214.252 47.7714V42.3126C216.247 43.1577 218.422 43.8228 220.777 44.3077C223.132 44.7926 225.459 45.042 227.759 45.042C231.526 45.042 234.366 44.3216 236.278 42.8945C238.189 41.4675 239.131 39.4724 239.131 36.9231C239.131 35.2328 238.799 33.8612 238.12 32.7805C237.441 31.6998 236.319 30.7161 234.726 29.8017C233.147 28.8873 230.723 27.862 227.495 26.7121C222.966 25.0911 219.738 23.1791 217.799 20.9623C215.859 18.7456 214.89 15.8499 214.89 12.2754C214.89 8.53456 216.303 5.54193 219.115 3.32516C221.927 1.10839 225.653 0 230.294 0C234.934 0 239.575 0.886708 243.634 2.66012L241.874 7.57858C237.857 5.8883 233.964 5.05701 230.169 5.05701C227.177 5.05701 224.836 5.69433 223.146 6.98283C221.456 8.27132 220.624 10.0586 220.624 12.3446C220.624 14.0349 220.929 15.4066 221.553 16.4872C222.176 17.5679 223.215 18.5516 224.697 19.4522C226.166 20.3527 228.423 21.3364 231.471 22.4309C236.569 24.2459 240.073 26.1995 241.999 28.2915C243.911 30.3698 244.88 33.0853 244.88 36.4105L244.839 36.3966Z" fill="white"/>
<path d="M254.371 90.2641C254.371 89.2389 254.62 88.2829 255.132 87.3962C255.645 86.5095 256.338 85.8029 257.238 85.2902C258.125 84.7776 259.094 84.5144 260.119 84.5144C261.144 84.5144 262.086 84.7638 262.987 85.2764C263.887 85.789 264.58 86.4818 265.092 87.3823C265.605 88.269 265.868 89.2389 265.868 90.2641C265.868 91.2894 265.619 92.2038 265.134 93.0905C264.635 93.9772 263.943 94.6838 263.056 95.2103C262.17 95.7368 261.186 96 260.133 96C259.08 96 258.111 95.7368 257.21 95.2103C256.324 94.6838 255.631 93.9772 255.132 93.1043C254.634 92.2176 254.384 91.2755 254.384 90.2641M255.188 90.2641C255.188 91.1508 255.41 91.9682 255.853 92.7303C256.296 93.4923 256.906 94.1019 257.667 94.5453C258.429 94.9886 259.26 95.2103 260.133 95.2103C261.006 95.2103 261.837 94.9886 262.599 94.5453C263.361 94.1019 263.957 93.5061 264.4 92.7441C264.843 91.9821 265.065 91.1647 265.065 90.2641C265.065 89.3635 264.843 88.56 264.4 87.798C263.957 87.0359 263.361 86.4402 262.599 85.9968C261.837 85.5535 261.02 85.3318 260.119 85.3318C259.219 85.3318 258.416 85.5535 257.654 85.9968C256.892 86.4402 256.296 87.0359 255.853 87.798C255.41 88.5461 255.188 89.3774 255.188 90.278M262.46 88.8925C262.46 89.2943 262.35 89.6545 262.142 89.9732C261.92 90.2918 261.615 90.5135 261.228 90.6659L263.042 93.6862H261.754L260.175 90.9846H259.15V93.6862H258.014V86.8835H260.009C260.854 86.8835 261.477 87.0498 261.865 87.3823C262.267 87.7148 262.46 88.2136 262.46 88.8925ZM259.15 90.0424H259.967C260.383 90.0424 260.701 89.9316 260.951 89.7238C261.2 89.516 261.325 89.2389 261.325 88.9202C261.325 88.5323 261.214 88.269 260.992 88.1028C260.77 87.9365 260.424 87.8534 259.953 87.8534H259.15V90.0424Z" fill="white"/>
</svg>
