<svg width="272" height="94" viewBox="0 0 272 94" fill="none" xmlns="http://www.w3.org/2000/svg">
<path d="M71.7533 74.7472L76.9684 56.771L82.1834 74.7472H71.7533ZM79.0047 0.5L73.4172 22.0023L67.929 0.5H37.2595L34.7017 46.2418H0.158203V61.9247H15.9523V91.9836H37.3589V61.9247H52.7557L54.3202 16.824L61.6957 46.2418L45.8768 91.9836H66.8115L68.7733 85.0545H85.1386L87.1005 91.9836H108.035L92.2162 46.2418H82.8043L90.453 15.7144L92.241 46.2418H112.456L109.376 0.5H79.0047Z" fill="white"/>
<path d="M198.404 46.2418V21.016L211.169 46.2418H198.404ZM181.94 63.5029V46.2418H194.704L181.94 63.5029ZM141.138 28.9807L146.353 11.0046L151.568 28.9807H141.138ZM254.23 63.3549L247.451 62.5658C243.502 62.1713 242.856 61.5302 242.856 60.4698C242.856 59.0396 244.371 58.1766 250.108 58.1766C256.465 58.0533 262.773 59.3849 268.534 62.0973V49.2255C261.73 45.9459 254.23 44.3924 246.681 44.713C243.452 44.713 240.224 44.9349 237.021 45.4281V0.5H218.917V25.5285L206.525 0.5H180.251V46.2418H177.445L161.626 0.5H131.081L115.262 46.2418H112.456V91.9836H156.163V76.1034H132.049V46.2418H136.196L138.158 39.3127H154.524L156.485 46.2418H160.533V91.9836H181.915V70.2347L194.704 92.0083H219.712L203.52 66.24L219.637 46.2418H233.171C223.933 48.683 219.712 53.886 219.712 60.2972C219.712 68.2127 225.647 72.7252 237.542 74.4267L243.85 75.339C247.202 75.8075 248.27 76.5226 248.27 77.8789C248.27 79.457 246.482 80.0981 242.285 80.0981C234.537 80.0981 226.913 77.9528 220.308 73.9581V87.1505C227.857 91.4904 236.474 93.6851 245.191 93.4878C260.786 93.4878 271.514 87.1505 271.514 76.8185C271.514 68.3113 265.256 64.5878 254.205 63.3549" fill="white"/>
</svg>
