<svg width="200" height="148" viewBox="0 0 200 148" fill="none" xmlns="http://www.w3.org/2000/svg">
<path d="M75.6929 31.1903C75.8384 30.5974 76.1565 30.7006 76.6153 30.8817C79.1112 31.7999 81.632 32.6493 84.1222 33.5747C85.0816 33.9296 85.528 33.5944 86.0732 32.7889C87.7998 30.2306 89.6716 27.7626 91.4846 25.2583L91.7312 25.4272C90.0968 28.2966 88.4623 31.165 86.8279 34.0326L87.0169 34.5074L97.2649 35.3741C98.0418 35.4425 98.0837 34.9677 98.1109 34.3727C98.246 31.491 98.4193 28.6121 98.7153 25.7355C98.9791 28.8937 99.2432 32.0518 99.5167 35.3326C103.594 35.4598 107.486 34.8429 111.668 33.8978L106.686 25.2265L106.797 25.1262C107.948 26.5731 109.127 27.9979 110.238 29.4717C111.051 30.5456 111.807 31.662 112.502 32.8161C112.872 33.4305 113.242 33.5629 113.89 33.3327C116.497 32.4097 119.114 31.5161 121.832 30.7645C119.257 32.2335 116.682 33.717 114.011 35.2447C117.28 41.0839 119.726 47.345 121.28 53.8511C126.156 52.5255 130.865 50.6495 135.316 48.2595C132.319 42.09 128.341 36.8091 123.66 32.0133C129.244 36.0847 133.582 41.2455 137.107 47.2828L140.188 45.3757L140.358 45.5592L137.536 48.022C140.015 52.7715 141.887 57.7266 142.851 63.1134H140.261C139.274 58.3394 137.977 53.7417 135.871 49.4549C133.135 50.9948 130.536 52.5322 127.862 53.9327C126.215 54.7574 124.525 55.493 122.799 56.1361C122.083 56.4177 121.886 56.7311 122.037 57.4924C122.397 59.2845 122.646 61.0987 122.957 63.0132H120.276C119.304 58.4033 118.549 53.7101 117.289 49.1442C116.029 44.5782 114.292 40.2155 112.698 35.5665C108.434 37.2432 103.907 38.1549 99.3255 38.2595C94.7777 38.3349 90.2524 37.6064 85.959 36.1076C82.2102 44.6515 79.8466 53.736 78.9568 63.0207H75.6151C75.9014 61.1796 76.1503 59.3484 76.4857 57.5294C76.5894 56.9613 76.5894 56.626 75.9702 56.4032C71.2524 54.6868 66.7705 52.3832 62.6306 49.5468C60.5268 53.902 59.2417 58.4044 58.3217 63.0706H55.7049C56.6446 57.8754 58.4303 53.0329 60.8843 48.308L57.725 45.5465L57.863 45.3703L61.2961 47.4389C61.5662 47.0252 61.8116 46.67 62.036 46.3005C65.1293 41.0786 69.1395 36.4552 73.8748 32.6517C74.3013 32.3448 74.7443 32.0612 75.2017 31.8023C71.7807 35.286 68.5859 38.9534 66.0514 43.1351C65.0253 44.8267 64.098 46.5797 63.0916 48.384C67.5704 50.7903 72.316 52.6653 77.2315 53.9707C78.8323 47.4782 81.1062 41.3894 84.3334 35.6094C82.9127 34.9165 81.5315 34.2996 80.207 33.5798C78.8825 32.86 77.605 32.0251 76.2978 31.2638C76.1029 31.2012 75.8977 31.1762 75.6934 31.1903H75.6929ZM113.898 19.5004C92.7308 14.5868 72.2991 22.9644 61.2916 35.8395C61.6172 35.6118 61.9253 35.3622 62.2288 35.1051C75.5919 23.885 90.9551 19.209 108.166 22.5507C129.666 26.7127 143.761 39.6881 150.835 60.2065C151.868 63.208 151.77 63.2398 154.998 63.1075C155.108 63.0873 155.217 63.0595 155.324 63.0242C152.581 44.9199 137.906 25.0723 113.898 19.5004ZM92.5607 125.263C110.893 127.236 128.911 119.543 139.477 106.859C112.314 132.076 73.9641 123.262 57.5624 99.9235L62.2485 96.9861C59.7499 96.7608 58.9812 98.9178 57.253 99.7079C56.7596 99.0073 56.2663 98.2659 55.7213 97.5706C55.5167 97.3111 55.1788 96.9904 54.8926 96.9807C53.3931 96.9195 51.8885 96.9513 50.315 96.9513C56.0791 108.502 70.6357 122.895 92.5596 125.255L92.5607 125.263ZM111.828 107.976C111.843 105.549 111.136 103.173 109.796 101.148C108.457 99.1235 106.545 97.5409 104.303 96.6013C102.062 95.6617 99.5912 95.4073 97.2046 95.8703C94.8179 96.3334 92.6227 97.493 90.8971 99.2023C89.1714 100.912 87.993 103.094 87.5111 105.472C87.0292 107.85 87.2656 110.318 88.1902 112.562C89.1148 114.806 90.6861 116.726 92.705 118.078C94.7239 119.43 97.0994 120.153 99.5308 120.157C101.14 120.163 102.734 119.854 104.223 119.245C105.712 118.636 107.067 117.741 108.209 116.609C109.351 115.478 110.258 114.133 110.879 112.652C111.5 111.171 111.823 109.582 111.828 107.976ZM93.7199 116.591V110.959L94.0578 110.77C94.6645 113.147 95.392 115.422 98.2505 116.11C98.2505 113.906 98.29 111.889 98.2111 109.862C98.1987 109.534 97.7178 109.098 97.3603 108.927C95.9561 108.263 94.6472 107.514 94.102 105.962C93.2782 103.629 94.5017 101.169 96.9285 100.216C97.3403 100.054 97.7669 99.9273 98.1838 99.785L98.3459 98.2134L98.7779 98.118L99.2243 99.6163H100.169C100.18 99.4436 100.207 99.2723 100.248 99.1043C100.352 98.7981 100.495 98.4995 100.608 98.1961C100.757 98.5057 100.922 98.8072 101.102 99.0994C101.314 99.425 101.516 99.9319 101.807 99.9979C102.794 100.221 103.901 101.337 104.925 99.5279V105.259C103.913 103.523 103.724 101.198 101.099 100.583C101.099 102.691 101.082 104.713 101.122 106.73C101.122 106.975 101.403 107.271 101.632 107.426C101.992 107.618 102.365 107.786 102.747 107.93C104.502 108.784 105.63 110.043 105.541 112.124C105.453 114.205 104.36 115.514 102.542 116.361C101.903 116.66 100.907 116.606 101.04 117.747C101.04 117.823 100.794 118.017 100.702 117.992C100.532 117.928 100.383 117.815 100.276 117.668C100.076 117.424 99.9107 117.179 99.7306 116.912C99.5086 117.174 99.2985 117.448 99.0571 117.69C98.8859 117.835 98.7027 117.964 98.5095 118.077C97.93 116.194 95.1306 115.296 93.7197 116.601L93.7199 116.591ZM142.099 137.185C129.335 137.449 116.941 140.735 104.264 141.805V142.135H121.911V142.458L100.714 143.536L100.667 143.987C101.604 144.477 102.516 145.011 103.483 145.429C107.203 147.035 111.141 147.53 115.149 147.449C124.548 147.26 132.991 144.239 140.592 138.807C141.145 138.41 141.67 137.977 142.208 137.56L142.099 137.185ZM58.3601 137.611C58.6782 137.856 58.989 138.12 59.3098 138.366C64.3045 142.188 70.0623 144.897 76.1949 146.31C82.7653 147.82 89.3654 148.119 95.8597 145.867C97.2506 145.377 98.5481 144.643 99.8872 144.004L99.7738 143.529L78.4953 142.462V142.131H96.1375C95.0499 141.732 93.9573 141.642 92.8745 141.497C84.2742 140.256 75.681 138.951 67.0708 137.778C64.2084 137.389 61.3042 137.335 58.4187 137.127L58.3601 137.611ZM100.649 137.741C106.791 138.231 112.52 136.808 117.958 133.988C113.765 136.994 108.929 138.275 103.961 139.27C105.684 139.283 107.406 139.197 109.119 139.013C116.348 138.141 122.857 135.612 128.229 130.596C130.518 128.456 132.343 125.993 133.31 122.74C132.587 123.024 132.025 123.229 131.477 123.457C123.217 126.933 114.935 130.358 106.715 133.921C104.54 134.866 102.55 136.229 100.473 137.402L100.649 137.741ZM99.8772 137.55C89.7921 131.008 78.2542 127.676 67.2417 122.645C69.7549 131.875 83.1155 139.859 96.592 139.212C88.406 137.307 84.3982 135.809 82.2031 133.723C87.7007 136.744 93.5263 138.233 99.8699 137.55H99.8772ZM140.704 135.222C152.014 132.088 159.882 124.805 165.434 114.784C165.46 114.68 165.468 114.573 165.456 114.466C161.688 115.636 140.478 128.805 136.353 132.698L149.425 126.477L149.538 126.709L133.805 135.36C136.212 136.097 138.491 135.832 140.696 135.223L140.704 135.222ZM64.351 132.529C63.4689 131.954 62.5868 131.383 61.7047 130.815C54.8459 126.337 48.0111 121.818 41.1077 117.409C39.2432 116.219 37.1615 115.361 35.1884 114.351L34.9813 114.645C35.2008 115.066 35.4133 115.492 35.6472 115.903C38.3582 120.73 41.9911 124.981 46.3404 128.413C50.6936 131.858 55.481 134.475 61.018 135.513C62.8432 135.856 64.6904 136.103 66.5329 135.687L66.6487 135.341L50.4911 126.491C50.5281 126.421 50.5626 126.349 50.5972 126.279L64.2438 132.765L64.351 132.529ZM69.4095 130.646C67.7569 126.778 51.2542 107.632 48.0727 105.755C46.2057 113.186 56.1823 127.055 66.0503 130.428C62.2396 127.645 58.9371 124.746 56.6781 120.851C60.0535 125.113 64.0823 128.523 69.4022 130.633L69.4095 130.646ZM131.39 130.519C136.38 128.56 140.302 125.192 143.653 121.064C141.525 124.793 138.343 127.52 134.752 130.24C134.966 130.216 135.177 130.174 135.383 130.113C142.22 126.531 147.686 121.605 150.895 114.478C152.16 111.663 152.868 108.745 152.451 105.437C151.114 106.825 149.868 108.049 148.704 109.354C143.771 114.865 138.817 120.371 133.955 125.946C132.828 127.239 132.038 128.822 131.093 130.272L131.39 130.519ZM33.4259 103.324L41.7796 112.872C38.6548 107.731 35.3669 102.703 32.0692 97.6935C31.867 97.3874 31.4846 97.0031 31.1738 96.991C29.4227 96.9249 27.6691 96.9591 25.8785 96.9591C28.0982 105.026 36.2226 114.877 42.8967 116.012L33.2382 103.482L33.4259 103.324ZM159.03 112.5C161.576 109.588 164.124 106.678 166.676 103.772L166.869 103.941L157.597 116.016C164.01 114.884 172.048 105.694 174.652 96.9441C173.066 96.9441 171.515 96.9759 169.966 96.9319C169.646 96.8962 169.322 96.956 169.036 97.1037C168.75 97.2514 168.514 97.4805 168.358 97.762C165.201 102.622 162.007 107.457 158.823 112.302L159.03 112.5ZM112.822 68.9231C112.914 72.1818 112.901 75.4447 112.822 78.7158C112.81 79.2788 112.349 79.8323 112.127 80.3144H115.715C115.391 79.9398 114.728 79.5189 114.667 79.0241C114.509 77.7095 114.613 76.3629 114.613 74.9844C115.996 74.7397 117.079 74.8521 117.895 76.2085C118.575 77.3276 119.397 78.3545 120.34 79.2639C120.909 79.8196 121.771 80.3656 122.525 80.4023C125.596 80.5564 128.674 80.537 131.749 80.5025C132.087 80.5025 132.575 80.0667 132.718 79.721C132.911 79.2534 132.839 78.6756 132.881 78.1469C132.025 79.5081 130.131 80.1813 128.727 79.5032C128.572 79.42 128.437 79.3036 128.333 79.1622C128.228 79.0208 128.157 78.858 128.123 78.6856C128.066 77.0746 128.096 75.4614 128.096 73.6545C129.457 74.1638 131.127 73.0767 131.911 75.3364C132.005 74.215 132.072 73.4268 132.123 72.8301H128.109V68.2071C130.766 67.7786 131.449 67.989 132.218 69.7054C132.302 68.6797 132.364 67.9537 132.418 67.3013H124.834C126.146 67.4164 126.244 68.2585 126.238 69.26C126.213 72.3178 126.238 75.3803 126.213 78.4334C126.198 80.015 125.673 80.392 124.117 80.0075C123.711 79.9368 123.331 79.7602 123.017 79.4954C121.45 77.8626 119.929 76.178 118.545 74.6799C119.26 73.561 119.941 72.7665 120.321 71.8503C121.122 69.9162 120.232 67.8745 118.232 67.5385C116.054 67.1736 113.792 67.269 111.805 67.1736C112.194 67.8101 112.806 68.3561 112.823 68.9166L112.822 68.9231ZM118.248 69.1263C119.028 70.2964 119.013 72.5415 118.221 73.5209C117.684 74.1868 115.434 74.5002 114.803 73.959C114.663 73.8253 114.579 73.6431 114.569 73.4497C114.551 71.6711 114.569 69.8949 114.569 68.1494C116.216 67.6643 117.526 68.0319 118.251 69.1214L118.248 69.1263ZM16.065 80.8006L16.4595 80.7515C16.6421 80.3158 16.8567 79.8892 17.0071 79.4418C18.3636 75.4284 19.7119 71.4142 21.0519 67.3991C21.3973 66.3562 21.7573 65.3648 22.9511 64.9926H18.9457C20.3499 65.213 20.1789 66.0894 19.8954 67.0294C18.9089 70.2218 17.9306 73.4142 16.9604 76.6068C16.8536 76.8394 16.7239 77.0608 16.5732 77.2678C15.0786 73.0619 13.6431 69.0271 12.2052 64.995L11.8228 65.0071L7.22766 77.1848L6.91929 77.1727C5.95257 73.5225 4.96588 69.8795 4.06802 66.212C3.98404 65.8692 4.53922 65.3699 4.76848 64.988H0.0332031C1.46626 65.1397 1.91262 66.1118 2.25287 67.2892C3.42183 71.2749 4.64022 75.2458 5.85374 79.2168C6.01171 79.7358 6.25096 80.2303 6.45807 80.7494C6.67275 80.6416 6.78211 80.6222 6.80344 80.5707C8.37935 76.6046 9.95066 72.6361 11.6203 68.4227C13.147 72.669 14.6071 76.7294 16.065 80.8006ZM170.645 43.0031C169.567 46.2248 170.741 57.9983 171.757 63.0636H175.992C177.166 58.5343 173.784 45.9211 170.645 43.0031ZM28.7028 63.0781C29.5758 59.6947 31.0731 45.0399 29.667 42.8904C25.9293 49.1062 23.958 55.7214 24.3741 63.0709L28.7028 63.0781ZM42.1374 24.8861C41.9576 24.9598 41.785 25.05 41.6219 25.1556C36.7484 29.6383 33.3049 34.9901 31.8057 41.4581C31.3123 43.6124 31.0067 45.8281 31.6553 48.0218L32.0104 48.1296C33.4408 44.4719 34.873 40.8135 36.3069 37.1543L36.4573 37.201L33.7194 45.9753C37.1377 39.238 40.7942 32.6032 42.1374 24.8791V24.8861ZM166.838 46.1682L164.33 38.2264L164.519 38.1676C165.853 41.5069 167.188 44.8464 168.633 48.45C170.702 41.4554 165.019 30.0641 158.348 24.8697C159.754 32.7773 163.438 39.4094 166.837 46.1618L166.838 46.1682ZM163.706 96.9586C161.733 96.9586 159.962 96.922 158.206 96.9953C157.892 96.9953 157.429 97.4264 157.325 97.7498C156.218 101.192 155.105 104.637 154.139 108.115C153.752 109.506 153.697 110.99 153.491 112.432L153.865 112.505C157.361 108.833 159.439 104.438 160.665 99.5737C160.314 103.701 158.552 107.33 156.702 110.933C160.125 106.847 162.604 102.33 163.707 96.9589L163.706 96.9586ZM39.7819 98.7876C40.8523 104.056 42.9883 108.771 46.9345 112.818C46.9598 112.574 46.9721 112.329 46.9715 112.084C46.5251 106.999 44.8158 102.245 43.0747 97.5024C43.0074 97.3682 42.9093 97.2517 42.7885 97.1623C42.6676 97.073 42.5273 97.0133 42.3791 96.9883C40.5491 96.9441 38.7163 96.9637 36.8739 96.9637C37.266 100.932 41.3135 108.975 43.669 110.674C42.8106 108.794 41.8117 106.921 41.094 104.95C40.3762 102.979 39.9544 100.927 39.402 98.91L39.7819 98.7876ZM36.329 46.6827L40.2752 41.3651L40.5218 41.5511C39.6436 42.8535 38.6794 44.1112 37.9122 45.4681C37.145 46.825 36.5728 48.3031 35.9169 49.726L36.2993 49.9513C42.4358 45.2582 46.4114 38.7923 50.746 32.4884C45.9095 32.3267 37.0303 41.2382 36.3322 46.6708L36.329 46.6827ZM164.297 49.8017C163.394 46.1294 161.352 43.123 158.772 40.4251L159.15 40.1608L164.288 46.7562C162.458 40.2292 154.629 32.3706 149.736 32.4709C154.059 38.7651 158.014 45.2309 164.296 49.8015L164.297 49.8017ZM152.51 23.1554L158.127 30.2551C158.231 23.9221 150.039 14.6749 143.351 12.2656C146.431 18.6776 151.159 23.6252 155.873 28.5878L152.317 23.2681L152.51 23.1554ZM48.2798 23.0794L44.5334 28.7104C46.9789 26.2878 49.2745 23.719 51.4073 21.0181C53.2473 18.6337 54.8059 16.0385 56.4634 13.5193C56.6438 13.1601 56.7789 12.7799 56.8655 12.3875C50.2851 15.7782 45.1968 20.4182 42.7082 27.412C42.4344 28.1809 42.395 29.029 42.247 29.8431L42.5824 29.99L48.1121 22.9684L48.2798 23.0794ZM110.852 48.4688L111.705 49.8815L114.243 43.4844L107.816 46.1628L109.331 46.9535L99.5751 57.2812L92.5002 51.6235L81.4748 62.2287C84.7306 59.357 88.0034 56.5072 91.19 53.5646C92.0336 52.7885 92.5097 52.8815 93.279 53.6013C95.3385 55.5281 97.4718 57.3714 99.6596 59.3228L110.852 48.4688ZM159.452 48.4222C161.032 53.1228 162.622 57.8193 164.222 62.5117C164.277 62.651 164.364 62.7756 164.476 62.8755C164.588 62.9754 164.721 63.0479 164.866 63.087C166.321 63.1385 167.782 63.114 169.385 63.114C167.821 56.8295 165.364 51.3626 159.501 47.8814C159.461 48.0587 159.444 48.2407 159.452 48.4225L159.452 48.4222ZM31.3569 63.1223C32.626 63.1223 33.8952 63.0733 35.1576 63.1396C35.8705 63.1762 36.1689 62.8825 36.3908 62.2681C37.269 59.7782 38.2208 57.3095 39.0717 54.8132C39.8116 52.6343 40.4578 50.4205 41.215 47.9951C36.467 49.6767 31.6674 57.8587 31.3569 63.1223ZM46.9175 29.9751C48.0743 29.0742 49.1793 28.21 50.2842 27.3457L50.3631 27.4853L45.7185 32.4577L46.0712 32.8174C52.6195 30.2592 57.6634 25.5879 63.0894 20.9216C57.6534 20.225 50.0102 25.065 46.9172 29.9762L46.9175 29.9751ZM154.453 32.8347L154.818 32.421L149.499 26.9835L149.58 26.8539L153.772 30.1444C149.656 25.0031 144.859 21.0028 137.775 20.9564C142.856 25.6105 147.905 30.3012 154.458 32.835L154.453 32.8347ZM192.223 75.6374C194.001 77.2851 195.738 78.9742 197.748 80.8887C197.792 80.0711 197.832 79.6647 197.837 79.2753C197.866 75.8919 197.892 72.5077 197.913 69.1225C197.913 68.2949 197.847 67.4479 199.033 67.3477H195.087C196.498 67.3304 196.656 68.2804 196.685 69.3063C196.725 70.6112 196.73 71.916 196.737 73.2233V77.6969L185.947 67.052C185.907 67.4975 185.848 67.8845 185.846 68.276V78.0688C185.846 79.0481 185.967 80.0786 184.642 80.3381H188.27C187.944 79.9463 187.217 79.4758 187.197 78.9794C187.083 76.1468 187.143 73.3044 187.143 71.0521C188.581 72.3397 190.423 73.9677 192.223 75.6374ZM74.1243 72.642C74.1243 71.3862 74.0403 70.1937 74.1613 69.0382C74.2228 68.431 74.6546 67.8605 74.8839 67.3245H71.0041C72.1312 67.3366 72.3359 68.1079 72.341 68.9331C72.341 72.1524 72.3583 75.3717 72.267 78.5913C72.2497 79.2033 71.7737 79.8153 71.5565 80.305H75.4315C75.0616 79.9916 74.302 79.6582 74.2771 79.2766C74.1513 77.3902 74.2204 75.4916 74.2204 73.6114H81.743C81.743 75.3472 81.8097 76.98 81.7084 78.6031C81.6714 79.1982 81.2372 79.7684 80.9858 80.3438H85.1243C83.674 80.2654 83.5481 79.2928 83.5481 78.2016C83.5481 75.1437 83.5308 72.0812 83.526 69.0282C83.526 68.2327 83.5703 67.4517 84.658 67.3145H80.3887C81.6811 67.4099 81.7848 68.2766 81.7773 69.2462C81.7648 70.343 81.7773 71.4496 81.7773 72.6418L74.1243 72.642ZM167.623 73.7634C167.601 77.847 170.513 80.6796 174.727 80.6796C178.998 80.6796 182.145 77.6316 182.125 73.5087C182.111 69.6211 179.215 66.9892 174.929 66.9647C170.763 66.9426 167.643 69.8439 167.623 73.7634ZM174.447 67.6317C177.091 67.4506 179.523 69.572 179.937 72.5281C180.065 73.5351 180.065 74.5543 179.937 75.5614C179.678 77.8162 178.265 79.3979 176.294 79.8043C174.121 80.2549 171.812 79.4248 170.777 77.5273C170.079 76.2446 169.761 74.7583 169.272 73.3654L169.588 73.2576C169.603 69.9059 171.386 67.8408 174.447 67.6317ZM141.941 15.8819L138.12 12.4961L138.273 12.3371L144.158 16.7068L144.456 16.298C140.922 9.52386 134.779 6.27274 127.653 4.33107C131.422 9.37941 136.672 12.6405 141.941 15.8819ZM72.6988 4.19417C71.4261 4.61269 70.1213 4.9579 68.8832 5.46481C64.128 7.40513 59.9425 10.1165 57.0691 14.4865C56.6975 15.1203 56.3616 15.7742 56.0627 16.4452L56.3686 16.6632L61.4468 12.986L61.6194 13.194L58.7757 15.679C63.9676 12.5281 69.1125 9.34303 72.8983 4.51998L72.6988 4.19417ZM105.07 64.6867C104.086 64.6056 103.097 64.5958 102.111 64.6573C98.0459 64.8754 95.2219 67.5511 94.6867 71.6519C94.1812 75.5178 96.349 79.1631 100.145 80.1446C102.118 80.654 104.271 80.5952 106.338 80.5413C108.277 80.4898 109.155 78.8276 108.4 76.7197C108.084 78.5657 107.066 79.4542 105.324 79.6571C100.224 80.2888 96.3736 76.6927 96.5858 71.4312C96.7141 68.2634 98.4037 65.9962 101.191 65.6534C102.658 65.4723 104.202 65.6337 105.68 65.8541C107.372 66.0988 108.146 67.3477 108.486 68.9608C108.553 67.7538 108.619 66.5494 108.696 65.1979C107.408 65.0155 106.244 64.7894 105.07 64.6867ZM58.9812 20.1905C65.3199 19.4192 70.8199 16.4104 76.5173 13.4824C72.2238 11.607 63.6638 14.4617 60.286 17.8891L64.4542 16.0797L64.496 16.2242L58.7338 19.6569L58.9812 20.1905ZM124.318 13.622C128.96 16.1584 133.69 18.489 138.87 19.762C139.77 19.9849 140.717 20.0067 141.64 20.1269L141.748 19.7426C140.588 18.9934 139.468 18.171 138.258 17.5123C137.047 16.8537 135.734 16.3519 134.469 15.779L134.55 15.5709L140.072 17.7498C135.987 14.0629 127.794 11.693 124.208 13.4164C124.242 13.4875 124.261 13.5902 124.318 13.622ZM120.811 7.25665C117.188 3.50616 105.803 1.79329 100.47 4.25049C107.064 6.25214 113.919 7.26374 120.811 7.25206V7.25665ZM99.7403 4.07398C93.8555 1.93666 84.0317 3.41049 79.7253 7.144C84.2931 7.68756 97.7029 5.60414 99.7403 4.05673V4.07398ZM126.454 7.63878L124.094 6.30939L124.19 6.11347L129.123 8.09664L129.276 7.71936C124.764 2.59044 118.761 0.903973 112.15 0.624513C116.302 4.22597 121.329 6.02777 126.454 7.63878ZM88.3677 0.646611C83.5163 -0.352386 73.5124 3.9271 71.1396 8.22142L77.1813 5.69738L77.2623 5.8809L73.7157 7.78565C79.5257 6.28002 86.6189 2.75698 88.3677 0.646611ZM140.423 68.0702C139.135 71.4094 137.843 74.7465 136.58 78.1078C136.186 79.1483 135.751 80.1056 134.491 80.326H137.944C137.801 79.8609 137.495 79.4078 137.562 79.0187C138.097 75.8067 138.756 75.29 141.963 75.4811C142.279 75.4984 142.76 75.6646 142.859 75.8899C143.48 77.3452 144.018 78.8274 144.585 80.3554H147.947C146.632 80.0665 146.1 79.0774 145.668 78.0149C144.348 74.7734 143.046 71.5272 141.722 68.2833C141.549 67.8548 141.334 67.4412 141.009 66.7335C140.737 67.3725 140.562 67.715 140.423 68.0702ZM139.066 74.6266L140.686 69.8598C141.325 71.6298 141.85 73.0916 142.413 74.6266H139.066ZM45.0254 78.0539C43.6911 74.7734 42.3791 71.483 41.047 68.2025C40.8793 67.784 40.6498 67.3897 40.3195 66.7189C40.0063 67.4339 39.8262 67.8279 39.6609 68.2367C38.4695 71.3533 37.3006 74.4797 36.0946 77.588C35.6482 78.7411 35.4163 80.1072 33.8155 80.3521H37.1847C37.0862 79.8331 36.8296 79.3011 36.9233 78.8416C37.5671 75.6247 38.0899 75.2405 41.3284 75.4558C41.6119 75.4754 42.0485 75.6027 42.135 75.7986C42.7738 77.2676 43.3385 78.7535 43.9774 80.3621H47.2504C45.9678 80.0657 45.4499 79.1063 45.0256 78.0658L45.0254 78.0539ZM40.0087 69.8647C40.6179 71.5417 41.1407 72.9762 41.7156 74.5554H38.4031C38.9259 73.0401 39.4217 71.5883 40.0087 69.8768V69.8647ZM74.6765 10.1728L78.9581 9.43843L79.0197 9.72733C76.9307 10.1046 74.8612 10.5401 73.0757 11.7814C78.9187 12.5629 84.4211 11.0909 90.0421 9.52656C86.7745 7.31566 78.7931 7.70238 74.6768 10.1725L74.6765 10.1728ZM127.524 11.4394L121.44 9.55809V9.46269L125.355 10.0062C121.288 7.67058 113.763 7.40621 110.542 9.44032C115.494 11.4723 124.677 12.699 127.523 11.438L127.524 11.4394ZM24.1819 67.2574C25.7111 67.3528 25.5877 68.4375 25.586 69.4362C25.586 72.374 25.5811 75.3061 25.5712 78.2326C25.5712 79.1041 25.5563 79.9463 24.4589 80.3772C26.4321 80.5068 28.3015 80.5044 30.1809 80.5095C32.1195 80.5095 32.5018 80.0199 32.0503 78.0784C31.6966 78.7713 31.0914 79.3034 30.3582 79.5663C29.6249 79.8293 28.8188 79.8032 28.1041 79.4935C27.9305 79.4026 27.7798 79.2737 27.6632 79.1164C27.5466 78.9591 27.4671 78.7776 27.4306 78.5854C27.3615 77.0137 27.3985 75.4393 27.3985 73.596C28.7452 74.1665 30.4347 73.0379 31.2313 75.234C31.3393 74.1886 31.4236 73.3928 31.4779 72.8086L27.4107 73.0412V68.0187C28.8731 68.3933 30.7107 67.1668 31.5197 69.8205C31.6307 68.6886 31.6998 67.9769 31.7663 67.2647L24.1819 67.2574ZM62.0215 79.088C62.0215 79.5213 61.5035 79.9449 61.2543 80.3276H65.3388C64.2241 80.2322 63.9749 79.5932 63.9797 78.6139C63.9797 76.5389 63.9303 74.4519 63.913 72.3833C63.9006 70.9731 63.913 69.5631 63.913 68.1723C67.1415 67.8565 67.7953 68.0327 68.6289 69.5335V67.1741H57.4636L57.0585 69.3605C58.2918 67.2159 60.2895 68.3811 62.0579 68.0165C62.0595 71.8379 62.0865 75.4563 62.0215 79.0869V79.088ZM153.444 78.995C153.343 75.3887 153.387 71.7754 153.387 68.0025C154.986 68.4774 156.981 67.104 158.036 69.6771V67.1676H146.913C146.765 67.8532 146.6 68.6242 146.432 69.3955C147.742 67.2509 149.759 68.3281 151.486 68.0613C151.486 71.8045 151.513 75.4059 151.449 79.0268C151.449 79.4723 150.955 79.9107 150.694 80.3365H154.579C154.223 79.9315 153.459 79.4739 153.444 78.9939V78.995ZM45.1685 63.0439H47.4368C48.8915 55.106 52.0357 47.5719 56.657 40.9501C51.0879 47.4146 47.2034 54.7275 45.1685 63.0439ZM52.9773 79.5765C51.5123 79.2974 51.7934 78.0733 51.7662 77.1282C51.6873 74.5624 51.7192 71.9869 51.6995 69.4262C51.6995 68.4151 51.7292 67.453 53.0931 67.3307H48.9225C49.2381 67.7664 49.8946 68.2537 49.9089 68.759C49.9953 72.0958 49.9829 75.4402 49.9089 78.7794C49.8965 79.3157 49.4007 79.8396 49.0505 80.5176C51.3295 80.5176 53.7366 80.5421 56.1315 80.4858C56.4226 80.4858 56.8541 80.1015 56.9554 79.8051C57.1404 79.2542 57.1331 78.6374 57.2019 78.0472C56.2352 79.6159 55.2412 79.9991 52.9773 79.5765ZM161.697 68.8633C161.759 72.1586 161.748 75.4539 161.665 78.7492C161.65 79.3025 161.171 79.8436 160.925 80.3308H165.093C164.133 80.1692 163.574 79.7628 163.574 78.7274C163.574 75.5129 163.522 72.3009 163.522 69.0888C163.522 68.3421 163.497 67.4988 164.595 67.3102H160.895C161.174 67.8268 161.685 68.3359 161.697 68.8549L161.697 68.8633ZM88.8364 84.7987H86.6832C87.7633 85.8883 87.0704 87.1514 87.2481 88.356H82.1917C82.2633 87.1099 82.33 85.9519 82.3964 84.816H80.7241C81.575 86.2407 81.0892 87.7758 81.1508 89.2226C81.2123 90.6695 81.0892 92.131 81.0447 93.573H82.7909C81.7897 92.104 82.4129 90.5396 82.2657 88.9877H87.2578C87.2578 89.8274 87.2848 90.5962 87.2578 91.3592C87.2308 92.1221 87.132 92.8624 87.0656 93.6091H89.1275C88.126 92.743 87.9804 86.1672 88.8364 84.7987ZM135.138 97.0934C133.742 96.736 132.837 96.9195 132.085 98.2047C131.05 99.9635 129.862 101.627 128.533 103.177C126.232 105.87 123.78 108.416 121.435 110.98C126.865 107.285 131.52 102.568 135.138 97.0934ZM77.2704 110.926C77.0707 110.64 76.8326 110.383 76.5627 110.162C72.6111 106.66 69.1891 102.606 66.4035 98.1241C65.6439 96.8845 64.7585 96.7996 63.3994 97.0764C67.151 102.668 71.7013 107.293 77.2704 110.926ZM114.607 84.5966C113.99 84.5906 113.378 84.7078 112.807 84.9412C112.237 85.1747 111.718 85.5197 111.283 85.9559C110.849 86.3907 110.508 86.9084 110.279 87.4779C110.05 88.0474 109.938 88.6571 109.95 89.2706C109.99 91.9245 111.899 93.8048 114.555 93.8072C117.335 93.8072 119.286 91.8167 119.281 88.9793C119.274 86.3286 117.402 84.571 114.608 84.5955L114.607 84.5966ZM115.32 93.2707C113.411 93.5153 111.82 92.2668 111.307 90.1101C110.551 86.9274 112.54 84.5184 115.386 85.1868C117.036 85.5735 118.087 87.2017 118.087 89.3709C118.087 91.54 117.042 93.0424 115.321 93.2693L115.32 93.2707ZM144.539 84.5966C141.866 84.6138 139.875 86.5967 139.878 89.2483C139.88 91.8998 141.768 93.7994 144.426 93.8166C147.218 93.8315 149.162 91.858 149.164 89.0197C149.167 86.3337 147.327 84.5783 144.54 84.5955L144.539 84.5966ZM144.604 93.2876C142.495 93.2044 140.884 91.1112 141.037 88.6556C141.18 86.365 142.517 85.0054 144.562 85.0911C146.606 85.1768 148.014 86.8967 148.014 89.373C148.017 91.8041 146.656 93.3685 144.604 93.2876ZM85.4397 107.37C86.192 105.45 85.7751 103.994 85.0573 102.515C84.477 101.215 83.9625 99.8859 83.5157 98.534C82.8498 96.7126 82.7264 96.6417 80.3833 97.1801C82.0586 100.555 83.7037 103.873 85.44 107.368L85.4397 107.37ZM114.916 98.7825C114.45 100.08 114.041 101.412 113.411 102.634C112.782 103.855 113.049 105.011 113.513 106.435C114.337 104.888 115.094 103.552 115.765 102.176C116.561 100.54 117.284 98.8682 118.1 97.0785C115.644 96.7384 115.649 96.7481 114.916 98.7825ZM56.9087 84.6101C56.497 84.587 56.084 84.6034 55.6754 84.6591C53.2484 84.9332 51.7513 86.4464 51.5836 88.7769C51.4084 91.2252 52.738 93.0734 55.1575 93.6024C55.9613 93.7527 56.78 93.8078 57.5967 93.7665C59.296 93.7274 59.4869 93.4997 59.528 91.7149C58.2947 93.4935 56.1982 93.7568 54.3485 92.3587C52.4988 90.9606 52.0694 87.8833 53.4901 86.2187C54.3188 85.2393 55.441 85.0949 56.6176 85.1194C57.8327 85.1463 58.8645 85.5331 59.5204 87.0975V84.9211C58.6153 84.8084 57.7644 84.6836 56.9087 84.6101ZM26.0465 91.9547C26.3165 92.5277 26.441 93.3771 26.89 93.6145C28.0666 94.2314 29.7856 93.6708 30.4193 92.6964C31.1098 91.6313 30.8609 90.2359 29.7535 89.1782C29.1054 88.5584 28.3204 88.0544 27.7803 87.3591C27.4917 86.9942 27.3634 86.2184 27.5657 85.8387C27.7679 85.459 28.4857 85.1288 28.9542 85.1555C29.4869 85.1849 29.9949 85.6452 30.5449 85.9168C30.7915 85.2533 30.715 84.6928 29.6125 84.6413C28.4608 84.585 27.3631 84.6095 26.7439 85.7896C26.2309 86.7689 26.5344 87.8852 27.5554 88.8618C28.2035 89.4835 28.9366 90.0247 29.5285 90.6943C30.1204 91.364 30.1401 92.1364 29.4988 92.7963C29.2164 93.1013 28.8318 93.2924 28.4177 93.3335C28.0037 93.3745 27.5889 93.2627 27.2519 93.0192C26.8547 92.7745 26.6378 92.2431 26.3394 91.8415L26.0465 91.9547ZM175.018 92.6427C174.223 92.8093 173.407 93.0785 172.628 93.0025C172.354 92.9756 172.007 92.0862 171.969 91.5704C171.861 89.9939 171.848 88.405 171.875 86.821C171.875 86.1378 172.09 85.4598 172.203 84.7963H170.201C170.94 85.5676 171.14 92.1409 170.447 93.6625C171.661 93.6625 172.847 93.6037 174.021 93.6797C175.086 93.7482 175.545 93.3639 175.398 92.1423C175.213 92.397 175.149 92.6147 175.018 92.6392L175.018 92.6427ZM146.994 96.8691C145.45 98.4508 144.691 100.583 143.295 102.272L143.541 102.456L147.428 97.2278L146.994 96.8691ZM140.401 99.7702C139.072 98.7273 138.29 96.7931 135.844 96.9891L140.401 99.7702ZM101.156 115.984C102.414 115.453 102.883 114.527 102.938 113.372C102.988 112.132 102.445 111.198 101.156 110.573V115.984ZM100.238 116.079C100.238 114.294 100.282 112.507 100.203 110.725C100.189 110.341 99.7349 109.976 99.4832 109.601L99.0936 109.804C99.0936 111.751 99.0615 113.697 99.1282 115.641C99.1282 115.903 99.6215 116.15 99.8926 116.402L100.238 116.079ZM100.186 106.729V100.519C99.4463 100.254 99.0687 100.389 99.0812 101.219C99.1082 102.725 99.0393 104.233 99.1206 105.736C99.1427 106.152 99.5548 106.549 99.7865 106.96L100.186 106.729ZM98.1963 100.723C97.0173 101.186 96.5661 102.057 96.4845 103.11C96.3908 104.334 96.9112 105.313 98.1963 105.977V100.723Z" fill="white"/>
</svg>
